<?xml version="1.0" encoding="utf-8"?>
<!-- Generator: Adobe Illustrator 18.0.0, SVG Export Plug-In . SVG Version: 6.00 Build 0)  -->
<!DOCTYPE svg PUBLIC "-//W3C//DTD SVG 1.1//EN" "http://www.w3.org/Graphics/SVG/1.1/DTD/svg11.dtd">
<svg version="1.1" id="icon" xmlns="http://www.w3.org/2000/svg" xmlns:xlink="http://www.w3.org/1999/xlink" x="0px" y="0px"
	 viewBox="0 0 70 70" enable-background="new 0 0 70 70" xml:space="preserve">
<linearGradient id="SVGID_1_" gradientUnits="userSpaceOnUse" x1="35" y1="68.709" x2="35" y2="1.291">
	<stop  offset="0" style="stop-color:#BB5BFD"/>
	<stop  offset="1" style="stop-color:#EB82D6"/>
</linearGradient>
<path fill="url(#SVGID_1_)" d="M54.7,68.7H15.3c-7.7,0-14-6.3-14-14V15.3c0-7.7,6.3-14,14-14h39.4c7.7,0,14,6.3,14,14v39.4
	C68.7,62.4,62.4,68.7,54.7,68.7z"/>
<path fill="#FFFFFF" d="M35,63.7C19.2,63.7,6.3,50.8,6.3,35S19.2,6.3,35,6.3S63.7,19.2,63.7,35S50.8,63.7,35,63.7z M35,9.3
	C20.8,9.3,9.3,20.8,9.3,35S20.8,60.7,35,60.7S60.7,49.2,60.7,35S49.2,9.3,35,9.3z"/>
<path fill="#FFFFFF" d="M46.4,25.4v-8.6l-18.2,5.7v7.6v0v14.2c-1-0.6-2.1-1-3.3-1c-2.9,0-5.2,2-5.2,4.5s2.3,4.5,5.2,4.5
	c2.9,0,5.2-2,5.2-4.5c0,0,0,0,0,0V29.7l14.3-4.1v15.2c-1-0.6-2.1-1-3.3-1c-2.9,0-5.2,2-5.2,4.5c0,2.5,2.3,4.6,5.2,4.6
	c2.9,0,5.2-2.4,5.2-4.3h0v-0.3c0,0,0,0,0,0c0,0,0,0,0,0V25.4L46.4,25.4z"/>
</svg>
