<svg xmlns="http://www.w3.org/2000/svg" viewBox="0 0 128 70" enable-background="new 0 0 128 70"><linearGradient id="a" gradientUnits="userSpaceOnUse" x1="64.352" y1="8.704" x2="64.352" y2="63.385"><stop offset="0" stop-color="#F79810"/><stop offset="1" stop-color="#F8310E"/></linearGradient><path fill="url(#a)" d="M2.8 41.3c-.2 0-.5.2-.5.5l-.9 7 .9 6.9c0 .3.2.5.5.5.2 0 .5-.2.5-.5l1.1-6.9-1.1-7c0-.2-.2-.5-.5-.5zM8 37.6c-.1-.3-.2-.5-.5-.5-.2 0-.5.2-.5.5L5.8 48.9l1.2 11c0 .3.2.5.5.5.2 0 .5-.2.5-.5l1.4-11L8 37.6zm19.5-10.5c-.5 0-.9.4-1 1l-1 20.8 1 13.5c0 .5.4 1 1 1 .5 0 .9-.4 1-1l1.1-13.5-1.1-20.8c-.1-.5-.5-1-1-1zm-10.1 7.2c-.4 0-.7.3-.7.7l-1.1 13.8 1.1 13.3c0 .4.3.7.7.7s.7-.3.7-.7l1.2-13.3L18.1 35c0-.3-.3-.7-.7-.7zm20.3 28.9c.7 0 1.1-.5 1.1-1.1l1-13.2-1-27.7c0-.7-.6-1.1-1.1-1.1-.7 0-1.1.5-1.1 1.1l-.8 27.7.8 13.2c0 .6.5 1.1 1.1 1.1zm21 .1c.9 0 1.6-.7 1.6-1.6l.7-12.8-.7-32c0-.9-.7-1.6-1.6-1.6s-1.6.7-1.6 1.6l-.6 32 .6 12.8c.1.9.7 1.6 1.6 1.6zm-10.5-.1c.7 0 1.4-.6 1.4-1.4l.8-13-.8-27.9c0-.7-.7-1.4-1.4-1.4s-1.4.6-1.4 1.4l-.7 27.9.7 13c0 .8.6 1.4 1.4 1.4zm-25.8-.1c.4 0 .8-.3.8-.8l1.2-13.5L23.2 36c0-.5-.4-.8-.8-.8-.5 0-.8.3-.8.8l-1.1 12.8 1.1 13.5c0 .4.4.8.8.8zm-10-.7c.3 0 .6-.2.7-.7l1.3-12.9-1.3-13.4c0-.3-.3-.7-.7-.7-.3 0-.6.2-.7.7l-1.1 13.4 1.1 12.9c.1.5.4.7.7.7zm41-41.9c-.8 0-1.5.7-1.5 1.5l-.7 26.9.7 12.9c0 .8.7 1.5 1.5 1.5s1.5-.7 1.5-1.5l.7-12.9-.7-26.9c0-.8-.7-1.5-1.5-1.5zM32.6 63.3c.6 0 1.1-.5 1.1-1.1l1.1-13.4-1.1-25.5c0-.6-.5-1.1-1.1-1.1-.6 0-1.1.5-1.1 1.1l-.9 25.5.9 13.4c0 .6.5 1.1 1.1 1.1zM44.2 62l.9-13.1-.9-28.6c0-.7-.6-1.3-1.3-1.3s-1.2.6-1.3 1.3l-.8 28.6.8 13.1c0 .7.6 1.2 1.3 1.2s1.3-.5 1.3-1.2zm67.6-29.6c-2.1 0-4.2.4-6 1.2-1.3-14-13-24.9-27.3-24.9-3.5 0-6.9.7-9.9 1.9-1.1.5-1.5.9-1.5 1.8v49.1c0 1 .7 1.7 1.6 1.8h42.9c8.6 0 15.5-6.9 15.5-15.5s-6.8-15.4-15.3-15.4zM64 12.3c-.9 0-1.7.7-1.7 1.7l-.7 34.8.7 12.7c0 .9.7 1.7 1.7 1.7.9 0 1.7-.7 1.7-1.7l.7-12.7-.7-34.8c0-.9-.8-1.7-1.7-1.7z"/></svg>