<?xml version="1.0" encoding="utf-8"?>
<!-- Generator: Adobe Illustrator 18.0.0, SVG Export Plug-In . SVG Version: 6.00 Build 0)  -->
<!DOCTYPE svg PUBLIC "-//W3C//DTD SVG 1.1//EN" "http://www.w3.org/Graphics/SVG/1.1/DTD/svg11.dtd">
<svg version="1.1" id="map" xmlns="http://www.w3.org/2000/svg" xmlns:xlink="http://www.w3.org/1999/xlink" x="0px" y="0px"
	 width="940px" height="570px" viewBox="193 18.6 940 570" enable-background="new 193 18.6 940 570" xml:space="preserve">
<g id="greenery">
	<rect x="189.6" y="14.6" fill="#F6F0EF" width="943.4" height="618"/>
</g>
<g id="smallroads">
	<polyline fill="none" stroke="#F4E6D7" stroke-width="4" stroke-miterlimit="10" points="489,157 496,306 529,314 540,333 577,259 
			"/>
	<polyline fill="none" stroke="#F4E6D7" stroke-width="4" stroke-miterlimit="10" points="186,266 746,260 640,321 	"/>
	<line fill="none" stroke="#F4E6D7" stroke-width="4" stroke-miterlimit="10" x1="634" y1="263" x2="636" y2="318"/>
	<line fill="none" stroke="#F4E6D7" stroke-width="4" stroke-miterlimit="10" x1="640" y1="329" x2="188" y2="346"/>
	<line fill="none" stroke="#F4E6D7" stroke-width="4" stroke-miterlimit="10" x1="189" y1="399" x2="612" y2="403"/>
	<polyline fill="none" stroke="#F4E6D7" stroke-width="4" stroke-miterlimit="10" points="188,486 510,492 525,482 727,488 730,473 
		850,460 902,494 905,453 862,407 664,401 	"/>
	<polyline fill="none" stroke="#F4E6D7" stroke-width="4" stroke-miterlimit="10" points="848,628 902,494 1064,504 	"/>
	<line fill="none" stroke="#F4E6D7" stroke-width="4" stroke-miterlimit="10" x1="1065" y1="632.6" x2="1066" y2="366"/>
	<polyline fill="none" stroke="#F4E6D7" stroke-width="4" stroke-miterlimit="10" points="641,377 897,363 960,347 1028,362 
		1122,372 1133,443 1064,446 	"/>
	<polyline fill="none" stroke="#F4E6D7" stroke-width="4" stroke-miterlimit="10" points="901.7,130.3 896,377 912,421 902,447 	"/>
	<polyline fill="none" stroke="#F4E6D7" stroke-width="4" stroke-miterlimit="10" points="905,635 941,386 953,373 959,307 
		1040,211 1045.7,140.3 	"/>
	<polyline fill="none" stroke="#F4E6D7" stroke-width="4" stroke-miterlimit="10" points="970,129 977,319 991,321 988,400 974,408 
		974,497 	"/>
	<line fill="none" stroke="#F4E6D7" stroke-width="4" stroke-miterlimit="10" x1="998" y1="501" x2="998" y2="632.6"/>
	<line fill="none" stroke="#F4E6D7" stroke-width="4" stroke-miterlimit="10" x1="695" y1="405" x2="688" y2="632.6"/>
	<polyline fill="none" stroke="#F4E6D7" stroke-width="4" stroke-miterlimit="10" points="713,123 699,212 703,299 716,353 716,402 
			"/>
	<line fill="none" stroke="#F4E6D7" stroke-width="4" stroke-miterlimit="10" x1="656" y1="139" x2="655" y2="261"/>
	<polyline fill="none" stroke="#F4E6D7" stroke-width="4" stroke-miterlimit="10" points="702,198 878,202 883,178 995,175 
		1012,179 	"/>
	<line fill="none" stroke="#F4E6D7" stroke-width="4" stroke-miterlimit="10" x1="746" y1="260" x2="818" y2="255"/>
</g>
<g id="roads_1_">
	<path fill="none" stroke="#F4D8B3" stroke-width="4" stroke-miterlimit="10" d="M636,632.6c-1-3.6,4-311.6,4-311.6l-50-53l-7-252"
		/>
	<polyline fill="none" stroke="#F4D8B3" stroke-width="4" stroke-miterlimit="10" points="188,153 587,156 740,116 904,116 987,130 
		1047,104 1087,109 1121,121 1116,139 1014,138 990,142 972,142 	"/>
	<polyline fill="none" stroke="#F4D8B3" stroke-width="4" stroke-miterlimit="10" points="915,118 898,133 818,255 703,378 645,411 
		625,408 631,387 659,386 664,401 612,403 	"/>
	<line fill="none" stroke="#F4D8B3" stroke-width="4" stroke-miterlimit="10" x1="891" y1="117" x2="898" y2="133"/>
	<polyline fill="none" stroke="#F4D8B3" stroke-width="4" stroke-miterlimit="10" points="818,255 906,248 982,206 1056,144 
		1132,16 	"/>
	<line fill="none" stroke="#F4D8B3" stroke-width="4" stroke-miterlimit="10" x1="1051" y1="19" x2="1079" y2="108"/>
	<polyline fill="none" stroke="#F4D8B3" stroke-width="4" stroke-miterlimit="10" points="1071,16 1047,104 1053,140 	"/>
	<line fill="none" stroke="#F4D8B3" stroke-width="4" stroke-miterlimit="10" x1="1064" y1="138" x2="1066" y2="366"/>
	<polyline fill="none" stroke="#F4D8B3" stroke-width="4" stroke-miterlimit="10" points="1090,141 1099,178 1118,200 1122,372 	"/>
	<line fill="none" stroke="#F4D8B3" stroke-width="4" stroke-miterlimit="10" x1="1121" y1="121" x2="1133" y2="122"/>
	<line fill="none" stroke="#F4D8B3" stroke-width="4" stroke-miterlimit="10" x1="1108" y1="139" x2="1133" y2="158"/>
</g>
<g id="marker_1_">
	<path id="pin_2_" fill="#B9252D" d="M669.5,388.4c1-1.6,1.6-3.5,1.6-5.5c0-5.7-4.6-10.4-10.4-10.4c-5.7,0-10.4,4.6-10.4,10.4
		c0,2.2,0.7,4.2,1.8,5.8l8.6,10.4L669.5,388.4z"/>
	<g>
		<path fill="#FFFFFF" d="M663.8,379.1c0.3,0.4,0.4,0.8,0.4,1.4c0,0.5-0.1,1-0.4,1.3c-0.2,0.2-0.4,0.4-0.7,0.5
			c0.5,0.2,0.8,0.4,1,0.8c0.2,0.4,0.4,0.8,0.4,1.3c0,0.5-0.1,1-0.4,1.4c-0.2,0.3-0.4,0.5-0.6,0.7c-0.3,0.2-0.6,0.4-1,0.5
			c-0.4,0.1-0.8,0.1-1.3,0.1h-4.1v-9h4.3C662.6,378.1,663.3,378.5,663.8,379.1z M658.9,379.7v2h2.2c0.4,0,0.7-0.1,1-0.2
			c0.2-0.1,0.4-0.4,0.4-0.8c0-0.4-0.2-0.7-0.5-0.8c-0.3-0.1-0.6-0.1-1.1-0.1H658.9z M658.9,383.2v2.4h2.2c0.4,0,0.7-0.1,0.9-0.2
			c0.4-0.2,0.6-0.6,0.6-1.1c0-0.5-0.2-0.8-0.6-1c-0.2-0.1-0.5-0.1-0.9-0.2H658.9z"/>
	</g>
</g>
<g id="marker_2_">
	<path id="pin_1_" fill="#B9252D" d="M1081.1,137.6c1-1.6,1.6-3.5,1.6-5.5c0-5.7-4.6-10.4-10.4-10.4s-10.4,4.6-10.4,10.4
		c0,2.2,0.7,4.2,1.8,5.8l8.6,10.4L1081.1,137.6z"/>
	<g>
		<path fill="#FFFFFF" d="M1071.3,127.4h2.1l3.2,9h-2l-0.6-1.8h-3.3l-0.6,1.8h-2L1071.3,127.4z M1071.2,133h2.3l-1.1-3.5L1071.2,133
			z"/>
	</g>
</g>
<g id="sign">
	<g>
		<path fill="#FFFFFF" d="M937,243c15.5-5.1,7.6-19.3,7.6-19.3s-4.9,1.1-7.6-0.2h0c-2.7,1.3-7.6,0.2-7.6,0.2S921.5,237.9,937,243
			L937,243z"/>
		<path fill="#0EA9D6" d="M945.1,227.8c0,0,3.6,10-8.1,13.9c-11.7-3.9-8.1-13.9-8.1-13.9H945.1z"/>
		<path fill="#D72631" d="M937,227h7.8c0,0-0.3-1.4-0.8-1.9c0,0-4.2,0.6-7-0.3c-2.9,1-7,0.3-7,0.3c-0.5,0.5-0.8,1.9-0.8,1.9H937z"/>
		<g>
			<path fill="#FFFFFF" d="M934.3,232.5c0.2,0,0.3,0,0.4-0.1s0.2-0.1,0.3-0.2s0.1-0.2,0.1-0.4c0-0.3-0.1-0.5-0.3-0.6
				c-0.2-0.1-0.4-0.2-0.6-0.2c-0.3,0-0.5,0.1-0.7,0.3c-0.2,0.2-0.2,0.5-0.2,0.8h-1.2c0-0.3,0.1-0.6,0.2-0.9s0.2-0.5,0.4-0.7
				c0.2-0.2,0.4-0.3,0.7-0.4s0.5-0.2,0.9-0.2c0.2,0,0.5,0,0.7,0.1c0.2,0.1,0.5,0.2,0.7,0.3c0.2,0.1,0.4,0.3,0.5,0.5s0.2,0.5,0.2,0.7
				c0,0.3-0.1,0.6-0.2,0.8c-0.1,0.2-0.4,0.4-0.6,0.5v0c0.3,0.1,0.6,0.2,0.8,0.5c0.2,0.2,0.3,0.5,0.3,0.9c0,0.3-0.1,0.6-0.2,0.9
				c-0.1,0.2-0.3,0.5-0.5,0.6s-0.5,0.3-0.7,0.4c-0.3,0.1-0.6,0.1-0.9,0.1c-0.3,0-0.7,0-0.9-0.1c-0.3-0.1-0.5-0.2-0.7-0.4
				c-0.2-0.2-0.3-0.4-0.5-0.7s-0.2-0.6-0.2-0.9h1.2c0,0.2,0,0.3,0.1,0.5c0,0.1,0.1,0.3,0.2,0.4c0.1,0.1,0.2,0.2,0.3,0.3
				s0.3,0.1,0.5,0.1c0.3,0,0.5-0.1,0.7-0.3s0.3-0.4,0.3-0.7c0-0.2,0-0.4-0.1-0.5s-0.2-0.2-0.3-0.3c-0.1-0.1-0.3-0.1-0.5-0.1
				c-0.2,0-0.3,0-0.5,0v-0.9C934,232.5,934.2,232.5,934.3,232.5z"/>
			<path fill="#FFFFFF" d="M938.6,231l-0.2,1.4l0,0c0.2-0.2,0.3-0.3,0.5-0.4c0.2-0.1,0.4-0.1,0.7-0.1c0.3,0,0.6,0.1,0.8,0.2
				s0.4,0.3,0.6,0.4c0.2,0.2,0.3,0.4,0.4,0.7c0.1,0.3,0.1,0.5,0.1,0.8c0,0.3-0.1,0.6-0.2,0.9c-0.1,0.3-0.3,0.5-0.5,0.7
				c-0.2,0.2-0.4,0.4-0.7,0.5c-0.3,0.1-0.6,0.2-0.9,0.2c-0.3,0-0.6,0-0.8-0.1c-0.3-0.1-0.5-0.2-0.7-0.4s-0.4-0.4-0.5-0.6
				c-0.1-0.2-0.2-0.5-0.2-0.8h1.2c0,0.3,0.1,0.5,0.3,0.7c0.2,0.2,0.4,0.2,0.7,0.2c0.2,0,0.3,0,0.4-0.1s0.2-0.2,0.3-0.3
				s0.2-0.2,0.2-0.4c0-0.1,0.1-0.3,0.1-0.4c0-0.2,0-0.3-0.1-0.4c0-0.1-0.1-0.3-0.2-0.4c-0.1-0.1-0.2-0.2-0.3-0.2
				c-0.1-0.1-0.3-0.1-0.4-0.1c-0.2,0-0.4,0-0.5,0.1c-0.1,0.1-0.3,0.2-0.4,0.4h-1.1l0.6-3.4h3.4v1H938.6z"/>
		</g>
	</g>
	<g>
		<path fill="#FFFFFF" d="M637.8,458c15.5-5.1,7.6-19.3,7.6-19.3s-4.9,1.1-7.6-0.2h0c-2.7,1.3-7.6,0.2-7.6,0.2
			S622.3,452.9,637.8,458L637.8,458z"/>
		<path fill="#0EA9D6" d="M645.9,442.8c0,0,3.6,10-8.1,13.9c-11.7-3.9-8.1-13.9-8.1-13.9H645.9z"/>
		<path fill="#D72631" d="M637.8,442h7.8c0,0-0.3-1.4-0.8-1.9c0,0-4.2,0.7-7-0.3c-2.9,1-7,0.3-7,0.3c-0.5,0.5-0.8,1.9-0.8,1.9H637.8
			z"/>
		<g>
			<path fill="#FFFFFF" d="M635.1,447.5c0.2,0,0.3,0,0.4-0.1c0.1-0.1,0.2-0.1,0.3-0.2s0.1-0.2,0.1-0.4c0-0.3-0.1-0.5-0.3-0.6
				c-0.2-0.1-0.4-0.2-0.6-0.2c-0.3,0-0.5,0.1-0.7,0.3c-0.2,0.2-0.2,0.5-0.2,0.8H633c0-0.3,0.1-0.6,0.2-0.9c0.1-0.3,0.2-0.5,0.4-0.7
				c0.2-0.2,0.4-0.3,0.7-0.4s0.5-0.2,0.9-0.2c0.2,0,0.5,0,0.7,0.1s0.5,0.2,0.7,0.3c0.2,0.1,0.4,0.3,0.5,0.5s0.2,0.5,0.2,0.7
				c0,0.3-0.1,0.6-0.2,0.8c-0.1,0.2-0.4,0.4-0.6,0.5v0c0.3,0.1,0.6,0.2,0.8,0.5c0.2,0.2,0.3,0.5,0.3,0.9c0,0.3-0.1,0.6-0.2,0.9
				s-0.3,0.5-0.5,0.6c-0.2,0.2-0.5,0.3-0.7,0.4c-0.3,0.1-0.6,0.1-0.9,0.1c-0.3,0-0.7,0-0.9-0.1c-0.3-0.1-0.5-0.2-0.7-0.4
				c-0.2-0.2-0.3-0.4-0.5-0.7c-0.1-0.3-0.2-0.6-0.2-0.9h1.2c0,0.2,0,0.3,0.1,0.5c0,0.1,0.1,0.3,0.2,0.4c0.1,0.1,0.2,0.2,0.3,0.3
				c0.1,0.1,0.3,0.1,0.5,0.1c0.3,0,0.5-0.1,0.7-0.3c0.2-0.2,0.3-0.4,0.3-0.7c0-0.2,0-0.4-0.1-0.5s-0.2-0.2-0.3-0.3
				c-0.1-0.1-0.3-0.1-0.5-0.1c-0.2,0-0.3,0-0.5,0v-0.9C634.8,447.5,635,447.5,635.1,447.5z"/>
			<path fill="#FFFFFF" d="M639.4,446l-0.2,1.4l0,0c0.2-0.2,0.3-0.3,0.5-0.4c0.2-0.1,0.4-0.1,0.7-0.1c0.3,0,0.6,0.1,0.8,0.2
				s0.4,0.3,0.6,0.4c0.2,0.2,0.3,0.4,0.4,0.7c0.1,0.3,0.1,0.5,0.1,0.8c0,0.3-0.1,0.6-0.2,0.9s-0.3,0.5-0.5,0.7
				c-0.2,0.2-0.4,0.4-0.7,0.5c-0.3,0.1-0.6,0.2-0.9,0.2c-0.3,0-0.6,0-0.8-0.1c-0.3-0.1-0.5-0.2-0.7-0.4c-0.2-0.2-0.4-0.4-0.5-0.6
				s-0.2-0.5-0.2-0.8h1.2c0,0.3,0.1,0.5,0.3,0.7c0.2,0.2,0.4,0.2,0.7,0.2c0.2,0,0.3,0,0.4-0.1c0.1-0.1,0.2-0.2,0.3-0.3
				s0.2-0.2,0.2-0.4c0-0.1,0.1-0.3,0.1-0.4c0-0.2,0-0.3-0.1-0.4c0-0.1-0.1-0.3-0.2-0.4c-0.1-0.1-0.2-0.2-0.3-0.2
				c-0.1-0.1-0.3-0.1-0.4-0.1c-0.2,0-0.4,0-0.5,0.1c-0.1,0.1-0.3,0.2-0.4,0.4h-1.1l0.6-3.4h3.4v1H639.4z"/>
		</g>
	</g>
	<g>
		<path fill="#FFFFFF" d="M588.8,221c15.5-5.1,7.6-19.3,7.6-19.3s-4.9,1.1-7.6-0.2h0c-2.7,1.3-7.6,0.2-7.6,0.2
			S573.3,215.9,588.8,221L588.8,221z"/>
		<path fill="#0EA9D6" d="M596.9,205.8c0,0,3.6,10-8.1,13.9c-11.7-3.9-8.1-13.9-8.1-13.9H596.9z"/>
		<path fill="#D72631" d="M588.8,205h7.8c0,0-0.3-1.4-0.8-1.9c0,0-4.2,0.6-7-0.3c-2.9,1-7,0.3-7,0.3c-0.5,0.5-0.8,1.9-0.8,1.9H588.8
			z"/>
		<g>
			<path fill="#FFFFFF" d="M583.5,214.1v-4h-1.5v-0.9c0.2,0,0.4,0,0.6,0c0.2,0,0.4-0.1,0.5-0.2c0.2-0.1,0.3-0.2,0.4-0.4
				s0.2-0.4,0.2-0.6h1v6.1H583.5z"/>
			<path fill="#FFFFFF" d="M588.6,210.5c0.2,0,0.3,0,0.4-0.1s0.2-0.1,0.3-0.2s0.1-0.2,0.1-0.4c0-0.3-0.1-0.5-0.3-0.6
				c-0.2-0.1-0.4-0.2-0.6-0.2c-0.3,0-0.5,0.1-0.7,0.3c-0.2,0.2-0.2,0.5-0.2,0.8h-1.2c0-0.3,0.1-0.6,0.2-0.9s0.2-0.5,0.4-0.7
				c0.2-0.2,0.4-0.3,0.7-0.4s0.5-0.2,0.9-0.2c0.2,0,0.5,0,0.7,0.1c0.2,0.1,0.5,0.2,0.7,0.3c0.2,0.1,0.4,0.3,0.5,0.5s0.2,0.5,0.2,0.7
				c0,0.3-0.1,0.6-0.2,0.8c-0.1,0.2-0.4,0.4-0.6,0.5v0c0.3,0.1,0.6,0.2,0.8,0.5c0.2,0.2,0.3,0.5,0.3,0.9c0,0.3-0.1,0.6-0.2,0.9
				c-0.1,0.2-0.3,0.5-0.5,0.6s-0.5,0.3-0.7,0.4c-0.3,0.1-0.6,0.1-0.9,0.1c-0.3,0-0.7,0-0.9-0.1c-0.3-0.1-0.5-0.2-0.7-0.4
				c-0.2-0.2-0.3-0.4-0.5-0.7s-0.2-0.6-0.2-0.9h1.2c0,0.2,0,0.3,0.1,0.5c0,0.1,0.1,0.3,0.2,0.4c0.1,0.1,0.2,0.2,0.3,0.3
				s0.3,0.1,0.5,0.1c0.3,0,0.5-0.1,0.7-0.3s0.3-0.4,0.3-0.7c0-0.2,0-0.4-0.1-0.5s-0.2-0.2-0.3-0.3c-0.1-0.1-0.3-0.1-0.5-0.1
				c-0.2,0-0.3,0-0.5,0v-0.9C588.3,210.5,588.4,210.5,588.6,210.5z"/>
			<path fill="#FFFFFF" d="M592.8,209l-0.2,1.4l0,0c0.2-0.2,0.3-0.3,0.5-0.4c0.2-0.1,0.4-0.1,0.7-0.1c0.3,0,0.6,0.1,0.8,0.2
				s0.4,0.3,0.6,0.4c0.2,0.2,0.3,0.4,0.4,0.7c0.1,0.3,0.1,0.5,0.1,0.8c0,0.3-0.1,0.6-0.2,0.9c-0.1,0.3-0.3,0.5-0.5,0.7
				c-0.2,0.2-0.4,0.4-0.7,0.5c-0.3,0.1-0.6,0.2-0.9,0.2c-0.3,0-0.6,0-0.8-0.1c-0.3-0.1-0.5-0.2-0.7-0.4s-0.4-0.4-0.5-0.6
				c-0.1-0.2-0.2-0.5-0.2-0.8h1.2c0,0.3,0.1,0.5,0.3,0.7c0.2,0.2,0.4,0.2,0.7,0.2c0.2,0,0.3,0,0.4-0.1s0.2-0.2,0.3-0.3
				s0.2-0.2,0.2-0.4c0-0.1,0.1-0.3,0.1-0.4c0-0.2,0-0.3-0.1-0.4c0-0.1-0.1-0.3-0.2-0.4c-0.1-0.1-0.2-0.2-0.3-0.2
				c-0.1-0.1-0.3-0.1-0.4-0.1c-0.2,0-0.4,0-0.5,0.1c-0.1,0.1-0.3,0.2-0.4,0.4h-1.1l0.6-3.4h3.4v1H592.8z"/>
		</g>
	</g>
	<g>
		<path fill="#FFFFFF" d="M640.8,359c15.5-5.1,7.6-19.3,7.6-19.3s-4.9,1.1-7.6-0.2h0c-2.7,1.3-7.6,0.2-7.6,0.2
			S625.3,353.9,640.8,359L640.8,359z"/>
		<path fill="#0EA9D6" d="M648.9,343.8c0,0,3.6,10-8.1,13.9c-11.7-3.9-8.1-13.9-8.1-13.9H648.9z"/>
		<path fill="#D72631" d="M640.8,343h7.8c0,0-0.3-1.4-0.8-1.9c0,0-4.2,0.7-7-0.3c-2.9,1-7,0.3-7,0.3c-0.5,0.5-0.8,1.9-0.8,1.9H640.8
			z"/>
		<g>
			<path fill="#FFFFFF" d="M635.5,352.1v-4h-1.5v-0.9c0.2,0,0.4,0,0.6,0c0.2,0,0.4-0.1,0.5-0.2c0.2-0.1,0.3-0.2,0.4-0.4
				c0.1-0.2,0.2-0.4,0.2-0.6h1v6.1H635.5z"/>
			<path fill="#FFFFFF" d="M640.6,348.5c0.2,0,0.3,0,0.4-0.1c0.1-0.1,0.2-0.1,0.3-0.2s0.1-0.2,0.1-0.4c0-0.3-0.1-0.5-0.3-0.6
				c-0.2-0.1-0.4-0.2-0.6-0.2c-0.3,0-0.5,0.1-0.7,0.3c-0.2,0.2-0.2,0.5-0.2,0.8h-1.2c0-0.3,0.1-0.6,0.2-0.9c0.1-0.3,0.2-0.5,0.4-0.7
				c0.2-0.2,0.4-0.3,0.7-0.4s0.5-0.2,0.9-0.2c0.2,0,0.5,0,0.7,0.1s0.5,0.2,0.7,0.3c0.2,0.1,0.4,0.3,0.5,0.5s0.2,0.5,0.2,0.7
				c0,0.3-0.1,0.6-0.2,0.8c-0.1,0.2-0.4,0.4-0.6,0.5v0c0.3,0.1,0.6,0.2,0.8,0.5c0.2,0.2,0.3,0.5,0.3,0.9c0,0.3-0.1,0.6-0.2,0.9
				s-0.3,0.5-0.5,0.6c-0.2,0.2-0.5,0.3-0.7,0.4c-0.3,0.1-0.6,0.1-0.9,0.1c-0.3,0-0.7,0-0.9-0.1c-0.3-0.1-0.5-0.2-0.7-0.4
				c-0.2-0.2-0.3-0.4-0.5-0.7c-0.1-0.3-0.2-0.6-0.2-0.9h1.2c0,0.2,0,0.3,0.1,0.5c0,0.1,0.1,0.3,0.2,0.4c0.1,0.1,0.2,0.2,0.3,0.3
				c0.1,0.1,0.3,0.1,0.5,0.1c0.3,0,0.5-0.1,0.7-0.3c0.2-0.2,0.3-0.4,0.3-0.7c0-0.2,0-0.4-0.1-0.5s-0.2-0.2-0.3-0.3
				c-0.1-0.1-0.3-0.1-0.5-0.1c-0.2,0-0.3,0-0.5,0v-0.9C640.3,348.5,640.4,348.5,640.6,348.5z"/>
			<path fill="#FFFFFF" d="M644.8,347l-0.2,1.4l0,0c0.2-0.2,0.3-0.3,0.5-0.4c0.2-0.1,0.4-0.1,0.7-0.1c0.3,0,0.6,0.1,0.8,0.2
				s0.4,0.3,0.6,0.4c0.2,0.2,0.3,0.4,0.4,0.7c0.1,0.3,0.1,0.5,0.1,0.8c0,0.3-0.1,0.6-0.2,0.9s-0.3,0.5-0.5,0.7
				c-0.2,0.2-0.4,0.4-0.7,0.5c-0.3,0.1-0.6,0.2-0.9,0.2c-0.3,0-0.6,0-0.8-0.1c-0.3-0.1-0.5-0.2-0.7-0.4c-0.2-0.2-0.4-0.4-0.5-0.6
				s-0.2-0.5-0.2-0.8h1.2c0,0.3,0.1,0.5,0.3,0.7c0.2,0.2,0.4,0.2,0.7,0.2c0.2,0,0.3,0,0.4-0.1c0.1-0.1,0.2-0.2,0.3-0.3
				s0.2-0.2,0.2-0.4c0-0.1,0.1-0.3,0.1-0.4c0-0.2,0-0.3-0.1-0.4c0-0.1-0.1-0.3-0.2-0.4c-0.1-0.1-0.2-0.2-0.3-0.2
				c-0.1-0.1-0.3-0.1-0.4-0.1c-0.2,0-0.4,0-0.5,0.1c-0.1,0.1-0.3,0.2-0.4,0.4h-1.1l0.6-3.4h3.4v1H644.8z"/>
		</g>
	</g>
	<g>
		<path fill="#FFFFFF" d="M793,126c15.5-5.1,7.6-19.3,7.6-19.3s-4.9,1.1-7.6-0.2h0c-2.7,1.3-7.6,0.2-7.6,0.2S777.5,120.9,793,126
			L793,126z"/>
		<path fill="#0EA9D6" d="M801.1,110.8c0,0,3.6,10-8.1,13.9c-11.7-3.9-8.1-13.9-8.1-13.9H801.1z"/>
		<path fill="#D72631" d="M793,110h7.8c0,0-0.3-1.4-0.8-1.9c0,0-4.2,0.7-7-0.3c-2.9,1-7,0.3-7,0.3c-0.5,0.5-0.8,1.9-0.8,1.9H793z"/>
		<g>
			<path fill="#FFFFFF" d="M791.6,115.1c-0.2,0.4-0.5,0.8-0.6,1.3c-0.2,0.5-0.3,0.9-0.4,1.4c-0.1,0.5-0.1,0.9-0.1,1.3h-1.3
				c0.1-0.9,0.3-1.8,0.6-2.6s0.8-1.6,1.4-2.3h-2.9V113h4.2v1.1C792.1,114.3,791.8,114.7,791.6,115.1z"/>
			<path fill="#FFFFFF" d="M793.1,114.5c0.1-0.4,0.3-0.7,0.5-1c0.2-0.2,0.4-0.4,0.7-0.5c0.3-0.1,0.6-0.2,0.9-0.2
				c0.3,0,0.6,0.1,0.9,0.2c0.3,0.1,0.5,0.3,0.7,0.5c0.2,0.2,0.4,0.6,0.5,1s0.2,0.9,0.2,1.5c0,0.6-0.1,1.1-0.2,1.5
				c-0.1,0.4-0.3,0.7-0.5,1c-0.2,0.2-0.4,0.4-0.7,0.5c-0.3,0.1-0.6,0.2-0.9,0.2c-0.3,0-0.6-0.1-0.9-0.2c-0.3-0.1-0.5-0.3-0.7-0.5
				c-0.2-0.2-0.4-0.6-0.5-1c-0.1-0.4-0.2-0.9-0.2-1.5C793,115.4,793,114.9,793.1,114.5z M794.2,116.6c0,0.2,0,0.5,0.1,0.7
				c0.1,0.2,0.2,0.4,0.3,0.6c0.1,0.2,0.3,0.2,0.6,0.2c0.3,0,0.5-0.1,0.6-0.2c0.1-0.2,0.2-0.4,0.3-0.6s0.1-0.5,0.1-0.7
				c0-0.2,0-0.5,0-0.6c0-0.1,0-0.2,0-0.4c0-0.1,0-0.3,0-0.5s0-0.3-0.1-0.5c0-0.2-0.1-0.3-0.2-0.4s-0.2-0.2-0.3-0.3
				c-0.1-0.1-0.3-0.1-0.4-0.1c-0.2,0-0.3,0-0.4,0.1c-0.1,0.1-0.2,0.2-0.3,0.3s-0.1,0.3-0.2,0.4c0,0.2-0.1,0.3-0.1,0.5s0,0.3,0,0.5
				c0,0.1,0,0.3,0,0.4C794.2,116.2,794.2,116.4,794.2,116.6z"/>
		</g>
	</g>
	<g>
		<path fill="#FFFFFF" d="M1119.4,336c15.5-5.1,7.6-19.3,7.6-19.3s-4.9,1.1-7.6-0.2h0c-2.7,1.3-7.6,0.2-7.6,0.2
			S1103.9,330.9,1119.4,336L1119.4,336z"/>
		<path fill="#0EA9D6" d="M1127.5,320.8c0,0,3.6,10-8.1,13.9c-11.7-3.9-8.1-13.9-8.1-13.9H1127.5z"/>
		<path fill="#D72631" d="M1119.4,320h7.8c0,0-0.3-1.4-0.8-1.9c0,0-4.2,0.7-7-0.3c-2.9,1-7,0.3-7,0.3c-0.5,0.5-0.8,1.9-0.8,1.9
			H1119.4z"/>
		<g>
			<path fill="#FFFFFF" d="M1114.5,327.7v-1.1l2.6-3.6h1.1v3.7h0.8v1h-0.8v1.4h-1.2v-1.4H1114.5z M1117,324.5l-1.6,2.1h1.6
				L1117,324.5L1117,324.5z"/>
			<path fill="#FFFFFF" d="M1120.9,328.1c0.1,0.2,0.3,0.2,0.5,0.2c0.2,0,0.4-0.1,0.6-0.2c0.1-0.1,0.3-0.3,0.3-0.5
				c0.1-0.2,0.2-0.4,0.2-0.6c0-0.2,0.1-0.4,0.1-0.6l0,0c-0.2,0.2-0.4,0.4-0.6,0.5s-0.5,0.2-0.8,0.2c-0.3,0-0.5-0.1-0.8-0.2
				c-0.2-0.1-0.5-0.3-0.6-0.5c-0.2-0.2-0.3-0.4-0.4-0.6c-0.1-0.2-0.1-0.5-0.1-0.7c0-0.3,0.1-0.6,0.2-0.9c0.1-0.3,0.2-0.5,0.4-0.7
				c0.2-0.2,0.4-0.4,0.7-0.5s0.6-0.2,0.9-0.2c0.5,0,0.8,0.1,1.1,0.3c0.3,0.2,0.5,0.4,0.7,0.7c0.2,0.3,0.3,0.6,0.4,1
				c0.1,0.4,0.1,0.8,0.1,1.1c0,0.4,0,0.8-0.1,1.1c-0.1,0.4-0.2,0.7-0.4,1c-0.2,0.3-0.4,0.6-0.7,0.7c-0.3,0.2-0.7,0.3-1.1,0.3
				c-0.3,0-0.5,0-0.7-0.1c-0.2-0.1-0.4-0.2-0.6-0.3c-0.2-0.1-0.3-0.3-0.4-0.5c-0.1-0.2-0.2-0.4-0.2-0.7h1.2
				C1120.7,327.7,1120.8,327.9,1120.9,328.1z M1122,326.1c0.1-0.1,0.2-0.1,0.3-0.2c0.1-0.1,0.1-0.2,0.2-0.4c0-0.1,0.1-0.3,0.1-0.4
				c0-0.1,0-0.3-0.1-0.4c0-0.1-0.1-0.3-0.2-0.4s-0.2-0.2-0.3-0.3c-0.1-0.1-0.3-0.1-0.4-0.1c-0.1,0-0.3,0-0.4,0.1
				c-0.1,0.1-0.2,0.1-0.3,0.3s-0.1,0.2-0.2,0.4c0,0.1-0.1,0.3-0.1,0.4c0,0.1,0,0.3,0.1,0.4c0,0.1,0.1,0.3,0.2,0.4s0.2,0.2,0.3,0.3
				c0.1,0.1,0.3,0.1,0.4,0.1C1121.7,326.2,1121.8,326.1,1122,326.1z"/>
		</g>
	</g>
</g>
<g>
	<path fill="#877C6C" d="M1041.1,93v3l2.8-3h2l-2.8,2.8l3.1,4.3h-2l-2.2-3.2l-0.9,0.9v2.3h-1.6V93H1041.1z"/>
	<path fill="#877C6C" d="M1050.4,93l2.7,7.1h-1.6l-0.5-1.6h-2.7l-0.6,1.6h-1.6l2.7-7.1H1050.4z M1050.4,97.4l-0.9-2.6h0l-0.9,2.6
		H1050.4z"/>
	<path fill="#877C6C" d="M1055.2,93l3,4.8h0V93h1.5v7.1h-1.6l-3-4.8h0v4.8h-1.5V93H1055.2z"/>
	<path fill="#877C6C" d="M1062.3,98.4c0.1,0.2,0.2,0.3,0.3,0.4c0.1,0.1,0.3,0.2,0.5,0.2s0.4,0.1,0.6,0.1c0.1,0,0.3,0,0.5,0
		s0.3-0.1,0.5-0.1c0.1-0.1,0.3-0.2,0.3-0.3c0.1-0.1,0.1-0.3,0.1-0.4c0-0.2-0.1-0.4-0.2-0.5c-0.1-0.1-0.3-0.2-0.5-0.3
		c-0.2-0.1-0.4-0.1-0.7-0.2s-0.5-0.1-0.8-0.2c-0.3-0.1-0.5-0.1-0.8-0.2c-0.3-0.1-0.5-0.2-0.7-0.4c-0.2-0.2-0.4-0.3-0.5-0.6
		s-0.2-0.5-0.2-0.8c0-0.4,0.1-0.7,0.2-1s0.4-0.5,0.6-0.7c0.3-0.2,0.5-0.3,0.9-0.4c0.3-0.1,0.6-0.1,1-0.1c0.4,0,0.7,0,1.1,0.1
		c0.3,0.1,0.6,0.2,0.9,0.4c0.3,0.2,0.5,0.4,0.6,0.7c0.2,0.3,0.2,0.6,0.2,1.1h-1.5c0-0.2-0.1-0.4-0.1-0.5c-0.1-0.1-0.2-0.2-0.3-0.3
		s-0.3-0.1-0.4-0.2c-0.2,0-0.3,0-0.5,0c-0.1,0-0.3,0-0.4,0c-0.1,0-0.2,0.1-0.3,0.1c-0.1,0.1-0.2,0.2-0.3,0.2
		c-0.1,0.1-0.1,0.2-0.1,0.4c0,0.1,0,0.3,0.1,0.3c0.1,0.1,0.2,0.2,0.3,0.2c0.2,0.1,0.4,0.1,0.7,0.2s0.6,0.2,1.1,0.3
		c0.1,0,0.3,0.1,0.6,0.1c0.2,0.1,0.5,0.2,0.7,0.3c0.2,0.2,0.4,0.4,0.6,0.6c0.2,0.3,0.3,0.6,0.3,1c0,0.3-0.1,0.6-0.2,0.9
		c-0.1,0.3-0.3,0.5-0.6,0.7c-0.2,0.2-0.6,0.4-0.9,0.5c-0.4,0.1-0.8,0.2-1.3,0.2c-0.4,0-0.8,0-1.1-0.1c-0.4-0.1-0.7-0.2-1-0.5
		c-0.3-0.2-0.5-0.5-0.7-0.8c-0.2-0.3-0.2-0.7-0.2-1.1h1.5C1062.1,98,1062.2,98.2,1062.3,98.4z"/>
	<path fill="#877C6C" d="M1071.1,93l2.7,7.1h-1.6l-0.5-1.6h-2.7l-0.6,1.6h-1.6l2.7-7.1H1071.1z M1071.2,97.4l-0.9-2.6h0l-0.9,2.6
		H1071.2z"/>
	<path fill="#877C6C" d="M1075.6,98.4c0.1,0.2,0.2,0.3,0.3,0.4c0.1,0.1,0.3,0.2,0.5,0.2s0.4,0.1,0.6,0.1c0.1,0,0.3,0,0.5,0
		s0.3-0.1,0.5-0.1c0.1-0.1,0.3-0.2,0.3-0.3c0.1-0.1,0.1-0.3,0.1-0.4c0-0.2-0.1-0.4-0.2-0.5c-0.1-0.1-0.3-0.2-0.5-0.3
		c-0.2-0.1-0.4-0.1-0.7-0.2s-0.5-0.1-0.8-0.2c-0.3-0.1-0.5-0.1-0.8-0.2c-0.3-0.1-0.5-0.2-0.7-0.4c-0.2-0.2-0.4-0.3-0.5-0.6
		s-0.2-0.5-0.2-0.8c0-0.4,0.1-0.7,0.2-1s0.4-0.5,0.6-0.7c0.3-0.2,0.5-0.3,0.9-0.4c0.3-0.1,0.6-0.1,1-0.1c0.4,0,0.7,0,1.1,0.1
		c0.3,0.1,0.6,0.2,0.9,0.4c0.3,0.2,0.5,0.4,0.6,0.7c0.2,0.3,0.2,0.6,0.2,1.1h-1.5c0-0.2-0.1-0.4-0.1-0.5c-0.1-0.1-0.2-0.2-0.3-0.3
		s-0.3-0.1-0.4-0.2c-0.2,0-0.3,0-0.5,0c-0.1,0-0.3,0-0.4,0c-0.1,0-0.2,0.1-0.3,0.1c-0.1,0.1-0.2,0.2-0.3,0.2
		c-0.1,0.1-0.1,0.2-0.1,0.4c0,0.1,0,0.3,0.1,0.3c0.1,0.1,0.2,0.2,0.3,0.2c0.2,0.1,0.4,0.1,0.7,0.2s0.6,0.2,1.1,0.3
		c0.1,0,0.3,0.1,0.6,0.1c0.2,0.1,0.5,0.2,0.7,0.3c0.2,0.2,0.4,0.4,0.6,0.6c0.2,0.3,0.3,0.6,0.3,1c0,0.3-0.1,0.6-0.2,0.9
		c-0.1,0.3-0.3,0.5-0.6,0.7c-0.2,0.2-0.6,0.4-0.9,0.5c-0.4,0.1-0.8,0.2-1.3,0.2c-0.4,0-0.8,0-1.1-0.1c-0.4-0.1-0.7-0.2-1-0.5
		c-0.3-0.2-0.5-0.5-0.7-0.8c-0.2-0.3-0.2-0.7-0.2-1.1h1.5C1075.5,98,1075.5,98.2,1075.6,98.4z"/>
	<path fill="#877C6C" d="M1088.2,94.9c-0.1-0.1-0.2-0.3-0.3-0.4s-0.3-0.2-0.5-0.3c-0.2-0.1-0.4-0.1-0.6-0.1c-0.4,0-0.7,0.1-0.9,0.2
		c-0.2,0.1-0.4,0.3-0.6,0.6s-0.3,0.5-0.3,0.8c-0.1,0.3-0.1,0.6-0.1,0.9c0,0.3,0,0.6,0.1,0.9c0.1,0.3,0.2,0.5,0.3,0.8
		s0.4,0.4,0.6,0.5c0.2,0.1,0.5,0.2,0.9,0.2c0.5,0,0.9-0.1,1.1-0.4c0.3-0.3,0.4-0.7,0.5-1.2h1.5c0,0.4-0.1,0.9-0.3,1.2
		c-0.2,0.4-0.4,0.7-0.7,0.9c-0.3,0.3-0.6,0.4-1,0.6c-0.4,0.1-0.8,0.2-1.2,0.2c-0.5,0-1-0.1-1.5-0.3s-0.8-0.5-1.1-0.8
		c-0.3-0.3-0.5-0.7-0.7-1.2s-0.2-0.9-0.2-1.5c0-0.5,0.1-1,0.2-1.5s0.4-0.9,0.7-1.2c0.3-0.3,0.7-0.6,1.1-0.8s0.9-0.3,1.5-0.3
		c0.4,0,0.8,0.1,1.1,0.2c0.4,0.1,0.7,0.3,0.9,0.5c0.3,0.2,0.5,0.5,0.7,0.8c0.2,0.3,0.3,0.7,0.3,1.1h-1.5
		C1088.4,95.2,1088.3,95.1,1088.2,94.9z"/>
	<path fill="#877C6C" d="M1092.6,93v7.1h-1.6V93H1092.6z"/>
	<path fill="#877C6C" d="M1093.5,94.3V93h5.9v1.3h-2.1v5.8h-1.6v-5.8H1093.5z"/>
	<path fill="#877C6C" d="M1099.4,93h1.8l1.7,2.8l1.7-2.8h1.8l-2.6,4.4v2.7h-1.6v-2.8L1099.4,93z"/>
</g>
<g>
	<path fill="#877C6C" d="M626.3,417.5l-1.2-4.9h0l-1.2,4.9h-1.6l-1.9-7.1h1.6l1.1,4.9h0l1.2-4.9h1.5l1.2,4.9h0l1.2-4.9h1.5l-1.9,7.1
		H626.3z"/>
	<path fill="#877C6C" d="M632,410.4v7.1h-1.6v-7.1H632z"/>
	<path fill="#877C6C" d="M638,412.3c-0.1-0.2-0.2-0.3-0.3-0.4s-0.3-0.2-0.5-0.3c-0.2-0.1-0.4-0.1-0.6-0.1c-0.4,0-0.7,0.1-0.9,0.2
		c-0.2,0.1-0.4,0.3-0.6,0.6c-0.2,0.2-0.3,0.5-0.3,0.8c-0.1,0.3-0.1,0.6-0.1,0.9c0,0.3,0,0.6,0.1,0.9c0.1,0.3,0.2,0.5,0.3,0.8
		s0.4,0.4,0.6,0.5c0.2,0.1,0.5,0.2,0.9,0.2c0.5,0,0.9-0.1,1.1-0.4c0.3-0.3,0.4-0.7,0.5-1.2h1.5c0,0.4-0.1,0.9-0.3,1.2
		c-0.2,0.4-0.4,0.7-0.7,0.9c-0.3,0.3-0.6,0.4-1,0.6c-0.4,0.1-0.8,0.2-1.2,0.2c-0.5,0-1-0.1-1.5-0.3c-0.4-0.2-0.8-0.5-1.1-0.8
		c-0.3-0.3-0.5-0.7-0.7-1.2s-0.2-0.9-0.2-1.5c0-0.5,0.1-1,0.2-1.5c0.2-0.5,0.4-0.9,0.7-1.2c0.3-0.3,0.7-0.6,1.1-0.8s0.9-0.3,1.5-0.3
		c0.4,0,0.8,0.1,1.1,0.2c0.4,0.1,0.7,0.3,0.9,0.5c0.3,0.2,0.5,0.5,0.7,0.8s0.3,0.7,0.3,1.1h-1.5C638.1,412.6,638.1,412.4,638,412.3z
		"/>
	<path fill="#877C6C" d="M642.4,410.4v2.7h2.9v-2.7h1.6v7.1h-1.6v-3.1h-2.9v3.1h-1.6v-7.1H642.4z"/>
	<path fill="#877C6C" d="M649.8,410.4v7.1h-1.6v-7.1H649.8z"/>
	<path fill="#877C6C" d="M650.6,411.7v-1.3h5.9v1.3h-2.1v5.8h-1.6v-5.8H650.6z"/>
	<path fill="#877C6C" d="M659.9,410.4l2.7,7.1H661l-0.5-1.6h-2.7l-0.6,1.6h-1.6l2.7-7.1H659.9z M660,414.8l-0.9-2.6h0l-0.9,2.6H660z
		"/>
</g>
</svg>
