<?xml version="1.0" encoding="UTF-8" standalone="no"?>
<!-- Generator: Adobe Illustrator 18.0.0, SVG Export Plug-In . SVG Version: 6.00 Build 0)  -->
<!DOCTYPE svg  PUBLIC '-//W3C//DTD SVG 1.1//EN'  'http://www.w3.org/Graphics/SVG/1.1/DTD/svg11.dtd'>
<svg id="map" xmlns="http://www.w3.org/2000/svg" xml:space="preserve" viewBox="351.6 15.9 930 500" version="1.1" y="0px" x="0px" xmlns:xlink="http://www.w3.org/1999/xlink" enable-background="new 351.6 15.9 930 500">
<g id="land">
	<path d="m336.9 8.6l4.2 529.3h946.7l-3.9-529.2-947-0.1z" fill="#F6F0EF"/>
</g>
<polygon points="357.9 497.9 353.7 491.4 378 479.2 384.9 493.3 375.8 507.7" fill="#DEECD2"/>
<polygon points="420.7 470.1 415.7 494.4 434 516.5 487.3 514.2 491.1 498.6" fill="#DEECD2"/>
<path d="m829.2 350.5l2.3 17.9s12.2 7.6 13.3 6.9c1.1-0.8 18.3-10.7 18.3-10.7l-11.4-27-5.7 23.6-16.8-10.7z" fill="#DEECD2"/>
<path d="m1117.8 240.3l3 19.8-33 17.4s3.8 17.5 2.7 17.5-14.5 0.8-14.5 0.8l29.6-25.4 2.3-28.9 9.9-1.2z" fill="#DEECD2"/>
<path d="m893.2 144.5l7.2 18v80.8l4.6 22.5v59.5l17.5 27v93l-9.9 14.5 0.7 78.9h4.6l-0.6-77.5 9.9-14.5v-95.8l-17.5-27v-58.3l-4.6-22.5v-81.5l-7.2-18.1 5.5-132.4c0.1-2.4 2.4-0.1 0 0l-4.2 2.4-5.9 130.6-0.1 0.4z" fill="#F4E6D7"/>
<polygon points="886.5 540.7 910.8 495.8 916.9 217.1 912.3 217 906.3 494.6 881.3 540.7" fill="#F4E6D7"/>
<polygon points="997 313 967.5 291.3 788.3 288.1 788.4 283.5 969 286.8 999.7 309.3" fill="#F4E6D7"/>
<polygon points="1445.9 -11.3 1176.4 90 1176.4 142.3 1149.7 142.3 1149.7 84.2 1177.8 34.1 1182 14.1 1177.5 13.2 1173.4 32.5 1145.2 83 1145.2 146.9 1180.9 146.9 1180.9 92.2 1445.9 -7.6" fill="#F4E6D7"/>
<polygon points="1445.9 92.4 1106.2 100.4 1106.4 105 1445.9 96.9" fill="#F4E6D7"/>
<polygon points="1445.9 199.1 1215.9 164.7 1206.9 149.6 1118.9 100.2 1116.6 104.2 1203.6 153 1212.6 168.1 1445.9 203.5" fill="#F4E6D7"/>
<polygon points="1119.4 260.8 1106.3 317.4 1130.4 540.7 1135.1 540.7 1110.9 316.8 1123.9 260.6 1117 215.3 1108.6 162.3 1104.1 163 1112.5 216" fill="#F4E6D7"/>
<path d="m1102.1 540.7l24-83.6 124-222.1 0.1-0.3 4.4-45.3c0.1-1.2-0.8-2.3-2-2.5-1.2-0.1-2.3 0.8-2.5 2l-4.3 44.3c0 0.3-0.1 0.6-0.3 0.9l-123.7 221.6-24.4 85h4.7z" fill="#F4E6D7"/>
<polygon points="1095.2 222.1 1100.6 162.5 1105.2 162.9 1100.2 217.4 1249.6 213.3 1249.8 217.9" fill="#F4E6D7"/>
<polygon points="1194.7 257.9 1121.6 257.9 1121.6 253.3 1190.7 253.3 1197 206.9 1151.3 164.4 1154.4 161 1201.8 205.1" fill="#F4E6D7"/>
<polygon points="1010 406.5 967.5 406.5 910.6 361.9 924.5 353.9 925 349.4 912.4 357.5 969 401.9 1010 401.9" fill="#F4E6D7"/>
<polygon points="1009 540.7 1012.3 365.9 1039 333.9 1039 309 1034.5 309 1034.5 332.2 1007.8 364.2 1004.5 540.7" fill="#F4E6D7"/>
<polygon points="1044.1 85.4 1019.4 66.4 888.8 54.5 813.8 67.9 813 63.4 888.7 49.9 889.1 50 1021.3 62 1046.8 81.8" fill="#F4E6D7"/>
<polygon points="443.9 26.4 331.6 22.5 331.6 27.1 443.1 30.9 497.3 49.4 498.7 45.1" fill="#F4E6D7"/>
<polygon points="784.8 309.5 779.7 309.5 786.2 284.7 792.3 247.1 797 247.1 791.3 285.6" fill="#F4D8B3"/>
<polygon points="394 85.4 389.5 84.6 402 15.1 406.5 15.9" fill="#F4E6D7"/>
<polygon points="1063.2 98.1 1046.4 81.4 854.3 78.5 824.9 32.4 503.8 32.4 473.4 85.8 390 82.7 382.4 109.3 331.6 108.6 331.6 113.2 385.8 113.9 393.4 87.4 476 90.5 506.5 37 822.4 37 851.7 83 1044.5 85.9 1061.2 102.5 1089 105 1089.4 100.4" fill="#F4E6D7"/>
<polygon points="378.8 540.7 359.8 417.8 381.7 354.4 381.8 354 386.3 111.6 381.8 111.5 377.3 353.2 355.1 417.3 374.2 540.7" fill="#F4E6D7"/>
<path d="m530.3 489.7l-5.8-68.1 1.4-0.7c7.6-3.9 16.8-8.4 20.9-9.7 0.5-5.9-1.7-33.9-4.1-59.5l-18.1-4.6v-68.3h4.6v64.7l17.7 4.5 0.2 1.6c0 0.2 1.5 15.4 2.7 30.8 2.5 32 1.6 33 0.6 34.1-0.4 0.5-1.1 0.8-1.7 0.8-1.7 0.3-10.9 4.7-19.4 9l5.6 65.1-4.6 0.3z" fill="#F4E6D7"/>
<polygon points="618.6 419.8 548.4 415.3 548.7 410.7 614.2 414.9 619.7 290.8 624.3 291" fill="#F4E6D7"/>
<g id="roads" fill="#F4D8B3">
	<polygon points="1199.6 299.8 1228.8 212.1 1081.1 121.2 1083.5 117.4 1232.8 209.2 1204 298.7"/>
	<polygon points="1445.9 -31.8 1445 -32.8 1135 115.9 1129.4 160.4 1108.6 160.4 1108.6 87.7 1148.6 49.5 1144.4 13.7 1139.8 13.7 1144 47.5 1104.1 85.8 1104.1 165 1133.5 165 1139.3 118.1 1445.9 -28.4"/>
	<polygon points="1091.5 117.1 1086.9 116.9 1089.6 13.5 1094.1 13.8"/>
	<polygon points="1081 119.3 955.9 113.9 858.3 109.7 834.4 69.8 822.2 69.6 822.2 65 837 65.3 861.1 105.4 956.4 109.3 1081.4 114.7"/>
	<polygon points="533 540.7 534.8 490.6 748.4 366.6 761.2 337.5 779.7 251.2 775.2 250.4 757 335.1 746.1 362.6 530.3 488.4 528.4 540.7"/>
	<polygon points="1397.3 288 1042.7 306.4 902.3 316.2 781.2 308.2 734.1 285.4 731.7 289.9 778.6 312.9 902.2 320.8 902.3 320.8 1043.1 310.9 1397.3 292.7"/>
	<polygon points="805.9 262.2 789.3 272 741.9 272.3 557.2 273.5 526 199.5 486.6 199.5 331.6 46.9 331.6 53.3 484.2 203.5 484.9 204.1 523.1 204.1 554.1 277.8 739.4 276.7 788.4 276.7 805.3 267.3"/>
	<path d="m1081.1 114.7h-1l-118.5 87.3-84.9 40.1-128.1 5c-0.8 0-1.4 0.6-1.6 1.3l-7.6 35.6c-0.2 0.8-0.9 1.4-1.7 1.3l-292.5-0.2-113.7 20.3v4.7l113.9-20.4 295.1 0.3c0.8 0 1.5-0.5 1.7-1.3l8-37.3 127.1-4.8 86.8-40.6 118.1-86.8 363.6-6.6v-4.6l-364.7 6.7z"/>
	<polygon points="861.8 538.7 800.8 360.8 802.4 303.4 826.7 122.9 812.2 8.6 807.6 8.8 822.2 122.2 797.9 302.7 796.3 361.6 856.9 538.7"/>
</g>
<polygon points="857.7 318 809.4 326.9 762.3 321.6 762.3 316.8 810 322.3 843.6 316" fill="#F4D8B3"/>
<g id="marker">
	<path id="pin_31_" d="m798.3 254.5c1.2-1.8 1.9-4 1.9-6.3 0-6.5-5.3-11.8-11.8-11.8s-11.8 5.3-11.8 11.8c0 2.5 0.8 4.7 2 6.6l9.8 11.8 9.9-12.1z" fill="#B9252D"/>
	<text id="id" font-size="14.268" fill="#FFFFFF" font-family="&apos;Helvetica-Bold&apos;" transform="translate(783.11 253.03)">A</text>
</g>
<g id="marker_30_">
	<path id="pin_30_" d="m825.5 219.4c1.2-1.8 1.9-4 1.9-6.3 0-6.5-5.3-11.8-11.8-11.8s-11.8 5.3-11.8 11.8c0 2.5 0.8 4.7 2 6.6l9.8 11.8 9.9-12.1z" fill="#B9252D"/>
		<text id="id_30_" font-size="14.268" fill="#FFFFFF" font-family="&apos;Helvetica-Bold&apos;" transform="translate(810.24 217.94)">B</text>
</g>
<g id="marker_29_">
	<path id="pin_29_" d="m832.2 288.8c1.2-1.8 1.9-4 1.9-6.3 0-6.5-5.3-11.8-11.8-11.8s-11.8 5.3-11.8 11.8c0 2.5 0.8 4.7 2 6.6l9.8 11.8 9.9-12.1z" fill="#B9252D"/>
		<text id="id_29_" font-size="14.268" fill="#FFFFFF" font-family="&apos;Helvetica-Bold&apos;" transform="translate(816.95 287.39)">C</text>
</g>
<g id="marker_28_">
	<path id="pin_28_" d="m1087.3 134.9c1.2-1.8 1.9-4 1.9-6.3 0-6.5-5.3-11.8-11.8-11.8s-11.8 5.3-11.8 11.8c0 2.5 0.8 4.7 2 6.6l9.8 11.8 9.9-12.1z" fill="#B9252D"/>
		<text id="id_28_" font-size="14.268" fill="#FFFFFF" font-family="&apos;Helvetica-Bold&apos;" transform="translate(1072.1 133.42)">K</text>
</g>
<g id="marker_27_">
	<path id="pin_24_" d="m1126.1 73.2c1.2-1.8 1.9-4 1.9-6.3 0-6.5-5.3-11.8-11.8-11.8s-11.8 5.3-11.8 11.8c0 2.5 0.8 4.7 2 6.6l9.8 11.8 9.9-12.1z" fill="#B9252D"/>
		<text id="id_27_" font-size="14.268" fill="#FFFFFF" font-family="&apos;Helvetica-Bold&apos;" transform="translate(1110.9 71.774)">L</text>
</g>
<g id="marker_23_">
	<path id="pin_23_" d="m1146.6 131.4c1.2-1.8 1.9-4 1.9-6.3 0-6.5-5.3-11.8-11.8-11.8s-11.8 5.3-11.8 11.8c0 2.5 0.8 4.7 2 6.6l9.8 11.8 9.9-12.1z" fill="#B9252D"/>
		<text id="id_23_" font-size="14.268" fill="#FFFFFF" font-family="&apos;Helvetica-Bold&apos;" transform="translate(1132.5 130)">J</text>
</g>
<g id="marker_22_">
	<path id="pin_22_" d="m1106 153.1c1.2-1.8 1.9-4 1.9-6.3 0-6.5-5.3-11.8-11.8-11.8s-11.8 5.3-11.8 11.8c0 2.5 0.8 4.7 2 6.6l9.8 11.8 9.9-12.1z" fill="#B9252D"/>
		<text id="id_22_" font-size="14.268" fill="#FFFFFF" font-family="&apos;Helvetica-Bold&apos;" transform="translate(1090.8 151.69)">N</text>
</g>
<g id="marker_21_">
	<path id="pin_21_" d="m1109.5 117.7c1.2-1.8 1.9-4 1.9-6.3 0-6.5-5.3-11.8-11.8-11.8s-11.8 5.3-11.8 11.8c0 2.5 0.8 4.7 2 6.6l9.8 11.8 9.9-12.1z" fill="#B9252D"/>
		<text id="id_21_" font-size="14.268" fill="#FFFFFF" font-family="&apos;Helvetica-Bold&apos;" transform="translate(1093.1 117.44)">M</text>
</g>
<g id="marker_20_">
	<path id="pin_20_" d="m795.6 219.9c1.2-1.8 1.9-4 1.9-6.3 0-6.5-5.3-11.8-11.8-11.8s-11.8 5.3-11.8 11.8c0 2.5 0.8 4.7 2 6.6l9.8 11.8 9.9-12.1z" fill="#B9252D"/>
		<text id="id_20_" font-size="14.268" fill="#FFFFFF" font-family="&apos;Helvetica-Bold&apos;" transform="translate(780.36 218.48)">G</text>
</g>
<g id="marker_19_">
	<path id="pin_6_" d="m769.5 250.1c1.2-1.8 1.9-4 1.9-6.3 0-6.5-5.3-11.8-11.8-11.8s-11.8 5.3-11.8 11.8c0 2.5 0.8 4.7 2 6.6l9.8 11.8 9.9-12.1z" fill="#B9252D"/>
		<text id="id_19_" font-size="14.268" fill="#FFFFFF" font-family="&apos;Helvetica-Bold&apos;" transform="translate(754.33 248.62)">F</text>
</g>
<g id="marker_7_">
	<path id="pin_8_" d="m744.1 259.3c1.2-1.8 1.9-4 1.9-6.3 0-6.5-5.3-11.8-11.8-11.8s-11.8 5.3-11.8 11.8c0 2.5 0.8 4.7 2 6.6l9.8 11.8 9.9-12.1z" fill="#B9252D"/>
		<text id="id_7_" font-size="14.268" fill="#FFFFFF" font-family="&apos;Helvetica-Bold&apos;" transform="translate(732.3 257.9)">I</text>
</g>
<g id="marker_6_">
	<path id="pin_7_" d="m789.5 314.8c1.2-1.8 1.9-4 1.9-6.3 0-6.5-5.3-11.8-11.8-11.8s-11.8 5.3-11.8 11.8c0 2.5 0.8 4.7 2 6.6l9.8 11.8 9.9-12.1z" fill="#B9252D"/>
	<text id="id_6_" font-size="14.268" fill="#FFFFFF" font-family="&apos;Helvetica-Bold&apos;" transform="translate(774.27 313.35)">H</text>
</g>
<g id="marker_5_">
	<path id="pin_5_" d="m805.3 334.5c1.2-1.8 1.9-4 1.9-6.3 0-6.5-5.3-11.8-11.8-11.8s-11.8 5.3-11.8 11.8c0 2.5 0.8 4.7 2 6.6l9.8 11.8 9.9-12.1z" fill="#B9252D"/>
		<text id="id_5_" font-size="14.268" fill="#FFFFFF" font-family="&apos;Helvetica-Bold&apos;" transform="translate(790.06 333.06)">D</text>
</g>
<g id="marker_13_">
	<path id="pin_14_" d="m920.6 116.3c1.2-1.8 1.9-4 1.9-6.3 0-6.5-5.3-11.8-11.8-11.8s-11.8 5.3-11.8 11.8c0 2.5 0.8 4.7 2 6.6l9.8 11.8 9.9-12.1z" fill="#B9252D"/>
		<text id="id_13_" font-size="14.268" fill="#FFFFFF" font-family="&apos;Helvetica-Bold&apos;" transform="translate(905.35 114.86)">P</text>
</g>
	<path d="m869.5 239c17.7-5.9 8.7-22 8.7-22s-5.6 1.2-8.7-0.3c-3 1.5-8.7 0.3-8.7 0.3s-8.9 16.2 8.7 22z" fill="#fff"/>
	<path d="m878.7 221.7s4.2 11.4-9.2 15.9c-13.4-4.5-9.2-15.9-9.2-15.9h18.4z" fill="#0EA9D6"/>
	<path d="m869.5 220.8h8.9s-0.4-1.6-0.9-2.2c0 0-4.7 0.7-8-0.4-3.3 1.1-8 0.4-8 0.4-0.5 0.6-0.9 2.2-0.9 2.2h8.9z" fill="#D72631"/>
	<text font-size="9.9473" font-family="&apos;HelveticaNeue-Bold&apos;" transform="translate(863.74 231.15)" fill="#FFFFFF">44</text>
	<path d="m956.3 327.4c17.7-5.9 8.7-22 8.7-22s-5.6 1.2-8.7-0.3c-3 1.5-8.7 0.3-8.7 0.3s-8.9 16.1 8.7 22z" fill="#fff"/>
	<path d="m965.5 310.1s4.2 11.4-9.2 15.9c-13.4-4.5-9.2-15.9-9.2-15.9h18.4z" fill="#0EA9D6"/>
	<path d="m956.3 309.1h8.9s-0.4-1.6-0.9-2.2c0 0-4.7 0.7-8-0.4-3.3 1.1-8 0.4-8 0.4-0.5 0.6-0.9 2.2-0.9 2.2h8.9z" fill="#D72631"/>
	<text font-size="9.9473" font-family="&apos;HelveticaNeue-Bold&apos;" transform="translate(950.54 319.47)" fill="#FFFFFF">40</text>
	<path d="m730.5 388.5c17.7-5.9 8.7-22 8.7-22s-5.6 1.2-8.7-0.3c-3 1.5-8.7 0.3-8.7 0.3s-9 16.2 8.7 22z" fill="#fff"/>
	<path d="m739.7 371.2s4.2 11.4-9.2 15.9c-13.4-4.5-9.2-15.9-9.2-15.9h18.4z" fill="#0EA9D6"/>
	<path d="m730.5 370.3h8.9s-0.4-1.6-0.9-2.2c0 0-4.7 0.7-8-0.4-3.3 1.1-8 0.4-8 0.4-0.5 0.6-0.9 2.2-0.9 2.2h8.9z" fill="#D72631"/>
	<text font-size="9.9473" font-family="&apos;HelveticaNeue-Bold&apos;" transform="translate(724.71 380.65)" fill="#FFFFFF">44</text>
	<path d="m816.9 176.9c17.7-5.9 8.7-22 8.7-22s-5.6 1.2-8.7-0.3c-3 1.5-8.7 0.3-8.7 0.3s-9 16.2 8.7 22z" fill="#fff"/>
	<path d="m826.1 159.6s4.2 11.4-9.2 15.9c-13.4-4.5-9.2-15.9-9.2-15.9h18.4z" fill="#0EA9D6"/>
	<path d="m816.9 158.7h8.9s-0.4-1.6-0.9-2.2c0 0-4.7 0.7-8-0.4-3.3 1.1-8 0.4-8 0.4-0.5 0.6-0.9 2.2-0.9 2.2h8.9z" fill="#D72631"/>
	<text font-size="9.9473" font-family="&apos;HelveticaNeue-Bold&apos;" transform="translate(811.1 169.06)" fill="#FFFFFF">35</text>
<text font-size="11.417" font-family="&apos;HelveticaNeue-Bold&apos;" transform="translate(754.25 197.5)" fill="#877C6C">OKLAHOMA CITY</text>
<text font-size="11.417" font-family="&apos;HelveticaNeue-Bold&apos;" transform="translate(1046.6 107.06)" fill="#877C6C">TULSA</text>
<text font-size="11.417" font-family="&apos;HelveticaNeue-Bold&apos;" transform="translate(905.35 139.61)" fill="#877C6C">STILLWATER</text>
<g id="marker_4_">
	<path id="pin_4_" d="m1131.7 154.3c1.2-1.8 1.9-4 1.9-6.3 0-6.5-5.3-11.8-11.8-11.8s-11.8 5.3-11.8 11.8c0 2.5 0.8 4.7 2 6.6l9.8 11.8 9.9-12.1z" fill="#B9252D"/>
		<text id="id_4_" font-size="14.268" fill="#FFFFFF" font-family="&apos;Helvetica-Bold&apos;" transform="translate(1116.5 152.83)">O</text>
</g>
<g id="marker_3_">
	<path id="pin_3_" d="m750.5 312.8c1.2-1.8 1.9-4 1.9-6.3 0-6.5-5.3-11.8-11.8-11.8s-11.8 5.3-11.8 11.8c0 2.5 0.8 4.7 2 6.6l9.8 11.8 9.9-12.1z" fill="#B9252D"/>
		<text id="id_3_" font-size="14.268" fill="#FFFFFF" font-family="&apos;Helvetica-Bold&apos;" transform="translate(735.26 311.37)">E</text>
</g>
</svg>
