<?xml version="1.0" encoding="UTF-8" standalone="no"?>
<!-- Generator: Adobe Illustrator 18.0.0, SVG Export Plug-In . SVG Version: 6.00 Build 0)  -->
<!DOCTYPE svg  PUBLIC '-//W3C//DTD SVG 1.1//EN'  'http://www.w3.org/Graphics/SVG/1.1/DTD/svg11.dtd'>
<svg id="map" xmlns="http://www.w3.org/2000/svg" xml:space="preserve" viewBox="193 18.6 940 570" version="1.1" y="0px" x="0px" xmlns:xlink="http://www.w3.org/1999/xlink" enable-background="new 193 18.6 940 570">
<g id="land">
	<path d="m190 14.6v574.1h946.7l0.3-573.9-947-0.2z" fill="#F6F0EF"/>
</g>
<polygon points="271.7 548.4 267.6 541.9 291.9 529.7 298.8 543.8 289.6 558.2" fill="#DEECD2"/>
<polygon points="334.5 520.6 329.6 544.9 347.9 567 401.1 564.7 404.9 549.1" fill="#DEECD2"/>
<path d="m743.1 401l2.3 17.9s12.2 7.6 13.3 6.9c1.1-0.8 18.3-10.7 18.3-10.7l-11.4-27-5.7 23.6-16.8-10.7z" fill="#DEECD2"/>
<path d="m1031.6 290.8l3 19.8-33 17.4s3.8 17.5 2.7 17.5-14.5 0.8-14.5 0.8l29.6-25.4 2.3-28.9 9.9-1.2z" fill="#DEECD2"/>
<polygon points="807 195 814.3 213 814.3 293.9 818.9 316.3 818.9 375.8 836.3 402.8 836.3 495.8 826.4 510.3 827.1 589.2 831.7 589.2 831 511.7 840.9 497.2 840.9 401.4 823.4 374.5 823.4 316.1 818.8 293.6 818.8 212.2 811.6 194.1 821.5 12.4 816.9 12.5 807 194.6" fill="#F4E6D7"/>
<polygon points="800.4 591.2 824.7 546.3 830.8 267.6 826.2 267.5 820.1 545.1 795.2 591.2" fill="#F4E6D7"/>
<polygon points="910.9 363.5 881.4 341.8 702.2 338.6 702.3 334 882.9 337.3 913.6 359.8" fill="#F4E6D7"/>
<polygon points="1137 120.4 1090.2 140.5 1090.2 192.8 1063.6 192.8 1063.6 134.7 1091.6 84.6 1100.1 19.8 1095.6 18.9 1087.3 83 1059 133.5 1059 197.4 1094.8 197.4 1094.8 142.7 1137 124.1" fill="#F4E6D7"/>
<polygon points="1137 145.4 1020.1 150.9 1020.3 155.5 1137 149.9" fill="#F4E6D7"/>
<polygon points="1137 217.4 1129.7 215.2 1120.8 200.1 1032.8 150.7 1030.5 154.7 1117.5 203.5 1126.5 218.6 1137 221.7" fill="#F4E6D7"/>
<polygon points="1033.2 311.3 1020.2 367.9 1044.3 591.2 1049 591.2 1024.8 367.3 1037.8 311.1 1030.9 265.8 1022.5 212.8 1018 213.5 1026.4 266.5" fill="#F4E6D7"/>
<path d="m1016 591.2l24-83.6 94-214.6 0.3-2.1 4.2-43.4c0.1-1.2-0.8-2.3-2-2.5-1.2-0.1-2.3 0.8-2.5 2l-4.3 44.3c0 0.3-0.1 0.6-0.3 0.9l-93.7 214.1-24.4 85h4.7z" fill="#F4E6D7"/>
<polygon points="1009 272.6 1014.5 213 1019.1 213.4 1014.1 267.9 1133.6 271.4 1133.7 275.9" fill="#F4E6D7"/>
<polygon points="1108.6 308.4 1035.5 308.4 1035.5 303.8 1104.6 303.8 1110.8 257.4 1065.2 214.8 1068.3 211.5 1115.7 255.6" fill="#F4E6D7"/>
<polygon points="923.9 457 881.3 457 824.5 412.4 838.4 404.4 838.9 399.9 826.3 408 882.9 452.4 923.9 452.4" fill="#F4E6D7"/>
<polygon points="922.9 591.2 926.2 416.4 952.9 384.4 952.9 359.5 948.4 359.5 948.4 382.7 921.7 414.7 918.3 591.2" fill="#F4E6D7"/>
<polygon points="957.9 135.9 933.3 116.9 802.6 105 727.7 118.4 726.9 113.9 802.6 100.4 803 100.5 935.1 112.5 960.7 132.3" fill="#F4E6D7"/>
<polygon points="357.8 76.9 190 70.7 190 75.3 357 81.4 411.1 99.9 412.6 95.6" fill="#F4E6D7"/>
<polygon points="698.6 360 693.6 360 700 335.2 706.2 297.6 710.9 297.6 705.2 336.1" fill="#F4D8B3"/>
<polygon points="307.9 135.9 303.4 135.1 320.1 20.8 324.6 21.6" fill="#F4E6D7"/>
<polygon points="977.1 148.6 960.3 131.9 768.1 129 738.8 82.9 417.7 82.9 387.3 136.3 303.9 133.2 296.2 159.8 190 159.8 190 164.3 299.7 164.4 307.3 137.9 389.9 141 420.4 87.5 736.3 87.5 765.6 133.5 958.4 136.4 975 153 1002.9 155.5 1003.3 150.9" fill="#F4E6D7"/>
<polygon points="292.7 591.2 273.7 468.3 295.6 404.9 295.7 404.5 300.2 162.1 295.7 162 291.2 403.7 269 467.8 288.1 591.2" fill="#F4E6D7"/>
<path d="m444.1 540.2l-5.8-68.1 1.4-0.7c7.6-3.9 16.8-8.4 20.9-9.7 0.5-5.9-1.7-33.9-4.1-59.5l-18.1-4.6v-68.3h4.6v64.7l17.7 4.5 0.2 1.6c0 0.2 1.5 15.4 2.7 30.8 2.5 32 1.6 33 0.6 34.1-0.4 0.5-1.1 0.8-1.7 0.8-1.7 0.3-10.9 4.7-19.4 9l5.6 65.1-4.6 0.3z" fill="#F4E6D7"/>
<polygon points="532.5 470.3 462.3 465.8 462.6 461.2 528.1 465.4 533.6 341.3 538.1 341.5" fill="#F4E6D7"/>
<g id="roads" fill="#F4D8B3">
	<polygon points="1113.5 350.3 1123.2 263 995 171.7 997.4 167.8 1127.1 260 1117.9 349.2"/>
	<path d="m1137 115.3c-0.5-0.6-1.4-0.7-2.1-0.3l-86 51.4-5.6 44.5h-20.8v-72.7l40-38.2v-80.6h-4.6v78.6l-40 38.2v79.2h29.4l5.9-46.8 83-49.5c0.5-0.3 0.8-0.8 0.8-1.4v-2.4z"/>
	<polygon points="1005.4 167.6 1000.8 167.4 1007.7 19.3 1012.2 19.5"/>
	<polygon points="994.9 169.8 869.8 164.4 772.2 160.2 748.3 120.3 736.1 120.1 736.1 115.5 750.9 115.8 774.9 155.9 870.2 159.8 995.3 165.2"/>
	<polygon points="446.9 591.2 448.7 541.1 662.3 417.1 675.1 388 693.6 301.7 689.1 300.9 670.9 385.6 660 413.1 444.2 538.9 442.3 591.2"/>
	<polygon points="1137 345.6 956.6 356.9 816.1 366.7 695 358.7 648 335.9 645.5 340.4 692.5 363.4 816.1 371.3 816.2 371.3 957 361.4 1137 350.3"/>
	<polygon points="719.8 312.7 703.2 322.5 655.8 322.8 471.1 324 439.9 250 400.5 250 186.7 39.3 186.7 45.7 398.1 254 398.7 254.6 437 254.6 468 328.3 653.3 327.2 702.2 327.2 719.2 317.8"/>
	<path d="m995 165.2h-1l-118.5 87.3-84.9 40.1-128.1 5c-0.8 0-1.4 0.6-1.6 1.3l-7.6 35.6c-0.2 0.8-0.9 1.4-1.7 1.3l-292.5-0.2-171.1 32v4.7l171.4-32.1 295.1 0.3c0.8 0 1.5-0.5 1.7-1.3l8-37.3 127.1-4.8 86.8-40.6 118.1-86.8 140.8-4.1v-4.6l-142 4.2z"/>
	<polygon points="775.7 589.2 714.7 411.3 716.3 353.9 740.6 173.4 730.2 14.3 725.7 14.6 736.1 172.7 711.8 353.2 710.2 412.1 770.8 589.2"/>
</g>
<polygon points="771.5 368.5 723.3 377.4 676.2 372.1 676.2 367.3 723.9 372.8 757.5 366.5" fill="#F4D8B3"/>
<g id="marker">
	<path id="pin_31_" d="m712.2 305c1.2-1.8 1.9-4 1.9-6.3 0-6.5-5.3-11.8-11.8-11.8s-11.8 5.3-11.8 11.8c0 2.5 0.8 4.7 2 6.6l9.8 11.8 9.9-12.1z" fill="#B9252D"/>
	<text id="id" font-size="14.268" fill="#FFFFFF" font-family="&apos;Helvetica-Bold&apos;" transform="translate(697 303.53)">A</text>
</g>
<g id="marker_30_">
	<path id="pin_30_" d="m739.3 269.9c1.2-1.8 1.9-4 1.9-6.3 0-6.5-5.3-11.8-11.8-11.8s-11.8 5.3-11.8 11.8c0 2.5 0.8 4.7 2 6.6l9.8 11.8 9.9-12.1z" fill="#B9252D"/>
		<text id="id_30_" font-size="14.268" fill="#FFFFFF" font-family="&apos;Helvetica-Bold&apos;" transform="translate(724.12 268.44)">B</text>
</g>
<g id="marker_29_">
	<path id="pin_29_" d="m746 339.3c1.2-1.8 1.9-4 1.9-6.3 0-6.5-5.3-11.8-11.8-11.8s-11.8 5.3-11.8 11.8c0 2.5 0.8 4.7 2 6.6l9.8 11.8 9.9-12.1z" fill="#B9252D"/>
		<text id="id_29_" font-size="14.268" fill="#FFFFFF" font-family="&apos;Helvetica-Bold&apos;" transform="translate(730.84 337.89)">C</text>
</g>
<g id="marker_28_">
	<path id="pin_28_" d="m1001.2 185.4c1.2-1.8 1.9-4 1.9-6.3 0-6.5-5.3-11.8-11.8-11.8s-11.8 5.3-11.8 11.8c0 2.5 0.8 4.7 2 6.6l9.8 11.8 9.9-12.1z" fill="#B9252D"/>
		<text id="id_28_" font-size="14.268" fill="#FFFFFF" font-family="&apos;Helvetica-Bold&apos;" transform="translate(985.97 183.92)">K</text>
</g>
<g id="marker_27_">
	<path id="pin_24_" d="m1040 123.7c1.2-1.8 1.9-4 1.9-6.3 0-6.5-5.3-11.8-11.8-11.8s-11.8 5.3-11.8 11.8c0 2.5 0.8 4.7 2 6.6l9.8 11.8 9.9-12.1z" fill="#B9252D"/>
		<text id="id_27_" font-size="14.268" fill="#FFFFFF" font-family="&apos;Helvetica-Bold&apos;" transform="translate(1024.8 122.27)">L</text>
</g>
<g id="marker_23_">
	<path id="pin_23_" d="m1060.4 181.9c1.2-1.8 1.9-4 1.9-6.3 0-6.5-5.3-11.8-11.8-11.8s-11.8 5.3-11.8 11.8c0 2.5 0.8 4.7 2 6.6l9.8 11.8 9.9-12.1z" fill="#B9252D"/>
		<text id="id_23_" font-size="14.268" fill="#FFFFFF" font-family="&apos;Helvetica-Bold&apos;" transform="translate(1046.4 180.5)">J</text>
</g>
<g id="marker_22_">
	<path id="pin_22_" d="m1019.9 203.6c1.2-1.8 1.9-4 1.9-6.3 0-6.5-5.3-11.8-11.8-11.8s-11.8 5.3-11.8 11.8c0 2.5 0.8 4.7 2 6.6l9.8 11.8 9.9-12.1z" fill="#B9252D"/>
		<text id="id_22_" font-size="14.268" fill="#FFFFFF" font-family="&apos;Helvetica-Bold&apos;" transform="translate(1004.7 202.19)">N</text>
</g>
<g id="marker_21_">
	<path id="pin_21_" d="m1023.3 168.2c1.2-1.8 1.9-4 1.9-6.3 0-6.5-5.3-11.8-11.8-11.8s-11.8 5.3-11.8 11.8c0 2.5 0.8 4.7 2 6.6l9.8 11.8 9.9-12.1z" fill="#B9252D"/>
		<text id="id_21_" font-size="14.268" fill="#FFFFFF" font-family="&apos;Helvetica-Bold&apos;" transform="translate(1007 167.94)">M</text>
</g>
<g id="marker_20_">
	<path id="pin_20_" d="m709.5 270.4c1.2-1.8 1.9-4 1.9-6.3 0-6.5-5.3-11.8-11.8-11.8s-11.8 5.3-11.8 11.8c0 2.5 0.8 4.7 2 6.6l9.8 11.8 9.9-12.1z" fill="#B9252D"/>
		<text id="id_20_" font-size="14.268" fill="#FFFFFF" font-family="&apos;Helvetica-Bold&apos;" transform="translate(694.24 268.97)">G</text>
</g>
<g id="marker_19_">
	<path id="pin_6_" d="m683.4 300.6c1.2-1.8 1.9-4 1.9-6.3 0-6.5-5.3-11.8-11.8-11.8s-11.8 5.3-11.8 11.8c0 2.5 0.8 4.7 2 6.6l9.8 11.8 9.9-12.1z" fill="#B9252D"/>
		<text id="id_19_" font-size="14.268" fill="#FFFFFF" font-family="&apos;Helvetica-Bold&apos;" transform="translate(668.21 299.12)">F</text>
</g>
<g id="marker_7_">
	<path id="pin_8_" d="m658 309.8c1.2-1.8 1.9-4 1.9-6.3 0-6.5-5.3-11.8-11.8-11.8s-11.8 5.3-11.8 11.8c0 2.5 0.8 4.7 2 6.6l9.7 11.9 10-12.2z" fill="#B9252D"/>
	<text id="id_7_" font-size="14.268" fill="#FFFFFF" font-family="&apos;Helvetica-Bold&apos;" transform="translate(646.18 308.4)">I</text>
</g>
<g id="marker_6_">
	<path id="pin_7_" d="m703.4 365.3c1.2-1.8 1.9-4 1.9-6.3 0-6.5-5.3-11.8-11.8-11.8s-11.8 5.3-11.8 11.8c0 2.5 0.8 4.7 2 6.6l9.8 11.8 9.9-12.1z" fill="#B9252D"/>
		<text id="id_6_" font-size="14.268" fill="#FFFFFF" font-family="&apos;Helvetica-Bold&apos;" transform="translate(688.15 363.85)">H</text>
</g>
<g id="marker_5_">
	<path id="pin_5_" d="m719.2 385c1.2-1.8 1.9-4 1.9-6.3 0-6.5-5.3-11.8-11.8-11.8s-11.8 5.3-11.8 11.8c0 2.5 0.8 4.7 2 6.6l9.8 11.8 9.9-12.1z" fill="#B9252D"/>
		<text id="id_5_" font-size="14.268" fill="#FFFFFF" font-family="&apos;Helvetica-Bold&apos;" transform="translate(703.95 383.56)">D</text>
</g>
<g id="marker_13_">
	<path id="pin_14_" d="m834.4 166.8c1.2-1.8 1.9-4 1.9-6.3 0-6.5-5.3-11.8-11.8-11.8s-11.8 5.3-11.8 11.8c0 2.5 0.8 4.7 2 6.6l9.8 11.8 9.9-12.1z" fill="#B9252D"/>
		<text id="id_13_" font-size="14.268" fill="#FFFFFF" font-family="&apos;Helvetica-Bold&apos;" transform="translate(819.23 165.36)">P</text>
</g>
	<path d="m783.4 289.5c17.7-5.9 8.7-22 8.7-22s-5.6 1.2-8.7-0.3c-3 1.5-8.7 0.3-8.7 0.3s-8.9 16.2 8.7 22z" fill="#fff"/>
	<path d="m792.6 272.2s4.2 11.4-9.2 15.9c-13.4-4.5-9.2-15.9-9.2-15.9h18.4z" fill="#0EA9D6"/>
	<path d="m783.4 271.3h8.9s-0.4-1.6-0.9-2.2c0 0-4.7 0.7-8-0.4-3.3 1.1-8 0.4-8 0.4-0.5 0.6-0.9 2.2-0.9 2.2h8.9z" fill="#D72631"/>
	<text font-size="9.9473" font-family="&apos;HelveticaNeue-Bold&apos;" transform="translate(777.62 281.64)" fill="#FFFFFF">44</text>
	<path d="m870.2 377.9c17.7-5.9 8.7-22 8.7-22s-5.6 1.2-8.7-0.3c-3 1.5-8.7 0.3-8.7 0.3s-8.9 16.1 8.7 22z" fill="#fff"/>
	<path d="m879.4 360.6s4.2 11.4-9.2 15.9c-13.4-4.5-9.2-15.9-9.2-15.9h18.4z" fill="#0EA9D6"/>
	<path d="m870.2 359.6h8.9s-0.4-1.6-0.9-2.2c0 0-4.7 0.7-8-0.4-3.3 1.1-8 0.4-8 0.4-0.5 0.6-0.9 2.2-0.9 2.2h8.9z" fill="#D72631"/>
	<text font-size="9.9473" font-family="&apos;HelveticaNeue-Bold&apos;" transform="translate(864.42 369.97)" fill="#FFFFFF">40</text>
	<path d="m644.4 439c17.7-5.9 8.7-22 8.7-22s-5.6 1.2-8.7-0.3c-3 1.5-8.7 0.3-8.7 0.3s-9 16.2 8.7 22z" fill="#fff"/>
	<path d="m653.6 421.7s4.2 11.4-9.2 15.9c-13.4-4.5-9.2-15.9-9.2-15.9h18.4z" fill="#0EA9D6"/>
	<path d="m644.4 420.8h8.9s-0.4-1.6-0.9-2.2c0 0-4.7 0.7-8-0.4-3.3 1.1-8 0.4-8 0.4-0.5 0.6-0.9 2.2-0.9 2.2h8.9z" fill="#D72631"/>
	<text font-size="9.9473" font-family="&apos;HelveticaNeue-Bold&apos;" transform="translate(638.59 431.15)" fill="#FFFFFF">44</text>
	<path d="m730.8 227.4c17.7-5.9 8.7-22 8.7-22s-5.6 1.2-8.7-0.3c-3 1.5-8.7 0.3-8.7 0.3s-9 16.2 8.7 22z" fill="#fff"/>
	<path d="m740 210.1s4.2 11.4-9.2 15.9c-13.4-4.5-9.2-15.9-9.2-15.9h18.4z" fill="#0EA9D6"/>
	<path d="m730.8 209.2h8.9s-0.4-1.6-0.9-2.2c0 0-4.7 0.7-8-0.4-3.3 1.1-8 0.4-8 0.4-0.5 0.6-0.9 2.2-0.9 2.2h8.9z" fill="#D72631"/>
	<text font-size="9.9473" font-family="&apos;HelveticaNeue-Bold&apos;" transform="translate(724.98 219.56)" fill="#FFFFFF">35</text>
<text font-size="11.417" font-family="&apos;HelveticaNeue-Bold&apos;" transform="translate(668.13 247.99)" fill="#877C6C">OKLAHOMA CITY</text>
<text font-size="11.417" font-family="&apos;HelveticaNeue-Bold&apos;" transform="translate(960.48 157.56)" fill="#877C6C">TULSA</text>
<text font-size="11.417" font-family="&apos;HelveticaNeue-Bold&apos;" transform="translate(819.23 190.11)" fill="#877C6C">STILLWATER</text>
<g id="marker_4_">
	<path id="pin_4_" d="m1045.6 204.8c1.2-1.8 1.9-4 1.9-6.3 0-6.5-5.3-11.8-11.8-11.8s-11.8 5.3-11.8 11.8c0 2.5 0.8 4.7 2 6.6l9.8 11.8 9.9-12.1z" fill="#B9252D"/>
		<text id="id_4_" font-size="14.268" fill="#FFFFFF" font-family="&apos;Helvetica-Bold&apos;" transform="translate(1030.4 203.33)">O</text>
</g>
<g id="marker_3_">
	<path id="pin_3_" d="m664.4 363.3c1.2-1.8 1.9-4 1.9-6.3 0-6.5-5.3-11.8-11.8-11.8s-11.8 5.3-11.8 11.8c0 2.5 0.8 4.7 2 6.6l9.8 11.8 9.9-12.1z" fill="#B9252D"/>
		<text id="id_3_" font-size="14.268" fill="#FFFFFF" font-family="&apos;Helvetica-Bold&apos;" transform="translate(649.14 361.86)">E</text>
</g>
</svg>
