<svg xmlns="http://www.w3.org/2000/svg" viewBox="193 18.6 940 570" enable-background="new 193 18.6 940 570"><path fill="#F6F0EF" d="M190.6 14.6H1134v581.1H190.6z"/><g stroke="#F4E6D7" stroke-width="4" stroke-miterlimit="10" fill="none"><path d="M1133 122.7L1022 94l-116-2.7-168.7-12-129.3 14-59.3 24L422 74l-99.3 2-105.4-60M189.3 62.7l62.7-26 2.7-22.7M193 106l102.3-4.7 14 45.4 68-28 94-29.4-22.6-78M508 18.6l-36.7 70.7M466.7 90l30 34.7 4.6 90-17.3 56L364 312l-22-13.3 37.3-65.4 6-36.6-76-50 54-131.4M189.3 293.3l92 21.4 60.7-16M361.3 312.7L332 439.3 325.3 596M221.3 457.3l2.7 45.3s47.3 23.3 49.3 23.3 74 52 74 52l50.7 3.3M392 588.6l32.7-59.9 32.6 1.3 30.7 58.6M398 581.3l41.3 7.3M618.7 294.7l-134.7-24 5.3 68-32 191.3 46.7-58 102-44 58.7-35.3 56.6-69.4M598 298.7l62.7 92 78.6 63.3-25.3 28.7-88.7 26.6-77.3 47.4-90.7-26.7M543.3 556.7L528 588.6M739.3 454l92-14 42.7-18.7M866 329.3l-12.7 62 28.7 21.4M738.7 456.7l29.3 44 22 8 35.3 82M752 477.3L740.7 556l-62 38.7M882 415.3l72 26 10.7 30 60 25.4 28-4.7M924 540l21.3 3.3 86.7-70.6 48.7-24 58-76M932 590.7l76.7-17.4 78 10M496.7 127.3l103.3 68 78 20 92.7 80.7M598.7 95.3l65.3 62 123.3 20M771.3 235.3L734 192.7l-74-128-33.3-46.1M394 18.6L422 74M890 88.7l16.7-74M965.3 91.3l11.4-76M1028.7 76.7l85.3-63.4M1106 18.6l10 98.1M1111.3 119.3l-27.3 75.4 22 55.3 27 28.7M1032.7 200l56.6-22.7"/></g><g stroke="#F4D8B3" stroke-width="4" stroke-miterlimit="10" fill="none"><path d="M821.3 15.3l6 76 52 48L890 178l28.7 20 7.3 33.3 13.3 38 18 7.4.7-47.4-8-64 2-72M813.3 272l-70.6 40.7L728 378l9.3 75.3M738.7 324c-2-.7-41.3-2.7-42.7-4.7S632 292 632 292l-70.7 16.7-118.7 66.7-149.3 41.3-72.7 42.7H193M683.3 312.7l27.4-9.4 46.6 1.4M720 322l-5.3-24.7 24.6-28.6 33.4-13.4 154.6 2.7 12 11.3M811.3 256.7c0-2-1.3 35.3-1.3 35.3l-36.7 3.3L802 318M798.7 330l11.3-38 110.7-2.7 37.3-2-.7-10.6M742 323.3l31.3 7.4 86-3.4 43.9 7.2 49.5 8.2 74-26-2-55.4-42-41.3-59.4 10.7-4.6 79.3-15.5 24.5M786.7 174.7l72 48s62-56.7 64-57.3c2-.7 97.3-48 97.3-48M846 255.3l12.7-32.6 8.6 104M814 328l40.7 63.3M874 209.3l.7 46.7M880 205.3l28 20-25.3 32-2 71.4M923.3 230.7l-15.3-5.4 10.7-27.3 20-5.3L950 182l29.3 7.3 28.7-1.3 40.7 22 2.6 36.7-48.6 29.3-44.7 11.3 16.7-63.3 14.6-31.3 31.4-79.4 21.3-94.7M1026.7 316.7l106.3-2M1006 272l127 34M955.3 288l-2.6 124-17.4 35.3-12 91.4-70 54L810.7 446 774 383.3l.7-184.6L831.3 96M953.3 306.7l-52 70.6-10.6 32.7-16 12M968.7 284.7l44 99.3s-2.7 70-.7 70 58.7 53.3 58.7 53.3l20 84M972.7 296l160.3 72M1051.3 246.7l84.7-47.4"/></g><g><path fill="#B9252D" d="M815.9 210.9c1-1.6 1.6-3.5 1.6-5.5 0-5.7-4.6-10.4-10.4-10.4-5.7 0-10.4 4.6-10.4 10.4 0 2.2.7 4.2 1.8 5.8l8.6 10.4 8.8-10.7z"/><text transform="translate(802.573 209.63)" fill="#fff" font-family="'Helvetica-Bold'" font-size="12.497">A</text></g><g><path fill="#B9252D" d="M758.9 327.9c1-1.6 1.6-3.5 1.6-5.5 0-5.7-4.6-10.4-10.4-10.4-5.7 0-10.4 4.6-10.4 10.4 0 2.2.7 4.2 1.8 5.8l8.6 10.4 8.8-10.7z"/><text transform="translate(745.573 326.63)" fill="#fff" font-family="'Helvetica-Bold'" font-size="12.497">B</text></g><g><path fill="#fff" d="M1036.9 263.1c15.5-5.1 7.6-19.3 7.6-19.3s-4.9 1.1-7.6-.2c-2.7 1.3-7.6.2-7.6.2s-7.9 14.1 7.6 19.3z"/><path fill="#0EA9D6" d="M1045 247.9s3.6 10-8.1 13.9c-11.7-3.9-8.1-13.9-8.1-13.9h16.2z"/><path fill="#D72631" d="M1036.9 247.1h7.8s-.3-1.4-.8-1.9c0 0-4.2.6-7-.3-2.9 1-7 .3-7 .3-.5.5-.8 1.9-.8 1.9h7.8z"/><text transform="translate(1031.834 256.173)" fill="#fff" font-family="'HelveticaNeue-Bold'" font-size="8.713">30</text><path fill="#fff" d="M1004.9 251.4c15.5-5.1 7.6-19.3 7.6-19.3s-4.9 1.1-7.6-.2c-2.7 1.3-7.6.2-7.6.2s-7.9 14.2 7.6 19.3z"/><path fill="#0EA9D6" d="M1013 236.3s3.6 10-8.1 13.9c-11.7-3.9-8.1-13.9-8.1-13.9h16.2z"/><path fill="#D72631" d="M1004.9 235.4h7.8s-.3-1.4-.8-1.9c0 0-4.2.6-7-.3-2.9 1-7 .3-7 .3-.5.5-.8 1.9-.8 1.9h7.8z"/><text transform="translate(997.412 244.507)" fill="#fff" font-family="'HelveticaNeue-Bold'" font-size="8.713">635</text><path fill="#fff" d="M972.2 345.4c15.5-5.1 7.6-19.3 7.6-19.3s-4.9 1.1-7.6-.2c-2.7 1.3-7.6.2-7.6.2s-7.8 14.2 7.6 19.3z"/><path fill="#0EA9D6" d="M980.3 330.3s3.6 10-8.1 13.9c-11.7-3.9-8.1-13.9-8.1-13.9h16.2z"/><path fill="#D72631" d="M972.2 329.4h7.8s-.3-1.4-.8-1.9c0 0-4.2.7-7-.3-2.9 1-7 .3-7 .3-.5.5-.8 1.9-.8 1.9h7.8z"/><text transform="translate(967.168 338.507)" fill="#fff" font-family="'HelveticaNeue-Bold'" font-size="8.713">20</text><path fill="#fff" d="M1013.9 399.1c15.5-5.1 7.6-19.3 7.6-19.3s-4.9 1.1-7.6-.2c-2.7 1.3-7.6.2-7.6.2s-7.9 14.1 7.6 19.3z"/><path fill="#0EA9D6" d="M1022 383.9s3.6 10-8.1 13.9c-11.7-3.9-8.1-13.9-8.1-13.9h16.2z"/><path fill="#D72631" d="M1013.9 383.1h7.8s-.3-1.4-.8-1.9c0 0-4.2.6-7-.3-2.9 1-7 .3-7 .3-.5.5-.8 1.9-.8 1.9h7.8z"/><text transform="translate(1008.834 392.173)" fill="#fff" font-family="'HelveticaNeue-Bold'" font-size="8.713">45</text><path fill="#fff" d="M756.2 273.7c15.5-5.1 7.6-19.3 7.6-19.3s-4.9 1.1-7.6-.2c-2.7 1.3-7.6.2-7.6.2s-7.8 14.2 7.6 19.3z"/><path fill="#0EA9D6" d="M764.3 258.6s3.6 10-8.1 13.9c-11.7-3.9-8.1-13.9-8.1-13.9h16.2z"/><path fill="#D72631" d="M756.2 257.8h7.8s-.3-1.4-.8-1.9c0 0-4.2.7-7-.3-2.9 1-7 .3-7 .3-.5.5-.8 1.9-.8 1.9h7.8z"/><text transform="translate(748.746 266.84)" fill="#fff" font-family="'HelveticaNeue-Bold'" font-size="8.713">820</text><path fill="#fff" d="M713.8 311.5c15.5-5.1 7.6-19.3 7.6-19.3s-4.9 1.1-7.6-.2c-2.7 1.3-7.6.2-7.6.2s-7.9 14.2 7.6 19.3z"/><path fill="#0EA9D6" d="M721.9 296.3s3.6 10-8.1 13.9c-11.7-3.9-8.1-13.9-8.1-13.9h16.2z"/><path fill="#D72631" d="M713.8 295.5h7.8s-.3-1.4-.8-1.9c0 0-4.2.6-7-.3-2.9 1-7 .3-7 .3-.5.5-.8 1.9-.8 1.9h7.8z"/><text transform="translate(708.742 304.592)" fill="#fff" font-family="'HelveticaNeue-Bold'" font-size="8.713">30</text><path fill="#fff" d="M775.9 395.7c15.5-5.1 7.6-19.3 7.6-19.3s-4.9 1.1-7.6-.2c-2.7 1.3-7.6.2-7.6.2s-7.9 14.2 7.6 19.3z"/><path fill="#0EA9D6" d="M784 380.6s3.6 10-8.1 13.9c-11.7-3.9-8.1-13.9-8.1-13.9H784z"/><path fill="#D72631" d="M775.9 379.8h7.8s-.3-1.4-.8-1.9c0 0-4.2.6-7-.3-2.9 1-7 .3-7 .3-.5.5-.8 1.9-.8 1.9h7.8z"/><text transform="translate(766.722 388.84)" fill="#fff" font-family="'HelveticaNeue-Bold'" font-size="8.713">35W</text><path fill="#fff" d="M807.6 149.4c15.5-5.1 7.6-19.3 7.6-19.3s-4.9 1.1-7.6-.2c-2.7 1.3-7.6.2-7.6.2s-7.9 14.2 7.6 19.3z"/><path fill="#0EA9D6" d="M815.6 134.3s3.6 10-8.1 13.9c-11.7-3.9-8.1-13.9-8.1-13.9h16.2z"/><path fill="#D72631" d="M807.6 133.4h7.8s-.3-1.4-.8-1.9c0 0-4.2.7-7-.3-2.9 1-7 .3-7 .3-.5.5-.8 1.9-.8 1.9h7.8z"/><text transform="translate(798.389 142.507)" fill="#fff" font-family="'HelveticaNeue-Bold'" font-size="8.713">35W</text><path fill="#fff" d="M927.2 238.1c15.5-5.1 7.6-19.3 7.6-19.3s-4.9 1.1-7.6-.2c-2.7 1.3-7.6.2-7.6.2s-7.8 14.1 7.6 19.3z"/><path fill="#0EA9D6" d="M935.3 222.9s3.6 10-8.1 13.9c-11.7-3.9-8.1-13.9-8.1-13.9h16.2z"/><path fill="#D72631" d="M927.2 222.1h7.8s-.3-1.4-.8-1.9c0 0-4.2.7-7-.3-2.9 1-7 .3-7 .3-.5.5-.8 1.9-.8 1.9h7.8z"/><text transform="translate(919.345 231.173)" fill="#fff" font-family="'HelveticaNeue-Bold'" font-size="8.713">35E</text></g><text transform="translate(941.761 286.549)" fill="#877C6C" font-family="'HelveticaNeue-Bold'" font-size="10">DALLAS</text><text transform="translate(733.094 296.883)" fill="#877C6C" font-family="'HelveticaNeue-Bold'" font-size="10">FORT WORTH</text></svg>