<svg xmlns="http://www.w3.org/2000/svg" viewBox="351.6 15.9 930 500" enable-background="new 351.6 15.9 930 500"><path fill="#F6F0EF" d="M344.6 2.2h940.1v515.4H344.6z"/><path fill="#A2DDF5" d="M881.2 517.6c-6.9-22.3-24.1-56.6-24.1-56.6l11.5 56.6h12.6z"/><path stroke="#F4E6D7" stroke-width="4" stroke-miterlimit="10" fill="none" d="M1103.3 283.8l-12.2 45.2-6.7 46.4-101.5-60.5-34.8 25.1-10.4 141.7M948.1 340l3.7-86.8 22-56.8 7.9 12.2 17.1-4.3M1041-.4L1004.9 109l.6 70.3-14 65.4-12.8 36 6.1 54.4-32.4 82.5 16.5 39.7M957.9 433.5c3.1-.6 87.4-64.2 87.4-64.2l22.6-3.1M1084.4 375.4l29.3 8.6M1029.4 255.7l35.4-3.1 15.3 21.4M1143.6 99.2l-131.3-12.8M1148.5 81.5l39.7-6.7M897.4 412.1l42.8 34.8M894.9 412.7l-36-11-18.9 10.4M871.7 406.6l26.3-22 47.7-24.5M865 401.7l30.6-126.5 24.4-8.5 14.7 12.8 16.5-4.3M916.3 192.7l-20.7 82.5-53.8-47 25-56.3 36.1-22.6M857.1 244l-88-3.6-84.3-45.2-47.7 4.9M796.6 132.8l-47.1 96.6-29.9 61.7 64.1 4.9 25.1 31.8 39.7 5.5M742.2 153l-15.3 63.5-58.6 34.9-59.9 50.1-47.1 19.5 15.3-72.7M544.2 272.8l13.5 45.2M731.8 82.1l-3 31.8 22.6 34.2M823.5 119.4l-94.7-5.5-151.6-38.5-42.1 10.4-115.5-6.1M552.8 19.8l7.9 61.1-43.4 20.8-45.8 84.9-11.6 43.4M594.9 30.2l-39.1 86.1-4.2 62.4 28.1 5.5 28.1-7.4 26.2 28.1 34.3 46.5 48.8 40.3-82.4 31.2M502.7 124.9l50.1 17.1h35.4l17.1-59.3-6.1-52.5M588.2 142l-18.9 114.9M583.9 159.1l29.4-28.1 53.1 5.5 19-53.2L708 72.4M651.2 136.5l-1.3-83.7 14.7-50.1M666.4 136.5l-3.6 44M468.5 194.6l37.2 47.6 48.9 23.2M469.1 245.9l20.7 18.9 25.7-3 6.1 17.1M456.2 231.2l-102-24.4 68.4-44 48.9 23.8 40.3-29.3 39.8 21.4L477 286.2M430 108.4l50.1-14.1 8.5 12.3-68.4 58M506.3 116.3l-20.1-11-6.7-13.4 2.4-51.9 110-8M416.5 79.1l-48.9-11 50.1 90.4M847.3 337.5l-72.1 61.1-40.3-37.2-26.9 15.2M708.6 384l63.5 15.2-14.6 37.3M770.9 402.9l15.3 25.7 52.5 22M790.5 384l47.6 32.3M755 439M755 439l-38.5 55.6M671.3 467.7l34.2-88h-36L645.7 431M559.5 437.1C573 437 586 434 599 434c10 13 18 28 28 41 21 9 43 16 64 28 3 2 1 7 1.4 11.3M681.1 514.2c2.8-3.3 5.7-6.6 8.5-9.8M476.4 514.3C467 500 458 486 448 472c-1-1 0-2 1-3 11-12 22-22 32-34 13 7 22 18 33.3 26.6M490.5 440.2l19.5-82.5M812.5 74.8L894.9 62M737.3 79.1L761.7.9M719.6 60.1l216.9-32.4-22.6 61.1-4.9 54.4M890.7 62l24.4 20.7M815.5 73.6l-18.9-44L813.1.3M661.5 14.9l50.1 19L780.7 51l33.6 20.1M915.1 178.1l55 23.2"/><g stroke="#F4D8B3" stroke-width="4" stroke-miterlimit="10" fill="none"><path d="M905.1 7.1l-13.8 65.3 18.7 70 7.3 52.2M882.3 135.1l1.6 7.3 13.1 15.5 8.9-14.7-29.3-10.6-30.9-21.1.8-16.3M866.8 123.7v-16.3l-44-31-47.2-7.3-46.4 13-75.8-41.5L430.2-5M418 1.5l-1.7 156.4 52.2 88.8 6.5 46.4-1.6-10.6L545 276l146.7-118.1 50.5-4.9 103.5-41.5M348.1 313.9C355 315 361 321 368 321c9-7 18-13 28-20h3c7 4 14 5 20 9h5c4-2 8-3 12-5 12-4 24-7 36-11 2 0 5-1 7 0 9 4 19 5 29 9 13 4 27 6 40 12 16 7 32 15 47 25 14-2 26-13 40-17h4c15 12 31 18 47 30 5 3 10 5 15 8 2 1 4 3 4 4 6 15 6 30 8 45 0 1 1 2 2 3 21 11 40 22 60 33 7 16 12 32 19 48 11 6 23 7 32.9 12.6M897 157.9C883 206 869 254 855 303c-5 18-10 34-14 52 0 38 1 77-1 115 0 10-6 18-10 27-3 6-4 12-6.8 17.1M890.5 184l42.3 17.1 48.9 44.8 60.3 14.6 81.5 26.1 2.4-123 17.9-29.3 9.8-134.5M1286.1 269.1c-.4 0-162.6 17.5-162.6 17.5l8.1 20.4-15.5 55.4 4.1 40.7-8.1 22.8 71.3 86.4M1130.2 300.9l11-16.5M1116.1 372.4l23.2 9.1 155.8-74.9M1118 389.5c6.9 6.3 13.8 12.6 20.8 19 15.5 14.2 31 28.3 46.5 42.5 16.2 14.8 32.5 29.7 48.7 44.5l20.7 18.9M1115.5 384l-63.5 66-13.5-7.4-13.4-58 12.8-41.6M1085.6 412.1l25.6 15.9M1099 402.9l1.9 17.1M1052 450l25.6-8 19 4.9M1112.1 425.9c-2.1 2.1-3.1 5.1-5.1 7.1-6 6-12 12-14 19-7 18-15 35-21 54-1 4-5 6-9.4 8.2M1021.5 514.3C1025 504 1032 497 1035 487c4-14 1-29 3.5-44.4-12.6 11.7-.4 9.4 0 0C1024 455 1011 469 997 481c-13 0-27 0-40 1-13 6-25 14-38 21-3 2 0 7-1.6 11.1M1096.6 446.9c1.4 8.1 2.4 15.1 4.4 23.1-22 14-42 30-64.3 44.2M847.2 514.2c-.2-2.1-.4-4.2-.5-6.2M893.3 514.2c1.7-23.2-.3-45.2 2.2-68.6 11.4 13.2-.1 3 0 0 11.4 13.2 22.9 26.4 34.3 39.6 1.8 2.1 3.6 4.1 5.4 6.2M895.6 445.7l7.3-119.2L942 209.8M893.1 449.3l-53.1 5.5-26.3-1.2-52 29.3-71.4 19.6-135.1-20.2-16.5 11-23.2-33-4.9 40.4 39.1-37.9 10.4-25.1M510.6 500.7c-4.7 4.5-9.4 9-14.1 13.6M550.6 514.2c-4-7-7.9-13.9-11.9-20.9M1113 514.3c22-2.3 43-4.3 64.8-6.9M1067.9 510.4c2.2 1.3 4.5 2.6 6.7 3.8M488.6 299l28.7 74-1.8 87.3"/></g><g><path fill="#B9252D" d="M899.9 118.2c1.2-2 2-4.3 2-6.8 0-7-5.7-12.6-12.6-12.6-7 0-12.6 5.7-12.6 12.6 0 2.6.8 5.1 2.2 7.1l10.5 12.7 10.5-13z"/><text transform="translate(883.65 116.689)" fill="#fff" font-family="'Helvetica-Bold'" font-size="15.272">A</text></g><path fill="#fff" d="M857.3 308.7c18.9-6.3 9.3-23.5 9.3-23.5s-6 1.3-9.3-.3c-3.3 1.6-9.3.3-9.3.3s-9.5 17.2 9.3 23.5z"/><path fill="#0EA9D6" d="M867.2 290.2s4.4 12.2-9.8 17c-14.3-4.8-9.8-17-9.8-17h19.6z"/><path fill="#D72631" d="M857.4 289.2h9.5s-.4-1.7-1-2.3c0 0-5.1.8-8.6-.4-3.5 1.2-8.6.4-8.6.4-.6.6-1 2.3-1 2.3h9.7z"/><text transform="translate(851.159 300.278)" fill="#fff" font-family="'HelveticaNeue-Bold'" font-size="10.647">87</text><path fill="#fff" d="M648.8 203.4c18.9-6.3 9.3-23.5 9.3-23.5s-6 1.3-9.3-.3c-3.3 1.6-9.3.3-9.3.3s-9.6 17.2 9.3 23.5z"/><path fill="#0EA9D6" d="M658.7 184.9s4.4 12.2-9.8 17c-14.3-4.8-9.8-17-9.8-17h19.6z"/><path fill="#D72631" d="M648.8 183.9h9.5s-.4-1.7-1-2.3c0 0-5.1.8-8.6-.4-3.5 1.2-8.6.4-8.6.4-.6.6-1 2.3-1 2.3h9.7z"/><text transform="translate(642.603 194.981)" fill="#fff" font-family="'HelveticaNeue-Bold'" font-size="10.647">88</text><path fill="#fff" d="M964.5 241.1c18.9-6.3 9.3-23.5 9.3-23.5s-6 1.3-9.3-.3c-3.3 1.6-9.3.3-9.3.3s-9.6 17.2 9.3 23.5z"/><path fill="#0EA9D6" d="M974.3 222.6s4.4 12.2-9.8 17c-14.3-4.8-9.8-17-9.8-17h19.6z"/><path fill="#D72631" d="M964.5 221.6h9.5s-.4-1.7-1-2.3c0 0-5.1.8-8.6-.4-3.5 1.2-8.6.4-8.6.4-.6.6-1 2.3-1 2.3h9.7z"/><text transform="translate(958.289 232.66)" fill="#fff" font-family="'HelveticaNeue-Bold'" font-size="10.647">90</text><text transform="translate(877.606 165.263)" fill="#877C6C" font-family="'HelveticaNeue-Bold'" font-size="12">ALBANY</text></svg>