<svg xmlns="http://www.w3.org/2000/svg" viewBox="193 18.6 940 570" enable-background="new 193 18.6 940 570"><path fill="#F6F0EF" d="M189.6 14.6H1133v581.1H189.6z"/><g stroke="#F4E6D7" stroke-width="4" stroke-miterlimit="10" fill="none"><path d="M733.3 156.7L566 73.3 631.3 16l73.4 50 38 9.3M566 73.3L418 60l-28 32.7-92.7 25.3-110.6 101.3M206.7 13.3S222 186 224 186s64.7 64.7 64.7 64.7l16 126.7M187.3 306.7c3.3.7 120.7-4.7 120.7-4.7l38.7 5.3L450 268l115.3 14.7 92.7-27.3 43.3 12.7 38-14.7M766.7 250.7L704 305.3l-30 82-41.3 10.7L540 502.7l151.3-23.4 45.4-85.3 3.3-90.7 33.3-46.6M737.3 476l-46 3.3-13.3 57.4 6.7 51.9M655.3 486L590 588.6M502.7 590.7l37.3-88-10.7-6S473.3 522 474 520s-79.3-36.7-79.3-36.7l-206.7-12M880 590.7L957.3 216l16.7-56-11.3-70.7M974 14c0 2 7.3 49.3 7.3 49.3l-29.3 40-80.7 58.7-22 2M967.3 230.7l28.7 42 58.7 8M1056.7 236l-4 50 15.3 24.7 68 22.6M748.7 166l-14-35.3 16-96.7 3.3-15.4M742.7 89.3c3.3-.7 62 72.7 62 72.7M804 150l22.7-51.3 40-83.4M794.7 247.3l78.6 66.7 64 89.3 68.7 116 80 69.3M810 236.7l15.3-1.4L858 210l73.3-8.7 25.4 19.4M394.7 483.3L380 508.7l10.7 36 31.3 8-11.3 35.9M393.3 480.7l17.4-58-3.4-60.7 22-36.7-16-42.6M562.7 75.3l-6 62s-98 31.3-100 32.7-46 113.3-46 113.3M883.5 138l54.5-25"/></g><g stroke="#F4D8B3" stroke-width="4" stroke-miterlimit="10" fill="none"><path d="M856 14l-56 112.7 6.7 47.3-27.4 40.7-12.6-36L646 100l-84.7-81.4"/><path d="M746 244v-33.3l34-11.4 29.3 11.4 1.4 37.3zM779.3 214.7l5.4 16.6 8-26.6M782 220.7l-18.7 24 19.4 18.6 14.6-5.3-2.6-11.3M778.7 246l7.3 29.3-28.7 120M746 244s-28 36-30 36-57.3-4-57.3-4l-55.3 28 76 88 86.7 2.7 125.3-28L906 276l29.3-43.3M810.7 248l14.6.7L848 236l110.7-2.7 37.3-10 46.7 16 43.3-8 49.3 20.7M797.3 258l30.7 44 94 99.3 56.7 103.4 94.6 91.3M757.3 395.3l-24.6 118L742 592M603.3 304l-80 14-84.6 52-122 .7-45.4 28-81.3 12M803.3 176l51.4-14.7 28.6-24"/></g><g><path fill="#B9252D" d="M851.4 153.9c1-1.6 1.6-3.5 1.6-5.5 0-5.7-4.6-10.4-10.4-10.4-5.7 0-10.4 4.6-10.4 10.4 0 2.2.7 4.2 1.8 5.8l8.6 10.4 8.8-10.7z"/><text transform="translate(838.072 152.633)" fill="#fff" font-family="'Helvetica-Bold'" font-size="12.497">A</text></g><g><path fill="#fff" d="M632.9 300c15.5-5.1 7.6-19.3 7.6-19.3s-4.9 1.1-7.6-.2c-2.7 1.3-7.6.2-7.6.2s-7.9 14.2 7.6 19.3z"/><path fill="#0EA9D6" d="M640.9 284.8s3.6 10-8.1 13.9c-11.7-3.9-8.1-13.9-8.1-13.9h16.2z"/><path fill="#D72631" d="M632.9 284h7.8s-.3-1.4-.8-1.9c0 0-4.2.6-7-.3-2.9 1-7 .3-7 .3-.5.5-.8 1.9-.8 1.9h7.8z"/><text transform="translate(627.793 293.088)" fill="#fff" font-family="'HelveticaNeue-Bold'" font-size="8.713">40</text><path fill="#fff" d="M702.9 147.7c15.5-5.1 7.6-19.3 7.6-19.3s-4.9 1.1-7.6-.2c-2.7 1.3-7.6.2-7.6.2s-7.9 14.1 7.6 19.3z"/><path fill="#0EA9D6" d="M710.9 132.5s3.6 10-8.1 13.9c-11.7-3.9-8.1-13.9-8.1-13.9h16.2z"/><path fill="#D72631" d="M702.9 131.7h7.8s-.3-1.4-.8-1.9c0 0-4.2.6-7-.3-2.9 1-7 .3-7 .3-.5.5-.8 1.9-.8 1.9h7.8z"/><text transform="translate(697.793 140.755)" fill="#fff" font-family="'HelveticaNeue-Bold'" font-size="8.713">24</text><path fill="#fff" d="M798.2 132c15.5-5.1 7.6-19.3 7.6-19.3s-4.9 1.1-7.6-.2c-2.7 1.3-7.6.2-7.6.2s-7.9 14.2 7.6 19.3z"/><path fill="#0EA9D6" d="M806.3 116.8s3.6 10-8.1 13.9c-11.7-3.9-8.1-13.9-8.1-13.9h16.2z"/><path fill="#D72631" d="M798.2 116h7.8s-.3-1.4-.8-1.9c0 0-4.2.7-7-.3-2.9 1-7 .3-7 .3-.5.5-.8 1.9-.8 1.9h7.8z"/><text transform="translate(793.126 125.088)" fill="#fff" font-family="'HelveticaNeue-Bold'" font-size="8.713">65</text><path fill="#fff" d="M773.9 336.3c15.5-5.1 7.6-19.3 7.6-19.3s-4.9 1.1-7.6-.2c-2.7 1.3-7.6.2-7.6.2s-7.9 14.2 7.6 19.3z"/><path fill="#0EA9D6" d="M781.9 321.2s3.6 10-8.1 13.9c-11.7-3.9-8.1-13.9-8.1-13.9h16.2z"/><path fill="#D72631" d="M773.9 320.3h7.8s-.3-1.4-.8-1.9c0 0-4.2.6-7-.3-2.9 1-7 .3-7 .3-.5.5-.8 1.9-.8 1.9h7.8z"/><text transform="translate(768.793 329.422)" fill="#fff" font-family="'HelveticaNeue-Bold'" font-size="8.713">65</text><path fill="#fff" d="M885.5 245c15.5-5.1 7.6-19.3 7.6-19.3s-4.9 1.1-7.6-.2c-2.7 1.3-7.6.2-7.6.2s-7.8 14.2 7.6 19.3z"/><path fill="#0EA9D6" d="M893.6 229.8s3.6 10-8.1 13.9c-11.7-3.9-8.1-13.9-8.1-13.9h16.2z"/><path fill="#D72631" d="M885.5 229h7.8s-.3-1.4-.8-1.9c0 0-4.2.6-7-.3-2.9 1-7 .3-7 .3-.5.5-.8 1.9-.8 1.9h7.8z"/><text transform="translate(880.46 238.088)" fill="#fff" font-family="'HelveticaNeue-Bold'" font-size="8.713">40</text><path fill="#fff" d="M838.7 326c15.5-5.1 7.6-19.3 7.6-19.3s-4.9 1.1-7.6-.2c-2.7 1.3-7.6.2-7.6.2s-7.9 14.2 7.6 19.3z"/><path fill="#0EA9D6" d="M846.7 310.8s3.6 10-8.1 13.9c-11.7-3.9-8.1-13.9-8.1-13.9h16.2z"/><path fill="#D72631" d="M838.7 310h7.8s-.3-1.4-.8-1.9c0 0-4.2.6-7-.3-2.9 1-7 .3-7 .3-.5.5-.8 1.9-.8 1.9h7.8z"/><text transform="translate(833.593 319.088)" fill="#fff" font-family="'HelveticaNeue-Bold'" font-size="8.713">24</text></g><text transform="translate(750.476 230.549)" fill="#877C6C" font-family="'HelveticaNeue-Bold'" font-size="10">NASHVILLE</text><text transform="translate(797.476 177.883)" fill="#877C6C" font-family="'HelveticaNeue-Bold'" font-size="10">HENDERSONVILLE</text></svg>