<?xml version="1.0" encoding="utf-8"?>
<!-- Generator: Adobe Illustrator 18.0.0, SVG Export Plug-In . SVG Version: 6.00 Build 0)  -->
<!DOCTYPE svg PUBLIC "-//W3C//DTD SVG 1.1//EN" "http://www.w3.org/Graphics/SVG/1.1/DTD/svg11.dtd">
<svg version="1.1" id="map" xmlns="http://www.w3.org/2000/svg" xmlns:xlink="http://www.w3.org/1999/xlink" x="0px" y="0px"
	 viewBox="-345 -185 965 496" enable-background="new -345 -185 965 496" xml:space="preserve">
<rect id="background" x="-348.3" y="-186.9" fill="#A2DDF5" width="972.2" height="498.6"/>
<g id="land">
	<path fill="#F6F0EF" d="M583.9-177.1c-1.4,0.9,2.4,4,3.3,4.9c3.4,3.8,5.9,4.8,10.8,5.5c5.5,0.9,10.8,4.2,16.6,3.9
		c0.3-4.4-4.8-6-8.2-7c-5.6-1.6-12.6-9.5-18.9-6.6h0.9C586.9-175.6,585.1-177.8,583.9-177.1z"/>
	<path fill="#F6F0EF" d="M-84.2-153.5c-3.2,0.6-3.6-4.5-3.8-6.6c-0.4-3.8-1.1-3.6-4.3-4.6c-2.8-0.9-2.5-2.1-4.4-4.1
		c-2,1.4-4.2-1.4-5.5-2.4c2.9-1.3-1.4-4-2.1-5.1c-1.6-2.2-1.5-4.9-3.1-7c-3.3-4.3-10.8-1.7-14.7-6.8l-17.1-2.3
		c-0.1,2.6,1.8,6.6,2.9,8.8c1.2,2.3,1.8,1.5,4,2.1c1.4,0.4,2.6,1.5,4.1,1.2c0.1,1.8-1.5,4.2,1.3,5c1.6-2.5,2.3-1.5,3.8-0.9
		c2.4,1.1,1.6,0.6,2.3,3.1c0.1,0.1,0.9,2.8,0.9,2.8c0.9,1,1.1,0.3,2.6,0.9c0.6,0.3,5.3,1.8,5.6,2.3c1.1,1.8-0.8,1.8-0.9,2.8
		c-0.1,1.9-0.3,2,1.4,4.1c1.9-0.6,1.3-1.6,3.5-1.7c1.3-0.1,2.2,2.1,4.1,0.5c0.2-0.1,2.3-7,3.3-2.8c0.4,2-3.7,4.4-4.5,6.2
		c1.7,0.6,2.3,2.3,4.1,3.1c1.4,0.6,2.9,0.4,4.3,1C-92.1-152.3-83.2-143.7-84.2-153.5z"/>
	<path fill="#F6F0EF" d="M641.2-191.4c-78.1,0.2-156.3,0.3-234.4,0.5c-130.4,0.3-260.8,0.6-391.2,0.9c-38.9,0.1-77.8,0.2-116.8,0.3
		c0.4,1.8,0.7,3.7,0.9,5.5c1.4-0.5,2.9-0.8,4.4-0.8c0.7,3.8-4.1,6-0.4,10.2c4.3,5,4.6-5.9,7.5-5.2c1.1,0.2,0,7.5-0.6,8.1
		c-1.8,2.1,3.2,2.2,2.8,4.7c2.6-0.1,3.1-5,5.3-6c0.6,2.5-0.8,4.9-0.1,7.4c1-1,2.1-1.8,3.3-2.6c0.8,1.8-1.5,3.7-2,5.2
		c-1,2.8,4.4,3,5.3,5.4c2.1,5.3,0.5,8.7,4.5,12.7c1.6,1.6-1.1,3.3-1.9,4.2c-1.8,1.9,0.1,4.4,0.9,6.2c1.6,3.6-2.4,9.2-7,7.1
		c2.4-4.3,1.5-2.6-2-3.1c0.4-2.5,0.3-5.5,2-7.5c1.1-1.4,3.6-2.9,3.3-5.1c-5.9,1.3-10.4-1.1-15.7-3.2c-6.2-2.5-6.9-2-4.6,3.5
		c1.1,2.5,1.5,5.6,2,8.2c0.7,4.1,3.3,5,4.6,8.2c0.8,2.4-2.5,3.5,1.5,6.3c-4-3-2.7,3.8-1,5.1c1.8,1.4,5.5,0.6,6.5,3.1
		c-7.2,1.1-7.4-1.4-8.2,6.3c-0.9,6.8-1.2,14.9-0.9,21.9c0.2,2.4,1.7,6.4-0.1,8.4c-1.2,1.4,1.1,3.1,0,5.4c-4,8.2-8,13.3-2.2,22.5
		c3.1,5,2.9,11.9,1.7,17.6c-0.6,2.7-4.1,3.7-3.2,7.1c0.8,3,3.9,4.9,5.5,7.4c4.1,5.9,2.2,14.3,5.5,20.8c1.2,2.4,9.2,7.8,9.2,9.9
		c-0.7-5.7,9-7,12.6-4.7c4.3,2.8-7.2,3.3-8.5,3.8c0.9,2.4,2.6,4.6,3,7.2c-6.7-8.8-10.8,1.7-4.1,4.8c1.5,0.6,8-0.4,5.8,3.3
		c-3.3,5.5,1.4,5.6,4.4,9.6c2.9,3.8,6,8.4,8.1,12.7c2,4.3,1.6,9.6,7.5,10.2c6.1,0.8,6.1-1.2,10.8,3.5c2.4,2.4,8.1,0.6,7.6,5.5
		c7.3-4.3,17.9,20.3,19.8,24.7c2.2,5.1,5,10,7.1,15.1c1.9,4.3,3.2,12.2,7.1,15c5,3.5,6.9,6,10,11.2c1.4,2.4,3.6,3.1,5.4,5
		c2.4,2.6-0.3,2.5-0.9,4.4c-0.7,2.1,5,6.4,0.6,5.8c-1.8-0.3-8.9-4.7-10-1.6c-0.1,0.4,7.1,7,7.9,7.2c2.9,0.8,3.5,3.4,6,4.5
		c2.5,1,6-1.2,8-2.3c-0.2,5.5,4.1,7.4,7.9,10.4c6,4.7,0.5,10.9,3.3,16.3c2.2,4.1,9,7.6,12.4,10.7c2.3,2.1,3.5,5.1,6.3,6.8
		c3.5,2.2,3,3.7,5.3,6.8c6.7-4.2,4.1-13.1-2.6-15.9c0.4,3.1-1.6,3.3-3.5,1.5c-3-3-1.2-7.1-3-10.6c-3.9-7.3-5.2-18.6-11.7-23.8
		c0.6,1.3,0.7,2.5,0.2,3.8c-2.2-0.4-10.4-16.1-11.2-18.2c-1.2-3.4-1.3-6.5-4.5-8.7c-1.1,0-3.7-3.3-4-4c-2.7-6.6-10.8-8.1-11.6-15.3
		c-0.4-4.1-1.1-7.7-3.3-11.1c-0.9-1.4-3.4-11.4-3.3-13c2,0.3,7.7,8,9.1,3.6c1-3,8.3,4.6,10.1,4.8c1.7,0.2,5.3,6.8,5.4,8.7
		c0.1,4.6,3.7,11.5,6.8,14.9c3.2,3.5,3.2,9.8,6.3,13.8c2.1,2.8,5,4.7,7.7,7c2-2,3.6-1.4,5.7,0.6c1,1,0.5,3.6,1.3,4.9
		c1.4,2.3,4.2,3.3,5.6,5.7c1.8,3,2.3,1.4,5.7,2.5c4,1.2,3.3,4.8,5.3,7.5c-2.6-3.6-5.3,3.6-4.2,6.3c0.5,1.1,4.4,2,5.9,3.4
		c1.7,1.7,4.2,1.8,6.2,3.1c2.5,1.7,1,3.1,2.2,5.2c2,3.9,6.8,23.4,9.8,26.7c2.2,2.4,6.5,9.9,10.9,16c-0.5,1.7-0.3,3.7,0.6,5.1
		c0.6,1,1.6,1.7,2.3,2.5c2.8,3.1,3.1,8.1,0.9,11.6c-0.4,0.6-0.8,1.1-0.9,1.8c-0.3,1.3,0.7,2.5,1.7,3.4c4.3,4.2,9.2,7.7,14.5,10.5
		c2.5,1.3,5.2,2.6,6.7,5c0.6,1,1,2.2,1.6,3.2c2.7,5,9.3,5.9,14.9,6.5c1.6,0.2,3.1,0.4,4.6,1c2.1,0.9,3.9,2.5,5.7,3.9
		c4.1,3.1,8.9,4.9,13.6,6.8c3.1,1.2,6.2,2.4,9.3,3.6c2.7,1,5.3,2.1,8,3.1c2.9,1.8,5.8,3.4,8.7,5c0.7,0.4,1.5,0.8,2.3,0.9
		c1.1,0.2,2.3-0.2,3.5-0.3c3.8-0.2,6.8,3.1,10.4,4.1c7.3,2,14-5.5,21.7-5.9c-0.5-0.7-1.4-1.1-2.2-0.9c-0.1-1.1,0.3-2.7,1.5-2.6
		c0.3,1.2,1.8,1.8,2.9,1.2c2,2.5,5.2,4.5,8.4,4c-2.4-0.8-5.1-1.8-6-4.2c6.5,2.1,12.2,6.7,15.8,12.6l96.2,0.2c4.3-0.5,8.7-0.9,13-1.4
		c0.6-2-1.7-3.8-3.8-4.2c-2.1-0.4-4.4-0.1-6.2-1.1c-0.6-0.3-1.2-0.8-1.9-1c-1-0.2-1.9,0.2-2.9,0.4c-2.8,0.7-6-0.1-8.1-2.1
		c0.2,1.1-0.9,2.1-1.9,2.6c-5.1,2.5-11.1,1.2-16.6,0.3c-1.7-0.3-3.7-0.5-5.2,0.4c-0.7,0.4-1.3,1.1-2.1,1.4c-2.4,0.9-5.2-2.1-7.3-0.7
		c-0.4,0.3-0.7,0.6-1.2,0.8c-1.3,0.5-2.5-1.3-2.1-2.7s1.7-2.2,2.9-3.1c1.6-1.2,3-2.7,4.2-4.4c0.7-1,1.3-2.2,1.1-3.4
		c-0.1-0.9-0.7-1.8-1-2.6c-1.6-5,5-10.8,1.9-15.1c-0.9,0.2-2,0-2.8-0.6c0.3-3,1.9-5.8,4.2-7.7c-1.3,3.7,0,7.7,1.3,11.4
		c2.6-4.7,3.6-10.2,2.7-15.5c-0.1-0.8-0.3-1.7-0.2-2.5c0.2-1,0.8-1.8,1.2-2.7c0.9-1.8,1-3.9,1.8-5.7c1.9-4.5,7.5-6.9,8.7-11.7
		c-1.2-2.2-2.5-4.4-3.7-6.6c-1,1.5-3,2-4.8,1.8c-1.8-0.2-3.5-0.9-5.3-1.2c-4.5-0.8-9,1-13.5,1.8c-2.9,0.5-5.9,0.6-8.8,1.4
		c-2.9,0.8-5.7,2.5-6.9,5.2c-1.8,4.1,0.5,9.1-1,13.3c-2.4-0.4-3.4,2.7-4.3,4.9c-1.4,3.2-4.6,5.6-8.1,6c-1,1.4,3,1.7,3,3.4
		c0,0.3-0.1,0.5-0.2,0.8c-0.9,1.6-3.1,2.2-4.9,1.9c-1.8-0.3-3.6-1.1-5.4-1.5c-5.6-1.3-11.1,1.7-16.5,3.6s-12.4,2.6-16-1.8
		c-0.8-1-1.4-2.2-2.5-2.7c-1.8-0.9-4,0.2-5.8-0.5c-1.2-0.5-2-1.7-2.6-2.8c-5.7-9.7-10.4-20-14.1-30.7c0.1,0,0.2,0,0.3,0
		c0.5-5.1-9.4-41.5-7.9-46.5c1.6-5.1,3.6-10.2,4.6-15.4c1.1-5.6-3.9-7.4-3.6-11.9c0.2-3.6-3.3-5.5-2.7-8.3c5.1,3.9,8.3-1,3.2-4.1
		c-2.8-1.7,1.8-2.3,2.6-2.3c2.7,0.2,1.2-6.5,5.3-5.5c3,0.7,1.7-3.2,2-4.2c0.7-2.1,7.1,1.1,8.7,0.3c3.2-1.6,5.2-3.6,7.6-6.3
		c3.8-4.1-1.2-3.9,0.6-7.9c2.1,1.5,4.7-2.6,6.2-1.6c0.4,1.1,0.3,2.2-0.3,3.4c2.3,0,5.7,0.3,7-2.1c0.7-1.3,1.2-3.6,3.3-2.5
		c-0.8,1.5-1.6,3.1-2.3,4.6c6.8,0.3,13.2,0.5,20,0.9c-1.1-9.2,8.2-0.6,10.6-1.1c-0.6,2.8,0.1,7.4,4.5,6.4c1.9-0.4,2.3-3.1,4.6-2.6
		c2.1,0.4,1.7,3,4.4,1.8c-0.4-1.9-2.5-2.9-1.4-5c0.9-0.2,16.6,9,12.4,3.3c-1-1.2-8.6-1.7-6.5-4.6c0.6-0.7,3.1-6.5,0.2-4
		c-3.2,2.7-3.5-0.6-6.9-0.8c-3.1-0.2-0.5-5.1,2.4-3.3c4.7,3,5.7-0.6,10.3-1.3c2.5-0.4,5.1,1.1,7.5-0.4c1.6-0.9,2.2-3,3.8-3.9
		c3.9-2.4,4.5,6.3,7.5,4.4c3.5-2.1,3-1.7,6.5-1c5.6,1.1,8.7-1.4,14.3,2.4c0.6,0.4,4,6.8,3.4,6.7c9.4,0.5,15.2-10.8,22.3,0
		c2.3,3.4,5.9,6.3,7.8,9.9c3,5.9-1.9,10.1-0.8,15.4c0.2,0,6.5-7.6,4.4-0.5c-0.9,2.8-3.2,11,1.4,12c-0.4-2.2,0.9-2.7,3.8-1.4
		c-1.6,1.7-1.9,3.7-1.1,5.9c0,0.1,2.4-5.1,3.1-3.2c0.5,1.5-0.6,5.5-0.4,7.3c0.4,3,4.7,5.5,6.3,8.2c1.3,2.3,1.7,3.8,4.7,4.1
		c6.8,0.8,6.5-2.5,5.8-7.9c-0.7-4.6,2.1-8.3,2.1-12.7c-0.1-3.2-3.8-3.2-2.3-5.8c1.1-1.9-2.1-5.6-3-7.1c-2.4-3.8-1.9-8.4-3.2-12.5
		c0.6-0.1,1.2,0,1.7,0.2c-0.6-2.1-2.7-3.4-3.8-5.2c-2-3.5-2.4-6.9-3.2-10.8c-0.6-3.3-1.4-6.6-1.5-9.9c-0.1-2.1,0.3-4.1,1.1-6.1
		c-1.8-0.7-2.1-1.8-1-3.2c2.2-3.1,3.6-4.8,6.2-7.1c2.6-2.3-0.8-3.3-0.2-5.9c0.5-2.1,2.7,0,2.5,1.4c1.9-1.5-0.6-2.5,2.3-2.6
		c1.3,0,5.4-0.2,4.4-2.6c5,2.5,10.3-10.3,12.4-12.3c4-3.8,7.3-2.5,11.4-4.4c3.2-1.6,5-8.3,5-11.1c1.8,0.2,2,3.4,4.1,1.5
		c2.2-1.9,6.3-0.1,7.6-3.2c-4.4-1.8-3.7-0.1-6.2-4.8c1.6-0.2,4.3,5.5,4.6,0.8c0.2-4.1-4.4-1.4-5-4.8c-0.5-2.8,5.4,1.8,6.3-0.1
		c0.4,0.8,0.4,1.5,0,2.3c3.7-1.7,9,0.2,8.2-7c-1.8,0.3-1.7,2.3-3.8,2.3c-0.7-1.2-0.6-2.4,0.1-3.5c-1-0.2-13.6,0.7-7.5-5.3
		c-0.1-0.1,4.7,7.9,4.1,2.1c1.8,2.7,1.6,0.1,4,0.6c3.3,0.7-0.6-4.5-0.6-5.3c3.5,0.9,2.3-4.8-1.7-5c-1.9,0-11.4-6.5-11.4-6.5
		c4.4-2.5,6.5,4,10.1,4.3c0.4-3.1-4.2-3.8-5-6.5c0.4,0.2,8.8,4.9,4.7,0.4c-2.4-2.7-4.8-6.3-7.5-8.7c3.2-2,6.8,4.2,8.5,5.9
		c2.3-6.5-12.5-6-10.4-12.4c0.8-2.5,6.8,4.6,10.2,4.5c0.5-2-1.4-5-3.5-5.3c-0.1-2.1-0.5-4.3-0.4-6.4c0.1-2.8,5.4-8.2,8.3-7.9
		c0.6,6-4.5,13.2,2.7,17.8c3.2,2.1-2.1,12.4-2.8,14.8c5.4-0.3,8-16.9,10-20.5c-4.2-3.3-10.8-19.4,0-18.2c-1.1,1.9-4.9,3.5-4.4,6.1
		c0.5,2.7,3.8,6.1,6.3,7.1c2.6,1.1,8.5-11.2,8.9-14c0.2-1.6,0.5-5.3-2.2-4.9c-0.8-4.1,5.9-4.4,8.8-5.3c3.1-1,14.7-0.4,15.4-4.8
		c-5.4-2.1-21.4,10.5-20.5-2.6c2.3,0.2,0.7,4.4,3.4,3.5c4.1-1.3,7.6-3.4,12.1-4.5c3.2-0.8,6.3-1.5,9.5-2.2c1.5-0.1,2.4-0.8,2.9-2.1
		c1-3.3,1.3-1.9,4.7-2.2c-3,5.6,3.8-0.3,3.9-0.4c1.5,4.4,0.4,2.5,4.1,1.7c2.3-0.5,7.9-4.3,2.7-5.8c-2.5,12.7-5.5-4.1-7.5-4
		c-5.1,0.3-0.3-4.1-1.1-7.6c-1.2-5.8,4.7-8.6,7.7-12.6c1.2-1.6,0.1-3.8,1.9-5.4c1.1-0.9,5.7-5,4.9-0.8c5.9,1.7,6-8.1,8.9-9
		c0,0,3.8,7.6,4.7,0.8c4.2,1.9,4.7-1,9.5-3.1c5.7-2.5,4.4-0.8,4.2-6.7c-0.2-5.4,2.9-1.4,5.8-0.9c5.7,0.6,4.5-4.9,7.7-4.9
		c0.8,1.6-1.5,4.4,2.1,3.2c1.9-0.7,3.7-2,5.3-3.3c4.8-3.6,6.6-4.3,7-10.3c2.6,0.3,1.9,6.8,5.3,4.2c0.1,3.3-7.8,6.8-3.8,7.6
		c2.4,0.5,12.8-3.6,13.2,0.6c-2.2,0.4-4.4,0.9-6.6,1.6c-3.5,0.3-4,1.7-1.7,4c-1.7,0.2-4.1-2.6-2.4-4.1c-3.1-0.5-12,6.1-14.3,8.5
		c4.2-1.4-4.8,5-5.7,7.1c-1.7,3.8,2.2,9.1,2.2,7c1.7,0.4,3.6,8.3,6.3,4.1c1-1.6,2.1-7.4,3.9-2.9c2.4-3.8,5.5-5.4,7.6-9.7
		c1.5-2.3,0.9-4.6,4.7-4.8c-0.7,2.9,3.3,2.3,5.3,3.5c0.4-2.2-0.6-3.3-2.3-4.5c1-0.9,3.4,1,5.2,0.6c3.1-0.7,6.1-2.1,8.9-3.7
		c3.2-1.9,13.9-3.1,15.7-5.8c-1.4-0.6-2.9-0.9-4.5-0.9c5.2-4.1-5.1-5.7-5-7.6c-4.1,2.6-5.4,3.2-10,3.4c-0.1-0.8,0.2-1.3,0.8-1.8
		c-3.1-2.3-5,1.1-7.8,0.1c-3-1.1-6-3.4-8.1-5.7c1-0.6,2.1-0.8,3.3-0.6c0.1-3-7.8-1.7-10-3.5c1.5-1.7-0.7-4.8-1.4-6.2
		c-1.7-3,0-3.6-0.6-6.4c-4-0.2-6.3-0.7-2.6-4.2c2.1-2,3.8-6.5,4.1-9.3c-4.4-2.1-8.6,8.1-10.6,2.5c-1.6-4.4-12.7-3.4-12.7-3.8
		c-0.3-3.9,9.4-1.8,10.1-5.7c5.5,1.9,7.6,7.4,12.8-0.2c1.6-2.4,5-1,6.8-3.4c1.8-2.3-3.6-3.8-4.3-5.3c1.6,0.1,3.1,0.2,4.7,0.2
		c-4.6-2.6-5.1-6.6-11.1-7.4c-6.3-0.9-12.9,1.7-18.7,3.9c-13.4,4.9-23.9,13.1-33.3,23.7c-4.2,4.8-8.3,9.6-13.7,13.2
		c-5.1,3.4-11,5.2-16,8.9c-7.2,5.3-16.1,22-26.3,20.7c4.2-4.9,6.7-8.9,11.4-13.4c7-6.7,15.3-10.5,23.5-15.5
		c7.3-4.5,12.3-11.6,18.2-17.6c8.5-8.6-8.1-4.7-10-8c-0.5-0.8,8.7-1.9,10-1.4c2.5,1,5,4.7,6.6,0.2c1.3-3.5,3.4-5.4,6.1-8
		c2-1.9,3.6-4.2,5.7-6c3.3-2.8,7.1-1.2,10.3-3.4c5.4-3.8,3.4-12,11.4-13.6c16.2-3.3,34.7-5,51.1-2.5
		C619.6-180.9,642.5-177,641.2-191.4z M248-163.3C247.3-162.7,247.6-163,248-163.3c-1.6,1.3-3.7-0.4-4.3-1.8c-2,1.6-1.1,9.5-6.1,6.7
		c-3.6-2.1-3.9-5.6,0.3-6.1c6.8-0.7-1.4-4-1.7-4.3c-1.9-2.1-0.5-4.4,1.6-5.3c2.9-1.2,1-2.7,1.3-5.1C240.5-179.2,249.8-165,248-163.3
		C248.5-163.7,248.9-164.1,248-163.3z M364.4-71.8c-2.2-2,2.8-7.6,3.9-9.1c3.3-4.7,2.9-5,1.1-9.9c-1.4-4.1-1.1-6.1-4.9-7.8
		c-4.2-1.9-9.7-6.9-14.7-2.9c1.1,0.5,2.2,0.8,3.3,1.1c-1.6,1.3-3.2,2.5-4.8,3.8c-1.7,2.3-1,4.9-1.8,7.4c-3.1-0.1-2.7-3.7-3.1-5.8
		c-7.2,2.1-7.6,18-7.5,23.7c0.1,4.4,3,7.7,3.1,11.9c0.1,5-2.7,13.5-7.1,16.5c-9.9,6.6-14.8-10.4-14.9-16.9
		c-0.3-12.6,9.6-23.3,9.4-36c-2.5,2.5-2.5,6.8-5.1,9.4c-4.2,4.1-4.2-2.5-3-5c2.4-4.9,6.7-20.7,14.4-14.7c3,2.4,9.6-2.7,12.7-3.4
		c2.8-0.6,5.1,0.6,7.2,2.4c0.5-1.5,2.4-1.8,3.8-1.8c4.3,0,8.4,1.7,12.6,2.7c4.5,1.1,9.9-1.2,14,1.3c1.4,0.8,2.6,2.9,3.9,3.5
		c4,1.8,2.6-4.1,1.4-5.4c-0.2-0.2-4.8-2.4-5.4-2.5c-3.9-0.8-9.5,0.8-13.9,0.2c-3.6-0.5-7.3-1.7-10.7-2.9c-1.9-0.7-8.1-2.7-7.6-5.7
		c-5.4-2.3-10.4,0.7-15.7,1.6c-4.2,0.7-13.4-1.4-15.4-5.6c-1.9-4-10.7,3.7-9.8-4.8c2.7-1.1,9.8-1.4,9.2-5.9
		c-7.4-3-20.6,9.5-27.3,11.9c-2.8,1-9.8,3.1-8.5-2c-5-0.8-9.1,4.8-14.1,2.6c2.6-5.2,5.8-8.2,10.7-11.3c4.3-2.6,11.2-9,16.2-9.7
		c6.9-0.9,2.7-13.9,12.5-9.2c0.1-4,0.3-4.3,4.1-4.4c2.8,0,7.6-1.8,2.1-3.6c2.4-4.1,6.1-2.2,9,0c3.9,2.9,7.6,2,11.3,4.1
		c3.1,1.7,3.2,6.5,5.1,9.1c2.2,3,9.7,2,13.2,3.6c-3.7,2.6,1.3,7.2,0.6,10.6c-1.1,5.7,4.5,2.7,6.6,6.1c-8.6,3.9-2.8,7.9,2.8,10.7
		c7.1,3.5,15.8,0.2,23.3,1.4c4.6,0.8,14,1.5,15.9,6.8c1.2,3.3,0.5,6.9,3.3,9.5c2.7,2.5,6.7,4,6.8,8.2c-1.6,0.1-2.9-0.4-4-1.5
		c2.5,3,0.3,5.4-3.4,5.7c-5.8,0.4-6.3-4.2-10.4-6.9c-5-3.3-5.9,21-7,24.6c-1,3.2-4.4,6.3-7.6,3.3c-3.6-3.5-3-9.4-5.7-13.5
		C371.8-80.2,369.3-67.1,364.4-71.8z M417.6-57c0.5-0.5,1.1-1.1-0.2,0.2c-0.3,0.3-0.3,0.3-0.2,0.1c-7.8,7.2-18.6,8.5-27.3,14.8
		c-4.5,3.3-9.1,4-14.6,3.1c-6.6-1-6.8-3.4-6.5-9.1c6.1-1.6,11.5-2.8,16.9-6.3c5.3-3.5,11-2.1,16.4-4.8c3.9-2,9.3-0.7,12.6-4.1
		C420.7-69.2,421.3-60.9,417.6-57z M450.2-77.1c0.1,0.3,0.1,0.5,0.2,0.7c0.8,4.3-4.1,4.6-7,5.1c-3.5,0.6-3.6,2.2-6.4,3.2
		c-3.3,1.1-7.2-0.5-10.5-1c-5.4-0.8-11.7,0.8-16.9,2c-1.8-8.2,7.5-9.1,13.3-10.1c10.6-1.7,20.2-6.1,30.5-8.9
		C452-84.1,446.9-79.5,450.2-77.1z"/>
	<path fill="#F6F0EF" d="M408.6-89.3c-0.1-0.2-0.3-0.3-0.5-0.5C408.3-89.6,408.5-89.4,408.6-89.3z"/>
	<path fill="#F6F0EF" d="M450.4-76.4c0-0.2-0.1-0.4-0.2-0.7C447.3-79.2,450.7-74.4,450.4-76.4z"/>
	<path fill="#F6F0EF" d="M417.4-56.8c0.1-0.1,0.1-0.1,0.2-0.2c-0.1,0.1-0.3,0.3-0.4,0.3C417.3-56.7,417.4-56.8,417.4-56.8z"/>
	<path fill="#F6F0EF" d="M248-163.3C248-163.3,248-163.3,248-163.3C248-163.3,248-163.4,248-163.3C248-163.3,248-163.3,248-163.3z"
		/>
	<path fill="#F6F0EF" d="M436.2,159.8c-3.2-1.1-12.9,1.7-15.4,3.6c1.9,1.4,5.1,1.2,7.5,0.4l-1.8-0.9c2.4-1.9,5.9-1.4,8.7-1.3
		c0.2,0.1,1.7,1.4,2.1,1.7c-0.1,1.7-0.6,3.8-0.3,5.8C440.9,168.8,439.6,161,436.2,159.8z"/>
	<path fill="#F6F0EF" d="M449.4,181.1l0.9,2.6c1.1,2,1,4.2,1.8,6.2C454.6,186.9,451.1,183.8,449.4,181.1z"/>
	<path fill="#F6F0EF" d="M395.6,258.9c-1.2,0.6-1.8,2.1-3.1,2.7c-0.3,1.2,0.9,2.2,1.9,2.8c2.3,1.5,5.3,2.9,7.6,1.5
		c1.6-1,2.2-3.1,2.6-5C401.5,261.5,398.4,257.4,395.6,258.9z"/>
	<path fill="#F6F0EF" d="M457,278c-1.2-0.8-2.6-1.1-3.9-1.4c-5.4-1.1-11-1.5-16.6-1.3c-0.5,0-1.1,0.1-1.6,0.4
		c-1.1,0.9-0.1,2.6,0.9,3.6c1.9,0.3,3.7,0.5,5.6,0.8c1.4,1.7,3.2,3.2,5.2,4.2c-1.1-1-0.3-3,1-3.7c1.3-0.7,2.9-0.5,4.4-0.2
		c2.3,0.4,4.5,0.7,6.8,1.1C459,280.2,458.2,278.8,457,278z"/>
	<path fill="#F6F0EF" d="M464.8,247.8c-0.5-4.1-3.9-7.7-8-8.5c-1.4-0.3-2.9-0.2-4.3-0.5c-2.3-0.5-4.4-1.8-6.1-3.4
		c-2.7-2.4-4.8-5.5-6.7-8.6c-0.7-1-1.3-2.1-2.2-2.9c-2.2-2-5.4-2.3-8.4-2.5c0.6,2.1,3.3,2.5,5.3,3.5c2,1.1,3.4,3,4.7,4.9
		c1.2,1.7,2.3,3.5,3.5,5.2c-2.7-1.4-4.2-4.2-6.5-6.2c-3.1-2.7-7.4-3.5-11.5-3.6c-0.9,0-1.8,0-2.7-0.3c-0.7-0.3-1.2-0.7-1.8-1.2
		c-2.5-2.3-4.7-5.6-8.1-5.6c-0.9,0-1.7,0.2-2.6,0c-0.8-0.2-1.6-1.2-1.1-1.9c-1.8,0.9-3.8,1.4-5.9,1.5c0.3-0.7,0.6-1.3,0.9-2
		c-1.3,0.9-2.9,1.3-4.5,1.3c-2.1,0-4.7-0.8-6.1,0.8c-0.4-0.9-0.8-1.8-1.2-2.7c-3.8,0.8-7.5,1.6-11.3,2.5c-3.2,0.7-6.4,1.4-9.6,2.4
		c-2,0.7-4,1.5-6,2.5c-1.7,0.9-3.7,2.6-3,4.4c0.6,1.5,2.9,2.5,2.2,4c-1.7,0.1-3.5,0.3-5.2,0.4c-1,0.1-2.2,1-1.5,1.6
		c0.2,0.2,0.6,0.2,0.9,0.2c1.6-0.1,3.1-0.4,4.6-0.8c0.1,0.5-0.2,1.1-0.7,1.3c3.2,0.3,6.5-1.4,8-4.2c0.2-0.4,0.4-0.9,0.8-1.2
		c1-1,2.6-0.6,4-0.6c1.4,0,3.1-1.2,2.4-2.4c0.8,0.7,2,0.1,2.6-0.7s1-1.8,1.9-2.4c0.5-0.3,1.1-0.4,1.7-0.5c4.2-0.6,8.6-0.3,12.7,0.7
		c0,0.7,0,1.4,0,2.1c-1.6,0.2-3.3,0.3-5,0.2c-0.8,0-1.8-0.1-2.3,0.6c-0.5,0.6-0.2,1.6,0.4,2.1c0.6,0.5,1.4,0.7,2.1,0.9
		c2.3,0.6,4.6,1.2,6.8,1.7c1.5,0.4,3.9,0.2,3.8-1.4c0.2,1.8,2.7,2.3,4.5,1.9c1.8-0.3,4-0.9,5.2,0.5c0.3,0.3,0.5,0.7,0.8,1
		c0.5,0.5,1.2,0.9,1.8,1.1c1.6,0.7,3.3,1.2,5,1.6c3,0.7,6.2,1,9.3,1.3c1.8,0.2,3.9,0.5,4.7,2.2c0.8,1.8-0.5,4.4,0.9,5.8
		c1,1.1,3.3,1.2,3.3,2.7c3.1-0.1,6.1-0.1,9.2-0.2c0.3,0,0.6,0,0.9,0.1c1,0.6,0,2.1-0.9,2.7c1.1,0.2,2.1,0.9,2.5,2
		c-3.4,1.4-7.1,3.1-8.6,6.5c7-0.6,13.9-1.3,20.9-1.9c1.4-0.1,3.1-0.6,3.2-2c0.1-1.3-1.4-2.1-1.9-3.2
		C462.1,249.5,463.3,247.7,464.8,247.8z"/>
	<path fill="#F6F0EF" d="M441.1,193c-0.3-0.5-0.9-0.7-1.5-0.8c-0.2-0.5-0.4-1.1-0.4-1.7c-0.8-0.5-2-1-2.4-0.1
		c-0.2,0.4-0.1,0.8,0,1.2c0.5,1.8,0.9,3.6,1.4,5.4c-0.7,0.4-1.1-0.7-1.6-1.3c-0.6-0.9-2-1-2.8-0.3c-0.8,0.7-0.8,2.1,0,2.9
		c0.4,0.4,0.9,0.6,1.3,0.9c0.3,0.3,0.4,0.6,0.6,0.9c0.7,1.1,2.3,1.6,3.5,1.1c0.2,0.8,0.5,1.6,0.7,2.4c-0.4-0.1-0.8-0.2-1.3-0.3
		c-0.1,0-0.3-0.1-0.4,0c-0.5,0.2-0.1,1,0.4,1.1c0.5,0.2,1.1,0.2,1.4,0.6c-0.3,1.1,0.1,2.4,0.9,3.2c0.8,0.8,2.1,1.1,3.2,0.8
		c0.4-1.9,0-4-1.1-5.6c-1-1.5-2.5-2.9-2.5-4.7c0.8-0.3,0.9-1.3,0.7-2.1c-0.2-0.8-0.7-1.5-0.8-2.3C441.1,194.3,441.4,193.5,441.1,193
		z"/>
</g>
<g id="green">
	<path fill="#DEEBD2" d="M422-4c-4.2,0.9-8.8,12.8-12.4,12.3c-4.4-0.6,12.3-10.3,3.9-13.6c-4.8-0.4-4.8-2.6-6.6,3.3
		c-1.4,4.5-5.4,5.9-5.4,11.2c1-0.6,1.9-0.6,2.9,0.1c0,2.3,0.4,4.7-0.9,6.3c-2.3,2.8-18.6,5-12.2,7.5c-2.8,1.1-5.4,2.6-7.7,4.5
		c8,4.1,13.6-8.9,21.3-8.9c-1.9,0.6-8.2,4.8-9,6.7c3.1-0.5,11.9-5.2,13.8-7.7c1.8-2.5,11.2-15,12.4-20.1C422.2-2.4,422.4-2.8,422-4z
		"/>
	<path fill="#DEEBD2" d="M377,46.7c0.4,0.2,0.7,0.1-0.3-0.9c-4,1.3-3.6,2.1-7.9,1.8c-1-10.3,14.2-4.1,16.6-4.7
		c8.1-2.2-0.7-6.6,1.1-9.2c1.1-1.6,9.3-3.1,8.8-5.3c-5.8-2.1-20.4,10.4-25.7,13.1c-4.4,2.3-11.2,6.5-14.1,10.4
		c-7.7,10.4,10.4,6.2,14.3,4.7C364.7,65.3,377.1,51.2,377,46.7z"/>
	<path fill="#DEEBD2" d="M376,25.9c1.3-1.6,2.6-2.9,4.2-4.2c-5.5,0.1-5.7,3.1-8,7.7c0.1,0,0.2,0.1,0.3,0.1
		C375.5,30.3,380.9,27.8,376,25.9z"/>
	<path fill="#DEEBD2" d="M367.6,21.4c-4.3-0.9-7.8,1.9-2.1,4.8C371.8,29.3,370.4,20.9,367.6,21.4z"/>
	<path fill="#DEEBD2" d="M358.3,26.7c-0.1,0.4,0,0.2,0.3-1.5c0.8-4.8,14.5-14.9,9.7-19.3c-0.5-0.5-15.9,20.5-15.5,24.8
		C357.1,30.8,357.7,29.8,358.3,26.7z"/>
	<path fill="#DEEBD2" d="M350.4,60.2c0.4-2.2-2.7-1.6,0.4-4.1c-4.7,0-5,1.8-5.3,6.5C347.7,63,349.3,62.1,350.4,60.2z"/>
	<path fill="#DEEBD2" d="M350.4,60.2C350,62.9,350.5,59.4,350.4,60.2L350.4,60.2z"/>
	<path fill="#DEEBD2" d="M343.7,68.3c-2.1,1.4-8.9,10.5-6.8,11.7c4.4-3.6,7.5-7.6,7.2-11.9C342.4,67.7,343.1,68.2,343.7,68.3z"/>
	<path fill="#DEEBD2" d="M365.5,79.7c0.6-0.1,1.2-0.6,1.6-1C364.7,77.4,363,80.4,365.5,79.7z"/>
	<path fill="#DEEBD2" d="M381.5,64.2c-6.3,3.8,1.3,9,1.6,8.6C384.5,70.8,387.3,62.9,381.5,64.2z"/>
	<path fill="#DEEBD2" d="M386,60.4c-0.9,6.4,7.2,1,6-0.8C390.5,57,386.6,55.6,386,60.4z"/>
	<path fill="#DEEBD2" d="M405,58.3c-1.2-0.4-1.8,0.2-1.8,1.8c1.3,0.1,2.6,0.1,3.9-0.1C406.4,59.4,405.7,58.9,405,58.3z"/>
	<path fill="#DEEBD2" d="M406.1,74.4c-0.1,0-0.3,0.1-0.4,0.2C406.7,90.8,415.4,70.9,406.1,74.4z"/>
	<path fill="#DEEBD2" d="M378.7,105c-1.9,0.6-3,14.6,0.6,13.9C379.7,117,387.1,102.5,378.7,105z"/>
	<path fill="#DEEBD2" d="M378.7,105C380.1,104.6,375.5,105.9,378.7,105L378.7,105z"/>
	<path fill="#DEEBD2" d="M385.8,119c-2.2-1.6-2.2,2.3-2.4,3.3C385.1,122,385.9,120.9,385.8,119z"/>
	<path fill="#DEEBD2" d="M389.7,130.2c-0.8-1.3-3.1-5.1-3.1-5.1c-6.2,8.4-0.6,8.9,3.3,5.5C389.9,130.4,389.8,130.3,389.7,130.2z"/>
	<path fill="#DEEBD2" d="M354.1,115C355.4,114.5,353.2,115.3,354.1,115L354.1,115z"/>
	<path fill="#DEEBD2" d="M354.1,115c-10.3,3.6-1.7,7.8,3.5,1.7C357.2,114.8,356.1,114.2,354.1,115z"/>
	<path fill="#DEEBD2" d="M398.9,173.4c0.4,0.2,0.6,0.3-0.2-0.1c-1-0.6-6.4-9.8-7.9-3.6C388.4,180.3,405.3,176.9,398.9,173.4z"/>
	<path fill="#DEEBD2" d="M327.7,105.9C328,104.2,327.4,107.3,327.7,105.9L327.7,105.9z"/>
	<path fill="#DEEBD2" d="M327.7,105.9c-0.7,3.9,6.3,0.2,6.9-0.6C334.6,103.6,328,104.2,327.7,105.9z"/>
	<path fill="#DEEBD2" d="M300.3,105.7c0.4-1.4,2.3,8,1.8,7.2c1.9,3.3,3.6-3.8,4.8-3.7C309.9,104.7,301.1,102.6,300.3,105.7z"/>
	<path fill="#DEEBD2" d="M304.8,99.5C300.6,108.2,317.3,96.9,304.8,99.5L304.8,99.5z"/>
	<path fill="#DEEBD2" d="M301.7,91.3c-0.5-0.7-3.5-7.1-5.7-5.5C292.5,88.4,301.6,96.8,301.7,91.3z"/>
	<path fill="#DEEBD2" d="M301.7,91.1c0,0.1,0,0.1,0,0.2C301.8,91.4,301.8,91.3,301.7,91.1z"/>
	<path fill="#DEEBD2" d="M285.1,98.2C285.1,98.2,285.1,98.2,285.1,98.2C285.1,98.2,285.1,98.2,285.1,98.2z"/>
	<path fill="#DEEBD2" d="M285.1,98.2C285.1,98.2,285.1,98.2,285.1,98.2C285.1,98.2,285.1,98.2,285.1,98.2z"/>
	<path fill="#DEEBD2" d="M284.8,98.4C284.8,98.4,284.7,98.4,284.8,98.4C284.7,98.4,284.8,98.4,284.8,98.4z"/>
	<path fill="#DEEBD2" d="M285,98.3C285,98.3,285,98.3,285,98.3C285,98.3,285,98.3,285,98.3z"/>
	<path fill="#DEEBD2" d="M284.7,98.4C284.4,98.5,284.5,98.5,284.7,98.4L284.7,98.4z"/>
	<path fill="#DEEBD2" d="M285.1,98.2C271.6,104.9,287.7,106.9,285.1,98.2L285.1,98.2z"/>
	<path fill="#DEEBD2" d="M285,98.3c-0.1,0-0.1,0.1-0.2,0.1C284.9,98.3,284.9,98.3,285,98.3z"/>
	<path fill="#DEEBD2" d="M288,84.7c0.5-1.3,0.2-1.8-0.8-1.6c-0.3-0.5-2.4-2.4-3.5-1.1c-0.4,2.1,0.2,3.8,2.1,4.9
		c-0.3-0.9-0.4-1.9-0.4-2.9C286.3,83.8,287.2,84.1,288,84.7z"/>
	<path fill="#DEEBD2" d="M298.8,60.3c0.4,1.3,1.1,2.4,2,3.5c2.2-1,6.8-6.5,4.8-9c-3-4-6,4-3.3,4c-1.1-0.1-3-0.1-3.5,1.3
		C298.9,59.9,298.9,59.9,298.8,60.3C298.6,61.4,298.7,60.8,298.8,60.3z"/>
	<path fill="#DEEBD2" d="M323.7,61.2c0.1,0.1,0.3,0.1,0.4,0.2C324,61.3,323.8,61.2,323.7,61.2z"/>
	<path fill="#DEEBD2" d="M324.1,61.4c0.2,0.2,0.3,0.3-0.4-0.2c0.5-1-3.3,0.7-2.6,4.5c1.1,5.2,5.3-1.8,6.5-2.8
		C326.6,62.4,325.4,61.9,324.1,61.4z"/>
	<path fill="#DEEBD2" d="M260.1,96.9C261,97,260.5,96.9,260.1,96.9c1.4,1.2,2.9,1.9,4.5,2.4c1.2-0.9-1.9-8.6-3.6-8.5
		C256.8,91.3,256.8,96.5,260.1,96.9z"/>
	<path fill="#DEEBD2" d="M260.2,96.9C260.2,96.9,260.1,96.9,260.2,96.9C259.7,96.8,259.9,96.9,260.2,96.9z"/>
	<path fill="#DEEBD2" d="M258.9,107.4c0.7,0.3,6.8,0.1,7-0.4c-0.4-0.7-0.6-1.4-1-2.1C263.7,104.3,255.9,106.3,258.9,107.4z"/>
	<path fill="#DEEBD2" d="M246.4,96.2c0.2-0.6,2.7,10,2.6,10c4.4,4,2.8-6.3,2.1-8C250.8,97.1,247.5,93.4,246.4,96.2z"/>
	<path fill="#DEEBD2" d="M242.5,99.8c0.2,1.8,0.7,3.6,1.6,5.2c-0.9-1.1-2-1.6-3.3-1.7c-0.2,6.3,4.1,3.1,4.6-1.3
		C245,101.5,245.1,99.3,242.5,99.8z"/>
	<path fill="#DEEBD2" d="M237.4,102.8C237.9,103.5,237.4,101.5,237.4,102.8L237.4,102.8z"/>
	<path fill="#DEEBD2" d="M233.3,98.4C234,98.3,234.7,98.2,233.3,98.4c-1,0.2-0.6,0.1-0.2,0c-3.3,0.6-1.1,7.1,1.2,7.7
		C239.9,107.6,236.8,98,233.3,98.4z"/>
	<path fill="#DEEBD2" d="M229,114.5c3.1-3.2,2.7,1.5,7,1.2c-0.3-1-0.9-3.8-0.9-3.9C235,111.8,222.7,110.1,229,114.5z"/>
	<path fill="#DEEBD2" d="M236.2,115.8c-0.1,0-0.1,0-0.2,0C236.1,116.2,236.2,116.3,236.2,115.8z"/>
	<path fill="#DEEBD2" d="M254.5,54.9c-0.1-0.2-0.9-0.6-1.2,0C253.6,54.9,254,54.9,254.5,54.9z"/>
	<path fill="#DEEBD2" d="M248.3,58.7c-0.3,1.6-3.8-0.4-3.3,2.8c0.6,4.3,16.2-5.6,17.2-6.6c-1.1-2.4-5.2-0.3-7.7,0
		c0.1,0.2-0.2,0.3-1.2,0c1.4-2.8,1.8-2.2,2.9-5.5c-4.5-1.4-3.9,1.5-7,3.1c1,1.1,1.1,2.1,0.1,3.1C247,56.3,243,54,239,55.8
		C234.2,58.1,248.2,59.3,248.3,58.7z"/>
	<path fill="#DEEBD2" d="M252.4,49.1C253.2,47.5,252.4,48.9,252.4,49.1L252.4,49.1z"/>
	<path fill="#DEEBD2" d="M253.1,48.2C253.1,48.2,253.1,48.2,253.1,48.2C253.1,48.2,253.1,48.2,253.1,48.2z"/>
	<path fill="#DEEBD2" d="M253.1,48.2c0,0-0.1,0.1-0.1,0.1C253,48.3,253,48.2,253.1,48.2z"/>
	<path fill="#DEEBD2" d="M253,48.3c-0.1,0.1-0.1,0.1-0.1,0.1C252.9,48.4,252.9,48.4,253,48.3z"/>
	<path fill="#DEEBD2" d="M253.1,48.2C253.1,48.1,253.1,48.1,253.1,48.2L253.1,48.2z"/>
	<path fill="#DEEBD2" d="M247.8,45.7c-0.3-0.1-0.6-0.1,0.2,0.1c4.1,1.2,15.8,3.6,12.7-3.3C257.2,34.6,245.4,44.3,247.8,45.7z"/>
	<path fill="#DEEBD2" d="M268.8,38c-1.3-1-2.8-1.4-4.5-1.1C261.5,45.5,273.5,36.5,268.8,38z"/>
	<path fill="#DEEBD2" d="M254.8,33.1c0.1,0,0.3-0.2,0.8-0.6C247.3,26.7,250.7,35.6,254.8,33.1z"/>
	<path fill="#DEEBD2" d="M259.8,32.2C259.6,32.1,259.4,32.1,259.8,32.2C260.6,32.7,260.1,32.4,259.8,32.2c1.2,0.6,5.7,0.3,4.6-2.1
		c-3.6,0.6-3.7-6.2-6.9-5.2C255.3,25.6,259.2,31.9,259.8,32.2z"/>
	<path fill="#DEEBD2" d="M267.7,26.8c0.5,1,0.9,2.1,1.4,3.1c1.6-1.3,2.3-3,2-5C265.8,24.6,269.7,25,267.7,26.8z"/>
	<path fill="#DEEBD2" d="M272.3,11.9c-1.4,0-1.2,3.8-2.4,4.3c-1.1,0.4-1.4-3.1-2.1-2.8c-5.2,1.4-2,5.6,1.3,4.8
		C270.1,17.9,276.1,11.9,272.3,11.9z"/>
	<path fill="#DEEBD2" d="M279.8,20.8c3.3,0.6,6.8-7,1.1-8.9C278,10.9,275.9,20,279.8,20.8z"/>
	<path fill="#DEEBD2" d="M279.8,20.8C279.4,20.7,281.4,21.2,279.8,20.8L279.8,20.8z"/>
	<path fill="#DEEBD2" d="M277,24.9c-0.7,1,2.2,5.5,1.9,7.2C289.6,36.2,280.7,20.2,277,24.9z"/>
	<path fill="#DEEBD2" d="M288.2,23.9c-2.2,0.4-1.8,1.8-3.8,2.8C290.3,32,291.2,23.1,288.2,23.9z"/>
	<path fill="#DEEBD2" d="M291.8,15.5C293.5,15.8,289,14.9,291.8,15.5L291.8,15.5z"/>
	<path fill="#DEEBD2" d="M289.2,20.6c3.4,0.3,5-4.7,2.6-5.1c-2.8-0.6-1.3,3-1.5,4.2c-0.9,0.1-3.5-1.8-1.9-2.6
		c-0.4-0.1-0.9-0.3-1.4-0.4C283.9,17.5,288.4,20.5,289.2,20.6z"/>
	<path fill="#DEEBD2" d="M311.7,14.8C311.9,14.8,312,14.8,311.7,14.8c-3.4-0.2-9.5-2-12.5-1.8c0.3,0,0.9,10.2,1,10.7
		c3.1,0,2-4.8,3-6.5c2.1-3.6,7,7,7.6,6.3c0.6-1.6,0.7-3.3,0.4-5c1.3-0.1,2.6-0.3,3.8-0.5C314.8,15.9,313.8,14.8,311.7,14.8z"/>
	<path fill="#DEEBD2" d="M332,13.5c1.4-3.2,3-13,0.1-14.4c-2.2-1.1-4.2,9.8-1.4,13.4C330.4,12.6,330.6,13,332,13.5z"/>
	<path fill="#DEEBD2" d="M334.9-4.9c0.3-0.5,0.4-1-0.5,0.5c2.4,1.6-1.4,2.6,1.8,4.1C339.2-2.4,336.5-5.7,334.9-4.9z"/>
	<path fill="#DEEBD2" d="M376.5,2.6c-0.8-0.1-2.1-0.2,0.4,0.1c0.1,0,0.1,0,0.1,0c0.8,0.1,4.5-0.1,4.9-0.6
		C385.4-2.9,368.8,1.5,376.5,2.6z"/>
	<path fill="#DEEBD2" d="M385.5-7.7c-2.5-3.7-5.3-9.8-7.2-0.2c1.4-0.6,2.9-0.9,4.4-0.9C383.7-7.8,383.6-6.9,385.5-7.7z"/>
	<path fill="#DEEBD2" d="M392.8-8.8c1-0.3,4.6-3.8,3.6-5.2C393.2-18.1,388.6-7.6,392.8-8.8z"/>
	<path fill="#DEEBD2" d="M392.8-8.8C390.3-8.1,393.4-9,392.8-8.8L392.8-8.8z"/>
	<path fill="#DEEBD2" d="M138.7,128.8c-1.7,1.6-1,4.3,1.1,4.8c8.1,2.3,6-3.3,7-7.1C142.7,121.9,141.9,125.8,138.7,128.8z"/>
	<path fill="#DEEBD2" d="M124.6,87.1c-1.2,2.5-3.1,3.6,1.4,6C130.3,90.6,125.2,89.4,124.6,87.1z"/>
	<path fill="#DEEBD2" d="M112.6,85c3.9,6,5.8-3,6-3.4C115.2,78.2,108.7,79,112.6,85z"/>
	<path fill="#DEEBD2" d="M116.8,70.1C118.4,69.2,116.8,69.7,116.8,70.1L116.8,70.1z"/>
	<path fill="#DEEBD2" d="M116.8,70.1c-1.2-7.7-6.3,11.8,0.3,6.3c-2.1-6.8,3.7-2.1,4.2-3.6C122.1,70.6,118.3,69.2,116.8,70.1z"/>
	<path fill="#DEEBD2" d="M113.1,60.4c-2.9,1.1,2.7,4.3,2.6,4.3C118.8,63.4,113.1,60.5,113.1,60.4z"/>
	<path fill="#DEEBD2" d="M97.2,71c-0.6-1.1-0.5-4-2.3-4.2c-1.8-0.2-0.7,8.6,1.7,8.4C97.7,75.1,99.5,70,97.2,71z"/>
	<path fill="#DEEBD2" d="M92.1,74c-3.8,0.9-8.2-0.4-7.3-5.5c1.8-11.2-6.3,5.1-12.2-2.4c-6.7-8.5-16.9-5.2-22-17.8
		c-3.3-8.3-11.3,2.1-12.3-0.4c3.8,9.8,7.6,17.4,14.2,26.2c5.4,7.2,4.9-3.3,4.5-5.7c-1.1-6.6,6.5-3.8,9.7-2.6
		c5.4,1.9,5.9,4.4,6.6,9.8c1.1,8.7,4.5,0.8,8.4,2.9c3.6,2.1,3.5,5.5,8.2,6C95.4,84.9,91.7,76.5,92.1,74z"/>
	<path fill="#DEEBD2" d="M87.3,46.9c-6-3.8-5.3,2.8-0.1,4.7c-2.8,1.1-1.1,4.5,1.6,3c-1.1,3.6,1.8,4,4.4,3.6c-0.6-1.3-1.1-2.4-2-3.5
		C89.7,55.2,89.7,48.4,87.3,46.9z"/>
	<path fill="#DEEBD2" d="M97.6,47c1.4-2.2-3.2,0.3-3.9,0.8c0.2-1,0-2-0.7-2.8c-0.6,1.9-0.5,3.8,0.4,5.5C94.1,49.5,96.2,46.9,97.6,47
		z"/>
	<path fill="#DEEBD2" d="M104.5,42.8c0.2,0,0.3,0,0.5,0c-0.3-0.4-0.7-0.9-1-1.4C103.7,42,103.9,42.5,104.5,42.8z"/>
	<path fill="#DEEBD2" d="M108,43.1c-1.1-0.2-2.1-0.4-3.1-0.4C106.5,44.8,108,45.7,108,43.1z"/>
	<path fill="#DEEBD2" d="M109.8,36.9c1.3-1.6,3.8-0.1,4.5-1c2.7-3.7-9.5-13.6-4.6-16.3c-1.4-2.8-0.9-13.7-4.1-10.9
		c0.9-2.1,5.2-4.5,8.2-3.7c0,2.9-1.7,8.5,3.6,11c4.6,2.2,0.7,9.2,6.5,7.4c7.2-2.2-4.1-7.9-5.8-11.1c-7.2-13.1,6.7,3,5.5,3.1
		c8.2-0.8-9.3-13.6-9-13.4c-2.4-2.3-1.6-2.8-2.6-6c-1.6-5.8,3.1-1.4,5.5-1.6c0.4-1.5-1.2-7.5-1.4-9.5c-0.4-4.7-16.6-0.6-7,2.3
		c-3.8,4.4-6.3-1.4-6.5,5c-4.4,0.9-8-3.1-12.4-1.7c0,2.1-2.5,5-2.2,6.4c0.9,0,5.3,1.6,6.4,1.4c-1.1,1.9-1.5,4-1.2,6.1
		c5.9-0.7,5.8,0,7.2-4.3c1.6-0.1,4.8,5.1,4.4,6.5c-3.5-2.3-7.5,6.3-10,7c-0.1-8.3-10.3-2.4-10.4,0.6c-0.3,9.7,6.8,3.5,11.1,7.7
		c3.1,3,8.2,2.7,10.4,4.8c8,7.5-3.7,5.5-5.4,6.1c-0.2,1.7,1.6,5.5,3.4,8.4c0.5-1.5,2.8-3.3,4.2-0.6c-0.3,0.3,0.6,4.7,1.5,4.9
		C112.4,46.1,108.8,38.1,109.8,36.9z"/>
	<path fill="#DEEBD2" d="M98.1,27c-2.1,0.7-5.2,6.5-1.1,6.7C99.7,33.8,100.6,27.6,98.1,27z"/>
	<path fill="#DEEBD2" d="M120.4,49.4c0.1,0,0.3,0,0.4,0c0.4-2.6-0.2-12.7-0.8-15.4c-6.5-1.6-8.2,18.5-2.8,16.3c0.2-1.7-0.4-3-1.7-4
		C118.6,45.5,118.2,49,120.4,49.4z"/>
	<path fill="#DEEBD2" d="M124.2,28.1c-2.4-0.1-7.1-1.7-6.9,2.7C119,31.7,123.3,29.4,124.2,28.1z"/>
	<path fill="#DEEBD2" d="M141.8,14.4c0-0.1,0.1-0.2,0.1-0.3c-1.1-0.4-6-1.8-7,0.9C136.9,17.7,140.7,17.3,141.8,14.4z"/>
	<path fill="#DEEBD2" d="M138.9,21.7C139.3,20.8,138.1,23.6,138.9,21.7L138.9,21.7z"/>
	<path fill="#DEEBD2" d="M138.9,21.7c-0.8,1.9,11.1,3.8,11.2,3.8c6.5,1,2.6-5.8,0.4-5.7C149.2,20.2,139.4,20.4,138.9,21.7z"/>
	<path fill="#DEEBD2" d="M150.5,30.8c-0.6-0.2-5.8-0.9-5.8-0.9c-0.6,0.2-0.6,4.9-0.6,5.3C149.3,37,161.6,35.2,150.5,30.8z"/>
	<path fill="#DEEBD2" d="M123.7,2c10-7.8-6.7-16.1-2.1-5.1C121.9-1.2,122.6,0.5,123.7,2z"/>
	<path fill="#DEEBD2" d="M97.6-27.9C98-27.6,97.9-27.7,97.6-27.9c3.2-0.7,4.7,0.6,4.5,3.8c0.3,2.3,0.9,4.4,2,6.4
		c1.6-3.7,2.3-8.4,2.6-12.6c0.4-3.4-8-11-9.7-4.5c5.1,5.3-1,5,0.4,6.7C96.8-28.5,96.1-29.2,97.6-27.9z"/>
	<path fill="#DEEBD2" d="M96.1-10.6C94.2-10.8,99.3-10.3,96.1-10.6L96.1-10.6z"/>
	<path fill="#DEEBD2" d="M96.1-10.6c6.6,0.5,5.9-11,0.3-10.8c-0.3,2.8-1.8,3.3-4.7,1.6C91.9-16.9,89.2-11.2,96.1-10.6z"/>
	<path fill="#DEEBD2" d="M109.8-25.5c-3.6,0.6-1.5,0.3-0.3,0.1c-7.1,1.4,8,6.7,7.6,7c0.9-2.1,1.6-4.3,2-6.5c-2.5-1.1-5.3-1.2-9-0.6
		C110.1-25.5,110.1-25.5,109.8-25.5z"/>
	<path fill="#DEEBD2" d="M109.2-33.1C108.5-33.4,110.2-32.6,109.2-33.1L109.2-33.1z"/>
	<path fill="#DEEBD2" d="M109.2-33.1c0.9,0.4,3.8-0.1,4.5-0.1C112.1-45.5,102.1-36.3,109.2-33.1z"/>
	<path fill="#DEEBD2" d="M142.5-33.3c0.4,0.5,0.7,0.8-0.2-0.3c-1.4-1.6-0.7-0.8,0,0c-1.1-0.8-15.4,1.7-16.2,2.8
		C122.8-26.9,151.3-22.6,142.5-33.3z"/>
	<path fill="#DEEBD2" d="M41.1,15.8c4.5,3.6,7.7-4.7,13.2-3.6c6.4,1.3,6.5-1.1,10,5.2c2.4,4.4,8.1,5.8,9.3,0
		c1.1-5.8,13.1-9.3,11.3-13.2c-3.5-7.7-6.5-16.5-14-10.5c-2.7,2.1-2.6-7.1-2.8-7.7c-6.5-0.9-1.2,5.4-2.7,8.2
		c-0.9,1.7-9.5,4.8-9.5,4.2c-2.1,0.1-1.1-7.8-3.6-10c1.8-1.6,11.9-5.5,11.7-7c-2.3,0.1-8.5-1-10.9-1.6c-1.1-6.1,8.7-5.4,12.1-5.3
		c1.7,0,16.1-4.9,9.7-7.6c-3.7-1.6-13.3-0.6-16.7,1c-6.4,3.1-4.9,2.6-8.5,7.7c-1.4-1.9-2.9-3.8-4.4-5.7c-0.3,2.8,3.8,9.3,5.3,11.5
		c3.5,5.1-0.7,2.2-0.9,6.8c-0.4,14.3-6.5,1.1-9.1,2.3c-3.3,1.6,4.6,7.8-0.9,8.8c-4.1,0.8-0.6,6.5-1.4,9.2c-0.6,2.4-7.5,6.3-3.8,9.1
		C38.8,20.7,38.7,18,41.1,15.8z"/>
	<path fill="#DEEBD2" d="M41.1,15.8C40.4,16.5,42.4,16.9,41.1,15.8L41.1,15.8z"/>
	<path fill="#DEEBD2" d="M46.3-36.5c11.1,4.6,4.8-13.4,4.6-19.4C48.3-54.8,42.6-37,46.3-36.5z"/>
	<path fill="#DEEBD2" d="M310.5,289c0.1-0.5,0-1,0-1.5c0.1-1.1,1.1-2,1.3-3.2c0.2-1.3-0.6-2.6-1.6-3.4c-1.1-0.7-2.4-1-3.7-1.3
		c-1.2-0.3-2.4-0.5-3.7-0.5c-1.3,0-2.6,0.3-3.9,0.5c-5.9,1-12.3,0.8-17.3,4.1c-0.6,0.4-1.3,1.1-1,1.8c0.3,0.7,1.2,0.8,1.5,1.5
		c0.4,1-0.9,2.1-0.5,3.1c0.3,0.6,1.1,0.8,1.8,1c2.4,0.9,3.5,4.3,6,4.3c0-0.7,0.8-1.2,1.5-1.1c0.7,0.1,1.2,0.6,1.7,1
		c0.6,0.6,1.2,1.1,1.8,1.7c2.9-0.9,5.7,1.2,8.4,2.4c0.8,0.4,1.7,0.6,2.5,0.2c1-0.5,1.2-1.8,0.8-2.9s-1.1-1.9-1.7-2.8
		c-0.9-1.6-1.3-3.4-1.1-5.2c-0.7,0.2-1.2-0.8-0.9-1.4c0.3-0.6,1-0.9,1.7-1.1c1.1-0.4,2.7-0.5,3.2,0.5c0.5,1.2-0.8,2.3-1.9,2.9
		c0.1,0.3,0.2,0.6,0.2,0.9c0.9,0.2,1.9,0.3,2.8,0.1C309.4,290.6,310.3,289.9,310.5,289z"/>
	<path fill="#DEEBD2" d="M313.5,298c-0.9,0.1-1.8-0.1-2.6-0.5c-0.4-0.2-0.7-0.5-1.2-0.4c-0.4,0-0.8,0.4-0.9,0.9
		c-0.1,0.4,0,0.9,0.1,1.3c0.2,1.1,0.5,2.3,1.4,3c0.3,0.2,0.7,0.4,1,0.4c0.5,0,0.9-0.4,1.3-0.8c0.6-0.7,1.2-1.4,1.8-2.2
		c0.3-0.4,0.6-1,0.2-1.4C314.3,297.9,313.8,298,313.5,298z"/>
	<path fill="#DEEBD2" d="M200.9,273.8c-0.8-0.4-1.8-0.4-2.6-0.6c-0.9-0.1-1.9-0.4-2.4-1.1c-0.2-0.3-0.3-0.6-0.6-0.9
		c-0.2-0.3,0-0.7,0.4-0.9c0.3-0.2,0.7-0.3,1-0.5c0.6-0.6,0-1.7-0.8-1.9c-0.8-0.2-1.6,0.3-2.2,0.8c-0.5,0.5-1,1-1.4,1.6
		c-0.5,0.7-0.8,1.7-0.5,2.5c0.7,1.4,2.9,1.2,4,2.2c0.4,0.3,0.7,0.8,1.1,1c0.3,0.1,0.6,0.1,0.9,0.1c1.4,0,2.8,0,4.2-0.2
		C202.4,275.1,201.7,274.2,200.9,273.8z"/>
</g>
<g id="state-lines">
	<polygon opacity="0.5" fill="#D8D2D2" enable-background="new    " points="319.7,-107.6 319.7,-100.2 322.5,-100.2 322.5,-100.9 
		320.4,-100.9 320.4,-108 317.5,-109.6 317.5,-111.5 296.1,-117.9 293.2,-120.8 292.7,-120.3 295.7,-117.3 316.8,-110.9 
		316.8,-109.2 	"/>
	<path opacity="0.5" fill="#D8D2D2" enable-background="new    " d="M415.6-12.7h-12.1v-13.5h0.7V-27h-0.7v-22h-0.7v22h-0.4l0.3,4.8
		l-2.6,10.3l-7.7,2.8l-1.9,6.7l-3.6-2l-1.8,7L380.3,5l-1.9-4.5l-11.1,2.2l-4.5-3l-3.2-3.2h-5v-39.1H368v-0.7h-13.5l0,0h-0.7l0,0
		h-20.6v0.7h20.6V1.5h-6.1l0.9,3.1l-7.6,7l-3.5-2.3l-3.2,4.5l-2.1-2l-3.4,3.3l-6.2-3.5v2.5l-3.5-1.4l-1.1,2l0.6-6.2l6.1-7l-1.4-6.8
		l1.4-37.5H324l-1.4,37.5v0.1l1.3,6.5l-6,6.9l-1.1,10.9l-4.3,1.3V25l-5.5-2.1l-1.7,3.8l0.6,0.3l1.4-3.3l5.8,2.2v-5.1l4.3-1.2
		l0.3-3.2l1.6-2.9l3.8,1.5v-2.3l5.5,3.1l3.3-3.2l2.2,2.1l3.3-4.6l3.4,2.2l8.4-7.6l-0.8-2.6h5.9v-5h4.8l3,3.1l4.9,3.2L378,1.3l2,4.8
		l0.8-0.4l0.8,7.5l5.3,5.8l-12.6,11.8l0.5,0.5l12.6-11.8l3.8,4.2l17.6-5l6.2-15.2l3.9,3.1l2.6-5.7h2.8l3.7-3.7l1.5-5l5.9,3.3
		l1.4-1.8l9,7.5l0.4-0.6l-9.5-8l-0.1,0.1l-1-4.5l-4.3-0.1l-3.1,1.2l-4.2-1.3l-7.6,5.3v-5.3h42.6v-0.7h-42.6h-0.5V-12.7z M424.1-11.2
		l4.1,1.2l3.2-1.3l3.6,0.1l1,4.4l0.2-0.1l-0.9,1.3L429.2-9l-1.7,5.7l-3.4,3.4H421l-2.5,5.3l-4-3.1L408.2,18l-16.8,4.8l-9-10
		l-0.8-7.5l4.3-2.1l1.6-6.5l3.6,1.9l2.1-7.2l7.7-2.8l2-8.2v7.5h12.8v6.8L424.1-11.2z"/>
	<path opacity="0.5" fill="#D8D2D2" enable-background="new    " d="M317.2,31.3l1.1,2.1h-15.9l3.1-1.8v-4.7l-3.8-4.1l-0.9-6.8
		l-9-7.7l2.8-9l-6.3-0.9l-0.6-5.4l-6.8-6.8l-1.1-10.2l-0.1-0.1l6-9.5l-0.7-5.7l7.5-2.8l0.9-4.1v-4.5l-4.3-4.8h28.4v-0.7h-29.1
		l-4.1-4.6l-5-18.8v-0.1l-14.6-12.6l1.5-12l-2.7-3.8l6.3-6.3l0.8-5.3l-0.7-0.1l-0.8,5.1l-6.5,6.5l2.9,4.1L264-91.8l14.7,12.7
		l4.9,18.7v0.1l8.9,10.1v4.1l-0.8,3.7l-7.7,2.8l0.7,6l-5.8,9.2l-2.9-2.5H231l-8.7-28.9V-56l-1.2-0.9l-0.6-2.9l2.5-4.8l-2.3-6.4h60
		v-0.7h-59V-101l-4.1-5.5l1.5-3.7h0.4v-0.7h-0.1l1.7-4.1l0.1-0.1l-8.1-47.6h23.8l0.7-7.2l2.1,2.7l5.3,8l7,1.8l3.6,3.6l7.7-3.3
		l3.6,1.1l-2.8,1.6l4.3,5l5-3.1l5.2,6.3l6.3-5.2l5.2,4.3l10.6,0.8l14.8-5.1l39.4,21.5l4.5,9.3l3.3-1.3l1.3,5.8l5,1.8v5.6l12.6,7.5
		l5.5,27.5l-5.8,16.8l-7.3,3.9v3.2c0.2-0.1,0.4-0.1,0.7-0.1v-2.6l7.2-3.9l5.9-17.2v-0.1l-5.5-27.8v-0.1l-12.4-7.4v-5.8l-5.2-1.8
		l-1.4-6.3l-3.4,1.4l-4.3-9L315.4-152l-0.1-0.1l-15,5.2l-10.2-0.8l-5.5-4.5l-6.1,5.1l-5.1-6.2l-5,3.1l-3.3-3.9l3.5-2l-5.4-1.7
		l-7.5,3.2l-3.3-3.4l-6.9-1.8l-5.1-7.9l-3.3-4.1l-0.8,8.4h-23.2l-0.1-0.8l-0.7,0.1l0.1,0.6h-78v-0.7h-0.7v0.7H-3v-0.7h-0.7v0.7
		h-11.4v-0.7h-0.7v0.7h-64v0.7h64v44.4l2.6,5.7l0.4,0.4h-22.8l-18.7,5.8l-14.6-1.3l-6,1.8l-3.4-1.6l-1.6-5.3
		c-0.4-0.8-1.8-3.5-2.4-3.8c-0.6-0.4-4.6,0-7,0.3l0.1,0.7c2.9-0.4,6.1-0.6,6.5-0.4c0.3,0.2,1.4,2.1,2.1,3.6l1.7,5.5l3.9,1.9l6.1-1.8
		l14.6,1.3l18.7-5.9h23.5l0,0l4.7,5.2l-9.2,19.5l4.2,4l-2,34.3l0.7,0.1l2-34.6l-4.1-3.8l9.1-19.3l-5.9-6.5l-2.5-5.4v-44.4h11.4v17.9
		l4.3,3.7v4.9l4.9,2l6,10.2l5.4,1.1l-3,17.6l3.5,2.9l3.8-5l5.7,13.6l3.8,1.6l3.3,7.5l6.3-3.3h13.7v39.8H-94v0.7h44.8v44.2l59.5,55.6
		l0.2-0.3v2.9l8.1,9.7l-3.8,5v5.7l-4.1,6.2l0.4,5l-25.4,3.1l0.1,0.7l27.8-3.4l-2.6,3.9l43.7,17.9h32.5v-9.2h19l17.6,14.4l5.8,11.9
		l12.2,8.4l6-2.1l2.1-7.7l8.3,0.5l13,8.6c3.4,6.3,9.7,18.3,10,18.7c0.1,0.1,0.1,0.3,4.8,3.8v8.5l9.2,8.4l16.4,4.9l0.2-0.7l-16.3-4.9
		l-8.9-8v-8.5l-0.1-0.1c-1.7-1.2-4.4-3.3-4.7-3.6c-0.5-1.1-7.1-13.4-10-18.8l-0.1-0.1l-13.4-9l-9-0.5l-2.2,8l-5.4,1.8l-11.7-8.1
		l-5.7-11.8l-17.9-14.8h-2.3v-0.7h41.2V27h97.4v9.3l2.1,11.1v27.2l-9-4l-12.8,2.8l-7.4-3.8l-2.9,2V70l-8.2-0.4l-1.7-2.3l-4.7,1.1
		l-6.1-1.1l-3.4-5.6l-5.2,1.9l-3.3-3.3V34.8h-34.1v0.7h33.4v25.1l3.8,3.8l5.1-1.8L192,68l6.6,1.1l4.4-1.1l1.7,2.3l7.8,0.4V73
		l3.7-2.5l7.2,3.8l12.8-2.8l9.7,4.3l0.3-0.6l3.3,0.9v20.8l6.6,13.1l-5.1,18.1l0.7,0.2l5.3-18.3l-6.6-13.1V83.8h31.8l2.3,5.2
		l-2.8,0.6l4.3,3.3l-7.5,7.7l-2,10.9h23.5l-2.1,4.3l1.9,4.2l0.6-0.3l-1.8-3.8l2.4-5h-23.7l1.8-10l7.6-8.1l-3.7-2.8l2.1-0.4l-2.6-5.9
		l1.4-6.3h-1.5l-1.4-3.8l1.7-0.2v-4.8l6.4-6v-3.6l3.3-0.9l-0.1-0.7l-3.9,1v3.9l-6.4,6V73l-2,0.2l1.8,5h1.1l-1.1,5H250v-7.7l-4.3-1.1
		v-27l-2.1-11.1v-2.1h50.2l1.3,3.6L292,42h7.3l0.6,1.1l-6.3,7.5l-1.4,5.7h23.9l-2.1,58.6h0.7l2.1-58.6h29.8l4.3,29.6l3.6,7.2
		l-3.8,6.8l3.2,11.2h-31l1.3,6.8l0.7-0.1l-1.1-6h30.1V111l0.8,2.7l29.7,2.5l1.4,3.9l3.6-5.7h1.5v-0.7H389l-3.1,4.8l-1.1-3l-29.6-2.5
		l-3.8-13.3l3.9-6.8l-3.6-7.4l-4.3-29.4h26.2l-1.7,3.1l6.2,4.8l3.8,7l10.7,10.7l5.4,13.7l0.6-0.3l-5.5-13.8l-10.8-10.8l-3.8-7
		l-5.8-4.5l1.6-3h0.9l8.1-3.7l15,1.1l3.8,4.1h10.7l12.9,12.7l0.5-0.5l-13.1-12.9h-10.7l-3.7-4.1l-15.4-1.1h-0.1l-8,3.8h-0.4l0.1-0.2
		l-0.6-0.4l-0.3,0.5h-12.9v-3.9l4.6-3.1l10.9-4.2l3.5-4.4l3,1.4l8-4.1v-5.2h63.3V31H317.2V31.3z M134.2-162.7h78.2l8,47.5l-1.8,4.3
		h-84.4V-162.7z M134.2-110.1h84.1l-1.6,3.8l4.1,5.5v29h-1.2l2.6,7.1l-2.5,4.8l0.5,2.3l-6-4.5l-0.1-0.1l-9.1,1.7l-6.2-2.6h-64.7
		V-110.1z M40.1-88.8l-5.8,3.1l-3.1-7l-3.7-1.6l-6-14.5l-4.1,5.3l-2.6-2.2l3-17.8l-5.8-1.1l-6-10.1l-4.7-1.9v-4.7L-3-145v-17.7
		h136.5v66.8H53.9v7.1H40.1z M10.5,51.5l-59-55.2v-43.9H19v88.8h-8.5V51.5z M75.9,108.1H55L12.1,90.5l3-4.5l-3.3,0.4l-0.4-4.8
		l4.1-6.2v-5.7l4-5.2l-8.2-10V42.1h8.5V27.1h56.1L75.9,108.1z M75.9,26.3H19.8v-73.9h34.1v14.9h22V26.3z M54.6-33.4v-61.8h78.9v61.8
		H54.6z M144.8,97.4h-41.2v1.4H86.6v9.2h-10v-81h68.2V97.4z M156.2-31.9v58.3H76.6v-59h57.6v-29.9h64.6l6.3,2.7l9-1.7l7.7,6
		l11.4,37.8h-76.3v-14.9h-22.7v0.7H156.2z M156.9,26.3V-17h77.3l-0.2-0.7l5,1.6l1.3,2.3l-2.8,2.7l5.5,7.4v30.1H156.9z M298.9,41.1
		L298.9,41.1L298.9,41.1l-0.1,0.2h-5.4l2.5-3.5l-1.6-4.3h-50.7V-4l-5.3-7.1l2.8-2.6l-1.7-3.1l-5.3-1.6l-0.2,0.6l-2.6-8.5H276
		l3.2,2.8l1.1,10.2l6.8,6.8l0.6,5.7l6,0.8l-2.6,8.6l9,7.8l0.9,6.8l3.8,4.1v4l-3.8,2.3L298.9,41.1z M390,36.8l-7.2,3.8l-3.1-1.5
		l-3.7,4.7l-10.7,4.1l-5,3.3v4.3h-43.4v-0.4h-0.7v0.4h-23l1.1-4.6l6.5-7.7l-1.1-2.1l1.9-7l0.4-0.2v0.4h17.6l-1.1-2.1H390V36.8z"/>
	<path opacity="0.5" fill="#D8D2D2" enable-background="new    " d="M466.1-33.2l4.6-4.9l0.1,0.1c0.1-0.2,0.1-0.5,0.2-0.7l-1.7-1.1
		l-1.6-5.5l-4.3-3h-51.4v-5.3c-0.2,0.1-0.4,0.3-0.7,0.4v5.6h51.7l3.9,2.7l1.6,5.5l1.4,0.9l-4.7,5v7.4l4.8,5.5l-6.9,3.8l0.4,0.6
		l7.5-4.3l-5-5.9L466.1-33.2L466.1-33.2z"/>
	<path opacity="0.5" fill="#D8D2D2" enable-background="new    " d="M553.4-101.3l1.6-4.3l-5-3.2v-21.7l-4.3-4.9l-6.5,2.1l-5.3-4.3
		l-13,19.6v6.8l-7.1,6.6v2.9l-3.3-0.9l-0.1,0.2c0,0-1.4,2.3-2.9,4.4c-1.4,2-2.8,2-2.9,2H472l-7,3.5l-10.3,8.4l-4.3,8.7
		c0,0.3,0,0.6,0,0.9h0.4l4.5-9l10.2-8.2l6.9-3.3h32.2c0.1,0,1,0,2.1-0.9v7l-5.9,3.9l-4.6,26.2h-8.8l0.1-0.5l1.1-14.1l-2.2-1.1
		l-2.8-20.9h-0.7l2.8,21.4l2.2,1.1l-1.1,13.6l-2.8,10.5v11.8l-2.8,1.6v2.3h0.7v-1.9l2.8-1.6v-10.7h24.7l4.4,3l0.4-0.6l-4.5-3.1h-25
		v-0.6l2.5-9.3h23.8v-0.7h-14.1l4.5-25.7l6-3.9v-8h-0.1c0.2-0.2,0.5-0.5,0.7-0.9c1.2-1.8,2.4-3.6,2.8-4.3l0.9,0.2v30.6l2.5,4.3
		l0.6-0.4l-2.4-4.1v-30.2l2.1,0.6v-3.5l7.1-6.6v-7l12.5-18.8l5,4.1l6.5-2.1l3.8,4.3v21.7l4.9,3.1l-1.6,4.3l5.3,4.8l0.5-0.5
		L553.4-101.3z"/>
</g>
<g id="marker">
	<path id="pin_1_" fill="#B9252D" d="M218.1,42.6c0.7-1.1,1.1-2.5,1.1-3.9c0-4.1-3.3-7.4-7.4-7.4s-7.4,3.3-7.4,7.4
		c0,1.6,0.5,3,1.3,4.1l6.1,7.4L218.1,42.6z"/>
</g>
<g id="marker_1_">
	<path id="pin_2_" fill="#B9252D" d="M203.4,89c0.7-1.1,1.1-2.5,1.1-3.9c0-4.1-3.3-7.4-7.4-7.4c-4.1,0-7.4,3.3-7.4,7.4
		c0,1.6,0.5,3,1.3,4.1l6.1,7.4L203.4,89z"/>
</g>
<g id="marker_2_">
	<path id="pin_3_" fill="#B9252D" d="M214,8.1c0.7-1.1,1.1-2.5,1.1-3.9c0-4.1-3.3-7.4-7.4-7.4c-4.1,0-7.4,3.3-7.4,7.4
		c0,1.6,0.5,3,1.3,4.1l6.1,7.4L214,8.1z"/>
</g>
<g id="marker_5_">
	<path id="pin_6_" fill="#B9252D" d="M406.2,154.8c0.7-1.1,1.1-2.5,1.1-3.9c0-4.1-3.3-7.4-7.4-7.4c-4.1,0-7.4,3.3-7.4,7.4
		c0,1.6,0.5,3,1.3,4.1l6.1,7.4L406.2,154.8z"/>
</g>
<g id="marker_4_">
	<path id="pin_5_" fill="#B9252D" d="M479.9-54c0.7-1.1,1.1-2.5,1.1-3.9c0-4.1-3.3-7.4-7.4-7.4c-4.1,0-7.4,3.3-7.4,7.4
		c0,1.6,0.5,3,1.3,4.1l6.1,7.4L479.9-54z"/>
</g>
<g id="marker_3_">
	<path id="pin_4_" fill="#B9252D" d="M343.6,38.7c0.7-1.1,1.1-2.5,1.1-3.9c0-4.1-3.3-7.4-7.4-7.4s-7.4,3.3-7.4,7.4
		c0,1.6,0.5,3,1.3,4.1l6.1,7.4L343.6,38.7z"/>
</g>
<g id="marker_6_">
	<path id="pin_7_" fill="#B9252D" d="M112.8,47.8c0.7-1.1,1.1-2.5,1.1-3.9c0-4.1-3.3-7.4-7.4-7.4s-7.4,3.3-7.4,7.4
		c0,1.6,0.5,3,1.3,4.1l6.1,7.4L112.8,47.8z"/>
</g>
<g id="water">
	<path fill="#A2DDF5" d="M154.2,254.5c-0.8-0.5-1.3-1.3-2-1.9c-0.7-0.7-1.6-1.2-2.5-0.9c-0.2,0.5-0.5,1.1-0.7,1.6
		c-1.2,0.3-2.4,0.7-3.5,1.2c-0.8,0.4-1.7,1.1-1.4,1.9c0.2,0.6,1,0.8,1.7,0.9c3.4,0.5,6.9,1,10.3,1.5c1,0.1,2,0.3,2.9-0.1
		s1.6-1.4,1.3-2.3C159.1,254.5,156.1,255.6,154.2,254.5z"/>
	<path fill="#A2DDF5" d="M179.1,253.8c-0.7-0.2-1.4-0.1-2-0.3c-0.6-0.2-1.1-1.1-0.7-1.6c-0.1-0.6-1.2-0.5-1.6,0
		c-0.4,0.5-0.6,1.2-1.2,1.5c-0.4,0.2-0.9,0.2-1.3,0.4c-0.4,0.2-0.7,0.8-0.3,1.1c2.7,0.2,5.3,0.4,8,0.5
		C180.3,254.7,179.7,254,179.1,253.8z"/>
</g>
</svg>
