<svg xmlns="http://www.w3.org/2000/svg" viewBox="-345 -185 965 496" enable-background="new -345 -185 965 496"><path fill="#A2DDF5" d="M-349-185.5h969.3V311H-349z"/><g fill="#F6F0EF"><path d="M599.2-177.7c-6.8-2-15.2-11.4-22.8-8h1c-1.7.9-3.9-1.8-5.3-.9-1.7 1.1 2.9 4.8 3.9 5.9 4.1 4.6 7.1 5.7 13 6.7 6.7 1 13 5.1 20.1 4.7.4-5.3-5.7-7.2-9.9-8.4zM-279.6-202.3c4.7 6.2 13.8 3.1 17.7 8.2 2 2.5 1.9 5.7 3.8 8.4.9 1.4 6.1 4.6 2.6 6.2 1.6 1.3 4.3 4.6 6.7 2.9 2.3 2.3 2 3.8 5.3 4.9 3.9 1.3 4.7.9 5.1 5.6.3 2.6.7 8.7 4.5 8 1.2 11.8-9.6 1.4-14.4-.6-1.7-.7-3.5-.4-5.2-1.2-2.1-.9-2.8-3-4.9-3.7.9-2.1 5.9-5.1 5.4-7.5-1.2-5.1-3.8 3.2-4 3.3-2.3 2-3.4-.7-5-.6-2.7.2-1.9 1.3-4.2 2.1-2.1-2.5-1.9-2.6-1.7-4.9.1-1.1 2.3-1.2 1-3.3-.4-.7-6-2.5-6.8-2.8-1.8-.7-2.1.2-3.2-1 0 0-1-3.3-1.1-3.4-.9-2.9.1-2.4-2.8-3.7-1.8-.8-2.7-2-4.6 1-3.3-.9-1.4-3.8-1.5-6-1.8.3-3.3-1-5-1.5-2.6-.7-3.3.3-4.8-2.5-1.4-2.7-3.7-7.5-3.5-10.6l20.6 2.7zM127.8 314.4c.6-6.1-11.4-50.1-9.5-56.1 1.9-6.2 4.4-12.3 5.6-18.6 1.3-6.7-4.7-8.9-4.3-14.3.3-4.4-3.9-6.7-3.3-10.1 6.2 4.7 10.1-1.2 3.9-4.9-3.4-2 2.2-2.8 3.2-2.7 3.3.2 1.4-7.8 6.4-6.7 3.6.8 2-3.8 2.4-5.1.9-2.5 8.5 1.3 10.6.3 3.9-1.9 6.3-4.4 9.1-7.6 4.6-5-1.5-4.7.7-9.5 2.6 1.8 5.7-3.2 7.5-1.9.5 1.3.4 2.7-.3 4.1 2.8 0 6.8.3 8.5-2.6.9-1.5 1.5-4.3 4-3-1 1.8-1.9 3.7-2.8 5.6 8.1.3 16 .6 24.1 1.1-1.3-11.1 9.9-.7 12.8-1.4-.7 3.3.1 8.9 5.5 7.7 2.3-.5 2.8-3.7 5.6-3.1 2.5.5 2.1 3.7 5.3 2.1-.4-2.3-3-3.5-1.7-6.1 1.1-.2 20 10.9 14.9 3.9-1.2-1.5-10.4-2-7.8-5.5.7-.9 3.8-7.8.3-4.8-3.8 3.3-4.2-.7-8.3-.9-3.8-.2-.5-6.2 2.9-4 5.7 3.6 6.9-.8 12.4-1.6 3-.4 6.2 1.4 9-.4 1.9-1.1 2.6-3.6 4.6-4.8 4.7-2.8 5.4 7.6 9.1 5.3 4.2-2.5 3.6-2 7.8-1.2 6.7 1.3 10.5-1.7 17.3 2.9.8.5 4.8 8.2 4.1 8 11.4.7 18.3-13 27 0 2.7 4.1 7.2 7.6 9.4 12 3.7 7.1-2.2 12.2-1 18.5.2 0 7.9-9.1 5.3-.6-1 3.4-3.9 13.3 1.7 14.5-.4-2.7 1.1-3.2 4.6-1.7-1.9 2.1-2.3 4.5-1.4 7.1 0 .1 2.9-6.2 3.8-3.9.7 1.8-.8 6.6-.4 8.8.5 3.6 5.7 6.6 7.6 9.9 1.6 2.8 2.1 4.6 5.7 5 8.2 1 7.8-3.1 7-9.5-.8-5.6 2.6-10 2.6-15.3-.1-3.9-4.6-3.8-2.7-7 1.3-2.3-2.5-6.8-3.6-8.5-2.9-4.5-2.3-10.1-3.9-15.1.7-.1 1.4 0 2.1.3-.8-2.5-3.3-4.1-4.6-6.3-2.4-4.2-2.9-8.4-3.8-13-.8-4-1.7-7.9-1.8-12-.1-2.5.3-5 1.3-7.3-2.1-.8-2.5-2.1-1.3-3.8 2.7-3.8 4.3-5.8 7.4-8.6 3.1-2.8-.9-4-.2-7.1.6-2.5 3.3 0 3 1.7 2.3-1.8-.7-3 2.8-3.1 1.6 0 6.6-.3 5.4-3.2 6 3 12.4-12.4 15-14.8 4.9-4.6 8.8-3 13.7-5.3 3.9-1.9 6.1-10 6.1-13.4 2.1.2 2.4 4.1 5 1.9 2.6-2.3 7.6-.1 9.2-3.9-5.3-2.2-4.5-.1-7.5-5.7 1.9-.2 5.2 6.7 5.5 1 .3-4.9-5.3-1.7-6-5.8-.6-3.4 6.5 2.1 7.6-.2.4.9.4 1.8 0 2.7 4.4-2.1 10.9.3 9.9-8.5-2.1.4-2.1 2.8-4.5 2.7-.8-1.4-.7-2.8.2-4.2-1.2-.3-16.3.8-9.1-6.4-.2-.1 5.7 9.5 5 2.5 2.2 3.3 2 .1 4.9.8 3.9.9-.7-5.5-.7-6.4 4.2 1.1 2.7-5.8-2.1-6-2.3 0-13.7-7.9-13.8-7.8 5.3-3.1 7.9 4.8 12.2 5.2.5-3.8-5.1-4.6-6-7.8.5.2 10.6 5.9 5.7.5-2.9-3.2-5.8-7.6-9-10.4 3.9-2.4 8.1 5.1 10.3 7.1 2.8-7.9-15.1-7.3-12.6-15 1-3 8.3 5.6 12.3 5.4.5-2.4-1.7-6.1-4.2-6.4-.1-2.6-.6-5.2-.5-7.8.2-3.3 6.5-9.9 10-9.6.7 7.2-5.4 15.9 3.2 21.5 3.9 2.5-2.5 14.9-3.4 17.8 6.5-.4 9.6-20.3 12-24.8-5-4-13-23.4 0-21.9-1.3 2.3-5.9 4.2-5.3 7.3.6 3.2 4.6 7.4 7.5 8.6 3.2 1.3 10.2-13.5 10.7-16.9.3-1.9.6-6.4-2.6-5.9-.9-5 7.1-5.3 10.6-6.3 3.7-1.2 17.8-.5 18.5-5.7-6.5-2.6-25.8 12.7-24.8-3.2 2.7.2.9 5.3 4.1 4.3 4.9-1.5 9.1-4.2 14.6-5.4l11.4-2.7c1.8-.1 2.9-1 3.5-2.6 1.2-4 1.6-2.2 5.6-2.7-3.6 6.8 4.6-.4 4.7-.4 1.8 5.3.5 3 5 2 2.7-.6 9.5-5.2 3.3-7-3.1 15.3-6.6-5-9-4.8-6.1.4-.4-4.9-1.3-9.1-1.5-7 5.6-10.4 9.3-15.2 1.4-1.9.1-4.6 2.3-6.5 1.3-1.1 6.8-6 5.9-1 7.1 2.1 7.2-9.7 10.7-10.9 0 0 4.6 9.2 5.6.9 5.1 2.3 5.6-1.2 11.5-3.7 6.8-3 5.3-1 5.1-8-.2-6.5 3.5-1.7 7-1 6.9.7 5.5-5.9 9.3-5.9 1 1.9-1.8 5.3 2.5 3.8 2.3-.8 4.4-2.5 6.4-3.9 5.8-4.4 7.9-5.2 8.5-12.4 3.1.3 2.3 8.2 6.3 5.1.2 3.9-9.5 8.3-4.6 9.2 2.9.6 15.4-4.3 15.9.8-2.7.5-5.3 1.1-8 1.9-4.2.4-4.9 2-2.1 4.8-2 .3-5-3.1-2.9-4.9-3.7-.6-14.5 7.4-17.2 10.2 5.1-1.7-5.8 6.1-6.9 8.5-2 4.5 2.6 11 2.6 8.4 2 .4 4.4 10 7.6 4.9 1.2-1.9 2.5-8.9 4.7-3.5 2.9-4.6 6.6-6.5 9.2-11.7 1.8-2.8 1.1-5.5 5.7-5.7-.9 3.5 4 2.8 6.4 4.2.5-2.7-.7-4-2.7-5.4 1.2-1.1 4.1 1.2 6.3.8 3.8-.8 7.4-2.5 10.7-4.4 3.9-2.3 16.7-3.7 18.9-6.9-1.7-.7-3.5-1-5.4-1 6.3-4.9-6.2-6.9-6.1-9.2-5 3.2-6.5 3.8-12.1 4.1-.1-.9.2-1.6.9-2.1-3.7-2.8-6 1.4-9.4.2-3.6-1.3-7.2-4.1-9.8-6.8 1.2-.8 2.5-1 3.9-.8.1-3.6-9.4-2.1-12.1-4.2 1.8-2-.8-5.7-1.7-7.5-2-3.6 0-4.3-.8-7.7-4.8-.2-7.7-.8-3.1-5.1 2.6-2.4 4.5-7.8 4.9-11.2-5.3-2.5-10.3 9.7-12.8 3-1.9-5.3-15.3-4.1-15.3-4.6-.4-4.7 11.3-2.2 12.1-6.8 6.7 2.3 9.2 8.9 15.4-.2 2-2.9 6-1.2 8.2-4.1 2.2-2.8-4.3-4.6-5.2-6.4l5.7.3c-5.6-3.1-6.1-8-13.3-9-7.6-1-15.6 2.1-22.6 4.7-16.2 5.9-28.8 15.9-40.2 28.6-5.1 5.7-10 11.6-16.5 15.9-6.2 4.1-13.3 6.3-19.3 10.7-8.7 6.4-19.4 26.5-31.8 24.9 5.1-5.9 8.1-10.7 13.7-16.1 8.5-8.1 18.4-12.7 28.3-18.8 8.8-5.4 14.8-14 21.9-21.3 10.2-10.3-9.7-5.7-12.1-9.6-.6-1 10.5-2.2 12-1.6 3.1 1.2 6 5.7 7.9.3 1.5-4.3 4.1-6.5 7.3-9.6 2.4-2.3 4.3-5.1 6.9-7.2 3.9-3.3 8.5-1.4 12.4-4.1 6.5-4.5 4.1-14.5 13.7-16.5 19.5-4 41.8-6 61.6-3 9.5 1.4 37 6.2 35.5-11.2l-282.7.6c-157.3.3-314.6.7-471.9 1l-140.9.3c.5 2.2.9 4.4 1.1 6.7 1.7-.7 3.5-1 5.3-.9.9 4.5-4.9 7.3-.4 12.3 5.2 6 5.6-7.1 9.1-6.2 1.3.3-.1 9.1-.7 9.8-2.2 2.6 3.8 2.6 3.4 5.6 3.1-.1 3.7-6 6.4-7.2.8 3-.9 5.9-.1 8.9 1.2-1.2 2.5-2.2 3.9-3.1 1 2.2-1.8 4.4-2.5 6.2-1.3 3.4 5.3 3.6 6.4 6.5 2.6 6.3.6 10.5 5.4 15.3 2 2-1.3 4-2.3 5.1-2.2 2.3.1 5.3 1.1 7.5 1.9 4.4-2.9 11.1-8.5 8.5 2.9-5.2 1.8-3.2-2.4-3.7.5-3 .3-6.6 2.4-9.1 1.4-1.7 4.4-3.5 4-6.1-7.1 1.6-12.6-1.3-18.9-3.8-7.4-3-8.4-2.4-5.6 4.2 1.3 3 1.9 6.8 2.4 9.9.8 4.9 4 6 5.5 9.9 1 2.9-3 4.3 1.8 7.6-4.8-3.6-3.2 4.6-1.2 6.2 2.1 1.7 6.7.7 7.8 3.8-8.7 1.3-9-1.7-9.9 7.5-1.1 8.2-1.4 18-1.1 26.4.2 2.9 2.1 7.7-.1 10.2-1.5 1.7 1.3 3.8-.1 6.5-4.9 9.9-9.6 16.1-2.7 27.2 3.8 6 3.5 14.3 2 21.2-.7 3.2-4.9 4.5-3.9 8.6.9 3.6 4.7 5.9 6.7 8.9 5 7.2 2.6 17.2 6.7 25 1.5 2.9 11.1 9.4 11.1 12-.8-6.9 10.9-8.4 15.2-5.7 5.2 3.3-8.7 4-10.2 4.6 1 2.9 3.2 5.6 3.6 8.7-8.1-10.6-13.1 2.1-5 5.7 1.8.8 9.7-.5 7 4-4 6.7 1.6 6.8 5.3 11.6 3.5 4.6 7.3 10.2 9.8 15.4 2.5 5.1 2 11.5 9 12.3 7.4 1 7.4-1.4 13 4.2 2.9 2.9 9.8.7 9.2 6.6 8.8-5.2 21.6 24.5 23.9 29.8 2.6 6.2 6 12 8.5 18.2 2.4 5.2 3.8 14.8 8.6 18.1 6 4.2 8.3 7.3 12 13.5 1.7 2.9 4.3 3.7 6.5 6.1 2.9 3.1-.3 3.1-1 5.3-.9 2.6 6 7.8.7 7-2.2-.3-10.7-5.7-12.1-1.9-.2.5 8.6 8.5 9.5 8.7 3.5 1 4.2 4.1 7.3 5.4 3.1 1.2 7.2-1.5 9.7-2.8-.2 6.7 5 8.9 9.5 12.5 7.2 5.7.6 13.2 3.9 19.7 2.6 5 10.9 9.1 15 12.9 2.8 2.5 4.3 6.2 7.5 8.2 4.2 2.6 3.7 4.5 6.4 8.2 8-5 5-15.8-3.2-19.2.5 3.7-1.9 4-4.2 1.8-3.6-3.6-1.4-8.6-3.7-12.8-4.7-8.8-6.3-22.4-14.1-28.7.7 1.5.8 3.1.3 4.6-2.7-.5-12.6-19.4-13.5-21.9-1.5-4.1-1.5-7.9-5.4-10.5-1.3 0-4.4-4-4.8-4.8-3.3-8-13.1-9.8-13.9-18.4-.5-4.9-1.3-9.3-4-13.4-1.1-1.7-4.1-13.8-3.9-15.7 2.4.4 9.3 9.7 11 4.4 1.2-3.6 10 5.6 12.2 5.8 2 .2 6.4 8.2 6.5 10.5.1 5.6 4.5 13.9 8.2 18 3.9 4.2 3.9 11.8 7.6 16.7 2.6 3.3 6.1 5.7 9.3 8.4 2.4-2.4 4.4-1.7 6.9.8 1.2 1.1.6 4.3 1.5 5.9 1.7 2.8 5.1 4 6.7 6.8 2.2 3.7 2.7 1.7 6.8 3 4.8 1.5 4 5.8 6.4 9.1-3.1-4.4-6.4 4.4-5 7.6.6 1.3 5.3 2.5 7.1 4.1 2.1 2 5.1 2.2 7.5 3.7 3 2 1.2 3.7 2.7 6.3 2.5 4.7 8.2 28.2 11.8 32.3 4.8 5.4 18 30.7 25.4 30.5 6.9-.1 13.9-.3 20.8-.4 31.9-.8 63.2-1.4 94.4-2zM166.9-170c-1.9 1.7-4.5-.4-5.2-2.1-2.4 1.9-1.4 11.4-7.3 8-4.4-2.5-4.7-6.8.3-7.3 8.2-.9-1.7-4.8-2-5.2-2.3-2.6-.6-5.4 1.9-6.5 3.5-1.5 1.2-3.3 1.5-6.2 1.7.2 13 17.4 10.8 19.3-1.9 1.6 2.1-1.8 0 0zM307.3-59.6c-2.7-2.5 3.4-9.2 4.7-11 4-5.7 3.5-6 1.3-11.9-1.7-5-1.3-7.4-5.9-9.4-5.1-2.2-11.8-8.4-17.8-3.4 1.3.5 2.6 1 3.9 1.4-1.9 1.5-3.9 3.1-5.7 4.6-2.1 2.7-1.2 5.9-2.2 8.9-3.8-.1-3.3-4.4-3.8-6.9-8.6 2.6-9.2 21.7-9.1 28.6.1 5.3 3.7 9.2 3.8 14.3.1 6-3.3 16.3-8.6 19.9-11.9 8-17.8-12.6-18-20.3-.3-15.2 11.6-28.1 11.4-43.4-3 3-3 8.2-6.1 11.3-5 5-5.1-3-3.6-6.1 2.9-6 8.1-25 17.4-17.8 3.6 2.8 11.6-3.3 15.3-4.1 3.4-.7 6.2.7 8.7 2.9.6-1.9 2.9-2.1 4.5-2.1 5.2 0 10.2 2 15.1 3.2 5.4 1.3 11.9-1.4 16.9 1.5 1.7 1 3.1 3.5 4.8 4.3 4.9 2.2 3.1-5 1.7-6.5-.2-.3-5.8-2.9-6.5-3-4.7-.9-11.5 1-16.8.3-4.4-.7-8.8-2-12.9-3.5-2.3-.9-9.8-3.2-9.2-6.9-6.6-2.8-12.6.9-19 1.9-5 .8-16.1-1.7-18.5-6.8-2.3-4.8-13 4.4-11.8-5.7 3.3-1.3 11.9-1.7 11.1-7.1-8.9-3.6-24.8 11.5-33 14.4-3.4 1.2-11.8 3.8-10.2-2.5-6.1-1-11 5.7-17.1 3.2 3.1-6.3 7-9.9 13-13.6 5.2-3.2 13.5-10.9 19.5-11.7 8.3-1.1 3.2-16.8 15.1-11.1.1-4.8.4-5.2 4.9-5.3 3.4 0 9.2-2.2 2.6-4.3 2.8-4.9 7.4-2.6 10.9 0 4.7 3.5 9.2 2.4 13.6 4.9 3.8 2 3.9 7.8 6.2 11 2.6 3.6 11.7 2.5 15.9 4.3-4.5 3.2 1.5 8.6.7 12.8-1.3 6.8 5.5 3.2 8 7.4-10.4 4.7-3.4 9.5 3.4 12.9 8.6 4.2 19 .2 28.1 1.7 5.5.9 16.9 1.8 19.2 8.1 1.5 4 .6 8.3 4 11.4 3.3 3 8 4.8 8.2 9.9-2.2.2-4-.6-5.4-2.4 3.8 3.9 1.2 7.2-3.6 7.5-7 .5-7.7-5.1-12.5-8.3-6-4-7.1 25.3-8.5 29.7-1.1 3.9-5.3 7.6-9.2 3.9-4.4-4.2-3.7-11.4-6.8-16.3-3.2-4.9-6.2 10.8-12.1 5.2-3.4-3.1 7.7 7.3 0 0zm63.9 18.1c-9.4 8.8-22.5 10.3-33.2 18-5.5 3.9-11 4.8-17.6 3.7-7.9-1.3-8.2-4.1-7.8-11 7.4-1.9 13.8-3.4 20.4-7.6 6.4-4.2 13.3-2.5 19.8-5.8 4.7-2.4 11.2-.9 15.2-5 7.3-7.4 8 3.1 3.2 7.7-1.3 1.3 2.8-2.7 0 0zM410.8-66c1.8 5.9-4.6 6.4-8.3 7-4.2.7-4.3 2.7-7.7 3.8-4 1.3-8.7-.6-12.7-1.2-6.5-.9-14.1.9-20.4 2.4-2.2-9.9 9-11 16-12.2 12.7-2 24.4-7.3 36.8-10.7-1.5 2.4-7.7 8-3.7 10.9 1.4 4.4-3.8-2.8 0 0zM-78.3-16.5l-.5-3.2c-1.2-.9-2.8-1.9-4.3-2.7-1.7 1.5-1.4 3.9-2.7 5.5-1.7-1.5-3.8-8.7-7-6.4-2 1.4.6 7.3 2.6 7.5-.3 10.6 8.1 9.2 14.7 4.2-.6-1.7-1.7-3.4-2.8-4.9zM348.5 216c-1.8.8-3.3 1.8-4.8 3.3l1.6 3.2c4.4 5.2 4.2-4.1 3.2-6.5zM393.9 219.8c-3.9-1.3-15.6 2.1-18.6 4.3 2.3 1.6 6.2 1.5 9 .5l-2.1-1c2.9-2.3 7.1-1.7 10.5-1.5.3.2 2.1 1.6 2.6 2.1-.2 2.1-.7 4.6-.3 6.9 4.5-.5 3.1-9.9-1.1-11.3zM409.8 245.4l1 3.2c1.3 2.4 1.2 5.1 2.1 7.5 3.2-3.6-1-7.3-3.1-10.7z"/></g><path d="M376.7 22.2c-5.1 1-10.6 15.4-15 14.8-5.3-.7 14.8-12.4 4.7-16.5-5.7-.4-5.8-3.1-8 4-1.6 5.5-6.5 7.1-6.5 13.5 1.2-.7 2.3-.7 3.5.2 0 2.7.5 5.7-1.1 7.6-2.7 3.3-22.5 6-14.7 9.1-3.4 1.3-6.5 3.1-9.3 5.4 9.6 5 16.5-10.7 25.6-10.7-2.3.8-9.9 5.7-10.9 8.1 3.8-.6 14.3-6.3 16.6-9.3 2.5-3.4 16.6-22.4 15.1-26.2-2.9.6 1.6 3.9 0 0zm-54.7 60c-4.8 1.5-4.3 2.5-9.5 2.1-1.2-12.4 17.1-4.9 20.1-5.7 9.8-2.7-.9-8 1.3-11.1 1.3-2 11.2-3.7 10.6-6.3-7-2.6-24.6 12.6-30.9 15.9-5.3 2.7-13.5 7.8-17.1 12.5-9.3 12.6 12.6 7.5 17.2 5.7-6.6 11.4 11.7-9.8 8.3-13.1-1.6.5 2.7 2.5 0 0zm-5.2-19.8c3.4 1.4 10.5-1.8 4.5-4.2 1.5-1.9 3.2-3.5 5.1-5.1-6.6.2-6.9 3.7-9.6 9.3 1.7.8.8-1.7 0 0zm-5.7-9.5c-5.2-1.1-9.4 2.3-2.5 5.7 7.7 3.8 6-6.3 2.5-5.7zm-10.9 4.5c.9-5.7 17.5-18 11.7-23.2-.6-.6-19.2 24.8-18.7 29.9 6 .1 6.2-1.5 7-6.7.3-2-.8 5.3 0 0zm-9.8 42.3c.4-2.7-3.3-1.9.5-4.9-5.7 0-6.1 2.1-6.4 7.9 2.6.2 4.6-.8 5.9-3 .2-1-.5 3.2 0 0zm-7.6 9.5c-1.5-.3-11.6 12.7-8.7 14.3 5.3-4.3 9-9.2 8.7-14.3-3-.7 0 .8 0 0zm25.8 13.9c.8-.2 1.5-.7 1.9-1.2-2.8-1.6-4.9 2-1.9 1.2zm19.3-18.7c-7.5 4.6 1.5 10.9 1.9 10.4 1.7-2.3 5.2-11.9-1.9-10.4zm5.4-4.5c-1 7.7 8.7 1.2 7.3-.9-1.9-3.3-6.5-5-7.3.9zm22.9-2.5c-1.5-.4-2.2.3-2.1 2.1 1.5.2 3.2.1 4.7-.1-.9-.7-1.7-1.3-2.6-2zm.9 19.5c1.2 20 12.1-5.2 0 0 .1 1.9 3-1.3 0 0zm-32.6 36.8c-2.3.7-3.6 17.7.7 16.8.5-2.3 9.5-19.9-.7-16.8-3.8 1.1 1.7-.5 0 0zm8.6 16.8c-2.7-1.9-2.7 2.7-2.9 4 2-.3 3-1.7 2.9-4-.5-.3-.8 1.6 0 0zm5 14.1c-.1-.2-4.1-6.7-4-6.7-7.5 10.2-.8 10.8 4 6.7-.7-1.9-1.4 1.3 0 0zm-43.2-18.8c-12.4 4.3-2.1 9.4 4.2 2.1-.5-2.4-1.9-3.1-4.2-2.1-1.2.3 1.6-.6 0 0zm53.9 70.3c-1.2-.7-7.7-11.8-9.5-4.3-3.1 12.9 17.7 8.6 9.5 4.3-1.6-.8 1.9 1 0 0zM263 154.7c-.9 4.7 7.6.3 8.3-.8 0-1.9-7.9-1.2-8.3.8-.3 1.7.4-1.9 0 0zm-24.9 4.1c1.4 0 0 0 0 0zm0 0c3.5-5.4-7.2-8-8.1-4.2.4-1.7 2.8 9.7 2.2 8.7 2.4 3.9 4.4-4.6 5.9-4.5.8-1.2-.7-.1 0 0zm-2.7-11.8c-5 10.6 15.1-3.2 0 0 0 0 1.4-.2 0 0zm-3.7-10.1c.7 2.1-3.9-8.7-6.9-6.4-4.3 3.1 7 13.5 6.9 6.4zm-20 8.6c-16.3 8 3.1 10.5 0 0-1.7.7 0 0 0 0zm2.1-18.2c1.5.9-2.3-3.4-3.9-1.4-.5 2.6.3 4.5 2.6 5.9-.3-1.1-.5-2.3-.5-3.5 1.2-.3 2.2.1 3.2.9.5-1.7.1-2.3-1.4-1.9zm14.3-27.6c.5 1.6 1.4 3 2.5 4.3 2.7-1.2 8.1-7.8 5.7-10.9-3.6-4.8-7.2 4.8-3.9 4.8-1.4-.2-3.9-.1-4.3 1.8-.3 2.3.4-1.5 0 0zm30.1 1.2c.6-1.2-4 .9-3.1 5.4 1.3 6.3 6.3-2.1 7.9-3.4-1.5-.7-3.1-1.4-4.8-2 .2-.3 1.5 1 0 0zm-76.7 42.9c1.6 1.4 3.4 2.3 5.4 2.9 1.5-1.1-2.3-10.4-4.3-10.2-5 .7-5.1 6.9-1.1 7.3 1.9.3-1.3 0 0 0zm5.8 9.9c-1.5-.9-10.9 1.5-7.3 2.9.9.3 8.1.1 8.5-.4-.4-.9-.7-1.6-1.2-2.5zm-16.7-8.2c-.3-1.4-4.4-5.8-5.7-2.4.3-.7 3.3 12.1 3.2 12 5.3 4.8 3.4-7.6 2.5-9.6zm-6.9 4.5c-.4-.6-.3-3.2-3.4-2.7.3 2.2.9 4.3 1.9 6.3-1-1.3-2.4-2-4-2.1-.4 7.7 4.9 3.8 5.5-1.5zm-9.6 1c.7.8 0-1.5 0 0 .1.1 0-.1 0 0zm-5-5.3c-4.1.6-1.5 8.6 1.4 9.3 6.7 1.8 2.8-10-1.4-9.3-2.6.5 3.3-.5 0 0zm2.2 16.2c-.2 0-15-2.1-7.4 3.3 3.9-3.9 3.3 2 8.7 1.5.1 2.1-1.2-4.5-1.3-4.8zm22-68.7c1.7-3.4 2.2-2.7 3.5-6.7-5.4-1.6-4.7 1.8-8.5 3.8 1.2 1.3 1.3 2.5.2 3.8-2.7.9-7.6-1.9-12.4.3-5.8 2.7 11.1 4.1 11.2 3.4-.3 2-4.6-.4-4 3.4.8 5.2 19.5-6.8 20.7-8-1.6-3.4-8.2.7-10.7 0 .6-1.2 3 .9 0 0zm-1.1-7c1-1.9 0-.2 0 0 0 0 0-.3 0 0zm.6-.7s.6-.9 0 0zm-5.9-3.2c5 1.5 19 4.4 15.3-4-4.3-9.8-19.2 2.8-15.3 4 1.4.3-1.9-.6 0 0zm25.1-9.4c-1.5-1.2-3.3-1.6-5.5-1.3-3.3 10.3 11.1-.5 5.5 1.3zm-16-6.7c-10.6-7.4-5.3 5.3 0 0-.6-.5-2 1.9 0 0zm5.1-.3c1.4.8 6.9.3 5.6-2.6-4.4.8-4.5-7.5-8.3-6.3-2.7.9 2 8.5 2.7 8.9 1.6.9-1.1-.6 0 0zm9.5-6.6c.6 1.2 1.1 2.5 1.6 3.7 2-1.5 2.7-3.6 2.4-6.1-6.2-.2-1.5.3-4 2.4zm5.6-17.9c-1.6 0-1.5 4.5-2.9 5.1-1.3.5-1.7-3.7-2.6-3.4-6.3 1.6-2.4 6.8 1.5 5.8 1.3-.3 8.6-7.5 4-7.5-1.5 0 2.1 0 0 0zm9 10.7c3.9.8 8.1-8.5 1.4-10.7-3.6-1.2-6.1 9.8-1.4 10.7 2 .4-.5-.1 0 0zm-1 13.5c12.9 5.1 2.1-14.3-2.3-8.7-.9 1.3 2.7 6.8 2.3 8.7 2.4 1 .5-2.7 0 0zm11.2-9.8c-2.7.5-2.1 2.2-4.5 3.4 7 6.4 8.2-4.3 4.5-3.4zm4.3-10.1c-3.4-.7-1.5 3.6-1.8 5.1-1.1.2-4.2-2.1-2.3-3.2-.5-.2-1-.3-1.6-.5-3.9 1 1.6 4.7 2.6 4.8 4.1.3 6-5.7 3.1-6.2-3.3-.7 2 .3 0 0zm24-.9c-4.1-.3-11.4-2.4-15-2.1.3 0 1.1 12.3 1.2 12.9 3.7 0 2.4-5.8 3.6-7.8 2.6-4.3 8.4 8.5 9.2 7.5.7-2 .9-4 .5-6.1 1.5-.2 3.1-.3 4.5-.6-.2-2.4-1.5-3.7-4-3.8-2.9-.2 1.3.1 0 0zm24.5-1.5c1.6-3.9 3.6-15.7.2-17.4-3.1-1.6-5.8 15.3-.2 17.4.8-2-4.2-1.6 0 0zm2.9-21.6c2.9 1.9-1.7 3.2 2.2 4.9 4-2.9-.7-7.5-2.2-4.9.4.3 1.8-2.9 0 0zm51.2 8.5c.7.1 5.5-.1 6-.8 4.3-6-16.3-.4-6 .8.9.1-4.4-.5 0 0zm7-13.8c1.3 1.3 1.2 2.3 3.4 1.4-3-4.5-6.4-11.8-8.7-.3 1.7-.7 3.5-1.1 5.3-1.1zm12.3 0c1.2-.3 5.6-4.6 4.3-6.3-3.9-4.9-9.4 7.8-4.3 6.3.6-.2-3.1.9 0 0zM44.9 179.6c-5.1-5.5-6.1-.8-9.9 2.7-2.1 1.9-1.2 5.1 1.4 5.8 9.8 2.8 7.2-4 8.5-8.5zM18 132.1c-1.5 3-3.7 4.4 1.6 7.2 5.3-3-.9-4.5-1.6-7.2zm-7.2-6.7c-4.1-4.1-12-3.1-7.3 4.1s7-3.6 7.3-4.1zm-2.1-13.8c-1.5-9.3-7.5 14.2.3 7.6-2.6-8.1 4.5-2.6 5.1-4.3.9-2.7-3.6-4.4-5.4-3.3-.1-.5 1.9-1.1 0 0zM4.1 99.9c-3.5 1.4 3.3 5.1 3.2 5.1 3.7-1.5-3.1-5.1-3.2-5.1-.5.1.6.6 0 0zM-15 112.6c-.7-1.4-.6-4.8-2.7-5.1-2.2-.3-.9 10.4 2.1 10.1 1.2 0 3.3-6.2.6-5zm-6.2 3.6c-4.6 1.1-9.9-.5-8.8-6.7 2.2-13.5-7.5 6.2-14.7-2.9-8.1-10.2-20.4-6.3-26.6-21.5-4-10-13.6 2.6-14.8-.5 4.6 11.8 9.2 21 17.1 31.5 6.5 8.7 5.9-3.9 5.4-6.9-1.4-8 7.8-4.5 11.7-3.2 6.5 2.3 7.1 5.3 8 11.8 1.4 10.5 5.5.9 10.1 3.5 4.3 2.5 4.2 6.7 9.9 7.3 6.8.8 2.3-9.3 2.7-12.4zm-1.1-23.3c-1.8.7-1.8-7.5-4.6-9.3-7.2-4.6-6.3 3.4-.2 5.7-3.4 1.4-1.4 5.5 1.9 3.6-1.3 4.4 2.2 4.8 5.3 4.3-.7-1.6-1.4-3-2.4-4.3zm7.7-9.2c2-3.1-5.7 1.5-4.7 1.1.3-1.3 0-2.5-.9-3.5-.8 2.3-.6 4.5.5 6.7.9-1.3 3.5-4.4 5.1-4.3.1 0-2.1-.1 0 0zM.2 71.6c1.5-1.9 4.6-.2 5.4-1.2C8.8 65.9-5.9 54 0 50.7c-1.6-3.4-1-16.5-4.9-13.1 1-2.5 6.3-5.5 9.9-4.5 0 3.5-2.1 10.3 4.3 13.3 5.6 2.7.9 11.1 7.8 8.9 8.7-2.7-4.9-9.5-7-13.4-8.7-15.8 8.1 3.6 6.7 3.8 9.9-.9-11.2-16.5-10.9-16.2-2.9-2.7-2-3.3-3.1-7.3-2-6.9 3.7-1.7 6.6-1.9.4-1.8-1.5-9-1.7-11.4-.5-5.7-20-.8-8.5 2.8-4.6 5.3-7.5-1.7-7.8 6.1-5.3 1-9.6-3.8-14.9-2.1 0 2.6-3 6.1-2.7 7.7 1.1 0 6.4 2 7.7 1.6-1.3 2.3-1.8 4.8-1.5 7.4 7.1-.9 6.9 0 8.7-5.2C-9.4 27-5.6 33.4-6 35c-4.2-2.7-9.1 7.6-12 8.4-.1-10-12.4-2.9-12.5.8-.3 11.7 8.2 4.2 13.4 9.3 3.7 3.6 9.9 3.3 12.6 5.7 9.6 9-4.5 6.7-6.5 7.4-.5 4.3 8.9 19.6 9 12.4-1.5-.3-2.8-.5-4.3-.4-2.6-.9 2-6.9 4.4-2.5-.3.3.7 5.7 1.8 5.9 3.4.6-.9-9 .3-10.4 1.1-1.4-1.7 1.9 0 0zm-14.2-12c-2.6.9-6.3 7.8-1.4 8.1 3.4.1 4.5-7.4 1.4-8.1zm27.5 27.1c.4-3.1-.3-15.3-.9-18.5-7.8-1.9-9.9 22.4-3.3 19.6.3-2.1-.4-3.6-2.1-4.8 3.9-1.2 3 3.7 6.3 3.7.5-3.9-3 0 0 0zm4-25.8c-2.9-.2-8.6-2.1-8.3 3.3 2.1 1 7.3-1.7 8.3-3.3-4-.2-.7 1.1 0 0zM38.9 44c-1.4-.4-7.3-2.1-8.4 1.1 2.5 3.3 7.3 2.8 8.4-1.1-1.9-.6-.6 2.2 0 0zm-3.6 9.1c-.9 2.3 13.4 4.5 13.5 4.5 7.9 1.2 3.1-7 .4-6.9-1.5.6-13.3 1-13.9 2.4-1 2.3.5-1 0 0zm13.9 11c-.8-.3-6.9-1.1-6.9-1.1-.7.3-.7 5.9-.8 6.4 6.3 2.3 21.2 0 7.7-5.3zM14.3 23.3c.4 2.2 1.3 4.3 2.6 6.2 12-9.5-8.1-19.4-2.6-6.2zM-14.6-6.6c3.9-.9 5.7.7 5.4 4.5.3 2.7 1.1 5.3 2.4 7.7C-4.8 1.2-4-4.5-3.6-9.5c.4-4.1-9.7-13.3-11.7-5.4 6.5 6.6-1.8 6 .7 8.3 1.5 1.2-2.9-2.6 0 0zm-1.8 20.8c8 .6 7.1-13.3.3-13-.3 3.3-2.2 4-5.7 1.9.4 3.5-2.9 10.4 5.4 11.1 3.9.4-2.3-.2 0 0zM.2-3.7c-9.4 1.5 9.3 8.1 8.7 8.5C10 2.3 10.8-.4 11.3-3 8.2-4.4 4.8-4.5.2-3.7c-6.4 1.1 2-.4 0 0zm-.8-9.2c1.1.5 4.5-.1 5.4-.2-1.8-14.8-14-3.7-5.4.2 1.2.6-.8-.3 0 0zm40-.7c-.9-1-18.6 2.1-19.6 3.3-3.9 4.9 31 10.1 19.6-3.3-3.2-3.7 2.7 3.3 0 0zM-82.7 46.1c5.4 4.3 9.3-5.7 15.9-4.4 7.7 1.5 7.9-1.3 12 6.3 2.9 5.3 9.8 7 11.2 0 1.4-7 15.8-11.2 13.7-16-4.2-9.3-7.9-19.9-16.9-12.7-3.3 2.6-3.2-8.6-3.3-9.3-7.8-1.1-1.5 6.5-3.3 9.9-1.1 2.1-11.4 5.7-11.5 5.1-2.5.1-1.3-9.4-4.4-12.1 2.1-2 14.4-6.7 14.1-8.5-2.7.2-10.3-1.2-13.2-2-1.3-7.3 10.6-6.5 14.7-6.4 2.1 0 19.4-5.9 11.7-9.2-4.5-1.9-16-.8-20.1 1.2-7.7 3.7-5.9 3.1-10.3 9.3-1.7-2.3-3.5-4.6-5.3-6.9-.4 3.6 4.6 11.4 6.3 14 4.2 6.2-.9 2.7-1 8.1-.5 17.2-7.9 1.3-11 2.7-3.9 1.9 5.6 9.4-1.1 10.6-5 .9-.8 7.8-1.6 11.1-.8 2.9-9.1 7.6-4.5 11 5.1 4.1 5 .9 7.9-1.8 1.6 1.3-.9.8 0 0zm6.3-63.1c13.4 5.6 5.7-16.2 5.6-23.4-3.2 1.3-10.1 22.7-5.6 23.4z" fill="#DEECD2"/><path opacity=".5" enable-background="new" d="M253.3-102.8v9h3.5v-.9h-2.6v-8.6l-3.4-1.9v-2.2l-25.9-7.8-3.4-3.5-.6.6 3.6 3.6 25.4 7.7v2.1zM369.1 11.6h-14.6V-4.7h.9v-.9h-.9v-26.6h-.9v26.6h-.4l.3 5.7-3.1 12.4-9.3 3.3-2.3 8.1-4.4-2.4-2.1 8.5-5.8 2.9-2.3-5.5-13.4 2.7-5.5-3.6-3.9-3.9h-6.1v-47.2h16.3v-.9h-42.1v.9h24.9v53.2H287l1.1 3.7-9.2 8.4-4.2-2.7-3.9 5.4-2.6-2.4-4.1 4-7.5-4.2v3l-4.2-1.6-1.3 2.4.7-7.5 7.4-8.4-1.6-8.1 1.6-45.2h-.9l-1.6 45.2v.1l1.5 7.8-7.3 8.3-1 13.2-5.1 1.5v5.6l-6.6-2.5-2.1 4.6.8.3 1.7-3.9 7 2.7v-6.2l5.1-1.5.3-3.9 1.9-3.5 4.6 1.8v-2.8l6.7 3.8 4-3.9 2.7 2.5 3.9-5.6 4.1 2.7 10.1-9.2-.9-3.1h7.1v-6h5.8l3.6 3.7 5.9 3.9 13-2.6 2.4 5.7.9-.5.9 9 6.3 6.9-15.2 14.2.6.6 15.6-14 4.5 5.1 21.2-6 7.5-18.3 4.7 3.7 3.2-6.9h3.4l4.5-4.5 1.8-6.1 7.1 4 1.6-2.2 10.8 9.1.5-.7-11.5-9.7-.2.2-1.2-5.5-5.2-.1-3.8 1.5-5.1-1.5-9.2 6.4v-6.4H421v-.9h-52v.1zm10.2 1.9l5 1.5 3.9-1.5 4.4.1 1.2 5.3.3-.1-1.1 1.5-7.4-4.2-2.1 6.9-4.1 4.1h-3.7l-3 6.4-4.8-3.7-7.7 18.9-20.3 5.7-10.9-12-.9-9.1 5.2-2.6 2-7.8 4.3 2.3 2.5-8.7 9.3-3.3 2.4-9.9v9h15.4v8.1l10.1-6.9zm-129 51.3l1.4 2.6h-19.2l3.7-2.2v-5.7l-4.5-5-1-8.2-10.9-9.3 3.3-10.8-7.6-1-.8-6.5-8.2-8.1-1.3-12.3-.1-.3 7.2-11.4-.9-6.9 9-3.4 1.1-5v-5.4l-5.1-5.8h34.3v-.9h-35.1l-4.9-5.6-6-22.6v-.2l-17.6-15.2 1.8-14.5-3.3-4.5 7.5-7.5.9-6.4-.9-.1-.9 6.2-7.9 7.9 3.5 4.9-1.8 14.7 18 15.2 5.9 22.5v.1l10.7 12.2v5l-.9 4.5-9.3 3.4.9 7.3-6.9 11.1-3.5-3h-54.4L136-40.2v-.2l-1.5-1.1-.8-3.5 3-5.8-2.8-7.7h72.4v-.9H135v-35.3l-4.9-6.6 1.8-4.5h.5v-.9h-.1l2.1-5 .1-.1-9.8-57.4h28.7l.9-8.7 2.6 3.3 6.3 9.7 8.4 2.2 4.3 4.4 9.3-3.9 4.3 1.4-3.4 1.9 5.2 6.1 6-3.7 6.3 7.5 7.5-6.3 6.3 5.1 12.8.9 17.8-6.2 47.5 26 5.4 11.2 3.9-1.5 1.5 7 6.1 2.1v6.8l15.2 9 6.6 33.2-6.9 20.3-8.8 4.7v3.9c.3-.1.5-.2.9-.2v-3.2l8.7-4.7 7.1-20.7v-.1l-6.7-33.5v-.2l-15-8.9v-6.9l-6.3-2.1-1.7-7.5-4.1 1.6-5.1-10.8-47.9-26.1-.2-.1-18.1 6.3-12.3-.9-6.6-5.5-7.4 6.2-6.2-7.5-6 3.7-4-4.7 4.2-2.4-6.5-2.1-9.1 3.9-4-4.1-8.3-2.2-6.2-9.5-3.9-4.9-.9 10.1h-28l-.2-.9-.9.2.2.8H29.6v-.9h-.9v.9h-164.6v-.9h-.9v.9h-13.7v-.9h-.9v.9h-77.2v.9h77.2v53.6l3.1 6.9.4.4h-27.5l-22.5 7-17.6-1.5-7.2 2.1-4.1-2-2-6.3c-.5-.9-2.2-4.2-2.9-4.6-.7-.4-5.6 0-8.5.3l.1.9c3.5-.4 7.4-.7 7.9-.5.3.3 1.6 2.5 2.6 4.3l2.1 6.6 4.7 2.3 7.4-2.2 17.6 1.5 22.5-7.1h28.3l5.7 6.3-11.1 23.5 5.1 4.8-2.4 41.4.9.1 2.4-41.8-4.9-4.6 11-23.3-7.1-7.9-3-6.5v-53.6h13.7v21.6l5.1 4.5v5.9l5.9 2.4 7.3 12.3 6.5 1.3-3.6 21.2 4.2 3.5 4.5-6 6.9 16.4 4.5 2 3.9 9.1 7.6-4h16.5v48h-178.3v.9h54V23l71.8 67 .3-.3v3.5l9.8 11.7-4.6 6v6.9l-4.9 7.5.5 6.1-30.6 3.8.1.9 33.5-4.1-3.1 4.7 52.7 21.6H-27V147h23l21.2 17.4 6.9 14.3 14.7 10.1 7.3-2.5 2.6-9.3 10 .6L74.4 188c4.1 7.6 11.7 22.1 12 22.5.1.2.2.3 5.7 4.5v10.3l11.1 10.1 19.8 5.9.3-.9-19.6-5.9-10.7-9.6v-10.3l-.2-.1c-2.1-1.5-5.3-3.9-5.7-4.3-.6-1.3-8.6-16.1-12-22.6l-.1-.1-16-10.7-10.9-.6-2.7 9.6-6.5 2.2-14.1-9.8-6.9-14.2-21.6-17.8h-2.7v-.9h49.7V59.6h117.5v11.2l2.6 13.4V117l-10.8-4.8-15.4 3.4-8.9-4.6-3.5 2.4v-2l-9.9-.4-2.1-2.8-5.7 1.4-7.4-1.3-4.1-6.8-6.3 2.3-3.9-4V69H44.2v.9h40.3v30.3l4.6 4.6 6.2-2.2 3.9 6.5 8 1.4 5.3-1.3 2.1 2.8 9.4.4v2.7l4.5-3 8.7 4.5 15.4-3.4 11.7 5.1.3-.8 4 1v25l8 15.8-6.2 21.8.9.3 6.3-22.1-8-15.9v-15.3h38.3l2.8 6.3-3.4.7 5.2 3.9-9.1 9.3-2.4 13.2h28.3l-2.5 5.1 2.3 5.1.8-.3-2.1-4.6 2.9-6h-28.6l2.2-12 9.2-9.8-4.5-3.4 2.6-.5-3.2-7.1 1.6-7.5h-1.8l-1.6-4.5 2.1-.3V110l7.7-7.2v-4.4l4-1-.2-.9-4.7 1.2v4.7l-7.7 7.2v5.5l-2.4.3 2.2 6.1h1.3l-1.3 6h-38.5V118l-5.1-1.3V84.2l-2.6-13.4v-2.6h60.5l1.5 4.3-3.7 5.1h8.8l.7 1.3-7.6 9-1.6 6.9h28.8l-2.5 70.6h.9l2.5-70.6h35.9l5.1 35.7 4.3 8.7-4.6 8.1 3.9 13.5h-37.4l1.5 8.2.9-.2-1.3-7.2h36.3v-.8l.9 3.3 35.8 3 1.7 4.7 4.4-6.9h1.8v-.9h-2.2l-3.7 5.7-1.3-3.6-35.8-3-4.6-16 4.7-8.2-4.4-8.9-5.1-35.5H318l-2.1 3.8 7.5 5.7 4.6 8.5 12.9 12.9 6.5 16.5.8-.3-6.6-16.6-13-13-4.6-8.5-7-5.5 1.9-3.6h1l9.8-4.5 18.1 1.3 4.5 4.9h12.9l15.5 15.3.6-.6-15.8-15.5H353l-4.5-4.9-18.6-1.4h-.1l-9.7 4.5h-.4l.1-.3-.8-.2-.3.6h-15.6v-4.7l5.6-3.7 13.1-5.1 4.2-5.3 3.6 1.7 9.6-5v-6.3h76.3v-.9H250.3v.5zM29.6-169.3h94.3l9.7 57.4-2.1 5.2H29.6v-62.6zm0 63.5h101.5l-1.9 4.5 5 6.7v35h-1.5l3.2 8.6-3 5.7.6 2.7-7.2-5.5-.2-.1-11 2.1-7.5-3.2h-78v-56.5zM-83.9-80.1l-6.9 3.7-3.8-8.5-4.5-1.9-7.3-17.5-4.9 6.4-3.2-2.7 3.6-21.5-6.9-1.3-7.3-12.2-5.7-2.3v-5.7l-5.1-4.5v-21.3H28.7v80.6h-96v8.6h-16.6zm-35.7 169.2l-71.2-66.5v-53h81.4V76.8h-10.3v12.3zm78.9 68.3h-25.2l-51.7-21.2 3.6-5.4-3.9.5-.5-5.7 4.9-7.5v-6.9l4.8-6.3-9.9-12V77.7h10.3v-18h67.7l-.1 97.7zm0-98.6h-67.7v-89.2h41.2v18h26.6v71.2zm-25.7-72v-74.6h95.2v74.6h-95.2zM42.4 144.5H-7.3v1.7h-20.6v11.1h-12V59.6h82.3v84.9zm13.8-156v70.3h-96v-71.2h69.4v-36h77.9l7.5 3.3 10.9-2.1 9.3 7.2L149 5.6H57v-18H29.6v.9h26.6zm.8 70.3V6.5h93.2l-.2-.9 6 1.9 1.5 2.7-3.4 3.3 6.7 8.9v36.4H57zm171.2 17.7l-.1.3h-6.5l3-4.2-1.9-5.2h-61.1V22.2l-6.3-8.6 3.3-3.2-2.1-3.7-6.3-2-.2.9-3.1-10.2h53.8l3.9 3.3 1.3 12.3 8.2 8.1.8 6.9 7.3.9-3.2 10.5 10.9 9.4 1 8.1 4.5 5v4.8l-4.6 2.8-2.6 9zm110-5.1l-8.7 4.5-3.8-1.8-4.5 5.7-12.9 5-6.1 4v5.1h-52.3v-.4h-.9v.4h-27.7l1.3-5.6 7.9-9.3-1.4-2.5 2.3-8.5.4-.3v.4h21.3l-1.4-2.6h86.4v5.9zM430-13.1l5.6-5.9.1.1c.1-.3.1-.6.3-.9l-2.1-1.3-1.9-6.6-5.1-3.6h-62v-6.3c-.3.2-.5.3-.9.4v6.8h62.4l4.7 3.3 2 6.7 1.7 1-5.7 6v8.9l5.7 6.6-8.3 4.6.5.7 9.1-5.2-6.1-7.1v-8.2zm105.2-82.1l2-5.2-6.1-3.9v-26.1l-5.1-5.9-7.9 2.5-6.4-5.2-15.7 23.6v8.2l-8.6 8v3.5l-4-1-.2.3s-1.6 2.8-3.5 5.3c-1.7 2.4-3.4 2.4-3.5 2.4h-39.1l-8.5 4.2-12.4 10.1-5.3 10.4v1h.4l5.4-10.9 12.3-9.9 8.3-4h38.8c.1 0 1.2 0 2.6-1v8.5l-7.1 4.7-5.6 31.5h-10.6l.2-.6 1.3-17-2.7-1.3-3.2-25.2h-.9l3.3 25.8 2.7 1.3-1.3 16.4-3.4 12.7v14.2l-3.4 1.9v2.8h.9v-2.3l3.4-1.9v-12.9h29.8l5.3 3.6.5-.7-5.5-3.8h-30.2v-.8l3-11.2H484v-.9h-17l5.5-31 7.2-4.7v-9.7h-.1c.3-.3.6-.6.9-1 1.5-2.1 2.9-4.4 3.3-5.1l1 .3v36.9l3 5.2.8-.4-2.9-5v-36.4l2.6.7v-4.2l8.6-8v-8.4l15.1-22.6 6 4.9 7.8-2.5 4.5 5.2v26.2l5.9 3.8-1.9 5.1 6.3 5.7.6-.6-6-5.6z" fill="#D8D2D2"/><path fill="#B9252D" d="M130.8 78.3c.9-1.4 1.4-3 1.4-4.7 0-4.9-3.9-8.9-8.9-8.9s-8.9 3.9-8.9 8.9c0 1.9.6 3.6 1.5 5l7.4 8.9 7.5-9.2zM113.1 134.3c.9-1.4 1.4-3 1.4-4.7 0-4.9-3.9-8.9-8.9-8.9s-8.9 3.9-8.9 8.9c0 1.9.6 3.6 1.5 5l7.4 8.9 7.5-9.2zM125.9 36.8c.9-1.4 1.4-3 1.4-4.7 0-4.9-3.9-8.9-8.9-8.9-4.9 0-8.9 3.9-8.9 8.9 0 1.9.6 3.6 1.5 5l7.4 8.9 7.5-9.2zM357.7 213.8c.9-1.4 1.4-3 1.4-4.7 0-4.9-3.9-8.9-8.9-8.9s-8.9 3.9-8.9 8.9c0 1.9.6 3.6 1.5 5l7.4 8.9 7.5-9.2zM446.7-38.2c.9-1.4 1.4-3 1.4-4.7 0-4.9-3.9-8.9-8.9-8.9s-8.9 3.9-8.9 8.9c0 1.9.6 3.6 1.5 5l7.4 8.9 7.5-9.2zM282.2 73.7c.9-1.4 1.4-3 1.4-4.7 0-4.9-3.9-8.9-8.9-8.9s-8.9 3.9-8.9 8.9c0 1.9.6 3.6 1.5 5l7.4 8.9 7.5-9.2z"/></svg>