<svg xmlns="http://www.w3.org/2000/svg" viewBox="351.6 15.9 930 500" enable-background="new 351.6 15.9 930 500"><path fill="#F6F0EF" d="M349 15.9h935.7V517H349z"/><path fill="#DEECD2" d="M369.8 481.6l-3.7-5.6 21.4-10.7 6 12.3-8 12.7zM424.8 457.3l-4.3 21.3 16 19.4 46.6-2 3.4-13.7zM719.8 354.3l2 15.7s10.7 6.7 11.7 6c1-.7 16-9.3 16-9.3l-10-23.7-5 20.7-14.7-9.4zM992.8 257.3l2.7 17.3 13.7 14s3.3 15.3 2.3 15.3-12.7.7-12.7.7l-16.7-21 2-25.3 8.7-1z"/><path stroke="#F4E6D7" stroke-width="4" stroke-miterlimit="10" d="M773.2 15.9C775 58.8 775 120 777 163c0 4-1 8 1 12s5 8 6 13c1 24 0 48 0 72 6 19 4 39 3 59 0 11 4 21 11 29 1 1 2 1 3 2s2 2 2 3c3 20 1 39 1 59-1 7 0 15-1 22 0 3-1 5-2 8s-3 4-4 6-2 5-2 7c0 20 0 40 .5 60.2M857.5 235.7C858 315 853 395 853 474c0 3-1 5-2 8-5 11-12 22-18.4 33.1M688.1 297.3l216.3 1.4 26.5 19.4M1057 15.9L1043.5 76l-24.7 44v53.5h27.3v-46.9L1192 15.9M982.8 136.8L1284 124M992.8 136.3l76.7 43 7.8 13.2 204.3 76.5M982.8 189.3C988 221 994 252 997 284c1 13-3 26 0 39 7 34 17 63 25 97 0 1 2 3 2 4 5 21 10 41 16 62 1 5 1 10 3 15 2 4 3 9 4.1 14.1M1110 204c-1.8 11.5-1 28-2 39l-6 24c-25 72-50 143-73 216-3 11-5 22-8.6 32.3M979.8 189.3l-4.6 50 133.2-3.6M996.2 270.7h62.3l5.8-43.5-40.8-37.9M803.5 355.3l51.2 5.3 49.7 39h36.7M964.5 316.2C964 324 968 333 963 341c-5 7-12 11-16 18-1 1-2 1-3 2-2 2-3 4-3 6-1 49-2 99-2.9 148.1M768.9 103l65.9-11.7 72.7 11.7 22 17M351.8 67.4C381 69 411 69 440 70c18 5 35 11 52.6 16.9M414.1 39.9L399.5 120M351.5 142.7c14.5.3 27.5.3 41.5.3 2-8 4-15 6-23 24 1 49 1 73 3 9-16 18-32 27-47h279c8 13 17 26 25 40 42 3 84 1 126 4 1 0 3 2 4 3 2 2 3 4 5 6 8 9 20 6 29.8 7.8M392.8 143.3C391 214 390 285 389 356c-4 15-10 29-16 43-2 6-4 13-3 20 7 33 11 64 15.3 96M517.8 289.7V348l15.7 4s5.3 55.3 3.3 55.3-19 8.7-19 8.7l5 58.3M536.8 407.3l59.5 3.8 4.8-110.7" fill="none"/><g stroke="#F4D8B3" stroke-width="4" stroke-miterlimit="10" fill="none"><path d="M961.8 151.3l130 80 19 71.9M1154 15.9l-144.2 133.4-5 40h-22v-66.5l35-33.5-1.8-73.4M967.8 149.3L976 15.9M716.4 96.3h48.4l21 35 108 12 67 6M674.8 322c-1.8 7-1.8 15-3.8 23-1 2-2 4-4 6-22 21-45 37-67 58-10 9-20 16-30 24-8 8-16 14-24 21s-15 13-22 19c-4 13-3 28-3 42.5M687.8 298.6l-13 1V322l109 4.3 186-10.4 311.8-32.9M351.5 106.7C374 126 395 146 418 165c9 9 18 17 28 25 1 1 2 3 3 4 12 8 20 18 31 27 1 1 3 2 5 2 10-1 21-1 31-1 10 25 22 48 32 73 1 1 3 2 4 2 13 1 25 2 38 3 8 0 17 1 25 1 5 1 9 1 14 2h8c6 2 13 4 19 4h29c1 0 3 1 4 1 2 0 4-1 6-.6-.2-12.6-.5 0 0 0l-.6-37.8M351.8 313.9C384 306 415 298 447 290c67 1 134 1 201 3 2-7 6-13 9-20 41-5 82-5 123-16s80-22 120-33c20-25 40-49 60-74 60-4 261.7-7.3 321.6-11M712.8 15.9C714 53.8 717 111 720 149c-12 52-24 103-33 157-4 19-2 38-2 57 20 51 39 102 59.8 152.4"/></g><g><path fill="#B9252D" d="M685.8 278.7c1-1.6 1.6-3.5 1.6-5.5 0-5.7-4.6-10.4-10.4-10.4-5.7 0-10.4 4.6-10.4 10.4 0 2.2.7 4.2 1.8 5.8l8.6 10.4 8.8-10.7z"/><text transform="translate(672.519 277.435)" fill="#fff" font-family="'Helvetica-Bold'" font-size="12.497">A</text></g><g><path fill="#B9252D" d="M703.2 260.1c1-1.6 1.6-3.5 1.6-5.5 0-5.7-4.6-10.4-10.4-10.4s-10.4 4.6-10.4 10.4c0 2.2.7 4.2 1.8 5.8l8.6 10.4 8.8-10.7z"/><text transform="translate(689.87 258.793)" fill="#fff" font-family="'Helvetica-Bold'" font-size="12.497">B</text></g><g><path fill="#B9252D" d="M705.5 300c1-1.6 1.6-3.5 1.6-5.5 0-5.7-4.6-10.4-10.4-10.4s-10.4 4.6-10.4 10.4c0 2.2.7 4.2 1.8 5.8l8.6 10.4 8.8-10.7z"/><text transform="translate(692.221 298.724)" fill="#fff" font-family="'Helvetica-Bold'" font-size="12.497">C</text></g><g><path fill="#B9252D" d="M968.1 169.9c1-1.6 1.6-3.5 1.6-5.5 0-5.7-4.6-10.4-10.4-10.4-5.7 0-10.4 4.6-10.4 10.4 0 2.2.7 4.2 1.8 5.8l8.6 10.4 8.8-10.7z"/><text transform="translate(955.818 168.666)" fill="#fff" font-family="'Helvetica-Bold'" font-size="12.497">J</text></g><g><path fill="#B9252D" d="M1000.1 110.9c1-1.6 1.6-3.5 1.6-5.5 0-5.7-4.6-10.4-10.4-10.4-5.7 0-10.4 4.6-10.4 10.4 0 2.2.7 4.2 1.8 5.8l8.6 10.4 8.8-10.7z"/><text transform="translate(986.818 109.666)" fill="#fff" font-family="'Helvetica-Bold'" font-size="12.497">K</text></g><g><path fill="#B9252D" d="M1013.5 168.9c1-1.6 1.6-3.5 1.6-5.5 0-5.7-4.6-10.4-10.4-10.4-5.7 0-10.4 4.6-10.4 10.4 0 2.2.7 4.2 1.8 5.8l8.6 10.4 8.8-10.7z"/><text transform="translate(1003.22 167.666)" fill="#fff" font-family="'Helvetica-Bold'" font-size="12.497">I</text></g><g><path fill="#B9252D" d="M993.5 179.9c1-1.6 1.6-3.5 1.6-5.5 0-5.7-4.6-10.4-10.4-10.4-5.7 0-10.4 4.6-10.4 10.4 0 2.2.7 4.2 1.8 5.8l8.6 10.4 8.8-10.7z"/><text transform="translate(979.22 178.666)" fill="#fff" font-family="'Helvetica-Bold'" font-size="12.497">M</text></g><g><path fill="#B9252D" d="M985.5 149.9c1-1.6 1.6-3.5 1.6-5.5 0-5.7-4.6-10.4-10.4-10.4-5.7 0-10.4 4.6-10.4 10.4 0 2.2.7 4.2 1.8 5.8l8.6 10.4 8.8-10.7z"/><text transform="translate(972.22 149.666)" fill="#fff" font-family="'Helvetica-Bold'" font-size="12.497">L</text></g><g><path fill="#B9252D" d="M669.8 261.7c1-1.6 1.6-3.5 1.6-5.5 0-5.7-4.6-10.4-10.4-10.4-5.7 0-10.4 4.6-10.4 10.4 0 2.2.7 4.2 1.8 5.8l8.6 10.4 8.8-10.7z"/><text transform="translate(656.49 260.467)" fill="#fff" font-family="'Helvetica-Bold'" font-size="12.497">F</text></g><g><path fill="#B9252D" d="M667.1 291c1-1.6 1.6-3.5 1.6-5.5 0-5.7-4.6-10.4-10.4-10.4-5.7 0-10.4 4.6-10.4 10.4 0 2.2.7 4.2 1.8 5.8l8.6 10.4 8.8-10.7z"/><text transform="translate(653.789 289.693)" fill="#fff" font-family="'Helvetica-Bold'" font-size="12.497">E</text></g><g><path fill="#B9252D" d="M646.8 300.3c1-1.6 1.6-3.5 1.6-5.5 0-5.7-4.6-10.4-10.4-10.4-5.7 0-10.4 4.6-10.4 10.4 0 2.2.7 4.2 1.8 5.8L638 311l8.8-10.7z"/><text transform="translate(633.519 299.028)" fill="#fff" font-family="'Helvetica-Bold'" font-size="12.497">H</text></g><g><path fill="#B9252D" d="M684.8 316.3c1-1.6 1.6-3.5 1.6-5.5 0-5.7-4.6-10.4-10.4-10.4-5.7 0-10.4 4.6-10.4 10.4 0 2.2.7 4.2 1.8 5.8L676 327l8.8-10.7z"/><text transform="translate(671.519 315.028)" fill="#fff" font-family="'Helvetica-Bold'" font-size="12.497">G</text></g><g><path fill="#B9252D" d="M699.8 334.3c1-1.6 1.6-3.5 1.6-5.5 0-5.7-4.6-10.4-10.4-10.4-5.7 0-10.4 4.6-10.4 10.4 0 2.2.7 4.2 1.8 5.8L691 345l8.8-10.7z"/><text transform="translate(686.519 333.028)" fill="#fff" font-family="'Helvetica-Bold'" font-size="12.497">D</text></g><g><path fill="#B9252D" d="M786.5 135.9c1-1.6 1.6-3.5 1.6-5.5 0-5.7-4.6-10.4-10.4-10.4-5.7 0-10.4 4.6-10.4 10.4 0 2.2.7 4.2 1.8 5.8l8.6 10.4 8.8-10.7z"/><text transform="translate(773.22 134.666)" fill="#fff" font-family="'Helvetica-Bold'" font-size="12.497">N</text></g><path fill="#fff" d="M820.3 258.4c18.6-6.2 9.1-23.1 9.1-23.1s-5.9 1.3-9.1-.3c-3.2 1.6-9.1.3-9.1.3s-9.4 16.9 9.1 23.1z"/><path fill="#0EA9D6" d="M830 240.2s4.4 12-9.7 16.7c-14-4.7-9.7-16.7-9.7-16.7H830z"/><path fill="#D72631" d="M820.3 239.2h9.4s-.4-1.6-.9-2.3c0 0-5 .8-8.4-.4-3.4 1.2-8.4.4-8.4.4-.5.6-.9 2.3-.9 2.3h9.2z"/><text transform="translate(814.259 250.077)" fill="#fff" font-family="'HelveticaNeue-Bold'" font-size="10.456">44</text><path fill="#fff" d="M887.1 333.2c18.6-6.2 9.1-23.1 9.1-23.1s-5.9 1.3-9.1-.3c-3.2 1.6-9.1.3-9.1.3s-9.5 16.9 9.1 23.1z"/><path fill="#0EA9D6" d="M896.8 315s4.4 12-9.7 16.7c-14-4.7-9.7-16.7-9.7-16.7h19.4z"/><path fill="#D72631" d="M887.1 314h9.4s-.4-1.6-.9-2.3c0 0-5 .8-8.4-.4-3.4 1.2-8.4.4-8.4.4-.5.6-.9 2.3-.9 2.3h9.2z"/><text transform="translate(880.995 324.915)" fill="#fff" font-family="'HelveticaNeue-Bold'" font-size="10.456">40</text><path fill="#fff" d="M661.3 368.1c18.6-6.2 9.1-23.1 9.1-23.1s-5.9 1.3-9.1-.3c-3.2 1.6-9.1.3-9.1.3s-9.5 16.9 9.1 23.1z"/><path fill="#0EA9D6" d="M671 349.9s4.4 12-9.7 16.7c-14-4.7-9.7-16.7-9.7-16.7H671z"/><path fill="#D72631" d="M661.3 348.9h9.4s-.4-1.6-.9-2.3c0 0-5 .8-8.4-.4-3.4 1.2-8.4.4-8.4.4-.5.6-.9 2.3-.9 2.3h9.2z"/><text transform="translate(655.195 359.815)" fill="#fff" font-family="'HelveticaNeue-Bold'" font-size="10.456">44</text><path fill="#fff" d="M712.6 199.2c18.6-6.2 9.1-23.1 9.1-23.1s-5.9 1.3-9.1-.3c-3.2 1.6-9.1.3-9.1.3s-9.5 16.9 9.1 23.1z"/><path fill="#0EA9D6" d="M722.3 181s4.4 12-9.7 16.7c-14-4.7-9.7-16.7-9.7-16.7h19.4z"/><path fill="#D72631" d="M712.6 180h9.4s-.4-1.6-.9-2.3c0 0-5 .8-8.4-.4-3.4 1.2-8.4.4-8.4.4-.5.6-.9 2.3-.9 2.3h9.2z"/><text transform="translate(706.495 190.915)" fill="#fff" font-family="'HelveticaNeue-Bold'" font-size="10.456">35</text><text transform="translate(668.148 238.29)" fill="#877C6C" font-family="'HelveticaNeue-Bold'" font-size="12">OKLAHOMA CITY</text><text transform="translate(924.489 140.572)" fill="#877C6C" font-family="'HelveticaNeue-Bold'" font-size="12">TULSA</text><text transform="translate(717.822 159.572)" fill="#877C6C" font-family="'HelveticaNeue-Bold'" font-size="12">STILLWATER</text></svg>