<svg xmlns="http://www.w3.org/2000/svg" viewBox="193 18.6 940 570" enable-background="new 193 18.6 940 570"><path fill="#F6F0EF" d="M191.1 14.6h943.4v581.1H191.1z"/><path fill="#A2DDF5" d="M1133 432.5l-103 6-109 56-53 58 81.5-41 137.5-12 51.5-36.5v11l-49 37 46-16v27.5l-212 55.5-41.5-4-24 12 6-38 19.8-65.5s-1.8-29-2.2-30.5-15.6-62-15.6-62l12 59-2.5 41.5L845 590h290.5l-2.5-157.5z"/><g stroke="#F4E6D7" stroke-width="4" stroke-miterlimit="10" fill="none"><path d="M1067.5 245l-10 37-5.5 38-83-49.5-28.5 20.5-8.5 116M940.5 291l3-71 18-46.5 6.5 10 14-3.5M1016.5 12.5L987 102l.5 57.5L976 213l-10.5 29.5 5 44.5-26.5 67.5 13.5 32.5M948.5 367.5C951 367 1020 315 1020 315l18.5-2.5M1052 320l24 7M1007 222l29-2.5 12.5 17.5M1100.5 94L993 83.5M1104.5 79.5L1137 74M899 350l35 28.5M897 350.5l-29.5-9L852 350M878 345.5l21.5-18 39-20M872.5 341.5l25-103.5 20-7 12 10.5L943 238M914.5 170.5l-17 67.5-44-38.5 20.5-46 29.5-18.5M866 212.5l-72-3-69-37-39 4M816.5 121.5l-38.5 79-24.5 50.5 52.5 4 20.5 26 32.5 4.5M772 138l-12.5 52-48 28.5-49 41-38.5 16 12.5-59.5M610 236l11 37M763.5 80l-2.5 26 18.5 28M838.5 110.5L761 106 637 74.5 602.5 83 508 78M617 29l6.5 50L588 96l-37.5 69.5L541 201M651.5 37.5l-32 70.5-3.5 51 23 4.5 23-6 21.5 23 28 38 40 33L684 277M576 115l41 14h29l14-48.5-5-43M646 129l-15.5 94M642.5 143l24-23 43.5 4.5L725.5 81l18.5-9M697.5 124.5l-1-68.5 12-41M710 124.5l-3 36M548 172l30.5 39 40 19M548.5 214l17 15.5 21-2.5 5 14M538 202l-83.5-20 56-36 40 19.5 33-24L616 159l-61 88M516.5 101.5l41-11.5 7 10-56 47.5M579 108l-16.5-9-5.5-11 2-42.5 90-6.5M505.5 77.5l-40-9 41 74M858 289l-59 50-33-30.5-22 12.5M744.5 327l52 12.5-12 30.5M795.5 342.5l12.5 21 43 18M811.5 327l39 26.5M782.5 372M782.5 372L751 417.5M714 395.5l28-72h-29.5l-19.5 42M622.5 370.5l32-3 23 33.5 53 22.5L733 459l13.5 10 9.5 97.5M674 489l55-63.5M683 512.5l10.5 19L719 523l31.5-2M590.5 531l63-18.5M588.5 531l-20.5-7-139 66.5M561 443.5L531 398l28-29.5 26.5 22M566 373l16-67.5M829.5 74L897 63.5M768 77.5l20-64M753.5 62L931 35.5l-18.5 50-4 44.5M893.5 63.5l20 17M832 73l-15.5-36L830 13M706 25l41 15.5 56.5 14L831 71M913.5 158.5l45 19"/></g><g stroke="#F4D8B3" stroke-width="4" stroke-miterlimit="10" fill="none"><path d="M905.3 18.6L894 72l15.3 57.3 6 42.7M886.7 123.3l1.3 6 10.7 12.7 7.3-12-24-8.7-25.3-17.3.6-13.3M874 114v-13.3l-36-25.4-38.7-6-38 10.7-62-34L516.7 8.7M506.7 14l-1.4 128 42.7 72.7 5.3 38-1.3-8.7 58.7-5.3 120-96.7 41.3-4 84.7-34M186 140l86.7 15.3 71.3 90h47.3l73.4 30.7 24.6-17.3 20 8 44-14 60 17.3 40 21.3 32-14.6 57.4 34.6 6 38.7 50 27.3 16 40 26.6 10M190.7 207.3l112.6-10.6M898.7 142l-46 161.3v96L831.3 450l2 18 28.2 6M893.3 163.3l34.7 14 40 36.7 49.3 12 66.7 21.3 2-100.6 14.7-24 8-110M1133 241.3c-.3 0-49 6-49 6l6.7 16.7-12.7 45.3 3.3 33.3-6.7 18.7L1133 432M1089.5 259l9-13.5M1078 317.5l19 7.5 36-20M1079.5 331.5l56.5 47M1077.5 327l-52 54-11-6-11-47.5 10.5-34M1053 350l21 13M1064 342.5l1.5 14M1025.5 381l21-6.5 15.5 4M1074.7 361.3l-14.7 18.2-19.5 49.5-40 29-72.5 30.5-58 53.5M1062 378.5l3.5 19-46.5 32-24.5 16.5 18.5-37.5 1.5-33.5-33.5 31-34 1.5-30.5 16.5-8 67 7.5 7M994.5 448l-70 25.5-16 17.5-47-17-4-45.5M833.3 468l18.7 44.5 5-38.5M827 491.5l-11.5-2-23 37 59.5-14-25-21 6-20M852 512.5l17 13 7.5-24-15-27.5M870 540l24-54 3.5-108.5L930 415M897.5 377.5l6-97.5 32-95.5M895.5 380.5L852 385l-21.5-1-42.5 24-58.5 16L619 407.5l-13.5 9-19-27-4 33 32-31L623 371M582.5 422.5l-39.5 38-9 26.5-.5 38-45 22-24.5 29.5 3 12.1M789 528l-10.5-14-35 4.5-71-21-20.5.5-46.5-81.5M642 483.5l-110 2-40 8.5-65-2-46-12.5-111 19M570.5 435.5L599 498l-11 38 24 59.5M669.5 560l-95 28.6M652 564l3.5-66M634.5 588.6M797.5 527l41 30.5-81.5 15-71.5-7.5-10.5 9.5-11.5-11.5-24 24.5M826 548.5l5-31M838 533.5l23.5 13M850 513.5l3 12h16M835 558.5l-18 34M769 588.6l-12-16.1 33-35 26 23-9 31.5M853 541l3 1-3-16.5-14 27.5 16-1-8 11.5-8.5-6-2.5-41M827.5 572.5l8 7.5 22.5-.5 15-39.5 13.5 8 9 24M858 579.5l11 5 11.5-2 9-16L908 561l23.5 1.5 82-17 97.5-28M934.5 580c-.5-1.5-5-34-5-34M943 578.5c-.5-1.5-8.5-34.5-8.5-34.5l-55 18M865 560l21.5-12M884 546l11-4.5-6.5-17.5M895 541.5l12.5 9.5.5 10M981.5 516l-2 21.5-19 2-11-1.5-15 6M981.5 571.5l-2-34 56-4.5 35-20.5M883.5 507.5l9 10.5 16-27M1038.5 430.5l10.5 6 79.5-8.5M564.5 257.5L588 318l-1.5 71.5M272.5 560.5L340 596M399 507l12.5-55-18.5-16-99.5 34-1 25M367.5 444.5l-20-65.5 18.5-43.5-13-89.5"/></g><g><path fill="#B9252D" d="M901.1 109.5c1-1.6 1.6-3.5 1.6-5.5 0-5.7-4.6-10.4-10.4-10.4-5.7 0-10.4 4.6-10.4 10.4 0 2.2.7 4.2 1.8 5.8l8.6 10.4 8.8-10.7z"/><text transform="translate(887.756 108.283)" fill="#fff" font-family="'Helvetica-Bold'" font-size="12.497">A</text></g><g><path fill="#fff" d="M866.2 265.4c15.5-5.1 7.6-19.3 7.6-19.3s-4.9 1.1-7.6-.2c-2.7 1.3-7.6.2-7.6.2s-7.8 14.2 7.6 19.3z"/><path fill="#0EA9D6" d="M874.3 250.3s3.6 10-8.1 13.9c-11.7-3.9-8.1-13.9-8.1-13.9h16.2z"/><path fill="#D72631" d="M866.2 249.4h7.8s-.3-1.4-.8-1.9c0 0-4.2.6-7-.3-2.9 1-7 .3-7 .3-.5.5-.8 1.9-.8 1.9h7.8z"/><text transform="translate(861.168 258.517)" fill="#fff" font-family="'HelveticaNeue-Bold'" font-size="8.713">87</text><path fill="#fff" d="M695.6 179.3c15.5-5.1 7.6-19.3 7.6-19.3s-4.9 1.1-7.6-.2c-2.7 1.3-7.6.2-7.6.2s-7.9 14.1 7.6 19.3z"/><path fill="#0EA9D6" d="M703.6 164.1s3.6 10-8.1 13.9c-11.7-3.9-8.1-13.9-8.1-13.9h16.2z"/><path fill="#D72631" d="M695.6 163.3h7.8s-.3-1.4-.8-1.9c0 0-4.2.6-7-.3-2.9 1-7 .3-7 .3-.5.5-.8 1.9-.8 1.9h7.8z"/><text transform="translate(690.502 172.351)" fill="#fff" font-family="'HelveticaNeue-Bold'" font-size="8.713">88</text><path fill="#fff" d="M953.9 210.1c15.5-5.1 7.6-19.3 7.6-19.3s-4.9 1.1-7.6-.2c-2.7 1.3-7.6.2-7.6.2s-7.9 14.2 7.6 19.3z"/><path fill="#0EA9D6" d="M962 194.9s3.6 10-8.1 13.9c-11.7-3.9-8.1-13.9-8.1-13.9H962z"/><path fill="#D72631" d="M953.9 194.1h7.8s-.3-1.4-.8-1.9c0 0-4.2.6-7-.3-2.9 1-7 .3-7 .3-.5.5-.8 1.9-.8 1.9h7.8z"/><text transform="translate(948.835 203.184)" fill="#fff" font-family="'HelveticaNeue-Bold'" font-size="8.713">90</text></g><text transform="translate(882.81 148.031)" fill="#877C6C" font-family="'HelveticaNeue-Bold'" font-size="10">ALBANY</text><text transform="translate(830.81 573.531)" fill="#877C6C" font-family="'HelveticaNeue-Bold'" font-size="10">NEW YORK</text></svg>