<svg xmlns="http://www.w3.org/2000/svg" viewBox="193 18.6 940 570" enable-background="new 193 18.6 940 570"><g><path fill="#A2DDF5" d="M193 18.6h942v570H193z"/><path fill="#F6F0EF" d="M920.4 16.3c9.3 18.2 18.6 36.5 28 54.7 2.4 4.7 4.8 9.7 4.2 14.8-.4 3.6-2.3 6.8-3.9 10-9.3 18.6-10.4 41.2-3 60.6-6.2-.7-8.3-8.4-8.9-14.6-2.4-25.6-3.1-51.4-1.9-77-5.2 8-9.3 16.9-11.8 26.2-5.4-4.8-5.3-13-5.9-20.2-.6-7.2-3.8-15.7-10.9-16.7 5.6 36.8 20.1 71.6 34.5 105.9 17.6 42 35.2 84.1 52.7 126.1 3.4 8.1 6.8 16.3 11.2 23.9 4.6 7.9 10.2 15.2 14.7 23.2 16.2 28.4 17.6 62.5 18.5 95.1.5 16.2 1 32.5-1.4 48.5-5.1 33.6-22.8 66.1-17.8 99.7.5 3.2 1.1 6.8-.7 9.5-2 2.9-5.9 3.5-9.4 3.8-13.5 1.2-27 1.8-40.5 1.9l-171.6.5c-5.7-7-11.7-14.1-19.5-18.7-7.8-4.6-18-6.2-25.8-1.6-8.3-13.5-13.6-28.9-15.2-44.7-1.4-13.6-.3-27.6-4.9-40.5-3.2-8.9-9.1-16.7-11.3-25.8-2.3-9.5-.3-20 5.4-28-8.5 3.9-17 7.8-25.4 11.8-10.1-25.4-8.8-55.1 3.4-79.6-9.1 3.6-19.1 5-28.9 4-4.9 6.2 4.7 16.9-.7 22.7-4.1 4.4-11.4.2-15.6-4.1-21.5-21.9-39.1-47.6-51.8-75.5-1-2.3-2-4.7-1.8-7.1.3-2.4 1.8-4.5 2.2-6.9 1.1-5.9-4-10.8-8.2-15.1-4.2-4.3-7.9-11.1-4.2-15.8 1.6-2 4.2-3 6.2-4.6 6.3-5.2 4.9-15.2 8-22.8 3.7-9.3 13.6-14.3 20.1-21.9s6.8-22.7-3-24.5c.3 5.2.5 10.3.8 15.5-2.9-.7-5.7-1.4-8.6-2 1.3-14.2-7.2-28.9-20.3-34.7-1.2-.5-2.4-1-3.7-.8-3 .4-4.4 4.3-3.5 7.2.9 2.9 3.2 5.1 5.2 7.4 8.1 9.6 10.5 23.6 6 35.3-.7 1.7-1.6 3.5-3.2 4.4-2.5 1.4-5.6.3-8.2-1.1-18.9-10-30.6-32.1-28.3-53.4.7-6.1 2.3-12 4-17.9 3.3-11.5 6.6-23.1 9.9-34.6 5.5-19.4 11.1-39 12.2-59.2.8-15-.7-30.7 5.8-44.2 23.8-3.1 47.6-6.1 71.5-9.2l255.3 10.1z"/><path fill="#A2DDF5" d="M873.9 357c4.1-.8 8.1-2.5 11.2-5.3 4.3-3.9 6.4-9.5 9.1-14.7s6.5-10.3 12.1-11.7c8.7-2.2 16.8 5.6 21.1 13.5 5.4 9.9 8.3 20.9 10.1 32 .8 5.3 1.4 10.8.2 16-1.6 7-6.3 12.8-10.8 18.4-2.4 2.9-4.8 5.9-7.9 7.9-9.3 6-22.4 1.9-29.9-6.2s-10.8-19.2-13.9-29.8c-.6 2.4-3.7 3.5-6 2.9-2.4-.7-4.2-2.6-5.8-4.6-2.9-3.5-5.5-8.3-3.5-12.4 2.2-4.9 8.8-5 14-6z"/></g><g fill="#DEECD2"><path d="M804 224.4c-1.5-1.1-3.3-2-4.4-3.6s-1.3-4 .3-5.1c4.3 2.2 10.2.7 12.8-3.3 1.1-1.6 1.7-3.6 2.8-5.2 3.2-4.7 10.1-5.7 15.2-3.3 5.2 2.3 8.7 7.2 11.2 12.3 2.5 5.1 4.1 10.6 6.6 15.6 1 2 2.1 3.9 2.2 6.1.4 7.5-10.5 11.1-11.7 18.5-.9 5.6 4 10.1 7.6 14.5 3.1 3.9 5.6 8.8 4.6 13.7-1 4.9-6.7 8.8-11.1 6.5.9-5 1.1-10 .7-15.1-.7-7.6-4.1-16-11.5-18.1-6-1.7-13.8 1.2-17.7-3.6-2.3-2.8-2-6.9-4-9.8-1.7-2.5-4.7-3.7-7.5-4.9s-5.7-2.8-6.8-5.6c-1.1-2.8.9-6.8 3.8-6.4 1.3.2 2.3 1.1 3.1 2.1 1.6 1.9 2.8 4.1 4.5 5.8 1.7 1.7 4.4 2.9 6.7 2-.3-5.1-3.2-10.1-7.4-13.1zM853.1 242.2c-.8 3.6-2.2 7.1-4.1 10.3-.8 1.3-1.7 2.9-1.1 4.3.7 1.5 2.7 1.8 4.4 1.8 6.6 0 13.2.1 19.8.1 1.2 0 2.3 0 3.4-.3 2-.6 3.5-2.1 4.9-3.6.5-.5 1.1-1.2 1-1.9 0-.6-.5-1.1-.9-1.6-2-2.2-4-4.4-6-6.5-.8-.9-1.6-1.7-2.7-2.2-1.2-.5-2.5-.5-3.7-.5-4.9 0-9.9.1-15 .1zM829.9 168.8c.6 1.9.9 4 .9 6-4.3-.9-8.6-1.7-12.9-2.6-2-.4-4.6-.5-5.4 1.4-.3.7-.2 1.6-.1 2.3.4 2.8.7 5.6 1.1 8.4.1.5.1.9-.1 1.4-.6 1.5-2.9.7-4.2-.3-2.9-2.3-5.9-4.7-8.2-7.6-2.3-2.9-4-6.5-4-10.3 0-.5 0-1 .3-1.4.3-.6 1.1-1 1.8-1.1 3.8-.8 8 3.1 11.3 1 1.7-1.1 2.3-3.3 3.6-4.8 2.3-2.7 6.8-2.9 9.9-1.1 3.1 1.8 5 5.2 6 8.7zM682.4 208.8c1.4-.5 2.8-.7 4.3-.9 1.5-.1 3.1-.1 4.4.7 1.3.7 2.2 2.3 1.9 3.7s-2.4 2.3-3.5 1.3c-.6 2.1-1.2 4.3-1.8 6.4-3.2.4-5.8-2.6-7.6-5.3-.5-.7-1-1.5-1.1-2.4-.2-1.7 1.7-2.9 3.4-3.5zM681.5 315.2c-.4.2-.8.4-1.2.5.4 3.9-2.7 7.5-2.2 11.3.3 2 1.5 3.7 2.4 5.5.9 1.8 1.5 4 .4 5.7-1.2 1.8-3.6 2.2-5.8 2.4-4.4.4-8.8.7-13.2 1.1-5.8.5-12 .9-17.2-1.8-1.8-3.8-3.7-7.8-3.7-12 0-5.1 2.7-9.9 5.8-14 1.4-1.8 2.9-3.6 4.8-4.9 4.2-2.9 9.7-3.2 14.8-3.1 3.4.1 6.8.2 10.1.5 1.6.1 3.4.4 4.4 1.7 1.4 2 0 4.8.6 7.1zM722.1 403.3c-1.3 1.8-2 4.1-3.3 5.9-3.6 5.1-12.4 5.3-16.3.3l7.5-29.4c.5-2 1.1-4.2 2.6-5.7 2-2 5.2-2.2 8-2.3 9.6-.3 19.2-.6 28.8-.8 3-.1 6.2-.2 9 .9s5.4 3.6 5.5 6.6c5.6-.3 10.8 3.6 13.5 8.5 2.7 4.9 3.6 10.6 4.3 16.2.3 2.3.5 4.8-.9 6.6-1.5 1.9-4.3 2.1-6.8 2.2-2.4 0-5 0-7.1-1.3-1.9-1.3-2.9-3.4-4.3-5.2-5.3-6.9-15.3-7.6-24-7.7-5.9-.1-12.9.3-16.5 5.2zM835.9 455.2c-.7 2.8-3.5 4.5-6.3 5.1-4.4 1.1-9.1.1-13-2.2s-6.7-6.2-8.3-10.4c-.7-2-1.2-4.1-.9-6.1.3-2.1 1.5-4.1 3.3-5 .7-.3 1.4-.5 2.2-.4.5.1.9.2 1.4.4 5.2 2.2 10.1 5.1 14.8 8.2 1.9 1.2 3.7 2.5 5.1 4.2 1.5 1.7 2.3 4 1.7 6.2zM781.9 468.6c.3 1.1.6 2.4-.1 3.3-.4.6-1.1.8-1.8 1.2-2.1 1.3-3 3.9-3.4 6.4-.4 2.5-.5 5.1-1.6 7.3-1.3 2.6-4 4.3-6.8 5.2-2.8.8-5.8.9-8.7 1-.8 0-1.8 0-2.5-.4-.6-.4-.9-1-1.3-1.6-1.4-1.8-3.6-2.7-5.3-4.3-3-2.8-3.5-7.3-3.9-11.5-.1-1.7-.3-3.5.6-5 .8-1.5 2.5-2.3 4.1-3 8-3.3 16.9-4.5 25.5-3.4 1 .1 2 .3 2.8.8 1.4.8 1.9 2.5 2.4 4zM876.7 466.1c1.8-3.3 6.3-3.8 10-3.7 3.4.2 7.3 1 9 3.9 1.3 2.2 1.1 4.9.7 7.5-.6 4.7-1.1 9.4-1.7 14.1-1.9.8-4.1.3-6-.6-6.1-2.6-10.9-8.3-12.5-14.7-.4-2.1-.6-4.5.5-6.5zM962.7 390.4c-6.7-.7-12.8-5.1-15.6-11.3-1.3-2.9-1.8-6.1-2.1-9.3-.2-1.8-.2-3.8.6-5.4 1-1.9 3-3.1 5-3.9 1.1-.5 2.2-.9 3.3-.8 1.2.1 2.3.8 2.6 1.9s-.7 2.5-1.8 2.3c-.6 3.5 2.4 6.7 5.6 8.3 1 .5 2.1 1 2.7 1.9.6.8.7 1.8.9 2.7.5 3.4 1 6.9 1.6 10.3.1.9.2 2-.4 2.7-.5.7-1.5.7-2.4.6zM967 427.3c.9-1.1 2.2-1.9 3.5-2.5 5.7-2.9 11.9-4.6 18.2-5.2-1.4 5.2 1.2 10.7 4.5 15 3.3 4.3 7.4 8.1 9.5 13.1 1.9 4.4 2.1 9.4 2.3 14.2.3 7.4.2 15.7-5.1 20.8-2.2 2.2-5.3 3.6-6.9 6.3-1.5 2.7-1.3 6-2.2 8.9-1.4 4.3-5.2 7.3-8.5 10.4-7.5 7-13.1 16-16.3 25.8-1.6 5.1-2.6 10.6-5.8 15-2.7 3.8-6.7 6.4-10.3 9.4-5.6 4.6-10.4 10.3-14.3 16.5-3.9 6.2-7.1 13.2-13.2 17.4-5 3.5-11.3 4.5-17.3 5.4-15.1 2.3-30.2 4.5-45.4 5.6-9.7.7-20.1.7-28.3-4.6-4.1-2.7-7.3-6.5-11.1-9.6-10.5-8.4-24.9-10.8-35.2-19.4-7.3-6.1-11.9-14.9-16.3-23.4-3.2-6.2-6.4-13.7-3.1-19.8 1.6-2.9 4.4-4.9 7.1-6.7 9.1-6.4 18.4-12.8 29-16.3 8.8-2.9 18.2-3.7 27.5-4.4 8-.6 16-1.3 23.9-1.9 8.2-.6 16.6-1.3 24.7-.2 3.7.5 7.6 1.5 10.2 4.2 3 3.1 3.5 7.8 3.9 12 .5 5.4 1 10.8 1.4 16.3.5 5.9 1.4 12.4 6 16.1 5.7 4.5 15.6 1.1 17.3-5.9 1.2-4.8-1-10 .6-14.7 1.7-5.1 7.5-8.1 8.7-13.4 1.5-6.2-4-11.8-9.3-15.4-5.6-4-11.6-7.5-17.8-10.5-2.2-1-4.4-2.1-6-3.9-1.5-1.8-2.1-4.8-.6-6.6 2.1-2.6 6.3-1.6 9.1-3.3 2.4-1.4 3.4-4.4 5.5-6.3 1.6-1.5 3.8-2.1 5.9-2.7 7.1-1.8 14.4-2.6 21.7-2.5 6 .1 12.3.9 17.7-1.7 9-4.3 11.6-15.6 12.7-25.5.6-2.1.8-4.3 2.1-6zM932.5 254.5c-2.9 3.1-7.7 2.8-11.9 2.4-3.5-.4-7.2-.9-9.9-3.2-1.9-1.6-3-4-4-6.3-3.4-8.1-5.6-17.1-3.7-25.6 1.9-8.6 8.7-16.5 17.4-17.4 1.6-.2 3.3-.1 4.8.5 4.6 1.7 6.4 8.4 3.3 12.2-.8 2.5-1.6 5-1.6 7.6 0 2.6.9 5.3 2.9 7 2.1 1.7 5.1 1.9 7.9 2.2.6 0 1.2.1 1.6.4 1.2.8.8 2.6.2 3.9-1.6 4-3.1 8-4.7 12-.6 1.5-1.2 3.1-2.3 4.3zM915.5 143.8c-.6 2-3 3.1-5.1 2.9s-4-1.3-5.8-2.4c-2.4-1.5-4.8-3.1-6.6-5.3-2.8-3.4-3.9-8.2-3-12.5.3-1.4.8-2.8 1.9-3.6.8-.7 1.9-1 2.6-1.8.7-.8.9-2 1-3 .4-4.3.5-8.6.1-12.9.7-1.4 2.6-1.7 4-1.2s2.5 1.6 3.6 2.7c3.2 3.4 6.6 7.2 6.8 11.8 0 1-.1 2-.5 2.8-.7 1.3-2.1 2-3.2 3-2.8 2.5-3.4 7-1.4 10.2 1.1 1.6 2.6 2.8 3.9 4.2 1.3 1.3 2.3 3.3 1.7 5.1zM886.6 16.4c.8.1 1.5.5 2.1 1.1 3.4 2.9 4.4 8 3.9 12.5s-2.1 8.8-3 13.2c-.6 3.1-.7 6.2-.9 9.4-.1 2.3-.1 5 1.5 6.6 1.3 1.3 3.5 1.7 4.2 3.4 1.1 2.6-2.3 4.8-5 5.6-11.6 3.7-23.3 7.4-34.9 11.1-.4.1-.8.2-1.2.2-1.3 0-2.3-1.5-2.2-2.8.1-1.3 1-2.4 2-3.3 2.6-2.2 5.9-3.2 9-4.5 3.1-1.4 6.2-3.5 7.1-6.7.9-3.2-.4-6.5-1.2-9.7-.8-3.1-1-6.4-.8-9.6.3-4.8 1.5-9.4 2.7-14.1.3-1.3.7-2.6 1.5-3.7s2.1-1.9 3.4-2.6c2.9-1.7 5.9-3.4 8.8-5.1 1-.6 2-1.1 3-1zM677.8 74c-.1-4.8 1-10.7 5.6-12.2 3-1 6.2.4 9.3.9 7.2 1.2 14.3-2.3 21.6-2.1 3 .1 6.7 1.9 6.2 4.8-.3 1.8-2 2.8-3.1 4.3-1.7 2.3-1.5 5.5-1 8.3 1.3 7.1 4.3 13.7 6.2 20.7s2.6 14.7-.6 21.1c-2 3.9-5.2 7.1-8.4 10.1-3.3 3.1-6.8 6.2-11 8-4.2 1.8-9.3 2.1-13.1-.4-3.5-2.2-5.3-6.3-6-10.4-.7-4.1-.4-8.2-.5-12.3-.2-13.7-4.8-27.1-5.2-40.8zM654 57.1c2.1-3.9 7.3-5.2 11.7-4.5 3.6.6 7.4 2.5 8.8 5.9.3.8.5 1.6.4 2.5-.1 1.2-.7 2.3-1.2 3.3-1.4 3.3-2.1 7.5-5.4 8.7-2.1.8-4.4.1-6.4-.9-2.8-1.4-5.5-3.3-7.2-6-1.6-2.6-2.1-6.2-.7-9zM619.9 25.2c-.7-3.4-1.4-7-.1-10.2 1.5-3.7 5.4-5.9 9.2-7.4 3.9-1.5 8.5-2.6 12.1-.4.4.3.8.7 1.2 1 1.8 1.6 3.1 3.7 3.9 5.9 2.1 5.8.4 12.1-1.3 18-1.2 4.1-2.7 8.7-6.4 10.8-4.4 2.4-10.2.1-13.3-3.8-3.1-3.9-4.2-9-5.3-13.9zM595.4 24.3c1.3-4.9 3.2-10 7.4-12.8.8-.5 1.7-1 2.7-.8 1.2.3 1.9 1.6 2.4 2.8 6.6 17 6.5 36 2.8 53.8-.8 3.7-1.7 7.4-3.7 10.5s-5.3 5.7-9.1 5.9c-1.3.1-2.6-.1-3.6-.9-2.3-1.5-2.5-4.7-2.6-7.4-.3-17.1-.6-34.5 3.7-51.1zM603.9 122c2.2.2 4.4.4 6.5.7 1.4.1 3 .3 4.1 1.2 1.8 1.3 2.3 3.9 1.7 6.1-.7 2.2-2.3 3.9-4 5.4-4.2 1.6-8.6-1.7-11.9-4.7-1.9-1.8-4.1-4.4-2.8-6.7 1.2-2.2 4.1-2.2 6.4-2zM637.4 160c-.6-1.6.2-3.4 1.2-4.8 4.3-6.2 12.2-9.6 19.6-8.6.9.1 1.8.3 2.5.8.6.4 1 1 1.4 1.7 1.6 2.8 2.5 6.1 2.5 9.4-6.8 3-14.2 4.4-21.6 4.1-2.2 0-4.8-.5-5.6-2.6z"/></g><g stroke="#F4E6D7" stroke-width="4" stroke-miterlimit="10" fill="none"><path d="M591.3 205.3l-9.3-14 1.3-69.3 24-47.3 4-56.1M627 284l104.3 37.3 122-.6 61.4-7.4L990 280M1008 562.7l-20.7.6-.6 25.3M698 165.3l8 7.4 29.3-3.4v-26.6M815.3 22l8 .7 12 22.6-10.6 23.4M610 31.5l29.3 39.8 38 7.4 52-17.4 27.4-42.7M696 18.6L672 102l4.7 36-30 26.7M675.3 112l34.7 30.7-1.3 13.3M750 56.7l18.7 98.6 25.3 114 28 54 1.3 51.4 36 34 70 19.3 41.4 95.3M929.3 428l14.7-49.3-15.3-49.4-66-40.6-62.7-8M824.7 68.7l67.6-1"/></g><g stroke="#F4D8B3" stroke-width="4" stroke-miterlimit="10" fill="none"><path d="M1016.7 534.7L962 522l-136-1.3-76.7-2.7L738 414l-26-26-14-30.7-16.7-16.6-41.3-.7-20.7-88-22-2.7-4.6-50 31.3-20.6 25.3 7.3-9.3 43.3-20.7 22.7M614.7 182.7l-3.4-80 14.7-16-6.5-68.1M566 178.7h62c.7-2.7 2-25.3 2-25.3l62.5-135.8M632 181l66-15.7 37.3-22.6 32-12L810 70l-1.3-30.7 8-23.3M776 118.7l-12-34L782 69M706 17l59.3 51.7h75.4M781.3 110.7L836.7 96l-5.4-27.3M795.3 91.3l100-3.3M793.3 70l35.4 83.3 48 64 34 40 29.3 2 28 13.4M888.7 18.6l6.6 69.4 28 67.3L950 208l18 64.7 64.7 148.6-26 167.3M1019.5 392l-7.5 40-1.3 60-18.7 4-12.7 37.3-4 55.3M848.8-26"/></g><g><path fill="#B9252D" d="M1016 426.4c1-1.6 1.6-3.5 1.6-5.5 0-5.7-4.6-10.4-10.4-10.4-5.7 0-10.4 4.6-10.4 10.4 0 2.2.7 4.2 1.8 5.8l8.6 10.4 8.8-10.7z"/><text transform="translate(1002.704 425.145)" fill="#fff" font-family="'Helvetica-Bold'" font-size="12.497">A</text></g><g><path fill="#fff" d="M866.2 530c15.5-5.1 7.6-19.3 7.6-19.3s-4.9 1.1-7.6-.2c-2.7 1.3-7.6.2-7.6.2s-7.9 14.2 7.6 19.3z"/><path fill="#0EA9D6" d="M874.3 514.8s3.6 10-8.1 13.9c-11.7-3.9-8.1-13.9-8.1-13.9h16.2z"/><path fill="#D72631" d="M866.2 514h7.8s-.3-1.4-.8-1.9c0 0-4.2.7-7-.3-2.9 1-7 .3-7 .3-.5.5-.8 1.9-.8 1.9h7.8z"/><text transform="translate(861.127 523.088)" fill="#fff" font-family="'HelveticaNeue-Bold'" font-size="8.713">75</text><path fill="#fff" d="M988.2 328c15.5-5.1 7.6-19.3 7.6-19.3s-4.9 1.1-7.6-.2c-2.7 1.3-7.6.2-7.6.2s-7.9 14.2 7.6 19.3z"/><path fill="#0EA9D6" d="M996.3 312.8s3.6 10-8.1 13.9c-11.7-3.9-8.1-13.9-8.1-13.9h16.2z"/><path fill="#D72631" d="M988.2 312h7.8s-.3-1.4-.8-1.9c0 0-4.2.7-7-.3-2.9 1-7 .3-7 .3-.5.5-.8 1.9-.8 1.9h7.8z"/><text transform="translate(983.127 321.088)" fill="#fff" font-family="'HelveticaNeue-Bold'" font-size="8.713">95</text><path fill="#fff" d="M643.2 234c15.5-5.1 7.6-19.3 7.6-19.3s-4.9 1.1-7.6-.2c-2.7 1.3-7.6.2-7.6.2s-7.9 14.2 7.6 19.3z"/><path fill="#0EA9D6" d="M651.3 218.8s3.6 10-8.1 13.9c-11.7-3.9-8.1-13.9-8.1-13.9h16.2z"/><path fill="#D72631" d="M643.2 218h7.8s-.3-1.4-.8-1.9c0 0-4.2.6-7-.3-2.9 1-7 .3-7 .3-.5.5-.8 1.9-.8 1.9h7.8z"/><text transform="translate(638.127 227.088)" fill="#fff" font-family="'HelveticaNeue-Bold'" font-size="8.713">75</text></g><text transform="translate(937.333 404)" fill="#877C6C" font-family="'HelveticaNeue-Bold'" font-size="10">WEST PALM BEACH</text></svg>