<svg xmlns="http://www.w3.org/2000/svg" viewBox="351.6 15.9 930 500" enable-background="new 351.6 15.9 930 500"><path fill="#F6F0EF" d="M346.1 7.1h940v516.5h-940z"/><path stroke="#F4E6D7" stroke-width="4" stroke-miterlimit="10" d="M723.7 10.4C734 18 744 24 755 31c6 5 12 10 19 13 13 8 28 9 41.8 12.6M806.4 138C751 109 695 82 639.1 54.6c12.1-10.6 24.1-21.2 36.2-31.8 4.7-4.1 9.4-8.2 14.1-12.4M639.1 54.6C590 50 542 46 493 41c-1 0-2 0-3 1-10 11-18 24-29 33-30 7-59 15-89 25-9 3-15 12-22.5 18.4M349.5 219.4C353 224 358 228 362 232c5 42 10 85 15.8 126.6M349.6 284.7C360 283 369 284 379 284c14 0 28 4 42 4 33-13 66-24 98-38 2-1 5-1 7-1 10 2 19 3 29 4 3 0 6 2 9 2 14 1 27 4 40 5 5 0 10 1 15 1 6 1 13 4 19 2 33-6 63-19 95-26 14 4 28 10 42 12 12-5 25-10 37.4-14.4M839.8 232l-62.7 54.6-30 82-41.3 10.7L613.1 484l151.3-23.4 45.4-85.3 3.3-90.7 33.3-46.6M810.4 457.3C795 460 779 458 764 461c-3 20-9 39-12.6 59.3M728.4 467.3C718 485 706 502 694.8 520.1M597.8 520.1C603 508 607 496 613 484c-6-5-12-7-19-3-14 8-28 14-43 20-3 1-7-1-10-2-23-13-46-23-70-33-5-2-11-3-16-3-35-1-71-5-105.5-5.2M963.8 520.2C986 411 1007 307 1031 194c4-19 12-35 16-53-3-23-8-47-11.2-70.4M1049.2 10.4C1051 22 1053 33 1054 45c-7 12-17 22-25 35-2 3-4 5-7 7-25 20-48 35-74 54-8 5-17 3-25.6 4.3M1040.4 212l28.7 42 58.7 8M1129.8 217.3l-4 50 15.3 24.7 148 22.6M821.8 147.3C818 136 812 125 808 113c3-23 8-45 11-68 0-8 3-15 3-23 0-4 1-8 2.8-11.4M815.8 70.6c3.3-.7 62 72.7 62 72.7M877.1 131.3C881 122 885 114 889 105c13-32 28-63 44.1-94.5M867.8 228.6C874 234 880 239 886 245c14 11 27 22 41 33 7 6 13 13 20 18 22 31 43 60 66 92 2 3 2 5 4 8 3 4 5 8 8 12 18 32 36 62 54 93 8 6 15 14 22.6 19.2M883.1 218l15.3-1.4 32.7-25.3 73.3-8.7 25.4 19.4M467.8 464.6C462 473 458 482 453 490c3 10 6 20 9 30.1M466.4 462l17.4-58-3.4-60.7 22-36.7-16-42.6M635.8 56.6l-6 62s-98 31.3-100 32.7c-2 1.3-46 113.3-46 113.3M956.6 119.3l54.5-25" fill="none"/><g stroke="#F4D8B3" stroke-width="4" stroke-miterlimit="10" fill="none"><path d="M921.6 10.4C917 17 915 25 911 33c-5 9-9 17-14 26-8 17-16 33-24 49 3 15 4 31 7 46-9 14-18 28-27.6 42-2.8-7.9.5-.8 0 0-2.4-11-8.4-20-10.4-32-1-2-2-4-3-5-34-23-64-40-98-64-4-2-8-3-12-6-2-2-4-3-7-5-27-24-51-49-76.5-73.5"/><path d="M819.1 225.3V192l34-11.4 29.3 11.4 1.4 37.3zM852.4 196l5.4 16.6 8-26.6M855.1 202l-18.7 24 19.4 18.6 14.6-5.3-2.6-11.3M851.8 227.3l7.3 29.3-28.7 120M819.1 225.3s-28 36-30 36-57.3-4-57.3-4l-55.3 28 76 88 86.7 2.7 125.3-28 14.7-90.7 29.3-43.3M883.8 229.3l14.6.7 22.7-12.7 110.7-2.7 37.3-10 46.7 16 43.3-8 129.3 20.7M870.4 239.3C875 245 879 252 883 258c7 10 14 17 19 27 21 20 40 42 61 63 11 12 21 23 32 34 17 34 37 66 54 100 11 14 26 25 38.4 38.3M830.4 376.6C823 415 814 451 807 490c-2 10 0 20 1.8 30.3M676.4 285.3C650 290 624 294 598 299c-29 16-55 34-84 51-2 1-5 2-7 2-10-1-20-2-30-1-29 2-58 0-87 1-13 9-27 17-40.6 24.9M876.4 157.3l51.4-14.7 28.6-24"/></g><g><path fill="#B9252D" d="M924.5 135.2c1-1.6 1.6-3.5 1.6-5.5 0-5.7-4.6-10.4-10.4-10.4-5.7 0-10.4 4.6-10.4 10.4 0 2.2.7 4.2 1.8 5.8l8.6 10.4 8.8-10.7z"/><text transform="translate(911.157 133.921)" fill="#fff" font-family="'Helvetica-Bold'" font-size="12.497">A</text></g><path fill="#fff" d="M705.9 281.3c15.5-5.1 7.6-19.3 7.6-19.3s-4.9 1.1-7.6-.2c-2.7 1.3-7.6.2-7.6.2s-7.8 14.1 7.6 19.3z"/><path fill="#0EA9D6" d="M714 266.1s3.6 10-8.1 13.9c-11.7-3.9-8.1-13.9-8.1-13.9H714z"/><path fill="#D72631" d="M706 265.3h7.8s-.3-1.4-.8-1.9c0 0-4.2.6-7-.3-2.9 1-7 .3-7 .3-.5.5-.8 1.9-.8 1.9h7.8z"/><text transform="translate(700.878 274.376)" fill="#fff" font-family="'HelveticaNeue-Bold'" font-size="8.713">40</text><path fill="#fff" d="M775.9 128.9c15.5-5.1 7.6-19.3 7.6-19.3s-4.9 1.1-7.6-.2c-2.7 1.3-7.6.2-7.6.2s-7.8 14.2 7.6 19.3z"/><path fill="#0EA9D6" d="M784 113.8s3.6 10-8.1 13.9c-11.7-3.9-8.1-13.9-8.1-13.9H784z"/><path fill="#D72631" d="M776 113h7.8s-.3-1.4-.8-1.9c0 0-4.2.7-7-.3-2.9 1-7 .3-7 .3-.5.5-.8 1.9-.8 1.9h7.8z"/><text transform="translate(770.878 122.042)" fill="#fff" font-family="'HelveticaNeue-Bold'" font-size="8.713">24</text><path fill="#fff" d="M871.3 113.3c15.5-5.1 7.6-19.3 7.6-19.3s-4.9 1.1-7.6-.2c-2.7 1.3-7.6.2-7.6.2s-7.9 14.1 7.6 19.3z"/><path fill="#0EA9D6" d="M879.3 98.1s3.6 10-8.1 13.9c-11.7-3.9-8.1-13.9-8.1-13.9h16.2z"/><path fill="#D72631" d="M871.3 97.3h7.8s-.3-1.4-.8-1.9c0 0-4.2.7-7-.3-2.9 1-7 .3-7 .3-.5.5-.8 1.9-.8 1.9h7.8z"/><text transform="translate(866.212 106.376)" fill="#fff" font-family="'HelveticaNeue-Bold'" font-size="8.713">65</text><path fill="#fff" d="M846.9 317.6c15.5-5.1 7.6-19.3 7.6-19.3s-4.9 1.1-7.6-.2c-2.7 1.3-7.6.2-7.6.2s-7.8 14.2 7.6 19.3z"/><path fill="#0EA9D6" d="M855 302.5s3.6 10-8.1 13.9c-11.7-3.9-8.1-13.9-8.1-13.9H855z"/><path fill="#D72631" d="M847 301.6h7.8s-.3-1.4-.8-1.9c0 0-4.2.6-7-.3-2.9 1-7 .3-7 .3-.5.5-.8 1.9-.8 1.9h7.8z"/><text transform="translate(841.878 310.709)" fill="#fff" font-family="'HelveticaNeue-Bold'" font-size="8.713">65</text><path fill="#fff" d="M958.6 226.3c15.5-5.1 7.6-19.3 7.6-19.3s-4.9 1.1-7.6-.2c-2.7 1.3-7.6.2-7.6.2s-7.9 14.1 7.6 19.3z"/><path fill="#0EA9D6" d="M966.7 211.1s3.6 10-8.1 13.9c-11.7-3.9-8.1-13.9-8.1-13.9h16.2z"/><path fill="#D72631" d="M958.6 210.3h7.8s-.3-1.4-.8-1.9c0 0-4.2.7-7-.3-2.9 1-7 .3-7 .3-.5.5-.8 1.9-.8 1.9h7.8z"/><text transform="translate(953.545 219.376)" fill="#fff" font-family="'HelveticaNeue-Bold'" font-size="8.713">40</text><path fill="#fff" d="M911.7 307.3c15.5-5.1 7.6-19.3 7.6-19.3s-4.9 1.1-7.6-.2c-2.7 1.3-7.6.2-7.6.2s-7.8 14.1 7.6 19.3z"/><path fill="#0EA9D6" d="M919.8 292.1s3.6 10-8.1 13.9c-11.7-3.9-8.1-13.9-8.1-13.9h16.2z"/><path fill="#D72631" d="M911.8 291.3h7.8s-.3-1.4-.8-1.9c0 0-4.2.6-7-.3-2.9 1-7 .3-7 .3-.5.5-.8 1.9-.8 1.9h7.8z"/><text transform="translate(906.678 300.376)" fill="#fff" font-family="'HelveticaNeue-Bold'" font-size="8.713">24</text><text transform="translate(823.561 211.837)" fill="#877C6C" font-family="'HelveticaNeue-Bold'" font-size="10">NASHVILLE</text><text transform="translate(870.561 159.17)" fill="#877C6C" font-family="'HelveticaNeue-Bold'" font-size="10">HENDERSONVILLE</text></svg>