<?xml version="1.0" encoding="utf-8"?>
<!-- Generator: Adobe Illustrator 18.0.0, SVG Export Plug-In . SVG Version: 6.00 Build 0)  -->
<!DOCTYPE svg PUBLIC "-//W3C//DTD SVG 1.1//EN" "http://www.w3.org/Graphics/SVG/1.1/DTD/svg11.dtd">
<svg version="1.1" id="map" xmlns="http://www.w3.org/2000/svg" xmlns:xlink="http://www.w3.org/1999/xlink" x="0px" y="0px"
	 viewBox="351.6 15.9 930 500" enable-background="new 351.6 15.9 930 500" xml:space="preserve">
<g id="land">
	<path fill="#F6F0EF" d="M349.1,14v505.1h933.5v-505c0,0,0-0.1,0-0.1H349.1z"/>
</g>
<polygon fill="#DEECD2" points="372.1,481.6 368.4,475.9 389.8,465.2 395.8,477.6 387.8,490.2 "/>
<polygon fill="#DEECD2" points="427.1,457.2 422.8,478.6 438.8,497.9 485.4,495.9 488.8,482.2 "/>
<path fill="#DEECD2" d="M722.1,354.2l2,15.7c0,0,10.7,6.7,11.7,6s16-9.3,16-9.3l-10-23.7l-5,20.7L722.1,354.2z"/>
<path fill="#DEECD2" d="M995.1,257.2l2.7,17.3l13.7,14c0,0,3.3,15.3,2.3,15.3s-12.7,0.7-12.7,0.7l-16.7-21l2-25.3L995.1,257.2z"/>
<polygon fill="#F4E6D7" points="778.1,173.8 784.4,189.6 784.4,260.4 788.4,280.1 788.4,332.2 803.8,355.8 803.8,437.3 795.1,449.9 
	795.7,519.1 799.7,519.1 799.1,451.2 807.8,438.5 807.8,354.6 792.4,331 792.4,279.9 788.4,260.2 788.4,188.8 782.1,173 777.5,13.9 
	773.5,14.1 778.1,173.5 "/>
<polygon fill="#F4E6D7" points="835.1,519.1 856.4,479.7 861.7,235.6 857.7,235.6 852.4,478.7 830.6,519.1 "/>
<polygon fill="#F4E6D7" points="932,319.6 906.1,300.6 690.3,299.3 690.4,295.3 907.4,296.7 934.3,316.4 "/>
<polygon fill="#F4E6D7" points="1282.6,36.8 1046.4,125.6 1046.4,171.4 1023.1,171.4 1023.1,120.5 1047.7,76.6 1055.1,19.9 
	1051.1,19.1 1043.9,75.2 1019.1,119.4 1019.1,175.4 1050.4,175.4 1050.4,127.5 1282.6,40.1 "/>
<polygon fill="#F4E6D7" points="1282.6,127.6 985,134.7 985.2,138.7 1282.6,131.6 "/>
<polygon fill="#F4E6D7" points="1282.6,221.2 1081,191 1073.2,177.7 996.1,134.5 994.1,138 1070.3,180.7 1078.2,194 1282.6,225 "/>
<polygon fill="#F4E6D7" points="996.5,275.1 996.5,323.4 1048.8,519.1 1052.9,519.1 1000.5,322.9 1000.5,275 994.4,235.3 
	987.1,188.9 983.1,189.5 990.5,235.9 "/>
<polygon fill="#F4E6D7" points="1023.9,519.1 1045,445.9 1111,252.5 1111.1,252.3 1115.1,210.7 1111.1,210.3 1107.1,251.5 
	1041.2,444.7 1019.8,519.1 "/>
<polygon fill="#F4E6D7" points="975.3,241.3 980.1,189 984.1,189.4 979.7,237.2 1110.6,233.6 1110.7,237.6 "/>
<polygon fill="#F4E6D7" points="1062.5,272.6 998.5,272.6 998.5,268.6 1059,268.6 1064.5,227.9 1024.4,190.7 1027.2,187.8 
	1068.7,226.4 "/>
<polygon fill="#F4E6D7" points="943.3,401.5 906,401.5 856.2,362.5 805.5,357.2 806,353.2 857.8,358.6 907.4,397.5 943.3,397.5 "/>
<polygon fill="#F4E6D7" points="942.4,519.1 945.3,366 968.7,337.9 968.7,316.1 964.7,316.1 964.7,336.5 941.4,364.5 938.4,519.1 
	"/>
<polygon fill="#F4E6D7" points="930.5,121.5 908.9,104.9 837.1,93.2 771.5,104.9 770.8,101 837.1,89.2 837.4,89.2 910.6,101.1 
	933,118.4 "/>
<polygon fill="#F4E6D7" points="447.5,68.6 349.1,65.2 349.1,69.2 446.7,72.5 494.2,88.8 495.5,85 "/>
<polygon fill="#F4E6D7" points="403.7,120.3 399.8,119.6 414.5,19.5 418.4,20.2 "/>
<polygon fill="#F4E6D7" points="947.3,132.7 932.6,118 806.9,114.3 781.2,73.9 499.9,73.9 473.3,120.7 400.3,117.9 393.5,141.2 
	349.1,140.6 349.1,144.6 396.5,145.2 403.2,122 475.6,124.8 502.3,77.9 779,77.9 804.6,118.2 930.9,121.9 945.5,136.5 969.9,138.7 
	970.3,134.7 "/>
<polygon fill="#F4E6D7" points="390.4,519.1 373.8,411.4 393,355.9 393.1,355.6 397,143.3 393,143.2 389.1,354.9 369.7,411 
	386.4,519.1 "/>
<path fill="#F4E6D7" d="M523.1,474.4l-5.1-59.7l1.2-0.6c6.7-3.4,14.7-7.3,18.3-8.5c0.4-5.2-1.5-29.7-3.6-52.1l-15.8-4v-59.8h4v56.7
	l15.5,4l0.1,1.4c0,0.1,1.3,13.5,2.4,27c2.2,28,1.4,28.9,0.6,29.9c-0.4,0.4-0.9,0.7-1.5,0.7c-1.5,0.3-9.6,4.1-17,7.8l4.9,57
	L523.1,474.4z"/>
<polygon fill="#F4E6D7" points="600.5,413.2 539,409.2 539.2,405.2 596.7,408.9 601.4,300.2 605.4,300.4 "/>
<g id="roads">
	<polygon fill="#F4D8B3" points="1111.2,303.6 1092.4,232.5 963,152.9 965.1,149.5 1095.8,229.9 1115,302.6 	"/>
	<polygon fill="#F4D8B3" points="1282.6,18.9 1281.7,18 1010.2,148.2 1005.3,187.2 987.1,187.2 987.1,123.6 1022.1,90.1 
		1022.1,19.5 1018.1,19.5 1018.1,88.4 983.1,121.9 983.1,191.2 1008.9,191.2 1014,150.2 1282.6,21.8 	"/>
	<polygon fill="#F4D8B3" points="972.1,149.3 968.1,149.1 974.1,19.4 978.1,19.6 	"/>
	<polygon fill="#F4D8B3" points="962.9,151.2 895.9,145.2 786.9,133.1 766,98.2 718.7,98.2 718.7,94.2 768.2,94.2 789.3,129.3 
		896.3,141.2 963.3,147.2 	"/>
	<polygon fill="#F4D8B3" points="525.5,519.1 527.1,475.2 673.9,348.9 679,322.3 675.1,321.6 670.3,346.8 523.1,473.3 521.5,519.1 	
		"/>
	<polygon fill="#F4D8B3" points="1282.6,297.7 972,313.8 786.1,324.2 679,320 679,301.4 690.2,300.5 689.9,296.6 675,297.7 
		675,323.9 786,328.2 786.1,328.2 972.3,317.8 1282.6,301.9 	"/>
	<polygon fill="#F4D8B3" points="698.8,269.5 694.8,269.6 695.3,305.3 653.4,305.3 640.5,301.1 552.5,294.4 519.4,220.2 
		484.8,220.2 349.1,86.6 349.1,92.2 482.8,223.7 483.3,224.2 516.8,224.2 549.8,298.2 639.7,305.1 652.8,309.3 699.3,309.3 	"/>
	<polygon fill="#F4D8B3" points="963,147.2 962.1,147.3 900.9,222.5 763.7,259.3 657.8,271.5 648.8,290.5 449.1,287.6 448.9,287.6 
		349.1,313 349.1,317.2 449.3,291.6 651.4,294.5 660.4,275.2 764.3,263.3 903.2,226 964.1,151.2 1282.6,145.4 1282.6,141.4 	"/>
	<polygon fill="#F4D8B3" points="750.7,519.1 689.4,363.4 689.4,311.4 723.7,149.6 723.8,149.4 717,13.9 713,14.1 719.8,149.1 
		685.4,310.8 685.4,364.1 746.4,519.1 	"/>
</g>
<g id="marker">
	<path id="pin_31_" fill="#B9252D" d="M688.1,278.6c1-1.6,1.6-3.5,1.6-5.5c0-5.7-4.6-10.4-10.4-10.4s-10.4,4.6-10.4,10.4
		c0,2.2,0.7,4.2,1.8,5.8l8.6,10.4L688.1,278.6z"/>
	<text id="id" transform="matrix(1 0 0 1 674.7937 277.3636)" fill="#FFFFFF" font-family="'Helvetica-Bold'" font-size="12.4974">A</text>
</g>
<g id="marker_30_">
	<path id="pin_30_" fill="#B9252D" d="M705.5,260c1-1.6,1.6-3.5,1.6-5.5c0-5.7-4.6-10.4-10.4-10.4s-10.4,4.6-10.4,10.4
		c0,2.2,0.7,4.2,1.8,5.8l8.6,10.4L705.5,260z"/>
	
		<text id="id_30_" transform="matrix(1 0 0 1 692.1443 258.7209)" fill="#FFFFFF" font-family="'Helvetica-Bold'" font-size="12.4974">B</text>
</g>
<g id="marker_29_">
	<path id="pin_29_" fill="#B9252D" d="M707.8,299.9c1-1.6,1.6-3.5,1.6-5.5c0-5.7-4.6-10.4-10.4-10.4s-10.4,4.6-10.4,10.4
		c0,2.2,0.7,4.2,1.8,5.8l8.6,10.4L707.8,299.9z"/>
	
		<text id="id_29_" transform="matrix(1 0 0 1 694.4951 298.6526)" fill="#FFFFFF" font-family="'Helvetica-Bold'" font-size="12.4974">C</text>
</g>
<g id="marker_28_">
	<path id="pin_28_" fill="#B9252D" d="M968.4,164.9c1-1.6,1.6-3.5,1.6-5.5c0-5.7-4.6-10.4-10.4-10.4c-5.7,0-10.4,4.6-10.4,10.4
		c0,2.2,0.7,4.2,1.8,5.8l8.6,10.4L968.4,164.9z"/>
	
		<text id="id_28_" transform="matrix(1 0 0 1 955.0926 163.5946)" fill="#FFFFFF" font-family="'Helvetica-Bold'" font-size="12.4974">K</text>
</g>
<g id="marker_27_">
	<path id="pin_24_" fill="#B9252D" d="M1002.4,110.9c1-1.6,1.6-3.5,1.6-5.5c0-5.7-4.6-10.4-10.4-10.4c-5.7,0-10.4,4.6-10.4,10.4
		c0,2.2,0.7,4.2,1.8,5.8l8.6,10.4L1002.4,110.9z"/>
	
		<text id="id_27_" transform="matrix(1 0 0 1 989.0925 109.5946)" fill="#FFFFFF" font-family="'Helvetica-Bold'" font-size="12.4974">L</text>
</g>
<g id="marker_23_">
	<path id="pin_23_" fill="#B9252D" d="M1020.3,161.9c1-1.6,1.6-3.5,1.6-5.5c0-5.7-4.6-10.4-10.4-10.4c-5.7,0-10.4,4.6-10.4,10.4
		c0,2.2,0.7,4.2,1.8,5.8l8.6,10.4L1020.3,161.9z"/>
	
		<text id="id_23_" transform="matrix(1 0 0 1 1007.995 160.5946)" fill="#FFFFFF" font-family="'Helvetica-Bold'" font-size="12.4974">J</text>
</g>
<g id="marker_22_">
	<path id="pin_22_" fill="#B9252D" d="M984.8,180.9c1-1.6,1.6-3.5,1.6-5.5c0-5.7-4.6-10.4-10.4-10.4c-5.7,0-10.4,4.6-10.4,10.4
		c0,2.2,0.7,4.2,1.8,5.8l8.6,10.4L984.8,180.9z"/>
	
		<text id="id_22_" transform="matrix(1 0 0 1 971.4951 179.5946)" fill="#FFFFFF" font-family="'Helvetica-Bold'" font-size="12.4974">N</text>
</g>
<g id="marker_21_">
	<path id="pin_21_" fill="#B9252D" d="M987.8,149.9c1-1.6,1.6-3.5,1.6-5.5c0-5.7-4.6-10.4-10.4-10.4c-5.7,0-10.4,4.6-10.4,10.4
		c0,2.2,0.7,4.2,1.8,5.8l8.6,10.4L987.8,149.9z"/>
	
		<text id="id_21_" transform="matrix(1 0 0 1 973.4951 149.5946)" fill="#FFFFFF" font-family="'Helvetica-Bold'" font-size="12.4974">M</text>
</g>
<g id="marker_20_">
	<path id="pin_20_" fill="#B9252D" d="M672.1,261.7c1-1.6,1.6-3.5,1.6-5.5c0-5.7-4.6-10.4-10.4-10.4c-5.7,0-10.4,4.6-10.4,10.4
		c0,2.2,0.7,4.2,1.8,5.8l8.6,10.4L672.1,261.7z"/>
	
		<text id="id_20_" transform="matrix(1 0 0 1 658.7649 260.3952)" fill="#FFFFFF" font-family="'Helvetica-Bold'" font-size="12.4974">G</text>
</g>
<g id="marker_19_">
	<path id="pin_6_" fill="#B9252D" d="M669.4,290.9c1-1.6,1.6-3.5,1.6-5.5c0-5.7-4.6-10.4-10.4-10.4c-5.7,0-10.4,4.6-10.4,10.4
		c0,2.2,0.7,4.2,1.8,5.8l8.6,10.4L669.4,290.9z"/>
	
		<text id="id_19_" transform="matrix(1 0 0 1 656.0635 289.6219)" fill="#FFFFFF" font-family="'Helvetica-Bold'" font-size="12.4974">F</text>
</g>
<g id="marker_7_">
	<path id="pin_8_" fill="#B9252D" d="M649.1,300.2c1-1.6,1.6-3.5,1.6-5.5c0-5.7-4.6-10.4-10.4-10.4S630,289,630,294.7
		c0,2.2,0.7,4.2,1.8,5.8l8.6,10.4L649.1,300.2z"/>
	
		<text id="id_7_" transform="matrix(1 0 0 1 638.7934 298.9566)" fill="#FFFFFF" font-family="'Helvetica-Bold'" font-size="12.4974">I</text>
</g>
<g id="marker_6_">
	<path id="pin_7_" fill="#B9252D" d="M687.1,316.2c1-1.6,1.6-3.5,1.6-5.5c0-5.7-4.6-10.4-10.4-10.4S668,305,668,310.7
		c0,2.2,0.7,4.2,1.8,5.8l8.6,10.4L687.1,316.2z"/>
	
		<text id="id_6_" transform="matrix(1 0 0 1 673.7934 314.9566)" fill="#FFFFFF" font-family="'Helvetica-Bold'" font-size="12.4974">H</text>
</g>
<g id="marker_5_">
	<path id="pin_5_" fill="#B9252D" d="M702.1,334.2c1-1.6,1.6-3.5,1.6-5.5c0-5.7-4.6-10.4-10.4-10.4S683,323,683,328.7
		c0,2.2,0.7,4.2,1.8,5.8l8.6,10.4L702.1,334.2z"/>
	
		<text id="id_5_" transform="matrix(1 0 0 1 688.7934 332.9566)" fill="#FFFFFF" font-family="'Helvetica-Bold'" font-size="12.4974">D</text>
</g>
<g id="marker_13_">
	<path id="pin_14_" fill="#B9252D" d="M788.8,135.9c1-1.6,1.6-3.5,1.6-5.5c0-5.7-4.6-10.4-10.4-10.4c-5.7,0-10.4,4.6-10.4,10.4
		c0,2.2,0.7,4.2,1.8,5.8l8.6,10.4L788.8,135.9z"/>
	
		<text id="id_13_" transform="matrix(1 0 0 1 775.4951 134.5946)" fill="#FFFFFF" font-family="'Helvetica-Bold'" font-size="12.4974">P</text>
</g>
<g>
	<path fill="#FFFFFF" d="M820.2,254.8c15.5-5.1,7.6-19.3,7.6-19.3s-4.9,1.1-7.6-0.2h0c-2.7,1.3-7.6,0.2-7.6,0.2
		S804.8,249.7,820.2,254.8L820.2,254.8z"/>
	<path fill="#0EA9D6" d="M828.3,239.7c0,0,3.6,10-8.1,13.9c-11.7-3.9-8.1-13.9-8.1-13.9H828.3z"/>
	<path fill="#D72631" d="M820.3,238.9h7.8c0,0-0.3-1.4-0.8-1.9c0,0-4.2,0.7-7-0.3c-2.9,1-7,0.3-7,0.3c-0.5,0.5-0.8,1.9-0.8,1.9
		H820.3z"/>
	<text transform="matrix(1 0 0 1 815.1854 247.942)" fill="#FFFFFF" font-family="'HelveticaNeue-Bold'" font-size="8.7129">44</text>
</g>
<g>
	<path fill="#FFFFFF" d="M896.3,332.2c15.5-5.1,7.6-19.3,7.6-19.3s-4.9,1.1-7.6-0.2h0c-2.7,1.3-7.6,0.2-7.6,0.2
		S880.8,327.1,896.3,332.2L896.3,332.2z"/>
	<path fill="#0EA9D6" d="M904.3,317.1c0,0,3.6,10-8.1,13.9c-11.7-3.9-8.1-13.9-8.1-13.9H904.3z"/>
	<path fill="#D72631" d="M896.3,316.2h7.8c0,0-0.3-1.4-0.8-1.9c0,0-4.2,0.6-7-0.3c-2.9,1-7,0.3-7,0.3c-0.5,0.5-0.8,1.9-0.8,1.9
		H896.3z"/>
	<text transform="matrix(1 0 0 1 891.2162 325.3071)" fill="#FFFFFF" font-family="'HelveticaNeue-Bold'" font-size="8.7129">40</text>
</g>
<g>
	<path fill="#FFFFFF" d="M635.6,387.5c15.5-5.1,7.6-19.3,7.6-19.3s-4.9,1.1-7.6-0.2h0c-2.7,1.3-7.6,0.2-7.6,0.2
		S620.2,382.4,635.6,387.5L635.6,387.5z"/>
	<path fill="#0EA9D6" d="M643.7,372.4c0,0,3.6,10-8.1,13.9c-11.7-3.9-8.1-13.9-8.1-13.9H643.7z"/>
	<path fill="#D72631" d="M635.6,371.6h7.8c0,0-0.3-1.4-0.8-1.9c0,0-4.2,0.6-7-0.3c-2.9,1-7,0.3-7,0.3c-0.5,0.5-0.8,1.9-0.8,1.9
		H635.6z"/>
	<text transform="matrix(1 0 0 1 630.5496 380.6404)" fill="#FFFFFF" font-family="'HelveticaNeue-Bold'" font-size="8.7129">44</text>
</g>
<g>
	<path fill="#FFFFFF" d="M711.3,202.2c15.5-5.1,7.6-19.3,7.6-19.3s-4.9,1.1-7.6-0.2h0c-2.7,1.3-7.6,0.2-7.6,0.2
		S695.8,197.1,711.3,202.2L711.3,202.2z"/>
	<path fill="#0EA9D6" d="M719.3,187.1c0,0,3.6,10-8.1,13.9c-11.7-3.9-8.1-13.9-8.1-13.9H719.3z"/>
	<path fill="#D72631" d="M711.3,186.2h7.8c0,0-0.3-1.4-0.8-1.9c0,0-4.2,0.6-7-0.3c-2.9,1-7,0.3-7,0.3c-0.5,0.5-0.8,1.9-0.8,1.9
		H711.3z"/>
	<text transform="matrix(1 0 0 1 706.2163 195.307)" fill="#FFFFFF" font-family="'HelveticaNeue-Bold'" font-size="8.7129">35</text>
</g>
<text transform="matrix(1 0 0 1 670.423 238.2187)" fill="#877C6C" font-family="'HelveticaNeue-Bold'" font-size="10">OKLAHOMA CITY</text>
<text transform="matrix(1 0 0 1 932.7635 140.5005)" fill="#877C6C" font-family="'HelveticaNeue-Bold'" font-size="10">TULSA</text>
<text transform="matrix(1 0 0 1 714.0969 155.5005)" fill="#877C6C" font-family="'HelveticaNeue-Bold'" font-size="10">STILLWATER</text>
<g id="marker_4_">
	<path id="pin_4_" fill="#B9252D" d="M1007.3,181.9c1-1.6,1.6-3.5,1.6-5.5c0-5.7-4.6-10.4-10.4-10.4c-5.7,0-10.4,4.6-10.4,10.4
		c0,2.2,0.7,4.2,1.8,5.8l8.6,10.4L1007.3,181.9z"/>
	
		<text id="id_4_" transform="matrix(1 0 0 1 993.995 180.5946)" fill="#FFFFFF" font-family="'Helvetica-Bold'" font-size="12.4974">O</text>
</g>
<g id="marker_3_">
	<path id="pin_3_" fill="#B9252D" d="M664.1,319.2c1-1.6,1.6-3.5,1.6-5.5c0-5.7-4.6-10.4-10.4-10.4S645,308,645,313.7
		c0,2.2,0.7,4.2,1.8,5.8l8.6,10.4L664.1,319.2z"/>
	
		<text id="id_3_" transform="matrix(1 0 0 1 650.7934 317.9566)" fill="#FFFFFF" font-family="'Helvetica-Bold'" font-size="12.4974">E</text>
</g>
</svg>
