<?xml version="1.0" encoding="utf-8"?>
<!-- Generator: Adobe Illustrator 18.0.0, SVG Export Plug-In . SVG Version: 6.00 Build 0)  -->
<!DOCTYPE svg PUBLIC "-//W3C//DTD SVG 1.1//EN" "http://www.w3.org/Graphics/SVG/1.1/DTD/svg11.dtd">
<svg version="1.1" id="map_1_" xmlns="http://www.w3.org/2000/svg" xmlns:xlink="http://www.w3.org/1999/xlink" x="0px" y="0px"
	 viewBox="351.6 15.9 930 500" enable-background="new 351.6 15.9 930 500" xml:space="preserve">
<g id="land_1_">
	<rect x="349" y="15.9" fill="#F6F0EF" width="935.7" height="501.1"/>
</g>
<polygon fill="#DEECD2" points="369.8,481.6 366.1,476 387.5,465.3 393.5,477.6 385.5,490.3 "/>
<polygon fill="#DEECD2" points="424.8,457.3 420.5,478.6 436.5,498 483.1,496 486.5,482.3 "/>
<path fill="#DEECD2" d="M719.8,354.3l2,15.7c0,0,10.7,6.7,11.7,6c1-0.7,16-9.3,16-9.3l-10-23.7l-5,20.7L719.8,354.3z"/>
<path fill="#DEECD2" d="M992.8,257.3l2.7,17.3l13.7,14c0,0,3.3,15.3,2.3,15.3s-12.7,0.7-12.7,0.7l-16.7-21l2-25.3L992.8,257.3z"/>
<path fill="none" stroke="#F4E6D7" stroke-width="4" stroke-miterlimit="10" d="M773.2,15.9C775,58.8,775,120,777,163c0,4-1,8,1,12
	s5,8,6,13c1,24,0,48,0,72c6,19,4,39,3,59c0,11,4,21,11,29c1,1,2,1,3,2s2,2,2,3c3,20,1,39,1,59c-1,7,0,15-1,22c0,3-1,5-2,8s-3,4-4,6
	s-2,5-2,7c0,20,0,40,0.5,60.2"/>
<path fill="none" stroke="#F4E6D7" stroke-width="4" stroke-miterlimit="10" d="M857.5,235.7C858,315,853,395,853,474c0,3-1,5-2,8
	c-5,11-12,22-18.4,33.1"/>
<polyline fill="none" stroke="#F4E6D7" stroke-width="4" stroke-miterlimit="10" points="688.1,297.3 904.4,298.7 930.9,318.1 "/>
<polyline fill="none" stroke="#F4E6D7" stroke-width="4" stroke-miterlimit="10" points="1057,15.9 1043.5,76 1018.8,120 
	1018.8,173.5 1046.1,173.5 1046.1,126.6 1192,15.9 "/>
<line fill="none" stroke="#F4E6D7" stroke-width="4" stroke-miterlimit="10" x1="982.8" y1="136.8" x2="1284" y2="124"/>
<polyline fill="none" stroke="#F4E6D7" stroke-width="4" stroke-miterlimit="10" points="992.8,136.3 1069.5,179.3 1077.3,192.5 
	1281.6,269 "/>
<path fill="none" stroke="#F4E6D7" stroke-width="4" stroke-miterlimit="10" d="M982.8,189.3C988,221,994,252,997,284
	c1,13-3,26,0,39c7,34,17,63,25,97c0,1,2,3,2,4c5,21,10,41,16,62c1,5,1,10,3,15c2,4,3,9,4.1,14.1"/>
<path fill="none" stroke="#F4E6D7" stroke-width="4" stroke-miterlimit="10" d="M1110,204c-1.8,11.5-1,28-2,39c-2,8-4,16-6,24
	c-25,72-50,143-73,216c-3,11-5,22-8.6,32.3"/>
<polyline fill="none" stroke="#F4E6D7" stroke-width="4" stroke-miterlimit="10" points="979.8,189.3 975.2,239.3 1108.4,235.7 "/>
<polyline fill="none" stroke="#F4E6D7" stroke-width="4" stroke-miterlimit="10" points="996.2,270.7 1058.5,270.7 1064.3,227.2 
	1023.5,189.3 "/>
<polyline fill="none" stroke="#F4E6D7" stroke-width="4" stroke-miterlimit="10" points="803.5,355.3 854.7,360.6 904.4,399.6 
	941.1,399.6 "/>
<path fill="none" stroke="#F4E6D7" stroke-width="4" stroke-miterlimit="10" d="M964.5,316.2C964,324,968,333,963,341
	c-5,7-12,11-16,18c-1,1-2,1-3,2c-2,2-3,4-3,6c-1,49-2,99-2.9,148.1"/>
<polyline fill="none" stroke="#F4E6D7" stroke-width="4" stroke-miterlimit="10" points="768.9,103 834.8,91.3 907.5,103 929.5,120 
	"/>
<path fill="none" stroke="#F4E6D7" stroke-width="4" stroke-miterlimit="10" d="M351.8,67.4C381,69,411,69,440,70
	c18,5,35,11,52.6,16.9"/>
<line fill="none" stroke="#F4E6D7" stroke-width="4" stroke-miterlimit="10" x1="414.1" y1="39.9" x2="399.5" y2="120"/>
<path fill="none" stroke="#F4E6D7" stroke-width="4" stroke-miterlimit="10" d="M351.5,142.7C366,143,379,143,393,143c2-8,4-15,6-23
	c24,1,49,1,73,3c9-16,18-32,27-47c93,0,186,0,279,0c8,13,17,26,25,40c42,3,84,1,126,4c1,0,3,2,4,3c2,2,3,4,5,6c8,9,20,6,29.8,7.8"/>
<path fill="none" stroke="#F4E6D7" stroke-width="4" stroke-miterlimit="10" d="M392.8,143.3C391,214,390,285,389,356
	c-4,15-10,29-16,43c-2,6-4,13-3,20c7,33,11,64,15.3,96"/>
<path fill="none" stroke="#F4E6D7" stroke-width="4" stroke-miterlimit="10" d="M517.8,289.7V348l15.7,4c0,0,5.3,55.3,3.3,55.3
	s-19,8.7-19,8.7l5,58.3"/>
<polyline fill="none" stroke="#F4E6D7" stroke-width="4" stroke-miterlimit="10" points="536.8,407.3 596.3,411.1 601.1,300.4 "/>
<g id="roads_1_">
	<polyline fill="none" stroke="#F4D8B3" stroke-width="4" stroke-miterlimit="10" points="961.8,151.3 1091.8,231.3 1110.8,303.2 	
		"/>
	<polyline fill="none" stroke="#F4D8B3" stroke-width="4" stroke-miterlimit="10" points="1154,15.9 1009.8,149.3 1004.8,189.3 
		982.8,189.3 982.8,122.8 1017.8,89.3 1016,15.9 	"/>
	<line fill="none" stroke="#F4D8B3" stroke-width="4" stroke-miterlimit="10" x1="967.8" y1="149.3" x2="976" y2="15.9"/>
	<polyline fill="none" stroke="#F4D8B3" stroke-width="4" stroke-miterlimit="10" points="716.4,96.3 764.8,96.3 785.8,131.3 
		893.8,143.3 960.8,149.3 	"/>
	<path fill="none" stroke="#F4D8B3" stroke-width="4" stroke-miterlimit="10" d="M674.8,322c-1.8,7-1.8,15-3.8,23c-1,2-2,4-4,6
		c-22,21-45,37-67,58c-10,9-20,16-30,24c-8,8-16,14-24,21s-15,13-22,19c-4,13-3,28-3,42.5"/>
	<polyline fill="none" stroke="#F4D8B3" stroke-width="4" stroke-miterlimit="10" points="687.8,298.6 674.8,299.6 674.8,322 
		783.8,326.3 969.8,315.9 1281.6,283 	"/>
	<path fill="none" stroke="#F4D8B3" stroke-width="4" stroke-miterlimit="10" d="M351.5,106.7C374,126,395,146,418,165
		c9,9,18,17,28,25c1,1,2,3,3,4c12,8,20,18,31,27c1,1,3,2,5,2c10-1,21-1,31-1c10,25,22,48,32,73c1,1,3,2,4,2c13,1,25,2,38,3
		c8,0,17,1,25,1c5,1,9,1,14,2c3,0,5,0,8,0c6,2,13,4,19,4c10,0,19,0,29,0c1,0,3,1,4,1c2,0,4-1,6-0.6c-0.2-12.6-0.5,0,0,0
		c-0.2-12.6-0.4-25.2-0.6-37.8"/>
	<path fill="none" stroke="#F4D8B3" stroke-width="4" stroke-miterlimit="10" d="M351.8,313.9C384,306,415,298,447,290
		c67,1,134,1,201,3c2-7,6-13,9-20c41-5,82-5,123-16s80-22,120-33c20-25,40-49,60-74c60-4,261.7-7.3,321.6-11"/>
	<path fill="none" stroke="#F4D8B3" stroke-width="4" stroke-miterlimit="10" d="M712.8,15.9C714,53.8,717,111,720,149
		c-12,52-24,103-33,157c-4,19-2,38-2,57c20,51,39,102,59.8,152.4"/>
</g>
<g id="marker_26_">
	<path id="pin_27_" fill="#B9252D" d="M685.8,278.7c1-1.6,1.6-3.5,1.6-5.5c0-5.7-4.6-10.4-10.4-10.4c-5.7,0-10.4,4.6-10.4,10.4
		c0,2.2,0.7,4.2,1.8,5.8l8.6,10.4L685.8,278.7z"/>
	
		<text id="id_26_" transform="matrix(1 0 0 1 672.519 277.4351)" fill="#FFFFFF" font-family="'Helvetica-Bold'" font-size="12.4974">A</text>
</g>
<g id="marker_25_">
	<path id="pin_26_" fill="#B9252D" d="M703.2,260.1c1-1.6,1.6-3.5,1.6-5.5c0-5.7-4.6-10.4-10.4-10.4s-10.4,4.6-10.4,10.4
		c0,2.2,0.7,4.2,1.8,5.8l8.6,10.4L703.2,260.1z"/>
	
		<text id="id_25_" transform="matrix(1 0 0 1 689.8696 258.7925)" fill="#FFFFFF" font-family="'Helvetica-Bold'" font-size="12.4974">B</text>
</g>
<g id="marker_24_">
	<path id="pin_25_" fill="#B9252D" d="M705.5,300c1-1.6,1.6-3.5,1.6-5.5c0-5.7-4.6-10.4-10.4-10.4s-10.4,4.6-10.4,10.4
		c0,2.2,0.7,4.2,1.8,5.8l8.6,10.4L705.5,300z"/>
	
		<text id="id_24_" transform="matrix(1 0 0 1 692.2205 298.7242)" fill="#FFFFFF" font-family="'Helvetica-Bold'" font-size="12.4974">C</text>
</g>
<g id="marker_18_">
	<path id="pin_19_" fill="#B9252D" d="M669.8,261.7c1-1.6,1.6-3.5,1.6-5.5c0-5.7-4.6-10.4-10.4-10.4c-5.7,0-10.4,4.6-10.4,10.4
		c0,2.2,0.7,4.2,1.8,5.8l8.6,10.4L669.8,261.7z"/>
	
		<text id="id_18_" transform="matrix(1 0 0 1 656.4902 260.4667)" fill="#FFFFFF" font-family="'Helvetica-Bold'" font-size="12.4974">F</text>
</g>
<g id="marker_17_">
	<path id="pin_18_" fill="#B9252D" d="M667.1,291c1-1.6,1.6-3.5,1.6-5.5c0-5.7-4.6-10.4-10.4-10.4c-5.7,0-10.4,4.6-10.4,10.4
		c0,2.2,0.7,4.2,1.8,5.8l8.6,10.4L667.1,291z"/>
	
		<text id="id_17_" transform="matrix(1 0 0 1 653.7888 289.6935)" fill="#FFFFFF" font-family="'Helvetica-Bold'" font-size="12.4974">E</text>
</g>
<g id="marker_16_">
	<path id="pin_17_" fill="#B9252D" d="M646.8,300.3c1-1.6,1.6-3.5,1.6-5.5c0-5.7-4.6-10.4-10.4-10.4c-5.7,0-10.4,4.6-10.4,10.4
		c0,2.2,0.7,4.2,1.8,5.8l8.6,10.4L646.8,300.3z"/>
	
		<text id="id_16_" transform="matrix(1 0 0 1 633.5187 299.0281)" fill="#FFFFFF" font-family="'Helvetica-Bold'" font-size="12.4974">H</text>
</g>
<g id="marker_15_">
	<path id="pin_16_" fill="#B9252D" d="M684.8,316.3c1-1.6,1.6-3.5,1.6-5.5c0-5.7-4.6-10.4-10.4-10.4c-5.7,0-10.4,4.6-10.4,10.4
		c0,2.2,0.7,4.2,1.8,5.8l8.6,10.4L684.8,316.3z"/>
	
		<text id="id_15_" transform="matrix(1 0 0 1 671.5187 315.0281)" fill="#FFFFFF" font-family="'Helvetica-Bold'" font-size="12.4974">G</text>
</g>
<g id="marker_14_">
	<path id="pin_15_" fill="#B9252D" d="M699.8,334.3c1-1.6,1.6-3.5,1.6-5.5c0-5.7-4.6-10.4-10.4-10.4c-5.7,0-10.4,4.6-10.4,10.4
		c0,2.2,0.7,4.2,1.8,5.8l8.6,10.4L699.8,334.3z"/>
	
		<text id="id_14_" transform="matrix(1 0 0 1 686.5187 333.0281)" fill="#FFFFFF" font-family="'Helvetica-Bold'" font-size="12.4974">D</text>
</g>
<g>
	<path fill="#FFFFFF" d="M820.3,258.4c18.6-6.2,9.1-23.1,9.1-23.1s-5.9,1.3-9.1-0.3h0c-3.2,1.6-9.1,0.3-9.1,0.3
		S801.8,252.2,820.3,258.4L820.3,258.4z"/>
	<path fill="#0EA9D6" d="M830,240.2c0,0,4.4,12-9.7,16.7c-14-4.7-9.7-16.7-9.7-16.7H830z"/>
	<path fill="#D72631" d="M820.3,239.2h9.4c0,0-0.4-1.6-0.9-2.3c0,0-5,0.8-8.4-0.4c-3.4,1.2-8.4,0.4-8.4,0.4
		c-0.5,0.6-0.9,2.3-0.9,2.3H820.3z"/>
	<text transform="matrix(1 0 0 1 814.2589 250.0772)" fill="#FFFFFF" font-family="'HelveticaNeue-Bold'" font-size="10.4555">44</text>
</g>
<g>
	<path fill="#FFFFFF" d="M887.1,333.2c18.6-6.2,9.1-23.1,9.1-23.1s-5.9,1.3-9.1-0.3h0c-3.2,1.6-9.1,0.3-9.1,0.3
		S868.5,327,887.1,333.2L887.1,333.2z"/>
	<path fill="#0EA9D6" d="M896.8,315c0,0,4.4,12-9.7,16.7c-14-4.7-9.7-16.7-9.7-16.7H896.8z"/>
	<path fill="#D72631" d="M887.1,314h9.4c0,0-0.4-1.6-0.9-2.3c0,0-5,0.8-8.4-0.4c-3.4,1.2-8.4,0.4-8.4,0.4c-0.5,0.6-0.9,2.3-0.9,2.3
		H887.1z"/>
	<text transform="matrix(1 0 0 1 880.9952 324.9151)" fill="#FFFFFF" font-family="'HelveticaNeue-Bold'" font-size="10.4555">40</text>
</g>
<g>
	<path fill="#FFFFFF" d="M661.3,368.1c18.6-6.2,9.1-23.1,9.1-23.1s-5.9,1.3-9.1-0.3h0c-3.2,1.6-9.1,0.3-9.1,0.3
		S642.7,361.9,661.3,368.1L661.3,368.1z"/>
	<path fill="#0EA9D6" d="M671,349.9c0,0,4.4,12-9.7,16.7c-14-4.7-9.7-16.7-9.7-16.7H671z"/>
	<path fill="#D72631" d="M661.3,348.9h9.4c0,0-0.4-1.6-0.9-2.3c0,0-5,0.8-8.4-0.4c-3.4,1.2-8.4,0.4-8.4,0.4
		c-0.5,0.6-0.9,2.3-0.9,2.3H661.3z"/>
	<text transform="matrix(1 0 0 1 655.1954 359.8155)" fill="#FFFFFF" font-family="'HelveticaNeue-Bold'" font-size="10.4555">44</text>
</g>
<g>
	<path fill="#FFFFFF" d="M712.6,199.2c18.6-6.2,9.1-23.1,9.1-23.1s-5.9,1.3-9.1-0.3h0c-3.2,1.6-9.1,0.3-9.1,0.3S694,193,712.6,199.2
		L712.6,199.2z"/>
	<path fill="#0EA9D6" d="M722.3,181c0,0,4.4,12-9.7,16.7c-14-4.7-9.7-16.7-9.7-16.7H722.3z"/>
	<path fill="#D72631" d="M712.6,180h9.4c0,0-0.4-1.6-0.9-2.3c0,0-5,0.8-8.4-0.4c-3.4,1.2-8.4,0.4-8.4,0.4c-0.5,0.6-0.9,2.3-0.9,2.3
		H712.6z"/>
	<text transform="matrix(1 0 0 1 706.4952 190.9151)" fill="#FFFFFF" font-family="'HelveticaNeue-Bold'" font-size="10.4555">35</text>
</g>
<text transform="matrix(1 0 0 1 668.1484 238.2902)" fill="#877C6C" font-family="'HelveticaNeue-Bold'" font-size="12">OKLAHOMA CITY</text>
<text transform="matrix(1 0 0 1 924.4889 140.5721)" fill="#877C6C" font-family="'HelveticaNeue-Bold'" font-size="12">TULSA</text>
<text transform="matrix(1 0 0 1 717.8222 159.5721)" fill="#877C6C" font-family="'HelveticaNeue-Bold'" font-size="12">STILLWATER</text>
<g id="marker_9_">
	<path id="pin_10_" fill="#B9252D" d="M965.9,164.9c1-1.6,1.6-3.5,1.6-5.5c0-5.7-4.6-10.4-10.4-10.4c-5.7,0-10.4,4.6-10.4,10.4
		c0,2.2,0.7,4.2,1.8,5.8l8.6,10.4L965.9,164.9z"/>
	
		<text id="id_9_" transform="matrix(1 0 0 1 953.5822 163.6661)" fill="#FFFFFF" font-family="'Helvetica-Bold'" font-size="12.4974">J</text>
</g>
<g id="marker_10_">
	<path id="pin_11_" fill="#B9252D" d="M999.9,110.9c1-1.6,1.6-3.5,1.6-5.5c0-5.7-4.6-10.4-10.4-10.4c-5.7,0-10.4,4.6-10.4,10.4
		c0,2.2,0.7,4.2,1.8,5.8l8.6,10.4L999.9,110.9z"/>
	
		<text id="id_10_" transform="matrix(1 0 0 1 986.5822 109.6661)" fill="#FFFFFF" font-family="'Helvetica-Bold'" font-size="12.4974">K</text>
</g>
<g id="marker_8_">
	<path id="pin_9_" fill="#B9252D" d="M1017.8,161.9c1-1.6,1.6-3.5,1.6-5.5c0-5.7-4.6-10.4-10.4-10.4c-5.7,0-10.4,4.6-10.4,10.4
		c0,2.2,0.7,4.2,1.8,5.8l8.6,10.4L1017.8,161.9z"/>
	
		<text id="id_8_" transform="matrix(1 0 0 1 1007.4846 160.6661)" fill="#FFFFFF" font-family="'Helvetica-Bold'" font-size="12.4974">I</text>
</g>
<g id="marker_12_">
	<path id="pin_13_" fill="#B9252D" d="M982.3,180.9c1-1.6,1.6-3.5,1.6-5.5c0-5.7-4.6-10.4-10.4-10.4c-5.7,0-10.4,4.6-10.4,10.4
		c0,2.2,0.7,4.2,1.8,5.8l8.6,10.4L982.3,180.9z"/>
	
		<text id="id_12_" transform="matrix(1 0 0 1 968.9846 179.6661)" fill="#FFFFFF" font-family="'Helvetica-Bold'" font-size="12.4974">N</text>
</g>
<g id="marker_11_">
	<path id="pin_12_" fill="#B9252D" d="M985.3,149.9c1-1.6,1.6-3.5,1.6-5.5c0-5.7-4.6-10.4-10.4-10.4c-5.7,0-10.4,4.6-10.4,10.4
		c0,2.2,0.7,4.2,1.8,5.8l8.6,10.4L985.3,149.9z"/>
	
		<text id="id_11_" transform="matrix(1 0 0 1 971.9846 149.6661)" fill="#FFFFFF" font-family="'Helvetica-Bold'" font-size="12.4974">L</text>
</g>
<g id="marker_2_">
	<path id="pin_2_" fill="#B9252D" d="M786.3,135.9c1-1.6,1.6-3.5,1.6-5.5c0-5.7-4.6-10.4-10.4-10.4c-5.7,0-10.4,4.6-10.4,10.4
		c0,2.2,0.7,4.2,1.8,5.8l8.6,10.4L786.3,135.9z"/>
	
		<text id="id_2_" transform="matrix(1 0 0 1 772.9846 134.6661)" fill="#FFFFFF" font-family="'Helvetica-Bold'" font-size="12.4974">O</text>
</g>
<g id="marker_1_">
	<path id="pin_1_" fill="#B9252D" d="M1004.8,181.9c1-1.6,1.6-3.5,1.6-5.5c0-5.7-4.6-10.4-10.4-10.4c-5.7,0-10.4,4.6-10.4,10.4
		c0,2.2,0.7,4.2,1.8,5.8l8.6,10.4L1004.8,181.9z"/>
	
		<text id="id_1_" transform="matrix(1 0 0 1 990.4846 180.6661)" fill="#FFFFFF" font-family="'Helvetica-Bold'" font-size="12.4974">M</text>
</g>
</svg>
