<svg xmlns="http://www.w3.org/2000/svg" viewBox="193 18.6 940 570" enable-background="new 193 18.6 940 570"><path fill="#F6F0EF" d="M191.9 17.1h943.2v572.7H191.9z"/><path fill="#A0DDF6" d="M875.6 31.5l7.4 14h11.3l21.4 11.3s10.6-12 6.7-12.6c-4-.7-13.3-12.6-13.3-12.6l-9.5 8.1v-8.1L883 24.8l-7.4 6.7z"/><path stroke="#F4E6D7" stroke-width="4" stroke-miterlimit="10" d="M752.8 478.2c1.5 6.9 1.9.1-19.1 67.8-2.7 8.1-4 43-5.8 59.6" fill="none"/><path stroke="#A0DDF6" stroke-width="4" stroke-miterlimit="10" d="M1026 9.5c-15.3 13-15.3 29.4-30.1 44.8-14.8 15.3-16.8 8.2-26.2 9.4-9.4 1.2-14.1 10.4-10.8 19.2s1.3 11.6-13.4 20.3c-14.8 8.7-32.5 25.4-34.4 42.6-1.9 17.2-7.9 21.5-22 29.7-14.1 8.3-5.2 5.1-13.4 13.4-8.1 8.3-15.2 24.5-6.6 44.6 8.6 20.2 13.6 32.3 0 43-13.6 10.8-14.9 20.2-33.7 27.6-18.8 7.4-27.6 24.7-35 50.7-4 11.2-14.1 13.2-18.8 23.3-4.7 10.1-22.9 25.5-23.5 57.8 0 16.8 5.4 32.3 21.5 46.4s18.8 15.5 15.5 32.9c-3.4 17.5-17.5 26.2-15.5 45.7 2 19.5-20.2 24.3-16.1 39.4" fill="none"/><path stroke="#F4E6D7" stroke-width="4" stroke-miterlimit="10" d="M981.1 350.8H934c-13.4 0-20 3.2-23 3.2s-.5-3.2-40.3-3.2-55.7-11-55.7-11c-6.1-2.7-19.9 4-29.3 3.1-9.4-3.8-25.5 1.3-34.6 1.3-18.4 0-18.4 0-25.9-7.1-7.7-7.1-4-7.7-17.1-7.1-13 .5-45.7 0-45.7 0-9.4 0-8.1 2.2-8.1 12.1 0 4.6-3.1 4.3-3.1 8.9 0 4.6 2.7 6.5 2.3 12.2-.4 5.8 0 49.7 0 49.7 0 5.9-14.8 11.8-14.8 50.6 0 18.6 9.9 39.7 9.9 39.7L758 476.9c12.6-3.5 12.6-6.2 16-11.4 3.5-5.4 6.1-7.1 10.8-2.2 4.7 5 6.5 10.6 26.5 13.6s170.2 20.6 170.2 20.6-5.4-104.2-3.2-111.1c2.2-6.9 3.5-44.9 3.2-56.5.1-6.9-4.6-6.5-7.5-9-3-2.6-2.6-9.8-9-8.3s-13.8-.1-26.8 0c-12.9.1-15.3 2.4-24.2 0s-25.9-3.9-25.9-3.9-13.2 3.8-26.1-7.5l-8.9 2.4c-6.2 46.1-17.5 37.2-21.9 56.1-4 14.8-2.7 30-12.5 50.1s-2.3 24.7-3.4 36.2c-1.1 11.4-3.9 31.1-3.9 31.1M896.4 134.8c-14.8 32.9-61.2 89.4-78 100.2-16.8 10.8-21.5 23.5-24.9 47.7-2.7 11.4-4.7 17.5 2.7 18.4 7.4 1.1 12 16.5 25.8 22.6 13.8 6.1 23.3 12.1 39.8 13.4 16.4 1.3 21 0 21 0M843.7 210.5c11.7 10.4 16.4 10.4 18 23.1 1.6 12.8-2.3 26.2-9 32.3-6.9 6.1 1.2 14.8-14.5 23.5s-30.5 20.8-38.6 33.6c-8.1 12.8-21.5 24.9-22.9 37-1.3 12.1-7.4 20.8-18.8 30.7s-9.4 12.8-10.1 31.1c-.7 18.3 0 22.3 0 22.3M823 75.1c-31.5 9.3-32.1 10.6-35.5 27.4-2 10.1 2.4 11.6-9.9 11.4s-24.2 2-24.2 18.2v150.6c0 12.8.4 12.1-3.6 18.4-4 6.5-1.9 7.8-2.3 18.6-.4 10.8-14.7 8.1-22.3 17.5M753.5 167c68.3 0 87.3 8.6 127.5-43.7M753.5 210.5c52.2 0 65.9-2.6 77.6 13.7M753.5 257.1h46M774.1 257.1l2.4 47.7c-3.1 8.7-1.7 15.9-5.8 22.3-4 6.6-8.1 18.7-6.7 30.8s-11.4 23.5-6.1 32.7M756.6 598.1c4.3-23.8 17.5-25.1 17.5-64.9 0-19.1 2.4-12.5 7-17.1 4.7-4.7 4.7-13.2 4.7-13.2.8-6.9 7-8.3 16.8-7.9h8.6M811.2 476.9c-.4 23.9 0 39.1 0 39.1-2.3 8.6-7.4 12.9-.1 27.3 3.8 3.9-10.4 62.1-10.4 62.1M732.1 555.2c10.5-3.6 9.5 0 28.4 0 18.8 0 37-4.8 57.8 4.6M802.6 495c-.4 27.8-2.8 19.4-3.2 29-.4 9.7.4 15.2-3.1 37.4s-7 44.2-7 44.2M810.1 505.6c12.9 7 16.8 5.9 88.6 5.9" fill="none"/><text transform="translate(771.644 226.247)" fill="#877C6C" font-family="'HelveticaNeue-Bold'" font-size="10">RIO RANCHO</text><path stroke="#F4D8B3" stroke-width="4" stroke-miterlimit="10" d="M1066.6 24.8L1036 42.1l-82.1 82.1c-19.4 26.8-16.7 27.4-16.7 36.7 0 9.3-21.4 41-21.4 41-4 9 .7 7-4.7 17.1-5.4 9.9-9.4 3.8-37.4 171.4-.7 4.8-28.1 21.5-33.3 26.8-5.4 5.4-22 71.4-22 71.4V566l-8.7 34" fill="none"/><path fill="#fff" d="M818.5 540.9c14.4-4.7 7-17.9 7-17.9s-4.6 1.1-7-.1c-2.6 1.2-7 .1-7 .1s-7.4 13.1 7 17.9z"/><path fill="#0EA9D6" d="M826 526.8s3.4 9.3-7.5 12.9c-10.9-3.6-7.5-12.9-7.5-12.9h15z"/><path fill="#D72631" d="M818.5 526h7.3s-.3-1.3-.8-1.7c0 0-3.9.5-6.5-.3-2.7.9-6.5.3-6.5.3-.4.4-.8 1.7-.8 1.7h7.3z"/><text transform="translate(813.988 534.486)" fill="#fff" font-family="'HelveticaNeue-Bold'" font-size="8.075">25</text><text transform="translate(824.694 430.596)" fill="#877C6C" font-family="'HelveticaNeue-Bold'" font-size="10">ALBUQUERQUE</text><path stroke="#F4D8B3" stroke-width="4" stroke-miterlimit="10" d="M264.7 619.7L411 564.3l151.5-42.1 78.8-14.7 97.5-60.1c8.7-4 7-4 19.2-2.7 12.2 1.3 22.9 3.4 34.3 2 11.3-1.3 9.4-3.4 33.3.7 8.1 2 17.3-3.5 17.3-3.5s21.4 6.9 38.7 4.8L991 502.1s17.3 5.4 38.7 5.4c21.4 0 39.4-5.4 42.1-12.6 0 0 37.4-33.6 77.4-25.6" fill="none"/><path fill="#B9252D" d="M811.7 195c.9-1.5 1.5-3.2 1.5-5.1 0-5.2-4.3-9.7-9.7-9.7-5.2 0-9.7 4.3-9.7 9.7 0 2 .7 3.9 1.6 5.4l7.9 9.7 8.4-10z"/><text transform="translate(799.379 193.895)" fill="#fff" font-family="'Helvetica-Bold'" font-size="11.583">A</text><path stroke="#F4D8B3" stroke-width="4" stroke-miterlimit="10" d="M809.6 9.5c8.7 13.3 8.7 14.7 8.7 46.1l7.4 30s74.8 48.8 82.1 59.4c13.3 3.4 30.4 8.1 30.4 8.1s17.1 1.3 31.1 7.4c14 6.1 33.3 22 42.8 12 9.4-9.9 14-8.1 18-5.4s26.1.7 42.1-6.1c0 0 50.5-17.7 68.5-12.3" fill="none"/><path fill="#fff" d="M917.2 215.7c15.5-5.1 7.6-19.3 7.6-19.3s-4.9 1.1-7.6-.2c-2.7 1.3-7.6.2-7.6.2s-7.9 14.1 7.6 19.3z"/><path fill="#0EA9D6" d="M925.3 200.5s3.6 10-8.1 13.9c-11.7-3.9-8.1-13.9-8.1-13.9h16.2z"/><path fill="#D72631" d="M917.2 199.7h7.8s-.3-1.4-.8-1.9c0 0-4.2.7-7-.3-2.9 1-7 .3-7 .3-.5.5-.8 1.9-.8 1.9h7.8z"/><text transform="translate(912.127 208.755)" fill="#fff" font-family="'HelveticaNeue-Bold'" font-size="8.713">25</text><path fill="#fff" d="M873.2 402c15.5-5.1 7.6-19.3 7.6-19.3s-4.9 1.1-7.6-.2c-2.7 1.3-7.6.2-7.6.2s-7.9 14.2 7.6 19.3z"/><path fill="#0EA9D6" d="M881.3 386.8s3.6 10-8.1 13.9c-11.7-3.9-8.1-13.9-8.1-13.9h16.2z"/><path fill="#D72631" d="M873.2 386h7.8s-.3-1.4-.8-1.9c0 0-4.2.7-7-.3-2.9 1-7 .3-7 .3-.5.5-.8 1.9-.8 1.9h7.8z"/><text transform="translate(868.127 395.088)" fill="#fff" font-family="'HelveticaNeue-Bold'" font-size="8.713">25</text><path fill="#fff" d="M999.2 91.3c15.5-5.1 7.6-19.3 7.6-19.3s-4.9 1.1-7.6-.2c-2.7 1.3-7.6.2-7.6.2s-7.9 14.2 7.6 19.3z"/><path fill="#0EA9D6" d="M1007.3 76.2s3.6 10-8.1 13.9c-11.7-3.9-8.1-13.9-8.1-13.9h16.2z"/><path fill="#D72631" d="M999.2 75.3h7.8s-.3-1.4-.8-1.9c0 0-4.2.6-7-.3-2.9 1-7 .3-7 .3-.5.5-.8 1.9-.8 1.9h7.8z"/><text transform="translate(994.127 84.422)" fill="#fff" font-family="'HelveticaNeue-Bold'" font-size="8.713">85</text><path fill="#fff" d="M708.5 473.3c15.5-5.1 7.6-19.3 7.6-19.3s-4.9 1.1-7.6-.2c-2.7 1.3-7.6.2-7.6.2s-7.8 14.2 7.6 19.3z"/><path fill="#0EA9D6" d="M716.6 458.2s3.6 10-8.1 13.9c-11.7-3.9-8.1-13.9-8.1-13.9h16.2z"/><path fill="#D72631" d="M708.5 457.3h7.8s-.3-1.4-.8-1.9c0 0-4.2.6-7-.3-2.9 1-7 .3-7 .3-.5.5-.8 1.9-.8 1.9h7.8z"/><text transform="translate(703.46 466.422)" fill="#fff" font-family="'HelveticaNeue-Bold'" font-size="8.713">40</text><path fill="#fff" d="M940.2 485.3c15.5-5.1 7.6-19.3 7.6-19.3s-4.9 1.1-7.6-.2c-2.7 1.3-7.6.2-7.6.2s-7.9 14.2 7.6 19.3z"/><path fill="#0EA9D6" d="M948.3 470.2s3.6 10-8.1 13.9c-11.7-3.9-8.1-13.9-8.1-13.9h16.2z"/><path fill="#D72631" d="M940.2 469.3h7.8s-.3-1.4-.8-1.9c0 0-4.2.6-7-.3-2.9 1-7 .3-7 .3-.5.5-.8 1.9-.8 1.9h7.8z"/><text transform="translate(935.127 478.422)" fill="#fff" font-family="'HelveticaNeue-Bold'" font-size="8.713">40</text><path fill="#fff" d="M827.9 96c15.5-5.1 7.6-19.3 7.6-19.3s-4.9 1.1-7.6-.2c-2.7 1.3-7.6.2-7.6.2s-7.9 14.2 7.6 19.3z"/><path fill="#0EA9D6" d="M835.9 80.8s3.6 10-8.1 13.9c-11.7-3.9-8.1-13.9-8.1-13.9h16.2z"/><path fill="#D72631" d="M827.9 80h7.8s-.3-1.4-.8-1.9c0 0-4.2.6-7-.3-2.9 1-7 .3-7 .3-.5.5-.8 1.9-.8 1.9h7.8z"/><text transform="translate(820.966 89.088)" fill="#fff" font-family="'HelveticaNeue-Bold'" font-size="8">550</text></svg>