<svg xmlns="http://www.w3.org/2000/svg" viewBox="193 18.6 940 570" enable-background="new 193 18.6 940 570"><path fill="#F6F0EF" d="M179.8 12.8c-.4 0-.7 0-1-2.1v585.1l964.1 2v-585H179.8z"/><g fill="#DEECD2"><path d="M325 428c-.3-1.7 3.3-9 3.3-9l-8.3-17.3-11.3-21.3.7 21-5.3 9.3L325 428zM367 460.3l-3.7-5.6 21.4-10.7 6 12.3-8 12.7zM422 436l-4.3 21.3 16 19.4 46.6-2 3.4-13.7zM717 333l2 15.7s10.7 6.7 11.7 6c1-.7 16-9.3 16-9.3l-10-23.7-5 20.7L717 333zM990 236l2.7 17.3 13.7 14s3.3 15.3 2.3 15.3-12.7.7-12.7.7l-16.7-21 2-25.3 8.7-1z"/></g><g stroke="#F4E6D7" stroke-width="4" stroke-miterlimit="10" fill="none"><path d="M770.4 12.8l4.6 139.4 6.3 15.8v71.2l4.1 19.5v51.7l15.3 23.6v82.7l-8.7 12.6 1.3 159.3M854.6 214.4L849.3 458l-34.6 64h-21.9M685.3 276.1l216.3 1.3 26.4 19.4M1048 18.3l-7.3 36.4-24.7 44v53.5h27.3v-46.9l89.7-70.6M980 115.5l151.3-7.2M990 115l76.7 43 7.8 13.3 58.5 31.4M980 168l7.4 46.4 6 39.4v48.1l76.6 286.7M1108 189.2l-4 41.5-66 193.3-48 167M977 168l-4.6 50 133.2-3.6M993.4 249.4h62.3l5.8-43.5-40.8-37.9M800.7 334l51.2 5.3 49.7 39h36.6M961.6 294.9V316l-23.4 28-2.9 154.7 26.3 89.9M766 81.7L832 70l72.7 11.7 22 17M302.7 44.6L442 49.3l47.7 16.4M411.3 18.6l-14.6 80.1M192.6 119.3l197.3 2.7 6.8-23.3 72.6 2.8L496 54.7h279L800.7 95l126 3.7 14.6 14.7 23.7 2.1M389.9 122L386 334l-19.3 56 30.6 198.6M515 268.4v58.3l15.7 4S536 386 534 386s-19 8.7-19 8.7l5 58.3M534 386l59.5 3.8 4.8-110.7"/></g><g stroke="#F4D8B3" stroke-width="4" stroke-miterlimit="10" fill="none"><path d="M958.9 130l130.1 80 19 71.9M1128 18.3L1007 128l-5 40h-22v-66.5l35-33.5V18.3M965 128l6-109.7M713.6 75H762l21 35 108 12 67 6M671.9 300.7l-4.9 25.9L520 453l-5 138M685 277.3l-13.1 1v22.4L781 305l186-10.4 164.3-16.3M273 18.3L479 201h34l33 74.1 89 6.8 13 4.2h44.2l-.5-37.8M192.6 323.6l105.4-18 146-37.2 201 2.9 9-19.2 105-12L897 203l61-75 179-6M709.9 12.8l6.8 115.2-34.4 162v52.5L751.4 518v73"/></g><g><path fill="#B9252D" d="M683 257.4c1-1.6 1.6-3.5 1.6-5.5 0-5.7-4.6-10.4-10.4-10.4-5.7 0-10.4 4.6-10.4 10.4 0 2.2.7 4.2 1.8 5.8l8.6 10.4 8.8-10.7z"/><text transform="translate(669.704 256.145)" fill="#fff" font-family="'Helvetica-Bold'" font-size="12.497">A</text></g><g><path fill="#B9252D" d="M700.4 238.8c1-1.6 1.6-3.5 1.6-5.5 0-5.7-4.6-10.4-10.4-10.4s-10.4 4.6-10.4 10.4c0 2.2.7 4.2 1.8 5.8l8.6 10.4 8.8-10.7z"/><text transform="translate(687.055 237.502)" fill="#fff" font-family="'Helvetica-Bold'" font-size="12.497">B</text></g><g><path fill="#B9252D" d="M702.7 278.7c1-1.6 1.6-3.5 1.6-5.5 0-5.7-4.6-10.4-10.4-10.4s-10.4 4.6-10.4 10.4c0 2.2.7 4.2 1.8 5.8l8.6 10.4 8.8-10.7z"/><text transform="translate(689.405 277.434)" fill="#fff" font-family="'Helvetica-Bold'" font-size="12.497">C</text></g><g><path fill="#B9252D" d="M965.3 148.6c1-1.6 1.6-3.5 1.6-5.5 0-5.7-4.6-10.4-10.4-10.4-5.7 0-10.4 4.6-10.4 10.4 0 2.2.7 4.2 1.8 5.8l8.6 10.4 8.8-10.7z"/><text transform="translate(953.003 147.376)" fill="#fff" font-family="'Helvetica-Bold'" font-size="12.497">J</text></g><g><path fill="#B9252D" d="M997.3 89.6c1-1.6 1.6-3.5 1.6-5.5 0-5.7-4.6-10.4-10.4-10.4-5.7 0-10.4 4.6-10.4 10.4 0 2.2.7 4.2 1.8 5.8l8.6 10.4 8.8-10.7z"/><text transform="translate(984.003 88.376)" fill="#fff" font-family="'Helvetica-Bold'" font-size="12.497">K</text></g><g><path fill="#B9252D" d="M1010.7 147.6c1-1.6 1.6-3.5 1.6-5.5 0-5.7-4.6-10.4-10.4-10.4-5.7 0-10.4 4.6-10.4 10.4 0 2.2.7 4.2 1.8 5.8l8.6 10.4 8.8-10.7z"/><text transform="translate(1000.405 146.376)" fill="#fff" font-family="'Helvetica-Bold'" font-size="12.497">I</text></g><g><path fill="#B9252D" d="M990.7 158.6c1-1.6 1.6-3.5 1.6-5.5 0-5.7-4.6-10.4-10.4-10.4-5.7 0-10.4 4.6-10.4 10.4 0 2.2.7 4.2 1.8 5.8l8.6 10.4 8.8-10.7z"/><text transform="translate(976.405 157.376)" fill="#fff" font-family="'Helvetica-Bold'" font-size="12.497">M</text></g><g><path fill="#B9252D" d="M982.7 128.6c1-1.6 1.6-3.5 1.6-5.5 0-5.7-4.6-10.4-10.4-10.4-5.7 0-10.4 4.6-10.4 10.4 0 2.2.7 4.2 1.8 5.8l8.6 10.4 8.8-10.7z"/><text transform="translate(969.405 128.376)" fill="#fff" font-family="'Helvetica-Bold'" font-size="12.497">L</text></g><g><path fill="#B9252D" d="M667 240.4c1-1.6 1.6-3.5 1.6-5.5 0-5.7-4.6-10.4-10.4-10.4-5.7 0-10.4 4.6-10.4 10.4 0 2.2.7 4.2 1.8 5.8l8.6 10.4 8.8-10.7z"/><text transform="translate(653.675 239.177)" fill="#fff" font-family="'Helvetica-Bold'" font-size="12.497">F</text></g><g><path fill="#B9252D" d="M664.3 269.7c1-1.6 1.6-3.5 1.6-5.5 0-5.7-4.6-10.4-10.4-10.4-5.7 0-10.4 4.6-10.4 10.4 0 2.2.7 4.2 1.8 5.8l8.6 10.4 8.8-10.7z"/><text transform="translate(650.974 268.403)" fill="#fff" font-family="'Helvetica-Bold'" font-size="12.497">E</text></g><g><path fill="#B9252D" d="M644 279c1-1.6 1.6-3.5 1.6-5.5 0-5.7-4.6-10.4-10.4-10.4-5.7 0-10.4 4.6-10.4 10.4 0 2.2.7 4.2 1.8 5.8l8.6 10.4L644 279z"/><text transform="translate(630.704 277.738)" fill="#fff" font-family="'Helvetica-Bold'" font-size="12.497">H</text></g><g><path fill="#B9252D" d="M682 295c1-1.6 1.6-3.5 1.6-5.5 0-5.7-4.6-10.4-10.4-10.4-5.7 0-10.4 4.6-10.4 10.4 0 2.2.7 4.2 1.8 5.8l8.6 10.4L682 295z"/><text transform="translate(668.704 293.738)" fill="#fff" font-family="'Helvetica-Bold'" font-size="12.497">G</text></g><g><path fill="#B9252D" d="M697 313c1-1.6 1.6-3.5 1.6-5.5 0-5.7-4.6-10.4-10.4-10.4-5.7 0-10.4 4.6-10.4 10.4 0 2.2.7 4.2 1.8 5.8l8.6 10.4L697 313z"/><text transform="translate(683.704 311.738)" fill="#fff" font-family="'Helvetica-Bold'" font-size="12.497">D</text></g><g><path fill="#B9252D" d="M783.7 114.6c1-1.6 1.6-3.5 1.6-5.5 0-5.7-4.6-10.4-10.4-10.4-5.7 0-10.4 4.6-10.4 10.4 0 2.2.7 4.2 1.8 5.8l8.6 10.4 8.8-10.7z"/><text transform="translate(770.405 113.376)" fill="#fff" font-family="'Helvetica-Bold'" font-size="12.497">N</text></g><g><path fill="#fff" d="M815.2 233.6c15.5-5.1 7.6-19.3 7.6-19.3s-4.9 1.1-7.6-.2c-2.7 1.3-7.6.2-7.6.2s-7.9 14.2 7.6 19.3z"/><path fill="#0EA9D6" d="M823.2 218.5s3.6 10-8.1 13.9c-11.7-3.9-8.1-13.9-8.1-13.9h16.2z"/><path fill="#D72631" d="M815.2 217.6h7.8s-.3-1.4-.8-1.9c0 0-4.2.6-7-.3-2.9 1-7 .3-7 .3-.5.5-.8 1.9-.8 1.9h7.8z"/><text transform="translate(810.096 226.723)" fill="#fff" font-family="'HelveticaNeue-Bold'" font-size="8.713">44</text><path fill="#fff" d="M891.2 311c15.5-5.1 7.6-19.3 7.6-19.3s-4.9 1.1-7.6-.2c-2.7 1.3-7.6.2-7.6.2s-7.9 14.2 7.6 19.3z"/><path fill="#0EA9D6" d="M899.3 295.8s3.6 10-8.1 13.9c-11.7-3.9-8.1-13.9-8.1-13.9h16.2z"/><path fill="#D72631" d="M891.2 295h7.8s-.3-1.4-.8-1.9c0 0-4.2.7-7-.3-2.9 1-7 .3-7 .3-.5.5-.8 1.9-.8 1.9h7.8z"/><text transform="translate(886.127 304.088)" fill="#fff" font-family="'HelveticaNeue-Bold'" font-size="8.713">40</text><path fill="#fff" d="M630.5 366.3c15.5-5.1 7.6-19.3 7.6-19.3s-4.9 1.1-7.6-.2c-2.7 1.3-7.6.2-7.6.2s-7.8 14.2 7.6 19.3z"/><path fill="#0EA9D6" d="M638.6 351.2s3.6 10-8.1 13.9c-11.7-3.9-8.1-13.9-8.1-13.9h16.2z"/><path fill="#D72631" d="M630.5 350.3h7.8s-.3-1.4-.8-1.9c0 0-4.2.6-7-.3-2.9 1-7 .3-7 .3-.5.5-.8 1.9-.8 1.9h7.8z"/><text transform="translate(625.46 359.422)" fill="#fff" font-family="'HelveticaNeue-Bold'" font-size="8.713">44</text><path fill="#fff" d="M706.2 181c15.5-5.1 7.6-19.3 7.6-19.3s-4.9 1.1-7.6-.2c-2.7 1.3-7.6.2-7.6.2s-7.9 14.2 7.6 19.3z"/><path fill="#0EA9D6" d="M714.3 165.8s3.6 10-8.1 13.9c-11.7-3.9-8.1-13.9-8.1-13.9h16.2z"/><path fill="#D72631" d="M706.2 165h7.8s-.3-1.4-.8-1.9c0 0-4.2.6-7-.3-2.9 1-7 .3-7 .3-.5.5-.8 1.9-.8 1.9h7.8z"/><text transform="translate(701.127 174.088)" fill="#fff" font-family="'HelveticaNeue-Bold'" font-size="8.713">35</text></g><text transform="translate(665.333 217)" fill="#877C6C" font-family="'HelveticaNeue-Bold'" font-size="10">OKLAHOMA CITY</text><text transform="translate(927.674 119.282)" fill="#877C6C" font-family="'HelveticaNeue-Bold'" font-size="10">TULSA</text><text transform="translate(709.007 134.282)" fill="#877C6C" font-family="'HelveticaNeue-Bold'" font-size="10">STILLWATER</text></svg>