<?xml version="1.0" encoding="utf-8"?>
<!-- Generator: Adobe Illustrator 18.0.0, SVG Export Plug-In . SVG Version: 6.00 Build 0)  -->
<!DOCTYPE svg PUBLIC "-//W3C//DTD SVG 1.1//EN" "http://www.w3.org/Graphics/SVG/1.1/DTD/svg11.dtd">
<svg version="1.1" id="map" xmlns="http://www.w3.org/2000/svg" xmlns:xlink="http://www.w3.org/1999/xlink" x="0px" y="0px"
	 viewBox="-345 -185 965 496" enable-background="new -345 -185 965 496" xml:space="preserve">
<rect id="background" x="-349" y="-185.5" fill="#A2DDF5" width="969.3" height="496.5"/>
<g id="land">
	<path id="piece_6_" fill="#F6F0EF" d="M599.2-177.7c-6.8-2-15.2-11.4-22.8-8h1c-1.7,0.9-3.9-1.8-5.3-0.9c-1.7,1.1,2.9,4.8,3.9,5.9
		c4.1,4.6,7.1,5.7,13,6.7c6.7,1,13,5.1,20.1,4.7C609.5-174.6,603.4-176.5,599.2-177.7z"/>
	<path id="piece_5_" fill="#F6F0EF" d="M-279.6-202.3c4.7,6.2,13.8,3.1,17.7,8.2c2,2.5,1.9,5.7,3.8,8.4c0.9,1.4,6.1,4.6,2.6,6.2
		c1.6,1.3,4.3,4.6,6.7,2.9c2.3,2.3,2,3.8,5.3,4.9c3.9,1.3,4.7,0.9,5.1,5.6c0.3,2.6,0.7,8.7,4.5,8c1.2,11.8-9.6,1.4-14.4-0.6
		c-1.7-0.7-3.5-0.4-5.2-1.2c-2.1-0.9-2.8-3-4.9-3.7c0.9-2.1,5.9-5.1,5.4-7.5c-1.2-5.1-3.8,3.2-4,3.3c-2.3,2-3.4-0.7-5-0.6
		c-2.7,0.2-1.9,1.3-4.2,2.1c-2.1-2.5-1.9-2.6-1.7-4.9c0.1-1.1,2.3-1.2,1-3.3c-0.4-0.7-6-2.5-6.8-2.8c-1.8-0.7-2.1,0.2-3.2-1
		c0,0-1-3.3-1.1-3.4c-0.9-2.9,0.1-2.4-2.8-3.7c-1.8-0.8-2.7-2-4.6,1c-3.3-0.9-1.4-3.8-1.5-6c-1.8,0.3-3.3-1-5-1.5
		c-2.6-0.7-3.3,0.3-4.8-2.5c-1.4-2.7-3.7-7.5-3.5-10.6L-279.6-202.3z"/>
	<path id="piece_4_" fill="#F6F0EF" d="M127.8,314.4c0.6-6.1-11.4-50.1-9.5-56.1c1.9-6.2,4.4-12.3,5.6-18.6
		c1.3-6.7-4.7-8.9-4.3-14.3c0.3-4.4-3.9-6.7-3.3-10.1c6.2,4.7,10.1-1.2,3.9-4.9c-3.4-2,2.2-2.8,3.2-2.7c3.3,0.2,1.4-7.8,6.4-6.7
		c3.6,0.8,2-3.8,2.4-5.1c0.9-2.5,8.5,1.3,10.6,0.3c3.9-1.9,6.3-4.4,9.1-7.6c4.6-5-1.5-4.7,0.7-9.5c2.6,1.8,5.7-3.2,7.5-1.9
		c0.5,1.3,0.4,2.7-0.3,4.1c2.8,0,6.8,0.3,8.5-2.6c0.9-1.5,1.5-4.3,4-3c-1,1.8-1.9,3.7-2.8,5.6c8.1,0.3,16,0.6,24.1,1.1
		c-1.3-11.1,9.9-0.7,12.8-1.4c-0.7,3.3,0.1,8.9,5.5,7.7c2.3-0.5,2.8-3.7,5.6-3.1c2.5,0.5,2.1,3.7,5.3,2.1c-0.4-2.3-3-3.5-1.7-6.1
		c1.1-0.2,20,10.9,14.9,3.9c-1.2-1.5-10.4-2-7.8-5.5c0.7-0.9,3.8-7.8,0.3-4.8c-3.8,3.3-4.2-0.7-8.3-0.9c-3.8-0.2-0.5-6.2,2.9-4
		c5.7,3.6,6.9-0.8,12.4-1.6c3-0.4,6.2,1.4,9-0.4c1.9-1.1,2.6-3.6,4.6-4.8c4.7-2.8,5.4,7.6,9.1,5.3c4.2-2.5,3.6-2,7.8-1.2
		c6.7,1.3,10.5-1.7,17.3,2.9c0.8,0.5,4.8,8.2,4.1,8c11.4,0.7,18.3-13,27,0c2.7,4.1,7.2,7.6,9.4,12c3.7,7.1-2.2,12.2-1,18.5
		c0.2,0,7.9-9.1,5.3-0.6c-1,3.4-3.9,13.3,1.7,14.5c-0.4-2.7,1.1-3.2,4.6-1.7c-1.9,2.1-2.3,4.5-1.4,7.1c0,0.1,2.9-6.2,3.8-3.9
		c0.7,1.8-0.8,6.6-0.4,8.8c0.5,3.6,5.7,6.6,7.6,9.9c1.6,2.8,2.1,4.6,5.7,5c8.2,1,7.8-3.1,7-9.5c-0.8-5.6,2.6-10,2.6-15.3
		c-0.1-3.9-4.6-3.8-2.7-7c1.3-2.3-2.5-6.8-3.6-8.5c-2.9-4.5-2.3-10.1-3.9-15.1c0.7-0.1,1.4,0,2.1,0.3c-0.8-2.5-3.3-4.1-4.6-6.3
		c-2.4-4.2-2.9-8.4-3.8-13c-0.8-4-1.7-7.9-1.8-12c-0.1-2.5,0.3-5,1.3-7.3c-2.1-0.8-2.5-2.1-1.3-3.8c2.7-3.8,4.3-5.8,7.4-8.6
		c3.1-2.8-0.9-4-0.2-7.1c0.6-2.5,3.3,0,3,1.7c2.3-1.8-0.7-3,2.8-3.1c1.6,0,6.6-0.3,5.4-3.2c6,3,12.4-12.4,15-14.8
		c4.9-4.6,8.8-3,13.7-5.3c3.9-1.9,6.1-10,6.1-13.4c2.1,0.2,2.4,4.1,5,1.9c2.6-2.3,7.6-0.1,9.2-3.9c-5.3-2.2-4.5-0.1-7.5-5.7
		c1.9-0.2,5.2,6.7,5.5,1c0.3-4.9-5.3-1.7-6-5.8c-0.6-3.4,6.5,2.1,7.6-0.2c0.4,0.9,0.4,1.8,0,2.7c4.4-2.1,10.9,0.3,9.9-8.5
		c-2.1,0.4-2.1,2.8-4.5,2.7c-0.8-1.4-0.7-2.8,0.2-4.2c-1.2-0.3-16.3,0.8-9.1-6.4c-0.2-0.1,5.7,9.5,5,2.5c2.2,3.3,2,0.1,4.9,0.8
		c3.9,0.9-0.7-5.5-0.7-6.4c4.2,1.1,2.7-5.8-2.1-6c-2.3,0-13.7-7.9-13.8-7.8c5.3-3.1,7.9,4.8,12.2,5.2c0.5-3.8-5.1-4.6-6-7.8
		c0.5,0.2,10.6,5.9,5.7,0.5c-2.9-3.2-5.8-7.6-9-10.4c3.9-2.4,8.1,5.1,10.3,7.1c2.8-7.9-15.1-7.3-12.6-15c1-3,8.3,5.6,12.3,5.4
		c0.5-2.4-1.7-6.1-4.2-6.4c-0.1-2.6-0.6-5.2-0.5-7.8c0.2-3.3,6.5-9.9,10-9.6c0.7,7.2-5.4,15.9,3.2,21.5c3.9,2.5-2.5,14.9-3.4,17.8
		c6.5-0.4,9.6-20.3,12-24.8c-5-4-13-23.4,0-21.9c-1.3,2.3-5.9,4.2-5.3,7.3c0.6,3.2,4.6,7.4,7.5,8.6c3.2,1.3,10.2-13.5,10.7-16.9
		c0.3-1.9,0.6-6.4-2.6-5.9c-0.9-5,7.1-5.3,10.6-6.3c3.7-1.2,17.8-0.5,18.5-5.7c-6.5-2.6-25.8,12.7-24.8-3.2c2.7,0.2,0.9,5.3,4.1,4.3
		c4.9-1.5,9.1-4.2,14.6-5.4c3.8-0.9,7.6-1.8,11.4-2.7c1.8-0.1,2.9-1,3.5-2.6c1.2-4,1.6-2.2,5.6-2.7c-3.6,6.8,4.6-0.4,4.7-0.4
		c1.8,5.3,0.5,3,5,2c2.7-0.6,9.5-5.2,3.3-7c-3.1,15.3-6.6-5-9-4.8c-6.1,0.4-0.4-4.9-1.3-9.1c-1.5-7,5.6-10.4,9.3-15.2
		c1.4-1.9,0.1-4.6,2.3-6.5c1.3-1.1,6.8-6,5.9-1c7.1,2.1,7.2-9.7,10.7-10.9c0,0,4.6,9.2,5.6,0.9c5.1,2.3,5.6-1.2,11.5-3.7
		c6.8-3,5.3-1,5.1-8c-0.2-6.5,3.5-1.7,7-1c6.9,0.7,5.5-5.9,9.3-5.9c1,1.9-1.8,5.3,2.5,3.8c2.3-0.8,4.4-2.5,6.4-3.9
		c5.8-4.4,7.9-5.2,8.5-12.4c3.1,0.3,2.3,8.2,6.3,5.1c0.2,3.9-9.5,8.3-4.6,9.2c2.9,0.6,15.4-4.3,15.9,0.8c-2.7,0.5-5.3,1.1-8,1.9
		c-4.2,0.4-4.9,2-2.1,4.8c-2,0.3-5-3.1-2.9-4.9c-3.7-0.6-14.5,7.4-17.2,10.2c5.1-1.7-5.8,6.1-6.9,8.5c-2,4.5,2.6,11,2.6,8.4
		c2,0.4,4.4,10,7.6,4.9c1.2-1.9,2.5-8.9,4.7-3.5c2.9-4.6,6.6-6.5,9.2-11.7c1.8-2.8,1.1-5.5,5.7-5.7c-0.9,3.5,4,2.8,6.4,4.2
		c0.5-2.7-0.7-4-2.7-5.4c1.2-1.1,4.1,1.2,6.3,0.8c3.8-0.8,7.4-2.5,10.7-4.4c3.9-2.3,16.7-3.7,18.9-6.9c-1.7-0.7-3.5-1-5.4-1
		c6.3-4.9-6.2-6.9-6.1-9.2c-5,3.2-6.5,3.8-12.1,4.1c-0.1-0.9,0.2-1.6,0.9-2.1c-3.7-2.8-6,1.4-9.4,0.2c-3.6-1.3-7.2-4.1-9.8-6.8
		c1.2-0.8,2.5-1,3.9-0.8c0.1-3.6-9.4-2.1-12.1-4.2c1.8-2-0.8-5.7-1.7-7.5c-2-3.6,0-4.3-0.8-7.7c-4.8-0.2-7.7-0.8-3.1-5.1
		c2.6-2.4,4.5-7.8,4.9-11.2c-5.3-2.5-10.3,9.7-12.8,3c-1.9-5.3-15.3-4.1-15.3-4.6c-0.4-4.7,11.3-2.2,12.1-6.8
		c6.7,2.3,9.2,8.9,15.4-0.2c2-2.9,6-1.2,8.2-4.1c2.2-2.8-4.3-4.6-5.2-6.4c1.9,0.1,3.8,0.2,5.7,0.3c-5.6-3.1-6.1-8-13.3-9
		c-7.6-1-15.6,2.1-22.6,4.7c-16.2,5.9-28.8,15.9-40.2,28.6c-5.1,5.7-10,11.6-16.5,15.9c-6.2,4.1-13.3,6.3-19.3,10.7
		c-8.7,6.4-19.4,26.5-31.8,24.9c5.1-5.9,8.1-10.7,13.7-16.1c8.5-8.1,18.4-12.7,28.3-18.8c8.8-5.4,14.8-14,21.9-21.3
		c10.2-10.3-9.7-5.7-12.1-9.6c-0.6-1,10.5-2.2,12-1.6c3.1,1.2,6,5.7,7.9,0.3c1.5-4.3,4.1-6.5,7.3-9.6c2.4-2.3,4.3-5.1,6.9-7.2
		c3.9-3.3,8.5-1.4,12.4-4.1c6.5-4.5,4.1-14.5,13.7-16.5c19.5-4,41.8-6,61.6-3c9.5,1.4,37,6.2,35.5-11.2
		c-94.2,0.2-188.5,0.4-282.7,0.6c-157.3,0.3-314.6,0.7-471.9,1c-47,0.1-93.9,0.2-140.9,0.3c0.5,2.2,0.9,4.4,1.1,6.7
		c1.7-0.7,3.5-1,5.3-0.9c0.9,4.5-4.9,7.3-0.4,12.3c5.2,6,5.6-7.1,9.1-6.2c1.3,0.3-0.1,9.1-0.7,9.8c-2.2,2.6,3.8,2.6,3.4,5.6
		c3.1-0.1,3.7-6,6.4-7.2c0.8,3-0.9,5.9-0.1,8.9c1.2-1.2,2.5-2.2,3.9-3.1c1,2.2-1.8,4.4-2.5,6.2c-1.3,3.4,5.3,3.6,6.4,6.5
		c2.6,6.3,0.6,10.5,5.4,15.3c2,2-1.3,4-2.3,5.1c-2.2,2.3,0.1,5.3,1.1,7.5c1.9,4.4-2.9,11.1-8.5,8.5c2.9-5.2,1.8-3.2-2.4-3.7
		c0.5-3,0.3-6.6,2.4-9.1c1.4-1.7,4.4-3.5,4-6.1c-7.1,1.6-12.6-1.3-18.9-3.8c-7.4-3-8.4-2.4-5.6,4.2c1.3,3,1.9,6.8,2.4,9.9
		c0.8,4.9,4,6,5.5,9.9c1,2.9-3,4.3,1.8,7.6c-4.8-3.6-3.2,4.6-1.2,6.2c2.1,1.7,6.7,0.7,7.8,3.8c-8.7,1.3-9-1.7-9.9,7.5
		c-1.1,8.2-1.4,18-1.1,26.4c0.2,2.9,2.1,7.7-0.1,10.2c-1.5,1.7,1.3,3.8-0.1,6.5c-4.9,9.9-9.6,16.1-2.7,27.2c3.8,6,3.5,14.3,2,21.2
		c-0.7,3.2-4.9,4.5-3.9,8.6c0.9,3.6,4.7,5.9,6.7,8.9c5,7.2,2.6,17.2,6.7,25c1.5,2.9,11.1,9.4,11.1,12c-0.8-6.9,10.9-8.4,15.2-5.7
		c5.2,3.3-8.7,4-10.2,4.6c1,2.9,3.2,5.6,3.6,8.7c-8.1-10.6-13.1,2.1-5,5.7c1.8,0.8,9.7-0.5,7,4c-4,6.7,1.6,6.8,5.3,11.6
		c3.5,4.6,7.3,10.2,9.8,15.4c2.5,5.1,2,11.5,9,12.3c7.4,1,7.4-1.4,13,4.2c2.9,2.9,9.8,0.7,9.2,6.6c8.8-5.2,21.6,24.5,23.9,29.8
		c2.6,6.2,6,12,8.5,18.2c2.4,5.2,3.8,14.8,8.6,18.1c6,4.2,8.3,7.3,12,13.5c1.7,2.9,4.3,3.7,6.5,6.1c2.9,3.1-0.3,3.1-1,5.3
		c-0.9,2.6,6,7.8,0.7,7c-2.2-0.3-10.7-5.7-12.1-1.9c-0.2,0.5,8.6,8.5,9.5,8.7c3.5,1,4.2,4.1,7.3,5.4c3.1,1.2,7.2-1.5,9.7-2.8
		c-0.2,6.7,5,8.9,9.5,12.5c7.2,5.7,0.6,13.2,3.9,19.7c2.6,5,10.9,9.1,15,12.9c2.8,2.5,4.3,6.2,7.5,8.2c4.2,2.6,3.7,4.5,6.4,8.2
		c8-5,5-15.8-3.2-19.2c0.5,3.7-1.9,4-4.2,1.8c-3.6-3.6-1.4-8.6-3.7-12.8c-4.7-8.8-6.3-22.4-14.1-28.7c0.7,1.5,0.8,3.1,0.3,4.6
		c-2.7-0.5-12.6-19.4-13.5-21.9c-1.5-4.1-1.5-7.9-5.4-10.5c-1.3,0-4.4-4-4.8-4.8c-3.3-8-13.1-9.8-13.9-18.4c-0.5-4.9-1.3-9.3-4-13.4
		c-1.1-1.7-4.1-13.8-3.9-15.7c2.4,0.4,9.3,9.7,11,4.4c1.2-3.6,10,5.6,12.2,5.8c2,0.2,6.4,8.2,6.5,10.5c0.1,5.6,4.5,13.9,8.2,18
		c3.9,4.2,3.9,11.8,7.6,16.7c2.6,3.3,6.1,5.7,9.3,8.4c2.4-2.4,4.4-1.7,6.9,0.8c1.2,1.1,0.6,4.3,1.5,5.9c1.7,2.8,5.1,4,6.7,6.8
		c2.2,3.7,2.7,1.7,6.8,3c4.8,1.5,4,5.8,6.4,9.1c-3.1-4.4-6.4,4.4-5,7.6c0.6,1.3,5.3,2.5,7.1,4.1c2.1,2,5.1,2.2,7.5,3.7
		c3,2,1.2,3.7,2.7,6.3c2.5,4.7,8.2,28.2,11.8,32.3c4.8,5.4,18,30.7,25.4,30.5c6.9-0.1,13.9-0.3,20.8-0.4
		C65.3,315.6,96.6,315,127.8,314.4z M166.9-170c-1.9,1.7-4.5-0.4-5.2-2.1c-2.4,1.9-1.4,11.4-7.3,8c-4.4-2.5-4.7-6.8,0.3-7.3
		c8.2-0.9-1.7-4.8-2-5.2c-2.3-2.6-0.6-5.4,1.9-6.5c3.5-1.5,1.2-3.3,1.5-6.2C157.8-189.1,169.1-171.9,166.9-170
		C165-168.4,169-171.8,166.9-170z M307.3-59.6c-2.7-2.5,3.4-9.2,4.7-11c4-5.7,3.5-6,1.3-11.9c-1.7-5-1.3-7.4-5.9-9.4
		c-5.1-2.2-11.8-8.4-17.8-3.4c1.3,0.5,2.6,1,3.9,1.4c-1.9,1.5-3.9,3.1-5.7,4.6c-2.1,2.7-1.2,5.9-2.2,8.9c-3.8-0.1-3.3-4.4-3.8-6.9
		c-8.6,2.6-9.2,21.7-9.1,28.6c0.1,5.3,3.7,9.2,3.8,14.3c0.1,6-3.3,16.3-8.6,19.9c-11.9,8-17.8-12.6-18-20.3
		c-0.3-15.2,11.6-28.1,11.4-43.4c-3,3-3,8.2-6.1,11.3c-5,5-5.1-3-3.6-6.1c2.9-6,8.1-25,17.4-17.8c3.6,2.8,11.6-3.3,15.3-4.1
		c3.4-0.7,6.2,0.7,8.7,2.9c0.6-1.9,2.9-2.1,4.5-2.1c5.2,0,10.2,2,15.1,3.2c5.4,1.3,11.9-1.4,16.9,1.5c1.7,1,3.1,3.5,4.8,4.3
		c4.9,2.2,3.1-5,1.7-6.5c-0.2-0.3-5.8-2.9-6.5-3c-4.7-0.9-11.5,1-16.8,0.3c-4.4-0.7-8.8-2-12.9-3.5c-2.3-0.9-9.8-3.2-9.2-6.9
		c-6.6-2.8-12.6,0.9-19,1.9c-5,0.8-16.1-1.7-18.5-6.8c-2.3-4.8-13,4.4-11.8-5.7c3.3-1.3,11.9-1.7,11.1-7.1
		c-8.9-3.6-24.8,11.5-33,14.4c-3.4,1.2-11.8,3.8-10.2-2.5c-6.1-1-11,5.7-17.1,3.2c3.1-6.3,7-9.9,13-13.6
		c5.2-3.2,13.5-10.9,19.5-11.7c8.3-1.1,3.2-16.8,15.1-11.1c0.1-4.8,0.4-5.2,4.9-5.3c3.4,0,9.2-2.2,2.6-4.3c2.8-4.9,7.4-2.6,10.9,0
		c4.7,3.5,9.2,2.4,13.6,4.9c3.8,2,3.9,7.8,6.2,11c2.6,3.6,11.7,2.5,15.9,4.3c-4.5,3.2,1.5,8.6,0.7,12.8c-1.3,6.8,5.5,3.2,8,7.4
		c-10.4,4.7-3.4,9.5,3.4,12.9c8.6,4.2,19,0.2,28.1,1.7c5.5,0.9,16.9,1.8,19.2,8.1c1.5,4,0.6,8.3,4,11.4c3.3,3,8,4.8,8.2,9.9
		c-2.2,0.2-4-0.6-5.4-2.4c3.8,3.9,1.2,7.2-3.6,7.5c-7,0.5-7.7-5.1-12.5-8.3c-6-4-7.1,25.3-8.5,29.7c-1.1,3.9-5.3,7.6-9.2,3.9
		c-4.4-4.2-3.7-11.4-6.8-16.3C316.2-69.7,313.2-54,307.3-59.6C303.9-62.7,315-52.3,307.3-59.6z M371.2-41.5
		c-9.4,8.8-22.5,10.3-33.2,18c-5.5,3.9-11,4.8-17.6,3.7c-7.9-1.3-8.2-4.1-7.8-11c7.4-1.9,13.8-3.4,20.4-7.6
		c6.4-4.2,13.3-2.5,19.8-5.8c4.7-2.4,11.2-0.9,15.2-5C375.3-56.6,376-46.1,371.2-41.5C369.9-40.2,374-44.2,371.2-41.5z M410.8-66
		c1.8,5.9-4.6,6.4-8.3,7c-4.2,0.7-4.3,2.7-7.7,3.8c-4,1.3-8.7-0.6-12.7-1.2c-6.5-0.9-14.1,0.9-20.4,2.4c-2.2-9.9,9-11,16-12.2
		c12.7-2,24.4-7.3,36.8-10.7C413-74.5,406.8-68.9,410.8-66C412.2-61.6,407-68.8,410.8-66z"/>
	<path id="piece_3_" fill="#F6F0EF" d="M-78.3-16.5l-0.5-3.2c-1.2-0.9-2.8-1.9-4.3-2.7c-1.7,1.5-1.4,3.9-2.7,5.5
		c-1.7-1.5-3.8-8.7-7-6.4c-2,1.4,0.6,7.3,2.6,7.5c-0.3,10.6,8.1,9.2,14.7,4.2C-76.1-13.3-77.2-15-78.3-16.5z"/>
	<path id="piece_2_" fill="#F6F0EF" d="M348.5,216c-1.8,0.8-3.3,1.8-4.8,3.3l1.6,3.2C349.7,227.7,349.5,218.4,348.5,216z"/>
	<path id="piece_1_" fill="#F6F0EF" d="M393.9,219.8c-3.9-1.3-15.6,2.1-18.6,4.3c2.3,1.6,6.2,1.5,9,0.5l-2.1-1
		c2.9-2.3,7.1-1.7,10.5-1.5c0.3,0.2,2.1,1.6,2.6,2.1c-0.2,2.1-0.7,4.6-0.3,6.9C399.5,230.6,398.1,221.2,393.9,219.8z"/>
	<path id="piece" fill="#F6F0EF" d="M409.8,245.4l1,3.2c1.3,2.4,1.2,5.1,2.1,7.5C416.1,252.5,411.9,248.8,409.8,245.4z"/>
</g>
<g id="green">
	<path fill="#DEECD2" d="M376.7,22.2c-5.1,1-10.6,15.4-15,14.8c-5.3-0.7,14.8-12.4,4.7-16.5c-5.7-0.4-5.8-3.1-8,4
		c-1.6,5.5-6.5,7.1-6.5,13.5c1.2-0.7,2.3-0.7,3.5,0.2c0,2.7,0.5,5.7-1.1,7.6c-2.7,3.3-22.5,6-14.7,9.1c-3.4,1.3-6.5,3.1-9.3,5.4
		c9.6,5,16.5-10.7,25.6-10.7c-2.3,0.8-9.9,5.7-10.9,8.1c3.8-0.6,14.3-6.3,16.6-9.3C364.1,45,378.2,26,376.7,22.2
		C373.8,22.8,378.3,26.1,376.7,22.2z"/>
	<path fill="#DEECD2" d="M322,82.2c-4.8,1.5-4.3,2.5-9.5,2.1c-1.2-12.4,17.1-4.9,20.1-5.7c9.8-2.7-0.9-8,1.3-11.1
		c1.3-2,11.2-3.7,10.6-6.3c-7-2.6-24.6,12.6-30.9,15.9c-5.3,2.7-13.5,7.8-17.1,12.5c-9.3,12.6,12.6,7.5,17.2,5.7
		C307.1,106.7,325.4,85.5,322,82.2C320.4,82.7,324.7,84.7,322,82.2z"/>
	<path fill="#DEECD2" d="M316.8,62.4c3.4,1.4,10.5-1.8,4.5-4.2c1.5-1.9,3.2-3.5,5.1-5.1C319.8,53.3,319.5,56.8,316.8,62.4
		C318.5,63.2,317.6,60.7,316.8,62.4z"/>
	<path fill="#DEECD2" d="M311.1,52.9c-5.2-1.1-9.4,2.3-2.5,5.7C316.3,62.4,314.6,52.3,311.1,52.9z"/>
	<path fill="#DEECD2" d="M300.2,57.4c0.9-5.7,17.5-18,11.7-23.2c-0.6-0.6-19.2,24.8-18.7,29.9C299.2,64.2,299.4,62.6,300.2,57.4
		C300.5,55.4,299.4,62.7,300.2,57.4z"/>
	<path fill="#DEECD2" d="M290.4,99.7c0.4-2.7-3.3-1.9,0.5-4.9c-5.7,0-6.1,2.1-6.4,7.9C287.1,102.9,289.1,101.9,290.4,99.7
		C290.6,98.7,289.9,102.9,290.4,99.7z"/>
	<path fill="#DEECD2" d="M282.8,109.2c-1.5-0.3-11.6,12.7-8.7,14.3C279.4,119.2,283.1,114.3,282.8,109.2
		C279.8,108.5,282.8,110,282.8,109.2z"/>
	<path fill="#DEECD2" d="M308.6,123.1c0.8-0.2,1.5-0.7,1.9-1.2C307.7,120.3,305.6,123.9,308.6,123.1z"/>
	<path fill="#DEECD2" d="M327.9,104.4c-7.5,4.6,1.5,10.9,1.9,10.4C331.5,112.5,335,102.9,327.9,104.4z"/>
	<path fill="#DEECD2" d="M333.3,99.9c-1,7.7,8.7,1.2,7.3-0.9C338.7,95.7,334.1,94,333.3,99.9z"/>
	<path fill="#DEECD2" d="M356.2,97.4c-1.5-0.4-2.2,0.3-2.1,2.1c1.5,0.2,3.2,0.1,4.7-0.1C357.9,98.7,357.1,98.1,356.2,97.4z"/>
	<path fill="#DEECD2" d="M357.1,116.9C358.3,136.9,369.2,111.7,357.1,116.9C357.2,118.8,360.1,115.6,357.1,116.9z"/>
	<path fill="#DEECD2" d="M324.5,153.7c-2.3,0.7-3.6,17.7,0.7,16.8C325.7,168.2,334.7,150.6,324.5,153.7
		C320.7,154.8,326.2,153.2,324.5,153.7z"/>
	<path fill="#DEECD2" d="M333.1,170.5c-2.7-1.9-2.7,2.7-2.9,4C332.2,174.2,333.2,172.8,333.1,170.5
		C332.6,170.2,332.3,172.1,333.1,170.5z"/>
	<path fill="#DEECD2" d="M338.1,184.6c-0.1-0.2-4.1-6.7-4-6.7C326.6,188.1,333.3,188.7,338.1,184.6
		C337.4,182.7,336.7,185.9,338.1,184.6z"/>
	<path fill="#DEECD2" d="M294.9,165.8c-12.4,4.3-2.1,9.4,4.2,2.1C298.6,165.5,297.2,164.8,294.9,165.8
		C293.7,166.1,296.5,165.2,294.9,165.8z"/>
	<path fill="#DEECD2" d="M348.8,236.1c-1.2-0.7-7.7-11.8-9.5-4.3C336.2,244.7,357,240.4,348.8,236.1
		C347.2,235.3,350.7,237.1,348.8,236.1z"/>
	<path fill="#DEECD2" d="M263,154.7c-0.9,4.7,7.6,0.3,8.3-0.8C271.3,152,263.4,152.7,263,154.7C262.7,156.4,263.4,152.8,263,154.7z"
		/>
	<path fill="#DEECD2" d="M238.1,158.8C239.5,158.8,238.1,158.8,238.1,158.8L238.1,158.8z"/>
	<path fill="#DEECD2" d="M238.1,158.8c3.5-5.4-7.2-8-8.1-4.2c0.4-1.7,2.8,9.7,2.2,8.7C234.6,167.2,236.6,158.7,238.1,158.8
		C238.9,157.6,237.4,158.7,238.1,158.8z"/>
	<path fill="#DEECD2" d="M235.4,147C230.4,157.6,250.5,143.8,235.4,147C235.4,147,236.8,146.8,235.4,147z"/>
	<path fill="#DEECD2" d="M231.7,136.9c0.7,2.1-3.9-8.7-6.9-6.4C220.5,133.6,231.8,144,231.7,136.9z"/>
	<path fill="#DEECD2" d="M211.7,145.5C195.4,153.5,214.8,156,211.7,145.5C210,146.2,211.7,145.5,211.7,145.5z"/>
	<path fill="#DEECD2" d="M213.8,127.3c1.5,0.9-2.3-3.4-3.9-1.4c-0.5,2.6,0.3,4.5,2.6,5.9c-0.3-1.1-0.5-2.3-0.5-3.5
		c1.2-0.3,2.2,0.1,3.2,0.9C215.7,127.5,215.3,126.9,213.8,127.3z"/>
	<path fill="#DEECD2" d="M228.1,99.7c0.5,1.6,1.4,3,2.5,4.3c2.7-1.2,8.1-7.8,5.7-10.9c-3.6-4.8-7.2,4.8-3.9,4.8
		C231,97.7,228.5,97.8,228.1,99.7C227.8,102,228.5,98.2,228.1,99.7z"/>
	<path fill="#DEECD2" d="M258.2,100.9c0.6-1.2-4,0.9-3.1,5.4c1.3,6.3,6.3-2.1,7.9-3.4C261.5,102.2,259.9,101.5,258.2,100.9
		C258.4,100.6,259.7,101.9,258.2,100.9z"/>
	<path fill="#DEECD2" d="M181.5,143.8c1.6,1.4,3.4,2.3,5.4,2.9c1.5-1.1-2.3-10.4-4.3-10.2C177.6,137.2,177.5,143.4,181.5,143.8
		C183.4,144.1,180.2,143.8,181.5,143.8z"/>
	<path fill="#DEECD2" d="M187.3,153.7c-1.5-0.9-10.9,1.5-7.3,2.9c0.9,0.3,8.1,0.1,8.5-0.4C188.1,155.3,187.8,154.6,187.3,153.7z"/>
	<path fill="#DEECD2" d="M170.6,145.5c-0.3-1.4-4.4-5.8-5.7-2.4c0.3-0.7,3.3,12.1,3.2,12C173.4,159.9,171.5,147.5,170.6,145.5z"/>
	<path fill="#DEECD2" d="M163.7,150c-0.4-0.6-0.3-3.2-3.4-2.7c0.3,2.2,0.9,4.3,1.9,6.3c-1-1.3-2.4-2-4-2.1
		C157.8,159.2,163.1,155.3,163.7,150z"/>
	<path fill="#DEECD2" d="M154.1,151C154.8,151.8,154.1,149.5,154.1,151C154.2,151.1,154.1,150.9,154.1,151z"/>
	<path fill="#DEECD2" d="M149.1,145.7c-4.1,0.6-1.5,8.6,1.4,9.3C157.2,156.8,153.3,145,149.1,145.7
		C146.5,146.2,152.4,145.2,149.1,145.7z"/>
	<path fill="#DEECD2" d="M151.3,161.9c-0.2,0-15-2.1-7.4,3.3c3.9-3.9,3.3,2,8.7,1.5C152.7,168.8,151.4,162.2,151.3,161.9z"/>
	<path fill="#DEECD2" d="M173.3,93.2c1.7-3.4,2.2-2.7,3.5-6.7c-5.4-1.6-4.7,1.8-8.5,3.8c1.2,1.3,1.3,2.5,0.2,3.8
		c-2.7,0.9-7.6-1.9-12.4,0.3c-5.8,2.7,11.1,4.1,11.2,3.4c-0.3,2-4.6-0.4-4,3.4c0.8,5.2,19.5-6.8,20.7-8
		C182.4,89.8,175.8,93.9,173.3,93.2C173.9,92,176.3,94.1,173.3,93.2z"/>
	<path fill="#DEECD2" d="M172.2,86.2C173.2,84.3,172.2,86,172.2,86.2C172.2,86.2,172.2,85.9,172.2,86.2z"/>
	<path fill="#DEECD2" d="M172.8,85.5C172.8,85.5,173.4,84.6,172.8,85.5L172.8,85.5z"/>
	<path fill="#DEECD2" d="M166.9,82.3c5,1.5,19,4.4,15.3-4C177.9,68.5,163,81.1,166.9,82.3C168.3,82.6,165,81.7,166.9,82.3z"/>
	<path fill="#DEECD2" d="M192,72.9c-1.5-1.2-3.3-1.6-5.5-1.3C183.2,81.9,197.6,71.1,192,72.9z"/>
	<path fill="#DEECD2" d="M176,66.2C165.4,58.8,170.7,71.5,176,66.2C175.4,65.7,174,68.1,176,66.2z"/>
	<path fill="#DEECD2" d="M181.1,65.9c1.4,0.8,6.9,0.3,5.6-2.6c-4.4,0.8-4.5-7.5-8.3-6.3C175.7,57.9,180.4,65.5,181.1,65.9
		C182.7,66.8,180,65.3,181.1,65.9z"/>
	<path fill="#DEECD2" d="M190.6,59.3c0.6,1.2,1.1,2.5,1.6,3.7c2-1.5,2.7-3.6,2.4-6.1C188.4,56.7,193.1,57.2,190.6,59.3z"/>
	<path fill="#DEECD2" d="M196.2,41.4c-1.6,0-1.5,4.5-2.9,5.1c-1.3,0.5-1.7-3.7-2.6-3.4c-6.3,1.6-2.4,6.8,1.5,5.8
		C193.5,48.6,200.8,41.4,196.2,41.4C194.7,41.4,198.3,41.4,196.2,41.4z"/>
	<path fill="#DEECD2" d="M205.2,52.1c3.9,0.8,8.1-8.5,1.4-10.7C203,40.2,200.5,51.2,205.2,52.1C207.2,52.5,204.7,52,205.2,52.1z"/>
	<path fill="#DEECD2" d="M204.2,65.6c12.9,5.1,2.1-14.3-2.3-8.7C201,58.2,204.6,63.7,204.2,65.6C206.6,66.6,204.7,62.9,204.2,65.6z"
		/>
	<path fill="#DEECD2" d="M215.4,55.8c-2.7,0.5-2.1,2.2-4.5,3.4C217.9,65.6,219.1,54.9,215.4,55.8z"/>
	<path fill="#DEECD2" d="M219.7,45.7c-3.4-0.7-1.5,3.6-1.8,5.1c-1.1,0.2-4.2-2.1-2.3-3.2c-0.5-0.2-1-0.3-1.6-0.5
		c-3.9,1,1.6,4.7,2.6,4.8C220.7,52.2,222.6,46.2,219.7,45.7C216.4,45,221.7,46,219.7,45.7z"/>
	<path fill="#DEECD2" d="M243.7,44.8c-4.1-0.3-11.4-2.4-15-2.1c0.3,0,1.1,12.3,1.2,12.9c3.7,0,2.4-5.8,3.6-7.8
		c2.6-4.3,8.4,8.5,9.2,7.5c0.7-2,0.9-4,0.5-6.1c1.5-0.2,3.1-0.3,4.5-0.6C247.5,46.2,246.2,44.9,243.7,44.8
		C240.8,44.6,245,44.9,243.7,44.8z"/>
	<path fill="#DEECD2" d="M268.2,43.3c1.6-3.9,3.6-15.7,0.2-17.4C265.3,24.3,262.6,41.2,268.2,43.3C269,41.3,264,41.7,268.2,43.3z"/>
	<path fill="#DEECD2" d="M271.1,21.7c2.9,1.9-1.7,3.2,2.2,4.9C277.3,23.7,272.6,19.1,271.1,21.7C271.5,22,272.9,18.8,271.1,21.7z"/>
	<path fill="#DEECD2" d="M322.3,30.2c0.7,0.1,5.5-0.1,6-0.8C332.6,23.4,312,29,322.3,30.2C323.2,30.3,317.9,29.7,322.3,30.2z"/>
	<path fill="#DEECD2" d="M329.3,16.4c1.3,1.3,1.2,2.3,3.4,1.4c-3-4.5-6.4-11.8-8.7-0.3C325.7,16.8,327.5,16.4,329.3,16.4z"/>
	<path fill="#DEECD2" d="M341.6,16.4c1.2-0.3,5.6-4.6,4.3-6.3C342,5.2,336.5,17.9,341.6,16.4C342.2,16.2,338.5,17.3,341.6,16.4z"/>
	<path fill="#DEECD2" d="M44.9,179.6c-5.1-5.5-6.1-0.8-9.9,2.7c-2.1,1.9-1.2,5.1,1.4,5.8C46.2,190.9,43.6,184.1,44.9,179.6z"/>
	<path fill="#DEECD2" d="M18,132.1c-1.5,3-3.7,4.4,1.6,7.2C24.9,136.3,18.7,134.8,18,132.1z"/>
	<path fill="#DEECD2" d="M10.8,125.4c-4.1-4.1-12-3.1-7.3,4.1S10.5,125.9,10.8,125.4z"/>
	<path fill="#DEECD2" d="M8.7,111.6c-1.5-9.3-7.5,14.2,0.3,7.6c-2.6-8.1,4.5-2.6,5.1-4.3C15,112.2,10.5,110.5,8.7,111.6
		C8.6,111.1,10.6,110.5,8.7,111.6z"/>
	<path fill="#DEECD2" d="M4.1,99.9c-3.5,1.4,3.3,5.1,3.2,5.1C11,103.5,4.2,99.9,4.1,99.9C3.6,100,4.7,100.5,4.1,99.9z"/>
	<path fill="#DEECD2" d="M-15,112.6c-0.7-1.4-0.6-4.8-2.7-5.1c-2.2-0.3-0.9,10.4,2.1,10.1C-14.4,117.6-12.3,111.4-15,112.6z"/>
	<path fill="#DEECD2" d="M-21.2,116.2c-4.6,1.1-9.9-0.5-8.8-6.7c2.2-13.5-7.5,6.2-14.7-2.9c-8.1-10.2-20.4-6.3-26.6-21.5
		c-4-10-13.6,2.6-14.8-0.5c4.6,11.8,9.2,21,17.1,31.5c6.5,8.7,5.9-3.9,5.4-6.9c-1.4-8,7.8-4.5,11.7-3.2c6.5,2.3,7.1,5.3,8,11.8
		c1.4,10.5,5.5,0.9,10.1,3.5c4.3,2.5,4.2,6.7,9.9,7.3C-17.1,129.4-21.6,119.3-21.2,116.2z"/>
	<path fill="#DEECD2" d="M-22.3,92.9c-1.8,0.7-1.8-7.5-4.6-9.3c-7.2-4.6-6.3,3.4-0.2,5.7c-3.4,1.4-1.4,5.5,1.9,3.6
		c-1.3,4.4,2.2,4.8,5.3,4.3C-20.6,95.6-21.3,94.2-22.3,92.9z"/>
	<path fill="#DEECD2" d="M-14.6,83.7c2-3.1-5.7,1.5-4.7,1.1c0.3-1.3,0-2.5-0.9-3.5c-0.8,2.3-0.6,4.5,0.5,6.7
		C-18.8,86.7-16.2,83.6-14.6,83.7C-14.5,83.7-16.7,83.6-14.6,83.7z"/>
	<path fill="#DEECD2" d="M0.2,71.6c1.5-1.9,4.6-0.2,5.4-1.2C8.8,65.9-5.9,54,0,50.7c-1.6-3.4-1-16.5-4.9-13.1c1-2.5,6.3-5.5,9.9-4.5
		c0,3.5-2.1,10.3,4.3,13.3c5.6,2.7,0.9,11.1,7.8,8.9c8.7-2.7-4.9-9.5-7-13.4c-8.7-15.8,8.1,3.6,6.7,3.8c9.9-0.9-11.2-16.5-10.9-16.2
		c-2.9-2.7-2-3.3-3.1-7.3c-2-6.9,3.7-1.7,6.6-1.9c0.4-1.8-1.5-9-1.7-11.4c-0.5-5.7-20-0.8-8.5,2.8c-4.6,5.3-7.5-1.7-7.8,6.1
		c-5.3,1-9.6-3.8-14.9-2.1c0,2.6-3,6.1-2.7,7.7c1.1,0,6.4,2,7.7,1.6c-1.3,2.3-1.8,4.8-1.5,7.4c7.1-0.9,6.9,0,8.7-5.2
		c1.9-0.2,5.7,6.2,5.3,7.8c-4.2-2.7-9.1,7.6-12,8.4c-0.1-10-12.4-2.9-12.5,0.8c-0.3,11.7,8.2,4.2,13.4,9.3c3.7,3.6,9.9,3.3,12.6,5.7
		c9.6,9-4.5,6.7-6.5,7.4C-11.5,70.9-2.1,86.2-2,79c-1.5-0.3-2.8-0.5-4.3-0.4c-2.6-0.9,2-6.9,4.4-2.5c-0.3,0.3,0.7,5.7,1.8,5.9
		C3.3,82.6-1,73,0.2,71.6C1.3,70.2-1.5,73.5,0.2,71.6z"/>
	<path fill="#DEECD2" d="M-14,59.6c-2.6,0.9-6.3,7.8-1.4,8.1C-12,67.8-10.9,60.3-14,59.6z"/>
	<path fill="#DEECD2" d="M13.5,86.7c0.4-3.1-0.3-15.3-0.9-18.5c-7.8-1.9-9.9,22.4-3.3,19.6c0.3-2.1-0.4-3.6-2.1-4.8
		C11.1,81.8,10.2,86.7,13.5,86.7C14,82.8,10.5,86.7,13.5,86.7z"/>
	<path fill="#DEECD2" d="M17.5,60.9c-2.9-0.2-8.6-2.1-8.3,3.3C11.3,65.2,16.5,62.5,17.5,60.9C13.5,60.7,16.8,62,17.5,60.9z"/>
	<path fill="#DEECD2" d="M38.9,44c-1.4-0.4-7.3-2.1-8.4,1.1C33,48.4,37.8,47.9,38.9,44C37,43.4,38.3,46.2,38.9,44z"/>
	<path fill="#DEECD2" d="M35.3,53.1c-0.9,2.3,13.4,4.5,13.5,4.5c7.9,1.2,3.1-7,0.4-6.9C47.7,51.3,35.9,51.7,35.3,53.1
		C34.3,55.4,35.8,52.1,35.3,53.1z"/>
	<path fill="#DEECD2" d="M49.2,64.1c-0.8-0.3-6.9-1.1-6.9-1.1c-0.7,0.3-0.7,5.9-0.8,6.4C47.8,71.7,62.7,69.4,49.2,64.1z"/>
	<path fill="#DEECD2" d="M14.3,23.3c0.4,2.2,1.3,4.3,2.6,6.2C28.9,20,8.8,10.1,14.3,23.3z"/>
	<path fill="#DEECD2" d="M-14.6-6.6c3.9-0.9,5.7,0.7,5.4,4.5c0.3,2.7,1.1,5.3,2.4,7.7C-4.8,1.2-4-4.5-3.6-9.5
		c0.4-4.1-9.7-13.3-11.7-5.4C-8.8-8.3-17.1-8.9-14.6-6.6C-13.1-5.4-17.5-9.2-14.6-6.6z"/>
	<path fill="#DEECD2" d="M-16.4,14.2c8,0.6,7.1-13.3,0.3-13c-0.3,3.3-2.2,4-5.7,1.9C-21.4,6.6-24.7,13.5-16.4,14.2
		C-12.5,14.6-18.7,14-16.4,14.2z"/>
	<path fill="#DEECD2" d="M0.2-3.7c-9.4,1.5,9.3,8.1,8.7,8.5C10,2.3,10.8-0.4,11.3-3C8.2-4.4,4.8-4.5,0.2-3.7
		C-6.2-2.6,2.2-4.1,0.2-3.7z"/>
	<path fill="#DEECD2" d="M-0.6-12.9c1.1,0.5,4.5-0.1,5.4-0.2C3-27.9-9.2-16.8-0.6-12.9C0.6-12.3-1.4-13.2-0.6-12.9z"/>
	<path fill="#DEECD2" d="M39.4-13.6c-0.9-1-18.6,2.1-19.6,3.3C15.9-5.4,50.8-0.2,39.4-13.6C36.2-17.3,42.1-10.3,39.4-13.6z"/>
	<path fill="#DEECD2" d="M-82.7,46.1c5.4,4.3,9.3-5.7,15.9-4.4c7.7,1.5,7.9-1.3,12,6.3c2.9,5.3,9.8,7,11.2,0
		C-42.2,41-27.8,36.8-29.9,32c-4.2-9.3-7.9-19.9-16.9-12.7c-3.3,2.6-3.2-8.6-3.3-9.3c-7.8-1.1-1.5,6.5-3.3,9.9
		c-1.1,2.1-11.4,5.7-11.5,5.1c-2.5,0.1-1.3-9.4-4.4-12.1c2.1-2,14.4-6.7,14.1-8.5c-2.7,0.2-10.3-1.2-13.2-2
		C-69.7-4.9-57.8-4.1-53.7-4c2.1,0,19.4-5.9,11.7-9.2c-4.5-1.9-16-0.8-20.1,1.2c-7.7,3.7-5.9,3.1-10.3,9.3c-1.7-2.3-3.5-4.6-5.3-6.9
		C-78.1-6-73.1,1.8-71.4,4.4c4.2,6.2-0.9,2.7-1,8.1c-0.5,17.2-7.9,1.3-11,2.7c-3.9,1.9,5.6,9.4-1.1,10.6c-5,0.9-0.8,7.8-1.6,11.1
		c-0.8,2.9-9.1,7.6-4.5,11C-85.5,52-85.6,48.8-82.7,46.1C-81.1,47.4-83.6,46.9-82.7,46.1z"/>
	<path fill="#DEECD2" d="M-76.4-17c13.4,5.6,5.7-16.2,5.6-23.4C-74-39.1-80.9-17.7-76.4-17z"/>
</g>
<g id="state-lines">
	<polygon opacity="0.5" fill="#D8D2D2" enable-background="new    " points="253.3,-102.8 253.3,-93.8 256.8,-93.8 256.8,-94.7 
		254.2,-94.7 254.2,-103.3 250.8,-105.2 250.8,-107.4 224.9,-115.2 221.5,-118.7 220.9,-118.1 224.5,-114.5 249.9,-106.8 
		249.9,-104.7 	"/>
	<path opacity="0.5" fill="#D8D2D2" enable-background="new    " d="M369.1,11.6h-14.6V-4.7h0.9v-0.9h-0.9v-26.6h-0.9v26.6h-0.4
		l0.3,5.7l-3.1,12.4l-9.3,3.3l-2.3,8.1l-4.4-2.4l-2.1,8.5l-5.8,2.9l-2.3-5.5l-13.4,2.7l-5.5-3.6l-3.9-3.9h-6.1v-47.2h16.3v-0.9
		h-16.3l0,0h-0.9l0,0h-24.9v0.9h24.9v53.2h-7.4l1.1,3.7l-9.2,8.4l-4.2-2.7l-3.9,5.4l-2.6-2.4l-4.1,4l-7.5-4.2v3l-4.2-1.6l-1.3,2.4
		l0.7-7.5l7.4-8.4l-1.6-8.1l1.6-45.2h-0.9l-1.6,45.2v0.1l1.5,7.8l-7.3,8.3L249.9,50l-5.1,1.5v5.6l-6.6-2.5l-2.1,4.6l0.8,0.3l1.7-3.9
		l7,2.7v-6.2l5.1-1.5l0.3-3.9l1.9-3.5l4.6,1.8v-2.8l6.7,3.8l4-3.9l2.7,2.5l3.9-5.6l4.1,2.7l10.1-9.2l-0.9-3.1h7.1v-6h5.8l3.6,3.7
		l5.9,3.9l13-2.6l2.4,5.7l0.9-0.5l0.9,9l6.3,6.9l-15.2,14.2l0.6,0.6L335,50.3l4.5,5.1l21.2-6l7.5-18.3l4.7,3.7l3.2-6.9h3.4l4.5-4.5
		l1.8-6.1l7.1,4l1.6-2.2l10.8,9.1l0.5-0.7l-11.5-9.7l-0.2,0.2l-1.2-5.5l-5.2-0.1l-3.8,1.5l-5.1-1.5l-9.2,6.4v-6.4h51.4v-0.9h-51.4
		h-0.6V11.6z M379.3,13.5l5,1.5l3.9-1.5l4.4,0.1l1.2,5.3l0.3-0.1l-1.1,1.5l-7.4-4.2l-2.1,6.9l-4.1,4.1h-3.7l-3,6.4l-4.8-3.7
		l-7.7,18.9l-20.3,5.7l-10.9-12l-0.9-9.1l5.2-2.6l2-7.8l4.3,2.3l2.5-8.7l9.3-3.3l2.4-9.9v9h15.4v8.1L379.3,13.5z"/>
	<path opacity="0.5" fill="#D8D2D2" enable-background="new    " d="M250.3,64.8l1.4,2.6h-19.2l3.7-2.2v-5.7l-4.5-5l-1-8.2L219.8,37
		l3.3-10.8l-7.6-1l-0.8-6.5l-8.2-8.1l-1.3-12.3L205.1-2l7.2-11.4l-0.9-6.9l9-3.4l1.1-5v-5.4l-5.1-5.8h34.3v-0.9h-35.1l-4.9-5.6
		l-6-22.6v-0.2l-17.6-15.2l1.8-14.5l-3.3-4.5l7.5-7.5l0.9-6.4l-0.9-0.1l-0.9,6.2l-7.9,7.9l3.5,4.9l-1.8,14.7L204-68.5l5.9,22.5v0.1
		l10.7,12.2v5l-0.9,4.5l-9.3,3.4l0.9,7.3l-6.9,11.1l-3.5-3h-54.4l-10.5-34.8v-0.2l-1.5-1.1l-0.8-3.5l3-5.8l-2.8-7.7h72.4v-0.9H135
		v-35.3l-4.9-6.6l1.8-4.5h0.5v-0.9h-0.1l2.1-5l0.1-0.1l-9.8-57.4h28.7l0.9-8.7l2.6,3.3l6.3,9.7l8.4,2.2l4.3,4.4l9.3-3.9l4.3,1.4
		l-3.4,1.9l5.2,6.1l6-3.7l6.3,7.5l7.5-6.3l6.3,5.1l12.8,0.9l17.8-6.2l47.5,26l5.4,11.2l3.9-1.5l1.5,7l6.1,2.1v6.8l15.2,9l6.6,33.2
		l-6.9,20.3l-8.8,4.7v3.9c0.3-0.1,0.5-0.2,0.9-0.2v-3.2l8.7-4.7l7.1-20.7v-0.1l-6.7-33.5v-0.2l-15-8.9v-6.9l-6.3-2.1l-1.7-7.5
		l-4.1,1.6l-5.1-10.8l-47.9-26.1l-0.2-0.1l-18.1,6.3l-12.3-0.9l-6.6-5.5l-7.4,6.2l-6.2-7.5l-6,3.7l-4-4.7l4.2-2.4l-6.5-2.1l-9.1,3.9
		l-4-4.1l-8.3-2.2l-6.2-9.5l-3.9-4.9l-0.9,10.1h-28l-0.2-0.9l-0.9,0.2l0.2,0.8H29.6v-0.9h-0.9v0.9h-164.6v-0.9h-0.9v0.9h-13.7v-0.9
		h-0.9v0.9h-77.2v0.9h77.2v53.6l3.1,6.9l0.4,0.4h-27.5l-22.5,7l-17.6-1.5l-7.2,2.1l-4.1-2l-2-6.3c-0.5-0.9-2.2-4.2-2.9-4.6
		c-0.7-0.4-5.6,0-8.5,0.3l0.1,0.9c3.5-0.4,7.4-0.7,7.9-0.5c0.3,0.3,1.6,2.5,2.6,4.3l2.1,6.6l4.7,2.3l7.4-2.2l17.6,1.5l22.5-7.1h28.3
		l0,0l5.7,6.3l-11.1,23.5l5.1,4.8l-2.4,41.4l0.9,0.1l2.4-41.8l-4.9-4.6l11-23.3l-7.1-7.9l-3-6.5v-53.6h13.7v21.6l5.1,4.5v5.9
		l5.9,2.4l7.3,12.3l6.5,1.3l-3.6,21.2l4.2,3.5l4.5-6l6.9,16.4l4.5,2l3.9,9.1l7.6-4h16.5v48h-178.3v0.9h54V23l71.8,67l0.3-0.3v3.5
		l9.8,11.7l-4.6,6v6.9l-4.9,7.5l0.5,6.1l-30.6,3.8l0.1,0.9l33.5-4.1l-3.1,4.7l52.7,21.6H-27V147h23l21.2,17.4l6.9,14.3l14.7,10.1
		l7.3-2.5l2.6-9.3l10,0.6L74.4,188c4.1,7.6,11.7,22.1,12,22.5c0.1,0.2,0.2,0.3,5.7,4.5v10.3l11.1,10.1l19.8,5.9l0.3-0.9l-19.6-5.9
		L93,224.9v-10.3l-0.2-0.1c-2.1-1.5-5.3-3.9-5.7-4.3c-0.6-1.3-8.6-16.1-12-22.6l-0.1-0.1L59,176.8l-10.9-0.6l-2.7,9.6l-6.5,2.2
		l-14.1-9.8L17.9,164l-21.6-17.8h-2.7v-0.9h49.7V59.6h117.5v11.2l2.6,13.4V117l-10.8-4.8l-15.4,3.4l-8.9-4.6l-3.5,2.4v-2l-9.9-0.4
		l-2.1-2.8l-5.7,1.4l-7.4-1.3l-4.1-6.8l-6.3,2.3l-3.9-4V69H44.2v0.9h40.3v30.3l4.6,4.6l6.2-2.2l3.9,6.5l8,1.4l5.3-1.3l2.1,2.8
		l9.4,0.4v2.7l4.5-3l8.7,4.5l15.4-3.4l11.7,5.1l0.3-0.8l4,1v25l8,15.8l-6.2,21.8l0.9,0.3l6.3-22.1l-8-15.9v-15.3h38.3l2.8,6.3
		l-3.4,0.7l5.2,3.9l-9.1,9.3l-2.4,13.2h28.3l-2.5,5.1l2.3,5.1l0.8-0.3l-2.1-4.6l2.9-6h-28.6l2.2-12l9.2-9.8l-4.5-3.4l2.6-0.5
		l-3.2-7.1l1.6-7.5h-1.8l-1.6-4.5l2.1-0.3v-5.7l7.7-7.2v-4.4l4-1l-0.2-0.9l-4.7,1.2v4.7l-7.7,7.2v5.5l-2.4,0.3l2.2,6.1h1.3l-1.3,6
		h-38.5V118l-5.1-1.3V84.2l-2.6-13.4v-2.6h60.5l1.5,4.3l-3.7,5.1h8.8l0.7,1.3l-7.6,9l-1.6,6.9h28.8l-2.5,70.6h0.9l2.5-70.6h35.9
		l5.1,35.7l4.3,8.7l-4.6,8.1l3.9,13.5h-37.4l1.5,8.2l0.9-0.2l-1.3-7.2h36.3v-0.8l0.9,3.3l35.8,3l1.7,4.7l4.4-6.9h1.8v-0.9h-2.2
		l-3.7,5.7l-1.3-3.6l-35.8-3l-4.6-16l4.7-8.2l-4.4-8.9l-5.1-35.5h31.5l-2.1,3.8l7.5,5.7l4.6,8.5l12.9,12.9l6.5,16.5l0.8-0.3
		l-6.6-16.6l-13-13l-4.6-8.5l-7-5.5l1.9-3.6h1l9.8-4.5l18.1,1.3l4.5,4.9h12.9l15.5,15.3l0.6-0.6l-15.8-15.5H353l-4.5-4.9l-18.6-1.4
		h-0.1l-9.7,4.5h-0.4l0.1-0.3L319,93l-0.3,0.6h-15.6v-4.7l5.6-3.7l13.1-5.1l4.2-5.3l3.6,1.7l9.6-5v-6.3h76.3v-0.9H250.3V64.8z
		 M29.6-169.3h94.3l9.7,57.4l-2.1,5.2H29.6V-169.3z M29.6-105.8h101.5l-1.9,4.5l5,6.7v35h-1.5l3.2,8.6l-3,5.7l0.6,2.7l-7.2-5.5
		l-0.2-0.1l-11,2.1l-7.5-3.2H29.6V-105.8z M-83.9-80.1l-6.9,3.7l-3.8-8.5l-4.5-1.9l-7.3-17.5l-4.9,6.4l-3.2-2.7l3.6-21.5l-6.9-1.3
		l-7.3-12.2l-5.7-2.3v-5.7l-5.1-4.5v-21.3H28.7v80.6h-96v8.6H-83.9z M-119.6,89.1l-71.2-66.5v-53h81.4V76.8h-10.3V89.1z
		 M-40.7,157.4h-25.2l-51.7-21.2l3.6-5.4l-3.9,0.5l-0.5-5.7l4.9-7.5v-6.9l4.8-6.3l-9.9-12V77.7h10.3v-18h67.7L-40.7,157.4z
		 M-40.7,58.8h-67.7v-89.2h41.2v18h26.6V58.8z M-66.4-13.2v-74.6h95.2v74.6H-66.4z M42.4,144.5H-7.3v1.7h-20.6v11.1h-12V59.6h82.3
		V144.5z M56.2-11.5v70.3h-96v-71.2h69.4v-36h77.9l7.5,3.3l10.9-2.1l9.3,7.2L149,5.6H57v-18H29.6v0.9H56.2z M57,58.8V6.5h93.2
		L150,5.6l6,1.9l1.5,2.7l-3.4,3.3l6.7,8.9v36.4H57z M228.2,76.5L228.2,76.5L228.2,76.5l-0.1,0.3h-6.5l3-4.2l-1.9-5.2h-61.1V22.2
		l-6.3-8.6l3.3-3.2l-2.1-3.7l-6.3-2L150,5.6l-3.1-10.2h53.8l3.9,3.3l1.3,12.3l8.2,8.1l0.8,6.9l7.3,0.9L219,37.4l10.9,9.4l1,8.1
		l4.5,5v4.8l-4.6,2.8L228.2,76.5z M338.2,71.4l-8.7,4.5l-3.8-1.8l-4.5,5.7l-12.9,5l-6.1,4v5.1h-52.3v-0.4h-0.9v0.4h-27.7l1.3-5.6
		l7.9-9.3l-1.4-2.5l2.3-8.5l0.4-0.3v0.4h21.3l-1.4-2.6h86.4V71.4z"/>
	<path opacity="0.5" fill="#D8D2D2" enable-background="new    " d="M430-13.1l5.6-5.9l0.1,0.1c0.1-0.3,0.1-0.6,0.3-0.9l-2.1-1.3
		l-1.9-6.6l-5.1-3.6h-62v-6.3c-0.3,0.2-0.5,0.3-0.9,0.4v6.8h62.4l4.7,3.3l2,6.7l1.7,1l-5.7,6v8.9l5.7,6.6l-8.3,4.6l0.5,0.7l9.1-5.2
		L430-4.9L430-13.1L430-13.1z"/>
	<path opacity="0.5" fill="#D8D2D2" enable-background="new    " d="M535.2-95.2l2-5.2l-6.1-3.9v-26.1l-5.1-5.9l-7.9,2.5l-6.4-5.2
		L496-115.4v8.2l-8.6,8v3.5l-4-1l-0.2,0.3c0,0-1.6,2.8-3.5,5.3c-1.7,2.4-3.4,2.4-3.5,2.4h-39.1l-8.5,4.2l-12.4,10.1L410.9-64
		c0,0.3,0,0.7,0,1h0.4l5.4-10.9l12.3-9.9l8.3-4h38.8c0.1,0,1.2,0,2.6-1v8.5l-7.1,4.7l-5.6,31.5h-10.6l0.2-0.6l1.3-17l-2.7-1.3
		L451-88.2h-0.9l3.3,25.8l2.7,1.3l-1.3,16.4L451.4-32v14.2l-3.4,1.9v2.8h0.9v-2.3l3.4-1.9v-12.9h29.8l5.3,3.6l0.5-0.7l-5.5-3.8
		h-30.2v-0.8l3-11.2H484v-0.9h-17l5.5-31l7.2-4.7v-9.7h-0.1c0.3-0.3,0.6-0.6,0.9-1c1.5-2.1,2.9-4.4,3.3-5.1l1,0.3v36.9l3,5.2
		l0.8-0.4l-2.9-5v-36.4l2.6,0.7v-4.2l8.6-8v-8.4l15.1-22.6l6,4.9l7.8-2.5l4.5,5.2v26.2l5.9,3.8l-1.9,5.1l6.3,5.7l0.6-0.6L535.2-95.2
		z"/>
</g>
<g id="marker">
	<path id="pin_1_" fill="#B9252D" d="M130.8,78.3c0.9-1.4,1.4-3,1.4-4.7c0-4.9-3.9-8.9-8.9-8.9c-5,0-8.9,3.9-8.9,8.9
		c0,1.9,0.6,3.6,1.5,5l7.4,8.9L130.8,78.3z"/>
</g>
<g id="marker_1_">
	<path id="pin_2_" fill="#B9252D" d="M113.1,134.3c0.9-1.4,1.4-3,1.4-4.7c0-4.9-3.9-8.9-8.9-8.9c-5,0-8.9,3.9-8.9,8.9
		c0,1.9,0.6,3.6,1.5,5l7.4,8.9L113.1,134.3z"/>
</g>
<g id="marker_2_">
	<path id="pin_3_" fill="#B9252D" d="M125.9,36.8c0.9-1.4,1.4-3,1.4-4.7c0-4.9-3.9-8.9-8.9-8.9c-4.9,0-8.9,3.9-8.9,8.9
		c0,1.9,0.6,3.6,1.5,5l7.4,8.9L125.9,36.8z"/>
</g>
<g id="marker_5_">
	<path id="pin_6_" fill="#B9252D" d="M357.7,213.8c0.9-1.4,1.4-3,1.4-4.7c0-4.9-3.9-8.9-8.9-8.9s-8.9,3.9-8.9,8.9
		c0,1.9,0.6,3.6,1.5,5l7.4,8.9L357.7,213.8z"/>
</g>
<g id="marker_4_">
	<path id="pin_5_" fill="#B9252D" d="M446.7-38.2c0.9-1.4,1.4-3,1.4-4.7c0-4.9-3.9-8.9-8.9-8.9s-8.9,3.9-8.9,8.9
		c0,1.9,0.6,3.6,1.5,5l7.4,8.9L446.7-38.2z"/>
</g>
<g id="marker_3_">
	<path id="pin_4_" fill="#B9252D" d="M282.2,73.7c0.9-1.4,1.4-3,1.4-4.7c0-4.9-3.9-8.9-8.9-8.9c-5,0-8.9,3.9-8.9,8.9
		c0,1.9,0.6,3.6,1.5,5l7.4,8.9L282.2,73.7z"/>
</g>
</svg>
