<?xml version="1.0" encoding="utf-8"?>
<!-- Generator: Adobe Illustrator 18.0.0, SVG Export Plug-In . SVG Version: 6.00 Build 0)  -->
<!DOCTYPE svg PUBLIC "-//W3C//DTD SVG 1.1//EN" "http://www.w3.org/Graphics/SVG/1.1/DTD/svg11.dtd">
<svg version="1.1" id="map" xmlns="http://www.w3.org/2000/svg" xmlns:xlink="http://www.w3.org/1999/xlink" x="0px" y="0px"
	 viewBox="-315 -157 930 400" enable-background="new -315 -157 930 400" xml:space="preserve">
<rect x="-317.6" y="-159" fill="#A2DDF5" width="936.2" height="403.7"/>
<g id="land_1_">
	<path fill="#F6F0EF" d="M-181.3-159c3.2,2,6.4,3.5,6.9,0H-181.3z"/>
	<path fill="#F6F0EF" d="M246.5,233.9c-1.2-2.2-2.5-4.4-3.7-6.6c-1,1.5-3,2-4.8,1.8c-1.8-0.2-3.5-0.9-5.3-1.2c-4.5-0.8-9,1-13.5,1.8
		c-2.9,0.5-5.9,0.6-8.8,1.4c-2.9,0.8-5.7,2.5-6.9,5.2c-1.2,2.7-0.6,5.7-0.5,8.6h35.1C240.3,240.9,245.4,238.5,246.5,233.9z"/>
	<path fill="#F6F0EF" d="M-183.4-142.7c0.7,4.1,3.3,5,4.6,8.2c0.8,2.4-2.5,3.5,1.5,6.3c-4-3-2.7,3.8-1,5.1c1.8,1.4,5.5,0.6,6.5,3.1
		c-7.2,1.1-7.4-1.4-8.2,6.3c-0.9,6.8-1.2,14.9-0.9,21.9c0.2,2.4,1.7,6.4-0.1,8.4c-1.2,1.4,1.1,3.1,0,5.4c-4,8.2-8,13.3-2.2,22.5
		c3.1,5,2.9,11.9,1.7,17.6c-0.6,2.7-4.1,3.7-3.2,7.1c0.8,3,3.9,4.9,5.5,7.4c4.1,5.9,2.2,14.3,5.5,20.8c1.2,2.4,9.2,7.8,9.2,9.9
		c-0.7-5.7,9-7,12.6-4.7c4.3,2.8-7.2,3.3-8.5,3.8c0.9,2.4,2.6,4.6,3,7.2c-6.7-8.8-10.8,1.7-4.1,4.8c1.5,0.6,8-0.4,5.8,3.3
		c-3.3,5.5,1.4,5.6,4.4,9.6c2.9,3.8,6,8.4,8.1,12.7c2,4.3,1.6,9.6,7.5,10.2c6.1,0.8,6.1-1.2,10.8,3.5c2.4,2.4,8.1,0.6,7.6,5.5
		c7.3-4.3,17.9,20.3,19.8,24.7c2.2,5.1,5,10,7.1,15.1c1.9,4.3,3.2,12.2,7.1,15c5,3.5,6.9,6,10,11.2c1.4,2.4,3.6,3.1,5.4,5
		c2.4,2.6-0.3,2.5-0.9,4.4c-0.7,2.1,5,6.4,0.6,5.8c-1.8-0.3-8.9-4.7-10-1.6c-0.1,0.4,7.1,7,7.9,7.2c2.9,0.8,3.5,3.4,6,4.5
		c2.5,1,6-1.2,8-2.3c-0.2,5.5,4.1,7.4,7.9,10.4c6,4.7,0.5,10.9,3.3,16.3c2.2,4.1,9,7.6,12.4,10.7c2.3,2.1,3.5,5.1,6.3,6.8
		c3.5,2.2,3,3.7,5.3,6.8c6.7-4.2,4.1-13.1-2.6-15.9c0.4,3.1-1.6,3.3-3.5,1.5c-3-3-1.2-7.1-3-10.6c-3.9-7.3-5.2-18.6-11.7-23.8
		c0.6,1.3,0.7,2.5,0.2,3.8c-2.2-0.4-10.4-16.1-11.2-18.2c-1.2-3.4-1.3-6.5-4.5-8.7c-1.1,0-3.7-3.3-4-4c-2.7-6.6-10.8-8.1-11.6-15.3
		c-0.4-4.1-1.1-7.7-3.3-11.1c-0.9-1.4-3.4-11.4-3.3-13c2,0.3,7.7,8,9.1,3.6c1-3,8.3,4.6,10.1,4.8c1.7,0.2,5.3,6.8,5.4,8.7
		c0.1,4.6,3.7,11.5,6.8,14.9c3.2,3.5,3.2,9.8,6.3,13.8c2.1,2.8,5,4.7,7.7,7c2-2,3.6-1.4,5.7,0.6c1,1,0.5,3.6,1.3,4.9
		c1.4,2.3,4.2,3.3,5.6,5.7c1.8,3,2.3,1.4,5.7,2.5c4,1.2,3.3,4.8,5.3,7.5c-2.6-3.6-5.3,3.6-4.2,6.3c0.5,1.1,4.4,2,5.9,3.4
		c1.7,1.7,4.2,1.8,6.2,3.1c2.5,1.7,1,3.1,2.2,5.2c2,3.9,6.8,23.4,9.8,26.7c2.2,2.4,6.5,9.9,10.9,16c-0.5,1.7-0.3,3.7,0.6,5.1
		c0.6,1,1.6,1.7,2.3,2.5c2.8,3.1,3.1,8.1,0.9,11.6c-0.4,0.6-0.8,1.1-0.9,1.8c-0.1,0.4,0,0.9,0.1,1.3h107.7
		c-2.2-4.8-4.2-9.8-5.9-14.8c0.1,0,0.2,0,0.3,0c0.5-5.1-9.4-41.5-7.9-46.5c1.6-5.1,3.6-10.2,4.6-15.4c1.1-5.6-3.9-7.4-3.6-11.9
		c0.2-3.6-3.3-5.5-2.7-8.3c5.1,3.9,8.3-1,3.2-4.1c-2.8-1.7,1.8-2.3,2.6-2.3c2.7,0.2,1.2-6.5,5.3-5.5c3,0.7,1.7-3.2,2-4.2
		c0.7-2.1,7.1,1.1,8.7,0.3c3.2-1.6,5.2-3.6,7.6-6.3c3.8-4.1-1.2-3.9,0.6-7.9c2.1,1.5,4.7-2.6,6.2-1.6c0.4,1.1,0.3,2.2-0.3,3.4
		c2.3,0,5.7,0.3,7-2.1c0.7-1.3,1.2-3.6,3.3-2.5c-0.8,1.5-1.6,3.1-2.3,4.6c6.8,0.3,13.2,0.5,20,0.9c-1.1-9.2,8.2-0.6,10.6-1.1
		c-0.6,2.8,0.1,7.4,4.5,6.4c1.9-0.4,2.3-3.1,4.6-2.6c2.1,0.4,1.7,3,4.4,1.8c-0.4-1.9-2.5-2.9-1.4-5c0.9-0.2,16.6,9,12.4,3.3
		c-1-1.2-8.6-1.7-6.5-4.6c0.6-0.7,3.1-6.5,0.2-4c-3.2,2.7-3.5-0.6-6.9-0.8c-3.1-0.2-0.5-5.1,2.4-3.3c4.7,3,5.7-0.6,10.3-1.3
		c2.5-0.4,5.1,1.1,7.5-0.4c1.6-0.9,2.2-3,3.8-3.9c3.9-2.4,4.5,6.3,7.5,4.4c3.5-2.1,3-1.7,6.5-1c5.6,1.1,8.7-1.4,14.3,2.4
		c0.6,0.4,4,6.8,3.4,6.7c9.4,0.5,15.2-10.8,22.3,0c2.3,3.4,5.9,6.3,7.8,9.9c3,5.9-1.9,10.1-0.8,15.4c0.2,0,6.5-7.6,4.4-0.5
		c-0.9,2.8-3.2,11,1.4,12c-0.4-2.2,0.9-2.7,3.8-1.4c-1.6,1.7-1.9,3.7-1.1,5.9c0,0.1,2.4-5.1,3.1-3.2c0.5,1.5-0.6,5.5-0.4,7.3
		c0.4,3,4.7,5.5,6.3,8.2c1.3,2.3,1.7,3.8,4.7,4.1c6.8,0.8,6.5-2.5,5.8-7.9c-0.7-4.6,2.1-8.3,2.1-12.7c-0.1-3.2-3.8-3.2-2.3-5.8
		c1.1-1.9-2.1-5.6-3-7.1c-2.4-3.8-1.9-8.4-3.2-12.5c0.6-0.1,1.2,0,1.7,0.2c-0.6-2.1-2.7-3.4-3.8-5.2c-2-3.5-2.4-6.9-3.2-10.8
		c-0.6-3.3-1.4-6.6-1.5-9.9c-0.1-2.1,0.3-4.1,1.1-6.1c-1.8-0.7-2.1-1.8-1-3.2c2.2-3.1,3.6-4.8,6.2-7.1c2.6-2.3-0.8-3.3-0.2-5.9
		c0.5-2.1,2.7,0,2.5,1.4c1.9-1.5-0.6-2.5,2.3-2.6c1.3,0,5.4-0.2,4.4-2.6c5,2.5,10.3-10.3,12.4-12.3c4-3.8,7.3-2.5,11.4-4.4
		c3.2-1.6,5-8.3,5-11.1c1.8,0.2,2,3.4,4.1,1.5c2.2-1.9,6.3-0.1,7.6-3.2c-4.4-1.8-3.7-0.1-6.2-4.8c1.6-0.2,4.3,5.5,4.6,0.8
		c0.2-4.1-4.4-1.4-5-4.8c-0.5-2.8,5.4,1.8,6.3-0.1c0.4,0.8,0.4,1.5,0,2.3c3.7-1.7,9,0.2,8.2-7c-1.8,0.3-1.7,2.3-3.8,2.3
		c-0.7-1.2-0.6-2.4,0.1-3.5c-1-0.2-13.6,0.7-7.5-5.3c-0.1-0.1,4.7,7.9,4.1,2.1c1.8,2.7,1.6,0.1,4,0.6c3.3,0.7-0.6-4.5-0.6-5.3
		c3.5,0.9,2.3-4.8-1.7-5c-1.9,0-11.4-6.5-11.4-6.5c4.4-2.5,6.5,4,10.1,4.3c0.4-3.1-4.2-3.8-5-6.5c0.4,0.2,8.8,4.9,4.7,0.4
		c-2.4-2.7-4.8-6.3-7.5-8.7c3.2-2,6.8,4.2,8.5,5.9c2.3-6.5-12.5-6-10.4-12.4c0.8-2.5,6.8,4.6,10.2,4.5c0.5-2-1.4-5-3.5-5.3
		c-0.1-2.1-0.5-4.3-0.4-6.4c0.1-2.8,5.4-8.2,8.3-7.9c0.6,6-4.5,13.2,2.7,17.8c3.2,2.1-2.1,12.4-2.8,14.8c5.4-0.3,8-16.9,10-20.5
		c-4.2-3.3-10.8-19.4,0-18.2c-1.1,1.9-4.9,3.5-4.4,6.1c0.5,2.7,3.8,6.1,6.3,7.1c2.6,1.1,8.5-11.2,8.9-14c0.2-1.6,0.5-5.3-2.2-4.9
		c-0.8-4.1,5.9-4.4,8.8-5.3c3.1-1,14.7-0.4,15.4-4.8c-5.4-2.1-21.4,10.5-20.5-2.6c2.3,0.2,0.7,4.4,3.4,3.5c4.1-1.3,7.6-3.4,12.1-4.5
		c3.2-0.8,6.3-1.5,9.5-2.2c1.5-0.1,2.4-0.8,2.9-2.1c1-3.3,1.3-1.9,4.7-2.2c-3,5.6,3.8-0.3,3.9-0.4c1.5,4.4,0.4,2.5,4.1,1.7
		c2.3-0.5,7.9-4.3,2.7-5.8c-2.5,12.7-5.5-4.1-7.5-4c-5.1,0.3-0.3-4.1-1.1-7.6c-1.2-5.8,4.7-8.6,7.7-12.6c1.2-1.6,0.1-3.8,1.9-5.4
		c1.1-0.9,5.7-5,4.9-0.8c5.9,1.7,6-8.1,8.9-9c0,0,3.8,7.6,4.7,0.8c4.2,1.9,4.7-1,9.5-3.1c5.7-2.5,4.4-0.8,4.2-6.7
		c-0.2-5.4,2.9-1.4,5.8-0.9c5.7,0.6,4.5-4.9,7.7-4.9c0.8,1.6-1.5,4.4,2.1,3.2c1.9-0.7,3.7-2,5.3-3.3c4.8-3.6,6.6-4.3,7-10.3
		c2.6,0.3,1.9,6.8,5.3,4.2c0.1,3.3-7.8,6.8-3.8,7.6c2.4,0.5,12.8-3.6,13.2,0.6c-2.2,0.4-4.4,0.9-6.6,1.6c-3.5,0.3-4,1.7-1.7,4
		c-1.7,0.2-4.1-2.6-2.4-4.1c-3.1-0.5-12,6.1-14.3,8.5c4.2-1.4-4.8,5-5.7,7.1c-1.7,3.8,2.2,9.1,2.2,7c1.7,0.4,3.6,8.3,6.3,4.1
		c1-1.6,2.1-7.4,3.9-2.9c2.4-3.8,5.5-5.4,7.6-9.7c1.5-2.3,0.9-4.6,4.7-4.8c-0.7,2.9,3.3,2.3,5.3,3.5c0.4-2.2-0.6-3.3-2.3-4.5
		c1-0.9,3.4,1,5.2,0.6c3.1-0.7,6.1-2.1,8.9-3.7c3.2-1.9,13.9-3.1,15.7-5.8c-1.4-0.6-2.9-0.9-4.5-0.9c5.2-4.1-5.1-5.7-5-7.6
		c-4.1,2.6-5.4,3.2-10,3.4c-0.1-0.8,0.2-1.3,0.8-1.8c-3.1-2.3-5,1.1-7.8,0.1c-3-1.1-6-3.4-8.1-5.7c1-0.6,2.1-0.8,3.3-0.6
		c0.1-3-7.8-1.7-10-3.5c1.5-1.7-0.7-4.8-1.4-6.2c-1.7-3,0-3.6-0.6-6.4c-4-0.2-6.3-0.7-2.6-4.2c2.1-2,3.8-6.5,4.1-9.3
		c-4.4-2.1-8.6,8.1-10.6,2.5c-1.6-4.4-12.7-3.4-12.7-3.8c-0.3-3.9,9.4-1.8,10.1-5.7c5.5,1.9,7.6,7.4,12.8-0.2c1.6-2.4,5-1,6.8-3.4
		c0.1-0.1,0.1-0.2,0.2-0.3h-45.9c-6.2,4.3-11.8,9.4-17,15.3c-4.2,4.8-8.3,9.6-13.7,13.2c-5.1,3.4-11,5.2-16,8.9
		c-7.2,5.3-16.1,22-26.3,20.7c4.2-4.9,6.7-8.9,11.4-13.4c7-6.7,15.3-10.5,23.5-15.5c7.3-4.5,12.3-11.6,18.2-17.6
		c8.5-8.6-8.1-4.7-10-8c-0.5-0.8,8.7-1.9,10-1.4c2.5,1,5,4.7,6.6,0.2c0.3-0.9,0.7-1.6,1.1-2.3h-191c1,2,1.4,4.5,2.7,6.2
		c2.2,3,9.7,2,13.2,3.6c-3.7,2.6,1.3,7.2,0.6,10.6c-1.1,5.7,4.5,2.7,6.6,6.1c-8.6,3.9-2.8,7.9,2.8,10.7c7.1,3.5,15.8,0.2,23.3,1.4
		c4.6,0.8,14,1.5,15.9,6.8c1.2,3.3,0.5,6.9,3.3,9.5c2.7,2.5,6.7,4,6.8,8.2c-1.6,0.1-2.9-0.4-4-1.5c2.5,3,0.3,5.4-3.4,5.7
		c-5.8,0.4-6.3-4.2-10.4-6.9c-5-3.3-5.9,21-7,24.6c-1,3.2-4.4,6.3-7.6,3.3c-3.6-3.5-3-9.4-5.7-13.5c-2.7-4.1-5.2,8.9-10.1,4.3
		c-2.2-2,2.8-7.6,3.9-9.1c3.3-4.7,2.9-5,1.1-9.9c-1.4-4.1-1.1-6.1-4.9-7.8c-4.2-1.9-9.7-6.9-14.7-2.9c1.1,0.5,2.2,0.8,3.3,1.1
		c-1.6,1.3-3.2,2.5-4.8,3.8c-1.7,2.3-1,4.9-1.8,7.4c-3.1-0.1-2.7-3.7-3.1-5.8c-7.2,2.1-7.6,18-7.5,23.7c0.1,4.4,3,7.7,3.1,11.9
		c0.1,5-2.7,13.5-7.1,16.5c-9.9,6.6-14.8-10.4-14.9-16.9c-0.3-12.6,9.6-23.3,9.4-36c-2.5,2.5-2.5,6.8-5.1,9.4c-4.2,4.1-4.2-2.5-3-5
		c2.4-4.9,6.7-20.7,14.4-14.7c3,2.4,9.6-2.7,12.7-3.4c2.8-0.6,5.1,0.6,7.2,2.4c0.5-1.5,2.4-1.8,3.8-1.8c4.3,0,8.4,1.7,12.6,2.7
		c4.5,1.1,9.9-1.2,14,1.3c1.4,0.8,2.6,2.9,3.9,3.5c4,1.8,2.6-4.1,1.4-5.4c-0.2-0.2-4.8-2.4-5.4-2.5c-3.9-0.8-9.5,0.8-13.9,0.2
		c-3.6-0.5-7.3-1.7-10.7-2.9c-1.9-0.7-8.1-2.7-7.6-5.7c-5.4-2.3-10.4,0.7-15.7,1.6c-4.2,0.7-13.4-1.4-15.4-5.6
		c-1.9-4-10.7,3.7-9.8-4.8c2.7-1.1,9.8-1.4,9.2-5.9c-7.4-3-20.6,9.5-27.3,11.9c-2.8,1-9.8,3.1-8.5-2c-5-0.8-9.1,4.8-14.1,2.6
		c2.6-5.2,5.8-8.2,10.7-11.3c4.3-2.6,11.2-9,16.2-9.7c5.6-0.8,3.9-9.5,8.3-10.2h-377.2c0.4,2,0.9,3.8,2.9,5.8
		c1.6,1.6-1.1,3.3-1.9,4.2c-1.8,1.9,0.1,4.4,0.9,6.2c1.6,3.6-2.4,9.2-7,7.1c2.4-4.3,1.5-2.6-2-3.1c0.4-2.5,0.3-5.5,2-7.5
		c1.1-1.4,3.6-2.9,3.3-5.1c-5.9,1.3-10.4-1.1-15.7-3.2c-6.2-2.5-6.9-2-4.6,3.5C-184.3-148.5-183.8-145.4-183.4-142.7z M332.6-85.2
		c10.6-1.7,20.2-6.1,30.5-8.9c-1.3,1.9-6.5,6.6-3.1,9c0.1,0.3,0.1,0.5,0.2,0.7c0.8,4.3-4.1,4.6-7,5.1c-3.5,0.6-3.6,2.2-6.4,3.2
		c-3.3,1.1-7.2-0.5-10.5-1c-5.4-0.8-11.7,0.8-16.9,2C317.5-83.4,326.8-84.3,332.6-85.2z M278.6-56c6.1-1.6,11.5-2.8,16.9-6.3
		c5.3-3.5,11-2.1,16.4-4.8c3.9-2,9.3-0.7,12.6-4.1c5.9-6,6.5,2.3,2.8,6.2c0.5-0.5,1.1-1.1-0.2,0.2c-0.3,0.3-0.3,0.3-0.2,0.1
		c-7.8,7.2-18.6,8.5-27.3,14.8c-4.5,3.3-9.1,4-14.6,3.1C278.5-47.9,278.2-50.2,278.6-56z"/>
	<path fill="#F6F0EF" d="M218.1-159h-3c0.8,0.1,1.8,0.4,3,1C218.1-158.4,218.1-158.7,218.1-159z"/>
	<path fill="#F6F0EF" d="M318.4-97.3c-0.1-0.2-0.3-0.3-0.5-0.5C318.1-97.6,318.2-97.5,318.4-97.3z"/>
	<path fill="#F6F0EF" d="M360.1-84.5c0-0.2-0.1-0.4-0.2-0.7C357-87.3,360.5-82.4,360.1-84.5z"/>
	<path fill="#F6F0EF" d="M327.1-64.8c0.1-0.1,0.1-0.1,0.2-0.2c-0.1,0.1-0.3,0.3-0.4,0.3C327-64.8,327.1-64.8,327.1-64.8z"/>
	<path fill="#F6F0EF" d="M345.9,151.8c-3.2-1.1-12.9,1.7-15.4,3.6c1.9,1.4,5.1,1.2,7.5,0.4l-1.8-0.9c2.4-1.9,5.9-1.4,8.7-1.3
		c0.2,0.1,1.7,1.4,2.1,1.7c-0.1,1.7-0.6,3.8-0.3,5.8C350.6,160.7,349.4,152.9,345.9,151.8z"/>
	<path fill="#F6F0EF" d="M359.1,173l0.9,2.6c1.1,2,1,4.2,1.8,6.2C364.3,178.9,360.8,175.8,359.1,173z"/>
	<path fill="#F6F0EF" d="M267.7,225.1c1.6-0.1,3.1-0.4,4.6-0.8c0.1,0.5-0.2,1.1-0.7,1.3c3.2,0.3,6.5-1.4,8-4.2
		c0.2-0.4,0.4-0.9,0.8-1.2c1-1,2.6-0.6,4-0.6c1.4,0,3.1-1.2,2.4-2.4c0.8,0.7,2,0.1,2.6-0.7s1-1.8,1.9-2.4c0.5-0.3,1.1-0.4,1.7-0.5
		c4.2-0.6,8.6-0.3,12.7,0.7v2.1c-1.6,0.2-3.3,0.3-5,0.2c-0.8,0-1.8-0.1-2.3,0.6c-0.5,0.6-0.2,1.6,0.4,2.1c0.6,0.5,1.4,0.7,2.1,0.9
		c2.3,0.6,4.6,1.2,6.8,1.7c1.5,0.4,3.9,0.2,3.8-1.4c0.2,1.8,2.7,2.3,4.5,1.9c1.8-0.3,4-0.9,5.2,0.5c0.3,0.3,0.5,0.7,0.8,1
		c0.5,0.5,1.2,0.9,1.8,1.1c1.6,0.7,3.3,1.2,5,1.6c3,0.7,6.2,1,9.3,1.3c1.8,0.2,3.9,0.5,4.7,2.2c0.8,1.8-0.5,4.4,0.9,5.8
		c1,1.1,3.3,1.2,3.3,2.7c3.1-0.1,6.1-0.1,9.2-0.2c0.3,0,0.6,0,0.9,0.1c1,0.6,0,2.1-0.9,2.7c1.1,0.2,2.1,0.9,2.5,2
		c-1.1,0.4-2.2,0.9-3.2,1.5H374c-0.5-0.7-1.3-1.3-1.6-2.1c-0.6-1.4,0.6-3.2,2.1-3.1c-0.5-4.1-3.9-7.7-8-8.5
		c-1.4-0.3-2.9-0.2-4.3-0.5c-2.3-0.5-4.4-1.8-6.1-3.4c-2.7-2.4-4.8-5.5-6.7-8.6c-0.7-1-1.3-2.1-2.2-2.9c-2.2-2-5.4-2.3-8.4-2.5
		c0.6,2.1,3.3,2.5,5.3,3.5c2,1.1,3.4,3,4.7,4.9c1.2,1.7,2.3,3.5,3.5,5.2c-2.7-1.4-4.2-4.2-6.5-6.2c-3.1-2.7-7.4-3.5-11.5-3.6
		c-0.9,0-1.8,0-2.7-0.3c-0.7-0.3-1.2-0.7-1.8-1.2c-2.5-2.3-4.7-5.6-8.1-5.6c-0.9,0-1.7,0.2-2.6,0c-0.8-0.2-1.6-1.2-1.1-1.9
		c-1.8,0.9-3.8,1.4-5.9,1.5c0.3-0.7,0.6-1.3,0.9-2c-1.3,0.9-2.9,1.3-4.5,1.3c-2.1,0-4.7-0.8-6.1,0.8l-1.2-2.7
		c-3.8,0.8-7.5,1.6-11.3,2.5c-3.2,0.7-6.4,1.4-9.6,2.4c-2,0.7-4,1.5-6,2.5c-1.7,0.9-3.7,2.6-3,4.4c0.6,1.5,2.9,2.5,2.2,4
		c-1.7,0.1-3.5,0.3-5.2,0.4c-1,0.1-2.2,1-1.5,1.6C267.1,225.2,267.4,225.2,267.7,225.1z"/>
	<path fill="#F6F0EF" d="M350.9,185c-0.3-0.5-0.9-0.7-1.5-0.8c-0.2-0.5-0.4-1.1-0.4-1.7c-0.8-0.5-2-1-2.4-0.1
		c-0.2,0.4-0.1,0.8,0,1.2c0.5,1.8,0.9,3.6,1.4,5.4c-0.7,0.4-1.1-0.7-1.6-1.3c-0.6-0.9-2-1-2.8-0.3c-0.8,0.7-0.8,2.1,0,2.9
		c0.4,0.4,0.9,0.6,1.3,0.9c0.3,0.3,0.4,0.6,0.6,0.9c0.7,1.1,2.3,1.6,3.5,1.1c0.2,0.8,0.5,1.6,0.7,2.4c-0.4-0.1-0.8-0.2-1.3-0.3
		c-0.1,0-0.3-0.1-0.4,0c-0.5,0.2-0.1,1,0.4,1.1c0.5,0.2,1.1,0.2,1.4,0.6c-0.3,1.1,0.1,2.4,0.9,3.2c0.8,0.8,2.1,1.1,3.2,0.8
		c0.4-1.9,0-4-1.1-5.6c-1-1.5-2.5-2.9-2.5-4.7c0.8-0.3,0.9-1.3,0.7-2.1c-0.2-0.8-0.7-1.5-0.8-2.3C350.9,186.3,351.2,185.5,350.9,185
		z"/>
</g>
<g id="green_1_">
	<path fill="#DEEBD2" d="M331.7-12c-4.2,0.9-8.8,12.8-12.4,12.3c-4.4-0.6,12.3-10.3,3.9-13.6c-4.8-0.4-4.8-2.6-6.6,3.3
		c-1.4,4.5-5.4,5.9-5.4,11.2c1-0.6,1.9-0.6,2.9,0.1c0,2.3,0.4,4.7-0.9,6.3c-2.3,2.8-18.6,5-12.2,7.5c-2.8,1.1-5.4,2.6-7.7,4.5
		c8,4.1,13.6-8.9,21.3-8.9c-1.9,0.6-8.2,4.8-9,6.7c3.1-0.5,11.9-5.2,13.8-7.7c1.8-2.5,11.2-15,12.4-20.1
		C332-10.4,332.2-10.8,331.7-12z"/>
	<path fill="#DEEBD2" d="M286.7,38.7c0.4,0.2,0.7,0.1-0.3-0.9c-4,1.3-3.6,2.1-7.9,1.8c-1-10.3,14.2-4.1,16.6-4.7
		c8.1-2.2-0.7-6.6,1.1-9.2c1.1-1.6,9.3-3.1,8.8-5.3c-5.8-2.1-20.4,10.4-25.7,13.1c-4.4,2.3-11.2,6.5-14.1,10.4
		c-7.7,10.4,10.4,6.2,14.3,4.7C274.4,57.3,286.8,43.1,286.7,38.7z"/>
	<path fill="#DEEBD2" d="M285.8,17.8c1.3-1.6,2.6-2.9,4.2-4.2c-5.5,0.1-5.7,3.1-8,7.7c0.1,0,0.2,0.1,0.3,0.1
		C285.2,22.3,290.6,19.7,285.8,17.8z"/>
	<path fill="#DEEBD2" d="M277.3,13.4c-4.3-0.9-7.8,1.9-2.1,4.8C281.6,21.3,280.2,12.9,277.3,13.4z"/>
	<path fill="#DEEBD2" d="M268,18.6c-0.1,0.4,0,0.2,0.3-1.5c0.8-4.8,14.5-14.9,9.7-19.3c-0.5-0.5-15.9,20.5-15.5,24.8
		C266.8,22.8,267.5,21.8,268,18.6z"/>
	<path fill="#DEEBD2" d="M260.1,52.2c0.4-2.2-2.7-1.6,0.4-4.1c-4.7,0-5,1.8-5.3,6.5C257.4,54.9,259.1,54.1,260.1,52.2z"/>
	<path fill="#DEEBD2" d="M260.1,52.2C259.7,54.8,260.3,51.4,260.1,52.2L260.1,52.2z"/>
	<path fill="#DEEBD2" d="M253.4,60.3c-2.1,1.4-8.9,10.5-6.8,11.7c4.4-3.6,7.5-7.6,7.2-11.9C252.1,59.7,252.8,60.2,253.4,60.3z"/>
	<path fill="#DEEBD2" d="M275.3,71.6c0.6-0.1,1.2-0.6,1.6-1C274.5,69.3,272.7,72.3,275.3,71.6z"/>
	<path fill="#DEEBD2" d="M291.3,56.1c-6.3,3.8,1.3,9,1.6,8.6C294.2,62.8,297.1,54.8,291.3,56.1z"/>
	<path fill="#DEEBD2" d="M295.7,52.4c-0.9,6.4,7.2,1,6-0.8C300.2,48.9,296.4,47.5,295.7,52.4z"/>
	<path fill="#DEEBD2" d="M314.7,50.3c-1.2-0.4-1.8,0.2-1.8,1.8c1.3,0.1,2.6,0.1,3.9-0.1C316.1,51.4,315.4,50.9,314.7,50.3z"/>
	<path fill="#DEEBD2" d="M315.9,66.3c-0.1,0-0.3,0.1-0.4,0.2C316.4,82.8,325.1,62.8,315.9,66.3z"/>
	<path fill="#DEEBD2" d="M288.4,97c-1.9,0.6-3,14.6,0.6,13.9C289.4,109,296.9,94.4,288.4,97z"/>
	<path fill="#DEEBD2" d="M288.4,97C289.8,96.6,285.3,97.9,288.4,97L288.4,97z"/>
	<path fill="#DEEBD2" d="M295.5,110.9c-2.2-1.6-2.2,2.3-2.4,3.3C294.8,114,295.7,112.8,295.5,110.9z"/>
	<path fill="#DEEBD2" d="M299.4,122.2c-0.8-1.3-3.1-5.1-3.1-5.1c-6.2,8.4-0.6,8.9,3.3,5.5C299.6,122.4,299.5,122.3,299.4,122.2z"/>
	<path fill="#DEEBD2" d="M263.9,107C265.2,106.5,262.9,107.3,263.9,107L263.9,107z"/>
	<path fill="#DEEBD2" d="M263.9,107c-10.3,3.6-1.7,7.8,3.5,1.7C266.9,106.8,265.8,106.2,263.9,107z"/>
	<path fill="#DEEBD2" d="M308.7,165.4c0.4,0.2,0.6,0.3-0.2-0.1c-1-0.6-6.4-9.8-7.9-3.6C298.1,172.3,315,168.9,308.7,165.4z"/>
	<path fill="#DEEBD2" d="M237.5,97.8C237.7,96.2,237.2,99.3,237.5,97.8L237.5,97.8z"/>
	<path fill="#DEEBD2" d="M237.5,97.8c-0.7,3.9,6.3,0.2,6.9-0.6C244.3,95.6,237.7,96.1,237.5,97.8z"/>
	<path fill="#DEEBD2" d="M210.1,97.7c0.4-1.4,2.3,8,1.8,7.2c1.9,3.3,3.6-3.8,4.8-3.7C219.7,96.7,210.8,94.6,210.1,97.7z"/>
	<path fill="#DEEBD2" d="M214.6,91.4C210.4,100.2,227.1,88.8,214.6,91.4L214.6,91.4z"/>
	<path fill="#DEEBD2" d="M211.4,83.2c-0.5-0.7-3.5-7.1-5.7-5.5C202.2,80.3,211.4,88.8,211.4,83.2z"/>
	<path fill="#DEEBD2" d="M211.4,83.1c0,0.1,0,0.1,0,0.2C211.5,83.3,211.5,83.3,211.4,83.1z"/>
	<path fill="#DEEBD2" d="M194.9,90.2C194.9,90.2,194.9,90.2,194.9,90.2C194.9,90.2,194.9,90.2,194.9,90.2z"/>
	<path fill="#DEEBD2" d="M194.9,90.2C194.8,90.2,194.8,90.2,194.9,90.2C194.8,90.2,194.8,90.2,194.9,90.2z"/>
	<path fill="#DEEBD2" d="M194.5,90.3C194.5,90.3,194.5,90.3,194.5,90.3C194.5,90.3,194.5,90.3,194.5,90.3z"/>
	<path fill="#DEEBD2" d="M194.8,90.2C194.8,90.2,194.8,90.2,194.8,90.2C194.8,90.2,194.8,90.2,194.8,90.2z"/>
	<path fill="#DEEBD2" d="M194.5,90.4C194.2,90.5,194.3,90.4,194.5,90.4L194.5,90.4z"/>
	<path fill="#DEEBD2" d="M194.9,90.2C181.4,96.8,197.4,98.9,194.9,90.2L194.9,90.2z"/>
	<path fill="#DEEBD2" d="M194.8,90.2c-0.1,0-0.1,0.1-0.2,0.1C194.6,90.3,194.7,90.3,194.8,90.2z"/>
	<path fill="#DEEBD2" d="M197.7,76.7c0.5-1.3,0.2-1.8-0.8-1.6c-0.3-0.5-2.4-2.4-3.5-1.1c-0.4,2.1,0.2,3.8,2.1,4.9
		c-0.3-0.9-0.4-1.9-0.4-2.9C196.1,75.7,196.9,76,197.7,76.7z"/>
	<path fill="#DEEBD2" d="M208.6,52.3c0.4,1.3,1.1,2.4,2,3.5c2.2-1,6.8-6.5,4.8-9c-3-4-6,4-3.3,4c-1.1-0.1-3-0.1-3.5,1.3
		C208.6,51.9,208.6,51.9,208.6,52.3C208.4,53.3,208.5,52.7,208.6,52.3z"/>
	<path fill="#DEEBD2" d="M233.5,53.2c0.1,0.1,0.3,0.1,0.4,0.2C233.7,53.2,233.5,53.1,233.5,53.2z"/>
	<path fill="#DEEBD2" d="M233.9,53.4c0.2,0.2,0.3,0.3-0.4-0.2c0.5-1-3.3,0.7-2.6,4.5c1.1,5.2,5.3-1.8,6.5-2.8
		C236.3,54.3,235.1,53.8,233.9,53.4z"/>
	<path fill="#DEEBD2" d="M169.9,88.8C170.8,88.9,170.3,88.9,169.9,88.8c1.4,1.2,2.9,1.9,4.5,2.4c1.2-0.9-1.9-8.6-3.6-8.5
		C166.6,83.3,166.5,88.5,169.9,88.8z"/>
	<path fill="#DEEBD2" d="M169.9,88.9C169.9,88.8,169.9,88.8,169.9,88.9C169.4,88.8,169.6,88.8,169.9,88.9z"/>
	<path fill="#DEEBD2" d="M168.7,99.4c0.7,0.3,6.8,0.1,7-0.4c-0.4-0.7-0.6-1.4-1-2.1C173.4,96.3,165.7,98.3,168.7,99.4z"/>
	<path fill="#DEEBD2" d="M156.1,88.2c0.2-0.6,2.7,10,2.6,10c4.4,4,2.8-6.3,2.1-8C160.6,89,157.2,85.3,156.1,88.2z"/>
	<path fill="#DEEBD2" d="M152.2,91.7c0.2,1.8,0.7,3.6,1.6,5.2c-0.9-1.1-2-1.6-3.3-1.7c-0.2,6.3,4.1,3.1,4.6-1.3
		C154.7,93.4,154.8,91.3,152.2,91.7z"/>
	<path fill="#DEEBD2" d="M147.1,94.8C147.7,95.4,147.1,93.5,147.1,94.8L147.1,94.8z"/>
	<path fill="#DEEBD2" d="M143.1,90.4C143.7,90.3,144.4,90.1,143.1,90.4c-1,0.2-0.6,0.1-0.2,0c-3.3,0.6-1.1,7.1,1.2,7.7
		C149.6,99.5,146.5,90,143.1,90.4z"/>
	<path fill="#DEEBD2" d="M138.7,106.5c3.1-3.2,2.7,1.5,7,1.2c-0.3-1-0.9-3.8-0.9-3.9C144.7,103.8,132.4,102.1,138.7,106.5z"/>
	<path fill="#DEEBD2" d="M146,107.7c-0.1,0-0.1,0-0.2,0C145.9,108.1,146,108.2,146,107.7z"/>
	<path fill="#DEEBD2" d="M164.2,46.8c-0.1-0.2-0.9-0.6-1.2,0C163.4,46.9,163.8,46.9,164.2,46.8z"/>
	<path fill="#DEEBD2" d="M158.1,50.6c-0.3,1.6-3.8-0.4-3.3,2.8c0.6,4.3,16.2-5.6,17.2-6.6c-1.1-2.4-5.2-0.3-7.7,0
		c0.1,0.2-0.2,0.3-1.2,0c1.4-2.8,1.8-2.2,2.9-5.5c-4.5-1.4-3.9,1.5-7,3.1c1,1.1,1.1,2.1,0.1,3.1c-2.3,0.7-6.3-1.6-10.3,0.3
		C143.9,50.1,157.9,51.2,158.1,50.6z"/>
	<path fill="#DEEBD2" d="M162.1,41.1C163,39.4,162.1,40.8,162.1,41.1L162.1,41.1z"/>
	<path fill="#DEEBD2" d="M162.8,40.1C162.8,40.1,162.8,40.2,162.8,40.1C162.8,40.2,162.8,40.1,162.8,40.1z"/>
	<path fill="#DEEBD2" d="M162.8,40.2c0,0-0.1,0.1-0.1,0.1C162.7,40.2,162.8,40.2,162.8,40.2z"/>
	<path fill="#DEEBD2" d="M162.7,40.3c-0.1,0.1-0.1,0.1-0.1,0.1C162.7,40.4,162.7,40.3,162.7,40.3z"/>
	<path fill="#DEEBD2" d="M162.8,40.1C162.9,40.1,162.9,40.1,162.8,40.1L162.8,40.1z"/>
	<path fill="#DEEBD2" d="M157.6,37.7c-0.3-0.1-0.6-0.1,0.2,0.1c4.1,1.2,15.8,3.6,12.7-3.3C167,26.5,155.1,36.3,157.6,37.7z"/>
	<path fill="#DEEBD2" d="M178.5,30c-1.3-1-2.8-1.4-4.5-1.1C171.3,37.4,183.2,28.5,178.5,30z"/>
	<path fill="#DEEBD2" d="M164.5,25.1c0.1,0,0.3-0.2,0.8-0.6C157,18.7,160.4,27.6,164.5,25.1z"/>
	<path fill="#DEEBD2" d="M169.5,24.2C169.3,24.1,169.2,24,169.5,24.2C170.3,24.7,169.8,24.4,169.5,24.2c1.2,0.6,5.7,0.3,4.6-2.1
		c-3.6,0.6-3.7-6.2-6.9-5.2C165,17.6,168.9,23.8,169.5,24.2z"/>
	<path fill="#DEEBD2" d="M177.4,18.7c0.5,1,0.9,2.1,1.4,3.1c1.6-1.3,2.3-3,2-5C175.5,16.6,179.5,17,177.4,18.7z"/>
	<path fill="#DEEBD2" d="M182,3.9c-1.4,0-1.2,3.8-2.4,4.3c-1.1,0.4-1.4-3.1-2.1-2.8c-5.2,1.4-2,5.6,1.3,4.8
		C179.8,9.9,185.9,3.9,182,3.9z"/>
	<path fill="#DEEBD2" d="M189.5,12.8c3.3,0.6,6.8-7,1.1-8.9C187.7,2.9,185.6,12,189.5,12.8z"/>
	<path fill="#DEEBD2" d="M189.5,12.8C189.1,12.7,191.2,13.1,189.5,12.8L189.5,12.8z"/>
	<path fill="#DEEBD2" d="M186.8,16.8c-0.7,1,2.2,5.5,1.9,7.2C199.4,28.2,190.4,12.1,186.8,16.8z"/>
	<path fill="#DEEBD2" d="M197.9,15.8c-2.2,0.4-1.8,1.8-3.8,2.8C200,23.9,201,15.1,197.9,15.8z"/>
	<path fill="#DEEBD2" d="M201.6,7.4C203.2,7.7,198.8,6.9,201.6,7.4L201.6,7.4z"/>
	<path fill="#DEEBD2" d="M198.9,12.6c3.4,0.3,5-4.7,2.6-5.1c-2.8-0.6-1.3,3-1.5,4.2c-0.9,0.1-3.5-1.8-1.9-2.6
		c-0.4-0.1-0.9-0.3-1.4-0.4C193.6,9.4,198.1,12.5,198.9,12.6z"/>
	<path fill="#DEEBD2" d="M221.4,6.7C221.6,6.7,221.7,6.7,221.4,6.7c-3.4-0.2-9.5-2-12.5-1.8c0.3,0,0.9,10.2,1,10.7
		c3.1,0,2-4.8,3-6.5c2.1-3.6,7,7,7.6,6.3c0.6-1.6,0.7-3.3,0.4-5c1.3-0.1,2.6-0.3,3.8-0.5C224.6,7.9,223.5,6.8,221.4,6.7z"/>
	<path fill="#DEEBD2" d="M241.7,5.4c1.4-3.2,3-13,0.1-14.4c-2.2-1.1-4.2,9.8-1.4,13.4C240.2,4.6,240.3,4.9,241.7,5.4z"/>
	<path fill="#DEEBD2" d="M244.7-13c0.3-0.5,0.4-1-0.5,0.5c2.4,1.6-1.4,2.6,1.8,4.1C248.9-10.5,246.2-13.7,244.7-13z"/>
	<path fill="#DEEBD2" d="M286.2-5.4c-0.8-0.1-2.1-0.2,0.4,0.1c0.1,0,0.1,0,0.1,0c0.8,0.1,4.5-0.1,4.9-0.6
		C295.1-11,278.6-6.5,286.2-5.4z"/>
	<path fill="#DEEBD2" d="M295.2-15.7c-2.5-3.7-5.3-9.8-7.2-0.2c1.4-0.6,2.9-0.9,4.4-0.9C293.5-15.8,293.4-15,295.2-15.7z"/>
	<path fill="#DEEBD2" d="M302.6-16.9c1-0.3,4.6-3.8,3.6-5.2C302.9-26.1,298.4-15.6,302.6-16.9z"/>
	<path fill="#DEEBD2" d="M302.6-16.9C300-16.1,303.1-17,302.6-16.9L302.6-16.9z"/>
	<path fill="#DEEBD2" d="M48.5,120.7c-1.7,1.6-1,4.3,1.1,4.8c8.1,2.3,6-3.3,7-7.1C52.5,113.9,51.6,117.8,48.5,120.7z"/>
	<path fill="#DEEBD2" d="M34.3,79.1c-1.2,2.5-3.1,3.6,1.4,6C40,82.6,34.9,81.3,34.3,79.1z"/>
	<path fill="#DEEBD2" d="M22.3,76.9c3.9,6,5.8-3,6-3.4C24.9,70.1,18.4,71,22.3,76.9z"/>
	<path fill="#DEEBD2" d="M26.6,62.1C28.1,61.2,26.5,61.7,26.6,62.1L26.6,62.1z"/>
	<path fill="#DEEBD2" d="M26.6,62.1c-1.2-7.7-6.3,11.8,0.3,6.3c-2.1-6.8,3.7-2.1,4.2-3.6C31.8,62.6,28.1,61.2,26.6,62.1z"/>
	<path fill="#DEEBD2" d="M22.8,52.4c-2.9,1.1,2.7,4.3,2.6,4.3C28.5,55.3,22.9,52.4,22.8,52.4z"/>
	<path fill="#DEEBD2" d="M7,62.9c-0.6-1.1-0.5-4-2.3-4.2c-1.8-0.2-0.7,8.6,1.7,8.4C7.5,67.1,9.2,61.9,7,62.9z"/>
	<path fill="#DEEBD2" d="M1.8,65.9c-3.8,0.9-8.2-0.4-7.3-5.5c1.8-11.2-6.3,5.1-12.2-2.4c-6.7-8.5-16.9-5.2-22-17.8
		C-43,31.8-51,42.3-52,39.7c3.8,9.8,7.6,17.4,14.2,26.2c5.4,7.2,4.9-3.3,4.5-5.7c-1.1-6.6,6.5-3.8,9.7-2.6c5.4,1.9,5.9,4.4,6.6,9.8
		c1.1,8.7,4.5,0.8,8.4,2.9c3.6,2.1,3.5,5.5,8.2,6C5.2,76.9,1.5,68.5,1.8,65.9z"/>
	<path fill="#DEEBD2" d="M-2.9,38.8c-6-3.8-5.3,2.8-0.1,4.7c-2.8,1.1-1.1,4.5,1.6,3c-1.1,3.6,1.8,4,4.4,3.6c-0.6-1.3-1.1-2.4-2-3.5
		C-0.6,47.2-0.6,40.3-2.9,38.8z"/>
	<path fill="#DEEBD2" d="M7.3,39c1.4-2.2-3.2,0.3-3.9,0.8c0.2-1,0-2-0.7-2.8c-0.6,1.9-0.5,3.8,0.4,5.5C3.8,41.5,6,38.8,7.3,39z"/>
	<path fill="#DEEBD2" d="M14.2,34.7c0.2,0,0.3,0,0.5,0c-0.3-0.4-0.7-0.9-1-1.4C13.5,33.9,13.6,34.5,14.2,34.7z"/>
	<path fill="#DEEBD2" d="M17.8,35.1c-1.1-0.2-2.1-0.4-3.1-0.4C16.3,36.8,17.7,37.6,17.8,35.1z"/>
	<path fill="#DEEBD2" d="M19.5,28.9c1.3-1.6,3.8-0.1,4.5-1c2.7-3.7-9.5-13.6-4.6-16.3c-1.4-2.8-0.9-13.7-4.1-10.9
		c0.9-2.1,5.2-4.5,8.2-3.7c0,2.9-1.7,8.5,3.6,11c4.6,2.2,0.7,9.2,6.5,7.4c7.2-2.2-4.1-7.9-5.8-11.1c-7.2-13.1,6.7,3,5.5,3.1
		c8.2-0.8-9.3-13.6-9-13.4c-2.4-2.3-1.6-2.8-2.6-6c-1.6-5.8,3.1-1.4,5.5-1.6c0.4-1.5-1.2-7.5-1.4-9.5c-0.4-4.7-16.6-0.6-7,2.3
		c-3.8,4.4-6.3-1.4-6.5,5c-4.4,0.9-8-3.1-12.4-1.7c0,2.1-2.5,5-2.2,6.4c0.9,0,5.3,1.6,6.4,1.4C3-7.6,2.6-5.6,2.8-3.4
		c5.9-0.7,5.8,0,7.2-4.3c1.6-0.1,4.8,5.1,4.4,6.5c-3.5-2.3-7.5,6.3-10,7C4.4-2.7-5.8,3.2-5.9,6.3C-6.2,16,0.9,9.8,5.2,14
		c3.1,3,8.2,2.7,10.4,4.8c8,7.5-3.7,5.5-5.4,6.1c-0.2,1.7,1.6,5.5,3.4,8.4c0.5-1.5,2.8-3.3,4.2-0.6c-0.3,0.3,0.6,4.7,1.5,4.9
		C22.1,38.1,18.5,30.1,19.5,28.9z"/>
	<path fill="#DEEBD2" d="M7.8,18.9c-2.1,0.7-5.2,6.5-1.1,6.7C9.5,25.8,10.4,19.6,7.8,18.9z"/>
	<path fill="#DEEBD2" d="M30.1,41.4c0.1,0,0.3,0,0.4,0c0.4-2.6-0.2-12.7-0.8-15.4c-6.5-1.6-8.2,18.5-2.8,16.3c0.2-1.7-0.4-3-1.7-4
		C28.4,37.4,27.9,41,30.1,41.4z"/>
	<path fill="#DEEBD2" d="M33.9,20.1c-2.4-0.1-7.1-1.7-6.9,2.7C28.8,23.6,33,21.4,33.9,20.1z"/>
	<path fill="#DEEBD2" d="M51.6,6.4c0-0.1,0.1-0.2,0.1-0.3c-1.1-0.4-6-1.8-7,0.9C46.7,9.6,50.5,9.3,51.6,6.4z"/>
	<path fill="#DEEBD2" d="M48.7,13.6C49,12.8,47.8,15.5,48.7,13.6L48.7,13.6z"/>
	<path fill="#DEEBD2" d="M48.7,13.6c-0.8,1.9,11.1,3.8,11.2,3.8c6.5,1,2.6-5.8,0.4-5.7C58.9,12.1,49.2,12.4,48.7,13.6z"/>
	<path fill="#DEEBD2" d="M60.2,22.7c-0.6-0.2-5.8-0.9-5.8-0.9c-0.6,0.2-0.6,4.9-0.6,5.3C59.1,29,71.4,27.1,60.2,22.7z"/>
	<path fill="#DEEBD2" d="M33.4-6c10-7.8-6.7-16.1-2.1-5.1C31.6-9.3,32.3-7.6,33.4-6z"/>
	<path fill="#DEEBD2" d="M7.3-35.9C7.7-35.6,7.6-35.7,7.3-35.9c3.2-0.7,4.7,0.6,4.5,3.8c0.3,2.3,0.9,4.4,2,6.4
		c1.6-3.7,2.3-8.4,2.6-12.6c0.4-3.4-8-11-9.7-4.5c5.1,5.3-1,5,0.4,6.7C6.6-36.6,5.9-37.2,7.3-35.9z"/>
	<path fill="#DEEBD2" d="M5.8-18.6C3.9-18.8,9-18.4,5.8-18.6L5.8-18.6z"/>
	<path fill="#DEEBD2" d="M5.8-18.6c6.6,0.5,5.9-11,0.3-10.8c-0.3,2.8-1.8,3.3-4.7,1.6C1.6-25-1.1-19.2,5.8-18.6z"/>
	<path fill="#DEEBD2" d="M19.5-33.5c-3.6,0.6-1.5,0.3-0.3,0.1c-7.1,1.4,8,6.7,7.6,7c0.9-2.1,1.6-4.3,2-6.5c-2.5-1.1-5.3-1.2-9-0.6
		C19.9-33.6,19.8-33.6,19.5-33.5z"/>
	<path fill="#DEEBD2" d="M18.9-41.1C18.3-41.4,19.9-40.6,18.9-41.1L18.9-41.1z"/>
	<path fill="#DEEBD2" d="M18.9-41.1c0.9,0.4,3.8-0.1,4.5-0.1C21.9-53.5,11.8-44.4,18.9-41.1z"/>
	<path fill="#DEEBD2" d="M52.3-41.4c0.4,0.5,0.7,0.8-0.2-0.3c-1.4-1.6-0.7-0.8,0,0c-1.1-0.8-15.4,1.7-16.2,2.8
		C32.6-35,61-30.7,52.3-41.4z"/>
	<path fill="#DEEBD2" d="M-49.2,7.8c4.5,3.6,7.7-4.7,13.2-3.6c6.4,1.3,6.5-1.1,10,5.2c2.4,4.4,8.1,5.8,9.3,0
		C-15.6,3.6-3.6,0-5.4-3.9c-3.5-7.7-6.5-16.5-14-10.5c-2.7,2.1-2.6-7.1-2.8-7.7c-6.5-0.9-1.2,5.4-2.7,8.2c-0.9,1.7-9.5,4.8-9.5,4.2
		c-2.1,0.1-1.1-7.8-3.6-10c1.8-1.6,11.9-5.5,11.7-7c-2.3,0.1-8.5-1-10.9-1.6c-1.1-6.1,8.7-5.4,12.1-5.3c1.7,0,16.1-4.9,9.7-7.6
		c-3.7-1.6-13.3-0.6-16.7,1c-6.4,3.1-4.9,2.6-8.5,7.7c-1.4-1.9-2.9-3.8-4.4-5.7c-0.3,2.8,3.8,9.3,5.3,11.5c3.5,5.1-0.7,2.2-0.9,6.8
		c-0.4,14.3-6.5,1.1-9.1,2.3c-3.3,1.6,4.6,7.8-0.9,8.8c-4.1,0.8-0.6,6.5-1.4,9.2c-0.6,2.4-7.5,6.3-3.8,9.1
		C-51.5,12.7-51.6,10-49.2,7.8z"/>
	<path fill="#DEEBD2" d="M-49.2,7.8C-49.9,8.4-47.8,8.9-49.2,7.8L-49.2,7.8z"/>
	<path fill="#DEEBD2" d="M-43.9-44.5c11.1,4.6,4.8-13.4,4.6-19.4C-41.9-62.9-47.7-45.1-43.9-44.5z"/>
</g>
<g id="state-lines_1_">
	<polygon opacity="0.5" fill="#D8D2D2" enable-background="new    " points="229.4,-115.7 229.4,-108.2 232.3,-108.2 232.3,-108.9 
		230.1,-108.9 230.1,-116.1 227.3,-117.7 227.3,-119.5 205.8,-126 203,-128.8 202.5,-128.3 205.5,-125.3 226.6,-118.9 226.6,-117.2 
			"/>
	<path opacity="0.5" fill="#D8D2D2" enable-background="new    " d="M325.4-20.8h-12.1v-13.5h0.7V-35h-0.7v-22h-0.7v22h-0.4l0.3,4.8
		l-2.6,10.3l-7.7,2.8l-1.9,6.7l-3.6-2l-1.8,7L290-3l-1.9-4.5L277-5.4l-4.5-3l-3.2-3.2h-5v-39.1h13.5v-0.7h-13.5l0,0h-0.7l0,0h-20.6
		v0.7h20.6v44.1h-6.1l0.9,3.1l-7.6,7l-3.5-2.3l-3.2,4.5l-2.1-2L238.5,7l-6.2-3.5V6l-3.5-1.4l-1.1,2l0.6-6.2l6.1-7l-1.4-6.8l1.4-37.5
		h-0.7l-1.4,37.5v0.1l1.3,6.5l-6,6.9l-1.1,10.9l-4.3,1.3V17l-5.5-2.1l-1.7,3.8l0.6,0.3l1.4-3.3L223,18v-5.1l4.3-1.2l0.3-3.2l1.6-2.9
		L233,7V4.7l5.5,3.1l3.3-3.2l2.2,2.1l3.3-4.6l3.4,2.2l8.4-7.6l-0.8-2.6h5.9v-5h4.8l3,3.1l4.9,3.2l10.8-2.1l2,4.8l0.8-0.4l0.8,7.5
		l5.3,5.8L284,22.6l0.5,0.5l12.6-11.8l3.8,4.2l17.6-5l6.2-15.2l3.9,3.1l2.6-5.7h2.8l3.7-3.7l1.5-5l5.9,3.3l1.4-1.8l9,7.5l0.4-0.6
		l-9.5-8l-0.1,0.1l-1-4.5l-4.3-0.1l-3.1,1.2l-4.2-1.3l-7.6,5.3v-5.3h42.6v-0.7h-42.6h-0.5V-20.8z M333.8-19.2l4.1,1.2l3.2-1.3
		l3.6,0.1l1,4.4l0.2-0.1l-0.9,1.3l-6.1-3.5l-1.7,5.7L333.8-8h-3.1l-2.5,5.3l-4-3.1L317.9,10l-16.8,4.8l-9-10l-0.8-7.5l4.3-2.1
		l1.6-6.5l3.6,1.9l2.1-7.2l7.7-2.8l2-8.2v7.5h12.8v6.8L333.8-19.2z"/>
	<polygon opacity="0.5" fill="#D8D2D2" enable-background="new    " points="194,-159 192.8,-159 188.2,-155.1 185,-159 184.1,-159 
		188.1,-154.1 	"/>
	<polygon opacity="0.5" fill="#D8D2D2" enable-background="new    " points="210.2,-154.3 223.9,-159 221.9,-159 210,-154.9 
		199.8,-155.7 195.8,-159 194.7,-159 199.6,-155 	"/>
	<polygon opacity="0.5" fill="#D8D2D2" enable-background="new    " points="180.7,-159 179.4,-159 178.1,-158.2 177.5,-159 
		176.5,-159 178,-157.3 	"/>
	<path opacity="0.5" fill="#D8D2D2" enable-background="new    " d="M264.3-137.8l4.5,9.3l3.3-1.3l1.3,5.8l5,1.8v5.6l12.6,7.5
		l5.5,27.5l-5.8,16.8l-7.3,3.9v3.2c0.2-0.1,0.4-0.1,0.7-0.1v-2.6l7.2-3.9l5.9-17.2v-0.1l-5.5-27.8v-0.1l-12.4-7.4v-5.8l-5.2-1.8
		l-1.4-6.3l-3.4,1.4l-4.3-9L227-159h-1.4L264.3-137.8z"/>
	<path opacity="0.5" fill="#D8D2D2" enable-background="new    " d="M226.9,23.3l1.1,2.1h-15.9l3.1-1.8v-4.7l-3.8-4.1l-0.9-6.8
		l-9-7.7l2.8-9l-6.3-0.9l-0.6-5.4l-6.8-6.8l-1.1-10.2l-0.1-0.1l6-9.5l-0.7-5.7l7.5-2.8l0.9-4.1v-4.5l-4.3-4.8h28.4v-0.7h-29.1
		l-4.1-4.6l-5-18.8v-0.1l-14.6-12.6l1.5-12l-2.7-3.8l6.3-6.3l0.8-5.3l-0.7-0.1l-0.8,5.1l-6.5,6.5l2.9,4.1l-1.5,12.2l14.7,12.7
		l4.9,18.7v0.1l8.9,10.1v4.1l-0.8,3.7l-7.7,2.8l0.7,6l-5.8,9.2l-2.9-2.5h-45.1l-8.7-28.9V-64l-1.2-0.9l-0.6-2.9l2.5-4.8l-2.3-6.4h60
		v-0.7h-59v-29.3l-4.1-5.5l1.5-3.7h0.4v-0.7h-0.1l1.7-4.1l0.1-0.1l-6.1-35.9h-0.7l6,35.8l-1.8,4.3H43.9V-159h-0.7v55.1h-79.6v7.1
		h-13.8l-5.8,3.1l-3.1-7l-3.7-1.6l-6-14.5l-4.1,5.3l-2.6-2.2l3-17.8l-5.8-1.1l-6-10.1l-4.7-1.9v-4.7l-4.3-3.7v-6H-94v6.2l4.3,3.7
		v4.9l4.9,2l6,10.2l5.4,1.1l-3,17.6l3.5,2.9l3.8-5l5.7,13.6l3.8,1.6l3.3,7.5l6.3-3.3h13.7v39.8h-147.8v0.7h44.8v44.2L-80,44.2
		l0.2-0.3v2.9l8.1,9.7l-3.8,5v5.7l-4.1,6.2l0.4,5l-25.4,3.1l0.1,0.7l27.8-3.4l-2.6,3.9l43.7,17.9H-3v-9.2h19l17.6,14.4l5.8,11.9
		l12.2,8.4l6-2.1l2.1-7.7l8.3,0.5l13,8.6c3.4,6.3,9.7,18.3,10,18.7c0.1,0.1,0.1,0.3,4.8,3.8v8.5l9.2,8.4l16.4,4.9l0.2-0.7l-16.3-4.9
		l-8.9-8v-8.5l-0.1-0.1c-1.7-1.2-4.4-3.3-4.7-3.6c-0.5-1.1-7.1-13.4-10-18.8l-0.1-0.1l-13.4-9l-9-0.5l-2.2,8l-5.4,1.8l-11.7-8.1
		l-5.7-11.8L16.3,90.7h-2.3V90h41.2V18.9h97.4v9.3l2.1,11.1v27.2l-9-4L133,65.4l-7.4-3.8l-2.9,2v-1.6l-8.2-0.4l-1.7-2.3l-4.7,1.1
		l-6.1-1.1l-3.4-5.6l-5.2,1.9l-3.3-3.3V26.8H56.1v0.7h33.4v25.1l3.8,3.8l5.1-1.8l3.3,5.4l6.6,1.1l4.4-1.1l1.7,2.3l7.8,0.4V65
		l3.7-2.5l7.2,3.8l12.8-2.8l9.7,4.3l0.3-0.6l3.3,0.9v20.8l6.6,13.1l-5.1,18.1l0.7,0.2l5.3-18.3l-6.6-13.1V75.8h31.8l2.3,5.2
		l-2.8,0.6l4.3,3.3l-7.5,7.7l-2,10.9h23.5l-2.1,4.3l1.9,4.2l0.6-0.3l-1.8-3.8l2.4-5h-23.7l1.8-10l7.6-8.1l-3.7-2.8l2.1-0.4l-2.6-5.9
		l1.4-6.3h-1.5l-1.4-3.8l1.7-0.2v-4.8l6.4-6v-3.6l3.3-0.9l-0.1-0.7l-3.9,1v3.9l-6.4,6v4.5l-2,0.2l1.8,5h1.1l-1.1,5h-31.9v-7.7
		l-4.3-1.1v-27l-2.1-11.1v-2.1h50.2l1.3,3.6l-3.1,4.3h7.3l0.6,1.1l-6.3,7.5l-1.4,5.7h23.9l-2.1,58.6h0.7l2.1-58.6h29.8l4.3,29.6
		l3.6,7.2l-3.8,6.8l3.2,11.2h-31l1.3,6.8l0.7-0.1l-1.1-6h30.1V103l0.8,2.7l29.7,2.5l1.4,3.9l3.6-5.7h1.5v-0.7h-1.8l-3.1,4.8l-1.1-3
		l-29.6-2.5l-3.8-13.3l3.9-6.8l-3.6-7.4L257.1,48h26.2l-1.7,3.1l6.2,4.8l3.8,7l10.7,10.7l5.4,13.7l0.6-0.3l-5.5-13.8l-10.8-10.8
		l-3.8-7l-5.8-4.5l1.6-3h0.9l8.1-3.7l15,1.1l3.8,4.1h10.7L335.2,62l0.5-0.5l-13.1-12.9H312l-3.7-4.1l-15.4-1.1h-0.1l-8,3.8h-0.4
		l0.1-0.2l-0.6-0.4l-0.3,0.5h-12.9v-3.9l4.6-3.1l10.9-4.2l3.5-4.4l3,1.4l8-4.1v-5.2h63.3V23H226.9V23.3z M43.9-118.1h84.1l-1.6,3.8
		l4.1,5.5v29h-1.2l2.6,7.1l-2.5,4.8l0.5,2.3l-6-4.5l-0.1-0.1l-9.1,1.7l-6.2-2.6H43.9V-118.1z M-35.7-103.2h78.9v61.8h-78.9V-103.2z
		 M-70.5-55.6h34.1v14.9h22v59h-56.1V-55.6z M-79.7,43.5l-59-55.2v-43.9h67.5v88.8h-8.5V43.5z M-14.4,100h-20.9l-42.9-17.6l3-4.5
		l-3.3,0.4l-0.4-4.8l4.1-6.2v-5.7l4-5.2l-8.2-10V34h8.5V19.1h56.1L-14.4,100z M54.6,89.4H13.4v1.4H-3.7v9.2h-10V19h68.2V89.4z
		 M66,18.3h-79.6v-59h57.6v-29.9h64.6l6.3,2.7l9-1.7l7.7,6l11.4,37.8H66.7v-14.9H43.9v0.7h22V18.3z M152.7,18.3h-86V-25h77.3
		l-0.2-0.7l5,1.6l1.3,2.3l-2.8,2.7l5.5,7.4V18.3z M208.6,33l-0.1,0.2h-5.4l2.5-3.5l-1.6-4.3h-50.7V-12l-5.3-7.1l2.8-2.6l-1.7-3.1
		l-5.3-1.6l-0.2,0.6l-2.6-8.5h44.6l3.2,2.8l1.1,10.2l6.8,6.8l0.6,5.7l6,0.8l-2.6,8.6l9,7.8l0.9,6.8l3.8,4.1v4l-3.8,2.3L208.6,33z
		 M299.8,24v4.8l-7.2,3.8l-3.1-1.5l-3.7,4.7L275,39.8l-5,3.3v4.3h-43.4v-0.4h-0.7v0.4h-23l1.1-4.6l6.5-7.7l-1.1-2.1l1.9-7l0.4-0.2
		v0.4h17.6l-1.1-2.1H299.8z"/>
	<path opacity="0.5" fill="#D8D2D2" enable-background="new    " d="M-106-159v32.7l2.6,5.7l0.4,0.4h-22.8l-18.7,5.8l-14.6-1.3
		l-6,1.8l-3.4-1.6l-1.6-5.3c-0.4-0.8-1.8-3.5-2.4-3.8c-0.6-0.4-4.6,0-7,0.3l0.1,0.7c2.9-0.4,6.1-0.6,6.5-0.4
		c0.3,0.2,1.4,2.1,2.1,3.6l1.7,5.5l3.9,1.9l6.1-1.8l14.6,1.3l18.7-5.9h23.5l4.7,5.2L-107-95l4.2,4l-2,34.3l0.7,0.1l2-34.6l-4.1-3.8
		l9.1-19.3l-5.9-6.5l-2.5-5.4V-159H-106z"/>
	<path opacity="0.5" fill="#D8D2D2" enable-background="new    " d="M375.8-41.2l4.6-4.9l0.1,0.1c0.1-0.2,0.1-0.5,0.2-0.7l-1.7-1.1
		l-1.6-5.5l-4.3-3h-51.4v-5.3c-0.2,0.1-0.4,0.3-0.7,0.4v5.6h51.7l3.9,2.7l1.6,5.5l1.4,0.9l-4.7,5v7.4l4.8,5.5l-6.9,3.8l0.4,0.6
		l7.5-4.3l-5-5.9L375.8-41.2L375.8-41.2z"/>
	<path opacity="0.5" fill="#D8D2D2" enable-background="new    " d="M463.1-109.3l1.6-4.3l-5-3.2v-21.7l-4.3-4.9l-6.5,2.1l-5.3-4.3
		l-13,19.6v6.8l-7.1,6.6v2.9l-3.3-0.9l-0.1,0.2c0,0-1.4,2.3-2.9,4.4c-1.4,2-2.8,2-2.9,2h-32.4l-7,3.5l-10.3,8.4l-4.3,8.7
		c0,0.3,0,0.6,0,0.9h0.4l4.5-9l10.2-8.2l6.9-3.3h32.2c0.1,0,1,0,2.1-0.9v7l-5.9,3.9L405.8-67H397l0.1-0.5l1.1-14.1l-2.2-1.1
		l-2.8-20.9h-0.7l2.8,21.4l2.2,1.1l-1.1,13.6L393.6-57v11.8l-2.8,1.6v2.3h0.7v-1.9l2.8-1.6v-10.7H419l4.4,3l0.4-0.6l-4.5-3.1h-25
		v-0.6l2.5-9.3h23.8v-0.7h-14.1l4.5-25.7l6-3.9v-8H417c0.2-0.2,0.5-0.5,0.7-0.9c1.2-1.8,2.4-3.6,2.8-4.3l0.9,0.2v30.6l2.5,4.3
		l0.6-0.4l-2.4-4.1v-30.2l2.1,0.6v-3.5l7.1-6.6v-7l12.5-18.8l5,4.1l6.5-2.1l3.8,4.3v21.7l4.9,3.1l-1.6,4.3l5.3,4.8l0.5-0.5
		L463.1-109.3z"/>
</g>
<g id="marker_12_">
	<path id="pin_13_" fill="#B9252D" d="M127.9,34.5c0.7-1.1,1.1-2.5,1.1-3.9c0-4.1-3.3-7.4-7.4-7.4s-7.4,3.3-7.4,7.4
		c0,1.6,0.5,3,1.3,4.1l6.1,7.4L127.9,34.5z"/>
</g>
<g id="marker_11_">
	<path id="pin_12_" fill="#B9252D" d="M113.1,80.9c0.7-1.1,1.1-2.5,1.1-3.9c0-4.1-3.3-7.4-7.4-7.4s-7.4,3.3-7.4,7.4
		c0,1.6,0.5,3,1.3,4.1l6.1,7.4L113.1,80.9z"/>
</g>
<g id="marker_10_">
	<path id="pin_11_" fill="#B9252D" d="M123.7,0c0.7-1.1,1.1-2.5,1.1-3.9c0-4.1-3.3-7.4-7.4-7.4c-4.1,0-7.4,3.3-7.4,7.4
		c0,1.6,0.5,3,1.3,4.1l6.1,7.4L123.7,0z"/>
</g>
<g id="marker_9_">
	<path id="pin_10_" fill="#B9252D" d="M315.9,146.8c0.7-1.1,1.1-2.5,1.1-3.9c0-4.1-3.3-7.4-7.4-7.4c-4.1,0-7.4,3.3-7.4,7.4
		c0,1.6,0.5,3,1.3,4.1l6.1,7.4L315.9,146.8z"/>
</g>
<g id="marker_8_">
	<path id="pin_9_" fill="#B9252D" d="M389.7-62.1c0.7-1.1,1.1-2.5,1.1-3.9c0-4.1-3.3-7.4-7.4-7.4c-4.1,0-7.4,3.3-7.4,7.4
		c0,1.6,0.5,3,1.3,4.1l6.1,7.4L389.7-62.1z"/>
</g>
<g id="marker_7_">
	<path id="pin_8_" fill="#B9252D" d="M253.4,30.7c0.7-1.1,1.1-2.5,1.1-3.9c0-4.1-3.3-7.4-7.4-7.4c-4.1,0-7.4,3.3-7.4,7.4
		c0,1.6,0.5,3,1.3,4.1l6.1,7.4L253.4,30.7z"/>
</g>
<g id="marker_6_">
	<path id="pin_7_" fill="#B9252D" d="M22.6,39.8c0.7-1.1,1.1-2.5,1.1-3.9c0-4.1-3.3-7.4-7.4-7.4s-7.4,3.3-7.4,7.4
		c0,1.6,0.5,3,1.3,4.1l6.1,7.4L22.6,39.8z"/>
</g>
<g id="water">
	<path fill="#A2DDF5" d="M62.3,245c-0.1-0.2-0.3-0.3-0.4-0.5c-0.7-0.7-1.6-1.2-2.5-0.9c-0.2,0.5-0.4,0.9-0.6,1.4H62.3z"/>
</g>
</svg>
