<?xml version="1.0" encoding="utf-8"?>
<!-- Generator: Adobe Illustrator 18.0.0, SVG Export Plug-In . SVG Version: 6.00 Build 0)  -->
<!DOCTYPE svg PUBLIC "-//W3C//DTD SVG 1.1//EN" "http://www.w3.org/Graphics/SVG/1.1/DTD/svg11.dtd">
<svg version="1.1" id="Layer_1" xmlns="http://www.w3.org/2000/svg" xmlns:xlink="http://www.w3.org/1999/xlink" x="0px" y="0px"
	 viewBox="0 0 648 426" enable-background="new 0 0 648 426" xml:space="preserve">
<rect fill="#F6F0EF" width="648" height="426"/>
<path fill="#A0DDF6" d="M508.5,10.7l5.5,10.4h8.4l15.9,8.4c0,0,7.9-8.9,5-9.4c-3-0.5-9.9-9.4-9.9-9.4l-7.1,6v-6l-12.3-5L508.5,10.7z
	"/>
<path fill="none" stroke="#F4E6D7" stroke-width="4" stroke-miterlimit="10" d="M417.2,342.9c1.1,5.1,1.4,0.1-14.2,50.4
	c-2,6-3,32-4.3,44.3"/>
<path fill="none" stroke="#A0DDF6" stroke-width="4" stroke-miterlimit="10" d="M620.4-5.7C609,4,609,16.2,598,27.6
	s-12.5,6.1-19.5,7s-10.5,7.7-8,14.3s1,8.6-10,15.1s-24.2,18.9-25.6,31.7c-1.4,12.8-5.9,16-16.4,22.1c-10.5,6.2-3.9,3.8-10,10
	c-6,6.2-11.3,18.2-4.9,33.2s10.1,24,0,32s-11.1,15-25.1,20.5c-14,5.5-20.5,18.4-26,37.7c-3,8.3-10.5,9.8-14,17.3s-17,19-17.5,43
	c0,12.5,4,24,16,34.5s14,11.5,11.5,24.5s-13,19.5-11.5,34s-15,18.1-12,29.3"/>
<path fill="none" stroke="#F4E6D7" stroke-width="4" stroke-miterlimit="10" d="M587,248.2h-35c-10,0-14.9,2.4-17.1,2.4
	s-0.4-2.4-30-2.4c-29.6,0-41.4-8.2-41.4-8.2c-4.5-2-14.8,3-21.8,2.3c-7-2.8-19,1-25.7,1c-13.7,0-13.7,0-19.3-5.3
	c-5.7-5.3-3-5.7-12.7-5.3s-34,0-34,0c-7,0-6,1.6-6,9c0,3.4-2.3,3.2-2.3,6.6s2,4.8,1.7,9.1c-0.3,4.3,0,37,0,37c0,4.4-11,8.8-11,37.6
	c0,13.8,7.4,29.5,7.4,29.5L421,342c9.4-2.6,9.4-4.6,11.9-8.5c2.6-4,4.5-5.3,8-1.6c3.5,3.7,4.8,7.9,19.7,10.1s126.6,15.3,126.6,15.3
	s-4-77.5-2.4-82.6s2.6-33.4,2.4-42c0.1-5.1-3.4-4.8-5.6-6.7c-2.2-1.9-1.9-7.3-6.7-6.2c-4.8,1.1-10.3-0.1-19.9,0
	c-9.6,0.1-11.4,1.8-18,0c-6.6-1.8-19.3-2.9-19.3-2.9s-9.8,2.8-19.4-5.6l-6.6,1.8c-4.6,34.3-13,27.7-16.3,41.7c-3,11-2,22.3-9.3,37.3
	s-1.7,18.4-2.5,26.9s-2.9,23.1-2.9,23.1"/>
<path fill="none" stroke="#F4E6D7" stroke-width="4" stroke-miterlimit="10" d="M524,87.5C513,112,478.5,154,466,162
	c-12.5,8-16,17.5-18.5,35.5c-2,8.5-3.5,13,2,13.7c5.5,0.8,8.9,12.3,19.2,16.8s17.3,9,29.6,10c12.2,1,15.6,0,15.6,0"/>
<path fill="none" stroke="#F4E6D7" stroke-width="4" stroke-miterlimit="10" d="M484.8,143.8c8.7,7.7,12.2,7.7,13.4,17.2
	s-1.7,19.5-6.7,24c-5.1,4.5,0.9,11-10.8,17.5S458,218,452,227.5S436,246,435,255s-5.5,15.5-14,22.8s-7,9.5-7.5,23.1s0,16.6,0,16.6"
	/>
<path fill="none" stroke="#F4E6D7" stroke-width="4" stroke-miterlimit="10" d="M469.4,43.1C446,50,445.5,51,443,63.5
	c-1.5,7.5,1.8,8.6-7.4,8.5s-18,1.5-18,13.5v112c0,9.5,0.3,9-2.7,13.7c-3,4.8-1.4,5.8-1.7,13.8s-10.9,6-16.6,13"/>
<path fill="none" stroke="#F4E6D7" stroke-width="4" stroke-miterlimit="10" d="M417.7,111.5c50.8,0,64.9,6.4,94.8-32.5"/>
<path fill="none" stroke="#F4E6D7" stroke-width="4" stroke-miterlimit="10" d="M417.7,143.8c38.8,0,49-1.9,57.7,10.2"/>
<line fill="none" stroke="#F4E6D7" stroke-width="4" stroke-miterlimit="10" x1="417.7" y1="178.5" x2="451.9" y2="178.5"/>
<path fill="none" stroke="#F4E6D7" stroke-width="4" stroke-miterlimit="10" d="M433,178.5l1.8,35.5c-2.3,6.5-1.3,11.8-4.3,16.6
	c-3,4.9-6,13.9-5,22.9S417,271,421,277.8"/>
<path fill="none" stroke="#F4E6D7" stroke-width="4" stroke-miterlimit="10" d="M420,432.1c3.2-17.7,13-18.7,13-48.3
	c0-14.2,1.8-9.3,5.2-12.7c3.5-3.5,3.5-9.8,3.5-9.8c0.6-5.1,5.2-6.2,12.5-5.9c3.2,0,6.4,0,6.4,0"/>
<path fill="none" stroke="#F4E6D7" stroke-width="4" stroke-miterlimit="10" d="M460.6,342c-0.3,17.8,0,29.1,0,29.1
	c-1.7,6.4-5.5,9.6-0.1,20.3c2.8,2.9-7.7,46.2-7.7,46.2"/>
<path fill="none" stroke="#F4E6D7" stroke-width="4" stroke-miterlimit="10" d="M401.8,400.2c7.8-2.7,7.1,0,21.1,0s27.5-3.6,43,3.4"
	/>
<path fill="none" stroke="#F4E6D7" stroke-width="4" stroke-miterlimit="10" d="M454.2,355.4c-0.3,20.7-2.1,14.4-2.4,21.6
	c-0.3,7.2,0.3,11.3-2.3,27.8s-5.2,32.9-5.2,32.9"/>
<path fill="none" stroke="#F4E6D7" stroke-width="4" stroke-miterlimit="10" d="M459.8,363.3c9.6,5.2,12.5,4.4,65.9,4.4"/>
<text transform="matrix(1 0 0 1 435.6401 157.7584)" fill="#877C6C" font-family="'HelveticaNeue-Bold'" font-size="6.8936">RIO RANCHO</text>
<path fill="none" stroke="#F4D8B3" stroke-width="4" stroke-miterlimit="10" d="M650.6,5.7l-22.8,12.9l-61.1,61.1
	c-14.4,19.9-12.4,20.4-12.4,27.3s-15.9,30.5-15.9,30.5c-3,6.7,0.5,5.2-3.5,12.7c-4,7.4-7,2.8-27.8,127.5c-0.5,3.6-20.9,16-24.8,19.9
	c-4,4-16.4,53.1-16.4,53.1v57.6l-6.5,25.3"/>
<g>
	<path fill="#FFFFFF" d="M540.3,138.3c10.7-3.5,5.2-13.3,5.2-13.3s-3.4,0.8-5.2-0.1c-1.9,0.9-5.2,0.1-5.2,0.1
		S529.6,134.8,540.3,138.3z"/>
	<path fill="#0EA9D6" d="M545.8,127.8c0,0,2.5,6.9-5.6,9.6c-8.1-2.7-5.6-9.6-5.6-9.6H545.8L545.8,127.8z"/>
	<path fill="#D72631" d="M540.3,127.3h5.4c0,0-0.2-1-0.6-1.3c0,0-2.9,0.4-4.8-0.2c-2,0.7-4.8,0.2-4.8,0.2c-0.3,0.3-0.6,1.3-0.6,1.3
		H540.3z"/>
	<text transform="matrix(1 0 0 1 536.9301 133.5191)" fill="#FFFFFF" font-family="'HelveticaNeue-Bold'" font-size="6.0064">25</text>
</g>
<g>
	<path fill="#FFFFFF" d="M498.3,294.3c10.7-3.5,5.2-13.3,5.2-13.3s-3.4,0.8-5.2-0.1c-1.9,0.9-5.2,0.1-5.2,0.1
		S487.6,290.8,498.3,294.3z"/>
	<path fill="#0EA9D6" d="M503.8,283.8c0,0,2.5,6.9-5.6,9.6c-8.1-2.7-5.6-9.6-5.6-9.6H503.8L503.8,283.8z"/>
	<path fill="#D72631" d="M498.3,283.3h5.4c0,0-0.2-1-0.6-1.3c0,0-2.9,0.4-4.8-0.2c-2,0.7-4.8,0.2-4.8,0.2c-0.3,0.3-0.6,1.3-0.6,1.3
		H498.3z"/>
	<text transform="matrix(1 0 0 1 494.9301 289.519)" fill="#FFFFFF" font-family="'HelveticaNeue-Bold'" font-size="6.0064">25</text>
</g>
<g>
	<path fill="#FFFFFF" d="M466,389.6c10.7-3.5,5.2-13.3,5.2-13.3s-3.4,0.8-5.2-0.1c-1.9,0.9-5.2,0.1-5.2,0.1S455.3,386,466,389.6z"/>
	<path fill="#0EA9D6" d="M471.6,379.1c0,0,2.5,6.9-5.6,9.6c-8.1-2.7-5.6-9.6-5.6-9.6H471.6L471.6,379.1z"/>
	<path fill="#D72631" d="M466,378.5h5.4c0,0-0.2-1-0.6-1.3c0,0-2.9,0.4-4.8-0.2c-2,0.7-4.8,0.2-4.8,0.2c-0.3,0.3-0.6,1.3-0.6,1.3
		H466z"/>
	<text transform="matrix(1 0 0 1 462.6686 384.7858)" fill="#FFFFFF" font-family="'HelveticaNeue-Bold'" font-size="6.0064">25</text>
</g>
<g>
	<path fill="#FFFFFF" d="M615,39.4c10.7-3.5,5.2-13.3,5.2-13.3s-3.4,0.8-5.2-0.1c-1.9,0.9-5.2,0.1-5.2,0.1S604.3,35.8,615,39.4z"/>
	<path fill="#0EA9D6" d="M620.6,28.9c0,0,2.5,6.9-5.6,9.6c-8.1-2.7-5.6-9.6-5.6-9.6H620.6L620.6,28.9z"/>
	<path fill="#D72631" d="M615,28.3h5.4c0,0-0.2-1-0.6-1.3c0,0-2.9,0.4-4.8-0.2c-2,0.7-4.8,0.2-4.8,0.2c-0.3,0.3-0.6,1.3-0.6,1.3H615
		z"/>
	<text transform="matrix(1 0 0 1 611.859 34.5985)" fill="#FFFFFF" font-family="'HelveticaNeue-Bold'" font-size="6.0064">85</text>
</g>
<text transform="matrix(1 0 0 1 471.3774 308.2584)" fill="#877C6C" font-family="'HelveticaNeue-Bold'" font-size="6.8936">ALBUQUERQUE</text>
<path fill="none" stroke="#F4D8B3" stroke-width="4" stroke-miterlimit="10" d="M54.1,448.2L162.9,407l112.7-31.3l58.6-10.9
	l72.5-44.7c6.5-3,5.2-3,14.3-2c9.1,1,17,2.5,25.5,1.5c8.4-1,7-2.5,24.8,0.5c6,1.5,12.9-2.6,12.9-2.6s15.9,5.1,28.8,3.6l81.4,39.7
	c0,0,12.9,4,28.8,4c15.9,0,29.3-4,31.3-9.4"/>
<g>
	<path fill="#FFFFFF" d="M544,342.9c10.7-3.5,5.2-13.3,5.2-13.3s-3.4,0.8-5.2-0.1c-1.9,0.9-5.2,0.1-5.2,0.1S533.3,339.4,544,342.9z"
		/>
	<path fill="#0EA9D6" d="M549.6,332.4c0,0,2.5,6.9-5.6,9.6c-8.1-2.7-5.6-9.6-5.6-9.6H549.6L549.6,332.4z"/>
	<path fill="#D72631" d="M544,331.9h5.4c0,0-0.2-1-0.6-1.3c0,0-2.9,0.4-4.8-0.2c-2,0.7-4.8,0.2-4.8,0.2c-0.3,0.3-0.6,1.3-0.6,1.3
		H544z"/>
	<text transform="matrix(1 0 0 1 540.6396 338.1228)" fill="#FFFFFF" font-family="'HelveticaNeue-Bold'" font-size="6.0064">40</text>
</g>
<g>
	<path fill="#FFFFFF" d="M386,339.1c10.7-3.5,5.2-13.3,5.2-13.3s-3.4,0.8-5.2-0.1c-1.9,0.9-5.2,0.1-5.2,0.1S375.3,335.6,386,339.1z"
		/>
	<path fill="#0EA9D6" d="M391.6,328.7c0,0,2.5,6.9-5.6,9.6c-8.1-2.7-5.6-9.6-5.6-9.6H391.6L391.6,328.7z"/>
	<path fill="#D72631" d="M386,328.1h5.4c0,0-0.2-1-0.6-1.3c0,0-2.9,0.4-4.8-0.2c-2,0.7-4.8,0.2-4.8,0.2c-0.3,0.3-0.6,1.3-0.6,1.3
		H386z"/>
	<text transform="matrix(1 0 0 1 382.6396 334.3658)" fill="#FFFFFF" font-family="'HelveticaNeue-Bold'" font-size="6.0064">40</text>
</g>
<g>
	<path fill="#B9252D" d="M461,132.3c0.7-1.1,1.1-2.4,1.1-3.8c0-3.9-3.2-7.2-7.2-7.2c-3.9,0-7.2,3.2-7.2,7.2c0,1.5,0.5,2.9,1.2,4
		l5.9,7.2L461,132.3L461,132.3z"/>
	<text transform="matrix(1 0 0 1 451.8127 131.4599)" fill="#FFFFFF" font-family="'Helvetica-Bold'" font-size="8.615">A</text>
</g>
<path fill="none" stroke="#F4D8B3" stroke-width="4" stroke-miterlimit="10" d="M459.4-5.7c6.5,9.9,6.5,10.9,6.5,34.3l5.5,22.3
	c0,0,55.6,36.3,61.1,44.2c9.9,2.5,22.6,6,22.6,6s12.7,1,23.1,5.5c10.4,4.5,24.8,16.4,31.8,8.9c7-7.4,10.4-6,13.4-4
	c3,2,19.4,0.5,31.3-4.5"/>
<g>
	<path fill="#FFFFFF" d="M475.3,59.4c10.7-3.5,5.2-13.3,5.2-13.3s-3.4,0.8-5.2-0.1c-1.9,0.9-5.2,0.1-5.2,0.1S464.7,55.8,475.3,59.4z
		"/>
	<path fill="#0EA9D6" d="M480.9,48.9c0,0,2.5,6.9-5.6,9.6c-8.1-2.7-5.6-9.6-5.6-9.6H480.9L480.9,48.9z"/>
	<path fill="#D72631" d="M475.3,48.3h5.4c0,0-0.2-1-0.6-1.3c0,0-2.9,0.4-4.8-0.2c-2,0.7-4.8,0.2-4.8,0.2c-0.3,0.3-0.6,1.3-0.6,1.3
		H475.3z"/>
	<text transform="matrix(1 0 0 1 470.3183 54.5983)" fill="#FFFFFF" font-family="'HelveticaNeue-Bold'" font-size="6.0064">550</text>
</g>
</svg>
