<?xml version="1.0" encoding="utf-8"?>
<!-- Generator: Adobe Illustrator 18.1.0, SVG Export Plug-In . SVG Version: 6.00 Build 0)  -->
<svg version="1.1" id="map" xmlns="http://www.w3.org/2000/svg" xmlns:xlink="http://www.w3.org/1999/xlink" x="0px" y="0px"
	 viewBox="193 18.6 940 570" enable-background="new 193 18.6 940 570" xml:space="preserve">
<g id="greenery">
</g>
<g id="smallroads">
</g>
<g id="sign">
</g>
<g id="land">
	<path fill="#F6F0EF" d="M190,14.6v574.1h946.7l0.3-573.9c0,0,0,0,0,0L190,14.6z"/>
</g>
<polygon fill="#DEECD2" points="271.7,548.4 267.6,541.9 291.9,529.7 298.8,543.8 289.6,558.2 "/>
<polygon fill="#DEECD2" points="334.5,520.6 329.6,544.9 347.9,567 401.1,564.7 404.9,549.1 "/>
<path fill="#DEECD2" d="M743.1,401l2.3,17.9c0,0,12.2,7.6,13.3,6.9c1.1-0.8,18.3-10.7,18.3-10.7l-11.4-27l-5.7,23.6L743.1,401z"/>
<path fill="#DEECD2" d="M1031.6,290.8l3,19.8l-33,17.4c0,0,3.8,17.5,2.7,17.5s-14.5,0.8-14.5,0.8l29.6-25.4l2.3-28.9L1031.6,290.8z"
	/>
<polygon fill="#F4E6D7" points="807,195 814.3,213 814.3,293.9 818.9,316.3 818.9,375.8 836.3,402.8 836.3,495.8 826.4,510.3 
	827.1,589.2 831.7,589.2 831,511.7 840.9,497.2 840.9,401.4 823.4,374.5 823.4,316.1 818.8,293.6 818.8,212.2 811.6,194.1 
	821.5,12.4 816.9,12.5 807,194.6 "/>
<polygon fill="#F4E6D7" points="800.4,591.2 824.7,546.3 830.8,267.6 826.2,267.5 820.1,545.1 795.2,591.2 "/>
<polygon fill="#F4E6D7" points="910.9,363.5 881.4,341.8 702.2,338.6 702.3,334 882.9,337.3 913.6,359.8 "/>
<polygon fill="#F4E6D7" points="1137,120.4 1090.2,140.5 1090.2,192.8 1063.6,192.8 1063.6,134.7 1091.6,84.6 1100.1,19.8 
	1095.6,18.9 1087.3,83 1059,133.5 1059,197.4 1094.8,197.4 1094.8,142.7 1137,124.1 "/>
<polygon fill="#F4E6D7" points="1137,145.4 1020.1,150.9 1020.3,155.5 1137,149.9 "/>
<polygon fill="#F4E6D7" points="1137,217.4 1129.7,215.2 1120.8,200.1 1032.8,150.7 1030.5,154.7 1117.5,203.5 1126.5,218.6 
	1137,221.7 "/>
<polygon fill="#F4E6D7" points="1033.2,311.3 1020.2,367.9 1044.3,591.2 1049,591.2 1024.8,367.3 1037.8,311.1 1030.9,265.8 
	1022.5,212.8 1018,213.5 1026.4,266.5 "/>
<path fill="#F4E6D7" d="M1016,591.2l24-83.6l94-214.6l0.3-2.1l4.2-43.4c0.1-1.2-0.8-2.3-2-2.5l0,0c-1.2-0.1-2.3,0.8-2.5,2l-4.3,44.3
	c0,0.3-0.1,0.6-0.3,0.9l-93.7,214.1l-24.4,85H1016z"/>
<polygon fill="#F4E6D7" points="1009,272.6 1014.5,213 1019.1,213.4 1014.1,267.9 1133.6,271.4 1133.7,275.9 "/>
<polygon fill="#F4E6D7" points="1108.6,308.4 1035.5,308.4 1035.5,303.8 1104.6,303.8 1110.8,257.4 1065.2,214.8 1068.3,211.5 
	1115.7,255.6 "/>
<polygon fill="#F4E6D7" points="923.9,457 881.3,457 824.5,412.4 838.4,404.4 838.9,399.9 826.3,408 882.9,452.4 923.9,452.4 "/>
<path fill="#F4E6D7" d="M875.1,593.5c1.2,0,2.2-1,2.3-2.2l3.3-138l4.6-173.4V255h-4.6v23.2l-4.6,173.4l-3.3,139.6
	C872.8,592.5,873.8,593.5,875.1,593.5L875.1,593.5z"/>
<polygon fill="#F4E6D7" points="957.9,135.9 933.3,116.9 802.6,105 727.7,118.4 726.9,113.9 802.6,100.4 803,100.5 935.1,112.5 
	960.7,132.3 "/>
<polygon fill="#F4E6D7" points="357.8,76.9 190,70.7 190,75.3 357,81.4 411.1,99.9 412.6,95.6 "/>
<polygon fill="#F4D8B3" points="698.6,360 693.6,360 700,335.2 706.2,297.6 710.9,297.6 705.2,336.1 "/>
<polygon fill="#F4E6D7" points="307.9,135.9 303.4,135.1 320.1,20.8 324.6,21.6 "/>
<polygon fill="#F4E6D7" points="977.1,148.6 960.3,131.9 768.1,129 738.8,82.9 417.7,82.9 387.3,136.3 303.9,133.2 296.2,159.8 
	190,159.8 190,164.3 299.7,164.4 307.3,137.9 389.9,141 420.4,87.5 736.3,87.5 765.6,133.5 958.4,136.4 975,153 1002.9,155.5 
	1003.3,150.9 "/>
<polygon fill="#F4E6D7" points="292.7,591.2 273.7,468.3 295.6,404.9 295.7,404.5 300.2,162.1 295.7,162 291.2,403.7 269,467.8 
	288.1,591.2 "/>
<path fill="#F4E6D7" d="M444.1,540.2l-5.8-68.1l1.4-0.7c7.6-3.9,16.8-8.4,20.9-9.7c0.5-5.9-1.7-33.9-4.1-59.5l-18.1-4.6v-68.3h4.6
	V394l17.7,4.5l0.2,1.6c0,0.2,1.5,15.4,2.7,30.8c2.5,32,1.6,33,0.6,34.1c-0.4,0.5-1.1,0.8-1.7,0.8c-1.7,0.3-10.9,4.7-19.4,9l5.6,65.1
	L444.1,540.2z"/>
<polygon fill="#F4E6D7" points="532.5,470.3 462.3,465.8 462.6,461.2 528.1,465.4 533.6,341.3 538.1,341.5 "/>
<g id="roads">
	<polygon fill="#F4D8B3" points="1113.5,350.3 1123.2,263 995,171.7 997.4,167.8 1127.1,260 1117.9,349.2 	"/>
	<path fill="#F4D8B3" d="M1137,115.3L1137,115.3c-0.5-0.6-1.4-0.7-2.1-0.3l-86,51.4l-5.6,44.5h-20.8v-72.7l40-38.2V19.4h-4.6V98
		l-40,38.2v79.2h29.4l5.9-46.8l83-49.5c0.5-0.3,0.8-0.8,0.8-1.4V115.3z"/>
	<polygon fill="#F4D8B3" points="1005.4,167.6 1000.8,167.4 1007.7,19.3 1012.2,19.5 	"/>
	<polygon fill="#F4D8B3" points="994.9,169.8 869.8,164.4 772.2,160.2 748.3,120.3 736.1,120.1 736.1,115.5 750.9,115.8 
		774.9,155.9 870.2,159.8 995.3,165.2 	"/>
	<polygon fill="#F4D8B3" points="446.9,591.2 448.7,541.1 662.3,417.1 675.1,388 693.6,301.7 689.1,300.9 670.9,385.6 660,413.1 
		444.2,538.9 442.3,591.2 	"/>
	<polygon fill="#F4D8B3" points="1137,345.6 956.6,356.9 816.1,366.7 695,358.7 648,335.9 645.5,340.4 692.5,363.4 816.1,371.3 
		816.2,371.3 957,361.4 1137,350.3 	"/>
	<polygon fill="#F4D8B3" points="719.8,312.7 703.2,322.5 655.8,322.8 471.1,324 439.9,250 400.5,250 186.7,39.3 186.7,45.7 
		398.1,254 398.7,254.6 437,254.6 468,328.3 653.3,327.2 702.2,327.2 719.2,317.8 	"/>
	<path fill="#F4D8B3" d="M995,165.2l-1,0l-118.5,87.3l-84.9,40.1l-128.1,5c-0.8,0-1.4,0.6-1.6,1.3l-7.6,35.6
		c-0.2,0.8-0.9,1.4-1.7,1.3l-292.5-0.2L188,367.6v4.7l171.4-32.1l295.1,0.3c0.8,0,1.5-0.5,1.7-1.3l8-37.3l127.1-4.8l86.8-40.6
		l118.1-86.8l140.8-4.1v-4.6L995,165.2z"/>
	<polygon fill="#F4D8B3" points="775.7,589.2 714.7,411.3 716.3,353.9 740.6,173.4 730.2,14.3 725.7,14.6 736.1,172.7 711.8,353.2 
		710.2,412.1 770.8,589.2 	"/>
</g>
<polygon fill="#F4D8B3" points="771.5,368.5 723.3,377.4 676.2,372.1 676.2,367.3 723.9,372.8 757.5,366.5 "/>
<g id="marker">
	<path id="pin_31_" fill="#B9252D" d="M712.2,305c1.2-1.8,1.9-4,1.9-6.3c0-6.5-5.3-11.8-11.8-11.8s-11.8,5.3-11.8,11.8
		c0,2.5,0.8,4.7,2,6.6l9.8,11.8L712.2,305z"/>
	<text id="id" transform="matrix(1 0 0 1 696.9955 303.5291)" fill="#FFFFFF" font-family="'Helvetica-Bold'" font-size="14.268">A</text>
</g>
<g id="marker_30_">
	<path id="pin_30_" fill="#B9252D" d="M739.3,269.9c1.2-1.8,1.9-4,1.9-6.3c0-6.5-5.3-11.8-11.8-11.8s-11.8,5.3-11.8,11.8
		c0,2.5,0.8,4.7,2,6.6l9.8,11.8L739.3,269.9z"/>
	
		<text id="id_30_" transform="matrix(1 0 0 1 724.1234 268.4383)" fill="#FFFFFF" font-family="'Helvetica-Bold'" font-size="14.268">B</text>
</g>
<g id="marker_29_">
	<path id="pin_29_" fill="#B9252D" d="M746,339.3c1.2-1.8,1.9-4,1.9-6.3c0-6.5-5.3-11.8-11.8-11.8c-6.5,0-11.8,5.3-11.8,11.8
		c0,2.5,0.8,4.7,2,6.6l9.8,11.8L746,339.3z"/>
	
		<text id="id_29_" transform="matrix(1 0 0 1 730.8353 337.8899)" fill="#FFFFFF" font-family="'Helvetica-Bold'" font-size="14.268">C</text>
</g>
<g id="marker_28_">
	<path id="pin_28_" fill="#B9252D" d="M1001.2,185.4c1.2-1.8,1.9-4,1.9-6.3c0-6.5-5.3-11.8-11.8-11.8c-6.5,0-11.8,5.3-11.8,11.8
		c0,2.5,0.8,4.7,2,6.6l9.8,11.8L1001.2,185.4z"/>
	
		<text id="id_28_" transform="matrix(1 0 0 1 985.9694 183.9238)" fill="#FFFFFF" font-family="'Helvetica-Bold'" font-size="14.268">K</text>
</g>
<g id="marker_27_">
	<path id="pin_24_" fill="#B9252D" d="M1040,123.7c1.2-1.8,1.9-4,1.9-6.3c0-6.5-5.3-11.8-11.8-11.8c-6.5,0-11.8,5.3-11.8,11.8
		c0,2.5,0.8,4.7,2,6.6l9.8,11.8L1040,123.7z"/>
	
		<text id="id_27_" transform="matrix(1 0 0 1 1024.7878 122.2729)" fill="#FFFFFF" font-family="'Helvetica-Bold'" font-size="14.268">L</text>
</g>
<g id="marker_23_">
	<path id="pin_23_" fill="#B9252D" d="M1060.4,181.9c1.2-1.8,1.9-4,1.9-6.3c0-6.5-5.3-11.8-11.8-11.8c-6.5,0-11.8,5.3-11.8,11.8
		c0,2.5,0.8,4.7,2,6.6l9.8,11.8L1060.4,181.9z"/>
	
		<text id="id_23_" transform="matrix(1 0 0 1 1046.3679 180.499)" fill="#FFFFFF" font-family="'Helvetica-Bold'" font-size="14.268">J</text>
</g>
<g id="marker_22_">
	<path id="pin_22_" fill="#B9252D" d="M1019.9,203.6c1.2-1.8,1.9-4,1.9-6.3c0-6.5-5.3-11.8-11.8-11.8c-6.5,0-11.8,5.3-11.8,11.8
		c0,2.5,0.8,4.7,2,6.6l9.8,11.8L1019.9,203.6z"/>
	
		<text id="id_22_" transform="matrix(1 0 0 1 1004.697 202.1904)" fill="#FFFFFF" font-family="'Helvetica-Bold'" font-size="14.268">N</text>
</g>
<g id="marker_21_">
	<path id="pin_21_" fill="#B9252D" d="M1023.3,168.2c1.2-1.8,1.9-4,1.9-6.3c0-6.5-5.3-11.8-11.8-11.8c-6.5,0-11.8,5.3-11.8,11.8
		c0,2.5,0.8,4.7,2,6.6l9.8,11.8L1023.3,168.2z"/>
	
		<text id="id_21_" transform="matrix(1 0 0 1 1006.9802 167.9399)" fill="#FFFFFF" font-family="'Helvetica-Bold'" font-size="14.268">M</text>
</g>
<g id="marker_20_">
	<path id="pin_20_" fill="#B9252D" d="M709.5,270.4c1.2-1.8,1.9-4,1.9-6.3c0-6.5-5.3-11.8-11.8-11.8c-6.5,0-11.8,5.3-11.8,11.8
		c0,2.5,0.8,4.7,2,6.6l9.8,11.8L709.5,270.4z"/>
	
		<text id="id_20_" transform="matrix(1 0 0 1 694.2426 268.9744)" fill="#FFFFFF" font-family="'Helvetica-Bold'" font-size="14.268">G</text>
</g>
<g id="marker_19_">
	<path id="pin_6_" fill="#B9252D" d="M683.4,300.6c1.2-1.8,1.9-4,1.9-6.3c0-6.5-5.3-11.8-11.8-11.8c-6.5,0-11.8,5.3-11.8,11.8
		c0,2.5,0.8,4.7,2,6.6l9.8,11.8L683.4,300.6z"/>
	
		<text id="id_19_" transform="matrix(1 0 0 1 668.2133 299.1219)" fill="#FFFFFF" font-family="'Helvetica-Bold'" font-size="14.268">F</text>
</g>
<g id="marker_7_">
	<path id="pin_8_" fill="#B9252D" d="M658,309.8c1.2-1.8,1.9-4,1.9-6.3c0-6.5-5.3-11.8-11.8-11.8c-6.5,0-11.8,5.3-11.8,11.8
		c0,2.5,0.8,4.7,2,6.6L648,322L658,309.8z"/>
	<text id="id_7_" transform="matrix(1 0 0 1 646.182 308.3953)" fill="#FFFFFF" font-family="'Helvetica-Bold'" font-size="14.268">I</text>
</g>
<g id="marker_6_">
	<path id="pin_7_" fill="#B9252D" d="M703.4,365.3c1.2-1.8,1.9-4,1.9-6.3c0-6.5-5.3-11.8-11.8-11.8c-6.5,0-11.8,5.3-11.8,11.8
		c0,2.5,0.8,4.7,2,6.6l9.8,11.8L703.4,365.3z"/>
	
		<text id="id_6_" transform="matrix(1 0 0 1 688.1527 363.8528)" fill="#FFFFFF" font-family="'Helvetica-Bold'" font-size="14.268">H</text>
</g>
<g id="marker_5_">
	<path id="pin_5_" fill="#B9252D" d="M719.2,385c1.2-1.8,1.9-4,1.9-6.3c0-6.5-5.3-11.8-11.8-11.8c-6.5,0-11.8,5.3-11.8,11.8
		c0,2.5,0.8,4.7,2,6.6l9.8,11.8L719.2,385z"/>
	
		<text id="id_5_" transform="matrix(1 0 0 1 703.9457 383.5559)" fill="#FFFFFF" font-family="'Helvetica-Bold'" font-size="14.268">D</text>
</g>
<g id="marker_13_">
	<path id="pin_14_" fill="#B9252D" d="M834.4,166.8c1.2-1.8,1.9-4,1.9-6.3c0-6.5-5.3-11.8-11.8-11.8c-6.5,0-11.8,5.3-11.8,11.8
		c0,2.5,0.8,4.7,2,6.6l9.8,11.8L834.4,166.8z"/>
	
		<text id="id_13_" transform="matrix(1 0 0 1 819.229 165.3617)" fill="#FFFFFF" font-family="'Helvetica-Bold'" font-size="14.268">P</text>
</g>
<g>
	<path fill="#FFFFFF" d="M783.4,289.5c17.7-5.9,8.7-22,8.7-22s-5.6,1.2-8.7-0.3h0c-3,1.5-8.7,0.3-8.7,0.3S765.8,283.7,783.4,289.5
		L783.4,289.5z"/>
	<path fill="#0EA9D6" d="M792.6,272.2c0,0,4.2,11.4-9.2,15.9c-13.4-4.5-9.2-15.9-9.2-15.9H792.6z"/>
	<path fill="#D72631" d="M783.4,271.3h8.9c0,0-0.4-1.6-0.9-2.2c0,0-4.7,0.7-8-0.4c-3.3,1.1-8,0.4-8,0.4c-0.5,0.6-0.9,2.2-0.9,2.2
		H783.4z"/>
	<text transform="matrix(1 0 0 1 777.6202 281.6448)" fill="#FFFFFF" font-family="'HelveticaNeue-Bold'" font-size="9.9473">44</text>
</g>
<g>
	<path fill="#FFFFFF" d="M808.2,378.9c17.7-5.9,8.7-22,8.7-22s-5.6,1.2-8.7-0.3h0c-3,1.5-8.7,0.3-8.7,0.3S790.6,373,808.2,378.9
		L808.2,378.9z"/>
	<path fill="#0EA9D6" d="M817.4,361.6c0,0,4.2,11.4-9.2,15.9c-13.4-4.5-9.2-15.9-9.2-15.9H817.4z"/>
	<path fill="#D72631" d="M808.2,360.6h8.9c0,0-0.4-1.6-0.9-2.2c0,0-4.7,0.7-8-0.4c-3.3,1.1-8,0.4-8,0.4c-0.5,0.6-0.9,2.2-0.9,2.2
		H808.2z"/>
	<text transform="matrix(1 0 0 1 802.4229 370.9714)" fill="#FFFFFF" font-family="'HelveticaNeue-Bold'" font-size="9.9473">40</text>
</g>
<g>
	<path fill="#FFFFFF" d="M644.4,439c17.7-5.9,8.7-22,8.7-22s-5.6,1.2-8.7-0.3h0c-3,1.5-8.7,0.3-8.7,0.3S626.7,433.2,644.4,439
		L644.4,439z"/>
	<path fill="#0EA9D6" d="M653.6,421.7c0,0,4.2,11.4-9.2,15.9c-13.4-4.5-9.2-15.9-9.2-15.9H653.6z"/>
	<path fill="#D72631" d="M644.4,420.8h8.9c0,0-0.4-1.6-0.9-2.2c0,0-4.7,0.7-8-0.4c-3.3,1.1-8,0.4-8,0.4c-0.5,0.6-0.9,2.2-0.9,2.2
		H644.4z"/>
	<text transform="matrix(1 0 0 1 638.5927 431.1468)" fill="#FFFFFF" font-family="'HelveticaNeue-Bold'" font-size="9.9473">44</text>
</g>
<g>
	<path fill="#FFFFFF" d="M730.8,227.4c17.7-5.9,8.7-22,8.7-22s-5.6,1.2-8.7-0.3h0c-3,1.5-8.7,0.3-8.7,0.3S713.1,221.6,730.8,227.4
		L730.8,227.4z"/>
	<path fill="#0EA9D6" d="M740,210.1c0,0,4.2,11.4-9.2,15.9c-13.4-4.5-9.2-15.9-9.2-15.9H740z"/>
	<path fill="#D72631" d="M730.8,209.2h8.9c0,0-0.4-1.6-0.9-2.2c0,0-4.7,0.7-8-0.4c-3.3,1.1-8,0.4-8,0.4c-0.5,0.6-0.9,2.2-0.9,2.2
		H730.8z"/>
	<text transform="matrix(1 0 0 1 724.9803 219.5555)" fill="#FFFFFF" font-family="'HelveticaNeue-Bold'" font-size="9.9473">35</text>
</g>
<text transform="matrix(1 0 0 1 668.1322 247.9949)" fill="#877C6C" font-family="'HelveticaNeue-Bold'" font-size="11.4168">OKLAHOMA CITY</text>
<text transform="matrix(1 0 0 1 960.4782 157.5571)" fill="#877C6C" font-family="'HelveticaNeue-Bold'" font-size="11.4168">TULSA</text>
<text transform="matrix(1 0 0 1 819.229 190.1067)" fill="#877C6C" font-family="'HelveticaNeue-Bold'" font-size="11.4168">STILLWATER</text>
<g id="marker_4_">
	<path id="pin_4_" fill="#B9252D" d="M1045.6,204.8c1.2-1.8,1.9-4,1.9-6.3c0-6.5-5.3-11.8-11.8-11.8c-6.5,0-11.8,5.3-11.8,11.8
		c0,2.5,0.8,4.7,2,6.6l9.8,11.8L1045.6,204.8z"/>
	
		<text id="id_4_" transform="matrix(1 0 0 1 1030.3845 203.332)" fill="#FFFFFF" font-family="'Helvetica-Bold'" font-size="14.268">O</text>
</g>
<g id="marker_3_">
	<path id="pin_3_" fill="#B9252D" d="M664.4,363.3c1.2-1.8,1.9-4,1.9-6.3c0-6.5-5.3-11.8-11.8-11.8c-6.5,0-11.8,5.3-11.8,11.8
		c0,2.5,0.8,4.7,2,6.6l9.8,11.8L664.4,363.3z"/>
	
		<text id="id_3_" transform="matrix(1 0 0 1 649.1449 361.8645)" fill="#FFFFFF" font-family="'Helvetica-Bold'" font-size="14.268">E</text>
</g>
<g id="marker_1_">
	<path id="pin_1_" fill="#B9252D" d="M887.1,344.4c1.2-1.8,1.9-4,1.9-6.3c0-6.5-5.3-11.8-11.8-11.8c-6.5,0-11.8,5.3-11.8,11.8
		c0,2.5,0.8,4.7,2,6.6l9.8,11.8L887.1,344.4z"/>
	
		<text id="id_1_" transform="matrix(1 0 0 1 870.8881 342.9186)" fill="#FFFFFF" font-family="'Helvetica-Bold'" font-size="14.268">Q</text>
</g>
</svg>
