<svg xmlns="http://www.w3.org/2000/svg" viewBox="351.6 15.9 930 500" enable-background="new 351.6 15.9 930 500"><g><path fill="#A2DDF5" d="M348.6-50.1h934v570h-934z"/><path fill="#F6F0EF" d="M857-168.6c11.2 21.8 22.3 43.7 33.5 65.5 2.8 5.6 5.8 11.6 5 17.8-.5 4.3-2.8 8.2-4.7 12C879.6-51 878.3-24 887.1-.7c-7.4-.8-10-10.1-10.7-17.5-2.9-30.7-3.7-61.5-2.3-92.3-6.3 9.6-11.1 20.2-14.2 31.3-6.4-5.7-6.4-15.6-7.1-24.1-.7-8.6-4.5-18.8-13.1-20 6.8 44.1 24.1 85.7 41.3 126.9 21.1 50.3 42.1 100.7 63.2 151 4.1 9.7 8.2 19.5 13.4 28.6 5.5 9.5 12.2 18.2 17.6 27.7 19.4 34 21 74.8 22.2 113.9.6 19.4 1.2 38.9-1.7 58.1-6.1 40.2-27.3 79.1-21.3 119.4.6 3.9 1.3 8.1-.9 11.4-2.4 3.5-7.1 4.2-11.3 4.6-16.1 1.4-32.3 2.2-48.5 2.3l-205.5.6c-6.9-8.4-14-16.9-23.3-22.4s-21.6-7.4-30.9-2c-10-16.2-16.3-34.6-18.3-53.5-1.7-16.2-.3-33.1-5.9-48.5-3.8-10.6-10.9-20-13.5-30.9-2.8-11.4-.3-23.9 6.4-33.5-10.2 4.7-20.3 9.4-30.5 14.1-12.1-30.5-10.6-66 4.1-95.3-10.9 4.4-22.9 6-34.6 4.8-5.9 7.4 5.7 20.2-.8 27.1-4.9 5.3-13.6.3-18.7-4.9-25.7-26.2-46.8-57-62-90.4-1.2-2.7-2.4-5.6-2.1-8.5.3-2.9 2.1-5.4 2.6-8.2 1.3-7-4.8-13-9.8-18.1s-9.5-13.3-5.1-18.9c1.9-2.5 5.1-3.6 7.5-5.6 7.6-6.3 5.9-18.2 9.5-27.3 4.4-11.1 16.3-17.1 24.1-26.2s8.1-27.2-3.6-29.4c.3 6.2.6 12.4.9 18.5-3.4-.8-6.8-1.6-10.3-2.4 1.6-17-8.6-34.6-24.3-41.5-1.4-.6-2.9-1.2-4.4-1-3.6.5-5.3 5.2-4.2 8.7s3.9 6.1 6.3 8.9c9.7 11.4 12.5 28.3 7.1 42.3-.8 2.1-1.9 4.2-3.8 5.3-3 1.7-6.7.3-9.8-1.3-22.6-12-36.6-38.5-33.8-63.9.8-7.3 2.8-14.4 4.8-21.4C436.1-18 440-31.8 444-45.6c6.6-23.3 13.3-46.7 14.7-70.9 1-17.9-.8-36.8 6.9-53 28.5-3.7 57.1-7.4 85.6-11L857-168.6z"/><path fill="#A2DDF5" d="M795.7 238.7c5.1-.9 10-3 13.7-6.5 5.2-4.8 7.9-11.7 11.2-18.1 3.3-6.3 8-12.7 14.9-14.4 10.8-2.7 20.7 6.9 26 16.6 6.7 12.1 10.3 25.7 12.4 39.4 1 6.5 1.8 13.2.3 19.7-2 8.6-7.7 15.8-13.3 22.6-2.9 3.6-5.9 7.2-9.8 9.7-11.5 7.4-27.6 2.3-36.9-7.7-9.3-10-13.3-23.6-17.1-36.7-.7 3-4.5 4.4-7.4 3.5s-5.2-3.3-7.1-5.6c-3.5-4.3-6.8-10.2-4.4-15.3 3-5.8 11.1-6 17.5-7.2z"/></g><path fill="#DEECD2" d="M717.6 80.7c-1.8-1.3-3.9-2.4-5.2-4.3-1.3-1.8-1.5-4.8.4-6.1 5.1 2.7 12.2.9 15.4-3.9 1.3-2 2-4.3 3.3-6.2 3.8-5.6 12.1-6.8 18.3-4s10.5 8.6 13.4 14.7c3 6.1 4.9 12.7 7.9 18.7 1.2 2.3 2.5 4.7 2.7 7.3.5 9-12.6 13.3-14 22.1-1.1 6.7 4.8 12.1 9.1 17.3 3.8 4.6 6.7 10.6 5.5 16.4-1.2 5.8-8 10.6-13.3 7.8 1.1-5.9 1.4-12 .8-18-.9-9.1-5-19.2-13.7-21.6-7.2-2-16.5 1.5-21.3-4.3-2.7-3.3-2.4-8.2-4.7-11.8-2-3-5.6-4.4-8.9-5.9-3.3-1.4-6.8-3.3-8.2-6.7-1.4-3.3 1-8.2 4.6-7.7 1.5.2 2.8 1.3 3.8 2.5 1.9 2.2 3.3 4.9 5.4 7s5.2 3.5 8 2.4c-.9-6.1-4.3-12.1-9.3-15.7zM776.4 102.1c-.9 4.3-2.6 8.5-4.9 12.3-1 1.6-2 3.5-1.3 5.2.8 1.8 3.3 2.1 5.3 2.1 7.9.1 15.8.1 23.7.2 1.4 0 2.8 0 4.1-.4 2.3-.7 4.1-2.5 5.8-4.3.6-.6 1.3-1.4 1.2-2.3 0-.7-.6-1.4-1.1-1.9l-7.2-7.8c-1-1-1.9-2.1-3.2-2.7-1.4-.6-2.9-.6-4.5-.6-5.9 0-11.9.1-17.9.2zM748.6 14.1c.7 2.3 1 4.7 1.1 7.2-5.2-1-10.3-2.1-15.5-3.1-2.4-.5-5.5-.6-6.4 1.6-.4.9-.3 1.9-.1 2.8.4 3.4.9 6.7 1.3 10.1.1.5.1 1.1-.1 1.6-.7 1.8-3.5.9-5-.3-3.5-2.8-7.1-5.6-9.8-9.1s-4.8-7.8-4.8-12.3c0-.6 0-1.2.3-1.7.4-.8 1.3-1.2 2.1-1.4 4.6-.9 9.6 3.7 13.6 1.3 2.1-1.3 2.8-3.9 4.4-5.8 2.8-3.3 8.1-3.5 11.8-1.3 3.6 2.2 5.9 6.2 7.1 10.4zM572 62.1c1.7-.5 3.4-.9 5.1-1 1.8-.2 3.7-.1 5.2.8s2.7 2.7 2.2 4.5-2.9 2.8-4.2 1.6c-.7 2.6-1.5 5.1-2.2 7.7-3.9.4-6.9-3.1-9.2-6.3-.6-.9-1.2-1.8-1.3-2.9 0-2.3 2.3-3.8 4.4-4.4zM570.8 189.5c-.5.2-1 .4-1.4.7.5 4.6-3.3 9-2.6 13.6.3 2.4 1.8 4.4 2.9 6.5 1.1 2.1 1.7 4.8.5 6.9-1.4 2.2-4.4 2.6-6.9 2.8-5.3.4-10.6.8-15.8 1.3-7 .6-14.4 1-20.6-2.2-2.2-4.5-4.5-9.3-4.5-14.3 0-6.2 3.2-11.8 7-16.7 1.7-2.2 3.5-4.3 5.7-5.9 5-3.5 11.6-3.8 17.7-3.7 4.1.1 8.1.3 12.1.6 1.9.2 4.1.5 5.2 2 1.7 2.2.1 5.6.7 8.4zM619.4 294.9c-1.6 2.2-2.4 4.9-4 7.1-4.4 6.2-14.9 6.3-19.5.4 3-11.8 6-23.5 9-35.3.6-2.4 1.3-5 3.1-6.8 2.4-2.4 6.2-2.6 9.6-2.7 11.5-.3 23-.7 34.5-1 3.6-.1 7.4-.2 10.8 1.1 3.4 1.3 6.4 4.3 6.6 7.9 6.7-.4 12.9 4.4 16.2 10.2 3.3 5.9 4.3 12.7 5.2 19.4.4 2.7.7 5.7-1 7.9-1.8 2.3-5.2 2.5-8.2 2.6-2.9 0-6 0-8.5-1.6-2.3-1.5-3.5-4.1-5.2-6.2-6.4-8.2-18.3-9.1-28.8-9.2-7.1-.1-15.5.4-19.8 6.2zM755.8 357.1c-.9 3.3-4.2 5.4-7.5 6.2-5.2 1.3-11 .2-15.5-2.7-4.6-2.9-8-7.4-9.9-12.4-.9-2.3-1.4-4.9-1.1-7.3.4-2.5 1.8-4.9 4-6 .8-.4 1.7-.6 2.6-.5.6.1 1.1.3 1.7.5 6.2 2.6 12.1 6.2 17.8 9.8 2.2 1.4 4.5 2.9 6.1 5 1.5 2.1 2.5 4.9 1.8 7.4zM691 373.1c.4 1.3.7 2.8-.1 3.9-.5.7-1.4 1-2.1 1.4-2.6 1.6-3.6 4.7-4.1 7.7-.5 3-.5 6.1-1.9 8.7-1.6 3.1-4.8 5.2-8.1 6.2s-6.9 1.1-10.4 1.2c-1 0-2.1 0-2.9-.5-.7-.5-1.1-1.2-1.6-1.9-1.6-2.2-4.3-3.2-6.3-5.1-3.6-3.4-4.2-8.8-4.6-13.7-.2-2-.3-4.2.7-5.9 1-1.8 3-2.8 4.9-3.5 9.6-4 20.2-5.4 30.5-4.1 1.2.1 2.4.3 3.3 1 1.6.9 2.2 2.8 2.7 4.6zM804.6 370.2c2.2-3.9 7.5-4.6 12-4.4 4.1.2 8.7 1.1 10.8 4.6 1.6 2.6 1.3 5.9.9 8.9-.7 5.6-1.4 11.3-2 16.9-2.3 1-4.9.3-7.2-.7-7.3-3.2-13-9.9-14.9-17.6-.6-2.5-.9-5.4.4-7.7zM907.6 279.6c-8-.8-15.4-6.1-18.6-13.5-1.5-3.5-2.2-7.3-2.6-11.1-.2-2.2-.3-4.5.7-6.5 1.2-2.3 3.6-3.7 6-4.7 1.3-.5 2.6-1 4-.9s2.8 1 3.2 2.3-.8 3-2.2 2.8c-.7 4.2 2.9 8 6.7 10 1.2.6 2.5 1.2 3.3 2.2.7.9.9 2.1 1.1 3.3.6 4.1 1.3 8.2 1.9 12.3.2 1.1.3 2.4-.5 3.2-.7.6-1.9.7-3 .6zM912.8 323.8c1.1-1.4 2.6-2.2 4.2-3 6.8-3.4 14.2-5.6 21.8-6.2-1.7 6.3 1.4 12.8 5.4 18 3.9 5.2 8.8 9.7 11.4 15.7 2.3 5.3 2.5 11.3 2.8 17.1.3 8.8.2 18.8-6.2 24.9-2.7 2.6-6.4 4.3-8.2 7.5-1.8 3.2-1.5 7.2-2.7 10.7-1.7 5.2-6.2 8.7-10.2 12.4-9 8.4-15.7 19.2-19.5 30.9-2 6.2-3.2 12.7-6.9 18-3.2 4.5-8 7.7-12.3 11.2-6.7 5.6-12.4 12.3-17.1 19.8-4.7 7.4-8.6 15.8-15.8 20.8-6 4.1-13.5 5.3-20.8 6.4-18.1 2.7-36.1 5.4-54.3 6.7-11.6.8-24.1.8-33.9-5.6-4.9-3.2-8.8-7.8-13.3-11.5-12.5-10.1-29.8-12.9-42.1-23.3-8.8-7.3-14.3-17.8-19.5-28-3.8-7.4-7.7-16.4-3.7-23.7 1.9-3.4 5.2-5.8 8.5-8.1 10.9-7.6 22.1-15.3 34.8-19.5 10.6-3.5 21.8-4.4 32.9-5.3 9.6-.7 19.1-1.5 28.7-2.2 9.9-.8 19.8-1.5 29.6-.2 4.4.6 9.1 1.8 12.2 5 3.5 3.7 4.2 9.3 4.6 14.4.6 6.5 1.2 13 1.7 19.5.6 7 1.7 14.9 7.2 19.2 6.8 5.4 18.6 1.3 20.7-7.1 1.4-5.7-1.2-12 .8-17.6 2.1-6.1 9-9.8 10.5-16 1.8-7.4-4.8-14.1-11.1-18.5-6.8-4.7-13.9-8.9-21.3-12.5-2.6-1.3-5.3-2.5-7.1-4.7-1.8-2.2-2.5-5.7-.7-7.9 2.5-3.1 7.5-1.9 10.9-3.9 2.9-1.7 4.1-5.3 6.6-7.6 1.9-1.7 4.5-2.6 7.1-3.2 8.5-2.2 17.2-3.2 26-3 7.2.2 14.7 1.1 21.2-2 10.7-5.1 13.9-18.7 15.2-30.6.1-2.4.4-5 1.9-7zM871.4 116.7c-3.4 3.7-9.3 3.4-14.3 2.8-4.2-.5-8.6-1.1-11.8-3.8-2.3-2-3.6-4.8-4.8-7.6-4-9.7-6.7-20.4-4.4-30.7s10.4-19.7 20.9-20.8c1.9-.2 3.9-.1 5.8.6 5.5 2.1 7.7 10.1 3.9 14.6-.9 3-1.9 6-1.9 9.1 0 3.1 1 6.4 3.4 8.3 2.6 2.1 6.1 2.3 9.4 2.6.7.1 1.4.1 2 .5 1.4 1 .9 3.1.3 4.7-1.9 4.8-3.8 9.6-5.6 14.3-.8 2.1-1.5 4-2.9 5.4zM851.1-15.8c-.7 2.4-3.6 3.7-6.1 3.5-2.5-.2-4.8-1.5-7-2.9-2.9-1.8-5.7-3.8-7.9-6.4-3.4-4.1-4.7-9.8-3.6-15 .4-1.6 1-3.3 2.3-4.4 1-.8 2.3-1.2 3.2-2.2.8-1 1-2.4 1.2-3.6.5-5.1.6-10.3.1-15.4.8-1.6 3.1-2.1 4.8-1.5 1.7.6 3 2 4.3 3.3 3.8 4 7.9 8.6 8.1 14.1.1 1.2-.1 2.4-.6 3.4-.9 1.5-2.6 2.4-3.9 3.6-3.3 2.9-4.1 8.4-1.6 12.2 1.3 1.9 3.2 3.3 4.7 5 1.5 1.8 2.7 4.1 2 6.3zM816.5-168.4c1 .1 1.8.6 2.6 1.3 4.1 3.5 5.2 9.5 4.6 14.9-.6 5.4-2.6 10.5-3.6 15.9-.7 3.7-.9 7.5-1.1 11.2-.2 2.8-.2 6 1.8 7.9 1.6 1.5 4.2 2.1 5 4.1 1.3 3.1-2.7 5.7-6 6.7-13.8 4.4-27.8 8.8-41.7 13.2-.5.1-.9.3-1.4.3-1.6 0-2.8-1.8-2.6-3.3s1.2-2.9 2.4-4c3.1-2.6 7.1-3.8 10.7-5.4s7.4-4.1 8.5-8c1.1-3.8-.5-7.7-1.4-11.6-.9-3.8-1.2-7.7-.9-11.5.4-5.7 1.8-11.3 3.2-16.9.4-1.6.8-3.2 1.8-4.4 1-1.4 2.5-2.3 4-3.1 3.5-2 7-4.1 10.6-6.1 1.1-.7 2.3-1.3 3.5-1.2zM566.4-99.4c-.2-5.8 1.2-12.9 6.7-14.7 3.6-1.2 7.4.5 11.1 1.1 8.6 1.4 17.2-2.8 25.9-2.6 3.6.1 8.1 2.2 7.5 5.7-.4 2.1-2.5 3.4-3.7 5.1-2 2.8-1.8 6.6-1.2 10 1.6 8.5 5.2 16.4 7.4 24.8s3.1 17.6-.8 25.3c-2.3 4.7-6.2 8.5-10.1 12.1-4 3.7-8.1 7.4-13.2 9.6-5 2.1-11.1 2.5-15.7-.5-4.1-2.7-6.4-7.6-7.2-12.4s-.5-9.8-.6-14.7c-.1-16.4-5.6-32.4-6.1-48.8zM537.9-119.7c2.5-4.7 8.7-6.2 14-5.4 4.4.7 8.9 2.9 10.6 7 .4.9.6 1.9.5 3-.1 1.4-.8 2.7-1.4 4-1.7 3.9-2.5 8.9-6.5 10.5-2.5 1-5.3.1-7.7-1.1-3.4-1.7-6.6-3.9-8.7-7.2-1.9-3.1-2.5-7.4-.8-10.8zM497.1-157.9c-.8-4-1.7-8.4-.1-12.2 1.8-4.5 6.5-7.1 11-8.8 4.7-1.8 10.2-3.1 14.4-.5.5.4 1 .8 1.4 1.2 2.1 1.9 3.7 4.4 4.7 7.1 2.5 6.9.5 14.5-1.5 21.6-1.4 5-3.2 10.4-7.7 12.9-5.3 2.9-12.2.1-16-4.6-3.6-4.7-5-10.8-6.2-16.7zM467.7-158.9c1.5-5.8 3.8-11.9 8.8-15.3.9-.6 2.1-1.2 3.2-.9 1.5.3 2.3 1.9 2.9 3.4 7.9 20.3 7.8 43.1 3.4 64.5-.9 4.4-2 8.8-4.5 12.6-2.4 3.8-6.4 6.8-10.9 7-1.5.1-3.1-.2-4.3-1-2.7-1.8-3-5.6-3.1-8.9-.3-20.7-.7-41.5 4.5-61.4zM477.9-42c2.6.3 5.2.5 7.8.8 1.7.2 3.5.4 5 1.4 2.2 1.6 2.8 4.7 2 7.3-.8 2.6-2.7 4.7-4.7 6.4-5.1 1.9-10.3-2-14.3-5.6-2.3-2.1-4.9-5.3-3.4-8 1.3-2.5 4.8-2.5 7.6-2.3zM518 3.6c-.8-1.9.2-4.1 1.4-5.8 5.2-7.4 14.6-11.5 23.5-10.3 1 .1 2.1.4 3 1 .7.5 1.2 1.3 1.6 2 2 3.4 3 7.3 3 11.2-8.1 3.5-17 5.2-25.8 5-2.6 0-5.7-.7-6.7-3.1z"/><path stroke="#F4E6D7" stroke-width="4" stroke-miterlimit="10" fill="none" d="M462.8 57.9l-11.1-16.8 1.5-83L482-98.6l4.8-67.2M505.5 152.1l125 44.7 146.1-.8 73.5-8.8 90.2-39.9M961.9 485.8l-24.8.8-.8 30.3M590.6 10l9.6 8.7 35.1-4v-31.9M731.1-161.7l9.6.8 14.4 27.1-12.8 28M485.2-150.3l35.1 47.7 45.5 8.8 62.3-20.8 32.7-51.2M588.2-165.8l-28.8 99.9 5.6 43.1-35.9 32M563.4-53.9L605-17.2l-1.6 16M652.9-120.2L675.2-2l30.4 136.5 33.5 64.7 1.6 61.5 43.1 40.7 83.9 23.2 49.5 114.1M867.7 324.6l17.5-59.1-18.3-59.1-79.1-48.7-75.1-9.6M742.3-105.8l81-1.2"/><g stroke="#F4D8B3" stroke-width="4" stroke-miterlimit="10" fill="none"><path d="M972.3 452.3l-65.5-15.2-162.9-1.6-91.8-3.2-13.6-124.5-31.1-31.2-16.8-36.7-20-19.9-49.5-.8-24.7-105.4-26.4-3.2-5.6-59.9L502 25.9l30.3 8.8-11.2 51.9-24.7 27.2M490.8 30.7l-4-95.8 17.5-19.2-7.7-81.5M432.5 25.9h74.3c.8-3.2 2.4-30.3 2.4-30.3L584-167.1M511.5 28.7L590.6 10l44.7-27.2 38.3-14.4 51.1-72.6-1.6-36.8 9.6-27.9M684-45.9l-14.4-40.8 21.6-18.7M600.2-167.7l71 61.9h90.3M690.4-55.5l66.3-17.6-6.4-32.7M707.2-78.7l119.7-4M704.8-104.2l42.3 99.8 57.5 76.6 40.7 47.9 35.1 2.4 33.6 16M818.9-165.8l8 83.1L860.5-2l31.9 63.1 21.6 77.4 77.4 178.1-31.1 200.3M975.6 281.4l-8.9 47.9-1.6 71.9-22.4 4.8-15.2 44.7-4.8 66.2M771.2-219.2"/></g><g><path fill="#B9252D" d="M971.5 322.6c1.2-1.9 1.9-4.2 1.9-6.6 0-6.8-5.6-12.4-12.4-12.4-6.8 0-12.4 5.6-12.4 12.4 0 2.6.8 5 2.1 7l10.3 12.4 10.5-12.8z"/><text transform="translate(955.528 321.135)" fill="#fff" font-family="'Helvetica-Bold'" font-size="14.968">A</text></g><path fill="#fff" d="M778.6 449.7c22.2-7.4 10.9-27.7 10.9-27.7s-7.1 1.5-10.9-.3c-3.8 1.9-10.9.3-10.9.3s-11.4 20.4 10.9 27.7z"/><path fill="#0EA9D6" d="M790.2 428s5.2 14.4-11.6 20c-16.8-5.6-11.6-20-11.6-20h23.2z"/><path fill="#D72631" d="M778.6 426.8h11.2s-.5-2-1.1-2.7c0 0-6 .9-10.1-.5-4.1 1.4-10.1.5-10.1.5-.7.7-1.1 2.7-1.1 2.7h11.2z"/><text transform="translate(771.287 439.824)" fill="#fff" font-family="'HelveticaNeue-Bold'" font-size="12.523">75</text><path fill="#fff" d="M946.8 223.4c22.2-7.4 10.9-27.7 10.9-27.7s-7.1 1.5-10.9-.3c-3.8 1.9-10.9.3-10.9.3s-11.4 20.3 10.9 27.7z"/><path fill="#0EA9D6" d="M958.4 201.6s5.2 14.4-11.6 20c-16.8-5.6-11.6-20-11.6-20h23.2z"/><path fill="#D72631" d="M946.8 200.4H958s-.5-2-1.1-2.7c0 0-6 .9-10.1-.5-4.1 1.4-10.1.5-10.1.5-.7.7-1.1 2.7-1.1 2.7h11.2z"/><text transform="translate(939.479 213.494)" fill="#fff" font-family="'HelveticaNeue-Bold'" font-size="12.523">95</text><text transform="translate(852.083 358.686)" fill="#877C6C" font-family="'HelveticaNeue-Bold'" font-size="14.372">WEST PALM BEACH</text></svg>