<svg xmlns="http://www.w3.org/2000/svg" viewBox="193 18.6 940 570" enable-background="new 193 18.6 940 570"><path fill="#F6F0EF" d="M189.6 14.6H1133v618H189.6z"/><g stroke="#F4E6D7" stroke-width="4" stroke-miterlimit="10" fill="none"><path d="M489 157l7 149 33 8 11 19 37-74M186 266l560-6-106 61M634 263l2 55M640 329l-452 17M189 399l423 4M188 486l322 6 15-10 202 6 3-15 120-13 52 34 3-41-43-46-198-6M848 628l54-134 162 10M1065 632.6l1-266.6M641 377l256-14 63-16 68 15 94 10 11 71-69 3M901.7 130.3L896 377l16 44-10 26M905 635l36-249 12-13 6-66 81-96 5.7-70.7M970 129l7 190 14 2-3 79-14 8v89M998 501v131.6M695 405l-7 227.6M713 123l-14 89 4 87 13 54v49M656 139l-1 122M702 198l176 4 5-24 112-3 17 4M746 260l72-5"/></g><g stroke="#F4D8B3" stroke-width="4" stroke-miterlimit="10" fill="none"><path d="M636 632.6c-1-3.6 4-311.6 4-311.6l-50-53-7-252M188 153l399 3 153-40h164l83 14 60-26 40 5 34 12-5 18-102-1-24 4h-18M915 118l-17 15-80 122-115 123-58 33-20-3 6-21 28-1 5 15-52 2M891 117l7 16M818 255l88-7 76-42 74-62 76-128M1051 19l28 89M1071 16l-24 88 6 36M1064 138l2 228M1090 141l9 37 19 22 4 172M1121 121l12 1M1108 139l25 19"/></g><g><path fill="#B9252D" d="M659 375.9c1-1.6 1.6-3.5 1.6-5.5 0-5.7-4.6-10.4-10.4-10.4-5.7 0-10.4 4.6-10.4 10.4 0 2.2.7 4.2 1.8 5.8l8.6 10.4 8.8-10.7z"/><text transform="translate(645.704 374.668)" fill="#fff" font-family="'Helvetica-Bold'" font-size="12.497">A</text></g><g><path fill="#fff" d="M937 243c15.5-5.1 7.6-19.3 7.6-19.3s-4.9 1.1-7.6-.2c-2.7 1.3-7.6.2-7.6.2s-7.9 14.2 7.6 19.3z"/><path fill="#0EA9D6" d="M945.1 227.8s3.6 10-8.1 13.9c-11.7-3.9-8.1-13.9-8.1-13.9h16.2z"/><path fill="#D72631" d="M937 227h7.8s-.3-1.4-.8-1.9c0 0-4.2.6-7-.3-2.9 1-7 .3-7 .3-.5.5-.8 1.9-.8 1.9h7.8z"/><text transform="translate(931.927 236.088)" fill="#fff" font-family="'HelveticaNeue-Bold'" font-size="8.713">35</text><path fill="#fff" d="M637.8 458c15.5-5.1 7.6-19.3 7.6-19.3s-4.9 1.1-7.6-.2c-2.7 1.3-7.6.2-7.6.2s-7.9 14.2 7.6 19.3z"/><path fill="#0EA9D6" d="M645.9 442.8s3.6 10-8.1 13.9c-11.7-3.9-8.1-13.9-8.1-13.9h16.2z"/><path fill="#D72631" d="M637.8 442h7.8s-.3-1.4-.8-1.9c0 0-4.2.7-7-.3-2.9 1-7 .3-7 .3-.5.5-.8 1.9-.8 1.9h7.8z"/><text transform="translate(632.727 451.088)" fill="#fff" font-family="'HelveticaNeue-Bold'" font-size="8.713">35</text><path fill="#fff" d="M588.8 221c15.5-5.1 7.6-19.3 7.6-19.3s-4.9 1.1-7.6-.2c-2.7 1.3-7.6.2-7.6.2s-7.9 14.2 7.6 19.3z"/><path fill="#0EA9D6" d="M596.9 205.8s3.6 10-8.1 13.9c-11.7-3.9-8.1-13.9-8.1-13.9h16.2z"/><path fill="#D72631" d="M588.8 205h7.8s-.3-1.4-.8-1.9c0 0-4.2.6-7-.3-2.9 1-7 .3-7 .3-.5.5-.8 1.9-.8 1.9h7.8z"/><text transform="translate(581.305 214.088)" fill="#fff" font-family="'HelveticaNeue-Bold'" font-size="8.713">135</text><path fill="#fff" d="M640.8 359c15.5-5.1 7.6-19.3 7.6-19.3s-4.9 1.1-7.6-.2c-2.7 1.3-7.6.2-7.6.2s-7.9 14.2 7.6 19.3z"/><path fill="#0EA9D6" d="M648.9 343.8s3.6 10-8.1 13.9c-11.7-3.9-8.1-13.9-8.1-13.9h16.2z"/><path fill="#D72631" d="M640.8 343h7.8s-.3-1.4-.8-1.9c0 0-4.2.7-7-.3-2.9 1-7 .3-7 .3-.5.5-.8 1.9-.8 1.9h7.8z"/><text transform="translate(633.305 352.088)" fill="#fff" font-family="'HelveticaNeue-Bold'" font-size="8.713">135</text><path fill="#fff" d="M793 126c15.5-5.1 7.6-19.3 7.6-19.3s-4.9 1.1-7.6-.2c-2.7 1.3-7.6.2-7.6.2s-7.9 14.2 7.6 19.3z"/><path fill="#0EA9D6" d="M801.1 110.8s3.6 10-8.1 13.9c-11.7-3.9-8.1-13.9-8.1-13.9h16.2z"/><path fill="#D72631" d="M793 110h7.8s-.3-1.4-.8-1.9c0 0-4.2.7-7-.3-2.9 1-7 .3-7 .3-.5.5-.8 1.9-.8 1.9h7.8z"/><text transform="translate(787.927 119.088)" fill="#fff" font-family="'HelveticaNeue-Bold'" font-size="8.713">70</text><path fill="#fff" d="M1119.4 336c15.5-5.1 7.6-19.3 7.6-19.3s-4.9 1.1-7.6-.2c-2.7 1.3-7.6.2-7.6.2s-7.9 14.2 7.6 19.3z"/><path fill="#0EA9D6" d="M1127.5 320.8s3.6 10-8.1 13.9c-11.7-3.9-8.1-13.9-8.1-13.9h16.2z"/><path fill="#D72631" d="M1119.4 320h7.8s-.3-1.4-.8-1.9c0 0-4.2.7-7-.3-2.9 1-7 .3-7 .3-.5.5-.8 1.9-.8 1.9h7.8z"/><text transform="translate(1114.339 329.088)" fill="#fff" font-family="'HelveticaNeue-Bold'" font-size="8.713">49</text></g><text transform="translate(1044.325 111.522)" fill="#877C6C" font-family="'HelveticaNeue-Bold'" font-size="10">KANSAS CITY</text><text transform="translate(620.325 417.522)" fill="#877C6C" font-family="'HelveticaNeue-Bold'" font-size="10">WICHITA</text></svg>