<?xml version="1.0" encoding="utf-8"?>
<!-- Generator: Adobe Illustrator 18.0.0, SVG Export Plug-In . SVG Version: 6.00 Build 0)  -->
<!DOCTYPE svg PUBLIC "-//W3C//DTD SVG 1.1//EN" "http://www.w3.org/Graphics/SVG/1.1/DTD/svg11.dtd">
<svg version="1.1" xmlns="http://www.w3.org/2000/svg" xmlns:xlink="http://www.w3.org/1999/xlink" x="0px" y="0px" width="930px"
	 height="500px" viewBox="351.6 15.9 930 500" enable-background="new 351.6 15.9 930 500" xml:space="preserve">
<g id="map_1_">
	<rect x="352.8" y="12.2" fill="#F6F0EF" width="978.9" height="504.9"/>
	<polyline fill="none" stroke="#F4E6D7" stroke-width="4" stroke-miterlimit="10" points="546,138 553,288.4 586.3,296.5 
		597.4,315.7 634.8,241 	"/>
	<path fill="none" stroke="#F4E6D7" stroke-width="4" stroke-miterlimit="10" d="M393.6,246.4C531,245,668,244,805.4,242
		c-11.4,6.6-3.4,0,0,0c-36.4,21-71.4,41-107,61.6"/>
	<line fill="none" stroke="#F4E6D7" stroke-width="4" stroke-miterlimit="10" x1="692.3" y1="245" x2="694.3" y2="300.5"/>
	<path fill="none" stroke="#F4E6D7" stroke-width="4" stroke-miterlimit="10" d="M698.4,311.6C596,315,495,320,392.8,323.1"/>
	<path fill="none" stroke="#F4E6D7" stroke-width="4" stroke-miterlimit="10" d="M392.6,383.7C485,384,578,386,670.1,386.4"/>
	<path fill="none" stroke="#F4E6D7" stroke-width="4" stroke-miterlimit="10" d="M393.8,473c58.2,1,115.2,3,173.2,3c5-3,10-7,15-10
		c68,2,135,4,203,6c4-4,3-10,4-15c40-5,81-8,121-13c18,11,35,23,52.9,34.2c0.6-8.2-9.3-6.1,0,0C964,465,965,451,966,438c0-2-2-4-3-5
		c-11-10-19-22-30-32c-5-3-7-10-12-10c-66-4-132-4-198.4-6.7"/>
	<path fill="none" stroke="#F4E6D7" stroke-width="4" stroke-miterlimit="10" d="M945.5,521.4C952,508,956,494,962,480c0-1,1-2,2-2
		c54,4,108,7,162.4,10.3"/>
	<path fill="none" stroke="#F4E6D7" stroke-width="4" stroke-miterlimit="10" d="M1127.8,521.3c0.2-57.3,0.2-115.3,0.6-172.3"/>
	<polyline fill="none" stroke="#F4E6D7" stroke-width="4" stroke-miterlimit="10" points="699.4,360.1 957.8,346 1021.4,329.8 
		1090.1,345 1185,355.1 1196.1,426.7 1126.4,429.8 	"/>
	<polyline fill="none" stroke="#F4E6D7" stroke-width="4" stroke-miterlimit="10" points="962.5,111.1 956.8,360.1 973,404.5 
		962.9,430.8 	"/>
	<path fill="none" stroke="#F4E6D7" stroke-width="4" stroke-miterlimit="10" d="M980.3,521.2C988,470,995,420,1002,369
		c4-4,7-7,11-11c1-1,2-3,2-5c1-20,3-41,5-61c0-2,1-4,2-5c8-7,13-16,20-24c1-1,3-2,4-3c18-22,34-42,53-63c2-2,4-4,4-7c0-9,1-18,2-27
		c0-3,0-7,0-10c2-11,2-21,2.9-31.8"/>
	<polyline fill="none" stroke="#F4E6D7" stroke-width="4" stroke-miterlimit="10" points="1031.5,109.7 1038.6,301.6 1052.7,303.6 
		1049.7,383.3 1035.6,391.4 1035.6,481.2 	"/>
	<path fill="none" stroke="#F4E6D7" stroke-width="4" stroke-miterlimit="10" d="M1059.8,485.3c0,12,0,24,0,36"/>
	<path fill="none" stroke="#F4E6D7" stroke-width="4" stroke-miterlimit="10" d="M753.9,388.4c-1.9,43.6-2.9,88.6-4.1,133"/>
	<polyline fill="none" stroke="#F4E6D7" stroke-width="4" stroke-miterlimit="10" points="772.1,103.7 757.9,193.5 762,281.4 
		775.1,335.9 775.1,385.3 	"/>
	<line fill="none" stroke="#F4E6D7" stroke-width="4" stroke-miterlimit="10" x1="714.5" y1="119.8" x2="713.5" y2="243"/>
	<polyline fill="none" stroke="#F4E6D7" stroke-width="4" stroke-miterlimit="10" points="761,179.4 938.6,183.4 943.7,159.2 
		1056.8,156.2 1073.9,160.2 	"/>
	<line fill="none" stroke="#F4E6D7" stroke-width="4" stroke-miterlimit="10" x1="805.4" y1="242" x2="878.1" y2="236.9"/>
	<g id="roads_1_">
		<path fill="none" stroke="#F4D8B3" stroke-width="4" stroke-miterlimit="10" d="M695.1,521.3C697,450,696,379,699,308c0-2-1-4-2-6
			c-16-16-30-32-46-48c-1-1-3-3-3-5c-4-85-5-169-7.2-253.3"/>
		<path fill="none" stroke="#F4D8B3" stroke-width="4" stroke-miterlimit="10" d="M394.8,135.1C478,136,562,137,645,137
			c21-5,41-11,63-16c1,0,3-2,4-2c7-1,13-2,19-4c6-3,13-3,19-5c1-1,3-2,4-2c6-2,13-2,19-5c3-1,7-1,10-2s6-2,9-3c4-2,8-2,11-1
			c45,0,90,0,135-1c7,0,15,0,22,0c28,3,54,9,82,14c3,0,6,1,9,0c19-7,37-17,56-25c14,0,27,3,41,4c10,2,19,7,29,10c2,1,7,2,6,4
			c-1,6-1,12-5,17c-35,0-71-2-106-1c-12,4-25,4-38.5,3.9"/>
		<polyline fill="none" stroke="#F4D8B3" stroke-width="4" stroke-miterlimit="10" points="976,98.6 958.8,113.8 878.1,236.9 
			762,361.1 703.4,394.4 683.2,391.4 689.3,370.2 717.6,369.2 722.6,384.3 670.1,386.4 		"/>
		<line fill="none" stroke="#F4D8B3" stroke-width="4" stroke-miterlimit="10" x1="951.8" y1="97.6" x2="958.8" y2="113.8"/>
		<polyline fill="none" stroke="#F4D8B3" stroke-width="4" stroke-miterlimit="10" points="878.1,236.9 966.9,229.9 1043.6,187.5 
			1118.3,124.9 1195.1,-4.3 		"/>
		<line fill="none" stroke="#F4D8B3" stroke-width="4" stroke-miterlimit="10" x1="1113.3" y1="-1.3" x2="1141.6" y2="88.5"/>
		<polyline fill="none" stroke="#F4D8B3" stroke-width="4" stroke-miterlimit="10" points="1133.5,-4.3 1109.3,84.5 1115.3,120.9 		
			"/>
		<line fill="none" stroke="#F4D8B3" stroke-width="4" stroke-miterlimit="10" x1="1126.4" y1="118.8" x2="1128.4" y2="349"/>
		<polyline fill="none" stroke="#F4D8B3" stroke-width="4" stroke-miterlimit="10" points="1152.7,121.9 1161.7,159.2 1180.9,181.4 
			1185,355.1 		"/>
		<line fill="none" stroke="#F4D8B3" stroke-width="4" stroke-miterlimit="10" x1="1184" y1="101.7" x2="1325.6" y2="118"/>
		<line fill="none" stroke="#F4D8B3" stroke-width="4" stroke-miterlimit="10" x1="1170.8" y1="119.8" x2="1329" y2="196"/>
	</g>
	<g id="marker_1_">
		<path id="pin_2_" fill="#B9252D" d="M717.6,359c1-1.6,1.6-3.5,1.6-5.6c0-5.8-4.7-10.4-10.4-10.4c-5.8,0-10.4,4.7-10.4,10.4
			c0,2.2,0.7,4.2,1.8,5.9l8.7,10.5L717.6,359z"/>
		<g>
			<path fill="#FFFFFF" d="M711.9,349.6c0.3,0.4,0.4,0.8,0.4,1.4c0,0.6-0.1,1-0.4,1.3c-0.2,0.2-0.4,0.4-0.7,0.5
				c0.5,0.2,0.8,0.4,1,0.8c0.2,0.4,0.4,0.8,0.4,1.3c0,0.5-0.1,1-0.4,1.4c-0.2,0.3-0.4,0.5-0.6,0.7c-0.3,0.2-0.6,0.4-1,0.5
				s-0.8,0.1-1.3,0.1h-4.1v-9.1h4.4C710.6,348.7,711.4,349,711.9,349.6z M706.9,350.2v2h2.2c0.4,0,0.7-0.1,1-0.2
				c0.2-0.2,0.4-0.4,0.4-0.8c0-0.4-0.2-0.7-0.5-0.8c-0.3-0.1-0.6-0.1-1.1-0.1H706.9z M706.9,353.8v2.4h2.2c0.4,0,0.7-0.1,0.9-0.2
				c0.4-0.2,0.6-0.6,0.6-1.1c0-0.5-0.2-0.8-0.6-1c-0.2-0.1-0.5-0.2-0.9-0.2H706.9z"/>
		</g>
	</g>
	<g id="marker_2_">
		<path id="pin_1_" fill="#B9252D" d="M1150.4,119.3c1-1.6,1.6-3.5,1.6-5.6c0-5.8-4.7-10.4-10.4-10.4c-5.8,0-10.4,4.7-10.4,10.4
			c0,2.2,0.7,4.2,1.8,5.9l8.7,10.5L1150.4,119.3z"/>
		<g>
			<path fill="#FFFFFF" d="M1140.5,109h2.1l3.2,9.1h-2.1l-0.6-1.9h-3.3l-0.6,1.9h-2L1140.5,109z M1140.4,114.6h2.3l-1.1-3.6
				L1140.4,114.6z"/>
		</g>
	</g>
	<g>
		<path fill="#FFFFFF" d="M1001.4,221.1c18.7-6.2,9.2-23.3,9.2-23.3s-6,1.3-9.2-0.3h0c-3.2,1.6-9.2,0.3-9.2,0.3
			S982.7,214.9,1001.4,221.1L1001.4,221.1z"/>
		<path fill="#0EA9D6" d="M1011.2,202.8c0,0,4.4,12.1-9.8,16.9c-14.2-4.7-9.8-16.9-9.8-16.9H1011.2z"/>
		<path fill="#D72631" d="M1001.5,201.7h9.4c0,0-0.4-1.7-0.9-2.3c0,0-5,0.8-8.5-0.4c-3.5,1.2-8.5,0.4-8.5,0.4
			c-0.6,0.6-0.9,2.3-0.9,2.3H1001.5z"/>
		<g>
			<path fill="#FFFFFF" d="M998.2,208.4c0.2,0,0.4-0.1,0.5-0.1c0.2-0.1,0.3-0.2,0.4-0.3c0.1-0.1,0.2-0.3,0.2-0.5
				c0-0.3-0.1-0.6-0.3-0.7c-0.2-0.2-0.5-0.3-0.7-0.3c-0.4,0-0.7,0.1-0.9,0.4c-0.2,0.2-0.3,0.6-0.3,0.9h-1.4c0-0.4,0.1-0.7,0.2-1
				s0.3-0.6,0.5-0.8c0.2-0.2,0.5-0.4,0.8-0.5s0.7-0.2,1-0.2c0.3,0,0.6,0,0.9,0.1c0.3,0.1,0.6,0.2,0.8,0.4c0.2,0.2,0.4,0.4,0.6,0.6
				c0.1,0.3,0.2,0.5,0.2,0.9c0,0.4-0.1,0.7-0.3,1c-0.2,0.3-0.4,0.5-0.8,0.6v0c0.4,0.1,0.7,0.3,1,0.6c0.2,0.3,0.3,0.7,0.3,1.1
				c0,0.4-0.1,0.7-0.2,1c-0.2,0.3-0.4,0.6-0.6,0.8s-0.5,0.4-0.9,0.5c-0.3,0.1-0.7,0.2-1,0.2c-0.4,0-0.8-0.1-1.1-0.2
				c-0.3-0.1-0.6-0.3-0.9-0.5c-0.2-0.2-0.4-0.5-0.6-0.8c-0.1-0.3-0.2-0.7-0.2-1.1h1.4c0,0.2,0,0.4,0.1,0.6c0.1,0.2,0.1,0.3,0.2,0.5
				c0.1,0.1,0.2,0.2,0.4,0.3c0.2,0.1,0.3,0.1,0.6,0.1c0.3,0,0.6-0.1,0.9-0.3c0.2-0.2,0.3-0.5,0.3-0.8c0-0.3-0.1-0.5-0.2-0.6
				c-0.1-0.1-0.2-0.3-0.4-0.3s-0.4-0.1-0.6-0.1c-0.2,0-0.4,0-0.6,0v-1.1C997.9,208.4,998,208.4,998.2,208.4z"/>
			<path fill="#FFFFFF" d="M1003.4,206.6l-0.3,1.7l0,0c0.2-0.2,0.4-0.4,0.7-0.4c0.2-0.1,0.5-0.1,0.8-0.1c0.4,0,0.7,0.1,1,0.2
				c0.3,0.1,0.5,0.3,0.7,0.5s0.3,0.5,0.4,0.8s0.2,0.6,0.2,1c0,0.4-0.1,0.7-0.2,1.1s-0.3,0.6-0.6,0.8s-0.5,0.4-0.9,0.6
				c-0.3,0.1-0.7,0.2-1.1,0.2c-0.4,0-0.7,0-1-0.1c-0.3-0.1-0.6-0.2-0.9-0.4c-0.3-0.2-0.5-0.4-0.6-0.7s-0.2-0.6-0.2-1h1.5
				c0,0.3,0.2,0.6,0.4,0.8c0.2,0.2,0.5,0.3,0.8,0.3c0.2,0,0.4,0,0.5-0.1s0.3-0.2,0.4-0.3c0.1-0.1,0.2-0.3,0.3-0.5s0.1-0.4,0.1-0.5
				c0-0.2,0-0.4-0.1-0.5c-0.1-0.2-0.1-0.3-0.3-0.4s-0.2-0.2-0.4-0.3c-0.2-0.1-0.3-0.1-0.5-0.1c-0.3,0-0.5,0-0.7,0.1
				c-0.2,0.1-0.3,0.2-0.5,0.4h-1.4l0.7-4.1h4.1v1.2H1003.4z"/>
		</g>
	</g>
	<g>
		<path fill="#FFFFFF" d="M648.8,198.7c18.7-6.2,9.2-23.3,9.2-23.3s-6,1.3-9.2-0.3h0c-3.2,1.6-9.2,0.3-9.2,0.3
			S630.1,192.5,648.8,198.7L648.8,198.7z"/>
		<path fill="#0EA9D6" d="M658.6,180.3c0,0,4.4,12.1-9.8,16.9c-14.2-4.7-9.8-16.9-9.8-16.9H658.6z"/>
		<path fill="#D72631" d="M648.8,179.3h9.4c0,0-0.4-1.7-0.9-2.3c0,0-5,0.8-8.5-0.4c-3.5,1.2-8.5,0.4-8.5,0.4
			c-0.6,0.6-0.9,2.3-0.9,2.3H648.8z"/>
		<g>
			<path fill="#FFFFFF" d="M642.4,190.3v-4.8h-1.9v-1.1c0.3,0,0.5,0,0.8-0.1c0.2,0,0.5-0.1,0.7-0.2s0.4-0.3,0.5-0.5
				c0.1-0.2,0.2-0.4,0.3-0.7h1.2v7.4H642.4z"/>
			<path fill="#FFFFFF" d="M648.5,185.9c0.2,0,0.4-0.1,0.5-0.1c0.2-0.1,0.3-0.2,0.4-0.3c0.1-0.1,0.2-0.3,0.2-0.5
				c0-0.3-0.1-0.6-0.3-0.7s-0.5-0.3-0.7-0.3c-0.4,0-0.7,0.1-0.9,0.4c-0.2,0.2-0.3,0.6-0.3,0.9H646c0-0.4,0.1-0.7,0.2-1
				s0.3-0.6,0.5-0.8c0.2-0.2,0.5-0.4,0.8-0.5s0.7-0.2,1-0.2c0.3,0,0.6,0,0.9,0.1c0.3,0.1,0.6,0.2,0.8,0.4c0.2,0.2,0.4,0.4,0.6,0.6
				c0.1,0.3,0.2,0.5,0.2,0.9c0,0.4-0.1,0.7-0.3,1c-0.2,0.3-0.4,0.5-0.8,0.6v0c0.4,0.1,0.7,0.3,1,0.6c0.2,0.3,0.3,0.7,0.3,1.1
				c0,0.4-0.1,0.7-0.2,1c-0.2,0.3-0.4,0.6-0.6,0.8c-0.3,0.2-0.5,0.4-0.9,0.5c-0.3,0.1-0.7,0.2-1,0.2c-0.4,0-0.8-0.1-1.1-0.2
				c-0.3-0.1-0.6-0.3-0.9-0.5c-0.2-0.2-0.4-0.5-0.6-0.8c-0.1-0.3-0.2-0.7-0.2-1.1h1.4c0,0.2,0,0.4,0.1,0.6c0.1,0.2,0.1,0.3,0.2,0.5
				c0.1,0.1,0.2,0.2,0.4,0.3c0.2,0.1,0.3,0.1,0.6,0.1c0.3,0,0.6-0.1,0.9-0.3s0.3-0.5,0.3-0.8c0-0.3-0.1-0.5-0.2-0.6
				c-0.1-0.1-0.2-0.3-0.4-0.3c-0.2-0.1-0.4-0.1-0.6-0.1s-0.4,0-0.6,0v-1.1C648.2,185.9,648.3,185.9,648.5,185.9z"/>
			<path fill="#FFFFFF" d="M653.7,184.2l-0.3,1.7l0,0c0.2-0.2,0.4-0.4,0.7-0.4c0.2-0.1,0.5-0.1,0.8-0.1c0.4,0,0.7,0.1,1,0.2
				c0.3,0.1,0.5,0.3,0.7,0.5s0.3,0.5,0.4,0.8c0.1,0.3,0.2,0.6,0.2,1c0,0.4-0.1,0.7-0.2,1.1c-0.1,0.3-0.3,0.6-0.6,0.8
				s-0.5,0.4-0.9,0.6c-0.3,0.1-0.7,0.2-1.1,0.2c-0.4,0-0.7,0-1-0.1c-0.3-0.1-0.6-0.2-0.9-0.4c-0.3-0.2-0.5-0.4-0.6-0.7
				s-0.2-0.6-0.2-1h1.5c0,0.3,0.2,0.6,0.4,0.8c0.2,0.2,0.5,0.3,0.8,0.3c0.2,0,0.4,0,0.5-0.1s0.3-0.2,0.4-0.3
				c0.1-0.1,0.2-0.3,0.3-0.5s0.1-0.4,0.1-0.5c0-0.2,0-0.4-0.1-0.5c-0.1-0.2-0.1-0.3-0.3-0.4s-0.2-0.2-0.4-0.3
				c-0.2-0.1-0.3-0.1-0.5-0.1c-0.3,0-0.5,0-0.7,0.1c-0.2,0.1-0.3,0.2-0.5,0.4h-1.4l0.7-4.1h4.1v1.2H653.7z"/>
		</g>
	</g>
	<g>
		<path fill="#FFFFFF" d="M698.4,331c18.7-6.2,9.2-23.3,9.2-23.3s-6,1.3-9.2-0.3h0c-3.2,1.6-9.2,0.3-9.2,0.3S679.6,324.8,698.4,331
			L698.4,331z"/>
		<path fill="#0EA9D6" d="M708.1,312.7c0,0,4.4,12.1-9.8,16.9c-14.2-4.7-9.8-16.9-9.8-16.9H708.1z"/>
		<path fill="#D72631" d="M698.4,311.6h9.4c0,0-0.4-1.7-0.9-2.3c0,0-5,0.8-8.5-0.4c-3.5,1.2-8.5,0.4-8.5,0.4
			c-0.6,0.6-0.9,2.3-0.9,2.3H698.4z"/>
		<g>
			<path fill="#FFFFFF" d="M691.9,322.7v-4.8h-1.9v-1.1c0.3,0,0.5,0,0.8-0.1c0.2,0,0.5-0.1,0.7-0.2c0.2-0.1,0.4-0.3,0.5-0.5
				c0.1-0.2,0.2-0.4,0.3-0.7h1.2v7.4H691.9z"/>
			<path fill="#FFFFFF" d="M698.1,318.3c0.2,0,0.4-0.1,0.5-0.1c0.2-0.1,0.3-0.2,0.4-0.3c0.1-0.1,0.2-0.3,0.2-0.5
				c0-0.3-0.1-0.6-0.3-0.7c-0.2-0.2-0.5-0.3-0.7-0.3c-0.4,0-0.7,0.1-0.9,0.4c-0.2,0.2-0.3,0.6-0.3,0.9h-1.4c0-0.4,0.1-0.7,0.2-1
				s0.3-0.6,0.5-0.8c0.2-0.2,0.5-0.4,0.8-0.5s0.7-0.2,1-0.2c0.3,0,0.6,0,0.9,0.1c0.3,0.1,0.6,0.2,0.8,0.4c0.2,0.2,0.4,0.4,0.6,0.6
				c0.1,0.3,0.2,0.5,0.2,0.9c0,0.4-0.1,0.7-0.3,0.9c-0.2,0.3-0.4,0.5-0.8,0.6v0c0.4,0.1,0.7,0.3,1,0.6s0.3,0.7,0.3,1.1
				c0,0.4-0.1,0.7-0.2,1s-0.4,0.6-0.6,0.8s-0.5,0.4-0.9,0.5c-0.3,0.1-0.7,0.2-1,0.2c-0.4,0-0.8-0.1-1.1-0.2
				c-0.3-0.1-0.6-0.3-0.9-0.5s-0.4-0.5-0.6-0.8c-0.1-0.3-0.2-0.7-0.2-1.1h1.4c0,0.2,0,0.4,0.1,0.6c0.1,0.2,0.1,0.3,0.2,0.5
				c0.1,0.1,0.2,0.2,0.4,0.3s0.3,0.1,0.6,0.1c0.3,0,0.6-0.1,0.9-0.3c0.2-0.2,0.3-0.5,0.3-0.8c0-0.3-0.1-0.5-0.2-0.6
				c-0.1-0.1-0.2-0.3-0.4-0.3s-0.4-0.1-0.6-0.1c-0.2,0-0.4,0-0.6,0v-1.1C697.7,318.3,697.9,318.3,698.1,318.3z"/>
			<path fill="#FFFFFF" d="M703.3,316.5l-0.3,1.7l0,0c0.2-0.2,0.4-0.3,0.7-0.4c0.2-0.1,0.5-0.1,0.8-0.1c0.4,0,0.7,0.1,1,0.2
				c0.3,0.1,0.5,0.3,0.7,0.5s0.3,0.5,0.4,0.8c0.1,0.3,0.2,0.6,0.2,1c0,0.4-0.1,0.7-0.2,1.1s-0.3,0.6-0.6,0.8s-0.5,0.4-0.9,0.6
				c-0.3,0.1-0.7,0.2-1.1,0.2c-0.4,0-0.7,0-1-0.1c-0.3-0.1-0.6-0.2-0.9-0.4c-0.3-0.2-0.5-0.4-0.6-0.7s-0.2-0.6-0.2-1h1.5
				c0,0.3,0.2,0.6,0.4,0.8c0.2,0.2,0.5,0.3,0.8,0.3c0.2,0,0.4,0,0.5-0.1c0.2-0.1,0.3-0.2,0.4-0.3c0.1-0.1,0.2-0.3,0.3-0.5
				c0.1-0.2,0.1-0.3,0.1-0.5c0-0.2,0-0.4-0.1-0.5c-0.1-0.2-0.1-0.3-0.3-0.4c-0.1-0.1-0.2-0.2-0.4-0.3c-0.2-0.1-0.3-0.1-0.5-0.1
				c-0.3,0-0.5,0-0.7,0.1c-0.2,0.1-0.3,0.2-0.5,0.4h-1.4l0.7-4.1h4.1v1.2H703.3z"/>
		</g>
	</g>
	<g>
		<path fill="#FFFFFF" d="M848.1,107.2c18.7-6.2,9.2-23.3,9.2-23.3s-6,1.3-9.2-0.3h0c-3.2,1.6-9.2,0.3-9.2,0.3
			S829.4,101,848.1,107.2L848.1,107.2z"/>
		<path fill="#0EA9D6" d="M857.9,88.9c0,0,4.4,12.1-9.8,16.9c-14.2-4.7-9.8-16.9-9.8-16.9H857.9z"/>
		<path fill="#D72631" d="M848.1,87.8h9.4c0,0-0.4-1.7-0.9-2.3c0,0-5,0.8-8.5-0.4c-3.5,1.2-8.5,0.4-8.5,0.4
			c-0.6,0.6-0.9,2.3-0.9,2.3H848.1z"/>
		<g>
			<path fill="#FFFFFF" d="M846.4,94c-0.3,0.5-0.5,1-0.7,1.6c-0.2,0.6-0.4,1.1-0.5,1.7s-0.2,1.1-0.2,1.6h-1.6
				c0.1-1.1,0.3-2.2,0.8-3.2s1-2,1.7-2.8h-3.5v-1.4h5v1.3C847,93.1,846.7,93.5,846.4,94z"/>
			<path fill="#FFFFFF" d="M848.3,93.3c0.1-0.5,0.3-0.9,0.6-1.2c0.2-0.3,0.5-0.5,0.9-0.6s0.7-0.2,1-0.2c0.4,0,0.7,0.1,1,0.2
				s0.6,0.3,0.9,0.6c0.2,0.3,0.4,0.7,0.6,1.2c0.1,0.5,0.2,1.1,0.2,1.8c0,0.7-0.1,1.4-0.2,1.9c-0.1,0.5-0.3,0.9-0.6,1.2
				c-0.2,0.3-0.5,0.5-0.9,0.6s-0.7,0.2-1,0.2c-0.4,0-0.7-0.1-1-0.2s-0.6-0.3-0.9-0.6c-0.2-0.3-0.4-0.7-0.6-1.2
				c-0.1-0.5-0.2-1.1-0.2-1.9C848,94.4,848.1,93.8,848.3,93.3z M849.6,95.9c0,0.3,0.1,0.6,0.1,0.9c0.1,0.3,0.2,0.5,0.4,0.7
				c0.2,0.2,0.4,0.3,0.7,0.3c0.3,0,0.5-0.1,0.7-0.3c0.2-0.2,0.3-0.4,0.4-0.7c0.1-0.3,0.1-0.6,0.1-0.9c0-0.3,0-0.6,0-0.8
				c0-0.1,0-0.3,0-0.5c0-0.2,0-0.4,0-0.6s-0.1-0.4-0.1-0.6s-0.1-0.4-0.2-0.5s-0.2-0.3-0.3-0.4c-0.1-0.1-0.3-0.1-0.5-0.1
				s-0.4,0-0.5,0.1c-0.1,0.1-0.2,0.2-0.3,0.4s-0.2,0.3-0.2,0.5s-0.1,0.4-0.1,0.6s0,0.4,0,0.6c0,0.2,0,0.3,0,0.5
				C849.5,95.3,849.5,95.6,849.6,95.9z"/>
		</g>
	</g>
	<g>
		<path fill="#FFFFFF" d="M1181.9,276.4c18.7-6.2,9.2-23.3,9.2-23.3s-6,1.3-9.2-0.3h0c-3.2,1.6-9.2,0.3-9.2,0.3
			S1163.2,270.2,1181.9,276.4L1181.9,276.4z"/>
		<path fill="#0EA9D6" d="M1191.7,258.1c0,0,4.4,12.1-9.8,16.9c-14.2-4.7-9.8-16.9-9.8-16.9H1191.7z"/>
		<path fill="#D72631" d="M1181.9,257.1h9.4c0,0-0.4-1.7-0.9-2.3c0,0-5,0.8-8.5-0.4c-3.5,1.2-8.5,0.4-8.5,0.4
			c-0.6,0.6-0.9,2.3-0.9,2.3H1181.9z"/>
		<g>
			<path fill="#FFFFFF" d="M1176,266.4V265l3.2-4.3h1.3v4.4h1v1.2h-1v1.7h-1.4v-1.7H1176z M1179.1,262.6l-1.9,2.6h1.9L1179.1,262.6
				L1179.1,262.6z"/>
			<path fill="#FFFFFF" d="M1183.8,266.8c0.2,0.2,0.4,0.3,0.7,0.3c0.3,0,0.5-0.1,0.7-0.2c0.2-0.2,0.3-0.4,0.4-0.6
				c0.1-0.2,0.2-0.5,0.2-0.7s0.1-0.5,0.1-0.7l0,0c-0.2,0.3-0.4,0.5-0.7,0.6c-0.3,0.1-0.6,0.2-0.9,0.2c-0.3,0-0.6-0.1-0.9-0.2
				c-0.3-0.1-0.6-0.3-0.8-0.6c-0.2-0.2-0.3-0.5-0.4-0.8c-0.1-0.3-0.1-0.6-0.1-0.9c0-0.4,0.1-0.7,0.2-1.1s0.3-0.6,0.5-0.9
				c0.2-0.2,0.5-0.4,0.8-0.6c0.3-0.1,0.7-0.2,1.1-0.2c0.6,0,1,0.1,1.4,0.3s0.7,0.5,0.9,0.9s0.4,0.8,0.5,1.2c0.1,0.5,0.1,0.9,0.1,1.4
				c0,0.5-0.1,0.9-0.2,1.4c-0.1,0.5-0.3,0.9-0.5,1.2c-0.2,0.4-0.5,0.7-0.9,0.9c-0.4,0.2-0.8,0.3-1.3,0.3c-0.3,0-0.6,0-0.9-0.1
				s-0.5-0.2-0.7-0.4c-0.2-0.2-0.4-0.4-0.5-0.6c-0.1-0.3-0.2-0.5-0.3-0.9h1.4C1183.5,266.4,1183.6,266.6,1183.8,266.8z M1185,264.4
				c0.1-0.1,0.3-0.2,0.4-0.3c0.1-0.1,0.2-0.3,0.2-0.4c0-0.2,0.1-0.3,0.1-0.5c0-0.2,0-0.3-0.1-0.5c-0.1-0.2-0.1-0.3-0.2-0.4
				c-0.1-0.1-0.2-0.2-0.4-0.3s-0.3-0.1-0.5-0.1c-0.2,0-0.3,0-0.5,0.1s-0.3,0.2-0.4,0.3c-0.1,0.1-0.2,0.3-0.2,0.4
				c0,0.2-0.1,0.3-0.1,0.5c0,0.2,0,0.3,0.1,0.5c0,0.2,0.1,0.3,0.2,0.4c0.1,0.1,0.2,0.2,0.4,0.3c0.1,0.1,0.3,0.1,0.5,0.1
				C1184.7,264.5,1184.9,264.5,1185,264.4z"/>
		</g>
	</g>
	<g>
		<path fill="#877C6C" d="M720.6,337l-1.5-5.8h0l-1.4,5.8h-1.9l-2.3-8.6h1.9l1.4,5.8h0l1.5-5.8h1.8l1.5,5.9h0l1.4-5.9h1.8l-2.3,8.6
			H720.6z"/>
		<path fill="#877C6C" d="M727.6,328.4v8.6h-1.9v-8.6H727.6z"/>
		<path fill="#877C6C" d="M734.7,330.7c-0.1-0.2-0.3-0.3-0.4-0.5s-0.4-0.2-0.6-0.3s-0.4-0.1-0.7-0.1c-0.4,0-0.8,0.1-1.1,0.2
			c-0.3,0.2-0.5,0.4-0.7,0.7c-0.2,0.3-0.3,0.6-0.4,0.9c-0.1,0.4-0.1,0.7-0.1,1.1c0,0.4,0,0.7,0.1,1c0.1,0.3,0.2,0.6,0.4,0.9
			c0.2,0.3,0.4,0.5,0.7,0.7s0.7,0.2,1.1,0.2c0.6,0,1-0.2,1.3-0.5c0.3-0.4,0.5-0.8,0.6-1.4h1.8c0,0.5-0.2,1-0.4,1.5
			c-0.2,0.4-0.5,0.8-0.8,1.1c-0.3,0.3-0.7,0.5-1.2,0.7c-0.4,0.2-0.9,0.2-1.5,0.2c-0.7,0-1.2-0.1-1.8-0.3c-0.5-0.2-1-0.5-1.3-0.9
			c-0.4-0.4-0.6-0.9-0.8-1.4c-0.2-0.5-0.3-1.1-0.3-1.7c0-0.6,0.1-1.2,0.3-1.8c0.2-0.5,0.5-1,0.8-1.4c0.4-0.4,0.8-0.7,1.3-1
			c0.5-0.2,1.1-0.3,1.8-0.3c0.5,0,0.9,0.1,1.3,0.2c0.4,0.1,0.8,0.3,1.1,0.6s0.6,0.6,0.8,1s0.4,0.8,0.4,1.3h-1.8
			C734.9,331.1,734.8,330.9,734.7,330.7z"/>
		<path fill="#877C6C" d="M740,328.4v3.3h3.5v-3.3h1.9v8.6h-1.9v-3.7H740v3.7h-1.9v-8.6H740z"/>
		<path fill="#877C6C" d="M748.9,328.4v8.6H747v-8.6H748.9z"/>
		<path fill="#877C6C" d="M749.9,330v-1.6h7v1.6h-2.6v7h-1.9v-7H749.9z"/>
		<path fill="#877C6C" d="M761,328.4l3.2,8.6h-2l-0.6-1.9h-3.2l-0.7,1.9h-1.9l3.2-8.6H761z M761.2,333.7l-1.1-3.1h0l-1.1,3.1H761.2z
			"/>
	</g>
	<g>
		<path fill="#877C6C" d="M1094.4,68.9v3.6l3.3-3.6h2.4l-3.3,3.4l3.7,5.2h-2.4l-2.6-3.9l-1.1,1.1v2.8h-1.9v-8.6H1094.4z"/>
		<path fill="#877C6C" d="M1105.5,68.9l3.2,8.6h-2l-0.6-1.9h-3.2l-0.7,1.9h-1.9l3.2-8.6H1105.5z M1105.6,74.2l-1.1-3.1h0l-1.1,3.1
			H1105.6z"/>
		<path fill="#877C6C" d="M1111.3,68.9l3.6,5.7h0v-5.7h1.8v8.6h-1.9l-3.6-5.7h0v5.7h-1.8v-8.6H1111.3z"/>
		<path fill="#877C6C" d="M1119.8,75.4c0.1,0.2,0.2,0.4,0.4,0.5s0.4,0.2,0.6,0.3c0.2,0.1,0.5,0.1,0.7,0.1c0.2,0,0.3,0,0.5,0
			c0.2,0,0.4-0.1,0.5-0.2s0.3-0.2,0.4-0.3s0.2-0.3,0.2-0.5c0-0.2-0.1-0.4-0.2-0.6c-0.1-0.1-0.3-0.3-0.6-0.4s-0.5-0.2-0.8-0.3
			c-0.3-0.1-0.6-0.2-0.9-0.2c-0.3-0.1-0.6-0.2-0.9-0.3c-0.3-0.1-0.6-0.3-0.8-0.5c-0.2-0.2-0.4-0.4-0.6-0.7c-0.1-0.3-0.2-0.6-0.2-1
			c0-0.4,0.1-0.8,0.3-1.1c0.2-0.3,0.4-0.6,0.7-0.8c0.3-0.2,0.6-0.4,1-0.5c0.4-0.1,0.8-0.2,1.2-0.2c0.4,0,0.9,0.1,1.3,0.2
			c0.4,0.1,0.8,0.3,1.1,0.5c0.3,0.2,0.6,0.5,0.8,0.9c0.2,0.3,0.3,0.8,0.3,1.3h-1.8c0-0.3-0.1-0.5-0.2-0.6c-0.1-0.2-0.2-0.3-0.4-0.4
			c-0.2-0.1-0.3-0.2-0.5-0.2s-0.4-0.1-0.6-0.1c-0.2,0-0.3,0-0.5,0c-0.2,0-0.3,0.1-0.4,0.2s-0.2,0.2-0.3,0.3s-0.1,0.3-0.1,0.5
			c0,0.2,0,0.3,0.1,0.4c0.1,0.1,0.2,0.2,0.4,0.3c0.2,0.1,0.4,0.2,0.8,0.3s0.8,0.2,1.3,0.3c0.2,0,0.4,0.1,0.7,0.2s0.6,0.2,0.8,0.4
			s0.5,0.4,0.7,0.7c0.2,0.3,0.3,0.7,0.3,1.2c0,0.4-0.1,0.8-0.2,1.1c-0.2,0.3-0.4,0.6-0.7,0.9s-0.7,0.4-1.1,0.6
			c-0.4,0.1-1,0.2-1.5,0.2c-0.5,0-0.9-0.1-1.4-0.2c-0.4-0.1-0.8-0.3-1.2-0.5c-0.3-0.2-0.6-0.6-0.8-0.9c-0.2-0.4-0.3-0.8-0.3-1.4h1.8
			C1119.6,74.9,1119.7,75.2,1119.8,75.4z"/>
		<path fill="#877C6C" d="M1130.4,68.9l3.2,8.6h-2l-0.6-1.9h-3.2l-0.7,1.9h-1.9l3.2-8.6H1130.4z M1130.5,74.2l-1.1-3.1h0l-1.1,3.1
			H1130.5z"/>
		<path fill="#877C6C" d="M1135.8,75.4c0.1,0.2,0.2,0.4,0.4,0.5s0.4,0.2,0.6,0.3c0.2,0.1,0.5,0.1,0.7,0.1c0.2,0,0.3,0,0.5,0
			c0.2,0,0.4-0.1,0.5-0.2s0.3-0.2,0.4-0.3s0.2-0.3,0.2-0.5c0-0.2-0.1-0.4-0.2-0.6c-0.1-0.1-0.3-0.3-0.6-0.4s-0.5-0.2-0.8-0.3
			c-0.3-0.1-0.6-0.2-0.9-0.2c-0.3-0.1-0.6-0.2-0.9-0.3c-0.3-0.1-0.6-0.3-0.8-0.5c-0.2-0.2-0.4-0.4-0.6-0.7c-0.1-0.3-0.2-0.6-0.2-1
			c0-0.4,0.1-0.8,0.3-1.1c0.2-0.3,0.4-0.6,0.7-0.8c0.3-0.2,0.6-0.4,1-0.5c0.4-0.1,0.8-0.2,1.2-0.2c0.4,0,0.9,0.1,1.3,0.2
			c0.4,0.1,0.8,0.3,1.1,0.5c0.3,0.2,0.6,0.5,0.8,0.9c0.2,0.3,0.3,0.8,0.3,1.3h-1.8c0-0.3-0.1-0.5-0.2-0.6c-0.1-0.2-0.2-0.3-0.4-0.4
			c-0.2-0.1-0.3-0.2-0.5-0.2s-0.4-0.1-0.6-0.1c-0.2,0-0.3,0-0.5,0c-0.2,0-0.3,0.1-0.4,0.2s-0.2,0.2-0.3,0.3s-0.1,0.3-0.1,0.5
			c0,0.2,0,0.3,0.1,0.4c0.1,0.1,0.2,0.2,0.4,0.3c0.2,0.1,0.4,0.2,0.8,0.3s0.8,0.2,1.3,0.3c0.2,0,0.4,0.1,0.7,0.2s0.6,0.2,0.8,0.4
			s0.5,0.4,0.7,0.7c0.2,0.3,0.3,0.7,0.3,1.2c0,0.4-0.1,0.8-0.2,1.1c-0.2,0.3-0.4,0.6-0.7,0.9s-0.7,0.4-1.1,0.6
			c-0.4,0.1-1,0.2-1.5,0.2c-0.5,0-0.9-0.1-1.4-0.2c-0.4-0.1-0.8-0.3-1.2-0.5c-0.3-0.2-0.6-0.6-0.8-0.9c-0.2-0.4-0.3-0.8-0.3-1.4h1.8
			C1135.6,74.9,1135.7,75.2,1135.8,75.4z"/>
		<path fill="#877C6C" d="M1151,71.2c-0.1-0.2-0.3-0.3-0.4-0.5s-0.4-0.2-0.6-0.3s-0.4-0.1-0.7-0.1c-0.4,0-0.8,0.1-1.1,0.2
			c-0.3,0.2-0.5,0.4-0.7,0.7c-0.2,0.3-0.3,0.6-0.4,0.9c-0.1,0.4-0.1,0.7-0.1,1.1c0,0.4,0,0.7,0.1,1c0.1,0.3,0.2,0.6,0.4,0.9
			c0.2,0.3,0.4,0.5,0.7,0.7s0.7,0.2,1.1,0.2c0.6,0,1-0.2,1.3-0.5c0.3-0.4,0.5-0.8,0.6-1.4h1.8c0,0.5-0.2,1-0.4,1.5
			c-0.2,0.4-0.5,0.8-0.8,1.1c-0.3,0.3-0.7,0.5-1.2,0.7c-0.4,0.2-0.9,0.2-1.5,0.2c-0.7,0-1.2-0.1-1.8-0.3c-0.5-0.2-1-0.5-1.3-0.9
			c-0.4-0.4-0.6-0.9-0.8-1.4c-0.2-0.5-0.3-1.1-0.3-1.7c0-0.6,0.1-1.2,0.3-1.8c0.2-0.5,0.5-1,0.8-1.4c0.4-0.4,0.8-0.7,1.3-1
			c0.5-0.2,1.1-0.3,1.8-0.3c0.5,0,0.9,0.1,1.3,0.2c0.4,0.1,0.8,0.3,1.1,0.6s0.6,0.6,0.8,1s0.4,0.8,0.4,1.3h-1.8
			C1151.1,71.6,1151.1,71.4,1151,71.2z"/>
		<path fill="#877C6C" d="M1156.2,68.9v8.6h-1.9v-8.6H1156.2z"/>
		<path fill="#877C6C" d="M1157.2,70.5v-1.6h7v1.6h-2.6v7h-1.9v-7H1157.2z"/>
		<path fill="#877C6C" d="M1164.3,68.9h2.1l2,3.4l2-3.4h2.1l-3.2,5.3v3.3h-1.9v-3.3L1164.3,68.9z"/>
	</g>
</g>
<g id="Layer_2">
</g>
</svg>
