<svg xmlns="http://www.w3.org/2000/svg" viewBox="353 18.3 927.2 495.3" enable-background="new 353 18.3 927.2 495.3"><path fill="#F6F0EF" d="M353.1 12.8c-.6 0-1.1 0-1.6-.1v507.1h928.7v-507H353.1z"/><g stroke="#F4D8B3" stroke-width="4" stroke-miterlimit="10" fill="none"><path d="M958.9 150l130.1 80 19 71.9M1140.4 18.3L1007 148l-5 40h-22v-66.5l35-33.5V18.3M965 148l6-129.7M713.6 95H762l21 35 108 12 67 6M671.9 320.7l-4.9 25.9-191 167M682.3 298.6l-10.4-.3v22.4L781 325l186-10.4 313.2-31.5M396.5 18.3L546 295.1l89 6.8 13 4.2h44.2v-33M353 306.1l292-14.8 9-19.2 105-12L897 223l61-75 322.2-19.7M709.9 12.8l6.8 135.2-34.4 162v52.5L751.4 538"/></g><g><path fill="#B9252D" d="M683 277.4c1-1.6 1.6-3.5 1.6-5.5 0-5.7-4.6-10.4-10.4-10.4-5.7 0-10.4 4.6-10.4 10.4 0 2.2.7 4.2 1.8 5.8l8.6 10.4 8.8-10.7z"/><text transform="translate(669.704 276.145)" fill="#fff" font-family="'Helvetica-Bold'" font-size="12.497">A</text></g><g><path fill="#B9252D" d="M700.4 258.8c1-1.6 1.6-3.5 1.6-5.5 0-5.7-4.6-10.4-10.4-10.4s-10.4 4.6-10.4 10.4c0 2.2.7 4.2 1.8 5.8l8.6 10.4 8.8-10.7z"/><text transform="translate(687.055 257.502)" fill="#fff" font-family="'Helvetica-Bold'" font-size="12.497">B</text></g><g><path fill="#B9252D" d="M702.7 298.7c1-1.6 1.6-3.5 1.6-5.5 0-5.7-4.6-10.4-10.4-10.4s-10.4 4.6-10.4 10.4c0 2.2.7 4.2 1.8 5.8l8.6 10.4 8.8-10.7z"/><text transform="translate(689.405 297.434)" fill="#fff" font-family="'Helvetica-Bold'" font-size="12.497">C</text></g><g><path fill="#B9252D" d="M957.3 167.6c1-1.6 1.6-3.5 1.6-5.5 0-5.7-4.6-10.4-10.4-10.4-5.7 0-10.4 4.6-10.4 10.4 0 2.2.7 4.2 1.8 5.8l8.6 10.4 8.8-10.7z"/><text transform="translate(944.003 166.376)" fill="#fff" font-family="'Helvetica-Bold'" font-size="12.497">H</text></g><g><path fill="#B9252D" d="M1000.3 117.6c1-1.6 1.6-3.5 1.6-5.5 0-5.7-4.6-10.4-10.4-10.4-5.7 0-10.4 4.6-10.4 10.4 0 2.2.7 4.2 1.8 5.8l8.6 10.4 8.8-10.7z"/><text transform="translate(990.003 116.376)" fill="#fff" font-family="'Helvetica-Bold'" font-size="12.497">I</text></g><g><path fill="#B9252D" d="M1006.7 167.6c1-1.6 1.6-3.5 1.6-5.5 0-5.7-4.6-10.4-10.4-10.4-5.7 0-10.4 4.6-10.4 10.4 0 2.2.7 4.2 1.8 5.8l8.6 10.4 8.8-10.7z"/><text transform="translate(993.405 166.376)" fill="#fff" font-family="'Helvetica-Bold'" font-size="12.497">G</text></g><g><path fill="#B9252D" d="M985.7 180.6c1-1.6 1.6-3.5 1.6-5.5 0-5.7-4.6-10.4-10.4-10.4-5.7 0-10.4 4.6-10.4 10.4 0 2.2.7 4.2 1.8 5.8l8.6 10.4 8.8-10.7z"/><text transform="translate(972.405 179.376)" fill="#fff" font-family="'Helvetica-Bold'" font-size="12.497">K</text></g><g><path fill="#B9252D" d="M980.7 148.6c1-1.6 1.6-3.5 1.6-5.5 0-5.7-4.6-10.4-10.4-10.4-5.7 0-10.4 4.6-10.4 10.4 0 2.2.7 4.2 1.8 5.8l8.6 10.4 8.8-10.7z"/><text transform="translate(967.405 148.376)" fill="#fff" font-family="'Helvetica-Bold'" font-size="12.497">J</text></g><g><path fill="#B9252D" d="M667 260.4c1-1.6 1.6-3.5 1.6-5.5 0-5.7-4.6-10.4-10.4-10.4-5.7 0-10.4 4.6-10.4 10.4 0 2.2.7 4.2 1.8 5.8l8.6 10.4 8.8-10.7z"/><text transform="translate(653.675 259.176)" fill="#fff" font-family="'Helvetica-Bold'" font-size="12.497">F</text></g><g><path fill="#B9252D" d="M664.3 289.7c1-1.6 1.6-3.5 1.6-5.5 0-5.7-4.6-10.4-10.4-10.4-5.7 0-10.4 4.6-10.4 10.4 0 2.2.7 4.2 1.8 5.8l8.6 10.4 8.8-10.7z"/><text transform="translate(650.974 288.403)" fill="#fff" font-family="'Helvetica-Bold'" font-size="12.497">E</text></g><g><path fill="#B9252D" d="M644 299c1-1.6 1.6-3.5 1.6-5.5 0-5.7-4.6-10.4-10.4-10.4-5.7 0-10.4 4.6-10.4 10.4 0 2.2.7 4.2 1.8 5.8l8.6 10.4L644 299z"/><text transform="translate(630.704 297.738)" fill="#fff" font-family="'Helvetica-Bold'" font-size="12.497">H</text></g><g><path fill="#B9252D" d="M682 315c1-1.6 1.6-3.5 1.6-5.5 0-5.7-4.6-10.4-10.4-10.4-5.7 0-10.4 4.6-10.4 10.4 0 2.2.7 4.2 1.8 5.8l8.6 10.4L682 315z"/><text transform="translate(668.704 313.738)" fill="#fff" font-family="'Helvetica-Bold'" font-size="12.497">G</text></g><g><path fill="#B9252D" d="M697 333c1-1.6 1.6-3.5 1.6-5.5 0-5.7-4.6-10.4-10.4-10.4-5.7 0-10.4 4.6-10.4 10.4 0 2.2.7 4.2 1.8 5.8l8.6 10.4L697 333z"/><text transform="translate(683.704 331.738)" fill="#fff" font-family="'Helvetica-Bold'" font-size="12.497">D</text></g></svg>