<?xml version="1.0" encoding="utf-8"?>
<!-- Generator: Adobe Illustrator 18.0.0, SVG Export Plug-In . SVG Version: 6.00 Build 0)  -->
<!DOCTYPE svg PUBLIC "-//W3C//DTD SVG 1.1//EN" "http://www.w3.org/Graphics/SVG/1.1/DTD/svg11.dtd">
<svg version="1.1" id="map" xmlns="http://www.w3.org/2000/svg" xmlns:xlink="http://www.w3.org/1999/xlink" x="0px" y="0px"
	 viewBox="353 18.3 927.2 495.3" enable-background="new 353 18.3 927.2 495.3" xml:space="preserve">
<g id="land">
	<path fill="#F6F0EF" d="M353.1,12.8c-0.6,0-1.1,0-1.6-0.1v507.1h928.7V12.8H353.1z"/>
</g>
<g id="roads">
	<polyline fill="none" stroke="#F4D8B3" stroke-width="4" stroke-miterlimit="10" points="958.9,150 1089,230 1108,301.9 	"/>
	<polyline fill="none" stroke="#F4D8B3" stroke-width="4" stroke-miterlimit="10" points="1140.4,18.3 1007,148 1002,188 980,188 
		980,121.5 1015,88 1015,18.3 	"/>
	<line fill="none" stroke="#F4D8B3" stroke-width="4" stroke-miterlimit="10" x1="965" y1="148" x2="971" y2="18.3"/>
	<polyline fill="none" stroke="#F4D8B3" stroke-width="4" stroke-miterlimit="10" points="713.6,95 762,95 783,130 891,142 958,148 
			"/>
	<polyline fill="none" stroke="#F4D8B3" stroke-width="4" stroke-miterlimit="10" points="671.9,320.7 667,346.6 476,513.6 	"/>
	<polyline fill="none" stroke="#F4D8B3" stroke-width="4" stroke-miterlimit="10" points="682.3,298.6 671.9,298.3 671.9,320.7 
		781,325 967,314.6 1280.2,283.1 	"/>
	<polyline fill="none" stroke="#F4D8B3" stroke-width="4" stroke-miterlimit="10" points="396.5,18.3 546,295.1 635,301.9 
		648,306.1 692.2,306.1 692.2,273.1 	"/>
	<polyline fill="none" stroke="#F4D8B3" stroke-width="4" stroke-miterlimit="10" points="353,306.1 645,291.3 654,272.1 759,260.1 
		897,223 958,148 1280.2,128.3 	"/>
	<polyline fill="none" stroke="#F4D8B3" stroke-width="4" stroke-miterlimit="10" points="709.9,12.8 716.7,148 682.3,310 
		682.3,362.5 751.4,538 	"/>
</g>
<g id="marker">
	<path id="pin_1_" fill="#B9252D" d="M683,277.4c1-1.6,1.6-3.5,1.6-5.5c0-5.7-4.6-10.4-10.4-10.4c-5.7,0-10.4,4.6-10.4,10.4
		c0,2.2,0.7,4.2,1.8,5.8l8.6,10.4L683,277.4z"/>
	<text id="id" transform="matrix(1 0 0 1 669.704 276.1449)" fill="#FFFFFF" font-family="'Helvetica-Bold'" font-size="12.4974">A</text>
</g>
<g id="marker_1_">
	<path id="pin_2_" fill="#B9252D" d="M700.4,258.8c1-1.6,1.6-3.5,1.6-5.5c0-5.7-4.6-10.4-10.4-10.4s-10.4,4.6-10.4,10.4
		c0,2.2,0.7,4.2,1.8,5.8l8.6,10.4L700.4,258.8z"/>
	
		<text id="id_1_" transform="matrix(1 0 0 1 687.0546 257.5023)" fill="#FFFFFF" font-family="'Helvetica-Bold'" font-size="12.4974">B</text>
</g>
<g id="marker_2_">
	<path id="pin_3_" fill="#B9252D" d="M702.7,298.7c1-1.6,1.6-3.5,1.6-5.5c0-5.7-4.6-10.4-10.4-10.4s-10.4,4.6-10.4,10.4
		c0,2.2,0.7,4.2,1.8,5.8l8.6,10.4L702.7,298.7z"/>
	
		<text id="id_2_" transform="matrix(1 0 0 1 689.4055 297.434)" fill="#FFFFFF" font-family="'Helvetica-Bold'" font-size="12.4974">C</text>
</g>
<g id="marker_9_">
	<path id="pin_10_" fill="#B9252D" d="M957.3,167.6c1-1.6,1.6-3.5,1.6-5.5c0-5.7-4.6-10.4-10.4-10.4c-5.7,0-10.4,4.6-10.4,10.4
		c0,2.2,0.7,4.2,1.8,5.8l8.6,10.4L957.3,167.6z"/>
	
		<text id="id_9_" transform="matrix(1 0 0 1 944.0029 166.376)" fill="#FFFFFF" font-family="'Helvetica-Bold'" font-size="12.4974">H</text>
</g>
<g id="marker_10_">
	<path id="pin_11_" fill="#B9252D" d="M1000.3,117.6c1-1.6,1.6-3.5,1.6-5.5c0-5.7-4.6-10.4-10.4-10.4c-5.7,0-10.4,4.6-10.4,10.4
		c0,2.2,0.7,4.2,1.8,5.8l8.6,10.4L1000.3,117.6z"/>
	
		<text id="id_10_" transform="matrix(1 0 0 1 990.0029 116.376)" fill="#FFFFFF" font-family="'Helvetica-Bold'" font-size="12.4974">I</text>
</g>
<g id="marker_8_">
	<path id="pin_9_" fill="#B9252D" d="M1006.7,167.6c1-1.6,1.6-3.5,1.6-5.5c0-5.7-4.6-10.4-10.4-10.4c-5.7,0-10.4,4.6-10.4,10.4
		c0,2.2,0.7,4.2,1.8,5.8l8.6,10.4L1006.7,167.6z"/>
	
		<text id="id_8_" transform="matrix(1 0 0 1 993.4053 166.376)" fill="#FFFFFF" font-family="'Helvetica-Bold'" font-size="12.4974">G</text>
</g>
<g id="marker_12_">
	<path id="pin_13_" fill="#B9252D" d="M985.7,180.6c1-1.6,1.6-3.5,1.6-5.5c0-5.7-4.6-10.4-10.4-10.4c-5.7,0-10.4,4.6-10.4,10.4
		c0,2.2,0.7,4.2,1.8,5.8l8.6,10.4L985.7,180.6z"/>
	
		<text id="id_12_" transform="matrix(1 0 0 1 972.4053 179.376)" fill="#FFFFFF" font-family="'Helvetica-Bold'" font-size="12.4974">K</text>
</g>
<g id="marker_11_">
	<path id="pin_12_" fill="#B9252D" d="M980.7,148.6c1-1.6,1.6-3.5,1.6-5.5c0-5.7-4.6-10.4-10.4-10.4c-5.7,0-10.4,4.6-10.4,10.4
		c0,2.2,0.7,4.2,1.8,5.8l8.6,10.4L980.7,148.6z"/>
	
		<text id="id_11_" transform="matrix(1 0 0 1 967.4053 148.376)" fill="#FFFFFF" font-family="'Helvetica-Bold'" font-size="12.4974">J</text>
</g>
<g id="marker_5_">
	<path id="pin_6_" fill="#B9252D" d="M667,260.4c1-1.6,1.6-3.5,1.6-5.5c0-5.7-4.6-10.4-10.4-10.4c-5.7,0-10.4,4.6-10.4,10.4
		c0,2.2,0.7,4.2,1.8,5.8l8.6,10.4L667,260.4z"/>
	
		<text id="id_5_" transform="matrix(1 0 0 1 653.6752 259.1765)" fill="#FFFFFF" font-family="'Helvetica-Bold'" font-size="12.4974">F</text>
</g>
<g id="marker_4_">
	<path id="pin_5_" fill="#B9252D" d="M664.3,289.7c1-1.6,1.6-3.5,1.6-5.5c0-5.7-4.6-10.4-10.4-10.4c-5.7,0-10.4,4.6-10.4,10.4
		c0,2.2,0.7,4.2,1.8,5.8l8.6,10.4L664.3,289.7z"/>
	
		<text id="id_4_" transform="matrix(1 0 0 1 650.9738 288.4033)" fill="#FFFFFF" font-family="'Helvetica-Bold'" font-size="12.4974">E</text>
</g>
<g id="marker_7_">
	<path id="pin_8_" fill="#B9252D" d="M644,299c1-1.6,1.6-3.5,1.6-5.5c0-5.7-4.6-10.4-10.4-10.4c-5.7,0-10.4,4.6-10.4,10.4
		c0,2.2,0.7,4.2,1.8,5.8l8.6,10.4L644,299z"/>
	
		<text id="id_7_" transform="matrix(1 0 0 1 630.7037 297.738)" fill="#FFFFFF" font-family="'Helvetica-Bold'" font-size="12.4974">H</text>
</g>
<g id="marker_6_">
	<path id="pin_7_" fill="#B9252D" d="M682,315c1-1.6,1.6-3.5,1.6-5.5c0-5.7-4.6-10.4-10.4-10.4c-5.7,0-10.4,4.6-10.4,10.4
		c0,2.2,0.7,4.2,1.8,5.8l8.6,10.4L682,315z"/>
	
		<text id="id_6_" transform="matrix(1 0 0 1 668.7037 313.738)" fill="#FFFFFF" font-family="'Helvetica-Bold'" font-size="12.4974">G</text>
</g>
<g id="marker_3_">
	<path id="pin_4_" fill="#B9252D" d="M697,333c1-1.6,1.6-3.5,1.6-5.5c0-5.7-4.6-10.4-10.4-10.4c-5.7,0-10.4,4.6-10.4,10.4
		c0,2.2,0.7,4.2,1.8,5.8l8.6,10.4L697,333z"/>
	
		<text id="id_3_" transform="matrix(1 0 0 1 683.7037 331.738)" fill="#FFFFFF" font-family="'Helvetica-Bold'" font-size="12.4974">D</text>
</g>
</svg>
