<?xml version="1.0" encoding="utf-8"?>
<!-- Generator: Adobe Illustrator 18.0.0, SVG Export Plug-In . SVG Version: 6.00 Build 0)  -->
<!DOCTYPE svg PUBLIC "-//W3C//DTD SVG 1.1//EN" "http://www.w3.org/Graphics/SVG/1.1/DTD/svg11.dtd">
<svg version="1.1" id="map" xmlns="http://www.w3.org/2000/svg" xmlns:xlink="http://www.w3.org/1999/xlink" x="0px" y="0px"
	 viewBox="-315 -157 930 400" enable-background="new -315 -157 930 400" xml:space="preserve">
<rect x="-319.2" y="-162" fill="#A2DDF5" width="936.2" height="406.9"/>
<g id="land">
	<path fill="#F6F0EF" d="M536.6-150.8c-5,3.2-6.5,3.8-12.1,4.1c-0.1-0.9,0.2-1.6,0.9-2.1c-3.7-2.8-6,1.4-9.4,0.2
		c-3.6-1.3-7.2-4.1-9.8-6.8c1.2-0.8,2.5-1,3.9-0.8c0.1-3.6-9.4-2.1-12.1-4.2c0.4-0.4,0.6-0.9,0.6-1.5H396.6c-1,0.6-2,1.2-2.9,1.9
		c-8.7,6.4-19.4,26.5-31.8,24.9c5.1-5.9,8.1-10.7,13.7-16.1c4.5-4.3,9.5-7.6,14.6-10.7H232.5c1.1,0.7,2.3,1.3,3.4,1.9
		c8.6,4.2,19,0.2,28.1,1.7c5.5,0.9,16.9,1.8,19.2,8.1c1.5,4,0.6,8.3,4,11.4c3.3,3,8,4.8,8.2,9.9c-1.9,0.1-3.5-0.5-4.8-1.8
		c3,3.6,0.4,6.6-4.1,6.9c-7,0.5-7.7-5.1-12.5-8.3c-6-4-7.1,25.3-8.5,29.7c-1.1,3.9-5.3,7.6-9.2,3.9c-4.4-4.2-3.7-11.4-6.8-16.3
		c-3.2-5-6.2,10.8-12.2,5.1c-2.7-2.5,3.4-9.2,4.7-11c4-5.7,3.5-6,1.3-11.9c-1.7-5-1.3-7.4-5.9-9.4c-5.1-2.2-11.8-8.4-17.8-3.4
		c1.3,0.5,2.6,1,3.9,1.4c-1.9,1.5-3.9,3.1-5.7,4.6c-2.1,2.7-1.2,5.9-2.2,8.9c-3.8-0.1-3.3-4.4-3.8-6.9c-8.6,2.6-9.2,21.7-9.1,28.6
		c0.1,5.3,3.7,9.2,3.8,14.3c0.1,6-3.3,16.3-8.6,19.9c-11.9,8-17.8-12.6-18-20.3c-0.3-15.2,11.6-28.1,11.4-43.4c-3,3-3,8.2-6.1,11.3
		c-5,5-5.1-3-3.6-6.1c2.9-6,8.1-25,17.4-17.8c3.6,2.8,11.6-3.3,15.3-4.1c3.4-0.7,6.2,0.7,8.7,2.9c0.6-1.9,2.9-2.1,4.5-2.1
		c5.2,0,10.2,2,15.1,3.2c5.4,1.3,11.9-1.4,16.9,1.5c1.7,1,3.1,3.5,4.8,4.3c4.9,2.2,3.1-5,1.7-6.5c-0.2-0.3-5.8-2.9-6.5-3
		c-4.7-0.9-11.5,1-16.8,0.3c-4.4-0.7-8.8-2-12.9-3.5c-1.7-0.6-5.9-2-8-4h-530.7c0.1,0.1,0.2,0.2,0.3,0.3c2.1,1.7,6.7,0.7,7.8,3.8
		c-8.7,1.3-9-1.7-9.9,7.5c-1.1,8.2-1.4,18-1.1,26.4c0.2,2.9,2.1,7.7-0.1,10.2c-1.5,1.7,1.3,3.8-0.1,6.5c-4.9,9.9-9.6,16.1-2.7,27.2
		c3.8,6,3.5,14.3,2,21.2c-0.7,3.2-4.9,4.5-3.9,8.6c0.9,3.6,4.7,5.9,6.7,8.9c5,7.2,2.6,17.2,6.7,25c1.5,2.9,11.1,9.4,11.1,12
		c-0.8-6.9,10.9-8.4,15.2-5.7c5.2,3.3-8.7,4-10.2,4.6c1,2.9,3.2,5.6,3.6,8.7c-8.1-10.6-13.1,2.1-5,5.7c1.8,0.8,9.7-0.5,7,4
		c-4,6.7,1.6,6.8,5.3,11.6c3.5,4.6,7.3,10.2,9.8,15.4c2.5,5.1,2,11.5,9,12.3c7.4,1,7.4-1.4,13,4.2c2.9,2.9,9.8,0.7,9.2,6.6
		c8.8-5.2,21.6,24.5,23.9,29.8c2.6,6.2,6,12,8.5,18.2c2.4,5.2,3.8,14.8,8.6,18.1c6,4.2,8.3,7.3,12,13.5c1.7,2.9,4.3,3.7,6.5,6.1
		c2.9,3.1-0.3,3.1-1,5.3c-0.9,2.6,6,7.8,0.7,7c-2.2-0.3-10.7-5.7-12.1-1.9c-0.2,0.5,8.6,8.5,9.5,8.7c3.5,1,4.2,4.1,7.3,5.4
		c3.1,1.2,7.2-1.5,9.7-2.8c-0.2,6.7,5,8.9,9.5,12.5c7.2,5.7,0.6,13.2,3.9,19.7c2.6,5,10.9,9.1,15,12.9c2.8,2.5,4.3,6.2,7.5,8.2
		c4.2,2.6,3.7,4.5,6.4,8.2c8-5,5-15.8-3.2-19.2c0.5,3.7-1.9,4-4.2,1.8c-3.6-3.6-1.4-8.6-3.7-12.8c-4.7-8.8-6.3-22.4-14.1-28.7
		c0.7,1.5,0.8,3.1,0.3,4.6c-2.7-0.5-12.6-19.4-13.5-21.9c-1.5-4.1-1.5-7.9-5.4-10.5c-1.3,0-4.4-4-4.8-4.8c-3.3-8-13.1-9.8-13.9-18.4
		c-0.5-4.9-1.3-9.3-4-13.4c-1.1-1.7-4.1-13.8-3.9-15.7c2.4,0.4,9.3,9.7,11,4.4c1.2-3.6,10,5.6,12.2,5.8c2,0.2,6.4,8.2,6.5,10.5
		c0.1,5.6,4.5,13.9,8.2,18c3.9,4.2,3.9,11.8,7.6,16.7c2.6,3.3,6.1,5.7,9.3,8.4c2.4-2.4,4.4-1.7,6.9,0.8c1.2,1.1,0.6,4.3,1.5,5.9
		c1.7,2.8,5.1,4,6.7,6.8c2.2,3.7,2.7,1.7,6.8,3c4.8,1.5,4,5.8,6.4,9.1c-3.1-4.4-6.4,4.4-5,7.6c0.6,1.3,5.3,2.5,7.1,4.1
		c2.1,2,5.1,2.2,7.5,3.7c3,2,1.2,3.7,2.7,6.3c2.5,4.7,30.4,31.8,34,35.9c4.8,5.4,6.8,12,14.3,11.9c6.9-0.1,13.9-0.3,20.8-0.4
		c31.2-0.6,62.5-1.2,93.7-1.8c0.6-6.1-22.4-35.1-20.5-41.1c1.9-6.2,4.4-12.3,5.6-18.6c1.3-6.7-4.7-8.9-4.3-14.3
		c0.3-4.4-3.9-6.7-3.3-10.1c6.2,4.7,10.1-1.2,3.9-4.9c-3.4-2,2.2-2.8,3.2-2.7c3.3,0.2,1.4-7.8,6.4-6.7c3.6,0.8,2-3.8,2.4-5.1
		c0.9-2.5,8.5,1.3,10.6,0.3c3.9-1.9,6.3-4.4,9.1-7.6c4.6-5-1.5-4.7,0.7-9.5c2.6,1.8,5.7-3.2,7.5-1.9c0.5,1.3,0.4,2.7-0.3,4.1
		c2.8,0,6.8,0.3,8.5-2.6c0.9-1.5,1.5-4.3,4-3c-1,1.8-1.9,3.7-2.8,5.6c8.1,0.3,16,0.6,24.1,1.1c-1.3-11.1,9.9-0.7,12.8-1.4
		c-0.7,3.3,0.1,8.9,5.5,7.7c2.3-0.5,2.8-3.7,5.6-3.1c2.5,0.5,2.1,3.7,5.3,2.1c-0.4-2.3-3-3.5-1.7-6.1c1.1-0.2,20,10.9,14.9,3.9
		c-1.2-1.5-10.4-2-7.8-5.5c0.7-0.9,3.8-7.8,0.3-4.8c-3.8,3.3-4.2-0.7-8.3-0.9c-3.8-0.2-0.5-6.2,2.9-4c5.7,3.6,6.9-0.8,12.4-1.6
		c3-0.4,6.2,1.4,9-0.4c1.9-1.1,2.6-3.6,4.6-4.8c4.7-2.8,5.4,7.6,9.1,5.3c4.2-2.5,3.6-2,7.8-1.2c6.7,1.3,10.5-1.7,17.3,2.9
		c0.8,0.5,4.8,8.2,4.1,8c11.4,0.7,18.3-13,27,0c2.7,4.1,7.2,7.6,9.4,12c3.7,7.1-2.2,12.2-1,18.5c0.2,0,7.9-9.1,5.3-0.6
		c-1,3.4-3.9,13.3,1.7,14.5c-0.4-2.7,1.1-3.2,4.6-1.7c-1.9,2.1-2.3,4.5-1.4,7.1c0,0.1,2.9-6.2,3.8-3.9c0.7,1.8-0.8,6.6-0.4,8.8
		c0.5,3.6,5.7,6.6,7.6,9.9c1.6,2.8,2.1,4.6,5.7,5c8.2,1,7.8-3.1,7-9.5c-0.8-5.6,2.6-10,2.6-15.3c-0.1-3.9-4.6-3.8-2.7-7
		c1.3-2.3-2.5-6.8-3.6-8.5c-2.9-4.5-2.3-10.1-3.9-15.1c0.7-0.1,1.4,0,2.1,0.3c-0.8-2.5-3.3-4.1-4.6-6.3c-2.4-4.2-2.9-8.4-3.8-13
		c-0.8-4-1.7-7.9-1.8-12c-0.1-2.5,0.3-5,1.3-7.3c-2.1-0.8-2.5-2.1-1.3-3.8c2.7-3.8,4.3-5.8,7.4-8.6c3.1-2.8-0.9-4-0.2-7.1
		c0.6-2.5,3.3,0,3,1.7c2.3-1.8-0.7-3,2.8-3.1c1.6,0,6.6-0.3,5.4-3.2c6,3,12.4-12.4,15-14.8c4.9-4.6,8.8-3,13.7-5.3
		c3.9-1.9,6.1-10,6.1-13.4c2.1,0.2,2.4,4.1,5,1.9c2.6-2.3,7.6-0.1,9.2-3.9c-5.3-2.2-4.5-0.1-7.5-5.7c1.9-0.2,5.2,6.7,5.5,1
		c0.3-4.9-5.3-1.7-6-5.8c-0.6-3.4,6.5,2.1,7.6-0.2c0.4,0.9,0.4,1.8,0,2.7c4.4-2.1,10.9,0.3,9.9-8.5c-2.1,0.4-2.1,2.8-4.5,2.7
		c-0.8-1.4-0.7-2.8,0.2-4.2c-1.2-0.3-16.3,0.8-9.1-6.4c-0.2-0.1,5.7,9.5,5,2.5c2.2,3.3,2,0.1,4.9,0.8c3.9,0.9-0.7-5.5-0.7-6.4
		c4.2,1.1,2.7-5.8-2.1-6c-2.3,0-13.7-7.9-13.8-7.8c5.3-3.1,7.9,4.8,12.2,5.2c0.5-3.8-5.1-4.6-6-7.8c0.5,0.2,10.6,5.9,5.7,0.5
		c-2.9-3.2-5.8-7.6-9-10.4c3.9-2.4,8.1,5.1,10.3,7.1c2.8-7.9-15.1-7.3-12.6-15c1-3,8.3,5.6,12.3,5.4c0.5-2.4-1.7-6.1-4.2-6.4
		c-0.1-2.6-0.6-5.2-0.5-7.8c0.2-3.3,6.5-9.9,10-9.6c0.7,7.2-5.4,15.9,3.2,21.5c3.9,2.5-2.5,14.9-3.4,17.8c6.5-0.4,9.6-20.3,12-24.8
		c-5-4-13-23.4,0-21.9c-1.3,2.3-5.9,4.2-5.3,7.3c0.6,3.2,4.6,7.4,7.5,8.6c3.2,1.3,10.2-13.5,10.7-16.9c0.3-1.9,0.6-6.4-2.6-5.9
		c-0.9-5,7.1-5.3,10.6-6.3c3.7-1.2,17.8-0.5,18.5-5.7c-6.5-2.6-25.8,12.7-24.8-3.2c2.7,0.2,0.9,5.3,4.1,4.3
		c4.9-1.5,9.1-4.2,14.6-5.4c3.8-0.9,7.6-1.8,11.4-2.7c1.8-0.1,2.9-1,3.5-2.6c1.2-4,1.6-2.2,5.6-2.7c-3.6,6.8,4.6-0.4,4.7-0.4
		c1.8,5.3,0.5,3,5,2c2.7-0.6,9.5-5.2,3.3-7c-3.1,15.3-6.6-5-9-4.8c-6.1,0.4-0.4-4.9-1.3-9.1c-1.5-7,5.6-10.4,9.3-15.2
		c1.4-1.9,0.1-4.6,2.3-6.5c1.3-1.1,6.8-6,5.9-1c7.1,2.1,7.2-9.7,10.7-10.9c0,0,4.6,9.2,5.6,0.9c5.1,2.3,5.6-1.2,11.5-3.7
		c6.8-3,5.3-1,5.1-8c-0.2-6.5,3.5-1.7,7-1c6.9,0.7,5.5-5.9,9.3-5.9c1,1.9-1.8,5.3,2.5,3.8c2.3-0.8,4.4-2.5,6.4-3.9
		c5.8-4.4,7.9-5.2,8.5-12.4c3.1,0.3,2.3,8.2,6.3,5.1c0.2,3.9-9.5,8.3-4.6,9.2c2.9,0.6,15.4-4.3,15.9,0.8c-2.7,0.5-5.3,1.1-8,1.9
		c-4.2,0.4-4.9,2-2.1,4.8c-2,0.3-5-3.1-2.9-4.9c-3.7-0.6-14.5,7.4-17.2,10.2c5.1-1.7-5.8,6.1-6.9,8.5c-2,4.5,2.6,11,2.6,8.4
		c2,0.4,4.4,10,7.6,4.9c1.2-1.9,2.5-8.9,4.7-3.5c2.9-4.6,6.6-6.5,9.2-11.7c1.8-2.8,1.1-5.5,5.7-5.7c-0.9,3.5,4,2.8,6.4,4.2
		c0.5-2.7-0.7-4-2.7-5.4c1.2-1.1,4.1,1.2,6.3,0.8c3.8-0.8,7.4-2.5,10.7-4.4c3.9-2.3,16.7-3.7,18.9-6.9c-1.7-0.7-3.5-1-5.4-1
		C548.9-146.6,536.5-148.5,536.6-150.8z M301.5-91.8c0.6-0.6,1.4-1.3-0.2,0.3c-0.3,0.3-0.3,0.3-0.2,0.2c-9.4,8.7-22.4,10.2-33,17.9
		c-5.5,3.9-11,4.8-17.6,3.7c-7.9-1.3-8.2-4.1-7.8-11c7.4-1.9,13.8-3.4,20.4-7.6c6.4-4.2,13.3-2.5,19.8-5.8c4.7-2.4,11.2-0.9,15.2-5
		C305.2-106.5,305.9-96.5,301.5-91.8z M340.8-116c0.1,0.4,0.2,0.7,0.2,0.9c0.9,5.1-5,5.5-8.5,6.1c-4.2,0.7-4.3,2.7-7.7,3.8
		c-4,1.3-8.7-0.6-12.7-1.2c-6.5-0.9-14.1,0.9-20.4,2.4c-2.2-9.9,9-11,16-12.2c12.7-2,24.4-7.3,36.8-10.7
		C343-124.5,336.8-118.9,340.8-116z"/>
	<path id="piece_3_" fill="#F6F0EF" d="M-148.3-66.5l-0.5-3.2c-1.2-0.9-2.8-1.9-4.3-2.7c-1.7,1.5-1.4,3.9-2.7,5.5
		c-1.7-1.5-3.8-8.7-7-6.4c-2,1.4,0.6,7.3,2.6,7.5c-0.3,10.6,8.1,9.2,14.7,4.2C-146.1-63.3-147.2-65-148.3-66.5z"/>
	<path id="piece_2_" fill="#F6F0EF" d="M278.5,166c-1.8,0.8-3.3,1.8-4.8,3.3l1.6,3.2C279.7,177.7,279.5,168.4,278.5,166z"/>
	<path id="piece_1_" fill="#F6F0EF" d="M323.9,169.8c-3.9-1.3-15.6,2.1-18.6,4.3c2.3,1.6,6.2,1.5,9,0.5l-2.1-1
		c2.9-2.3,7.1-1.7,10.5-1.5c0.3,0.2,2.1,1.6,2.6,2.1c-0.2,2.1-0.7,4.6-0.3,6.9C329.5,180.6,328.1,171.2,323.9,169.8z"/>
	<path id="piece" fill="#F6F0EF" d="M339.8,195.4l1,3.2c1.3,2.4,1.2,5.1,2.1,7.5C346.1,202.5,341.9,198.8,339.8,195.4z"/>
</g>
<g id="green">
	<path fill="#DEECD2" d="M306.7-27.8c-5.1,1-10.6,15.4-15,14.8c-5.3-0.7,14.8-12.4,4.7-16.5c-5.7-0.4-5.8-3.1-8,4
		c-1.6,5.5-6.5,7.1-6.5,13.5c1.2-0.7,2.3-0.7,3.5,0.2c0,2.7,0.5,5.7-1.1,7.6c-2.7,3.3-22.5,6-14.7,9.1c-3.4,1.3-6.5,3.1-9.3,5.4
		c9.6,5,16.5-10.7,25.6-10.7c-2.3,0.8-9.9,5.7-10.9,8.1c3.8-0.6,14.3-6.3,16.6-9.3C294.1-5,308.2-24,306.7-27.8
		C303.8-27.2,308.3-23.9,306.7-27.8z"/>
	<path fill="#DEECD2" d="M252,32.2c-4.8,1.5-4.3,2.5-9.5,2.1c-1.2-12.4,17.1-4.9,20.1-5.7c9.8-2.7-0.9-8,1.3-11.1
		c1.3-2,11.2-3.7,10.6-6.3c-7-2.6-24.6,12.6-30.9,15.9c-5.3,2.7-13.5,7.8-17.1,12.5c-9.3,12.6,12.6,7.5,17.2,5.7
		C237.1,56.7,255.4,35.5,252,32.2C250.4,32.7,254.7,34.7,252,32.2z"/>
	<path fill="#DEECD2" d="M246.8,12.4c3.4,1.4,10.5-1.8,4.5-4.2c1.5-1.9,3.2-3.5,5.1-5.1C249.8,3.3,249.5,6.8,246.8,12.4
		C248.5,13.2,247.6,10.7,246.8,12.4z"/>
	<path fill="#DEECD2" d="M241.1,2.9c-5.2-1.1-9.4,2.3-2.5,5.7C246.3,12.4,244.6,2.3,241.1,2.9z"/>
	<path fill="#DEECD2" d="M230.2,7.4c0.9-5.7,17.5-18,11.7-23.2c-0.6-0.6-19.2,24.8-18.7,29.9C229.2,14.2,229.4,12.6,230.2,7.4
		C230.5,5.4,229.4,12.7,230.2,7.4z"/>
	<path fill="#DEECD2" d="M220.4,49.7c0.4-2.7-3.3-1.9,0.5-4.9c-5.7,0-6.1,2.1-6.4,7.9C217.1,52.9,219.1,51.9,220.4,49.7
		C220.6,48.7,219.9,52.9,220.4,49.7z"/>
	<path fill="#DEECD2" d="M212.8,59.2c-1.5-0.3-11.6,12.7-8.7,14.3C209.4,69.2,213.1,64.3,212.8,59.2C209.8,58.5,212.8,60,212.8,59.2
		z"/>
	<path fill="#DEECD2" d="M238.6,73.1c0.8-0.2,1.5-0.7,1.9-1.2C237.7,70.3,235.6,73.9,238.6,73.1z"/>
	<path fill="#DEECD2" d="M257.9,54.4c-7.5,4.6,1.5,10.9,1.9,10.4C261.5,62.5,265,52.9,257.9,54.4z"/>
	<path fill="#DEECD2" d="M263.3,49.9c-1,7.7,8.7,1.2,7.3-0.9C268.7,45.7,264.1,44,263.3,49.9z"/>
	<path fill="#DEECD2" d="M286.2,47.4c-1.5-0.4-2.2,0.3-2.1,2.1c1.5,0.2,3.2,0.1,4.7-0.1C287.9,48.7,287.1,48.1,286.2,47.4z"/>
	<path fill="#DEECD2" d="M287.1,66.9C288.3,86.9,299.2,61.7,287.1,66.9C287.2,68.8,290.1,65.6,287.1,66.9z"/>
	<path fill="#DEECD2" d="M254.5,103.7c-2.3,0.7-3.6,17.7,0.7,16.8C255.7,118.2,264.7,100.6,254.5,103.7
		C250.7,104.8,256.2,103.2,254.5,103.7z"/>
	<path fill="#DEECD2" d="M263.1,120.5c-2.7-1.9-2.7,2.7-2.9,4C262.2,124.2,263.2,122.8,263.1,120.5
		C262.6,120.2,262.3,122.1,263.1,120.5z"/>
	<path fill="#DEECD2" d="M268.1,134.6c-0.1-0.2-4.1-6.7-4-6.7C256.6,138.1,263.3,138.7,268.1,134.6
		C267.4,132.7,266.7,135.9,268.1,134.6z"/>
	<path fill="#DEECD2" d="M224.9,115.8c-12.4,4.3-2.1,9.4,4.2,2.1C228.6,115.5,227.2,114.8,224.9,115.8
		C223.7,116.1,226.5,115.2,224.9,115.8z"/>
	<path fill="#DEECD2" d="M278.8,186.1c-1.2-0.7-7.7-11.8-9.5-4.3C266.2,194.7,287,190.4,278.8,186.1
		C277.2,185.3,280.7,187.1,278.8,186.1z"/>
	<path fill="#DEECD2" d="M193,104.7c-0.9,4.7,7.6,0.3,8.3-0.8C201.3,102,193.4,102.7,193,104.7C192.7,106.4,193.4,102.8,193,104.7z"
		/>
	<path fill="#DEECD2" d="M168.1,108.8C169.5,108.8,168.1,108.8,168.1,108.8L168.1,108.8z"/>
	<path fill="#DEECD2" d="M168.1,108.8c3.5-5.4-7.2-8-8.1-4.2c0.4-1.7,2.8,9.7,2.2,8.7C164.6,117.2,166.6,108.7,168.1,108.8
		C168.9,107.6,167.4,108.7,168.1,108.8z"/>
	<path fill="#DEECD2" d="M165.4,97C160.4,107.6,180.5,93.8,165.4,97C165.4,97,166.8,96.8,165.4,97z"/>
	<path fill="#DEECD2" d="M161.7,86.9c0.7,2.1-3.9-8.7-6.9-6.4C150.5,83.6,161.8,94,161.7,86.9z"/>
	<path fill="#DEECD2" d="M141.7,95.5C125.4,103.5,144.8,106,141.7,95.5C140,96.2,141.7,95.5,141.7,95.5z"/>
	<path fill="#DEECD2" d="M143.8,77.3c1.5,0.9-2.3-3.4-3.9-1.4c-0.5,2.6,0.3,4.5,2.6,5.9c-0.3-1.1-0.5-2.3-0.5-3.5
		c1.2-0.3,2.2,0.1,3.2,0.9C145.7,77.5,145.3,76.9,143.8,77.3z"/>
	<path fill="#DEECD2" d="M158.1,49.7c0.5,1.6,1.4,3,2.5,4.3c2.7-1.2,8.1-7.8,5.7-10.9c-3.6-4.8-7.2,4.8-3.9,4.8
		C161,47.7,158.5,47.8,158.1,49.7C157.8,52,158.5,48.2,158.1,49.7z"/>
	<path fill="#DEECD2" d="M188.2,50.9c0.6-1.2-4,0.9-3.1,5.4c1.3,6.3,6.3-2.1,7.9-3.4C191.5,52.2,189.9,51.5,188.2,50.9
		C188.4,50.6,189.7,51.9,188.2,50.9z"/>
	<path fill="#DEECD2" d="M111.5,93.8c1.6,1.4,3.4,2.3,5.4,2.9c1.5-1.1-2.3-10.4-4.3-10.2C107.6,87.2,107.5,93.4,111.5,93.8
		C113.4,94.1,110.2,93.8,111.5,93.8z"/>
	<path fill="#DEECD2" d="M117.3,103.7c-1.5-0.9-10.9,1.5-7.3,2.9c0.9,0.3,8.1,0.1,8.5-0.4C118.1,105.3,117.8,104.6,117.3,103.7z"/>
	<path fill="#DEECD2" d="M100.6,95.5c-0.3-1.4-4.4-5.8-5.7-2.4c0.3-0.7,3.3,12.1,3.2,12C103.4,109.9,101.5,97.5,100.6,95.5z"/>
	<path fill="#DEECD2" d="M93.7,100c-0.4-0.6-0.3-3.2-3.4-2.7c0.3,2.2,0.9,4.3,1.9,6.3c-1-1.3-2.4-2-4-2.1
		C87.8,109.2,93.1,105.3,93.7,100z"/>
	<path fill="#DEECD2" d="M84.1,101C84.8,101.8,84.1,99.5,84.1,101C84.2,101.1,84.1,100.9,84.1,101z"/>
	<path fill="#DEECD2" d="M79.1,95.7c-4.1,0.6-1.5,8.6,1.4,9.3C87.2,106.8,83.3,95,79.1,95.7C76.5,96.2,82.4,95.2,79.1,95.7z"/>
	<path fill="#DEECD2" d="M81.3,111.9c-0.2,0-15-2.1-7.4,3.3c3.9-3.9,3.3,2,8.7,1.5C82.7,118.8,81.4,112.2,81.3,111.9z"/>
	<path fill="#DEECD2" d="M103.3,43.2c1.7-3.4,2.2-2.7,3.5-6.7c-5.4-1.6-4.7,1.8-8.5,3.8c1.2,1.3,1.3,2.5,0.2,3.8
		c-2.7,0.9-7.6-1.9-12.4,0.3c-5.8,2.7,11.1,4.1,11.2,3.4c-0.3,2-4.6-0.4-4,3.4c0.8,5.2,19.5-6.8,20.7-8
		C112.4,39.8,105.8,43.9,103.3,43.2C103.9,42,106.3,44.1,103.3,43.2z"/>
	<path fill="#DEECD2" d="M102.2,36.2C103.2,34.3,102.2,36,102.2,36.2C102.2,36.2,102.2,35.9,102.2,36.2z"/>
	<path fill="#DEECD2" d="M102.8,35.5C102.8,35.5,103.4,34.6,102.8,35.5L102.8,35.5z"/>
	<path fill="#DEECD2" d="M96.9,32.3c5,1.5,19,4.4,15.3-4C107.9,18.5,93,31.1,96.9,32.3C98.3,32.6,95,31.7,96.9,32.3z"/>
	<path fill="#DEECD2" d="M122,22.9c-1.5-1.2-3.3-1.6-5.5-1.3C113.2,31.9,127.6,21.1,122,22.9z"/>
	<path fill="#DEECD2" d="M106,16.2C95.4,8.8,100.7,21.5,106,16.2C105.4,15.7,104,18.1,106,16.2z"/>
	<path fill="#DEECD2" d="M111.1,15.9c1.4,0.8,6.9,0.3,5.6-2.6c-4.4,0.8-4.5-7.5-8.3-6.3C105.7,7.9,110.4,15.5,111.1,15.9
		C112.7,16.8,110,15.3,111.1,15.9z"/>
	<path fill="#DEECD2" d="M120.6,9.3c0.6,1.2,1.1,2.5,1.6,3.7c2-1.5,2.7-3.6,2.4-6.1C118.4,6.7,123.1,7.2,120.6,9.3z"/>
	<path fill="#DEECD2" d="M126.2-8.6c-1.6,0-1.5,4.5-2.9,5.1c-1.3,0.5-1.7-3.7-2.6-3.4c-6.3,1.6-2.4,6.8,1.5,5.8
		C123.5-1.4,130.8-8.6,126.2-8.6C124.7-8.6,128.3-8.6,126.2-8.6z"/>
	<path fill="#DEECD2" d="M135.2,2.1c3.9,0.8,8.1-8.5,1.4-10.7C133-9.8,130.5,1.2,135.2,2.1C137.2,2.5,134.7,2,135.2,2.1z"/>
	<path fill="#DEECD2" d="M134.2,15.6c12.9,5.1,2.1-14.3-2.3-8.7C131,8.2,134.6,13.7,134.2,15.6C136.6,16.6,134.7,12.9,134.2,15.6z"
		/>
	<path fill="#DEECD2" d="M145.4,5.8c-2.7,0.5-2.1,2.2-4.5,3.4C147.9,15.6,149.1,4.9,145.4,5.8z"/>
	<path fill="#DEECD2" d="M149.7-4.3c-3.4-0.7-1.5,3.6-1.8,5.1c-1.1,0.2-4.2-2.1-2.3-3.2c-0.5-0.2-1-0.3-1.6-0.5
		c-3.9,1,1.6,4.7,2.6,4.8C150.7,2.2,152.6-3.8,149.7-4.3C146.4-5,151.7-4,149.7-4.3z"/>
	<path fill="#DEECD2" d="M173.7-5.2c-4.1-0.3-11.4-2.4-15-2.1c0.3,0,1.1,12.3,1.2,12.9c3.7,0,2.4-5.8,3.6-7.8
		c2.6-4.3,8.4,8.5,9.2,7.5c0.7-2,0.9-4,0.5-6.1c1.5-0.2,3.1-0.3,4.5-0.6C177.5-3.8,176.2-5.1,173.7-5.2C170.8-5.4,175-5.1,173.7-5.2
		z"/>
	<path fill="#DEECD2" d="M198.2-6.7c1.6-3.9,3.6-15.7,0.2-17.4C195.3-25.7,192.6-8.8,198.2-6.7C199-8.7,194-8.3,198.2-6.7z"/>
	<path fill="#DEECD2" d="M201.1-28.3c2.9,1.9-1.7,3.2,2.2,4.9C207.3-26.3,202.6-30.9,201.1-28.3C201.5-28,202.9-31.2,201.1-28.3z"/>
	<path fill="#DEECD2" d="M252.3-19.8c0.7,0.1,5.5-0.1,6-0.8C262.6-26.6,242-21,252.3-19.8C253.2-19.7,247.9-20.3,252.3-19.8z"/>
	<path fill="#DEECD2" d="M259.3-33.6c1.3,1.3,1.2,2.3,3.4,1.4c-3-4.5-6.4-11.8-8.7-0.3C255.7-33.2,257.5-33.6,259.3-33.6z"/>
	<path fill="#DEECD2" d="M271.6-33.6c1.2-0.3,5.6-4.6,4.3-6.3C272-44.8,266.5-32.1,271.6-33.6C272.2-33.8,268.5-32.7,271.6-33.6z"/>
	<path fill="#DEECD2" d="M-25.1,129.6c-5.1-5.5-6.1-0.8-9.9,2.7c-2.1,1.9-1.2,5.1,1.4,5.8C-23.8,140.9-26.4,134.1-25.1,129.6z"/>
	<path fill="#DEECD2" d="M-52,82.1c-1.5,3-3.7,4.4,1.6,7.2C-45.1,86.3-51.3,84.8-52,82.1z"/>
	<path fill="#DEECD2" d="M-59.2,75.4c-4.1-4.1-12-3.1-7.3,4.1C-61.8,86.7-59.5,75.9-59.2,75.4z"/>
	<path fill="#DEECD2" d="M-61.3,61.6c-1.5-9.3-7.5,14.2,0.3,7.6c-2.6-8.1,4.5-2.6,5.1-4.3C-55,62.2-59.5,60.5-61.3,61.6
		C-61.4,61.1-59.4,60.5-61.3,61.6z"/>
	<path fill="#DEECD2" d="M-65.9,49.9c-3.5,1.4,3.3,5.1,3.2,5.1C-59,53.5-65.8,49.9-65.9,49.9C-66.4,50-65.3,50.5-65.9,49.9z"/>
	<path fill="#DEECD2" d="M-85,62.6c-0.7-1.4-0.6-4.8-2.7-5.1c-2.2-0.3-0.9,10.4,2.1,10.1C-84.4,67.6-82.3,61.4-85,62.6z"/>
	<path fill="#DEECD2" d="M-91.2,66.2c-4.6,1.1-9.9-0.5-8.8-6.7c2.2-13.5-7.5,6.2-14.7-2.9c-8.1-10.2-20.4-6.3-26.6-21.5
		c-4-10-13.6,2.6-14.8-0.5c4.6,11.8,9.2,21,17.1,31.5c6.5,8.7,5.9-3.9,5.4-6.9c-1.4-8,7.8-4.5,11.7-3.2c6.5,2.3,7.1,5.3,8,11.8
		c1.4,10.5,5.5,0.9,10.1,3.5c4.3,2.5,4.2,6.7,9.9,7.3C-87.1,79.4-91.6,69.3-91.2,66.2z"/>
	<path fill="#DEECD2" d="M-92.3,42.9c-1.8,0.7-1.8-7.5-4.6-9.3c-7.2-4.6-6.3,3.4-0.2,5.7c-3.4,1.4-1.4,5.5,1.9,3.6
		c-1.3,4.4,2.2,4.8,5.3,4.3C-90.6,45.6-91.3,44.2-92.3,42.9z"/>
	<path fill="#DEECD2" d="M-84.6,33.7c2-3.1-5.7,1.5-4.7,1.1c0.3-1.3,0-2.5-0.9-3.5c-0.8,2.3-0.6,4.5,0.5,6.7
		C-88.8,36.7-86.2,33.6-84.6,33.7C-84.5,33.7-86.7,33.6-84.6,33.7z"/>
	<path fill="#DEECD2" d="M-69.8,21.6c1.5-1.9,4.6-0.2,5.4-1.2C-61.2,15.9-75.9,4-70,0.7c-1.6-3.4-1-16.5-4.9-13.1
		c1-2.5,6.3-5.5,9.9-4.5c0,3.5-2.1,10.3,4.3,13.3c5.6,2.7,0.9,11.1,7.8,8.9c8.7-2.7-4.9-9.5-7-13.4c-8.7-15.8,8.1,3.6,6.7,3.8
		c9.9-0.9-11.2-16.5-10.9-16.2c-2.9-2.7-2-3.3-3.1-7.3c-2-6.9,3.7-1.7,6.6-1.9c0.4-1.8-1.5-9-1.7-11.4c-0.5-5.7-20-0.8-8.5,2.8
		c-4.6,5.3-7.5-1.7-7.8,6.1c-5.3,1-9.6-3.8-14.9-2.1c0,2.6-3,6.1-2.7,7.7c1.1,0,6.4,2,7.7,1.6c-1.3,2.3-1.8,4.8-1.5,7.4
		c7.1-0.9,6.9,0,8.7-5.2c1.9-0.2,5.7,6.2,5.3,7.8c-4.2-2.7-9.1,7.6-12,8.4c-0.1-10-12.4-2.9-12.5,0.8c-0.3,11.7,8.2,4.2,13.4,9.3
		c3.7,3.6,9.9,3.3,12.6,5.7c9.6,9-4.5,6.7-6.5,7.4c-0.4,4.1,8.9,19.5,9.1,12.3c-1.5-0.3-2.8-0.5-4.3-0.4c-2.6-0.9,2-6.9,4.4-2.5
		c-0.3,0.3,0.7,5.7,1.8,5.9C-66.7,32.6-71,23-69.8,21.6C-68.7,20.2-71.5,23.5-69.8,21.6z"/>
	<path fill="#DEECD2" d="M-84,9.6c-2.6,0.9-6.3,7.8-1.4,8.1C-82,17.8-80.9,10.3-84,9.6z"/>
	<path fill="#DEECD2" d="M-56.5,36.7c0.4-3.1-0.3-15.3-0.9-18.5c-7.8-1.9-9.9,22.4-3.3,19.6c0.3-2.1-0.4-3.6-2.1-4.8
		C-58.9,31.8-59.8,36.7-56.5,36.7C-56,32.8-59.5,36.7-56.5,36.7z"/>
	<path fill="#DEECD2" d="M-52.5,10.9c-2.9-0.2-8.6-2.1-8.3,3.3C-58.7,15.2-53.5,12.5-52.5,10.9C-56.5,10.7-53.2,12-52.5,10.9z"/>
	<path fill="#DEECD2" d="M-31.1-6c-1.4-0.4-7.3-2.1-8.4,1.1C-37-1.6-32.2-2.1-31.1-6C-33-6.6-31.7-3.8-31.1-6z"/>
	<path fill="#DEECD2" d="M-34.7,3.1c-0.9,2.3,13.4,4.5,13.5,4.5c7.9,1.2,3.1-7,0.4-6.9C-22.3,1.3-34.1,1.7-34.7,3.1
		C-35.7,5.4-34.2,2.1-34.7,3.1z"/>
	<path fill="#DEECD2" d="M-20.8,14.1c-0.8-0.3-6.9-1.1-6.9-1.1c-0.7,0.3-0.7,5.9-0.8,6.4C-22.2,21.7-7.3,19.4-20.8,14.1z"/>
	<path fill="#DEECD2" d="M-55.7-26.7c0.4,2.2,1.3,4.3,2.6,6.2C-41.1-30-61.2-39.9-55.7-26.7z"/>
	<path fill="#DEECD2" d="M-84.6-56.6c3.9-0.9,5.7,0.7,5.4,4.5c0.3,2.7,1.1,5.3,2.4,7.7c2-4.5,2.7-10.1,3.2-15.2
		c0.4-4.1-9.7-13.3-11.7-5.4C-78.8-58.3-87.1-58.9-84.6-56.6C-83.1-55.4-87.5-59.2-84.6-56.6z"/>
	<path fill="#DEECD2" d="M-86.4-35.8c8,0.6,7.1-13.3,0.3-13c-0.3,3.3-2.2,4-5.7,1.9C-91.4-43.4-94.7-36.5-86.4-35.8
		C-82.5-35.4-88.7-36-86.4-35.8z"/>
	<path fill="#DEECD2" d="M-69.8-53.7c-9.4,1.5,9.3,8.1,8.7,8.5c1.1-2.5,1.9-5.1,2.4-7.8C-61.8-54.4-65.2-54.5-69.8-53.7
		C-76.2-52.6-67.8-54.1-69.8-53.7z"/>
	<path fill="#DEECD2" d="M-70.6-62.9c1.1,0.5,4.5-0.1,5.4-0.2C-67-77.9-79.2-66.8-70.6-62.9C-69.4-62.3-71.4-63.2-70.6-62.9z"/>
	<path fill="#DEECD2" d="M-30.6-63.6c-0.9-1-18.6,2.1-19.6,3.3C-54.1-55.4-19.2-50.2-30.6-63.6C-33.8-67.3-27.9-60.3-30.6-63.6z"/>
	<path fill="#DEECD2" d="M-152.7-3.9c5.4,4.3,9.3-5.7,15.9-4.4c7.7,1.5,7.9-1.3,12,6.3c2.9,5.3,9.8,7,11.2,0
		C-112.2-9-97.8-13.2-99.9-18c-4.2-9.3-7.9-19.9-16.9-12.7c-3.3,2.6-3.2-8.6-3.3-9.3c-7.8-1.1-1.5,6.5-3.3,9.9
		c-1.1,2.1-11.4,5.7-11.5,5.1c-2.5,0.1-1.3-9.4-4.4-12.1c2.1-2,14.4-6.7,14.1-8.5c-2.7,0.2-10.3-1.2-13.2-2
		c-1.4-7.4,10.5-6.5,14.6-6.4c2.1,0,19.4-5.9,11.7-9.2c-4.5-1.9-16-0.8-20.1,1.2c-7.7,3.7-5.9,3.1-10.3,9.3
		c-1.7-2.3-3.5-4.6-5.3-6.9c-0.3,3.4,4.6,11.2,6.3,13.9c4.2,6.2-0.9,2.7-1,8.1c-0.5,17.2-7.9,1.3-11,2.7c-3.9,1.9,5.6,9.4-1.1,10.6
		c-5,0.9-0.8,7.8-1.6,11.1c-0.8,2.9-9.1,7.6-4.5,11C-155.5,2-155.6-1.2-152.7-3.9C-151.1-2.6-153.6-3.1-152.7-3.9z"/>
	<path fill="#DEECD2" d="M-146.4-67c13.4,5.6,5.7-16.2,5.6-23.4C-144-89.1-150.9-67.7-146.4-67z"/>
</g>
<g id="state-lines">
	<polygon opacity="0.5" fill="#D8D2D2" enable-background="new    " points="184.2,-153.3 180.8,-155.2 180.8,-157.4 165.7,-162 
		162.6,-162 179.9,-156.8 179.9,-154.7 183.3,-152.8 183.3,-143.8 186.8,-143.8 186.8,-144.7 184.2,-144.7 	"/>
	<path opacity="0.5" fill="#D8D2D2" enable-background="new    " d="M299.1-38.4h-14.6v-16.3h0.9v-0.9h-0.9v-26.6h-0.9v26.6h-0.4
		l0.3,5.7l-3.1,12.4l-9.3,3.3l-2.3,8.1l-4.4-2.4l-2.1,8.5l-5.8,2.9l-2.3-5.5l-13.4,2.7l-5.5-3.6l-3.9-3.9h-6.1v-47.2h16.3v-0.9
		h-16.3l0,0h-0.9l0,0h-24.9v0.9h24.9v53.2h-7.4l1.1,3.7l-9.2,8.4l-4.2-2.7L201-6.5l-2.6-2.4l-4.1,4L186.9-9v3l-4.2-1.6l-1.3,2.4
		l0.7-7.5l7.4-8.4l-1.6-8.1l1.6-45.2h-0.9l-1.6,45.2v0.1l1.5,7.8l-7.3,8.3L179.9,0l-5.1,1.5v5.6l-6.6-2.5l-2.1,4.6l0.8,0.3l1.7-3.9
		l7,2.7V2.2l5.1-1.5l0.3-3.9l1.9-3.5l4.6,1.8v-2.8l6.7,3.8l4-3.9l2.7,2.5l3.9-5.6l4.1,2.7l10.1-9.2l-0.9-3.1h7.1v-6h5.8l3.6,3.7
		l5.9,3.9l13-2.6l2.4,5.7l0.9-0.5l0.9,9l6.3,6.9l-15.2,14.2l0.6,0.6L265,0.3l4.5,5.1l21.2-6l7.5-18.3l4.7,3.7l3.2-6.9h3.4l4.5-4.5
		l1.8-6.1l7.1,4l1.6-2.2l10.8,9.1l0.5-0.7l-11.5-9.7l-0.2,0.2l-1.2-5.5l-5.2-0.1l-3.8,1.5l-5.1-1.5l-9.2,6.4v-6.4h51.4v-0.9h-51.4
		h-0.6V-38.4z M309.3-36.5l5,1.5l3.9-1.5l4.4,0.1l1.2,5.3l0.3-0.1l-1.1,1.5l-7.4-4.2l-2.1,6.9l-4.1,4.1h-3.7l-3,6.4l-4.8-3.7
		l-7.7,18.9l-20.3,5.7l-10.9-12l-0.9-9.1l5.2-2.6l2-7.8l4.3,2.3l2.5-8.7l9.3-3.3l2.4-9.9v9h15.4v8.1L309.3-36.5z"/>
	<path opacity="0.5" fill="#D8D2D2" enable-background="new    " d="M242.4-160.7v6.8l15.2,9l6.6,33.2l-6.9,20.3l-8.8,4.7v3.9
		c0.3-0.1,0.5-0.2,0.9-0.2v-3.2l8.7-4.7l7.1-20.7v-0.1l-6.7-33.5v-0.2l-15-8.9v-6.9l-2-0.7h-2.6L242.4-160.7z"/>
	<path opacity="0.5" fill="#D8D2D2" enable-background="new    " d="M-218.2-158.8l0.4,0.4h-27.5l-22.5,7l-17.6-1.5l-7.2,2.1l-4.1-2
		l-2-6.3c-0.3-0.5-1-1.8-1.6-2.9h-1.1c0.5,0.9,1.3,2.2,1.8,3.3l2.1,6.6l4.7,2.3l7.4-2.2l17.6,1.5l22.5-7.1h28.3l5.7,6.3l-11.1,23.5
		l5.1,4.8l-2.4,41.4l0.9,0.1l2.4-41.8l-4.9-4.6l11-23.3l-7.1-7.9l-1.3-2.8h-0.8L-218.2-158.8z"/>
	<path opacity="0.5" fill="#D8D2D2" enable-background="new    " d="M180.3,14.8l1.4,2.6h-19.2l3.7-2.2V9.5l-4.5-5l-1-8.2L149.8-13
		l3.3-10.8l-7.6-1l-0.8-6.5l-8.2-8.1l-1.3-12.3l-0.2-0.2l7.2-11.4l-0.9-6.9l9-3.4l1.1-5v-5.4l-5.1-5.8h34.3v-0.9h-35.1l-4.9-5.6
		l-6-22.6v-0.2l-17.6-15.2l1.8-14.5l-3.3-4.5l7.5-7.5l0.2-1.1h-0.9l-0.1,0.8l-7.9,7.9l3.5,4.9l-1.8,14.7l17.7,15.3l5.9,22.5v0.1
		l10.7,12.2v5l-0.9,4.5l-9.3,3.4l0.9,7.3l-6.9,11.1l-3.5-3H76.4L65.9-90.3v-0.2l-1.5-1.1l-0.8-3.5l3-5.8l-2.8-7.7h72.4v-0.9H65
		v-35.3l-4.9-6.6l1.8-4.5h0.5v-0.9h-0.1l2.1-5l0.1-0.1l0-0.2h-0.9l0,0.1l-2.1,5.2H-40.4v-5.3h-0.9v23.3h-96v8.6h-16.6l-6.9,3.7
		l-3.8-8.5l-4.5-1.9l-7.3-17.5l-4.9,6.4l-3.2-2.7l1.9-11.5h-1l-2,11.8l4.2,3.5l4.5-6l6.9,16.4l4.5,2l3.9,9.1l7.6-4h16.5v48h-178.3
		v0.9h54V-27l71.8,67l0.3-0.3v3.5l9.8,11.7l-4.6,6v6.9l-4.9,7.5l0.5,6.1l-30.6,3.8l0.1,0.9l33.5-4.1l-3.1,4.7l52.7,21.6H-97V97h23
		l21.2,17.4l6.9,14.3l14.7,10.1l7.3-2.5l2.6-9.3l10,0.6L4.4,138c4.1,7.6,11.7,22.1,12,22.5c0.1,0.2,0.2,0.3,5.7,4.5v10.3l11.1,10.1
		l19.8,5.9l0.3-0.9l-19.6-5.9L23,174.9v-10.3l-0.2-0.1c-2.1-1.5-5.3-3.9-5.7-4.3c-0.6-1.3-8.6-16.1-12-22.6l-0.1-0.1L-11,126.8
		l-10.9-0.6l-2.7,9.6l-6.5,2.2l-14.1-9.8l-6.9-14.2l-21.6-17.8h-2.7v-0.9h49.7V9.6H90.8v11.2l2.6,13.4V67l-10.8-4.8l-15.4,3.4
		L58.2,61l-3.5,2.4v-2L44.8,61l-2.1-2.8l-5.7,1.4l-7.4-1.3l-4.1-6.8l-6.3,2.3l-3.9-4V19h-41.2v0.9h40.3v30.3l4.6,4.6l6.2-2.2
		l3.9,6.5l8,1.4l5.3-1.3l2.1,2.8l9.4,0.4v2.7l4.5-3l8.7,4.5l15.4-3.4l11.7,5.1l0.3-0.8l4,1v25l8,15.8l-6.2,21.8l0.9,0.3l6.3-22.1
		l-8-15.9V78.1h38.3l2.8,6.3l-3.4,0.7l5.2,3.9l-9.1,9.3l-2.4,13.2h28.3l-2.5,5.1l2.3,5.1l0.8-0.3l-2.1-4.6l2.9-6h-28.6l2.2-12
		l9.2-9.8l-4.5-3.4l2.6-0.5l-3.2-7.1l1.6-7.5h-1.8l-1.6-4.5l2.1-0.3v-5.7l7.7-7.2v-4.4l4-1l-0.2-0.9l-4.7,1.2v4.7l-7.7,7.2V65
		l-2.4,0.3l2.2,6.1h1.3l-1.3,6H99.3V68l-5.1-1.3V34.2l-2.6-13.4v-2.6h60.5l1.5,4.3l-3.7,5.1h8.8l0.7,1.3l-7.6,9l-1.6,6.9h28.8
		l-2.5,70.6h0.9l2.5-70.6h35.9l5.1,35.7l4.3,8.7l-4.6,8.1l3.9,13.5h-37.4l1.5,8.2l0.9-0.2l-1.3-7.2h36.3v-0.8l0.9,3.3l35.8,3
		l1.7,4.7l4.4-6.9h1.8v-0.9h-2.2l-3.7,5.7l-1.3-3.6l-35.8-3l-4.6-16l4.7-8.2l-4.4-8.9l-5.1-35.5h31.5l-2.1,3.8l7.5,5.7l4.6,8.5
		l12.9,12.9l6.5,16.5l0.8-0.3L272,75.1l-13-13l-4.6-8.5l-7-5.5l1.9-3.6h1l9.8-4.5l18.1,1.3l4.5,4.9h12.9L311,61.5l0.6-0.6
		l-15.8-15.5H283l-4.5-4.9l-18.6-1.4h-0.1l-9.7,4.5h-0.4l0.1-0.3L249,43l-0.3,0.6h-15.6v-4.7l5.6-3.7l13.1-5.1l4.2-5.3l3.6,1.7
		l9.6-5v-6.3h76.3v-0.9H180.3V14.8z M-40.4-155.8H61.1l-1.9,4.5l5,6.7v35h-1.5l3.2,8.6l-3,5.7l0.6,2.7L56.3-98l-0.2-0.1l-11,2.1
		l-7.5-3.2h-78.1V-155.8z M-136.4-137.8h95.2v74.6h-95.2V-137.8z M-178.4-80.4h41.2v18h26.6V8.8h-67.7V-80.4z M-189.6,39.1
		l-71.2-66.5v-53h81.4V26.8h-10.3V39.1z M-110.7,107.4h-25.2l-51.7-21.2l3.6-5.4l-3.9,0.5l-0.5-5.7l4.9-7.5v-6.9l4.8-6.3l-9.9-12
		V27.7h10.3v-18h67.7C-110.7,9.7-110.7,107.4-110.7,107.4z M-27.6,94.5h-49.7v1.7h-20.6v11.1h-12V9.6h82.3V94.5z M-13.8,8.8h-96
		v-71.2h69.4v-36h77.9l7.5,3.3l10.9-2.1l9.3,7.2L79-44.4h-92v-18h-27.4v0.9h26.6V8.8z M90.8,8.8H-13v-52.3h93.2L80-44.4l6,1.9
		l1.5,2.7l-3.4,3.3l6.7,8.9V8.8z M158.2,26.5l-0.1,0.3h-6.5l3-4.2l-1.9-5.2H91.6v-45.2l-6.3-8.6l3.3-3.2l-2.1-3.7l-6.3-2L80-44.4
		l-3.1-10.2h53.8l3.9,3.3l1.3,12.3l8.2,8.1l0.8,6.9l7.3,0.9L149-12.6l10.9,9.4l1,8.1l4.5,5v4.8l-4.6,2.8L158.2,26.5z M268.2,15.6
		v5.7l-8.7,4.5l-3.8-1.8l-4.5,5.7l-12.9,5l-6.1,4v5.1h-52.3v-0.4h-0.9v0.4h-27.7l1.3-5.6l7.9-9.3l-1.4-2.5l2.3-8.5l0.4-0.3v0.4h21.3
		l-1.4-2.6H268.2z"/>
	<path opacity="0.5" fill="#D8D2D2" enable-background="new    " d="M360-63.1l5.6-5.9l0.1,0.1c0.1-0.3,0.1-0.6,0.3-0.9l-2.1-1.3
		l-1.9-6.6l-5.1-3.6h-62v-6.3c-0.3,0.2-0.5,0.3-0.9,0.4v6.8h62.4l4.7,3.3l2,6.7l1.7,1l-5.7,6v8.9l5.7,6.6l-8.3,4.6l0.5,0.7l9.1-5.2
		l-6.1-7.1L360-63.1L360-63.1z"/>
	<polygon opacity="0.5" fill="#D8D2D2" enable-background="new    " points="467.2,-150.4 461.1,-154.3 461.1,-162 460.3,-162 
		460.3,-153.6 466.2,-149.8 464.3,-144.7 470.6,-138.9 471.2,-139.5 465.2,-145.2 	"/>
	<path opacity="0.5" fill="#D8D2D2" enable-background="new    " d="M418.3-144.2v-4.2l8.6-8v-5.6H426v4.8l-8.6,8v3.5l-4-1l-0.2,0.3
		c0,0-1.6,2.8-3.5,5.3c-1.7,2.4-3.4,2.4-3.5,2.4h-39.1l-8.5,4.2l-12.4,10.1l-5.2,10.5v1h0.4l5.4-10.9l12.3-9.9l8.3-4h12.7l3.3,25.5
		l2.7,1.3l-1.3,16.4L381.4-82v14.2l-3.4,1.9v2.8h0.9v-2.3l3.4-1.9v-12.9h29.8l5.3,3.6l0.5-0.7l-5.5-3.8h-30.2v-0.8l3-11.2H414v-0.9
		h-17l5.5-31l7.2-4.7v-9.7h-0.1c0.3-0.3,0.6-0.6,0.9-1c1.5-2.1,2.9-4.4,3.3-5.1l1,0.3v36.9l3,5.2l0.8-0.4l-2.9-5v-36.4L418.3-144.2z
		 M408.8-130.4l-7.1,4.7l-5.6,31.5h-10.6l0.2-0.6l1.3-17l-2.7-1.3l-3.3-24.9h25.2c0.1,0,1.2,0,2.6-1V-130.4z"/>
</g>
<g id="marker">
	<path id="pin_1_" fill="#B9252D" d="M60.8,28.3c0.9-1.4,1.4-3,1.4-4.7c0-4.9-3.9-8.9-8.9-8.9s-8.9,3.9-8.9,8.9c0,1.9,0.6,3.6,1.5,5
		l7.4,8.9L60.8,28.3z"/>
</g>
<g id="marker_1_">
	<path id="pin_2_" fill="#B9252D" d="M43.1,84.3c0.9-1.4,1.4-3,1.4-4.7c0-4.9-3.9-8.9-8.9-8.9s-8.9,3.9-8.9,8.9c0,1.9,0.6,3.6,1.5,5
		l7.4,8.9L43.1,84.3z"/>
</g>
<g id="marker_2_">
	<path id="pin_3_" fill="#B9252D" d="M55.9-13.2c0.9-1.4,1.4-3,1.4-4.7c0-4.9-3.9-8.9-8.9-8.9c-4.9,0-8.9,3.9-8.9,8.9
		c0,1.9,0.6,3.6,1.5,5l7.4,8.9L55.9-13.2z"/>
</g>
<g id="marker_5_">
	<path id="pin_6_" fill="#B9252D" d="M287.7,163.8c0.9-1.4,1.4-3,1.4-4.7c0-4.9-3.9-8.9-8.9-8.9s-8.9,3.9-8.9,8.9
		c0,1.9,0.6,3.6,1.5,5l7.4,8.9L287.7,163.8z"/>
</g>
<g id="marker_4_">
	<path id="pin_5_" fill="#B9252D" d="M376.7-88.2c0.9-1.4,1.4-3,1.4-4.7c0-4.9-3.9-8.9-8.9-8.9s-8.9,3.9-8.9,8.9
		c0,1.9,0.6,3.6,1.5,5l7.4,8.9L376.7-88.2z"/>
</g>
<g id="marker_3_">
	<path id="pin_4_" fill="#B9252D" d="M212.2,23.7c0.9-1.4,1.4-3,1.4-4.7c0-4.9-3.9-8.9-8.9-8.9c-5,0-8.9,3.9-8.9,8.9
		c0,1.9,0.6,3.6,1.5,5l7.4,8.9L212.2,23.7z"/>
</g>
</svg>
