<?xml version="1.0" encoding="utf-8"?>
<!-- Generator: Adobe Illustrator 18.1.0, SVG Export Plug-In . SVG Version: 6.00 Build 0)  -->
<svg version="1.1" id="map" xmlns="http://www.w3.org/2000/svg" xmlns:xlink="http://www.w3.org/1999/xlink" x="0px" y="0px"
	 viewBox="351.6 15.9 930 500" enable-background="new 351.6 15.9 930 500" xml:space="preserve">
<g id="land">
	<path fill="#F6F0EF" d="M353.6,31.1l4.2,529.3h946.7l-3.9-529.2c0,0,0,0,0,0L353.6,31.1z"/>
</g>
<polygon fill="#DEECD2" points="357.9,497.9 353.7,491.4 378,479.2 384.9,493.3 375.8,507.7 "/>
<polygon fill="#DEECD2" points="420.7,470.1 415.7,494.4 434,516.5 487.3,514.2 491.1,498.6 "/>
<path fill="#DEECD2" d="M829.2,350.5l2.3,17.9c0,0,12.2,7.6,13.3,6.9c1.1-0.8,18.3-10.7,18.3-10.7l-11.4-27l-5.7,23.6L829.2,350.5z"
	/>
<path fill="#DEECD2" d="M1117.8,240.3l3,19.8l-33,17.4c0,0,3.8,17.5,2.7,17.5c-1.1,0-14.5,0.8-14.5,0.8l29.6-25.4l2.3-28.9
	L1117.8,240.3z"/>
<path fill="#F4E6D7" d="M893.2,144.5l7.2,18v80.8l4.6,22.5v59.5l17.5,27v93l-9.9,14.5l0.7,78.9h4.6l-0.6-77.5l9.9-14.5v-95.8
	l-17.5-27v-58.3l-4.6-22.5v-81.5l-7.2-18.1l5.5-132.4c0.1-2.4,2.4-0.1,0,0l-4.2,2.4l-5.9,130.6L893.2,144.5z"/>
<polygon fill="#F4E6D7" points="886.5,540.7 910.8,495.8 916.9,225.8 912.3,225.7 906.3,494.6 881.3,540.7 "/>
<polygon fill="#F4E6D7" points="997,313 967.5,291.3 788.3,288.1 788.4,283.5 969,286.8 999.7,309.3 "/>
<polygon fill="#F4E6D7" points="1445.9,-11.3 1176.4,90 1176.4,142.3 1149.7,142.3 1149.7,84.2 1177.8,34.1 1182,14.1 1177.5,13.2 
	1173.4,32.5 1145.2,83 1145.2,146.9 1180.9,146.9 1180.9,92.2 1445.9,-7.6 "/>
<polygon fill="#F4E6D7" points="1445.9,92.4 1106.2,100.4 1106.4,105 1445.9,96.9 "/>
<polygon fill="#F4E6D7" points="1445.9,199.1 1215.9,164.7 1206.9,149.6 1118.9,100.2 1116.6,104.2 1203.6,153 1212.6,168.1 
	1445.9,203.5 "/>
<polygon fill="#F4E6D7" points="1119.4,260.8 1106.3,317.4 1130.4,540.7 1135.1,540.7 1110.9,316.8 1123.9,260.6 1117,215.3 
	1108.6,162.3 1104.1,163 1112.5,216 "/>
<path fill="#F4E6D7" d="M1102.1,540.7l24-83.6l124-222.1l0.1-0.3l4.4-45.3c0.1-1.2-0.8-2.3-2-2.5l0,0c-1.2-0.1-2.3,0.8-2.5,2
	l-4.3,44.3c0,0.3-0.1,0.6-0.3,0.9l-123.7,221.6l-24.4,85H1102.1z"/>
<polygon fill="#F4E6D7" points="1095.2,222.1 1100.6,162.5 1105.2,162.9 1100.2,217.4 1249.6,213.3 1249.8,217.9 "/>
<polygon fill="#F4E6D7" points="1194.7,257.9 1121.6,257.9 1121.6,253.3 1190.7,253.3 1197,206.9 1151.3,164.4 1154.4,161 
	1201.8,205.1 "/>
<polygon fill="#F4E6D7" points="1010,406.5 967.5,406.5 910.6,361.9 924.5,353.9 925,349.4 912.4,357.5 969,401.9 1010,401.9 "/>
<path fill="#F4E6D7" d="M965.8,562.2l3.3-174.8l13.7-182.3l0.4-11.7c0-1.2-1-2.3-2.3-2.3h0c-1.2,0-2.3,1-2.3,2.3l-0.4,10
	l-13.7,182.3l-3.3,176.5H965.8z"/>
<polygon fill="#F4E6D7" points="1044.1,85.4 1019.4,66.4 888.8,54.5 813.8,67.9 813,63.4 888.7,49.9 889.1,50 1021.3,62 
	1046.8,81.8 "/>
<polygon fill="#F4E6D7" points="443.9,26.4 331.6,22.5 331.6,27.1 443.1,30.9 497.3,49.4 498.7,45.1 "/>
<polygon fill="#F4D8B3" points="784.8,309.5 779.7,309.5 786.2,284.7 792.3,247.1 797,247.1 791.3,285.6 "/>
<polygon fill="#F4E6D7" points="394,85.4 389.5,84.6 402,15.1 406.5,15.9 "/>
<polygon fill="#F4E6D7" points="1063.2,98.1 1046.4,81.4 854.3,78.5 824.9,32.4 503.8,32.4 473.4,85.8 390,82.7 382.4,109.3 
	331.6,108.6 331.6,113.2 385.8,113.9 393.4,87.4 476,90.5 506.5,37 822.4,37 851.7,83 1044.5,85.9 1061.2,102.5 1089,105 
	1089.4,100.4 "/>
<polygon fill="#F4E6D7" points="378.8,540.7 359.8,417.8 381.7,354.4 381.8,354 386.3,111.6 381.8,111.5 377.3,353.2 355.1,417.3 
	374.2,540.7 "/>
<path fill="#F4E6D7" d="M530.3,489.7l-5.8-68.1l1.4-0.7c7.6-3.9,16.8-8.4,20.9-9.7c0.5-5.9-1.7-33.9-4.1-59.5l-18.1-4.6v-68.3h4.6
	v64.7l17.7,4.5l0.2,1.6c0,0.2,1.5,15.4,2.7,30.8c2.5,32,1.6,33,0.6,34.1c-0.4,0.5-1.1,0.8-1.7,0.8c-1.7,0.3-10.9,4.7-19.4,9
	l5.6,65.1L530.3,489.7z"/>
<polygon fill="#F4E6D7" points="618.6,419.8 548.4,415.3 548.7,410.7 614.2,414.9 619.7,290.8 624.3,291 "/>
<g id="roads">
	<polygon fill="#F4D8B3" points="1199.6,299.8 1228.8,212.1 1081.1,121.2 1083.5,117.4 1232.8,209.2 1204,298.7 	"/>
	<polygon fill="#F4D8B3" points="1445.9,-31.8 1445,-32.8 1135,115.9 1129.4,160.4 1108.6,160.4 1108.6,87.7 1148.6,49.5 
		1144.4,13.7 1139.8,13.7 1144,47.5 1104.1,85.8 1104.1,165 1133.5,165 1139.3,118.1 1445.9,-28.4 	"/>
	<polygon fill="#F4D8B3" points="1091.5,117.1 1086.9,116.9 1089.6,13.5 1094.1,13.8 	"/>
	<polygon fill="#F4D8B3" points="1081,119.3 955.9,113.9 858.3,109.7 834.4,69.8 822.2,69.6 822.2,65 837,65.3 861.1,105.4 
		956.4,109.3 1081.4,114.7 	"/>
	<polygon fill="#F4D8B3" points="533,540.7 534.8,490.6 748.4,366.6 761.2,337.5 779.7,251.2 775.2,250.4 757,335.1 746.1,362.6 
		530.3,488.4 528.4,540.7 	"/>
	<polygon fill="#F4D8B3" points="1397.3,288 1042.7,306.4 902.3,316.2 781.2,308.2 734.1,285.4 731.7,289.9 778.6,312.9 
		902.2,320.8 902.3,320.8 1043.1,310.9 1397.3,292.7 	"/>
	<polygon fill="#F4D8B3" points="805.9,262.2 789.3,272 741.9,272.3 557.2,273.5 526,199.5 486.6,199.5 331.6,46.9 331.6,53.3 
		484.2,203.5 484.9,204.1 523.1,204.1 554.1,277.8 739.4,276.7 788.4,276.7 805.3,267.3 	"/>
	<path fill="#F4D8B3" d="M1081.1,114.7l-1,0L961.6,202l-84.9,40.1l-128.1,5c-0.8,0-1.4,0.6-1.6,1.3l-7.6,35.6
		c-0.2,0.8-0.9,1.4-1.7,1.3l-292.5-0.2l-113.7,20.3v4.7l113.9-20.4l295.1,0.3c0.8,0,1.5-0.5,1.7-1.3l8-37.3l127.1-4.8l86.8-40.6
		l118.1-86.8l363.6-6.6v-4.6L1081.1,114.7z"/>
	<polygon fill="#F4D8B3" points="861.8,538.7 800.8,360.8 802.4,303.4 826.7,122.9 812.2,8.6 807.6,8.8 822.2,122.2 797.9,302.7 
		796.3,361.6 856.9,538.7 	"/>
</g>
<polygon fill="#F4D8B3" points="857.7,318 809.4,326.9 762.3,321.6 762.3,316.8 810,322.3 843.6,316 "/>
<g id="marker">
	<path id="pin_31_" fill="#B9252D" d="M798.3,254.5c1.2-1.8,1.9-4,1.9-6.3c0-6.5-5.3-11.8-11.8-11.8c-6.5,0-11.8,5.3-11.8,11.8
		c0,2.5,0.8,4.7,2,6.6l9.8,11.8L798.3,254.5z"/>
	<text id="id" transform="matrix(1 0 0 1 783.1147 253.0303)" fill="#FFFFFF" font-family="'Helvetica-Bold'" font-size="14.268">A</text>
</g>
<g id="marker_30_">
	<path id="pin_30_" fill="#B9252D" d="M825.5,219.4c1.2-1.8,1.9-4,1.9-6.3c0-6.5-5.3-11.8-11.8-11.8c-6.5,0-11.8,5.3-11.8,11.8
		c0,2.5,0.8,4.7,2,6.6l9.8,11.8L825.5,219.4z"/>
	
		<text id="id_30_" transform="matrix(1 0 0 1 810.2427 217.9394)" fill="#FFFFFF" font-family="'Helvetica-Bold'" font-size="14.268">B</text>
</g>
<g id="marker_29_">
	<path id="pin_29_" fill="#B9252D" d="M832.2,288.8c1.2-1.8,1.9-4,1.9-6.3c0-6.5-5.3-11.8-11.8-11.8c-6.5,0-11.8,5.3-11.8,11.8
		c0,2.5,0.8,4.7,2,6.6l9.8,11.8L832.2,288.8z"/>
	
		<text id="id_29_" transform="matrix(1 0 0 1 816.9546 287.3911)" fill="#FFFFFF" font-family="'Helvetica-Bold'" font-size="14.268">C</text>
</g>
<g id="marker_1_">
	<path id="pin_1_" fill="#B9252D" d="M977.8,292.9c1.2-1.8,1.9-4,1.9-6.3c0-6.5-5.3-11.8-11.8-11.8c-6.5,0-11.8,5.3-11.8,11.8
		c0,2.5,0.8,4.7,2,6.6l9.8,11.8L977.8,292.9z"/>
	
		<text id="id_1_" transform="matrix(1 0 0 1 961.5893 291.4198)" fill="#FFFFFF" font-family="'Helvetica-Bold'" font-size="14.268">Q</text>
</g>
<g id="marker_28_">
	<path id="pin_28_" fill="#B9252D" d="M1087.3,134.9c1.2-1.8,1.9-4,1.9-6.3c0-6.5-5.3-11.8-11.8-11.8c-6.5,0-11.8,5.3-11.8,11.8
		c0,2.5,0.8,4.7,2,6.6l9.8,11.8L1087.3,134.9z"/>
	
		<text id="id_28_" transform="matrix(1 0 0 1 1072.0886 133.425)" fill="#FFFFFF" font-family="'Helvetica-Bold'" font-size="14.268">K</text>
</g>
<g id="marker_27_">
	<path id="pin_24_" fill="#B9252D" d="M1126.1,73.2c1.2-1.8,1.9-4,1.9-6.3c0-6.5-5.3-11.8-11.8-11.8c-6.5,0-11.8,5.3-11.8,11.8
		c0,2.5,0.8,4.7,2,6.6l9.8,11.8L1126.1,73.2z"/>
	
		<text id="id_27_" transform="matrix(1 0 0 1 1110.907 71.7741)" fill="#FFFFFF" font-family="'Helvetica-Bold'" font-size="14.268">L</text>
</g>
<g id="marker_23_">
	<path id="pin_23_" fill="#B9252D" d="M1146.6,131.4c1.2-1.8,1.9-4,1.9-6.3c0-6.5-5.3-11.8-11.8-11.8c-6.5,0-11.8,5.3-11.8,11.8
		c0,2.5,0.8,4.7,2,6.6l9.8,11.8L1146.6,131.4z"/>
	
		<text id="id_23_" transform="matrix(1 0 0 1 1132.4871 130.0002)" fill="#FFFFFF" font-family="'Helvetica-Bold'" font-size="14.268">J</text>
</g>
<g id="marker_22_">
	<path id="pin_22_" fill="#B9252D" d="M1106,153.1c1.2-1.8,1.9-4,1.9-6.3c0-6.5-5.3-11.8-11.8-11.8c-6.5,0-11.8,5.3-11.8,11.8
		c0,2.5,0.8,4.7,2,6.6l9.8,11.8L1106,153.1z"/>
	
		<text id="id_22_" transform="matrix(1 0 0 1 1090.8162 151.6916)" fill="#FFFFFF" font-family="'Helvetica-Bold'" font-size="14.268">N</text>
</g>
<g id="marker_21_">
	<path id="pin_21_" fill="#B9252D" d="M1109.5,117.7c1.2-1.8,1.9-4,1.9-6.3c0-6.5-5.3-11.8-11.8-11.8c-6.5,0-11.8,5.3-11.8,11.8
		c0,2.5,0.8,4.7,2,6.6l9.8,11.8L1109.5,117.7z"/>
	
		<text id="id_21_" transform="matrix(1 0 0 1 1093.0994 117.4411)" fill="#FFFFFF" font-family="'Helvetica-Bold'" font-size="14.268">M</text>
</g>
<g id="marker_20_">
	<path id="pin_20_" fill="#B9252D" d="M795.6,219.9c1.2-1.8,1.9-4,1.9-6.3c0-6.5-5.3-11.8-11.8-11.8c-6.5,0-11.8,5.3-11.8,11.8
		c0,2.5,0.8,4.7,2,6.6l9.8,11.8L795.6,219.9z"/>
	
		<text id="id_20_" transform="matrix(1 0 0 1 780.3618 218.4756)" fill="#FFFFFF" font-family="'Helvetica-Bold'" font-size="14.268">G</text>
</g>
<g id="marker_19_">
	<path id="pin_6_" fill="#B9252D" d="M769.5,250.1c1.2-1.8,1.9-4,1.9-6.3c0-6.5-5.3-11.8-11.8-11.8c-6.5,0-11.8,5.3-11.8,11.8
		c0,2.5,0.8,4.7,2,6.6l9.8,11.8L769.5,250.1z"/>
	
		<text id="id_19_" transform="matrix(1 0 0 1 754.3325 248.623)" fill="#FFFFFF" font-family="'Helvetica-Bold'" font-size="14.268">F</text>
</g>
<g id="marker_7_">
	<path id="pin_8_" fill="#B9252D" d="M744.1,259.3c1.2-1.8,1.9-4,1.9-6.3c0-6.5-5.3-11.8-11.8-11.8c-6.5,0-11.8,5.3-11.8,11.8
		c0,2.5,0.8,4.7,2,6.6l9.8,11.8L744.1,259.3z"/>
	
		<text id="id_7_" transform="matrix(1 0 0 1 732.3013 257.8965)" fill="#FFFFFF" font-family="'Helvetica-Bold'" font-size="14.268">I</text>
</g>
<g id="marker_6_">
	<path id="pin_7_" fill="#B9252D" d="M789.5,314.8c1.2-1.8,1.9-4,1.9-6.3c0-6.5-5.3-11.8-11.8-11.8c-6.5,0-11.8,5.3-11.8,11.8
		c0,2.5,0.8,4.7,2,6.6l9.8,11.8L789.5,314.8z"/>
	<text id="id_6_" transform="matrix(1 0 0 1 774.272 313.354)" fill="#FFFFFF" font-family="'Helvetica-Bold'" font-size="14.268">H</text>
</g>
<g id="marker_5_">
	<path id="pin_5_" fill="#B9252D" d="M805.3,334.5c1.2-1.8,1.9-4,1.9-6.3c0-6.5-5.3-11.8-11.8-11.8c-6.5,0-11.8,5.3-11.8,11.8
		c0,2.5,0.8,4.7,2,6.6l9.8,11.8L805.3,334.5z"/>
	
		<text id="id_5_" transform="matrix(1 0 0 1 790.0649 333.0571)" fill="#FFFFFF" font-family="'Helvetica-Bold'" font-size="14.268">D</text>
</g>
<g id="marker_13_">
	<path id="pin_14_" fill="#B9252D" d="M920.6,116.3c1.2-1.8,1.9-4,1.9-6.3c0-6.5-5.3-11.8-11.8-11.8c-6.5,0-11.8,5.3-11.8,11.8
		c0,2.5,0.8,4.7,2,6.6l9.8,11.8L920.6,116.3z"/>
	
		<text id="id_13_" transform="matrix(1 0 0 1 905.3483 114.8629)" fill="#FFFFFF" font-family="'Helvetica-Bold'" font-size="14.268">P</text>
</g>
<g>
	<path fill="#FFFFFF" d="M869.5,239c17.7-5.9,8.7-22,8.7-22s-5.6,1.2-8.7-0.3h0c-3,1.5-8.7,0.3-8.7,0.3S851.9,233.2,869.5,239
		L869.5,239z"/>
	<path fill="#0EA9D6" d="M878.7,221.7c0,0,4.2,11.4-9.2,15.9c-13.4-4.5-9.2-15.9-9.2-15.9H878.7z"/>
	<path fill="#D72631" d="M869.5,220.8h8.9c0,0-0.4-1.6-0.9-2.2c0,0-4.7,0.7-8-0.4c-3.3,1.1-8,0.4-8,0.4c-0.5,0.6-0.9,2.2-0.9,2.2
		H869.5z"/>
	<text transform="matrix(1 0 0 1 863.7394 231.1459)" fill="#FFFFFF" font-family="'HelveticaNeue-Bold'" font-size="9.9473">44</text>
</g>
<g>
	<path fill="#FFFFFF" d="M891.4,329.1c17.7-5.9,8.7-22,8.7-22s-5.6,1.2-8.7-0.3h0c-3,1.5-8.7,0.3-8.7,0.3S873.8,323.3,891.4,329.1
		L891.4,329.1z"/>
	<path fill="#0EA9D6" d="M900.6,311.8c0,0,4.2,11.4-9.2,15.9c-13.4-4.5-9.2-15.9-9.2-15.9H900.6z"/>
	<path fill="#D72631" d="M891.4,310.9h8.9c0,0-0.4-1.6-0.9-2.2c0,0-4.7,0.7-8-0.4c-3.3,1.1-8,0.4-8,0.4c-0.5,0.6-0.9,2.2-0.9,2.2
		H891.4z"/>
	<text transform="matrix(1 0 0 1 885.6475 321.2536)" fill="#FFFFFF" font-family="'HelveticaNeue-Bold'" font-size="9.9473">40</text>
</g>
<g>
	<path fill="#FFFFFF" d="M730.5,388.5c17.7-5.9,8.7-22,8.7-22s-5.6,1.2-8.7-0.3h0c-3,1.5-8.7,0.3-8.7,0.3S712.8,382.7,730.5,388.5
		L730.5,388.5z"/>
	<path fill="#0EA9D6" d="M739.7,371.2c0,0,4.2,11.4-9.2,15.9c-13.4-4.5-9.2-15.9-9.2-15.9H739.7z"/>
	<path fill="#D72631" d="M730.5,370.3h8.9c0,0-0.4-1.6-0.9-2.2c0,0-4.7,0.7-8-0.4c-3.3,1.1-8,0.4-8,0.4c-0.5,0.6-0.9,2.2-0.9,2.2
		H730.5z"/>
	<text transform="matrix(1 0 0 1 724.7119 380.6479)" fill="#FFFFFF" font-family="'HelveticaNeue-Bold'" font-size="9.9473">44</text>
</g>
<g>
	<path fill="#FFFFFF" d="M816.9,176.9c17.7-5.9,8.7-22,8.7-22s-5.6,1.2-8.7-0.3h0c-3,1.5-8.7,0.3-8.7,0.3S799.2,171.1,816.9,176.9
		L816.9,176.9z"/>
	<path fill="#0EA9D6" d="M826.1,159.6c0,0,4.2,11.4-9.2,15.9c-13.4-4.5-9.2-15.9-9.2-15.9H826.1z"/>
	<path fill="#D72631" d="M816.9,158.7h8.9c0,0-0.4-1.6-0.9-2.2c0,0-4.7,0.7-8-0.4c-3.3,1.1-8,0.4-8,0.4c-0.5,0.6-0.9,2.2-0.9,2.2
		H816.9z"/>
	<text transform="matrix(1 0 0 1 811.0996 169.0566)" fill="#FFFFFF" font-family="'HelveticaNeue-Bold'" font-size="9.9473">35</text>
</g>
<text transform="matrix(1 0 0 1 754.2515 197.4961)" fill="#877C6C" font-family="'HelveticaNeue-Bold'" font-size="11.4168">OKLAHOMA CITY</text>
<text transform="matrix(1 0 0 1 1046.5974 107.0583)" fill="#877C6C" font-family="'HelveticaNeue-Bold'" font-size="11.4168">TULSA</text>
<text transform="matrix(1 0 0 1 905.3483 139.6078)" fill="#877C6C" font-family="'HelveticaNeue-Bold'" font-size="11.4168">STILLWATER</text>
<g id="marker_4_">
	<path id="pin_4_" fill="#B9252D" d="M1131.7,154.3c1.2-1.8,1.9-4,1.9-6.3c0-6.5-5.3-11.8-11.8-11.8c-6.5,0-11.8,5.3-11.8,11.8
		c0,2.5,0.8,4.7,2,6.6l9.8,11.8L1131.7,154.3z"/>
	
		<text id="id_4_" transform="matrix(1 0 0 1 1116.5037 152.8332)" fill="#FFFFFF" font-family="'Helvetica-Bold'" font-size="14.268">O</text>
</g>
<g id="marker_3_">
	<path id="pin_3_" fill="#B9252D" d="M750.5,312.8c1.2-1.8,1.9-4,1.9-6.3c0-6.5-5.3-11.8-11.8-11.8c-6.5,0-11.8,5.3-11.8,11.8
		c0,2.5,0.8,4.7,2,6.6l9.8,11.8L750.5,312.8z"/>
	
		<text id="id_3_" transform="matrix(1 0 0 1 735.2642 311.3657)" fill="#FFFFFF" font-family="'Helvetica-Bold'" font-size="14.268">E</text>
</g>
</svg>
