<svg xmlns="http://www.w3.org/2000/svg" viewBox="193 18.3 940 570.7" enable-background="new 193 18.3 940 570.7"><path fill="#F6F0EF" d="M179.8 12.8c-.4 0-.7 0-1-.1v585.1h964.1v-585H179.8z"/><g stroke="#F4D8B3" stroke-width="4" stroke-miterlimit="10" fill="none"><path d="M958.9 130l130.1 80 19 71.9M1128 18.3L1007 128l-5 40h-22v-66.5l35-33.5V18.3M965 128l6-109.7M713.6 75H762l21 35 108 12 67 6M671.9 300.7l-4.9 25.9L520 453l-5 138M682.3 278.6l-10.4-.3v22.4L781 305l186-10.4 164.3-16.3M298 18.3L479 201h34l33 74.1 89 6.8 13 4.2h44.2v-33M192.6 350L295 332l148-52.9 202-7.8 9-19.2 105-12L897 203l61-75 179-6M709.9 12.8l6.8 115.2-34.4 162v52.5L751.4 518v73"/></g><g><path fill="#B9252D" d="M683 257.4c1-1.6 1.6-3.5 1.6-5.5 0-5.7-4.6-10.4-10.4-10.4-5.7 0-10.4 4.6-10.4 10.4 0 2.2.7 4.2 1.8 5.8l8.6 10.4 8.8-10.7z"/><text transform="translate(669.704 256.145)" fill="#fff" font-family="'Helvetica-Bold'" font-size="12.497">A</text></g><g><path fill="#B9252D" d="M700.4 238.8c1-1.6 1.6-3.5 1.6-5.5 0-5.7-4.6-10.4-10.4-10.4s-10.4 4.6-10.4 10.4c0 2.2.7 4.2 1.8 5.8l8.6 10.4 8.8-10.7z"/><text transform="translate(687.055 237.502)" fill="#fff" font-family="'Helvetica-Bold'" font-size="12.497">B</text></g><g><path fill="#B9252D" d="M702.7 278.7c1-1.6 1.6-3.5 1.6-5.5 0-5.7-4.6-10.4-10.4-10.4s-10.4 4.6-10.4 10.4c0 2.2.7 4.2 1.8 5.8l8.6 10.4 8.8-10.7z"/><text transform="translate(689.405 277.434)" fill="#fff" font-family="'Helvetica-Bold'" font-size="12.497">C</text></g><g><path fill="#B9252D" d="M957.3 147.6c1-1.6 1.6-3.5 1.6-5.5 0-5.7-4.6-10.4-10.4-10.4-5.7 0-10.4 4.6-10.4 10.4 0 2.2.7 4.2 1.8 5.8l8.6 10.4 8.8-10.7z"/><text transform="translate(944.003 146.376)" fill="#fff" font-family="'Helvetica-Bold'" font-size="12.497">H</text></g><g><path fill="#B9252D" d="M1000.3 97.6c1-1.6 1.6-3.5 1.6-5.5 0-5.7-4.6-10.4-10.4-10.4-5.7 0-10.4 4.6-10.4 10.4 0 2.2.7 4.2 1.8 5.8l8.6 10.4 8.8-10.7z"/><text transform="translate(990.003 96.376)" fill="#fff" font-family="'Helvetica-Bold'" font-size="12.497">I</text></g><g><path fill="#B9252D" d="M1006.7 147.6c1-1.6 1.6-3.5 1.6-5.5 0-5.7-4.6-10.4-10.4-10.4-5.7 0-10.4 4.6-10.4 10.4 0 2.2.7 4.2 1.8 5.8l8.6 10.4 8.8-10.7z"/><text transform="translate(993.405 146.376)" fill="#fff" font-family="'Helvetica-Bold'" font-size="12.497">G</text></g><g><path fill="#B9252D" d="M985.7 160.6c1-1.6 1.6-3.5 1.6-5.5 0-5.7-4.6-10.4-10.4-10.4-5.7 0-10.4 4.6-10.4 10.4 0 2.2.7 4.2 1.8 5.8l8.6 10.4 8.8-10.7z"/><text transform="translate(972.405 159.376)" fill="#fff" font-family="'Helvetica-Bold'" font-size="12.497">K</text></g><g><path fill="#B9252D" d="M980.7 128.6c1-1.6 1.6-3.5 1.6-5.5 0-5.7-4.6-10.4-10.4-10.4-5.7 0-10.4 4.6-10.4 10.4 0 2.2.7 4.2 1.8 5.8l8.6 10.4 8.8-10.7z"/><text transform="translate(967.405 128.376)" fill="#fff" font-family="'Helvetica-Bold'" font-size="12.497">J</text></g><g><path fill="#B9252D" d="M667 240.4c1-1.6 1.6-3.5 1.6-5.5 0-5.7-4.6-10.4-10.4-10.4-5.7 0-10.4 4.6-10.4 10.4 0 2.2.7 4.2 1.8 5.8l8.6 10.4 8.8-10.7z"/><text transform="translate(653.675 239.177)" fill="#fff" font-family="'Helvetica-Bold'" font-size="12.497">F</text></g><g><path fill="#B9252D" d="M664.3 269.7c1-1.6 1.6-3.5 1.6-5.5 0-5.7-4.6-10.4-10.4-10.4-5.7 0-10.4 4.6-10.4 10.4 0 2.2.7 4.2 1.8 5.8l8.6 10.4 8.8-10.7z"/><text transform="translate(650.974 268.403)" fill="#fff" font-family="'Helvetica-Bold'" font-size="12.497">E</text></g><g><path fill="#B9252D" d="M644 279c1-1.6 1.6-3.5 1.6-5.5 0-5.7-4.6-10.4-10.4-10.4-5.7 0-10.4 4.6-10.4 10.4 0 2.2.7 4.2 1.8 5.8l8.6 10.4L644 279z"/><text transform="translate(630.704 277.738)" fill="#fff" font-family="'Helvetica-Bold'" font-size="12.497">H</text></g><g><path fill="#B9252D" d="M682 295c1-1.6 1.6-3.5 1.6-5.5 0-5.7-4.6-10.4-10.4-10.4-5.7 0-10.4 4.6-10.4 10.4 0 2.2.7 4.2 1.8 5.8l8.6 10.4L682 295z"/><text transform="translate(668.704 293.738)" fill="#fff" font-family="'Helvetica-Bold'" font-size="12.497">G</text></g><g><path fill="#B9252D" d="M697 313c1-1.6 1.6-3.5 1.6-5.5 0-5.7-4.6-10.4-10.4-10.4-5.7 0-10.4 4.6-10.4 10.4 0 2.2.7 4.2 1.8 5.8l8.6 10.4L697 313z"/><text transform="translate(683.704 311.738)" fill="#fff" font-family="'Helvetica-Bold'" font-size="12.497">D</text></g></svg>