<?xml version="1.0" encoding="utf-8"?>
<!-- Generator: Adobe Illustrator 18.0.0, SVG Export Plug-In . SVG Version: 6.00 Build 0)  -->
<!DOCTYPE svg PUBLIC "-//W3C//DTD SVG 1.1//EN" "http://www.w3.org/Graphics/SVG/1.1/DTD/svg11.dtd">
<svg version="1.1" id="map" xmlns="http://www.w3.org/2000/svg" xmlns:xlink="http://www.w3.org/1999/xlink" x="0px" y="0px"
	 viewBox="61.3 18.3 1100 532.7" enable-background="new 61.3 18.3 1100 532.7" xml:space="preserve">
<rect id="background" x="61.6" y="17.4" fill="#A2DDF5" width="1099.4" height="533.6"/>
<g id="drop-shadow">
	<path id="piece_8_" fill="#8DCEE0" d="M576.1,558.2c0.6-5.9-1.4-10.9-1.4-16.6c0-4.7,2.8-8.8,3.7-13.4c1.3-7.1,5.9-14.3,3.1-21.5
		c-0.9-2.4-3.2-3.2-4.2-5.3c-1.2-2.5,0.8-6-0.6-8.6c-1.3-2.4-4.4-1.7-3.6-5.9c1.6,1.2,3.6,2.9,5.7,3.3c0.9-1.3,2.8-3,3-4.6
		c0.4-3.2,0.1-1.2-1.3-3c-0.8-1-5.8-1.3-2.9-4.4c0.6-0.6,4.6-0.1,5.4-0.1c-0.1-2.3,1.9-6.9,3.8-7.9c1.4-0.7,2.6,0.9,4.1-0.4
		c0.1-0.1,0.8-2.1,1.2-2.6c-2.2-5.4,2.9-4,5.4-3c5,2.1,5.4,1.1,10-1.5c3.5-2,4.5-3.9,7.1-6.8c1.2-1.3,3-2,3.2-3.7
		c0.2-2.2-4-3.8-2.4-7.4c3.9,2.7,11.4-8.3,8.3,2.5c2.6,0,6.2,0,8.3-1.2c2.7-1.6,2.4-7.3,6.2-5.3c-0.4,2.4-3,4-3.3,6.5
		c4.8,0.2,9.3-0.6,14.1-0.8c5.1-0.2,9.3,1.8,14,2.1c-0.5-4.2,1.3-6.5,6-6.3c4.4,0.2,3.8,5.9,8.9,4.7c-0.4,1.9-1.6,3.1-0.6,5.3
		c0.7,1.6,5.2,4.1,7,3.7c2.6-0.6,3.3-4.3,6.5-3.6c2.5,0.5,2.4,4.3,6.2,2.5c-0.5-2.6-3.5-4-2-7.1c3.4-0.7,2.6,2.1,4.8,3.3
		c1.5,0.8,3.2-0.1,4.8,0.5c2.2,0.7,3.1,3.4,5,4.3c3.3,1.4,5.1-0.4,2.8-3.5c-1.7-2.2-8.8-1.7-9.5-4.6c-0.7-3,4.4-3.1,3.2-6.7
		c-1.3-3.8-3.6,1.4-5.4,1.4c-1.6,0-3.9-2.2-5.2-2.9c-1.5-0.7-3.6,0.5-3.8-2.2c-0.1-1,1.9-3,2.9-3.3c3.3-0.7,4.2,3.4,7.9,2.8
		c3.3-0.5,5.9-3.6,9.3-4.1c3.5-0.5,7.2,1.6,10.5-0.5c2.4-1.4,4-6.6,7.8-6.1c2.3,0.3,2.5,3,3.9,4.5c4.7,5,3.9,1.2,7.7-0.4
		c3.8-1.6,2.6,0.7,5.6,1.3c3,0.6,5.7-1.6,8.7-1.4c2.6,0.2,5.8,1.8,8.1,2.9c2.3,1.1,4.6,2.3,6.1,4.5c0.4,0.6,2.5,6.8,2,6.7
		c3.5,0.2,6.2-0.1,9.6-1.1c4.6-1.3,4.1-3.6,7.8-5.6c6.9-3.8,12.9,4.3,15.7,9.5c3.2,6.1,9.4,7.6,10.5,15c0.5,3.5,0.8,7.4-0.4,10.8
		c-0.9,2.6-2.6,3.9-2,7c4.2,0.4,1.3-5.3,4.1-5.3c4.8,0,1.2,6.7,0.8,7.8c-1.1,2.9-0.8,12.8,3.3,13.7c-0.1-0.6,0.1-1.4,0.1-2
		c1.7-0.1,3.5-0.1,5.3,0c-2.1,2.2-2.8,5.4-1.6,8.3c0.6-1,1.4-4.1,2.8-4.6c3.1-1.1,0.8,2,0.8,2.9c0.2,3-0.4,8.2,1.4,10.7
		c1,1.4,2.9,1.3,4.1,2.5c1.3,1.3,2.8,4.3,3.7,5.8c2.1,3.6,1.8,5.3,6.6,5.8c3.2,0.4,7.9,0.5,9.2-2.9c0.9-2.3-0.7-5.8-1-8.2
		c-0.4-2.8-0.2-5,0.4-7.8c0.7-3.4,2.6-6.7,2.6-10.1c-0.1-4.7-4-3.6-4.5-7.4c4.6-0.5-2.7-9.9-3.7-11.9c-2.6-5.3-2.1-11.1-3.8-16.3
		c0.7,0.1,1.5-0.3,2.4,0.3c-0.8-2.6-3.9-4.8-5.4-7.3c-2-3.5-3.2-6.7-3.7-10.7c-1.2-8.7-5-19.2-1.3-27c-4.5-1.9-1.4-4.5,0.5-6.9
		c0.8-1,1.8-1.8,2.4-2.7c0.4-0.5-0.1-1.8,0.5-2.5c0.5-0.6,1.7-0.4,2-0.8c0.6-0.6,3.1-2.5,3.3-3.3c0.5-2.6-1-2.2-1.5-4
		c-1.6-5.6,3.9-4.2,3.3-0.6c1-0.8,1.5-2.2,1.2-3.6c2.7,0.1,9.8,0,8.3-3.7c0.6,0.3,2,0.3,2.8,0.7c0.3-1.1,1.2-1.7,1.4-2.8
		c1.5-0.5,7.5-4.6,8.6-6c2-2.4,0-1.8,0.5-3.6c0.5-1.7-0.6-3.8,2.3-2.6c0.9-3.5,5.4-5.4,8.3-7.1c1.7-1,1.7-1.6,3.8-2.1
		c2.2-0.5,4.1,0.8,5.8,0c3-1.5,2.7-5.4,4.1-7.5c1-1.5,3.3-2.1,3.8-3.6c0.4-1.2-0.8-3.1-0.8-4.5c1.8,0.2,2.1,2.6,3.7,2.9
		c1.8,0.3,2.5-1.6,3.8-2c3.2-1,7.4,0.6,9-3.3c-1.7-0.7-4.3,0.2-5.8-0.6c-1.8-1-1.9-4.2-2.9-6.1c3-0.4,3,5,5.7,3.6
		c1-0.5,0.7-4.2,0.8-5.2c-1.5-0.4-9.8-3.1-6.2-5.4c2.9-1.8,6.1,5.1,8,1.2c0.4,1,0.6,1.8,0,3.2c3.4-1.6,5.1,1.6,7.9-0.9
		c2-1.7,3.9-6.5,3.6-9c-2.4,0.4-2.2,3.3-5.3,3.2c-1.3-1.7-0.5-3.6,0.2-4.9c-3.4-0.7-7,3-9.8,0.3c-1.5-1.4-2.2-6.4-0.8-7.8
		c1.9,1.3,0.7,4.2,2.8,5.4c1.7,1,3.2-0.5,3-2.5c0.4,0.6,1.5,1.2,2,2c1.3-3.5,4,0.3,5.5-1.6c1.1-1.3-2.6-5.4-2.6-7
		c0.8,0.2,2.1-0.3,2.8-0.2c0.1-1.8,0.6-5-0.7-6.5c-2.1-2.3-2.3-0.2-4.5-0.3c-4.4,0-5.9-2.9-10.1-5c-2.6-1.3-10.6-4.3-3.2-4.6
		c5.6-0.2,7.2,6.1,11.5,6.5c0.6-4.2-5.9-5.2-7-9.1c1.2,0.5,5,4.8,6.6,4.2c3.1-1.2-0.5-4.2-1.4-5c-2-2-3.8-2.9-5.3-5.5
		c-1.2-2-2-3.7-3.8-5.3c4.1-2.5,9.5,5.9,12,8.3c0.5-1.4,0.6-2.9,0.5-4.5c-4.5-1.8-10.2-5.5-13.7-8.8c-4.8-4.6,2.6-9.4,2.2-2.1
		c4-0.5,6,4.4,10.7,4.2c0.6-2.6-2.2-7.1-4.9-7.5c-0.1-3.1-1.2-9-0.1-11.4c1-2.2,9-9,11.2-8.8c0.5,5.3-3.3,7.8-2.4,12.8
		c0.5,2.8,2.7,8.7,4.2,10.7c1.2,1.6,3,1.5,3.3,3.4c0.3,1.5-1.3,2.1-1.3,3.3c0,0.9,0.8,2.2,0.8,2.6c0,3.1-0.3,3.5-2.1,6.5
		c-1.4,2.3-2,4.4-2.7,6.6c3.5-0.2,8-10.7,8.6-14c0.6-3.7,0.8-5.4,2.1-8.7c0.3-0.8,1.3-0.4,1.7-1.6c0.2-0.6-0.5-1.8-0.5-2.1l2.1-2.5
		c-3.3-2.6-5-4-6.2-7.8c-0.7-2.4-1.6-5.1-2.1-7.5c-1-5.1,2.2-11,8.3-10.3c-2.8,5.1-9.3,5.1-4.6,11.9c1.7,2.5,6.9,8.2,9.6,6.7
		c3-1.6,3.3-8.5,5.5-11.2c1.4-1.7,2.6-1.8,3.5-4.2c1.1-2.8,3-12-2-11.2c-0.9-4.8,1.4-4.2,3.8-4.6c2.6-0.5,5.7-1.9,8.6-2.8
		c4.2-1.3,20.9-1.7,21.6-6.7c-3.5-1.4-6,1.7-9.1,2.5c-2.2,0.6-4.5,0.2-6.7,0.5c-3.4,0.4-6.7,2.5-10.2,1.9c-1.3-2.6-3.1-5.6-2.9-8.6
		c3,0.2,1.2,3.4,2.9,4.6c2,1.5,3.7-1,5.6-2.2c4.5-2.7,8.4-2.6,13.3-3.7c2.1-0.5,4.2-2.1,6.4-2.6c2.3-0.5,4.7,0,6.9-0.5
		c3.9-0.8,4.3-2.3,4.6-6.1c2.1,0.4,4.1,0.2,6.1,0c-0.9,1.7-1.2,4.9,2.1,3.6c1.5-0.6,0.9-3.5,3.4-4.1c0.4,1.2,0.5,2.7,0.4,4.1
		c2.3,0.7,2.4-0.9,3.2-1.2c1.2-0.4,3.2-0.7,4.7-1.2c3.3-1,7-5.9,1.4-7.5c-0.3,1.5,0.1,3.2,0.1,4.9c-1.5,0.4-3.4,0.7-4.8,0.8
		c-0.7-1.4-2.6-2.2-3.1-3.5c-0.8-2.1,1.4-5.5-0.7-7.3c-1.7-1.5-4.6,0.8-5.9-1.2c-1.4-2.1,0.9-4.3,2.9-4.2c1.2,0-1.4-8.6-1.1-9.5
		c0.8-2.9,5.5-8,7.4-10.3c0.9-1.1,3.1-2.4,4.1-3.7c0.8-1.1,0.1-2.1,0.5-3.3c0.9-3.3,1.2-3.8,5-6.1c1.4-0.9,5.1-4.7,4.1,0.7
		c2.4,0.7,4.4-2.2,5.9-3.3c1-0.7,1.4,0.5,2.8-0.9c1.6-1.6,0.6-4.7,2-6.6c3.6-4.9,1.7,0.9,3.8,2.5c2.8,2.1,4.3-0.9,4.6-3.3
		c1.3,0.6,1.7,0.6,1.8,2.4c3.5-0.2,8.1-5.2,11.6-6.7c1.8-0.8,4.7-0.2,6.1-1.2c3-2.2,0.2-4.4,0-6.1c-0.2-1.1-0.5-6.1,0.8-6.6
		c1.9-0.7,3.1,2.8,4.3,3.2c1.1,0.4,1.9-0.1,2.9,0.1c1,0.1,5.6,0.4,6.6-0.3c2.3-1.6,0.6-6.6,4.2-6.6c0.7,1.4,0.5,2.8-0.5,4
		c2.4,3.4,11.8-5.1,14.6-6.9c1.9-1.2,5.8-3.8,6.6-5.9c0.8-2.2-0.6-3.3-0.4-5.8c3.7,0.4,2.5,9.7,7.4,5.9c0.3,6.7-1.1,4-5.8,6.6
		c-2.8,1.5-3.3,3.4,0.4,4.1c3.6,0.7,18-4.6,18.6,0.9c-4.4,1-9.6,1.7-13.6,4.2c1.2,0.8,1.9,2.1,1.9,3.6c-2.4,0.3-5.7-3.7-3.4-5.7
		c-4.3-0.7-8.6,5.3-12.4,7.1c-3.2,1.5-5.2,2.2-7.7,4.8c0.9-0.3,2.3-0.1,3.1-0.2c-1.4,1.7-3.4,3.1-5.2,4.3c-0.3-0.2-0.6-0.5-0.9-0.6
		c-3.1,3.2-5.9,6-5.9,10.4c0,2.4,0.2,8.2,3.8,7.4c0.1-0.5,0.1-1,0.1-1.5c3.2,0.7,2.5,8.8,7.8,6.8c2.8-1.1,3.4-12.9,6.6-5.1
		c2.6-4.1,6.5-3.6,8.7-7.9c0.7-1.3,1.2-4.1,2-5.7c0.2-0.3,1.6-0.9,2.1-1.8c0.4-0.6-0.5-2.4-0.8-2.9c1.6-1,3.4-1.9,5.3-2
		c-0.2,0.8,0.3,2,0.1,2.8c3.8,0.2,4.5,0.4,7.4,2.1c0.6-3.4-0.7-4.6-3.2-6.3c1.4-1.3,2.8-0.6,3.4,1.3c4.9,0.1,11.4-2.6,16.4-5.6
		c3.7-2.2,7.5-3.9,11.7-5.3c2.9-0.9,8.8-0.5,10.4-2.8c-1.6-1.5-4.3-0.5-6.3-1.2c2.3-1.8,1.4-7.1-1.7-8.2c-2.3-0.8-5.6,3.1-5.4-2.5
		c-2.2,1.4-6.3,4.7-8.7,5.3c-1.6,0.4-3.6-0.6-5.4-0.5c0.5-1.6-0.4-1.4,1.1-2.5c-2.7-2-4.1-1.4-6.9-0.6c-4.2,1.1-2.8,1.4-6.2-0.3
		c-2.9-1.5-6.7-4.2-9.2-6.9c1.2-1,2.9-1,4.6-0.9c0.1-4.8-5.7-2.1-8.3-2.5c-1.3-0.2-4.9-1.7-5.8-2.4c1.9-2.1-0.9-6.6-2-8.7
		c-1-1.8-2-1.6-2.1-4.1c-0.1-1.7,1.7-2.8,1.2-4.9c-2-0.1-4.1,0-6.1-0.1c-1.9-4,2.5-4.8,4-7.8c1.4-2.8,3.9-8.4,4.2-11.2
		c-6.7-3.2-9,7.7-14,6.2c-1.4-4.3-1.4-5.5-5.9-6.9c-1.4-0.4-3.3-1.5-4.7-1.6c-2-0.2-5.5,2.1-6.9,1.6c-4.2-1.6,3.4-5,5.3-5.3
		c3.5-0.7,6.8,0.6,7.6-3.8c2,0.7,3.1,3.2,4.9,4.1c2.1,1.1,3.7-0.8,5.3,2c2-1.2,4.9-3.3,6.7-5c0.7-0.6,1.4-2.1,2.1-2.6
		c1.8-1.3,3.8-0.6,5.8-1.5c8.4-4.2-2.1-7-3.3-9.5c2.2-0.1,4.4,0.5,6.6,0.3c-5-2.8-5.5-8.1-11.3-9.6c-6-1.5-10.5-1.5-16.6,0.2
		c-14.6,4-27.3,8.8-39.8,17.8c-11,7.9-18.7,17.4-27.6,27.3c-7.3,8.1-14.1,12.9-24.1,17.2c-10.8,4.6-19,12.5-26.3,21.1
		c-4.8,5.7-13.3,15.5-21.9,14.4c1.9-2.2,5.7-4.1,7.1-6.9c0.9-1.7,0-3.5,1-5.3c1-1.8,2.8-2.1,4.3-3.4c5.2-4.2,8.5-8.9,14.7-12.5
		c6.1-3.5,11.4-7.3,17.9-10.4c12.6-6,20.3-17.5,29.6-27c7.6-7.7,1-8.4-7.1-9.9c-1-0.2-6.4-0.3-7-1.3c-1.1-1.8,12.3-2.6,14-1.9
		c2,0.8,3.4,3.5,5.7,3.6c3.2,0.2,3.3-3.4,4.7-6.2c1.8-3.8,4.5-5.5,7.4-8.3c4.5-4.4,8.2-10.7,14.6-11.6c3.1-0.4,5,0.4,7.9-1.6
		c3.3-2.3,3.4-5.4,5-9.2c2.9-6.8,7-10.1,14.5-10.4c7.3-0.3,14.1-3.3,21.4-3.8c9-0.6,18,1.3,26.9,0c9.7-1.4,20.4,0.6,29.9,2.4
		c10.7,2,32.9,0.1,31.6-14.8L140.9,0.3c0.2,2.8,1.4,4.8,1.3,7.8c2-0.4,4.1-1.5,6.2-1.1c0.5,2.6-2,3.7-2.6,6
		c-0.5,2.2,0.6,6.7,2.1,8.4c2.6,3,3,2,5.4,0c2.3-2,1.5-3.9,3.1-5.8c2.9-3.6,3.2,0.1,2.7,2.6c-0.2,1-1.2,2.3-1.5,3.6
		c-0.2,1.1,1.2,1.4,1.2,2c-0.1,1.2-2.2,2.3-1.8,3.5c0.4,1.3,1.5,0.6,1.8,1.1c0.8,1.4,3.4,0.1,2.9,3.7c2.9-0.1,4.2-6.9,7.5-8.4
		c0.8,3.1-1.1,6.9-0.1,10.4c1.7-0.7,2.4-3.1,4.6-3.6c1.4,3.1-4.5,6.6-2.8,9.6c1.2,2.1,4.5,1.2,6.1,2.9c1.4,1.4,2.6,6.2,3,8.1
		c0.6,2.6-0.5,7.2,0.8,9.4c1.4,2.2,5,1.5,4.3,4.9c-0.6,2.7-4,2.8-4.3,6.1c-0.3,2.7,7.8,13.5,0.9,12.2c0.9,3.8-5.8,5.3-8.4,4.1
		c1-1.8,2.5-3.4,1.7-5.4c-1.3,0.8-2.9,1.3-4.5,1.1c0.4-2.5,0.6-5.3,1.3-7.9c1-4,6.7-6,6.1-9.8c-4.9,1.1-11.7,0.5-16.1-1.8
		c-2.6-1.3-15-7.3-15.7-3.4c-0.4,2.3,2.4,3.5,3.3,5.6c1,2.3,1.4,5.8,2.1,8.2c0.9,3.3,0.9,7,2.4,10.1c1,2,4.1,3.3,4.7,4.9
		c0.8,2.4-1.2,1.6-1.2,2.5c0,1.7-0.5,0.8,0.2,2.8c0.4,1.1,2.1,2.9,3.1,3.6c-0.8-0.6-2.1-0.7-3-1.1c-1.2,3.5-0.8,6.4,1.6,8.3
		c2.2,1.8,7.9,1.2,9.1,4.4c-2.6,0.4-9.4-1.1-11.3,0.9c-1.3,1.4-0.1,6-0.3,7.9c-0.3,2.3-1.2,4.3-1.3,6.7c-0.1,2.9,1.3,5.3,1.6,8
		c0.6,5.2-1.8,10.7-1.6,16.1c0.2,3.2,1.3,7.2,0.8,10.4c-0.2,1.2-1.6,1.8-1.6,2.9c0,1.2,1.6,1.8,1.6,2.8c-0.1,4.4-5.6,9.2-7.3,13.1
		c-2.4,5.5-1.1,12.8,1.2,18.2c1.7,4,5,7,5.3,11.2c0.4,4.6-0.4,10.6-0.7,15.3c-0.2,3.1,0,1.8-2.2,4.8c-1.5,2-3.2,4.5-2.5,7.2
		c0.9,3.5,5.9,7.6,7.8,10.4c1.8,2.6,2.7,7,3.3,10c0.9,4.7-0.1,8.3,1.7,12.8c2,4.8,3.2,8.4,6.7,11.7c1,1,9,8.1,9,8.7
		c-0.9-7.8,12.7-9.8,17.7-6.6c6.7,4.3-9.4,4.4-11.9,5.4c1.1,3.1,3.8,7.1,4.2,10.2c-3.2-4.2-11.9-9.3-10.5-1.2
		c0.5,3.3,1.4,6.4,4.7,7.9c2.3,1,8-0.6,8.7,2.5c0.5,2.1-2.9,4.4-2.9,6.2c0,1.7,1.8,3.9,2.9,5c1.8,1.8,4.1,2.4,5.7,4.5
		c1.9,2.5,3.2,5.4,5,7.9c2.9,4,6.4,8.8,7.8,13.6c1.8,6,2,10,9.1,10.8c3,0.4,7.5-1.6,10.5-0.5c2.4,0.9,2.9,3.6,4.7,5.4
		c3.9,3.9,11.5,0.4,10.7,7.7c4.6-2.7,7.1,2.6,9.4,5.2c2.7,3.2,7,5.3,8.9,9.1c2.4,4.7,2.8,8.8,6.2,13.4c2.6,3.5,2.6,6.9,5.4,10.7
		c3.1,4.3,1.5,8.6,4.6,12.5c1.7,2.2,2.3,2.6,3.3,5c0.9,2,1.8,3.1,2.8,4.9c3.3,5.9,0.6,11.6,7.2,16.2c4.3,3,8,4.4,10.6,9.1
		c1.8,3.2,3.1,7,5.6,9.6c2.1,2.2,6.7,3.5,6.6,7.1c-0.1,2.4-1.9,1.6-2.4,3.2c-0.9,2.7,0,5.6,3.6,5.4c1.1,7.4-12.1-2.2-14.9-0.9
		c-4.8,2.3,0.5,3,2.5,4.7c2.2,1.8,1.8,4.1,3.7,5.7c1.7,1.3,4.2,1.1,6.3,2.6c1.7,1.3,3.3,4.1,5.2,4.9c3,1.2,8.1-1.6,11.3-3.3
		c-0.3,8.5,5.5,10.2,11.1,14.6c2.8,2.2,4.1,5.2,4.6,8.6c0.6,4.4-2,10.5,0,14.4c1,1.9,5.4,4.9,7.2,6.3c3.4,2.8,6.9,5.6,10.3,8.7
		c3.4,3.1,4.8,7.1,8.8,9.6c1.8,1.1,3.5,1,4.9,3.3c1.2,1.9,1.2,4.4,2.6,6.3c4.3-2.7,8.2-5.2,5.8-10.8c-0.6-1.3-2-1.6-2.5-2.9
		c-0.4-1.1,0.5-2.7-0.1-3.8c-0.6-1.3-5.7-4.4-6.9-4.9c1,7.9-6.5,2.1-7.4-2.1c-0.6-2.6,0.3-5.1-0.4-7.7c-0.6-2.1-2-4.1-2.9-6.1
		c-1.3-3.1-3.8-6.3-5-9.3c-0.7-1.9-0.9-4-1.2-6.2c-0.8-5.6-4.2-11.4-8.7-15c0.8,1.7,1,3.7,0.3,5.4c-2.3-0.4-5.3-9.1-6.7-11.6
		c-2.6-4.8-7.2-8.9-9-14c-2.1-5.9-1.2-8.8-6.3-12.3c0.1,0-2-2-2-2c-0.5-0.5-1.4,0-2.1-0.8c-1.2-1.4-1.7-4.1-3-5.8
		c-1.3-1.7-3.6-5-4.9-6.3c-2.2-2.1-6.2-2.9-8-5.5c-2.4-3.5-1.5-9.7-2.9-13.6c-0.6-1.8-0.7-4.2-1.6-5.8c-1.6-2.8-2.8-2.9-2.9-6.1
		c-0.2-3.2,0.8-4-0.7-7.3c-1.2-2.6-3.3-4.7-3-7.8c4.1,0.6,6.5,7.1,10.7,7c2.7-0.1,1.4-2.3,2.9-2.8c3.4-1.1,4.9,1.7,6.8,3.6
		c1.1,1.2,2.2,2.7,3.7,3.5c1.4,0.8,4.5,0.3,5.7,1.5c1.7,1.9-0.2,2.7,0.5,4.6c0.7,2.1,2.7,2.1,3.7,3.7c1,1.7,0.2,4.3,0.9,6.2
		c0.7,2.2,2.5,4.8,3.4,7.1c0.9,2,1.5,4.6,2.3,6.5c0.9,2,4.2,4.2,5.1,6.3c1.7,4.4,0.8,7.1,3.9,11.2c1.5,1.9,2.1,4.3,3.5,6.1
		c3,3.9,7.1,6.7,10.8,9.8c3-3,2.5-2.5,5.7-0.6c3.8,2.2,2.3,1.4,3,5.5c1.2,6.6,9,7.2,9.9,13.6c3.6,0.2,7.2-0.1,10.1,2.4
		c2.8,2.4,2.4,6.2,4.4,8.9c-0.5-0.7-1.4-1-2-1.5c-2,2.1-4.9,3.1-5.1,6.2c0,1,1.4,5.1,2.1,5.6c1.7,1,2.5-0.6,3.9-0.2
		c2.9,0.9,1.3,1.5,3.5,3.5c3.1,3,8.7,2.6,10.9,6.7c0.8,1.6,0,3.4,0.9,5c0.9,1.7,2.9,2.3,4.2,3.4c2,1.7,3.7,3.6,5.7,5.3
		c6.9,5.8,12.2,13.5,18.2,20.3L576.1,558.2z M632.2,37.5c-2.2,1.9-5.2-0.5-6.1-2.5c-2.7,2.2-0.6,8.7-5.5,9.8
		c-3.4,0.8-5.8-2.6-5.8-5.4c-0.5,0-1-0.1-1.6-0.2c-0.2-5.9,4.6-1.6,6.8-4.4c4-5.4-2.4-2.7-4.4-5c-2.3-2.6-1.1-4.4,0.5-6.8
		c0.1-0.2,3.1-1,4-2.2c0.2-0.2-0.6-4.9-0.5-5.7c3.5,0.2,4.2,2.9,4.2,6.2l5,6.8C629.8,29.6,634.6,35.4,632.2,37.5z M795.9,166.3
		c-3.9-3.6,10.3-16.4,10-21.8c-0.1-0.9-2.5-3.6-3-4.9c-0.5-1.5-0.2-3.4-0.7-5c-0.9-2.9-3.1-1.6-3-5.5c-4.6,0.6-7.5-4.9-12.3-5.8
		c-2.8-0.5-9.4-0.5-11.6,1.3c0.9,0.1,3.3,1.6,4.6,1.6c-2,2.5-4.6,2.7-6.7,5.4c-2.7,3.5-1.3,6.5-2.6,10.4c-4.4-0.1-3.7-4.7-4.4-8.1
		c-9.1,2.7-12.1,32.2-9.9,39.5c1.4,4.6,3.6,5.3,3.7,10.6c0.1,4.5-1.6,8.7-3.2,12.8c-2.2,5.7-5.5,12.6-13,11.9
		c-13.1-1.2-16.4-23.4-14.1-32.6c3.3-13.5,12.8-29.8,12.6-43.3c-3,3-5,15.9-10.9,14.4c-4.7-1.2-2-5-0.4-8.3
		c2.8-5.7,8.5-23.2,15.9-23.1c3,0.1,4.1,3.1,6.4,3.3c2.4,0.2,6.4-2.1,8.5-3c7.2-3,10.9-5.1,17.5,0.6c2.1-6.1,19.6,0.9,24.9,1.7
		c4.2,0.6,8.7-0.5,12.9,0c4,0.5,4.1,0.9,7.4,3c2.3,1.5,1.5,4.7,6.3,3.2c0.2-2.9,0.5-5.5-1.3-7.4c1.2,1.4-8.8-3.7-7.6-3.5
		c-1.5-0.3-5.1,1.4-7.2,1.5c-3.7,0.3-8.7-0.7-12.4-1.2c-4.7-0.7-26.8-6.2-25.7-12.2c-10.8-4.6-19.3,5-29.6,1.8
		c-4.2-1.3-9.3-3-12.7-5.7c-2.4-1.8-1.1-3.8-4.1-4.2c-1.9-0.3-4.5,3-7.5,2.3c-1.4-1.8-3.9-4-3.6-6.6c4.1-1.6,13.8-2.3,12.9-8.3
		c-3.9-1.6-7.1,0.9-10.6,2.5c-3.5,1.6-7.8,3.2-11.2,5.1c-9.6,5.4-16.3,11.8-28.5,10.5c0.3-1.2-0.4-3-0.1-4.2
		c-7.2-1.2-12.8,6.7-19.9,3.7c2.6-5.3,5.3-9.8,10.8-13.2c8.6-5.3,17.3-10.5,25.9-16.1l4.4-0.6c5-7.6,2.2-18.3,14.3-12.5
		c0.1-7.3,0.5-6.1,5.7-6.2c3.7,0,11.6-2.3,3-5c3.6-6.2,8.8-2.9,12.7,0c1.9,1.4,4.3,3.4,6.5,4.3c2.8,1.1,7.1,0.1,9.4,1.4
		c4.6,2.5,4.4,11.8,9.3,14.8c3.9,2.3,4.3-0.5,7.3-0.1c3,0.5,6.5,2,9.2,3.2c-5,3.5,0.3,7.7,1,11.9c0.5,3.4-1.8,5.7,0.7,8
		c2,1.9,6.3,0.1,8.5,3.7c-5.8,2.6-9.9,4.9-4.7,10c1.3,1.3,8.6,5.1,10.3,5.8c8,3.2,20.3-0.4,28.9,0.9c5.3,0.8,18.7,3.2,22.7,6.8
		c3.8,3.4,2.2,10.1,4.7,14.1c3.3,5.2,11.3,6.3,11.5,13.9c-2.4,0.4-4.7-0.9-6.3-2.8c8,8.2-6,10.7-11.1,7.3c-4.5-3-9-15.6-13.5-4.1
		c-1.7,4.3-0.9,11.6-2,16c-1.3,5.2,0.2,23.3-10.6,20.4c-4.9-1.3-6.6-11.2-8-15.4C805.9,146.8,804.9,174.8,795.9,166.3z M870.5,187.4
		c-1.6,1.5-4.8,1.7-6.7,3.1c-1.9,1.4-2.8,3.8-4.7,5.2c-4.9,3.7-8.5,1.7-13.5,3.5c-7.4,2.7-13.3,10.6-21,13.2
		c-4.8,1.6-14.7,0.9-19.3-1.3c-5.4-2.6-3.5-4.9-3.1-11.2c8.1-2.1,13.8-2.5,21-7.1c2.2-1.4,6.5-4.4,8.9-5.3c4.5-1.8,9.5,0.1,14.2-1.9
		l3.7-1.9c3.5-0.8,10.9-1.7,14.7-3.7c3.4-1.7,3.9-5.6,8.3-5.6C875.1,178.3,873.7,184.3,870.5,187.4z M916.7,158.8
		c1.6,5.2-3.9,8.9-8.6,8l-6.8,1.2c-1.9,7.5-14.8,1.7-20.4,1.9c-6.5,0.2-14.7,1.4-21.4,3c-2.5-11.5,9-12.6,18.7-14.2
		c5.6-0.9,11.4-2.1,16.8-3.9c8.7-2.9,17.3-6.2,26.1-8.6C919,149.3,912.2,155.6,916.7,158.8z"/>
	<path fill="#8DCEE0" d="M896.9,492.2c-4.5-1.5-18.2,2.4-21.7,5c2.7,1.9,7.2,1.7,10.5,0.6l-2.5-1.2c3.4-2.7,8.3-2,12.3-1.8
		c0.3,0.2,2.4,1.9,3,2.4c-0.2,2.4-0.8,5.4-0.4,8.1C903.5,504.8,901.8,493.8,896.9,492.2z"/>
	<path fill="#8DCEE0" d="M915.5,522.1l1.2,3.7c1.5,2.8,1.4,5.9,2.5,8.7C922.8,530.3,917.9,526,915.5,522.1z"/>
</g>
<g id="land">
	<path id="piece_6_" fill="#F6F0EF" d="M1136.4,26.6c-7.9-2.3-17.7-13.3-26.6-9.3h1.2c-2,1-4.6-2.1-6.2-1.1c-2,1.3,3.4,5.6,4.6,6.9
		c4.8,5.4,8.3,6.7,15.2,7.8c7.8,1.2,15.2,5.9,23.4,5.5C1148.4,30.2,1141.3,28,1136.4,26.6z"/>
	<path id="piece_5_" fill="#F6F0EF" d="M111.4-2.1c5.5,7.2,16.1,3.6,20.7,9.6c2.3,2.9,2.2,6.7,4.4,9.8c1.1,1.6,7.1,5.4,3,7.2
		c1.9,1.5,5,5.4,7.8,3.4c2.7,2.7,2.3,4.4,6.2,5.7c4.5,1.5,5.5,1.1,6,6.5c0.3,3,0.8,10.2,5.3,9.3c1.4,13.8-11.2,1.6-16.8-0.7
		c-2-0.8-4.1-0.5-6.1-1.4c-2.4-1.1-3.3-3.5-5.7-4.3c1.1-2.5,6.9-5.9,6.3-8.7c-1.4-6-4.4,3.7-4.7,3.9c-2.7,2.3-4-0.8-5.8-0.7
		c-3.1,0.2-2.2,1.5-4.9,2.4c-2.4-2.9-2.2-3-2-5.7c0.1-1.3,2.7-1.4,1.2-3.9c-0.5-0.8-7-2.9-7.9-3.3c-2.1-0.8-2.4,0.2-3.7-1.2
		c0,0-1.2-3.8-1.3-4c-1.1-3.4,0.1-2.8-3.3-4.3c-2.1-0.9-3.2-2.3-5.4,1.2c-3.9-1.1-1.6-4.4-1.8-7c-2.1,0.4-3.8-1.2-5.8-1.7
		c-3-0.8-3.9,0.4-5.6-2.9c-1.6-3.1-4.3-8.7-4.1-12.4L111.4-2.1z"/>
	<path id="piece_4_" fill="#F6F0EF" d="M576.1,556.2c0.6-5.9-1.4-10.9-1.4-16.6c0-4.7,2.8-8.8,3.7-13.4c1.3-7.1,5.9-14.3,3.1-21.5
		c-0.9-2.4-3.2-3.2-4.2-5.3c-1.2-2.5,0.8-6-0.6-8.6c-1.3-2.4-4.4-1.7-3.6-5.9c1.6,1.2,3.6,2.9,5.7,3.3c0.9-1.3,2.8-3,3-4.6
		c0.4-3.2,0.1-1.2-1.3-3c-0.8-1-5.8-1.3-2.9-4.4c0.6-0.6,4.6-0.1,5.4-0.1c-0.1-2.3,1.9-6.9,3.8-7.9c1.4-0.7,2.6,0.9,4.1-0.4
		c0.1-0.1,0.8-2.1,1.2-2.6c-2.2-5.4,2.9-4,5.4-3c5,2.1,5.4,1.1,10-1.5c3.5-2,4.5-3.9,7.1-6.8c1.2-1.3,3-2,3.2-3.7
		c0.2-2.2-4-3.8-2.4-7.4c3.9,2.7,11.4-8.3,8.3,2.5c2.6,0,6.2,0,8.3-1.2c2.7-1.6,2.4-7.3,6.2-5.3c-0.4,2.4-3,4-3.3,6.5
		c4.8,0.2,9.3-0.6,14.1-0.8c5.1-0.2,9.3,1.8,14,2.1c-0.5-4.2,1.3-6.5,6-6.3c4.4,0.2,3.8,5.9,8.9,4.7c-0.4,1.9-1.6,3.1-0.6,5.3
		c0.7,1.6,5.2,4.1,7,3.7c2.6-0.6,3.3-4.3,6.5-3.6c2.5,0.5,2.4,4.3,6.2,2.5c-0.5-2.6-3.5-4-2-7.1c3.4-0.7,2.6,2.1,4.8,3.3
		c1.5,0.8,3.2-0.1,4.8,0.5c2.2,0.7,3.1,3.4,5,4.3c3.3,1.4,5.1-0.4,2.8-3.5c-1.7-2.2-8.8-1.7-9.5-4.6c-0.7-3,4.4-3.1,3.2-6.7
		c-1.3-3.8-3.6,1.4-5.4,1.4c-1.6,0-3.9-2.2-5.2-2.9c-1.5-0.7-3.6,0.5-3.8-2.2c-0.1-1,1.9-3,2.9-3.3c3.3-0.7,4.2,3.4,7.9,2.8
		c3.3-0.5,5.9-3.6,9.3-4.1c3.5-0.5,7.2,1.6,10.5-0.5c2.4-1.4,4-6.6,7.8-6.1c2.3,0.3,2.5,3,3.9,4.5c4.7,5,3.9,1.2,7.7-0.4
		c3.8-1.6,2.6,0.7,5.6,1.3c3,0.6,5.7-1.6,8.7-1.4c2.6,0.2,5.8,1.8,8.1,2.9c2.3,1.1,4.6,2.3,6.1,4.5c0.4,0.6,2.5,6.8,2,6.7
		c3.5,0.2,6.2-0.1,9.6-1.1c4.6-1.3,4.1-3.6,7.8-5.6c6.9-3.8,12.9,4.3,15.7,9.5c3.2,6.1,9.4,7.6,10.5,15c0.5,3.5,0.8,7.4-0.4,10.8
		c-0.9,2.6-2.6,3.9-2,7c4.2,0.4,1.3-5.3,4.1-5.3c4.8,0,1.2,6.7,0.8,7.8c-1.1,2.9-0.8,12.8,3.3,13.7c-0.1-0.6,0.1-1.4,0.1-2
		c1.7-0.1,3.5-0.1,5.3,0c-2.1,2.2-2.8,5.4-1.6,8.3c0.6-1,1.4-4.1,2.8-4.6c3.1-1.1,0.8,2,0.8,2.9c0.2,3-0.4,8.2,1.4,10.7
		c1,1.4,2.9,1.3,4.1,2.5c1.3,1.3,2.8,4.3,3.7,5.8c2.1,3.6,1.8,5.3,6.6,5.8c3.2,0.4,7.9,0.5,9.2-2.9c0.9-2.3-0.7-5.8-1-8.2
		c-0.4-2.8-0.2-5,0.4-7.8c0.7-3.4,2.6-6.7,2.6-10.1c-0.1-4.7-4-3.6-4.5-7.4c4.6-0.5-2.7-9.9-3.7-11.9c-2.6-5.3-2.1-11.1-3.8-16.3
		c0.7,0.1,1.5-0.3,2.4,0.3c-0.8-2.6-3.9-4.8-5.4-7.3c-2-3.5-3.2-6.7-3.7-10.7c-1.2-8.7-5-19.2-1.3-27c-4.5-1.9-1.4-4.5,0.5-6.9
		c0.8-1,1.8-1.8,2.4-2.7c0.4-0.5-0.1-1.8,0.5-2.5c0.5-0.6,1.7-0.4,2-0.8c0.6-0.6,3.1-2.5,3.3-3.3c0.5-2.6-1-2.2-1.5-4
		c-1.6-5.6,3.9-4.2,3.3-0.6c1-0.8,1.5-2.2,1.2-3.6c2.7,0.1,9.8,0,8.3-3.7c0.6,0.3,2,0.3,2.8,0.7c0.3-1.1,1.2-1.7,1.4-2.8
		c1.5-0.5,7.5-4.6,8.6-6c2-2.4,0-1.8,0.5-3.6c0.5-1.7-0.6-3.8,2.3-2.6c0.9-3.5,5.4-5.4,8.3-7.1c1.7-1,1.7-1.6,3.8-2.1
		c2.2-0.5,4.1,0.8,5.8,0c3-1.5,2.7-5.4,4.1-7.5c1-1.5,3.3-2.1,3.8-3.6c0.4-1.2-0.8-3.1-0.8-4.5c1.8,0.2,2.1,2.6,3.7,2.9
		c1.8,0.3,2.5-1.6,3.8-2c3.2-1,7.4,0.6,9-3.3c-1.7-0.7-4.3,0.2-5.8-0.6c-1.8-1-1.9-4.2-2.9-6.1c3-0.4,3,5,5.7,3.6
		c1-0.5,0.7-4.2,0.8-5.2c-1.5-0.4-9.8-3.1-6.2-5.4c2.9-1.8,6.1,5.1,8,1.2c0.4,1,0.6,1.8,0,3.2c3.4-1.6,5.1,1.6,7.9-0.9
		c2-1.7,3.9-6.5,3.6-9c-2.4,0.4-2.2,3.3-5.3,3.2c-1.3-1.7-0.5-3.6,0.2-4.9c-3.4-0.7-7,3-9.8,0.3c-1.5-1.4-2.2-6.4-0.8-7.8
		c1.9,1.3,0.7,4.2,2.8,5.4c1.7,1,3.2-0.5,3-2.5c0.4,0.6,1.5,1.2,2,2c1.3-3.5,4,0.3,5.5-1.6c1.1-1.3-2.6-5.4-2.6-7
		c0.8,0.2,2.1-0.3,2.8-0.2c0.1-1.8,0.6-5-0.7-6.5c-2.1-2.3-2.3-0.2-4.5-0.3c-4.4,0-5.9-2.9-10.1-5c-2.6-1.3-10.6-4.3-3.2-4.6
		c5.6-0.2,7.2,6.1,11.5,6.5c0.6-4.2-5.9-5.2-7-9.1c1.2,0.5,5,4.8,6.6,4.2c3.1-1.2-0.5-4.2-1.4-5c-2-2-3.8-2.9-5.3-5.5
		c-1.2-2-2-3.7-3.8-5.3c4.1-2.5,9.5,5.9,12,8.3c0.5-1.4,0.6-2.9,0.5-4.5c-4.5-1.8-10.2-5.5-13.7-8.8c-4.8-4.6,2.6-9.4,2.2-2.1
		c4-0.5,6,4.4,10.7,4.2c0.6-2.6-2.2-7.1-4.9-7.5c-0.1-3.1-1.2-9-0.1-11.4c1-2.2,9-9,11.2-8.8c0.5,5.3-3.3,7.8-2.4,12.8
		c0.5,2.8,2.7,8.7,4.2,10.7c1.2,1.6,3,1.5,3.3,3.4c0.3,1.5-1.3,2.1-1.3,3.3c0,0.9,0.8,2.2,0.8,2.6c0,3.1-0.3,3.5-2.1,6.5
		c-1.4,2.3-2,4.4-2.7,6.6c3.5-0.2,8-10.7,8.6-14c0.6-3.7,0.8-5.4,2.1-8.7c0.3-0.8,1.3-0.4,1.7-1.6c0.2-0.6-0.5-1.8-0.5-2.1l2.1-2.5
		c-3.3-2.6-5-4-6.2-7.8c-0.7-2.4-1.6-5.1-2.1-7.5c-1-5.1,2.2-11,8.3-10.3c-2.8,5.1-9.3,5.1-4.6,11.9c1.7,2.5,6.9,8.2,9.6,6.7
		c3-1.6,3.3-8.5,5.5-11.2c1.4-1.7,2.6-1.8,3.5-4.2c1.1-2.8,3-12-2-11.2c-0.9-4.8,1.4-4.2,3.8-4.6c2.6-0.5,5.7-1.9,8.6-2.8
		c4.2-1.3,20.9-1.7,21.6-6.7c-3.5-1.4-6,1.7-9.1,2.5c-2.2,0.6-4.5,0.2-6.7,0.5c-3.4,0.4-6.7,2.5-10.2,1.9c-1.3-2.6-3.1-5.6-2.9-8.6
		c3,0.2,1.2,3.4,2.9,4.6c2,1.5,3.7-1,5.6-2.2c4.5-2.7,8.4-2.6,13.3-3.7c2.1-0.5,4.2-2.1,6.4-2.6c2.3-0.5,4.7,0,6.9-0.5
		c3.9-0.8,4.3-2.3,4.6-6.1c2.1,0.4,4.1,0.2,6.1,0c-0.9,1.7-1.2,4.9,2.1,3.6c1.5-0.6,0.9-3.5,3.4-4.1c0.4,1.2,0.5,2.7,0.4,4.1
		c2.3,0.7,2.4-0.9,3.2-1.2c1.2-0.4,3.2-0.7,4.7-1.2c3.3-1,7-5.9,1.4-7.5c-0.3,1.5,0.1,3.2,0.1,4.9c-1.5,0.4-3.4,0.7-4.8,0.8
		c-0.7-1.4-2.6-2.2-3.1-3.5c-0.8-2.1,1.4-5.5-0.7-7.3c-1.7-1.5-4.6,0.8-5.9-1.2c-1.4-2.1,0.9-4.3,2.9-4.2c1.2,0-1.4-8.6-1.1-9.5
		c0.8-2.9,5.5-8,7.4-10.3c0.9-1.1,3.1-2.4,4.1-3.7c0.8-1.1,0.1-2.1,0.5-3.3c0.9-3.3,1.2-3.8,5-6.1c1.4-0.9,5.1-4.7,4.1,0.7
		c2.4,0.7,4.4-2.2,5.9-3.3c1-0.7,1.4,0.5,2.8-0.9c1.6-1.6,0.6-4.7,2-6.6c3.6-4.9,1.7,0.9,3.8,2.5c2.8,2.1,4.3-0.9,4.6-3.3
		c1.3,0.6,1.7,0.6,1.8,2.4c3.5-0.2,8.1-5.2,11.6-6.7c1.8-0.8,4.7-0.2,6.1-1.2c3-2.2,0.2-4.4,0-6.1c-0.2-1.1-0.5-6.1,0.8-6.6
		c1.9-0.7,3.1,2.8,4.3,3.2c1.1,0.4,1.9-0.1,2.9,0.1c1,0.1,5.6,0.4,6.6-0.3c2.3-1.6,0.6-6.6,4.2-6.6c0.7,1.4,0.5,2.8-0.5,4
		c2.4,3.4,11.8-5.1,14.6-6.9c1.9-1.2,5.8-3.8,6.6-5.9c0.8-2.2-0.6-3.3-0.4-5.8c3.7,0.4,2.5,9.7,7.4,5.9c0.3,6.7-1.1,4-5.8,6.6
		c-2.8,1.5-3.3,3.4,0.4,4.1c3.6,0.7,18-4.6,18.6,0.9c-4.4,1-9.6,1.7-13.6,4.2c1.2,0.8,1.9,2.1,1.9,3.6c-2.4,0.3-5.7-3.7-3.4-5.7
		c-4.3-0.7-8.6,5.3-12.4,7.1c-3.2,1.5-5.2,2.2-7.7,4.8c0.9-0.3,2.3-0.1,3.1-0.2c-1.4,1.7-3.4,3.1-5.2,4.3c-0.3-0.2-0.6-0.5-0.9-0.6
		c-3.1,3.2-5.9,6-5.9,10.4c0,2.4,0.2,8.2,3.8,7.4c0.1-0.5,0.1-1,0.1-1.5c3.2,0.7,2.5,8.8,7.8,6.8c2.8-1.1,3.4-12.9,6.6-5.1
		c2.6-4.1,6.5-3.6,8.7-7.9c0.7-1.3,1.2-4.1,2-5.7c0.2-0.3,1.6-0.9,2.1-1.8c0.4-0.6-0.5-2.4-0.8-2.9c1.6-1,3.4-1.9,5.3-2
		c-0.2,0.8,0.3,2,0.1,2.8c3.8,0.2,4.5,0.4,7.4,2.1c0.6-3.4-0.7-4.6-3.2-6.3c1.4-1.3,2.8-0.6,3.4,1.3c4.9,0.1,11.4-2.6,16.4-5.6
		c3.7-2.2,7.5-3.9,11.7-5.3c2.9-0.9,8.8-0.5,10.4-2.8c-1.6-1.5-4.3-0.5-6.3-1.2c2.3-1.8,1.4-7.1-1.7-8.2c-2.3-0.8-5.6,3.1-5.4-2.5
		c-2.2,1.4-6.3,4.7-8.7,5.3c-1.6,0.4-3.6-0.6-5.4-0.5c0.5-1.6-0.4-1.4,1.1-2.5c-2.7-2-4.1-1.4-6.9-0.6c-4.2,1.1-2.8,1.4-6.2-0.3
		c-2.9-1.5-6.7-4.2-9.2-6.9c1.2-1,2.9-1,4.6-0.9c0.1-4.8-5.7-2.1-8.3-2.5c-1.3-0.2-4.9-1.7-5.8-2.4c1.9-2.1-0.9-6.6-2-8.7
		c-1-1.8-2-1.6-2.1-4.1c-0.1-1.7,1.7-2.8,1.2-4.9c-2-0.1-4.1,0-6.1-0.1c-1.9-4,2.5-4.8,4-7.8c1.4-2.8,3.9-8.4,4.2-11.2
		c-6.7-3.2-9,7.7-14,6.2c-1.4-4.3-1.4-5.5-5.9-6.9c-1.4-0.4-3.3-1.5-4.7-1.6c-2-0.2-5.5,2.1-6.9,1.6c-4.2-1.6,3.4-5,5.3-5.3
		c3.5-0.7,6.8,0.6,7.6-3.8c2,0.7,3.1,3.2,4.9,4.1c2.1,1.1,3.7-0.8,5.3,2c2-1.2,4.9-3.3,6.7-5c0.7-0.6,1.4-2.1,2.1-2.6
		c1.8-1.3,3.8-0.6,5.8-1.5c8.4-4.2-2.1-7-3.3-9.5c2.2-0.1,4.4,0.5,6.6,0.3c-5-2.8-5.5-8.1-11.3-9.6c-6-1.5-10.5-1.5-16.6,0.2
		c-14.6,4-27.3,8.8-39.8,17.8c-11,7.9-18.7,17.4-27.6,27.3c-7.3,8.1-14.1,12.9-24.1,17.2c-10.8,4.6-19,12.5-26.3,21.1
		c-4.8,5.7-13.3,15.5-21.9,14.4c1.9-2.2,5.7-4.1,7.1-6.9c0.9-1.7,0-3.5,1-5.3c1-1.8,2.8-2.1,4.3-3.4c5.2-4.2,8.5-8.9,14.7-12.5
		c6.1-3.5,11.4-7.3,17.9-10.4c12.6-6,20.3-17.5,29.6-27c7.6-7.7,1-8.4-7.1-9.9c-1-0.2-6.4-0.3-7-1.3c-1.1-1.8,12.3-2.6,14-1.9
		c2,0.8,3.4,3.5,5.7,3.6c3.2,0.2,3.3-3.4,4.7-6.2c1.8-3.8,4.5-5.5,7.4-8.3c4.5-4.4,8.2-10.7,14.6-11.6c3.1-0.4,5,0.4,7.9-1.6
		c3.3-2.3,3.4-5.4,5-9.2c2.9-6.8,7-10.1,14.5-10.4c7.3-0.3,14.1-3.3,21.4-3.8c9-0.6,18,1.3,26.9,0c9.7-1.4,20.4,0.6,29.9,2.4
		c10.7,2,32.9,0.1,31.6-14.8L140.9-1.7c0.2,2.8,1.4,4.8,1.3,7.8c2-0.4,4.1-1.5,6.2-1.1c0.5,2.6-2,3.7-2.6,6
		c-0.5,2.2,0.6,6.7,2.1,8.4c2.6,3,3,2,5.4,0c2.3-2,1.5-3.9,3.1-5.8c2.9-3.6,3.2,0.1,2.7,2.6c-0.2,1-1.2,2.3-1.5,3.6
		c-0.2,1.1,1.2,1.4,1.2,2c-0.1,1.2-2.2,2.3-1.8,3.5c0.4,1.3,1.5,0.6,1.8,1.1c0.8,1.4,3.4,0.1,2.9,3.7c2.9-0.1,4.2-6.9,7.5-8.4
		c0.8,3.1-1.1,6.9-0.1,10.4c1.7-0.7,2.4-3.1,4.6-3.6c1.4,3.1-4.5,6.6-2.8,9.6c1.2,2.1,4.5,1.2,6.1,2.9c1.4,1.4,2.6,6.2,3,8.1
		c0.6,2.6-0.5,7.2,0.8,9.4c1.4,2.2,5,1.5,4.3,4.9c-0.6,2.7-4,2.8-4.3,6.1c-0.3,2.7,7.8,13.5,0.9,12.2c0.9,3.8-5.8,5.3-8.4,4.1
		c1-1.8,2.5-3.4,1.7-5.4c-1.3,0.8-2.9,1.3-4.5,1.1c0.4-2.5,0.6-5.3,1.3-7.9c1-4,6.7-6,6.1-9.8c-4.9,1.1-11.7,0.5-16.1-1.8
		c-2.6-1.3-15-7.3-15.7-3.4c-0.4,2.3,2.4,3.5,3.3,5.6c1,2.3,1.4,5.8,2.1,8.2c0.9,3.3,0.9,7,2.4,10.1c1,2,4.1,3.3,4.7,4.9
		c0.8,2.4-1.2,1.6-1.2,2.5c0,1.7-0.5,0.8,0.2,2.8c0.4,1.1,2.1,2.9,3.1,3.6c-0.8-0.6-2.1-0.7-3-1.1c-1.2,3.5-0.8,6.4,1.6,8.3
		c2.2,1.8,7.9,1.2,9.1,4.4c-2.6,0.4-9.4-1.1-11.3,0.9c-1.3,1.4-0.1,6-0.3,7.9c-0.3,2.3-1.2,4.3-1.3,6.7c-0.1,2.9,1.3,5.3,1.6,8
		c0.6,5.2-1.8,10.7-1.6,16.1c0.2,3.2,1.3,7.2,0.8,10.4c-0.2,1.2-1.6,1.8-1.6,2.9c0,1.2,1.6,1.8,1.6,2.8c-0.1,4.4-5.6,9.2-7.3,13.1
		c-2.4,5.5-1.1,12.8,1.2,18.2c1.7,4,5,7,5.3,11.2c0.4,4.6-0.4,10.6-0.7,15.3c-0.2,3.1,0,1.8-2.2,4.8c-1.5,2-3.2,4.5-2.5,7.2
		c0.9,3.5,5.9,7.6,7.8,10.4c1.8,2.6,2.7,7,3.3,10c0.9,4.7-0.1,8.3,1.7,12.8c2,4.8,3.2,8.4,6.7,11.7c1,1,9,8.1,9,8.7
		c-0.9-7.8,12.7-9.8,17.7-6.6c6.7,4.3-9.4,4.4-11.9,5.4c1.1,3.1,3.8,7.1,4.2,10.2c-3.2-4.2-11.9-9.3-10.5-1.2
		c0.5,3.3,1.4,6.4,4.7,7.9c2.3,1,8-0.6,8.7,2.5c0.5,2.1-2.9,4.4-2.9,6.2c0,1.7,1.8,3.9,2.9,5c1.8,1.8,4.1,2.4,5.7,4.5
		c1.9,2.5,3.2,5.4,5,7.9c2.9,4,6.4,8.8,7.8,13.6c1.8,6,2,10,9.1,10.8c3,0.4,7.5-1.6,10.5-0.5c2.4,0.9,2.9,3.6,4.7,5.4
		c3.9,3.9,11.5,0.4,10.7,7.7c4.6-2.7,7.1,2.6,9.4,5.2c2.7,3.2,7,5.3,8.9,9.1c2.4,4.7,2.8,8.8,6.2,13.4c2.6,3.5,2.6,6.9,5.4,10.7
		c3.1,4.3,1.5,8.6,4.6,12.5c1.7,2.2,2.3,2.6,3.3,5c0.9,2,1.8,3.1,2.8,4.9c3.3,5.9,0.6,11.6,7.2,16.2c4.3,3,8,4.4,10.6,9.1
		c1.8,3.2,3.1,7,5.6,9.6c2.1,2.2,6.7,3.5,6.6,7.1c-0.1,2.4-1.9,1.6-2.4,3.2c-0.9,2.7,0,5.6,3.6,5.4c1.1,7.4-12.1-2.2-14.9-0.9
		c-4.8,2.3,0.5,3,2.5,4.7c2.2,1.8,1.8,4.1,3.7,5.7c1.7,1.3,4.2,1.1,6.3,2.6c1.7,1.3,3.3,4.1,5.2,4.9c3,1.2,8.1-1.6,11.3-3.3
		c-0.3,8.5,5.5,10.2,11.1,14.6c2.8,2.2,4.1,5.2,4.6,8.6c0.6,4.4-2,10.5,0,14.4c1,1.9,5.4,4.9,7.2,6.3c3.4,2.8,6.9,5.6,10.3,8.7
		c3.4,3.1,4.8,7.1,8.8,9.6c1.8,1.1,3.5,1,4.9,3.3c1.2,1.9,1.2,4.4,2.6,6.3c4.3-2.7,8.2-5.2,5.8-10.8c-0.6-1.3-2-1.6-2.5-2.9
		c-0.4-1.1,0.5-2.7-0.1-3.8c-0.6-1.3-5.7-4.4-6.9-4.9c1,7.9-6.5,2.1-7.4-2.1c-0.6-2.6,0.3-5.1-0.4-7.7c-0.6-2.1-2-4.1-2.9-6.1
		c-1.3-3.1-3.8-6.3-5-9.3c-0.7-1.9-0.9-4-1.2-6.2c-0.8-5.6-4.2-11.4-8.7-15c0.8,1.7,1,3.7,0.3,5.4c-2.3-0.4-5.3-9.1-6.7-11.6
		c-2.6-4.8-7.2-8.9-9-14c-2.1-5.9-1.2-8.8-6.3-12.3c0.1,0-2-2-2-2c-0.5-0.5-1.4,0-2.1-0.8c-1.2-1.4-1.7-4.1-3-5.8
		c-1.3-1.7-3.6-5-4.9-6.3c-2.2-2.1-6.2-2.9-8-5.5c-2.4-3.5-1.5-9.7-2.9-13.6c-0.6-1.8-0.7-4.2-1.6-5.8c-1.6-2.8-2.8-2.9-2.9-6.1
		c-0.2-3.2,0.8-4-0.7-7.3c-1.2-2.6-3.3-4.7-3-7.8c4.1,0.6,6.5,7.1,10.7,7c2.7-0.1,1.4-2.3,2.9-2.8c3.4-1.1,4.9,1.7,6.8,3.6
		c1.1,1.2,2.2,2.7,3.7,3.5c1.4,0.8,4.5,0.3,5.7,1.5c1.7,1.9-0.2,2.7,0.5,4.6c0.7,2.1,2.7,2.1,3.7,3.7c1,1.7,0.2,4.3,0.9,6.2
		c0.7,2.2,2.5,4.8,3.4,7.1c0.9,2,1.5,4.6,2.3,6.5c0.9,2,4.2,4.2,5.1,6.3c1.7,4.4,0.8,7.1,3.9,11.2c1.5,1.9,2.1,4.3,3.5,6.1
		c3,3.9,7.1,6.7,10.8,9.8c3-3,2.5-2.5,5.7-0.6c3.8,2.2,2.3,1.4,3,5.5c1.2,6.6,9,7.2,9.9,13.6c3.6,0.2,7.2-0.1,10.1,2.4
		c2.8,2.4,2.4,6.2,4.4,8.9c-0.5-0.7-1.4-1-2-1.5c-2,2.1-4.9,3.1-5.1,6.2c0,1,1.4,5.1,2.1,5.6c1.7,1,2.5-0.6,3.9-0.2
		c2.9,0.9,1.3,1.5,3.5,3.5c3.1,3,8.7,2.6,10.9,6.7c0.8,1.6,0,3.4,0.9,5c0.9,1.7,2.9,2.3,4.2,3.4c2,1.7,3.7,3.6,5.7,5.3
		c6.9,5.8,12.2,13.5,18.2,20.3L576.1,556.2z M632.2,35.5c-2.2,1.9-5.2-0.5-6.1-2.5c-2.7,2.2-0.6,8.7-5.5,9.8
		c-3.4,0.8-5.8-2.6-5.8-5.4c-0.5,0-1-0.1-1.6-0.2c-0.2-5.9,4.6-1.6,6.8-4.4c4-5.4-2.4-2.7-4.4-5c-2.3-2.6-1.1-4.4,0.5-6.8
		c0.1-0.2,3.1-1,4-2.2c0.2-0.2-0.6-4.9-0.5-5.7c3.5,0.2,4.2,2.9,4.2,6.2l5,6.8C629.8,27.6,634.6,33.4,632.2,35.5z M795.9,164.3
		c-3.9-3.6,10.3-16.4,10-21.8c-0.1-0.9-2.5-3.6-3-4.9c-0.5-1.5-0.2-3.4-0.7-5c-0.9-2.9-3.1-1.6-3-5.5c-4.6,0.7-7.5-4.9-12.3-5.8
		c-2.8-0.5-9.4-0.5-11.6,1.3c0.9,0.1,3.3,1.6,4.6,1.6c-2,2.5-4.6,2.7-6.7,5.4c-2.7,3.5-1.3,6.5-2.6,10.4c-4.4-0.1-3.7-4.7-4.4-8.1
		c-9.1,2.7-12.1,32.2-9.9,39.5c1.4,4.6,3.6,5.3,3.7,10.6c0.1,4.5-1.6,8.7-3.2,12.8c-2.2,5.7-5.5,12.6-13,11.9
		c-13.1-1.2-16.4-23.4-14.1-32.6c3.3-13.5,12.8-29.8,12.6-43.3c-3,3-5,15.9-10.9,14.4c-4.7-1.2-2-5-0.4-8.3
		c2.8-5.7,8.5-23.2,15.9-23.1c3,0.1,4.1,3.1,6.4,3.3c2.4,0.2,6.4-2.1,8.5-3c7.2-3,10.9-5.1,17.5,0.6c2.1-6.1,19.6,0.9,24.9,1.7
		c4.2,0.6,8.7-0.5,12.9,0c4,0.5,4.1,0.9,7.4,3c2.3,1.5,1.5,4.7,6.3,3.2c0.2-2.9,0.5-5.5-1.3-7.4c1.2,1.4-8.8-3.7-7.6-3.5
		c-1.5-0.3-5.1,1.4-7.2,1.5c-3.7,0.3-8.7-0.7-12.4-1.2c-4.7-0.7-26.8-6.2-25.7-12.2c-10.8-4.6-19.3,5-29.6,1.8
		c-4.2-1.3-9.3-3-12.7-5.7c-2.4-1.8-1.1-3.8-4.1-4.2c-1.9-0.3-4.5,3-7.5,2.3c-1.4-1.8-3.9-4-3.6-6.6c4.1-1.6,13.8-2.3,12.9-8.3
		c-3.9-1.6-7.1,0.9-10.6,2.5c-3.5,1.6-7.8,3.2-11.2,5.1c-9.6,5.4-16.3,11.8-28.5,10.5c0.3-1.2-0.4-3-0.1-4.2
		c-7.2-1.2-12.8,6.7-19.9,3.7c2.6-5.3,5.3-9.8,10.8-13.2c8.6-5.3,17.3-10.5,25.9-16.1l4.4-0.6c5-7.6,2.2-18.3,14.3-12.5
		c0.1-7.3,0.5-6.1,5.7-6.2c3.7,0,11.6-2.3,3-5c3.6-6.2,8.8-2.9,12.7,0c1.9,1.4,4.3,3.4,6.5,4.3c2.8,1.1,7.1,0.1,9.4,1.4
		c4.6,2.5,4.4,11.8,9.3,14.8c3.9,2.3,4.3-0.5,7.3-0.1c3,0.5,6.5,2,9.2,3.2c-5,3.5,0.3,7.7,1,11.9c0.5,3.4-1.8,5.7,0.7,8
		c2,1.9,6.3,0.1,8.5,3.7c-5.8,2.6-9.9,4.9-4.7,10c1.3,1.3,8.6,5.1,10.3,5.8c8,3.2,20.3-0.4,28.9,0.9c5.3,0.8,18.7,3.2,22.7,6.8
		c3.8,3.4,2.2,10.1,4.7,14.1c3.3,5.2,11.3,6.3,11.5,13.9c-2.4,0.4-4.7-0.9-6.3-2.8c8,8.2-6,10.7-11.1,7.3c-4.5-3-9-15.6-13.5-4.1
		c-1.7,4.3-0.9,11.6-2,16c-1.3,5.2,0.2,23.3-10.6,20.4c-4.9-1.3-6.6-11.2-8-15.4C805.9,144.8,804.9,172.8,795.9,164.3z M870.5,185.4
		c-1.6,1.5-4.8,1.7-6.7,3.1c-1.9,1.4-2.8,3.8-4.7,5.2c-4.9,3.7-8.5,1.7-13.5,3.5c-7.4,2.7-13.3,10.6-21,13.2
		c-4.8,1.6-14.7,0.9-19.3-1.3c-5.4-2.6-3.5-4.9-3.1-11.2c8.1-2.1,13.8-2.5,21-7.1c2.2-1.4,6.5-4.4,8.9-5.3c4.5-1.8,9.5,0.1,14.2-1.9
		l3.7-1.9c3.5-0.8,10.9-1.7,14.7-3.7c3.4-1.7,3.9-5.6,8.3-5.6C875.1,176.3,873.7,182.3,870.5,185.4z M916.7,156.8
		c1.6,5.2-3.9,8.9-8.6,8l-6.8,1.2c-1.9,7.5-14.8,1.7-20.4,1.9c-6.5,0.2-14.7,1.4-21.4,3c-2.5-11.5,9-12.6,18.7-14.2
		c5.6-0.9,11.4-2.1,16.8-3.9c8.7-2.9,17.3-6.2,26.1-8.6C919,147.3,912.2,153.6,916.7,156.8z"/>
	<path id="piece_3_" fill="#F6F0EF" d="M346.2,214.6l-0.6-3.7c-1.4-1-3.3-2.2-5-3.2c-2,1.7-1.6,4.6-3.1,6.4c-2-1.7-4.4-10.1-8.2-7.5
		c-2.3,1.6,0.7,8.5,3,8.7c-0.3,12.4,9.4,10.7,17.1,4.9C348.7,218.3,347.5,216.3,346.2,214.6z"/>
	<path id="piece_2_" fill="#F6F0EF" d="M844,485.8c-2.1,0.9-3.9,2.1-5.6,3.8l1.9,3.7C845.4,499.4,845.2,488.6,844,485.8z"/>
	<path id="piece_1_" fill="#F6F0EF" d="M896.9,490.2c-4.5-1.5-18.2,2.4-21.7,5c2.7,1.9,7.2,1.7,10.5,0.6l-2.5-1.2
		c3.4-2.7,8.3-2,12.3-1.8c0.3,0.2,2.4,1.9,3,2.4c-0.2,2.4-0.8,5.4-0.4,8.1C903.5,502.8,901.8,491.8,896.9,490.2z"/>
	<path id="piece" fill="#F6F0EF" d="M915.5,520.1l1.2,3.7c1.5,2.8,1.4,5.9,2.5,8.7C922.8,528.3,917.9,524,915.5,520.1z"/>
</g>
<g id="green">
	<path fill="#DEECD2" d="M876.9,259.7c-5.9,1.2-12.4,18-17.5,17.3c-6.2-0.8,17.3-14.5,5.5-19.2c-6.7-0.5-6.8-3.6-9.3,4.7
		c-1.9,6.4-7.6,8.3-7.6,15.7c1.4-0.8,2.7-0.8,4.1,0.2c0,3.2,0.6,6.6-1.3,8.9c-3.2,3.9-26.2,7-17.2,10.6c-4,1.5-7.6,3.6-10.9,6.3
		c11.2,5.8,19.2-12.5,29.9-12.5c-2.7,0.9-11.6,6.7-12.7,9.4c4.4-0.7,16.7-7.3,19.4-10.9C862.2,286.3,878.6,264.2,876.9,259.7
		C873.5,260.4,878.7,264.3,876.9,259.7z"/>
	<path fill="#DEECD2" d="M813.1,329.7c-5.6,1.8-5,2.9-11.1,2.5c-1.4-14.5,20-5.7,23.4-6.6c11.4-3.1-1-9.3,1.5-13
		c1.5-2.3,13.1-4.3,12.4-7.4c-8.2-3-28.7,14.7-36.1,18.5c-6.2,3.2-15.8,9.1-19.9,14.6c-10.9,14.7,14.7,8.7,20.1,6.6
		C795.7,358.3,817.1,333.5,813.1,329.7C811.2,330.3,816.2,332.6,813.1,329.7z"/>
	<path fill="#DEECD2" d="M807,306.6c4,1.6,12.3-2.1,5.3-4.9c1.8-2.2,3.7-4.1,5.9-5.9C810.5,296,810.2,300.1,807,306.6
		C809,307.5,808,304.6,807,306.6z"/>
	<path fill="#DEECD2" d="M800.4,295.5c-6.1-1.3-11,2.7-2.9,6.7C806.4,306.6,804.4,294.8,800.4,295.5z"/>
	<path fill="#DEECD2" d="M787.7,300.8c1.1-6.7,20.4-21,13.7-27.1c-0.7-0.7-22.4,28.9-21.8,34.9C786.5,308.7,786.7,306.8,787.7,300.8
		C788,298.5,786.7,307,787.7,300.8z"/>
	<path fill="#DEECD2" d="M776.2,350.1c0.5-3.1-3.8-2.2,0.6-5.7c-6.6,0-7.1,2.5-7.5,9.2C772.4,353.9,774.7,352.7,776.2,350.1
		C776.4,348.9,775.6,353.8,776.2,350.1z"/>
	<path fill="#DEECD2" d="M767.4,361.2c-1.7-0.4-13.5,14.8-10.2,16.7C763.4,372.9,767.7,367.2,767.4,361.2
		C763.9,360.4,767.4,362.1,767.4,361.2z"/>
	<path fill="#DEECD2" d="M797.5,377.4c0.9-0.2,1.7-0.8,2.2-1.4C796.4,374.2,793.9,378.4,797.5,377.4z"/>
	<path fill="#DEECD2" d="M820,355.6c-8.8,5.4,1.8,12.7,2.2,12.1C824.2,365,828.2,353.8,820,355.6z"/>
	<path fill="#DEECD2" d="M826.3,350.3c-1.2,9,10.1,1.4,8.5-1.1C832.6,345.5,827.2,343.5,826.3,350.3z"/>
	<path fill="#DEECD2" d="M853,347.4c-1.7-0.5-2.6,0.3-2.5,2.5c1.8,0.2,3.7,0.1,5.5-0.1C855,348.9,854,348.2,853,347.4z"/>
	<path fill="#DEECD2" d="M854,370.2C855.4,393.5,868.1,364.1,854,370.2C854.1,372.4,857.5,368.7,854,370.2z"/>
	<path fill="#DEECD2" d="M816,413.1c-2.7,0.8-4.2,20.6,0.8,19.6C817.4,430,827.9,409.5,816,413.1C811.6,414.4,818,412.5,816,413.1z"
		/>
	<path fill="#DEECD2" d="M826,432.7c-3.1-2.2-3.1,3.2-3.4,4.7C825,437,826.2,435.4,826,432.7C825.4,432.3,825.1,434.6,826,432.7z"/>
	<path fill="#DEECD2" d="M831.9,449.2c-0.1-0.2-4.8-7.8-4.7-7.8C818.5,453.2,826.3,453.9,831.9,449.2
		C831,446.9,830.2,450.7,831.9,449.2z"/>
	<path fill="#DEECD2" d="M781.5,427.2c-14.5,5-2.4,11,4.9,2.4C785.8,426.9,784.2,426,781.5,427.2
		C780.1,427.6,783.3,426.5,781.5,427.2z"/>
	<path fill="#DEECD2" d="M844.3,509.2c-1.4-0.8-9-13.8-11.1-5C829.6,519.2,853.9,514.2,844.3,509.2
		C842.5,508.3,846.6,510.4,844.3,509.2z"/>
	<path fill="#DEECD2" d="M744.3,414.3c-1,5.5,8.9,0.3,9.7-0.9C754,411.1,744.7,411.9,744.3,414.3C743.9,416.3,744.7,412,744.3,414.3
		z"/>
	<path fill="#DEECD2" d="M715.2,419C716.8,419,715.2,419,715.2,419C715.2,419,715.2,419,715.2,419z"/>
	<path fill="#DEECD2" d="M715.2,419c4.1-6.3-8.4-9.3-9.4-4.9c0.5-2,3.3,11.3,2.6,10.1C711.1,428.9,713.5,418.9,715.2,419
		C716.1,417.6,714.4,418.9,715.2,419z"/>
	<path fill="#DEECD2" d="M712.1,405.3C706.2,417.6,729.7,401.6,712.1,405.3C712.1,405.3,713.7,405,712.1,405.3z"/>
	<path fill="#DEECD2" d="M707.7,393.5c0.8,2.5-4.5-10.1-8-7.5C694.7,389.7,707.9,401.8,707.7,393.5z"/>
	<path fill="#DEECD2" d="M684.4,403.5C665.4,412.9,688,415.8,684.4,403.5C682.5,404.4,684.4,403.5,684.4,403.5z"/>
	<path fill="#DEECD2" d="M686.9,382.3c1.7,1-2.7-4-4.6-1.6c-0.6,3,0.3,5.3,3,6.9c-0.4-1.3-0.6-2.7-0.6-4.1c1.4-0.3,2.6,0.1,3.7,1
		C689.1,382.5,688.6,381.8,686.9,382.3z"/>
	<path fill="#DEECD2" d="M703.6,350.1c0.6,1.9,1.6,3.5,2.9,5c3.1-1.4,9.5-9.1,6.7-12.7c-4.2-5.6-8.4,5.6-4.6,5.6
		C706.9,347.8,704,347.9,703.6,350.1C703.2,352.8,704,348.4,703.6,350.1z"/>
	<path fill="#DEECD2" d="M738.7,351.5c0.7-1.4-4.7,1-3.6,6.3c1.5,7.3,7.4-2.5,9.2-4C742.5,353,740.6,352.2,738.7,351.5
		C738.9,351.2,740.4,352.7,738.7,351.5z"/>
	<path fill="#DEECD2" d="M649.2,401.6c1.9,1.6,4,2.7,6.3,3.4c1.7-1.3-2.7-12.1-5-11.9C644.6,393.8,644.5,401.1,649.2,401.6
		C651.4,401.9,647.7,401.5,649.2,401.6z"/>
	<path fill="#DEECD2" d="M656,413.1c-1.8-1-12.7,1.8-8.5,3.4c1,0.4,9.5,0.1,9.9-0.5C656.9,415,656.5,414.1,656,413.1z"/>
	<path fill="#DEECD2" d="M636.5,403.5c-0.4-1.6-5.1-6.8-6.6-2.8c0.3-0.8,3.8,14.1,3.7,14C639.8,420.3,637.5,405.9,636.5,403.5z"/>
	<path fill="#DEECD2" d="M628.4,408.8c-0.5-0.7-0.4-3.7-4-3.1c0.3,2.6,1,5,2.2,7.3c-1.2-1.5-2.8-2.3-4.7-2.4
		C621.6,419.5,627.7,415,628.4,408.8z"/>
	<path fill="#DEECD2" d="M617.2,410C618,410.9,617.2,408.2,617.2,410C617.3,410.1,617.2,409.8,617.2,410z"/>
	<path fill="#DEECD2" d="M611.4,403.8c-4.8,0.7-1.7,10,1.6,10.9C620.8,416.7,616.3,403,611.4,403.8
		C608.4,404.3,615.2,403.2,611.4,403.8z"/>
	<path fill="#DEECD2" d="M614,422.7c-0.2,0-17.5-2.4-8.6,3.8c4.5-4.6,3.8,2.3,10.2,1.7C615.6,430.7,614.1,423,614,422.7z"/>
	<path fill="#DEECD2" d="M639.6,342.5c2-4,2.6-3.1,4.1-7.8c-6.3-1.9-5.5,2.1-9.9,4.4c1.4,1.5,1.5,2.9,0.2,4.4
		c-3.2,1-8.9-2.2-14.5,0.4c-6.8,3.2,12.9,4.8,13.1,4c-0.4,2.3-5.4-0.5-4.7,4c0.9,6.1,22.8-7.9,24.2-9.3
		C650.2,338.6,642.6,343.4,639.6,342.5C640.3,341.1,643.1,343.6,639.6,342.5z"/>
	<path fill="#DEECD2" d="M638.3,334.4C639.5,332.1,638.3,334.1,638.3,334.4C638.3,334.4,638.3,334,638.3,334.4z"/>
	<path fill="#DEECD2" d="M639,333.5C639,333.5,639.8,332.5,639,333.5C639,333.5,639,333.5,639,333.5z"/>
	<path fill="#DEECD2" d="M632.2,329.8c5.8,1.7,22.2,5.1,17.9-4.7C645,313.7,627.6,328.4,632.2,329.8
		C633.8,330.2,630,329.1,632.2,329.8z"/>
	<path fill="#DEECD2" d="M661.4,318.8c-1.8-1.4-3.9-1.9-6.4-1.5C651.2,329.3,668,316.7,661.4,318.8z"/>
	<path fill="#DEECD2" d="M642.8,311C630.4,302.4,636.6,317.2,642.8,311C642.1,310.5,640.5,313.3,642.8,311z"/>
	<path fill="#DEECD2" d="M648.7,310.7c1.6,0.9,8,0.4,6.5-3c-5.1,0.9-5.2-8.7-9.7-7.3C642.4,301.4,647.9,310.2,648.7,310.7
		C650.6,311.8,647.5,310,648.7,310.7z"/>
	<path fill="#DEECD2" d="M659.8,303c0.7,1.4,1.3,2.9,1.9,4.3c2.3-1.8,3.2-4.2,2.8-7.1C657.2,300,662.7,300.5,659.8,303z"/>
	<path fill="#DEECD2" d="M666.3,282.1c-1.9,0-1.7,5.3-3.4,6c-1.5,0.6-2-4.3-3-4c-7.3,1.9-2.8,7.9,1.8,6.8
		C663.2,290.5,671.7,282.1,666.3,282.1C664.6,282.1,668.8,282.1,666.3,282.1z"/>
	<path fill="#DEECD2" d="M676.9,294.6c4.6,0.9,9.5-9.9,1.6-12.5C674.3,280.7,671.4,293.5,676.9,294.6
		C679.2,295.1,676.3,294.5,676.9,294.6z"/>
	<path fill="#DEECD2" d="M675.7,310.4c15,5.9,2.4-16.7-2.7-10.1C672,301.7,676.1,308.1,675.7,310.4
		C678.5,311.5,676.3,307.2,675.7,310.4z"/>
	<path fill="#DEECD2" d="M688.7,298.9c-3.1,0.6-2.5,2.6-5.3,4C691.6,310.3,693,297.9,688.7,298.9z"/>
	<path fill="#DEECD2" d="M693.8,287.1c-4-0.8-1.8,4.2-2.1,5.9c-1.3,0.2-4.9-2.5-2.7-3.7c-0.6-0.2-1.2-0.4-1.9-0.6
		c-4.5,1.2,1.9,5.5,3,5.6C694.9,294.7,697.1,287.7,693.8,287.1C689.9,286.3,696.1,287.5,693.8,287.1z"/>
	<path fill="#DEECD2" d="M721.7,286.1c-4.8-0.3-13.3-2.8-17.5-2.5c0.4,0,1.3,14.3,1.4,15c4.3,0,2.8-6.8,4.2-9.1
		c3-5,9.8,9.9,10.7,8.8c0.8-2.3,1-4.7,0.6-7.1c1.8-0.2,3.6-0.4,5.3-0.7C726.2,287.7,724.7,286.2,721.7,286.1
		C718.4,285.9,723.3,286.2,721.7,286.1z"/>
	<path fill="#DEECD2" d="M750.3,284.3c1.9-4.5,4.2-18.3,0.2-20.3C747,262.2,743.8,281.9,750.3,284.3
		C751.3,282,745.4,282.5,750.3,284.3z"/>
	<path fill="#DEECD2" d="M753.7,259.1c3.4,2.2-2,3.7,2.6,5.7C761,261.5,755.5,256.1,753.7,259.1
		C754.2,259.5,755.8,255.7,753.7,259.1z"/>
	<path fill="#DEECD2" d="M813.4,269.1c0.8,0.1,6.4-0.1,7-0.9C825.5,261.1,801.4,267.7,813.4,269.1
		C814.5,269.2,808.3,268.5,813.4,269.1z"/>
	<path fill="#DEECD2" d="M821.6,252.9c1.5,1.5,1.4,2.7,4,1.6c-3.5-5.2-7.5-13.8-10.2-0.3C817.4,253.4,819.5,253,821.6,252.9z"/>
	<path fill="#DEECD2" d="M835.9,252.9c1.4-0.4,6.5-5.4,5-7.3C836.4,239.9,830,254.7,835.9,252.9C836.7,252.7,832.3,254,835.9,252.9z
		"/>
	<path fill="#DEECD2" d="M489.9,443.3c-5.9-6.4-7.1-0.9-11.5,3.2c-2.4,2.2-1.4,6,1.6,6.8C491.4,456.5,488.4,448.6,489.9,443.3z"/>
	<path fill="#DEECD2" d="M458.5,387.9c-1.7,3.5-4.3,5.1,1.9,8.4C466.5,392.8,459.3,391.1,458.5,387.9z"/>
	<path fill="#DEECD2" d="M450.1,380.1c-4.8-4.8-14-3.6-8.5,4.8C447.1,393.3,449.7,380.7,450.1,380.1z"/>
	<path fill="#DEECD2" d="M447.6,364c-1.7-10.9-8.8,16.6,0.4,8.9c-3-9.5,5.2-3,5.9-5C455,364.7,449.7,362.7,447.6,364
		C447.5,363.4,449.8,362.7,447.6,364z"/>
	<path fill="#DEECD2" d="M442.3,350.3c-4.1,1.6,3.8,6,3.7,6C450.3,354.5,442.4,350.4,442.3,350.3C441.7,350.5,443,351.1,442.3,350.3
		z"/>
	<path fill="#DEECD2" d="M420,365.2c-0.8-1.6-0.7-5.6-3.2-5.9c-2.6-0.3-1,12.1,2.4,11.8C420.7,371,423.2,363.8,420,365.2z"/>
	<path fill="#DEECD2" d="M412.8,369.4c-5.4,1.3-11.5-0.6-10.3-7.8c2.6-15.7-8.8,7.2-17.1-3.4c-9.4-11.9-23.8-7.3-31-25.1
		c-4.7-11.7-15.9,3-17.3-0.6c5.4,13.8,10.7,24.5,20,36.8c7.6,10.1,6.9-4.6,6.3-8c-1.6-9.3,9.1-5.3,13.7-3.7
		c7.6,2.7,8.3,6.2,9.3,13.8c1.6,12.2,6.4,1.1,11.8,4.1c5,2.9,4.9,7.8,11.5,8.5C417.5,384.8,412.3,373,412.8,369.4z"/>
	<path fill="#DEECD2" d="M411.5,342.2c-2.1,0.8-2.1-8.8-5.4-10.9c-8.4-5.4-7.4,4-0.2,6.6c-4,1.6-1.6,6.4,2.2,4.2
		c-1.5,5.1,2.6,5.6,6.2,5C413.5,345.3,412.7,343.7,411.5,342.2z"/>
	<path fill="#DEECD2" d="M420.5,331.5c2.3-3.6-6.7,1.7-5.5,1.3c0.3-1.5,0-2.9-1-4.1c-0.9,2.7-0.7,5.3,0.6,7.8
		C415.6,335,418.6,331.3,420.5,331.5C420.6,331.4,418,331.3,420.5,331.5z"/>
	<path fill="#DEECD2" d="M437.7,317.3c1.8-2.2,5.4-0.2,6.3-1.4c3.8-5.2-13.4-19.1-6.5-22.9c-1.9-4-1.2-19.3-5.7-15.3
		c1.2-2.9,7.3-6.4,11.5-5.2c0,4.1-2.4,12,5,15.5c6.5,3.1,1,12.9,9.1,10.4c10.1-3.1-5.7-11.1-8.2-15.6c-10.1-18.4,9.4,4.2,7.8,4.4
		c11.6-1.1-13.1-19.2-12.7-18.9c-3.4-3.2-2.3-3.9-3.6-8.5c-2.3-8.1,4.3-2,7.7-2.2c0.5-2.1-1.7-10.5-2-13.3
		c-0.6-6.6-23.3-0.9-9.9,3.3c-5.4,6.2-8.8-2-9.1,7.1c-6.2,1.2-11.2-4.4-17.4-2.4c0,3-3.5,7.1-3.1,9c1.3,0,7.5,2.3,9,1.9
		c-1.5,2.7-2.1,5.6-1.7,8.6c8.3-1,8.1,0,10.1-6.1c2.2-0.2,6.7,7.2,6.2,9.1c-4.9-3.2-10.6,8.9-14,9.8c-0.1-11.7-14.5-3.4-14.6,0.9
		c-0.4,13.7,9.6,4.9,15.6,10.9c4.3,4.2,11.5,3.8,14.7,6.7c11.2,10.5-5.2,7.8-7.6,8.6c-0.5,4.8,10.4,22.7,10.6,14.3
		c-1.7-0.4-3.3-0.6-5-0.5c-3-1.1,2.3-8.1,5.1-2.9c-0.4,0.4,0.8,6.6,2.1,6.9C441.3,330.2,436.3,319,437.7,317.3
		C439,315.7,435.8,319.6,437.7,317.3z"/>
	<path fill="#DEECD2" d="M421.2,303.3c-3,1-7.3,9.1-1.6,9.4C423.5,312.9,424.8,304.2,421.2,303.3z"/>
	<path fill="#DEECD2" d="M453.2,334.9c0.5-3.6-0.3-17.8-1.1-21.6c-9.1-2.2-11.6,26.1-3.9,22.9c0.3-2.4-0.5-4.2-2.4-5.6
		C450.4,329.2,449.4,334.9,453.2,334.9C453.8,330.4,449.7,334.9,453.2,334.9z"/>
	<path fill="#DEECD2" d="M457.9,304.9c-3.4-0.2-10-2.4-9.7,3.8C450.7,309.9,456.7,306.7,457.9,304.9
		C453.2,304.6,457.1,306.2,457.9,304.9z"/>
	<path fill="#DEECD2" d="M482.9,285.2c-1.6-0.5-8.5-2.5-9.8,1.3C476,290.3,481.6,289.7,482.9,285.2
		C480.6,284.5,482.2,287.7,482.9,285.2z"/>
	<path fill="#DEECD2" d="M478.7,295.8c-1.1,2.7,15.6,5.3,15.7,5.3c9.2,1.4,3.6-8.2,0.5-8C493.1,293.7,479.4,294.1,478.7,295.8
		C477.5,298.5,479.2,294.6,478.7,295.8z"/>
	<path fill="#DEECD2" d="M494.9,308.6c-0.9-0.3-8.1-1.3-8.1-1.3c-0.8,0.3-0.8,6.9-0.9,7.5C493.3,317.4,510.6,314.8,494.9,308.6z"/>
	<path fill="#DEECD2" d="M454.2,261c0.5,2.6,1.5,5,3,7.2C471.2,257.2,447.8,245.6,454.2,261z"/>
	<path fill="#DEECD2" d="M420.5,226.1c4.5-1,6.6,0.8,6.3,5.3c0.4,3.2,1.3,6.2,2.8,9c2.3-5.2,3.2-11.8,3.7-17.7
		c0.5-4.8-11.3-15.5-13.6-6.3C427.2,224.1,417.6,223.4,420.5,226.1C422.2,227.5,417.1,223.1,420.5,226.1z"/>
	<path fill="#DEECD2" d="M418.4,250.4c9.3,0.7,8.3-15.5,0.4-15.2c-0.4,3.9-2.6,4.7-6.6,2.2C412.5,241.5,408.7,249.6,418.4,250.4
		C422.9,250.8,415.7,250.2,418.4,250.4z"/>
	<path fill="#DEECD2" d="M437.7,229.5c-11,1.8,10.8,9.5,10.2,9.9c1.3-2.9,2.2-6,2.8-9.1C447.1,228.7,443.1,228.6,437.7,229.5
		C430.3,230.8,440.1,229.1,437.7,229.5z"/>
	<path fill="#DEECD2" d="M436.8,218.8c1.3,0.6,5.3-0.1,6.3-0.2C441,201.3,426.8,214.2,436.8,218.8
		C438.2,219.5,435.9,218.4,436.8,218.8z"/>
	<path fill="#DEECD2" d="M483.4,218c-1-1.2-21.7,2.4-22.9,3.9C456,227.5,496.8,233.6,483.4,218C479.7,213.7,486.6,221.8,483.4,218z"
		/>
	<path fill="#DEECD2" d="M341,287.6c6.3,5,10.9-6.6,18.6-5.1c9,1.8,9.2-1.5,14,7.3c3.4,6.2,11.4,8.2,13.1,0
		c1.6-8.1,18.4-13.1,15.9-18.6c-4.9-10.8-9.2-23.2-19.7-14.8c-3.8,3-3.7-10-3.9-10.8c-9.1-1.3-1.7,7.6-3.8,11.5
		c-1.3,2.4-13.3,6.7-13.4,5.9c-2.9,0.1-1.5-11-5.1-14.1c2.5-2.3,16.8-7.8,16.5-9.9c-3.2,0.2-12-1.4-15.4-2.3
		c-1.6-8.6,12.3-7.6,17-7.5c2.4,0,22.6-6.9,13.7-10.7c-5.2-2.2-18.7-0.9-23.5,1.4c-9,4.3-6.9,3.6-12,10.9c-2-2.7-4.1-5.4-6.2-8
		c-0.4,4,5.4,13.1,7.4,16.2c4.9,7.2-1,3.1-1.2,9.5c-0.6,20.1-9.2,1.5-12.8,3.2c-4.6,2.2,6.5,11-1.3,12.4c-5.8,1.1-0.9,9.1-1.9,13
		c-0.9,3.4-10.6,8.9-5.3,12.8C337.8,294.5,337.6,290.7,341,287.6C342.9,289.1,340,288.5,341,287.6z"/>
	<path fill="#DEECD2" d="M348.4,214c15.6,6.5,6.7-18.9,6.5-27.3C351.2,188.2,343.1,213.2,348.4,214z"/>
</g>
<g id="state-lines">
	<polygon opacity="0.5" fill="#D8D2D2" enable-background="new    " points="733,113.9 733,124.4 737,124.4 737,123.4 734,123.4 
		734,113.3 730,111.1 730,108.5 699.8,99.4 695.8,95.4 695.1,96.1 699.3,100.3 729,109.3 729,111.7 	"/>
	<path opacity="0.5" fill="#D8D2D2" enable-background="new    " d="M868,247.4h-17v-19h1v-1h-1v-31h-1v31h-0.5l0.4,6.7l-3.6,14.5
		l-10.9,3.9l-2.7,9.4l-5.1-2.8l-2.5,9.9l-6.8,3.4l-2.7-6.4l-15.6,3.1l-6.4-4.2l-4.5-4.5H782v-55h19v-1h-19l0,0h-1l0,0h-29v1h29v62
		h-8.6l1.3,4.3l-10.7,9.8l-4.9-3.2l-4.5,6.3l-3-2.8l-4.8,4.7l-8.7-4.9v3.5l-4.9-1.9l-1.5,2.8l0.8-8.7l8.6-9.8l-1.9-9.5l1.9-52.7
		l-1,0l-1.9,52.7l0,0.1l1.8,9.1l-8.5,9.7l-1.5,15.3l-6,1.8v6.5l-7.7-2.9l-2.4,5.4l0.9,0.4l2-4.6l8.2,3.1v-7.2l6-1.7l0.4-4.5l2.2-4.1
		l5.4,2.1v-3.3l7.8,4.4l4.7-4.5l3.1,2.9l4.6-6.5l4.8,3.1l11.8-10.7l-1.1-3.6h8.3v-7h6.8l4.2,4.3l6.9,4.5l15.2-3l2.8,6.7l1.1-0.6
		l1.1,10.5l7.4,8.1l-17.7,16.6l0.7,0.7l17.7-16.6l5.3,5.9l24.7-7l8.7-21.4l5.5,4.3l3.7-8h4l5.2-5.2l2.1-7.1l8.3,4.7l1.9-2.6
		l12.6,10.6l0.6-0.8l-13.4-11.3l-0.2,0.2l-1.4-6.4l-6.1-0.1l-4.4,1.7l-5.9-1.8l-10.7,7.5v-7.5h60v-1h-60H868z M879.9,249.6l5.8,1.7
		l4.5-1.8l5.1,0.1l1.4,6.2l0.3-0.1l-1.3,1.8l-8.6-4.9l-2.4,8l-4.8,4.8h-4.3l-3.5,7.5l-5.6-4.3l-9,22.1l-23.7,6.7l-12.7-14l-1.1-10.6
		l6.1-3l2.3-9.1l5,2.7l2.9-10.1l10.9-3.9l2.8-11.5v10.5h18v9.5L879.9,249.6z"/>
	<path opacity="0.5" fill="#D8D2D2" enable-background="new    " d="M729.5,309.4l1.6,3h-22.4l4.3-2.6v-6.6l-5.3-5.8l-1.2-9.6
		L693.9,277l3.9-12.6l-8.9-1.2l-0.9-7.6l-9.6-9.5l-1.5-14.4l-0.2-0.2l8.4-13.3l-1-8l10.5-4l1.3-5.8l0-6.3l-6-6.8h40v-1h-40.9
		l-5.7-6.5l-7-26.4l0-0.2l-20.5-17.7l2.1-16.9l-3.8-5.3l8.8-8.8l1.1-7.5l-1-0.1l-1.1,7.2l-9.2,9.2l4.1,5.7l-2.1,17.1l20.7,17.8
		l6.9,26.3l0,0.1l12.5,14.2v5.8l-1.1,5.2l-10.8,4l1,8.5l-8.1,12.9l-4.1-3.5h-63.5l-12.2-40.6l0-0.2l-1.7-1.3l-0.9-4.1l3.5-6.8
		l-3.3-9H678v-1h-83v-41.2l-5.7-7.7l2.1-5.2h0.6v-1h-0.1l2.4-5.8l0.1-0.1L583,36.4h33.5l1-10.2l3,3.8l7.4,11.3l9.8,2.6l5,5.1
		l10.8-4.6l5,1.6l-4,2.2l6.1,7.1l7-4.3l7.3,8.8l8.8-7.3l7.3,6l14.9,1.1l20.8-7.2l55.4,30.3l6.3,13.1l4.6-1.8l1.8,8.2l7.1,2.5v7.9
		l17.7,10.5l7.7,38.7l-8.1,23.7l-10.3,5.5v4.5c0.3-0.1,0.6-0.2,1-0.2v-3.7l10.1-5.5l8.3-24.2l0-0.1l-7.8-39.1l0-0.2L803,112.1V104
		l-7.3-2.5l-2-8.8l-4.8,1.9l-6-12.6L727,51.5l-0.2-0.1l-21.1,7.3l-14.4-1.1l-7.7-6.4l-8.6,7.2l-7.2-8.7l-7,4.3l-4.7-5.5l4.9-2.8
		l-7.6-2.4l-10.6,4.5l-4.7-4.8l-9.7-2.6l-7.2-11.1l-4.6-5.7l-1.1,11.8h-32.7l-0.2-1.1l-1,0.2l0.2,0.9H472v-1h-1v1H279v-1h-1v1h-16
		v-1h-1v1h-90v1h90v62.5l3.6,8l0.5,0.5H233l-26.3,8.2l-20.5-1.8l-8.4,2.5l-4.8-2.3l-2.3-7.4c-0.6-1.1-2.6-4.9-3.4-5.4
		c-0.8-0.5-6.5,0-9.9,0.4l0.1,1c4.1-0.5,8.6-0.8,9.2-0.6c0.4,0.3,1.9,2.9,3,5l2.4,7.7l5.5,2.7l8.6-2.6l20.5,1.8l26.3-8.3H266v0
		l6.6,7.3L259.7,143l5.9,5.6l-2.8,48.3l1,0.1l2.8-48.7l-5.7-5.4l12.8-27.2l-8.3-9.2l-3.5-7.6V36.4h16v25.2l6,5.2v6.9l6.9,2.8
		l8.5,14.3l7.6,1.5l-4.2,24.7l4.9,4.1l5.3-7l8,19.1l5.3,2.3l4.6,10.6l8.9-4.7H359v56H151v1h63v62.2l83.7,78.2l0.3-0.4v4.1l11.4,13.7
		l-5.4,7v8l-5.7,8.7l0.6,7.1l-35.7,4.4l0.1,1l39.1-4.8l-3.6,5.5l61.5,25.2l45.7,0v-13h26.8l24.7,20.3l8.1,16.7l17.2,11.8l8.5-2.9
		l3-10.9L506,441l18.3,12.1c4.8,8.9,13.7,25.8,14,26.3c0.1,0.2,0.2,0.4,6.7,5.3v12l13,11.8l23.1,6.9l0.3-1l-22.9-6.9L546,496.2v-12
		l-0.2-0.1c-2.4-1.7-6.2-4.6-6.6-5c-0.7-1.5-10-18.8-14-26.4l-0.1-0.1L506.3,440l-12.7-0.7l-3.1,11.2l-7.6,2.6l-16.5-11.4l-8-16.6
		l-25.2-20.8H430v-1h58v-100h137l0,13.1l3,15.6v38.3l-12.6-5.6l-18,4l-10.4-5.4l-4.1,2.8v-2.3l-11.5-0.5L569,360l-6.6,1.6l-8.6-1.5
		l-4.8-7.9l-7.3,2.7l-4.6-4.7v-35.9h-48v1h47v35.3l5.4,5.4l7.2-2.6l4.6,7.6l9.3,1.6l6.2-1.5l2.4,3.3l11,0.5v3.2l5.2-3.5l10.2,5.3
		l18-4l13.6,6l0.4-0.9l4.7,1.2v29.2l9.3,18.4l-7.2,25.4l1,0.3l7.4-25.8l-9.3-18.5v-17.9h44.7l3.3,7.3l-4,0.8l6.1,4.6L675,406.9
		l-2.8,15.4h33l-2.9,6l2.7,5.9l0.9-0.4l-2.5-5.4l3.4-7h-33.4l2.6-14l10.7-11.4l-5.2-4l3-0.6l-3.7-8.3l1.9-8.8h-2.1l-1.9-5.3l2.4-0.3
		V362l9-8.4v-5.1l4.7-1.2l-0.2-1l-5.5,1.4v5.5l-9,8.4v6.4l-2.8,0.3l2.6,7.1h1.5l-1.5,7H635v-10.9l-6-1.5l0-38l-3-15.6v-3h70.6l1.8,5
		l-4.3,6h10.3l0.8,1.5l-8.9,10.5l-1.9,8H728l-2.9,82.4l1,0l2.9-82.4h41.9l6,41.6l5,10.1l-5.4,9.5l4.5,15.8h-43.6l1.8,9.6l1-0.2
		l-1.5-8.4H781v-0.9l1.1,3.8l41.8,3.5l2,5.5l5.1-8h2.1v-1h-2.6l-4.3,6.7l-1.5-4.2l-41.7-3.5l-5.4-18.7l5.5-9.6l-5.1-10.4l-6-41.4
		h36.8l-2.4,4.4l8.7,6.7l5.4,9.9l15.1,15.1l7.6,19.3l0.9-0.4l-7.7-19.4l-15.2-15.2l-5.4-9.9l-8.2-6.4l2.2-4.2h1.2l11.4-5.2l21.1,1.5
		l5.3,5.7h15l18.1,17.8l0.7-0.7l-18.4-18.1h-15l-5.2-5.7l-21.7-1.6l-0.1,0l-11.3,5.3h-0.5l0.1-0.3l-0.9-0.5l-0.4,0.7H791v-5.5
		l6.5-4.3l15.3-5.9l4.9-6.2l4.2,2l11.2-5.8v-7.3h89v-1H729.5z M472,36.4h110l11.3,66.9l-2.5,6.1H472V36.4z M472,110.4h118.4
		l-2.2,5.3l5.8,7.8v40.8h-1.7l3.7,10l-3.5,6.7l0.7,3.2l-8.4-6.4l-0.2-0.1l-12.8,2.4l-8.7-3.7H472V110.4z M339.6,140.4l-8.1,4.3
		l-4.4-9.9l-5.2-2.2l-8.5-20.4l-5.7,7.5l-3.7-3.1l4.2-25.1l-8.1-1.5l-8.5-14.2l-6.6-2.7v-6.6l-6-5.2V36.4h192v94H359v10H339.6z
		 M298,337.8l-83-77.6v-61.8h95v125h-12V337.8z M390,417.4h-29.4l-60.3-24.7l4.2-6.3l-4.6,0.6l-0.6-6.7l5.7-8.7v-8l5.6-7.3l-11.6-14
		v-17.8h12v-21h79V417.4z M390,302.4h-79v-104h48v21h31V302.4z M360,218.4v-87h111v87H360z M487,402.4h-58v2h-24v13h-14v-114h96
		V402.4z M503,220.4v82H391v-83h81v-42h90.9l8.8,3.8l12.7-2.4l10.9,8.4l16,53.2H504v-21h-32v1H503z M504,302.4v-61h108.7l-0.3-1
		l7,2.2l1.8,3.2l-4,3.8L625,260l0,42.4H504z M703.7,323.1L703.7,323.1L703.7,323.1l-0.1,0.3H696l3.5-4.9l-2.2-6.1H626v-52.7l-7.4-10
		l3.9-3.7l-2.4-4.3l-7.4-2.3l-0.3,0.9l-3.6-11.9h62.8l4.5,3.9l1.5,14.4l9.6,9.5l0.9,8l8.5,1.1l-3.7,12.1l12.7,11l1.2,9.5l5.3,5.8
		v5.6l-5.4,3.3L703.7,323.1z M832,317.1l-10.2,5.3l-4.4-2.1l-5.2,6.6l-15.1,5.8l-7.1,4.7v6h-61l0-0.5l-1,0l0,0.5h-32.3l1.5-6.5
		l9.2-10.9l-1.6-2.9l2.7-9.9l0.5-0.3v0.5h24.8l-1.6-3H832V317.1z"/>
	<path opacity="0.5" fill="#D8D2D2" enable-background="new    " d="M939,218.6l6.5-6.9l0.1,0.1c0.1-0.3,0.1-0.7,0.3-1l-2.4-1.5
		l-2.2-7.7l-6-4.2H863V190c-0.3,0.2-0.6,0.4-1,0.5v7.9h72.8l5.5,3.8l2.3,7.8l2,1.2l-6.6,7v10.4l6.7,7.7l-9.7,5.4l0.6,0.8l10.6-6.1
		l-7.1-8.3V218.6z"/>
	<path opacity="0.5" fill="#D8D2D2" enable-background="new    " d="M1061.8,122.8l2.3-6.1l-7.1-4.5V81.7l-6-6.9l-9.2,2.9l-7.5-6.1
		L1016,99.2v9.6l-10,9.3v4.1l-4.7-1.2l-0.2,0.3c0,0-1.9,3.3-4.1,6.2c-2,2.8-4,2.8-4.1,2.8h-45.6l-9.9,4.9L922.9,147l-6.1,12.2
		c0,0.4,0,0.8,0,1.2h0.5l6.3-12.7l14.4-11.6l9.7-4.7H993c0.1,0,1.4,0,3-1.2v9.9l-8.3,5.5l-6.5,36.8h-12.4l0.2-0.7l1.5-19.8l-3.1-1.5
		l-3.9-29.4l-1,0l3.9,30.1l3.1,1.5l-1.5,19.1l-4,14.8l0,16.6l-4,2.2v3.3h1v-2.7l4-2.2v-15h34.8l6.2,4.2l0.6-0.8l-6.4-4.4H965v-0.9
		l3.5-13.1h33.5v-1h-19.8l6.4-36.2l8.4-5.5v-11.3h-0.1c0.3-0.3,0.7-0.7,1-1.2c1.7-2.5,3.4-5.1,3.9-6l1.2,0.3v43l3.5,6.1l0.9-0.5
		l-3.4-5.8v-42.5l3,0.8v-4.9l10-9.3v-9.8l17.6-26.4l7,5.7l9.1-2.9l5.3,6.1v30.6l6.9,4.4l-2.2,6l7.4,6.7l0.7-0.7L1061.8,122.8z"/>
</g>
<g id="marker">
	<path id="pin_1_" fill="#B9252D" d="M590.1,325.2c1-1.6,1.6-3.5,1.6-5.5c0-5.7-4.6-10.4-10.4-10.4s-10.4,4.6-10.4,10.4
		c0,2.2,0.7,4.2,1.8,5.8l8.6,10.4L590.1,325.2z"/>
	<text id="id" transform="matrix(1 0 0 1 576.7485 323.9474)" fill="#FFFFFF" font-family="'Helvetica-Bold'" font-size="12.4974">A</text>
</g>
<g id="marker_1_">
	<path id="pin_2_" fill="#B9252D" d="M569.4,390.5c1-1.6,1.6-3.5,1.6-5.5c0-5.7-4.6-10.4-10.4-10.4s-10.4,4.6-10.4,10.4
		c0,2.2,0.7,4.2,1.8,5.8l8.6,10.4L569.4,390.5z"/>
	
		<text id="id_1_" transform="matrix(1 0 0 1 556.0474 389.2815)" fill="#FFFFFF" font-family="'Helvetica-Bold'" font-size="12.4974">B</text>
</g>
<g id="marker_2_">
	<path id="pin_3_" fill="#B9252D" d="M584.3,276.7c1-1.6,1.6-3.5,1.6-5.5c0-5.7-4.6-10.4-10.4-10.4c-5.7,0-10.4,4.6-10.4,10.4
		c0,2.2,0.7,4.2,1.8,5.8l8.6,10.4L584.3,276.7z"/>
	
		<text id="id_2_" transform="matrix(1 0 0 1 570.9928 275.4454)" fill="#FFFFFF" font-family="'Helvetica-Bold'" font-size="12.4974">C</text>
</g>
<g id="marker_5_">
	<path id="pin_6_" fill="#B9252D" d="M854.7,483.2c1-1.6,1.6-3.5,1.6-5.5c0-5.7-4.6-10.4-10.4-10.4s-10.4,4.6-10.4,10.4
		c0,2.2,0.7,4.2,1.8,5.8l8.6,10.4L854.7,483.2z"/>
	
		<text id="id_5_" transform="matrix(1 0 0 1 841.387 481.9456)" fill="#FFFFFF" font-family="'Helvetica-Bold'" font-size="12.4974">F</text>
</g>
<g id="marker_4_">
	<path id="pin_5_" fill="#B9252D" d="M958.5,189.3c1-1.6,1.6-3.5,1.6-5.5c0-5.7-4.6-10.4-10.4-10.4s-10.4,4.6-10.4,10.4
		c0,2.2,0.7,4.2,1.8,5.8l8.6,10.4L958.5,189.3z"/>
	
		<text id="id_4_" transform="matrix(1 0 0 1 945.2106 188.0255)" fill="#FFFFFF" font-family="'Helvetica-Bold'" font-size="12.4974">E</text>
</g>
<g id="marker_3_">
	<path id="pin_4_" fill="#B9252D" d="M766.7,319.8c1-1.6,1.6-3.5,1.6-5.5c0-5.7-4.6-10.4-10.4-10.4s-10.4,4.6-10.4,10.4
		c0,2.2,0.7,4.2,1.8,5.8l8.6,10.4L766.7,319.8z"/>
	
		<text id="id_3_" transform="matrix(1 0 0 1 753.3724 318.575)" fill="#FFFFFF" font-family="'Helvetica-Bold'" font-size="12.4974">D</text>
</g>
</svg>
