<svg xmlns="http://www.w3.org/2000/svg" viewBox="351.6 15.9 930 500" enable-background="new 351.6 15.9 930 500"><path fill="#F6F0EF" d="M342.2 14.6h943.4V524H342.2z"/><path stroke="#F4E6D7" stroke-width="4" stroke-miterlimit="10" d="M669.9 17.9C652 19 634 20 618 28c-4 2-8 5-12 6-5 1-9 3-13 5-2 1-3 1-5 1-3 1-5 2-7 4-2 1-5 2-7 1-27-8-52-19-79.2-27.1M1275.6 84.6C1232 73 1189 61 1144 49c-32-9-63-18-95-27-47 0-94-2-140.7-4.1M345.1 71.4c20.7-8.6 41.2-17.7 62.3-25.5 21.2-7.8 43-13.8 64.6-20.2 8.5-2.6 17.1-5.1 25.5-7.8M344.9 54.5c4.8-12.2 9.9-24.2 14.9-36.4M493.8 18.3C503 29 513 40 523 51c3 31 5 61 5 92-4 19-12 37-17 56-39 15-79 27-118 41-8-4-17-6-23-14 6-12 14-23 20-35 1-2 2-5 3-7 5-9 12-17 14-27 2-11 4-21 5-32-12-9-25-17-38-26-1-1-3 0-4-1-9-6-16-12-24.8-17.2M345 233.3c8-2.1 16.1-4.2 24.1-6.4M388.4 241l-29.3 126.6-6.7 156.7M344.9 485.1C354 492 365 498 374 506c17 2 34 2 51.1 3.6M419.1 516.9l32.7-59.9 32.6 1.3 30.7 58.6M425.1 509.6l41.3 7.3M645.8 223l-134.7-24 5.3 68-32 191.3 46.7-58 102-44 58.7-35.3 56.6-69.4M625.1 227l62.7 92 78.6 63.3-25.3 28.7-88.7 26.6-77.3 47.4-90.7-26.7M570.4 485l-15.3 31.9M766.4 382.3l92-14 42.7-18.7M893.1 257.6l-12.7 62 28.7 21.4M765.8 385l29.3 44 22 8 35.3 82M779.1 405.6l-11.3 78.7-62 38.7M909.1 343.6l72 26 10.7 30 60 25.4 28-4.7M951.1 468.3l21.3 3.3 86.7-70.6 48.7-24 58-76M959.1 519l76.7-17.4 78 10M523.8 55.6l103.3 68 78 20 92.7 80.7M625.8 23.6l65.3 62 123.3 20M798.4 163.6C789 153 780 142 770 132c-5-6-11-13-15-20-16-33-37-62-53.4-93.9M1140.3 18c.9 9 1.8 18 2.8 27M1138.4 47.6l-27.3 75.4 22 55.3 48 54.8M1059.8 128.3l56.6-22.7" fill="none"/><g stroke="#F4D8B3" stroke-width="4" stroke-miterlimit="10" fill="none"><path d="M854.3 17.9c.7 1.1.7 3.1 1.7 4.1 18 15 34 31 51 46 3 13 6 25 10 38 9 7 20 13 29 20 4 25 10 50 22 72 5 3 11 5 16.4 7 .1-7.7-4.7-1.9 0 0 1.6-17 1.6-35 .6-52-1-8-2-15-3-23 0-3-2-6-2-9l-3-24c-1-25 2-50 2.1-75.4M840.4 200.3L769.8 241l-14.7 65.3 9.3 75.3M765.8 252.3C752 251 738 251 724 248c-21-11-43-19-65-27-12 1-23 4-35 8-12 3-25 3-36 9-41 21-80 44-120 66-41 12-82 22-123 34.2M710.4 241l27.4-9.4 46.6 1.4M747.1 250.3l-5.3-24.7 24.6-28.6 33.4-13.4 154.6 2.7 12 11.3M838.4 185c0-2-1.3 35.3-1.3 35.3l-36.7 3.3 28.7 22.7M825.8 258.3l11.3-38 110.7-2.7 37.3-2-.7-10.6M769.1 251.6l31.3 7.4 86-3.4 43.9 7.2 49.5 8.2 74-26-2-55.4-42-41.3-59.4 10.7-4.6 79.3-15.5 24.5M813.8 103l72 48s62-56.7 64-57.3 97.3-48 97.3-48M873.1 183.6l12.7-32.6 8.6 104M841.1 256.3l40.7 63.3M901.1 137.6l.7 46.7M907.1 133.6l28 20-25.3 32-2 71.4M950.4 159c-5.1-1.8-10.2-3.6-15.3-5.3 3.2-8.1 6.3-16.2 9.5-24.3.4-1.3 1.4-2.3 2.4-3.3 6-3 14-3 20-6 3-2 6-7 9-9 2-1 5-1 7 0 16 7 33 8 50 5 13 5 24 12 36 18 2 2 6 3 7 5 3 11 1 22 3 34 0 2-2 3-3 4-15 8-29 17-43 26-16 5-32 8-47.9 12.6 4.4-16.9 11.2-2.8 0 0C992 193 996 169 1004 146c18-32 27-67 43-101 4-9 4-18 6.1-27M1053.8 245l149.8-4.4M1033.1 200.3l248.5 55.3M982.4 216.3l-2.6 124-17.4 35.3-12 91.4-70 54-42.6-146.7-36.7-62.7.7-184.6 56.6-102.7M980.4 235l-52 70.6-10.6 32.7-16 12M995.8 213l44 99.3s-2.7 70-.7 70 58.7 53.3 58.7 53.3l20 84M999.8 224.3l281.8 131.8M1078.4 175l207.7-102.4"/></g><g><path fill="#B9252D" d="M843 139.2c1-1.6 1.6-3.5 1.6-5.5 0-5.7-4.6-10.4-10.4-10.4-5.7 0-10.4 4.6-10.4 10.4 0 2.2.7 4.2 1.8 5.8l8.6 10.4 8.8-10.7z"/><text transform="translate(829.661 137.92)" fill="#fff" font-family="'Helvetica-Bold'" font-size="12.497">A</text></g><g><path fill="#B9252D" d="M786 256.2c1-1.6 1.6-3.5 1.6-5.5 0-5.7-4.6-10.4-10.4-10.4-5.7 0-10.4 4.6-10.4 10.4 0 2.2.7 4.2 1.8 5.8l8.6 10.4 8.8-10.7z"/><text transform="translate(772.661 254.92)" fill="#fff" font-family="'Helvetica-Bold'" font-size="12.497">B</text></g><path fill="#fff" d="M1064 191.4c15.5-5.1 7.6-19.3 7.6-19.3s-4.9 1.1-7.6-.2c-2.7 1.3-7.6.2-7.6.2s-7.9 14.1 7.6 19.3z"/><path fill="#0EA9D6" d="M1072.1 176.2s3.6 10-8.1 13.9c-11.7-3.9-8.1-13.9-8.1-13.9h16.2z"/><path fill="#D72631" d="M1064 175.4h7.8s-.3-1.4-.8-1.9c0 0-4.2.6-7-.3-2.9 1-7 .3-7 .3-.5.5-.8 1.9-.8 1.9h7.8z"/><text transform="translate(1058.921 184.463)" fill="#fff" font-family="'HelveticaNeue-Bold'" font-size="8.713">30</text><path fill="#fff" d="M1032 179.7c15.5-5.1 7.6-19.3 7.6-19.3s-4.9 1.1-7.6-.2c-2.7 1.3-7.6.2-7.6.2s-7.9 14.2 7.6 19.3z"/><path fill="#0EA9D6" d="M1040.1 164.6s3.6 10-8.1 13.9c-11.7-3.9-8.1-13.9-8.1-13.9h16.2z"/><path fill="#D72631" d="M1032 163.7h7.8s-.3-1.4-.8-1.9c0 0-4.2.6-7-.3-2.9 1-7 .3-7 .3-.5.5-.8 1.9-.8 1.9h7.8z"/><text transform="translate(1024.499 172.797)" fill="#fff" font-family="'HelveticaNeue-Bold'" font-size="8.713">635</text><path fill="#fff" d="M999.3 273.7c15.5-5.1 7.6-19.3 7.6-19.3s-4.9 1.1-7.6-.2c-2.7 1.3-7.6.2-7.6.2s-7.8 14.2 7.6 19.3z"/><path fill="#0EA9D6" d="M1007.4 258.6s3.6 10-8.1 13.9c-11.7-3.9-8.1-13.9-8.1-13.9h16.2z"/><path fill="#D72631" d="M999.3 257.7h7.8s-.3-1.4-.8-1.9c0 0-4.2.7-7-.3-2.9 1-7 .3-7 .3-.5.5-.8 1.9-.8 1.9h7.8z"/><text transform="translate(994.255 266.797)" fill="#fff" font-family="'HelveticaNeue-Bold'" font-size="8.713">20</text><path fill="#fff" d="M1041 327.4c15.5-5.1 7.6-19.3 7.6-19.3s-4.9 1.1-7.6-.2c-2.7 1.3-7.6.2-7.6.2s-7.9 14.1 7.6 19.3z"/><path fill="#0EA9D6" d="M1049.1 312.2s3.6 10-8.1 13.9c-11.7-3.9-8.1-13.9-8.1-13.9h16.2z"/><path fill="#D72631" d="M1041 311.4h7.8s-.3-1.4-.8-1.9c0 0-4.2.6-7-.3-2.9 1-7 .3-7 .3-.5.5-.8 1.9-.8 1.9h7.8z"/><text transform="translate(1035.921 320.463)" fill="#fff" font-family="'HelveticaNeue-Bold'" font-size="8.713">45</text><path fill="#fff" d="M783.3 202c15.5-5.1 7.6-19.3 7.6-19.3s-4.9 1.1-7.6-.2c-2.7 1.3-7.6.2-7.6.2s-7.8 14.2 7.6 19.3z"/><path fill="#0EA9D6" d="M791.4 186.9s3.6 10-8.1 13.9c-11.7-3.9-8.1-13.9-8.1-13.9h16.2z"/><path fill="#D72631" d="M783.3 186h7.8s-.3-1.4-.8-1.9c0 0-4.2.6-7-.3-2.9 1-7 .3-7 .3-.5.5-.8 1.9-.8 1.9h7.8z"/><text transform="translate(775.833 195.13)" fill="#fff" font-family="'HelveticaNeue-Bold'" font-size="8.713">820</text><path fill="#fff" d="M740.9 239.8c15.5-5.1 7.6-19.3 7.6-19.3s-4.9 1.1-7.6-.2c-2.7 1.3-7.6.2-7.6.2s-7.9 14.1 7.6 19.3z"/><path fill="#0EA9D6" d="M749 224.6s3.6 10-8.1 13.9c-11.7-3.9-8.1-13.9-8.1-13.9H749z"/><path fill="#D72631" d="M740.9 223.8h7.8s-.3-1.4-.8-1.9c0 0-4.2.6-7-.3-2.9 1-7 .3-7 .3-.5.5-.8 1.9-.8 1.9h7.8z"/><text transform="translate(735.829 232.882)" fill="#fff" font-family="'HelveticaNeue-Bold'" font-size="8.713">30</text><path fill="#fff" d="M803 324c15.5-5.1 7.6-19.3 7.6-19.3s-4.9 1.1-7.6-.2c-2.7 1.3-7.6.2-7.6.2s-7.9 14.2 7.6 19.3z"/><path fill="#0EA9D6" d="M811.1 308.9s3.6 10-8.1 13.9c-11.7-3.9-8.1-13.9-8.1-13.9h16.2z"/><path fill="#D72631" d="M803 308h7.8s-.3-1.4-.8-1.9c0 0-4.2.7-7-.3-2.9 1-7 .3-7 .3-.5.5-.8 1.9-.8 1.9h7.8z"/><text transform="translate(793.809 317.13)" fill="#fff" font-family="'HelveticaNeue-Bold'" font-size="8.713">35W</text><path fill="#fff" d="M834.6 77.7c15.5-5.1 7.6-19.3 7.6-19.3s-4.9 1.1-7.6-.2c-2.7 1.3-7.6.2-7.6.2s-7.8 14.2 7.6 19.3z"/><path fill="#0EA9D6" d="M842.7 62.6s3.6 10-8.1 13.9c-11.7-3.9-8.1-13.9-8.1-13.9h16.2z"/><path fill="#D72631" d="M834.7 61.7h7.8s-.3-1.4-.8-1.9c0 0-4.2.6-7-.3-2.9 1-7 .3-7 .3-.5.5-.8 1.9-.8 1.9h7.8z"/><text transform="translate(825.476 70.797)" fill="#fff" font-family="'HelveticaNeue-Bold'" font-size="8.713">35W</text><path fill="#fff" d="M954.3 166.4c15.5-5.1 7.6-19.3 7.6-19.3s-4.9 1.1-7.6-.2c-2.7 1.3-7.6.2-7.6.2s-7.8 14.1 7.6 19.3z"/><path fill="#0EA9D6" d="M962.4 151.2s3.6 10-8.1 13.9c-11.7-3.9-8.1-13.9-8.1-13.9h16.2z"/><path fill="#D72631" d="M954.3 150.4h7.8s-.3-1.4-.8-1.9c0 0-4.2.7-7-.3-2.9 1-7 .3-7 .3-.5.5-.8 1.9-.8 1.9h7.8z"/><text transform="translate(946.432 159.463)" fill="#fff" font-family="'HelveticaNeue-Bold'" font-size="8.713">35E</text><text transform="translate(968.848 214.839)" fill="#877C6C" font-family="'HelveticaNeue-Bold'" font-size="10">DALLAS</text><text transform="translate(760.181 225.173)" fill="#877C6C" font-family="'HelveticaNeue-Bold'" font-size="10">FORT WORTH</text></svg>