<svg xmlns="http://www.w3.org/2000/svg" viewBox="351.6 15.9 930 500" enable-background="new 351.6 15.9 930 500"><path fill="#F6F0EF" d="M349.8 12.2h937.8v504.9H349.8z"/><path stroke="#F4E6D7" stroke-width="4" stroke-miterlimit="10" fill="none" d="M502 138l7 150.4 33.3 8.1 11.1 19.2 37.4-74.7M349.6 246.4C487 245 624 244 761.4 242c-11.4 6.6-3.4 0 0 0-36.4 21-71.4 41-107 61.6M648.3 245l2 55.5M654.4 311.6C552 315 451 320 348.8 323.1M348.6 383.7c92.4.3 185.4 2.3 277.5 2.7M349.8 473c58.2 1 115.2 3 173.2 3 5-3 10-7 15-10 68 2 135 4 203 6 4-4 3-10 4-15 40-5 81-8 121-13 18 11 35 23 52.9 34.2.6-8.2-9.3-6.1 0 0C920 465 921 451 922 438c0-2-2-4-3-5-11-10-19-22-30-32-5-3-7-10-12-10-66-4-132-4-198.4-6.7M901.5 521.4C908 508 912 494 918 480c0-1 1-2 2-2 54 4 108 7 162.4 10.3M1083.8 521.3c.2-57.3.2-115.3.6-172.3M655.4 360.1L913.8 346l63.6-16.2 68.7 15.2 94.9 10.1 11.1 71.6-69.7 3.1M918.5 111.1l-5.7 249 16.2 44.4-10.1 26.3M936.3 521.2C944 470 951 420 958 369l11-11c1-1 2-3 2-5 1-20 3-41 5-61 0-2 1-4 2-5 8-7 13-16 20-24 1-1 3-2 4-3 18-22 34-42 53-63 2-2 4-4 4-7 0-9 1-18 2-27v-10c2-11 2-21 2.9-31.8M987.5 109.7l7.1 191.9 14.1 2-3 79.7-14.1 8.1v89.8M1015.8 485.3v36M709.9 388.4c-1.9 43.6-2.9 88.6-4.1 133M728.1 103.7l-14.2 89.8 4.1 87.9 13.1 54.5v49.4M670.5 119.8l-1 123.2M717 179.4l177.6 4 5.1-24.2 113.1-3 17.1 4M761.4 242l72.7-5.1"/><g stroke="#F4D8B3" stroke-width="4" stroke-miterlimit="10" fill="none"><path d="M651.1 521.3C653 450 652 379 655 308c0-2-1-4-2-6-16-16-30-32-46-48-1-1-3-3-3-5-4-85-5-169-7.2-253.3M350.8 135.1C434 136 518 137 601 137c21-5 41-11 63-16 1 0 3-2 4-2 7-1 13-2 19-4 6-3 13-3 19-5 1-1 3-2 4-2 6-2 13-2 19-5 3-1 7-1 10-2l9-3c4-2 8-2 11-1 45 0 90 0 135-1h22c28 3 54 9 82 14 3 0 6 1 9 0 19-7 37-17 56-25 14 0 27 3 41 4 10 2 19 7 29 10 2 1 7 2 6 4-1 6-1 12-5 17-35 0-71-2-106-1-12 4-25 4-38.5 3.9M932 98.6l-17.2 15.2-80.7 123.1L718 361.1l-58.6 33.3-20.2-3 6.1-21.2 28.3-1 5 15.1-52.5 2.1M907.8 97.6l7 16.2M834.1 236.9l88.8-7 76.7-42.4 74.7-62.6 76.8-129.2M1069.3-1.3l28.3 89.8M1089.5-4.3l-24.2 88.8 6 36.4M1082.4 118.8l2 230.2M1108.7 121.9l9 37.3 19.2 22.2 4.1 173.7M1140 101.7l141.6 16.3M1126.8 119.8L1285 196"/></g><g><path fill="#B9252D" d="M673.6 359c1-1.6 1.6-3.5 1.6-5.6 0-5.8-4.7-10.4-10.4-10.4-5.8 0-10.4 4.7-10.4 10.4 0 2.2.7 4.2 1.8 5.9l8.7 10.5 8.7-10.8z"/><text transform="translate(660.144 357.75)" fill="#fff" font-family="'Helvetica-Bold'" font-size="12.616">A</text></g><path fill="#fff" d="M957.4 221.1c18.7-6.2 9.2-23.3 9.2-23.3s-6 1.3-9.2-.3c-3.2 1.6-9.2.3-9.2.3s-9.5 17.1 9.2 23.3z"/><path fill="#0EA9D6" d="M967.2 202.8s4.4 12.1-9.8 16.9c-14.2-4.7-9.8-16.9-9.8-16.9h19.6z"/><path fill="#D72631" d="M957.5 201.7h9.4s-.4-1.7-.9-2.3c0 0-5 .8-8.5-.4-3.5 1.2-8.5.4-8.5.4-.6.6-.9 2.3-.9 2.3h9.4z"/><text transform="translate(951.306 212.754)" fill="#fff" font-family="'HelveticaNeue-Bold'" font-size="10.555">35</text><path fill="#fff" d="M604.8 198.7c18.7-6.2 9.2-23.3 9.2-23.3s-6 1.3-9.2-.3c-3.2 1.6-9.2.3-9.2.3s-9.5 17.1 9.2 23.3z"/><path fill="#0EA9D6" d="M614.6 180.3s4.4 12.1-9.8 16.9c-14.2-4.7-9.8-16.9-9.8-16.9h19.6z"/><path fill="#D72631" d="M604.8 179.3h9.4s-.4-1.7-.9-2.3c0 0-5 .8-8.5-.4-3.5 1.2-8.5.4-8.5.4-.6.6-.9 2.3-.9 2.3h9.4z"/><text transform="translate(595.723 190.32)" fill="#fff" font-family="'HelveticaNeue-Bold'" font-size="10.555">135</text><path fill="#fff" d="M654.4 331c18.7-6.2 9.2-23.3 9.2-23.3s-6 1.3-9.2-.3c-3.2 1.6-9.2.3-9.2.3s-9.6 17.1 9.2 23.3z"/><path fill="#0EA9D6" d="M664.1 312.7s4.4 12.1-9.8 16.9c-14.2-4.7-9.8-16.9-9.8-16.9h19.6z"/><path fill="#D72631" d="M654.4 311.6h9.4s-.4-1.7-.9-2.3c0 0-5 .8-8.5-.4-3.5 1.2-8.5.4-8.5.4-.6.6-.9 2.3-.9 2.3h9.4z"/><text transform="translate(645.306 322.658)" fill="#fff" font-family="'HelveticaNeue-Bold'" font-size="10.555">135</text><path fill="#fff" d="M804.1 107.2c18.7-6.2 9.2-23.3 9.2-23.3s-6 1.3-9.2-.3c-3.2 1.6-9.2.3-9.2.3s-9.5 17.1 9.2 23.3z"/><path fill="#0EA9D6" d="M813.9 88.9s4.4 12.1-9.8 16.9c-14.2-4.7-9.8-16.9-9.8-16.9h19.6z"/><path fill="#D72631" d="M804.1 87.8h9.4s-.4-1.7-.9-2.3c0 0-5 .8-8.5-.4-3.5 1.2-8.5.4-8.5.4-.6.6-.9 2.3-.9 2.3h9.4z"/><text transform="translate(797.948 98.853)" fill="#fff" font-family="'HelveticaNeue-Bold'" font-size="10.555">70</text><path fill="#fff" d="M1137.9 276.4c18.7-6.2 9.2-23.3 9.2-23.3s-6 1.3-9.2-.3c-3.2 1.6-9.2.3-9.2.3s-9.5 17.1 9.2 23.3z"/><path fill="#0EA9D6" d="M1147.7 258.1s4.4 12.1-9.8 16.9c-14.2-4.7-9.8-16.9-9.8-16.9h19.6z"/><path fill="#D72631" d="M1137.9 257.1h9.4s-.4-1.7-.9-2.3c0 0-5 .8-8.5-.4-3.5 1.2-8.5.4-8.5.4-.6.6-.9 2.3-.9 2.3h9.4z"/><text transform="translate(1131.797 268.06)" fill="#fff" font-family="'HelveticaNeue-Bold'" font-size="10.555">49</text><text transform="translate(669.524 337.012)" fill="#877C6C" font-family="'HelveticaNeue-Bold'" font-size="12">WICHITA</text></svg>