<?xml version="1.0" encoding="utf-8"?>
<!-- Generator: Adobe Illustrator 18.0.0, SVG Export Plug-In . SVG Version: 6.00 Build 0)  -->
<!DOCTYPE svg PUBLIC "-//W3C//DTD SVG 1.1//EN" "http://www.w3.org/Graphics/SVG/1.1/DTD/svg11.dtd">
<svg version="1.1" id="Layer_1" xmlns="http://www.w3.org/2000/svg" xmlns:xlink="http://www.w3.org/1999/xlink" x="0px" y="0px"
	 viewBox="0 0 25 25" enable-background="new 0 0 25 25" xml:space="preserve">
<g>
	<path fill="#77CCE7" d="M23.5,9.8c-0.2-0.8-0.5-1.6-1-2.3c-1.3-2.5-3.2-4.1-5.4-4.9c-1.4-0.6-2.9-0.9-4.4-0.9
		c-6.2,0-11.2,5-11.2,11.2S6.6,24,12.8,24c5.4,0,9.9-3.8,10.9-8.9C24.1,13.5,24,11.7,23.5,9.8z M5.6,6c0.1,0,0.3-0.1,0.5-0.3
		c0.1,0.2,0.4,0,0.5-0.2c-0.2,0.1-0.2,0-0.4-0.1c0.1-0.1,0.2-0.2,0.4-0.3c0,0,0.2-0.1,0.2,0.2c0,0,0.1-0.1,0.2-0.2
		C6.9,5.3,6.9,5.5,6.9,5.6c0-0.1,0.2,0,0.2-0.1C7.1,5.8,6.8,5.9,6.8,6.2C6.7,6.4,6.7,6.1,6.7,6c0,0-0.1,0-0.1,0
		C6.4,6.3,6.1,6.1,5.9,6.1c0,0,0,0,0,0c-0.1,0-0.4,0.5-0.4,0.5c0,0-0.1-0.1-0.2-0.2C5.4,6.2,5.5,6.1,5.6,6z M7.7,10.3
		c0,0.1-0.1,0.1-0.2,0.1c0.2,0.2-0.5,0.4-0.5,0.3c0-0.1,0,0,0,0c0-0.2,0.4-0.2,0.6-0.3c0,0,0,0-0.1,0c-0.1,0-0.2,0.1-0.4,0.1
		c-0.1-0.2-0.2-0.2-0.2-0.4c-0.2,0.1-0.3,0.7-0.4,0.7c0.2-0.5,0.2-0.7,0-0.4C6.6,10.1,7,10,7,9.9C7,10,6.4,10,6.7,9.8
		c-0.4,0-0.2,0.2-0.5,0.1c0,0,0.3-0.4,0.5-0.4c0.1-0.1,0.8,0.4,0.9,0.6c0,0-0.1,0-0.1,0.1C7.8,10.2,8.2,10.2,7.7,10.3z M3.2,12.6
		C3.2,12.5,3.2,12.5,3.2,12.6c0.6,1.7,2.8,3.2,3.8,3.1c0.6,0.5-0.4,1.5-0.2,2c1.4,1,1.5,2.6,1.6,4c-3.2-1.6-5.4-5-5.4-8.8
		c0-0.3,0-0.6,0-0.9C3,12.2,3.1,12.4,3.2,12.6z M9.3,22.1c0.1-0.1,0.2-0.3,0.2-0.2c0.8,0.1,0.4-0.1,0.3-0.5c0.1-0.1,0.5-0.1,0.7-0.1
		c0,0,0,0,0,0c0,0,0.1,0,0.1,0c0,0,0,0,0,0c0.1,0,0.1,0,0.1-0.1c0.5-0.8,2.9-5.1,0.1-3.9c0,0,0-0.4,0-0.3c-0.1,0.1-0.2,0.2-0.3,0.3
		c0.1,0.1-0.3-1.8-1.3-1.4c0,0,0-0.3,0.1-0.3c-0.2-0.2-0.7,0.2-1-0.2c-0.1,0-0.1,0.4-0.2,0.4c-0.1-0.2,0-0.2,0.1-0.4
		c-0.2-0.2-0.7,0.5-0.7,0.6c-0.3-0.3-1-1.1-1.4-1.1C6.1,14.5,6,14.4,6,14.4c0,0,0,0,0,0c0-0.1,0.1-0.4,0.1-0.5c0-0.1-0.7,0.5-1,0.5
		c0,0-0.4-1.5-0.2-1.3c0-0.4,1-0.4,1-0.3c0.1,0-0.1-0.2-0.1-0.2c0.6-0.6,0.8,0.6,1,0.7c0.3-0.8,0.5-2,0.9-2.3c0,0.1-0.2,0.2-0.1,0.3
		c0.1,0,0,0,0.1,0.1c0.1-0.1,1.4-1.7,1.5-1.5C9.2,10,9.2,10,9.4,9.9C9.3,10,9.1,10.1,9,10.2c0.1,0.2,0.1,0,0.1,0.1
		c0,0,0.5-0.4,0.5-0.4c-0.1,0-0.1,0,0-0.1C9.4,10,9.2,9.6,9.2,9.5c0.2,0,0.2-0.1,0.2-0.3C9,9.2,8.9,9.5,8.6,9.7
		c0-0.6,1.5-0.8,1.8-1.3c-0.1-0.1-0.5,0-0.5,0c0.4,0-0.2-0.9-0.2-1.4c-0.2,0-0.1,0.5-0.4,0.5C9.3,7.3,9,7.3,9.2,7
		c0.3-0.2-1.5,0.3-1,0.4C8.3,7.6,8.1,9,7.6,9c0,0-0.1-0.5,0-0.7C5.9,7.9,7.1,6.5,7.2,6.5c0.1-0.1,1.5-0.5,1.1-1
		C8.1,5.6,8.2,5.4,8.2,5.4C7.8,5.5,8,5.9,7.6,6c-0.1-0.1-0.1-0.2,0-0.4C7.5,5.8,7.4,5.9,7.4,5.9c0.1-0.8,0-0.4,0.3-1.3
		C7.5,4.6,7.3,4.8,7.1,5c0,0,0,0-0.1,0c0-0.1,0-0.1,0-0.2c0.2-0.1,0.4-0.3,0.6-0.4c0,0,0,0.1,0,0.1c0.1,0,1-0.2,1.1-0.4
		C8.7,4,8.5,4,8.3,4C8.5,4,8.6,3.9,8.7,3.9c0,0,0,0,0,0c0.1,0,0.2-0.1,0.2-0.2c0.4-0.2,0.7-0.3,1.1-0.4c0,0,0.1,0,0.1,0
		C10,3.6,9.7,3.5,9.6,3.5c0.1,0.5,1.2-0.2,1.3,1.1c0,0,0.4-0.1,0.5,0c-0.1,0.1-0.1,0.1,0,0.1c0,0.1,0,0.1,0,0.2c-0.1,0-0.3,0-0.4,0
		c0.1,0,0.1,0.1,0.2,0.1c0,0-0.1,0-0.1,0c-0.3-0.1,0,0.3-0.1,0.3c0,0.2,0.3-0.1,0.3-0.2c0.2,0.1,0.1,0.1-0.1,0.5
		c0.2-0.1,0.2-0.1,0.2,0c-0.1,0-0.1,0-0.2,0c0,0.1,0,0.1-0.1,0.2c0.5-0.3,0,0,0.3-0.1c0-0.1,0-0.1,0.1-0.1c-0.4,0.5-0.4,0.4,0,0.6
		C10.8,6.5,11.9,7,12,7C12,7,12,7,12.1,7c-0.9-0.7,2.1-1.9,2.3-2.3c-0.2-0.1-0.3-0.1-0.5,0c0.2-0.2,0.2,0-0.2-0.1
		c0.1-0.1,0.2-0.1,0.3-0.1c0-0.2-0.3,0-0.3-0.1c0.1,0,0.1,0,0-0.1c0.3,0,0.4,0.3,0.7,0.3c0.2-0.3-0.6-0.5-0.6-0.6c0.1,0,0.1,0,0-0.1
		c0,0,0.5-0.1,0.6-0.1c0,0,0,0-0.1,0c-0.1,0-0.1-0.1,0-0.2c0.1,0.1,0.2,0.1,0.3,0c0,0-0.3-0.2-0.3-0.2c0-0.1,0.2,0,0.2,0
		c0.2-0.4-0.1-0.2-0.2-0.2c0-0.2,0.1-0.1,0.3-0.1c0,0,0-0.1,0-0.1c1.6,0.3,3,1,4.2,1.9c-0.3,0.3-0.6,0.6-0.8,1.2
		c-0.5-0.1-0.7,0.5-0.3,0.6c-0.4,0.4,0,0.6,0.5,0.3c0,0.2,0.1,0.4,0.2,0.6c0.1,0.1,0.1,0.1,0.1,0.2C19.1,8,18.8,6.6,19,6
		c0-0.2,0.1-0.4,0.3-0.5c0.5,0.5,1,1,1.4,1.5c-0.2,0-0.4,0-0.7,0c-0.3,0.1-0.6,0.6-0.6,0.4c-0.9,0.3-0.7,0.7-1,0.4c0,0,0,0-0.1,0
		c0,0,0-0.1,0-0.2c-0.1-0.1-0.1-0.2-0.3-0.3c0,0-0.1,0.1-0.2,0.2c0,0,0,0,0,0c0,0,0,0,0,0c0,0.1-0.2,0.5,0.1,0.6
		c-0.5,0-1.3,0.8-1.6,0.9c0,0,0,0.1,0,0.1c1.1,0-0.9,1.1-0.4,1.9c0,0,2.1-1.3,2.8-1c-0.2-0.1-0.3-0.3-0.3-0.5
		c0.5,0.1,0.9,1.1,1.2,1.5c0.2-0.1,0.3-0.3,0.4-0.1c0-0.1-0.5-0.3-0.2-0.5c0.2,0.2,0.3-0.3,0.4,0.1c0.1-0.1,0.2-0.1,0.3-0.2
		c-0.3-0.1,0-0.8,0.2-0.9C21,9.5,21,10,21.4,9.9c0-0.1-0.3,0-0.3-0.2c0,0,0.5-0.1,0.6-0.1c-0.1,0.1-0.3,0.2-0.3,0.3
		c0.1,0.1,0.5,0.3,0.6,0.5c-0.3-0.1-3.6,1.4-0.6,0.9c0.3,0.3-2.9,2.3-3-0.1c-0.6-0.1-4.7,1.2-3.5,2.7c-1.1,2.4,1.7,1.8,2.1,2.3
		c0.4-0.2,0.7,0,0.9,0.3c0,0,0,0.1,0,0c0.1,0.3,0.2,0.8,0.2,1.1c0.9,0.4-0.5,1.8-0.1,2.3c-0.1,0.2,0,0.9,0,1.1c0,0,0,0-0.1,0.1
		c0,0,0,0.1,0,0.1c0,0,0,0,0,0c-1.5,0.9-3.2,1.5-5.1,1.5C11.5,22.7,10.4,22.5,9.3,22.1z"/>
	<path fill="#77CCE7" d="M9.7,5.6C9.6,5.4,9.5,4.5,9.1,4.9C8.9,4.8,9.6,4.2,8.7,4.6c0.1,0,0.2-0.1,0.1-0.3C8.3,4.2,8.1,5.1,7.9,5.1
		C8,5,8.3,4.6,8.3,4.5c-0.8,0-0.7,1.3,0.4,0.6c0,0.2,0.2,0,0.2,0.4c0.7-0.3-0.5,1.2-0.5,1.1c0.3,0.1,0.3-0.2,0.3-0.2
		c0,0.2,0.8,0.6,0.9,0.3c-0.1,0-0.3-0.1-0.3-0.2c0.1-0.1,0.4,0,0.4,0.1C9.9,6.4,9.4,6.1,9.5,6c0.2,0,0-0.1,0.1-0.1
		c0,0.1,0.1,0.1,0,0C9.8,6,9.8,6,9.8,6.1c0.1,0,0,0,0.1,0c0.1-0.1,0.3-0.5,0.2-0.5C10.1,5.7,9.8,5.6,9.7,5.6z M8.4,4.9
		c0.1,0,0.1-0.3,0.1-0.4c0,0,0.3,0.2,0.3,0.2C8.8,4.7,8.4,4.8,8.4,4.9z"/>
	<path fill="#77CCE7" d="M14.8,6.2c0.1-0.1,0.3-0.3,0.5-0.3c0-0.4-1-0.3-1-0.3c0.1,0.2,0,0,0,0c0,0.1,0,0.1-0.1,0.2
		c0,0.1,0.2-0.1,0.2,0c0,0.1-0.2,0-0.2,0.2C14.5,5.9,14.3,6.3,14.8,6.2z"/>
	<path fill="#77CCE7" d="M16.6,8.1c0,0-0.2,0.4-0.3,0.5c0.1,0,0.2,0,0.3,0c-0.1,0.1-0.4,0.1-0.4,0.3c0.1,0,0.9-0.2,0.9-0.2
		c-0.1-0.1-0.4-1.3-0.6-1.5c-0.1,0-0.3,0.2-0.2,0.3C16.1,7.5,16.4,8.1,16.6,8.1z"/>
	<path fill="#77CCE7" d="M16.2,8c-0.6-0.1-0.2,0.5-0.5,0.6C15.8,9,16.2,8.1,16.2,8z"/>
	<path fill="#77CCE7" d="M6.6,5.5C6.6,5.5,6.5,5.5,6.6,5.5C6.6,5.5,6.6,5.5,6.6,5.5z"/>
</g>
</svg>
