<svg xmlns="http://www.w3.org/2000/svg" viewBox="-3.9 -1.1 28.3 35.1" enable-background="new -3.9 -1.1 28.3 35.1"><circle fill="#B9252D" cx="10.2" cy="10.3" r="9.5"/><path fill="#DBD2D1" d="M10.2 20.8c-.3 0-.7 0-1-.1V34h2V20.7c-.4.1-.7.1-1 .1z"/><path fill="#B9252D" d="M-.3 10.3C-.3 4.9 3.8.4 9-.1c-1.2-.6-2.6-1-4-1-4.9 0-8.9 4-8.9 8.9 0 3.6 2.1 6.7 5.2 8.1-1-1.6-1.6-3.6-1.6-5.6z"/><path fill="#DBD2D1" d="M4 18.8V31h1.9V19.9c-.6-.3-1.3-.7-1.9-1.1z"/><path fill="#B9252D" d="M20.8 10.3c0-5.4-4.1-9.9-9.3-10.4 1.2-.6 2.6-1 4-1 4.9 0 8.9 4 8.9 8.9 0 3.6-2.1 6.7-5.2 8.1 1-1.6 1.6-3.6 1.6-5.6z"/><path fill="#DBD2D1" d="M16.5 18.8V31h-1.9V19.9c.6-.3 1.3-.7 1.9-1.1z"/></svg>