<?xml version="1.0" encoding="utf-8"?>
<!-- Generator: Adobe Illustrator 18.0.0, SVG Export Plug-In . SVG Version: 6.00 Build 0)  -->
<!DOCTYPE svg PUBLIC "-//W3C//DTD SVG 1.1//EN" "http://www.w3.org/Graphics/SVG/1.1/DTD/svg11.dtd">
<svg version="1.1" id="Layer_1" xmlns="http://www.w3.org/2000/svg" xmlns:xlink="http://www.w3.org/1999/xlink" x="0px" y="0px"
	 viewBox="0 0 250 115" enable-background="new 0 0 250 115" xml:space="preserve">
<g>
	<polygon fill="#FFFFFF" points="19.4,93.9 19.3,56.1 9.1,56.1 9.2,102.5 42,102.4 42,93.8 	"/>
	<path fill="#FFFFFF" d="M103.5,94.3c-1.2,1.2-2.9,1.9-5.1,1.9c-1.4,0-2.6-0.3-3.6-1c-1-0.6-1.8-1.5-2.4-2.5c-0.6-1-1-2.2-1.3-3.4
		c-0.3-1.3-0.4-2.5-0.4-3.7c0-1.3,0.1-2.5,0.4-3.8c0.3-1.3,0.7-2.4,1.3-3.5c0.6-1.1,1.4-1.9,2.4-2.6c1-0.7,2.2-1,3.7-1
		c3.9,0,6.2,1.9,6.8,5.8l9,0c-0.1-2.2-0.7-4-1.6-5.6c-0.9-1.6-2.1-2.9-3.6-4c-1.5-1.1-3.1-1.8-4.9-2.4c-1.8-0.5-3.8-0.8-5.8-0.8
		c-2.7,0-5.2,0.5-7.3,1.4c-2.1,0.9-3.9,2.2-5.4,3.8c-1.5,1.6-2.6,3.6-3.3,5.8c-0.8,2.2-1.1,4.6-1.1,7.2c0,2.5,0.4,4.8,1.3,6.9
		c0.8,2.1,2,3.9,3.5,5.4c1.5,1.5,3.3,2.7,5.4,3.5c2.1,0.8,4.4,1.3,6.9,1.2c4.5,0,8.1-1.2,11-3.5c2.9-2.3,4.6-5.8,5.2-10.2l-8.9,0
		C105.5,91.4,104.7,93.1,103.5,94.3z"/>
	<path fill="#FFFFFF" d="M148.4,94.6l-0.1-17.5c0-2-0.5-3.7-1.4-4.9c-0.9-1.2-2.1-2.2-3.5-2.9c-1.4-0.7-3-1.1-4.7-1.4
		c-1.7-0.2-3.4-0.3-5.1-0.3c-1.9,0-3.7,0.2-5.6,0.6c-1.8,0.4-3.5,1-5,1.9c-1.5,0.9-2.7,2-3.6,3.5c-0.9,1.4-1.5,3.2-1.6,5.4l9.2,0
		c0.2-1.8,0.8-3.1,1.8-3.9c1-0.8,2.5-1.2,4.3-1.2c0.8,0,1.6,0.1,2.3,0.2c0.7,0.1,1.3,0.3,1.9,0.6c0.5,0.3,1,0.8,1.3,1.4
		c0.3,0.6,0.5,1.4,0.5,2.4c0,1-0.2,1.7-0.8,2.2c-0.6,0.5-1.4,0.9-2.5,1.1c-1,0.3-2.2,0.5-3.6,0.6c-1.3,0.1-2.7,0.3-4.1,0.5
		c-1.4,0.2-2.8,0.5-4.1,0.9c-1.4,0.4-2.6,0.9-3.6,1.7c-1.1,0.7-1.9,1.7-2.6,3c-0.7,1.2-1,2.8-1,4.7c0,1.7,0.3,3.2,0.9,4.5
		c0.6,1.3,1.4,2.3,2.4,3.1c1,0.8,2.3,1.4,3.6,1.8c1.4,0.4,2.9,0.6,4.5,0.6c2.1,0,4.1-0.3,6.1-0.9c2-0.6,3.7-1.7,5.2-3.2
		c0,0.6,0.1,1.1,0.2,1.7c0.1,0.5,0.3,1.1,0.4,1.6l9.4,0c-0.4-0.7-0.7-1.7-0.9-3.1C148.5,97.6,148.4,96.1,148.4,94.6z M139,91.2
		c-0.1,0.9-0.4,1.7-0.9,2.6c-0.5,0.8-1.2,1.6-2.2,2.2c-1,0.6-2.4,0.9-4.2,0.9c-0.7,0-1.5-0.1-2.1-0.2c-0.7-0.1-1.3-0.4-1.8-0.7
		c-0.5-0.3-0.9-0.8-1.2-1.3c-0.3-0.6-0.5-1.3-0.5-2.1c0-0.9,0.1-1.6,0.4-2.1c0.3-0.6,0.7-1,1.2-1.4c0.5-0.4,1.1-0.7,1.8-0.9
		c0.7-0.2,1.4-0.4,2-0.5c0.7-0.1,1.5-0.2,2.2-0.3c0.7-0.1,1.4-0.2,2.1-0.3c0.7-0.1,1.3-0.3,1.9-0.5c0.6-0.2,1.1-0.5,1.5-0.8l0,3.4
		C139.2,89.6,139.1,90.3,139,91.2z"/>
	
		<rect x="134.5" y="74.3" transform="matrix(-2.955595e-03 -1 1 -2.955595e-03 79.3354 236.8367)" fill="#FFFFFF" width="46.4" height="9.2"/>
	
		<rect x="148.5" y="74.2" transform="matrix(-2.954999e-03 -1 1 -2.954999e-03 93.3461 250.7071)" fill="#FFFFFF" width="46.4" height="9.2"/>
	<path fill="#FFFFFF" d="M196.8,91.3h-0.1l-7.7-23l-9.8,0l11.8,31.5c0.3,0.6,0.4,1.3,0.4,2.1c0,1-0.3,1.9-0.9,2.7
		c-0.6,0.8-1.5,1.3-2.7,1.4c-0.9,0-1.8,0-2.7-0.1c-0.9-0.1-1.8-0.2-2.7-0.3l0,7.6c1,0.1,1.9,0.2,2.8,0.2c0.9,0.1,1.9,0.1,2.8,0.1
		c3.2,0,5.6-0.6,7.4-1.8c1.8-1.2,3.2-3.1,4.1-5.9l13.9-37.8l-9.5,0L196.8,91.3z"/>
	<path fill="#FFFFFF" d="M15.5,47.9c2.8,1.2,6,1.9,9.6,1.9c2.9,0,5.5-0.4,7.9-1.3c2.4-0.9,4.5-2.1,6.2-3.8c1.8-1.6,3.2-3.6,4.3-6
		c1.1-2.3,1.8-5,2-7.9h-9.9c-0.4,3.1-1.5,5.6-3.2,7.5c-1.8,1.9-4.2,2.9-7.3,2.9c-2.3,0-4.2-0.4-5.8-1.3c-1.6-0.9-2.9-2.1-3.9-3.5
		c-1-1.5-1.7-3.1-2.2-5c-0.5-1.8-0.7-3.7-0.7-5.7c0-2,0.2-4,0.7-5.9c0.5-1.9,1.2-3.6,2.2-5.1c1-1.5,2.3-2.7,3.9-3.6
		c1.6-0.9,3.5-1.3,5.8-1.3c1.3,0,2.5,0.2,3.6,0.6c1.1,0.4,2.2,1,3.1,1.7c0.9,0.7,1.7,1.6,2.3,2.6c0.6,1,1,2,1.2,3.2h9.9
		c-0.3-2.7-1-5.1-2.2-7.1c-1.2-2.1-2.7-3.8-4.4-5.2c-1.8-1.4-3.8-2.5-6.1-3.2c-2.3-0.7-4.7-1.1-7.2-1.1c-3.6,0-6.7,0.6-9.6,1.9
		c-2.8,1.3-5.2,3-7.2,5.2c-1.9,2.2-3.4,4.8-4.5,7.8c-1,3-1.6,6.2-1.6,9.6c0,3.4,0.5,6.5,1.6,9.5c1,2.9,2.5,5.5,4.5,7.6
		C10.3,45,12.7,46.7,15.5,47.9z"/>
	<path fill="#FFFFFF" d="M95.6,31.1c0-3.4,0.6-5.9,1.7-7.4c1.1-1.5,2.9-2.2,5.5-2.2c2.2,0,3.7,0.7,4.6,2c0.9,1.4,1.3,3.4,1.3,6.2v19
		h9.2V28.1c0-2.1-0.2-4-0.6-5.7c-0.4-1.7-1-3.2-1.9-4.4c-0.9-1.2-2.2-2.1-3.7-2.8c-1.6-0.7-3.6-1-6.1-1c-1.9,0-3.9,0.4-5.7,1.3
		c-1.9,0.9-3.4,2.3-4.5,4.3h-0.2v-4.7h-8.8v33.6h9.2V31.1z"/>
	<path fill="#FFFFFF" d="M150.6,18c-0.9-1.2-2.2-2.1-3.7-2.8c-1.6-0.7-3.6-1-6.1-1c-1.9,0-3.9,0.4-5.7,1.3c-1.9,0.9-3.4,2.3-4.5,4.3
		h-0.2v-4.7h-8.8v33.6h9.2V31.1c0-3.4,0.6-5.9,1.7-7.4c1.1-1.5,2.9-2.2,5.5-2.2c2.2,0,3.7,0.7,4.6,2c0.9,1.4,1.3,3.4,1.3,6.2v19h9.2
		V28.1c0-2.1-0.2-4-0.6-5.7C152.1,20.7,151.5,19.2,150.6,18z"/>
	<path fill="#FFFFFF" d="M182.6,47c2.7-1.7,4.7-4.6,6-8.6h-8.1c-0.3,1-1.1,2-2.5,3c-1.3,0.9-2.9,1.4-4.8,1.4c-2.6,0-4.6-0.7-6-2
		c-1.4-1.3-2.1-3.5-2.3-6.5h24.2c0.2-2.6,0-5.1-0.7-7.5c-0.6-2.4-1.6-4.5-3-6.4c-1.4-1.9-3.1-3.3-5.2-4.4c-2.1-1.1-4.6-1.7-7.5-1.7
		c-2.6,0-4.9,0.5-7,1.4c-2.1,0.9-3.9,2.2-5.4,3.7c-1.5,1.6-2.7,3.5-3.5,5.6c-0.8,2.2-1.2,4.5-1.2,7c0,2.6,0.4,5,1.2,7.1
		c0.8,2.2,1.9,4,3.4,5.6c1.5,1.6,3.3,2.8,5.4,3.6c2.1,0.8,4.5,1.3,7.1,1.3C176.7,49.6,180,48.7,182.6,47z M165.4,26.1
		c0.2-0.8,0.6-1.6,1.2-2.3c0.6-0.7,1.4-1.4,2.3-1.9c1-0.5,2.2-0.7,3.7-0.7c2.3,0,3.9,0.6,5,1.8c1.1,1.2,1.9,3,2.3,5.3h-15
		C165,27.7,165.2,27,165.4,26.1z"/>
	<path fill="#FFFFFF" d="M213.4,40.8c-1.2,1.2-2.9,1.9-5.1,1.9c-1.4,0-2.6-0.3-3.6-1c-1-0.6-1.8-1.5-2.4-2.5c-0.6-1-1-2.2-1.3-3.4
		c-0.3-1.3-0.4-2.5-0.4-3.7c0-1.3,0.1-2.5,0.4-3.8c0.3-1.3,0.7-2.4,1.3-3.5c0.6-1.1,1.4-1.9,2.4-2.6c1-0.7,2.2-1,3.7-1
		c3.9,0,6.2,1.9,6.8,5.8h9c-0.1-2.2-0.7-4-1.6-5.6c-0.9-1.6-2.1-2.9-3.5-4c-1.5-1.1-3.1-1.9-4.9-2.4c-1.8-0.5-3.8-0.8-5.7-0.8
		c-2.7,0-5.2,0.5-7.3,1.4c-2.1,0.9-3.9,2.2-5.4,3.8c-1.5,1.6-2.6,3.6-3.3,5.8c-0.8,2.2-1.1,4.6-1.1,7.2c0,2.5,0.4,4.8,1.2,6.9
		c0.8,2.1,2,3.9,3.4,5.4c1.5,1.5,3.3,2.7,5.4,3.5c2.1,0.8,4.4,1.3,6.9,1.3c4.5,0,8.1-1.2,11-3.5c2.9-2.3,4.6-5.7,5.2-10.2h-8.9
		C215.3,37.9,214.6,39.6,213.4,40.8z"/>
	<path fill="#FFFFFF" d="M246.9,21.3v-6.2h-6.8V5.1H231v10.1h-5.6v6.2h5.6v19.8c0,1.7,0.3,3.1,0.8,4.1c0.6,1,1.3,1.8,2.3,2.4
		c1,0.6,2.1,0.9,3.4,1.1c1.3,0.2,2.6,0.3,4.1,0.3c0.9,0,1.8,0,2.8-0.1c1,0,1.8-0.1,2.6-0.3v-7.1c-0.4,0.1-0.9,0.2-1.4,0.2
		c-0.5,0-1,0.1-1.5,0.1c-1.6,0-2.6-0.3-3.1-0.8c-0.5-0.5-0.8-1.6-0.8-3.1V21.3H246.9z"/>
	<path fill="#FFFFFF" d="M71.7,71.1c-4.2-3.3-9.9-4.6-15-3.4c-4.8,1.1-9,4.1-11.6,8.3c-2.5,4.2-3.2,9.2-2.1,13.9c1,4.2,3,8,5.5,11.5
		c2.1,3,4.6,5.9,7.2,8.5c1.2,1.1,2.4,2.2,3.6,3.3c0.4,0.4,0.8,0.8,1.4,0.8c0.6,0.1,1.1-0.4,1.5-0.7c0.1-0.1,0.3-0.3,0.4-0.4
		c0.6-0.6,1.3-1.2,1.9-1.8c2.4-2.4,4.7-4.9,6.8-7.5c2.5-3.3,4.8-6.8,6.3-10.7c1.6-4.2,1.8-8.9,0.4-13.2
		C76.7,76.4,74.6,73.3,71.7,71.1z M70.4,88.9C69,93.1,65,96,60.6,96c-4.4,0-8.5-2.9-9.9-7.1c-1.4-4.2,0.1-9,3.7-11.7
		c3.6-2.6,8.7-2.6,12.3,0C70.3,79.9,71.8,84.7,70.4,88.9z"/>
	<path fill="#FFFFFF" d="M65.7,49.7c9.8,0,17.7-7.9,17.7-17.7c0-9.8-7.9-17.7-17.7-17.7c-9.8,0-17.7,7.9-17.7,17.7
		C48,41.8,55.9,49.7,65.7,49.7z M65.7,21.7c5.7,0,10.4,4.7,10.4,10.4c0,5.7-4.7,10.4-10.4,10.4c-5.7,0-10.4-4.7-10.4-10.4
		C55.3,26.3,60,21.7,65.7,21.7z"/>
</g>
</svg>
