<?xml version="1.0" encoding="utf-8"?>
<!-- Generator: Adobe Illustrator 18.0.0, SVG Export Plug-In . SVG Version: 6.00 Build 0)  -->
<!DOCTYPE svg PUBLIC "-//W3C//DTD SVG 1.1//EN" "http://www.w3.org/Graphics/SVG/1.1/DTD/svg11.dtd">
<svg version="1.1" id="Layer_1" xmlns="http://www.w3.org/2000/svg" xmlns:xlink="http://www.w3.org/1999/xlink" x="0px" y="0px"
	 viewBox="0 0 330 112.5" enable-background="new 0 0 330 112.5" xml:space="preserve">
<g>
	<polygon fill-rule="evenodd" clip-rule="evenodd" fill="#FFFFFF" points="60.6,43.1 67,43.1 63.8,35.1 	"/>
	<path fill-rule="evenodd" clip-rule="evenodd" fill="#FFFFFF" d="M204.7,32.5c-4.3,0-7.2,3.5-7.2,7.6v0.1c0,4.1,3,7.6,7.3,7.6
		c4.3,0,7.2-3.5,7.2-7.6v-0.1C212,36,209,32.5,204.7,32.5z"/>
	<path fill-rule="evenodd" clip-rule="evenodd" fill="#FFFFFF" d="M290.6,32.8h-5.2v6.8h5.2c2.6,0,4.2-1.3,4.2-3.4v-0.1
		C294.9,33.9,293.2,32.8,290.6,32.8z"/>
	<path fill-rule="evenodd" clip-rule="evenodd" fill="#FFFFFF" d="M324.2,0H5.8C3.5,0,1.7,1.8,1.7,4.1v76.3c0,2.3,1.8,4.1,4.1,4.1
		h13.5v23.3c0,3.5,4.1,5.4,6.8,3.1l31.4-26.4h266.7c2.3,0,4.1-1.8,4.1-4.1V4.1C328.3,1.8,326.5,0,324.2,0z M43.6,54.3h-7.8V32.9
		h-8.5V26h24.8v6.9h-8.5V54.3z M71.3,54.3l-2-5.1h-11l-2,5.1h-8.2l12-28.5h7.6l12.1,28.5H71.3z M104.9,54.3H83.3V26h7.8v21.4h13.7
		V54.3z M126.1,54.3L119,43.8l-2.9,3.2v7.4h-7.8V26h7.8v11.5l9.8-11.5h9.3l-10.7,12.1l11.1,16.2H126.1z M152.2,54.3h-7.8V26h7.8
		V54.3z M180.6,32.9h-8.5v21.4h-7.8V32.9h-8.5V26h24.8V32.9z M220,40.2c0,8.1-6.6,14.7-15.3,14.7c-8.7,0-15.2-6.5-15.2-14.6v-0.1
		c0-8.1,6.6-14.7,15.3-14.7C213.5,25.4,220,32,220,40.2L220,40.2z M237.1,54.5h-7.3L218.4,26h8.7l6.4,17.9L240,26h8.6L237.1,54.5z
		 M274.3,54.3h-23V26h22.8v6.6h-15V37h13.6v6.2h-13.6v4.5h15.2V54.3z M294.6,54.3l-5.7-8.6h-3.5v8.6h-7.8V26H291
		c4.3,0,7.3,1.1,9.2,3c1.7,1.7,2.5,3.8,2.5,6.6v0.1c0,4.4-2.3,7.2-5.8,8.7l6.8,9.9H294.6z"/>
</g>
</svg>
