<?xml version="1.0" encoding="utf-8"?>
<!-- Generator: Adobe Illustrator 18.0.0, SVG Export Plug-In . SVG Version: 6.00 Build 0)  -->
<!DOCTYPE svg PUBLIC "-//W3C//DTD SVG 1.1//EN" "http://www.w3.org/Graphics/SVG/1.1/DTD/svg11.dtd">
<svg version="1.1" id="Layer_1" xmlns="http://www.w3.org/2000/svg" xmlns:xlink="http://www.w3.org/1999/xlink" x="0px" y="0px"
	 width="185px" height="25px" viewBox="0 0 185 25" style="enable-background:new 0 0 185 25;" xml:space="preserve">
<style type="text/css">
	.st0{fill:#FFFFFF;}
</style>
<g>
	<g>
		<path class="st0" d="M17.4,10c-0.3,0.5-1.6,3-2.5,5l6-1.1l0.5-0.1c1.1-0.2,1.5-1.5,1.6-1.8c1.3-3.5,2.5-3.7,4.8-4.3
			c5-1.3,7.3-6.4,7.3-6.5c-2.8,0.6-6.9,1.5-6.9,1.5C20.5,4.4,18.8,7.2,17.4,10z"/>
		<path class="st0" d="M19.3,21.2c0,0,6.6-1,9-2c4.1-1.8,5.5-5.8,5.5-5.8c0,0-6.3,0.9-9.1,2.5C24.2,16.2,22.4,16.7,19.3,21.2z"/>
		<path class="st0" d="M15.5,21.8c4-2.4,5-5.5,5-5.5s-1,0.1-2.4,0.4l-5,0.9c-0.5,0.8-1.3,2.1-1.5,2.4c-0.7,0.9-1,0.9-2.6,1.1
			c-0.4,0-0.6-0.3-0.3-0.9l1.6-3.2c0.2-0.4,0.4-0.8,0.5-1l5.5-10.7C10.9,6.8,7.4,9.9,6,12.8L0,25h0l14.3-2.6
			C14.7,22.2,15.2,22,15.5,21.8z"/>
	</g>
	<g>
		<polygon class="st0" points="42.8,5.4 41.6,5.4 41.6,17.6 50,17.6 50,16.4 42.8,16.4 		"/>
		<rect x="51.6" y="5.4" class="st0" width="1.1" height="12.1"/>
		<polygon class="st0" points="54.6,17.6 55.7,17.6 55.7,12 63,12 63,10.9 55.7,10.9 55.7,6.7 63.4,6.7 63.4,5.4 54.6,5.4 		"/>
		<polygon class="st0" points="66.1,11.9 73.8,11.9 73.8,10.7 66.1,10.7 66.1,6.7 74.1,6.7 74.1,5.4 65,5.4 65,17.6 74.2,17.6 
			74.2,16.4 66.1,16.4 		"/>
		<polygon class="st0" points="97.1,10.8 90.1,10.8 90.1,5.4 89.1,5.4 89.1,17.6 90.1,17.6 90.1,11.9 97.1,11.9 97.1,17.6 
			98.1,17.6 98.1,5.4 97.1,5.4 		"/>
		<polygon class="st0" points="141.8,10.8 134.8,10.8 134.8,5.4 133.8,5.4 133.8,17.6 134.8,17.6 134.8,11.9 141.8,11.9 141.8,17.6 
			142.8,17.6 142.8,5.4 141.8,5.4 		"/>
		<path class="st0" d="M109.2,12.9c0,2.9-1.6,4.9-4.7,4.9c-3.1,0-4.7-2-4.7-4.9V5.4h1.1v7.2h0c0,3.4,2.5,4,3.6,4s3.6-0.6,3.6-4h0
			V5.4h1.1V12.9z"/>
		<path class="st0" d="M119.3,11.5c0.9-0.5,1.5-1.5,1.5-2.8c0-2.1-1.1-3.3-2.9-3.3H111v12.1h1.1V12h5.5c1.5,0,2.2,1.2,2.2,3.1v2.5
			h1.1v-2.7C120.8,13,120.1,12,119.3,11.5z M118,10.8h-5.9V6.7h5.9c1.1,0,1.7,0.7,1.7,2.1S119.1,10.8,118,10.8z"/>
		<path class="st0" d="M82.6,16.7c-1.3,0-4.2-0.7-4.2-5.2c0-4.4,2.9-5.2,4.2-5.2c1.3,0,3.3,0.7,4,3.3l1,0c-0.5-3-2.7-4.5-5-4.5
			c-2.9,0-5.2,2-5.2,6.3c0,4.3,2.3,6.3,5.2,6.3c2.2,0,4.2-1.1,5-4.2l-1.1,0C85.8,16,83.8,16.7,82.6,16.7z"/>
		<path class="st0" d="M127.3,16.7c-1.3,0-4.2-0.7-4.2-5.2c0-4.4,2.9-5.2,4.2-5.2c1.3,0,3.3,0.7,4,3.3l1,0c-0.5-3-2.7-4.5-5-4.5
			c-2.9,0-5.2,2-5.2,6.3c0,4.3,2.3,6.3,5.2,6.3c2.2,0,4.2-1.1,5-4.2l-1.1,0C130.5,16,128.5,16.7,127.3,16.7z"/>
		<rect x="75.6" y="16.1" class="st0" width="1.1" height="1.5"/>
	</g>
</g>
</svg>
