<?xml version="1.0" encoding="utf-8"?>
<!-- Generator: Adobe Illustrator 17.1.0, SVG Export Plug-In . SVG Version: 6.00 Build 0)  -->
<!DOCTYPE svg PUBLIC "-//W3C//DTD SVG 1.1//EN" "http://www.w3.org/Graphics/SVG/1.1/DTD/svg11.dtd">
<svg version="1.1" id="Icon_2_" xmlns="http://www.w3.org/2000/svg" xmlns:xlink="http://www.w3.org/1999/xlink" x="0px" y="0px"
	 viewBox="473.5 473.5 13 13" enable-background="new 473.5 473.5 13 13" xml:space="preserve">
<g id="Open_logo">
	<g id="open_2_">
		<path fill="#FCDB51" d="M486.5,485.8c0,0.3-0.3,0.6-0.6,0.6h-11.7c-0.3,0-0.6-0.3-0.6-0.6v-11.7c0-0.3,0.3-0.6,0.6-0.6h11.7
			c0.3,0,0.6,0.3,0.6,0.6V485.8z"/>
		<g>
			<g>
				<path fill="#FFFFFF" d="M482.7,483.7C482.7,483.7,482.7,483.7,482.7,483.7l-5.6-0.8c-0.2,0-0.4-0.2-0.4-0.4v-4.9
					c0-0.2,0.2-0.4,0.4-0.4l5.5-0.8c0.1,0,0.2,0,0.3,0.1c0.1,0.1,0.2,0.2,0.2,0.3v6.6c0,0.1-0.1,0.2-0.2,0.3
					C482.9,483.7,482.8,483.7,482.7,483.7z M477.7,482.1l4.7,0.7v-5.6l-4.7,0.7V482.1z"/>
			</g>
		</g>
	</g>
</g>
</svg>
