<?xml version="1.0" encoding="utf-8"?>
<!-- Generator: Adobe Illustrator 17.1.0, SVG Export Plug-In . SVG Version: 6.00 Build 0)  -->
<!DOCTYPE svg PUBLIC "-//W3C//DTD SVG 1.1//EN" "http://www.w3.org/Graphics/SVG/1.1/DTD/svg11.dtd">
<svg version="1.1" id="Icon" xmlns="http://www.w3.org/2000/svg" xmlns:xlink="http://www.w3.org/1999/xlink" x="0px" y="0px"
	 viewBox="450 450 60 60" enable-background="new 450 450 60 60" xml:space="preserve">
<linearGradient id="SVGID_1_" gradientUnits="userSpaceOnUse" x1="480" y1="510" x2="480" y2="450">
	<stop  offset="0" style="stop-color:#2A2929"/>
	<stop  offset="1" style="stop-color:#3C3B3B"/>
</linearGradient>
<path fill="url(#SVGID_1_)" d="M510,507c0,1.7-1.3,3-3,3h-54c-1.7,0-3-1.3-3-3v-54c0-1.7,1.3-3,3-3h54c1.7,0,3,1.3,3,3V507z"/>
<path id="church_metrics_logomark" fill="#FFFFFF" d="M469.4,491.2c-5.7,0-9.7-4.6-9.7-10.2c0-5.6,4.1-9.9,9.6-9.9
	c2.8,0,7.2,1.2,7.2,4.1v1.6h-1.8v-1.1c0-1.8-3.2-2.9-5.4-2.9c-4.4,0-7.7,3.4-7.7,8.1c0,4.7,3.3,8.4,7.8,8.4c4,0,6.4-2.8,6.4-2.8
	l1.1,1.4C476.9,488,474.2,491.2,469.4,491.2z M500.7,490.8h-1.9c-1.2,0-1.6-0.5-1.7-1.7l-1-11.8c-0.1-1.1-0.1-2.7-0.1-2.7h-0.1
	c0,0-0.5,1.7-1,2.7l-4.6,9.9h-1.7l-4.6-9.9c-0.4-1-1.1-2.8-1.1-2.8h-0.1c0,0,0,1.7-0.1,2.8l-1,11.8c-0.1,1.2-0.5,1.7-1.7,1.7h-1.8
	v-1.7h1.1c0.4,0,0.5-0.2,0.6-0.6l1.4-17.1h1.9l5.1,11.3c0.4,1,1,2.3,1,2.3h0.1c0,0,0.5-1.3,1-2.3l5.1-11.3h1.9l1.5,17.2
	c0,0.4,0.2,0.6,0.6,0.6h1.1V490.8L500.7,490.8z"/>
</svg>
