<?xml version="1.0" encoding="utf-8"?>
<!-- Generator: Adobe Illustrator 17.1.0, SVG Export Plug-In . SVG Version: 6.00 Build 0)  -->
<!DOCTYPE svg PUBLIC "-//W3C//DTD SVG 1.1//EN" "http://www.w3.org/Graphics/SVG/1.1/DTD/svg11.dtd">
<svg version="1.1" id="Icon" xmlns="http://www.w3.org/2000/svg" xmlns:xlink="http://www.w3.org/1999/xlink" x="0px" y="0px"
	 viewBox="450 450 60 60" enable-background="new 450 450 60 60" xml:space="preserve">
<linearGradient id="SVGID_1_" gradientUnits="userSpaceOnUse" x1="480" y1="450.1432" x2="480" y2="509.8568">
	<stop  offset="0" style="stop-color:#F89932"/>
	<stop  offset="0.5072" style="stop-color:#F28C2B"/>
	<stop  offset="1" style="stop-color:#EB7B22"/>
</linearGradient>
<circle fill="url(#SVGID_1_)" cx="480" cy="480" r="29.9"/>
<circle fill="#FFFFFF" cx="479.8" cy="480.2" r="11.6"/>
<path fill="#FFFFFF" d="M479.8,465.2c3.6,0,6.8,1.3,9.4,3.4l4.4-4.6c-3.7-3.2-8.6-5.1-13.8-5.1l0,0c-11.7-0.1-21.2,9.5-21.2,21.2
	c0,11.8,9.6,21.2,21.2,21.2c5.1,0,9.7-1.8,13.4-4.7l-4.6-4.5c-2.5,1.8-5.5,2.8-8.7,2.8c-8.3,0-14.9-6.7-14.9-14.9
	C465,471.8,471.6,465.2,479.8,465.2 M495.7,494.3c3.4-3.7,5.4-8.7,5.4-14.1c0-5-1.7-9.7-4.7-13.3l-4.6,4.3c1.9,2.6,3,5.6,3,9
	c0,3.7-1.4,7.1-3.6,9.7L495.7,494.3z"/>
</svg>
