<?xml version="1.0" encoding="utf-8"?>
<!-- Generator: Adobe Illustrator 18.0.0, SVG Export Plug-In . SVG Version: 6.00 Build 0)  -->
<!DOCTYPE svg PUBLIC "-//W3C//DTD SVG 1.1//EN" "http://www.w3.org/Graphics/SVG/1.1/DTD/svg11.dtd">
<svg version="1.1" id="Layer_1" xmlns="http://www.w3.org/2000/svg" xmlns:xlink="http://www.w3.org/1999/xlink" x="0px" y="0px"
	 viewBox="0 0 60 60" enable-background="new 0 0 60 60" xml:space="preserve">
<linearGradient id="SVGID_1_" gradientUnits="userSpaceOnUse" x1="242.2902" y1="561.6049" x2="242.2902" y2="-101.0206" gradientTransform="matrix(9.028500e-02 0 0 9.028500e-02 8.1248 9.2081)">
	<stop  offset="0" style="stop-color:#4FB5B4"/>
	<stop  offset="1" style="stop-color:#69C9CA"/>
</linearGradient>
<path fill="url(#SVGID_1_)" d="M59.9,49.9c0,5.5-4.5,10-10,10H10.1c-5.5,0-10-4.5-10-10V10.1c0-5.5,4.5-10,10-10h39.9
	c5.5,0,10,4.5,10,10V49.9z"/>
<g>
	<path fill="#FFFFFF" d="M42,14.8h-6c-0.3,0-0.5,0.2-0.5,0.5c-0.1,1-0.3,1.9-0.6,2.8l-0.1,0.2c-0.1,0.2-0.1,0.3-0.2,0.5l-0.1,0.1
		c0,0.1-0.1,0.1-0.1,0.2c0,0.1-0.1,0.2-0.1,0.2l-0.1,0.2c-0.1,0.1-0.1,0.2-0.2,0.4c0,0,0,0.1-0.1,0.1L33.8,20
		c-0.1,0.2-0.3,0.4-0.4,0.6c0,0,0,0,0,0.1c-0.1,0.2-0.3,0.3-0.5,0.5c-0.1,0.1-0.2,0.2-0.3,0.2l0,0c-0.1,0.1-0.2,0.2-0.3,0.2
		c-0.1,0.1-0.2,0.2-0.3,0.3c-0.2,0.1-0.4,0.3-0.6,0.4l-0.1,0.1c-0.2,0.1-0.4,0.3-0.6,0.4c-0.1,0-0.1,0.1-0.2,0.1l-0.1,0
		c-0.1,0.1-0.3,0.1-0.5,0.2c-0.1,0-0.2,0.1-0.3,0.1l0,0c-0.2,0.1-0.3,0.1-0.4,0.2l-0.4,0.1c-0.1,0-0.3,0.1-0.4,0.1
		c-0.1,0-0.3,0.1-0.4,0.1c-0.1,0-0.1,0-0.2,0c0,0,0,0-0.1,0l0.2-1.4c0.3-2.2-0.1-3.5-0.9-4.9c-0.6-0.9-1.5-1.7-2.5-2.2
		c-0.6-0.3-1.2-0.4-1.7-0.5c0,0,0,0,0,0c-0.4-0.1-0.8-0.1-1.1-0.1c0,0,0,0,0,0c-0.1,0-0.1,0-0.2,0c0,0,0,0,0,0c-0.2,0-0.4,0-0.5,0.1
		c-0.1,0-0.2,0.1-0.3,0.2c-0.2,0.2-0.2,0.7-0.1,1.2c0,0.2,0.1,0.5,0.1,0.6c0,0.6-0.2,2.8-0.3,3.3l-0.4,2.4c0,0,0,0.1,0,0.1
		c-0.1,0.6-0.2,1.2-0.3,1.8c-0.1,0.3-0.1,0.6-0.2,0.9c-0.4,2.3-0.8,4.7-1.3,7.3c-0.2,1-0.4,2.1-0.6,3.2c0,0,0,0,0.1,0l-0.2,1.4
		c-0.3,2.2,0.1,3.5,0.9,4.9c0.6,0.9,1.5,1.7,2.5,2.2c0.6,0.3,1.2,0.4,1.7,0.5c0,0,0,0,0,0c0.4,0.1,0.8,0.1,1.1,0.1c0,0,0,0,0.1,0
		c0.1,0,0.1,0,0.2,0c0,0,0,0,0,0c0.2,0,0.4,0,0.5-0.1c0.1,0,0.2-0.1,0.3-0.2c0.2-0.2,0.2-0.7,0.1-1.2c0-0.2-0.1-0.4-0.1-0.6
		c0-0.6,0.2-2.8,0.3-3.3l0.4-2.4l0.6-3.6c0.5,1.4,1.1,2.8,2,4l0.1,0.1c0.1,0.1,0.2,0.3,0.3,0.5c0,0,0,0,0,0c0,0,0,0,0,0c0,0,0,0,0,0
		l0.2,0.3c0.1,0.1,0.2,0.2,0.2,0.3c0,0,0,0,0,0l0,0c0.2,0.2,0.3,0.4,0.5,0.6c0.1,0.1,0.1,0.1,0.2,0.2l0.1,0.1
		c0.1,0.1,0.2,0.2,0.3,0.3c0.1,0.1,0.2,0.2,0.3,0.3c0.1,0.1,0.2,0.2,0.3,0.3c0.1,0.1,0.2,0.2,0.3,0.3c0.1,0.1,0.2,0.2,0.3,0.2
		c0.1,0.1,0.2,0.2,0.4,0.3c0.1,0.1,0.2,0.2,0.3,0.2l0.1,0.1c0.1,0.1,0.2,0.1,0.3,0.2c0.2,0.1,0.3,0.2,0.5,0.3l0.2,0.1
		c0.7,0.4,1.4,0.8,2.1,1.1c0.9,0.4,1.8,0.7,2.7,0.9c1.1,0.2,2.1,0.4,3.2,0.4c0,0,0.1,0,0.1,0h0.3c0.3,0,0.5-0.2,0.5-0.5v-5.9
		c0-0.3-0.2-0.5-0.5-0.5c-0.8,0-1.6-0.1-2.4-0.3c0,0-0.1,0-0.1,0l-0.2,0c-0.1,0-0.2-0.1-0.3-0.1c0,0,0,0,0,0c0,0,0,0,0,0
		c-0.3-0.1-0.5-0.2-0.8-0.3L37.4,37c-0.2-0.1-0.4-0.2-0.7-0.4c-0.1,0-0.1-0.1-0.2-0.1c-0.2-0.1-0.4-0.2-0.6-0.4c0,0,0,0-0.1,0
		L35.8,36c0,0,0,0,0,0c0,0-0.1,0-0.1-0.1c-0.2-0.1-0.4-0.3-0.6-0.5L35,35.3c-0.2-0.2-0.5-0.5-0.7-0.7c-0.2-0.3-0.4-0.5-0.6-0.8
		l0-0.1c-0.2-0.2-0.3-0.5-0.4-0.7c-0.1-0.1-0.1-0.2-0.2-0.3L33,32.4l0,0c0-0.1-0.1-0.1-0.1-0.2c-0.1-0.2-0.2-0.4-0.2-0.7l0-0.1
		c0,0,0,0,0-0.1c-0.1-0.3-0.2-0.5-0.2-0.9c0-0.1,0-0.3-0.1-0.4l0-0.2c0-0.1,0-0.1,0-0.2c0.2-0.1,0.4-0.2,0.7-0.3l0.1,0
		c0.4-0.2,0.7-0.4,1.1-0.6l0.2-0.1c0.4-0.2,0.7-0.4,1-0.6c0.1,0,0.1-0.1,0.2-0.1l0.1-0.1c0.2-0.1,0.4-0.3,0.6-0.5l0.2-0.1
		c0,0,0.1-0.1,0.1-0.1c1.4-1.2,2.6-2.5,3.6-4.1c0.1-0.2,0.2-0.3,0.3-0.5l0.1-0.2c0.1-0.1,0.1-0.2,0.2-0.3c0.1-0.2,0.2-0.3,0.2-0.4
		l0.1-0.2c0.4-0.8,0.7-1.6,0.9-2.4c0.1-0.4,0.2-0.7,0.3-1.1c0.1-0.6,0.2-1.2,0.3-1.8c0-0.3,0-0.5,0-0.8c0-0.1,0-0.3-0.1-0.4
		C42.2,14.8,42.1,14.8,42,14.8z"/>
</g>
</svg>
