<?xml version="1.0" encoding="utf-8"?>
<!-- Generator: Adobe Illustrator 17.1.0, SVG Export Plug-In . SVG Version: 6.00 Build 0)  -->
<!DOCTYPE svg PUBLIC "-//W3C//DTD SVG 1.1//EN" "http://www.w3.org/Graphics/SVG/1.1/DTD/svg11.dtd">
<svg version="1.1" id="Icon" xmlns="http://www.w3.org/2000/svg" xmlns:xlink="http://www.w3.org/1999/xlink" x="0px" y="0px"
	 viewBox="450 450 60 60" enable-background="new 450 450 60 60" xml:space="preserve">
<linearGradient id="SVGID_1_" gradientUnits="userSpaceOnUse" x1="480" y1="510" x2="480" y2="450">
	<stop  offset="0" style="stop-color:#EEC43F"/>
	<stop  offset="1" style="stop-color:#F5CE51"/>
</linearGradient>
<rect x="450" y="450" fill="url(#SVGID_1_)" width="60" height="60"/>
<g>
	<path fill="#FFFFFF" d="M458.2,491.8c0.1-0.9,0.3-1.8,0.7-2.4c0.4-0.7,0.9-1.2,1.5-1.6c0.7-0.4,1.5-0.6,2.7-0.6
		c1.2,0,2,0.2,2.7,0.6c0.7,0.4,1.2,0.9,1.5,1.6c0.4,0.7,0.6,1.5,0.7,2.4c0.1,0.9,0.2,2,0.2,3.1s-0.1,2.2-0.2,3.1s-0.3,1.7-0.7,2.4
		c-0.4,0.7-0.9,1.2-1.5,1.5c-0.7,0.4-1.5,0.5-2.7,0.5c-1.2,0-2-0.2-2.7-0.5c-0.7-0.3-1.2-0.9-1.5-1.5c-0.4-0.7-0.6-1.5-0.7-2.4
		c-0.1-0.9-0.2-2-0.2-3.1C458.1,493.8,458.1,492.7,458.2,491.8z M461.1,497.4c0,0.7,0.1,1.3,0.3,1.7c0.2,0.4,0.4,0.7,0.6,0.9
		c0.3,0.2,0.6,0.3,1.1,0.3c0.4,0,0.8-0.1,1.1-0.3c0.3-0.2,0.5-0.5,0.6-0.9c0.1-0.4,0.2-1,0.3-1.7c0-0.7,0.1-1.5,0.1-2.5
		s0-1.8-0.1-2.5c0-0.7-0.1-1.3-0.3-1.7c-0.1-0.4-0.4-0.8-0.6-1c-0.3-0.2-0.6-0.3-1.1-0.3c-0.4,0-0.8,0.1-1.1,0.3
		c-0.3,0.2-0.5,0.5-0.6,1c-0.1,0.4-0.2,1-0.3,1.7c0,0.7-0.1,1.5-0.1,2.5C461.1,495.9,461.1,496.7,461.1,497.4z"/>
	<path fill="#FFFFFF" d="M475.9,487.5c0.8,0,1.4,0.1,1.9,0.4c0.5,0.3,0.9,0.6,1.2,1s0.5,0.9,0.7,1.4c0.1,0.5,0.2,1.1,0.2,1.6
		c0,0.8-0.1,1.4-0.3,2c-0.2,0.6-0.5,1-0.9,1.4c-0.4,0.4-0.9,0.6-1.5,0.8c-0.6,0.2-1.2,0.3-1.9,0.3h-1.6v5.9h-3v-14.8H475.9z
		 M475,494.2c0.6,0,1.1-0.2,1.4-0.5c0.4-0.4,0.5-0.9,0.5-1.7c0-0.7-0.2-1.3-0.5-1.7c-0.3-0.4-0.8-0.6-1.6-0.6h-1.2v4.5H475z"/>
	<path fill="#FFFFFF" d="M489.6,489.9h-5.3v3.5h5v2.4h-5v4h5.5v2.4h-8.4v-14.7h8.2V489.9L489.6,489.9z"/>
	<path fill="#FFFFFF" d="M499.2,497.6L499.2,497.6v-10.1h2.7v14.7h-3.4l-3.6-10.3l0,0v10.3h-2.7v-14.7h3.4L499.2,497.6z"/>
</g>
</svg>
