<?xml version="1.0" encoding="utf-8"?>
<!-- Generator: Adobe Illustrator 17.1.0, SVG Export Plug-In . SVG Version: 6.00 Build 0)  -->
<!DOCTYPE svg PUBLIC "-//W3C//DTD SVG 1.1//EN" "http://www.w3.org/Graphics/SVG/1.1/DTD/svg11.dtd">
<svg version="1.1" id="icon" xmlns="http://www.w3.org/2000/svg" xmlns:xlink="http://www.w3.org/1999/xlink" x="0px" y="0px"
	 viewBox="440 440 80 80" enable-background="new 440 440 80 80" xml:space="preserve">
<circle cx="471" cy="465.8" r="4"/>
<circle cx="502.5" cy="465.8" r="4"/>
<path d="M444.5,499.1c1.1-0.7,2-2.4,2.1-3.4l0,0c0.1,2.1,2.1,4.3,4.5,4.3s4.4-2.2,4.5-4.3l0,0c0.1,2.1,2.1,4.3,4.5,4.3
	c2.4,0,4.6-2.2,4.7-4.3l0,0c0.1,2.1,2.1,4.3,4.5,4.3c2.4,0,4.4-2.2,4.5-4.3l0,0c0.1,2.1,2.1,4.3,4.5,4.3c2.4,0,4.4-2.2,4.5-4.3l0,0
	c0.1,2.1,2.1,4.3,4.5,4.3c2.4,0,4.4-2.2,4.5-4.3l0,0c0.1,2.1,2.1,4.3,4.5,4.3c2.4,0,4.4-2.2,4.5-4.3l0,0c0.1,2.1,2.1,4.3,4.5,4.3
	c2.4,0,4.4-2.2,4.5-4.3l0,0c0.1,2.1,2.1,4.2,4.5,4.2c0.3,0,0.5-0.1,0.8-0.1c1.7-1.2,2.8-2.4,3.6-3.7c0-0.1,0-0.3,0.1-0.3h0.2
	c4.4-8.3-4.3-15.4-4.3-15.4c-1.1,3.4-10.6,7-10.6,7c-2.6-3.7-6.2-6.3-6.2-6.3c-0.2-1.6,0.6-2.9,0.6-2.9c5.3,3,9.4-2.3,10.7-3
	c1.2-0.7,2-2,1.1-3.4c-0.8-1.3-2.2-0.1-2.2-0.1l-3.9,3.4c-2.5-3.4-8.1-5.2-8.1-5.2s-9.3,5.2-11.4,16.2v1.5h-11.7
	c-2.6-4.2-6.2-6.4-6.2-6.4c-0.2-1.6,0.6-3.1,0.6-3.1c5.3,3,9.4-2.2,10.7-2.9c1.2-0.7,2-2,1.1-3.3c-0.8-1.3-2.2-0.1-2.2-0.1l-4.4,3.5
	c-2.5-3.4-7.9-5.1-7.9-5.1s-9.3,5.4-11.3,16.4c0,0-5.6-2.4-7.9-5.6C445.1,480.8,434.2,490.3,444.5,499.1z M495.8,483.7
	c3.6,1.1,5.2,3.7,5.2,3.7h-1.3h-5.3C493.8,485.3,495.8,483.7,495.8,483.7z M464.2,483.7c3.6,1.1,5.2,3.7,5.2,3.7h-1.3h-5.3
	C462.2,485.3,464.2,483.7,464.2,483.7z"/>
</svg>
