<?xml version="1.0" encoding="utf-8"?>
<!-- Generator: Adobe Illustrator 18.0.0, SVG Export Plug-In . SVG Version: 6.00 Build 0)  -->
<!DOCTYPE svg PUBLIC "-//W3C//DTD SVG 1.1//EN" "http://www.w3.org/Graphics/SVG/1.1/DTD/svg11.dtd">
<svg version="1.1" id="Layer_1" xmlns="http://www.w3.org/2000/svg" xmlns:xlink="http://www.w3.org/1999/xlink" x="0px" y="0px"
	 viewBox="0 0 167 27" enable-background="new 0 0 167 27" xml:space="preserve">
<g>
	<g>
		<path fill="#FFFFFF" d="M77,10.7h4l1.6,6l1.8-6h3.4l1.8,6l1.6-6h4l-3.7,11.9H88l-1.9-6.2l-2,6.2h-3.5L77,10.7z"/>
		<path fill="#FFFFFF" d="M96,10.7h4.1v11.8H96V10.7z"/>
		<path fill="#FFFFFF" d="M102.9,18.8V14h-1.7v-3.3h1.7v-2l4.1-1v3h2.8V14H107v4c0,1.1,0.2,1.2,1.1,1.2c0.5,0,0.8,0,1.3,0l0,3.4
			c0,0-1.5,0.2-2.7,0.2C104.3,22.8,102.9,21.7,102.9,18.8z"/>
		<path fill="#FFFFFF" d="M109.9,16.6L109.9,16.6c0-3.4,2.6-6.2,6.3-6.2c2.4,0,4,1.1,5.1,2.6l-2.8,2.1c-0.6-0.8-1.2-1.2-2.2-1.2
			c-1.4,0-2.6,1.2-2.6,2.6v0c0,1.5,1.2,2.7,2.6,2.7c1,0,1.6-0.5,2.3-1.2l2.8,2c-1.1,1.6-2.7,2.7-5.3,2.7
			C112.5,22.8,109.9,20,109.9,16.6z"/>
		<path fill="#FFFFFF" d="M121.9,6.5h4.2v5c0.7-0.8,2-1.2,3.5-1.2c2.5,0.1,4,1.7,4,4.4v7.7h-4.1v-6.3c0-1.3-0.7-2-1.7-2
			c-1,0-1.8,0.7-1.8,2v6.3h-4.2V6.5z"/>
		<path fill="#FFFFFF" d="M100.3,8.2c0.4-1.7-1.1-3.2-2.8-2.8c-0.8,0.2-1.4,0.8-1.6,1.6c-0.4,1.7,1.1,3.2,2.8,2.8
			C99.5,9.6,100.1,9,100.3,8.2z"/>
		<path fill="#FFFFFF" d="M64.3,20.2l2.4-2.9c1.6,1.2,3.3,1.9,5.1,1.9c1.2,0,1.8-0.4,1.8-1.1v0c0-0.7-0.5-1-2.7-1.5
			c-3.3-0.8-5.9-1.7-5.9-4.9v0c0-2.9,2.3-5,6.1-5c2.7,0,4.7,0.7,6.4,2.1l-2.2,3.1c-1.4-1-3-1.5-4.4-1.5c-1,0-1.6,0.4-1.6,1v0
			c0,0.7,0.5,1,2.7,1.5c3.6,0.8,5.8,1.9,5.8,4.9v0c0,3.2-2.5,5.1-6.3,5.1C68.9,22.8,66.3,21.9,64.3,20.2z"/>
	</g>
	<path fill="#FFFFFF" d="M47.4,1.1c-7.2,0-12.9,5.8-12.9,12.9S40.2,27,47.4,27s12.9-5.8,12.9-12.9S54.5,1.1,47.4,1.1z M52.3,17.7
		c0,1.8-1.4,3.2-3.1,3.3h-6.7v-0.2c0-1.8,1.4-3.2,3.1-3.3h6.7V17.7z M52.3,15.8h-6.7c-1.7-0.1-3.1-1.6-3.1-3.3v-0.2h6.7
		c1.7,0.1,3.1,1.6,3.1,3.3V15.8z M52.3,7.3c0,1.8-1.4,3.2-3.1,3.3h-6.7v-0.2c0-1.8,1.4-3.2,3.1-3.3h6.7V7.3z"/>
</g>
</svg>
