<?xml version="1.0" encoding="utf-8"?>
<!-- Generator: Adobe Illustrator 18.0.0, SVG Export Plug-In . SVG Version: 6.00 Build 0)  -->
<!DOCTYPE svg PUBLIC "-//W3C//DTD SVG 1.1//EN" "http://www.w3.org/Graphics/SVG/1.1/DTD/svg11.dtd">
<svg version="1.1" id="Layer_1" xmlns="http://www.w3.org/2000/svg" xmlns:xlink="http://www.w3.org/1999/xlink" x="0px" y="0px"
	 viewBox="0 0 167 60" enable-background="new 0 0 167 60" xml:space="preserve">
<g>
	<g>
		<path fill="#FFFFFF" d="M72.1,23.5h6.4l2.5,9.4l2.9-9.5h5.4l2.9,9.6l2.5-9.5h6.4l-5.8,18.9h-5.7l-3.1-9.8l-3.1,9.8h-5.6L72.1,23.5
			z"/>
		<path fill="#FFFFFF" d="M102.3,23.5h6.6v18.8h-6.6V23.5z"/>
		<path fill="#FFFFFF" d="M113.2,36.4v-7.7h-2.7v-5.3h2.7v-3.2l6.6-1.6v4.8h4.4v5.3h-4.4v6.4c0,1.7,0.4,1.9,1.8,1.9
			c0.8,0,1.3,0,2.1,0l0,5.4c0,0-2.4,0.2-4.2,0.2C115.5,42.6,113.2,40.9,113.2,36.4z"/>
		<path fill="#FFFFFF" d="M124.3,32.9L124.3,32.9c0-5.4,4.1-9.9,10-9.9c3.9,0,6.4,1.7,8,4.2l-4.4,3.3c-0.9-1.2-1.9-2-3.5-2
			c-2.2,0-4.1,1.9-4.1,4.2v0.1c0,2.4,1.9,4.3,4.2,4.3c1.6,0,2.6-0.7,3.6-1.9l4.4,3.2c-1.7,2.6-4.2,4.3-8.3,4.3
			C128.4,42.7,124.3,38.3,124.3,32.9z"/>
		<path fill="#FFFFFF" d="M143.4,16.9h6.6v8c1.1-1.3,3.2-1.9,5.6-1.8c4,0.1,6.4,2.6,6.4,6.9v12.3h-6.6v-9.9c0-2.1-1.1-3.2-2.7-3.2
			c-1.6,0-2.8,1.1-2.8,3.2v9.9h-6.6V16.9z"/>
		<path fill="#FFFFFF" d="M108.5,20.8c2.3-3.6-1.5-7.5-5.2-5.2c-0.3,0.2-0.5,0.4-0.7,0.7c-2.3,3.6,1.5,7.5,5.2,5.2
			C108.1,21.3,108.4,21.1,108.5,20.8z"/>
		<path fill="#FFFFFF" d="M52,38.6l3.8-4.6c2.5,1.9,5.2,3,8,3c1.9,0,2.9-0.6,2.9-1.7v-0.1c0-1.1-0.8-1.6-4.2-2.4
			c-5.3-1.2-9.4-2.7-9.4-7.8v-0.1c0-4.6,3.7-7.9,9.6-7.9c4.2,0,7.5,1.1,10.2,3.3l-3.4,4.9c-2.3-1.6-4.7-2.4-6.9-2.4
			c-1.7,0-2.5,0.7-2.5,1.6v0.1c0,1.1,0.9,1.6,4.3,2.4c5.7,1.2,9.2,3.1,9.2,7.7v0.1c0,5.1-4,8.1-10,8.1C59.2,42.7,55.1,41.3,52,38.6z
			"/>
	</g>
	<path fill="#FFFFFF" d="M25.1,8.3c-11.4,0-20.6,9.2-20.6,20.6s9.2,20.6,20.6,20.6s20.6-9.2,20.6-20.6S36.5,8.3,25.1,8.3z
		 M32.9,34.6c0,2.8-2.2,5.1-4.9,5.3H17.3v-0.4c0-2.8,2.2-5.1,4.9-5.3h10.6V34.6z M32.9,31.7H22.3c-2.8-0.2-4.9-2.5-4.9-5.3V26H28
		c2.8,0.2,4.9,2.5,4.9,5.3V31.7z M32.9,18.1c0,2.8-2.2,5.1-4.9,5.3H17.3V23c0-2.8,2.2-5.1,4.9-5.3h10.6V18.1z"/>
</g>
</svg>
