<?xml version="1.0" encoding="utf-8"?>
<!-- Generator: Adobe Illustrator 18.0.0, SVG Export Plug-In . SVG Version: 6.00 Build 0)  -->
<!DOCTYPE svg PUBLIC "-//W3C//DTD SVG 1.1//EN" "http://www.w3.org/Graphics/SVG/1.1/DTD/svg11.dtd">
<svg version="1.1" id="Layer_1" xmlns="http://www.w3.org/2000/svg" xmlns:xlink="http://www.w3.org/1999/xlink" x="0px" y="0px"
	 viewBox="0 0 150 75" enable-background="new 0 0 150 75" xml:space="preserve">
<g>
	<path id="XMLID_51_" fill-rule="evenodd" clip-rule="evenodd" fill="#AC1F2D" d="M96.6,11.4C77.2,8.5,49.2,26.1,45.7,31.9
		c-10.6,17.5,8.9,29.2,26.1,27c18.8-2.4,54.4-23.3,29.2-35.7c-7.3-3.6-18.6-0.9-24.7,3.7c-6,4.5-10,18.5,1.5,12.4
		c-8.2-8.4,18-15.9,16.1-2.3c-1.3,8.9-19.8,12.6-26,11.8c-11.5-1.5-12.8-10.9-5.5-18.4c7.7-8,20-13.3,30.9-14.4
		c27-2.5,38.2,20.5,16.2,37.5C92.9,66.4,65.6,74,45.4,65.5c-27.5-11.6-7.9-39.3,8.8-49.1C66.8,9.1,81.7,4.8,96.1,3.9
		C113.7,2.9,113.3,14.2,96.6,11.4"/>
	<g>
		<g>
			<g opacity="0.2">
				<path fill="#231F20" d="M117.6,23.7c0.3,0,0.5,0,0.7,0.1c0.1,0,1.9,18.8,2.3,24.3c0.4-1.4,1.2-3.3,1.4-3.3c0,0,0,0,0,0
					c0.6,0.2,2.8,1.7,5,1.7c0.9,0,1.4-0.3,1.4-0.7c0-0.4-0.3-0.8-2.3-1.1c-3.8-0.7-5.5-2.4-5.5-5.3c0-4,2.5-6.2,7-6.2
					c3.2,0,6.4,1.1,6.8,1.4c0.3,0.3-1.4,4.7-1.7,4.8c0,0,0,0,0,0c-0.2,0-2.6-1.2-4.4-1.2c-0.8,0-1.2,0.4-1.2,0.8
					c0,0.4,0.4,0.7,1.9,0.9c4.3,0.6,6,2,6,5.4c0,3.1-2,6.1-7.2,6.1c-3.5,0-6.9-1.2-7.4-1.6c-0.8,0.2-3,0.6-4.7,0.6
					c-0.5,0-0.9,0-1.2-0.1l-0.3-1.6c0,0-1.9,1.9-4.9,2.2c-0.2,0-0.5,0-0.7,0c-3.5,0-7.1-2.7-7.7-8.1c-0.6-5.7,3.4-8.8,7.1-9.2
					c0.2,0,0.4,0,0.6,0c1.9,0,3.6,1,3.6,1s-1.2-9.7-0.9-10C111.5,24.4,115.8,23.7,117.6,23.7 M110.6,44.6c0.1,0,0.2,0,0.3,0
					c1.8-0.2,2.5-1.5,2.3-2.9c-0.2-1.4-1.3-2.4-2.6-2.4c-0.1,0-0.2,0-0.3,0c-1.7,0.2-2.3,1.4-2.2,2.9
					C108.3,43.6,109.3,44.6,110.6,44.6 M97.3,24.4c0.2,0,0.3,0,0.5,0c2.1,0.2,3.5,1.7,3.3,4.2c-0.1,1.6-1.5,2.8-3.5,2.8
					c-0.1,0-0.2,0-0.4,0c-2.1-0.2-3.4-1.4-3.2-3.6C94.3,25.8,94.9,24.4,97.3,24.4 M38,24.4c1.9,0,3.4,1.3,3.5,3.6
					c0.1,1.7-1.2,3.2-3.3,3.4c-0.1,0-0.3,0-0.4,0c-1.8,0-3.1-1-3.3-3.1c-0.2-2.1,0.3-3.7,3.2-3.9C37.7,24.4,37.9,24.4,38,24.4
					 M52.1,24.7c3.2,0,5.2,1.2,5.9,1.8c-0.1,1-1.1,4.8-1.4,4.9c0,0,0,0-0.1,0c-0.5,0-1.5-0.6-2.4-0.6c-1.4,0-1.7,1.1-1.8,1.9
					c0,0.3,0,0.5,0,0.6c0.3,0.1,3.9-0.1,4.1,0.4c0,0,0.1,1.5,0.1,2.9c1.3-1.8,3.3-3,6.1-3.3c0.3,0,0.5,0,0.8,0c4.4,0,7.1,3.3,7.5,7
					c0.1,1.1,0.1,2.1-0.1,2.8c-1.8,0.4-7.5,0.9-9.3,1c0.1,1.1,0.8,1.8,2.5,1.8c0.2,0,0.4,0,0.7,0c1.6-0.1,2.8-0.8,3.6-1.3
					c0.5,0.4,2.4,3.7,2.4,4.3c-0.9,0.9-3.2,2.1-5.9,2.4c-0.4,0-0.8,0.1-1.2,0.1c-5.9,0-8.3-3.9-8.7-8c-0.1-1.6,0.1-3.1,0.6-4.5
					c-0.9,0.1-2.2,0.1-2.7,0.1c-0.2,0-0.3,0-0.3,0l0,0c-0.1,0,0.5,11.8,0.3,12c-0.1,0.1-3.1,0.3-5.1,0.3c-1,0-1.7,0-1.8-0.1
					c-0.3-0.3-0.2-11.7-0.2-12c-0.3,0-2.5,0-2.6-0.1c-0.1-0.1-0.5-4.5-0.3-4.8c0.2-0.2,3.1-0.5,3.1-0.5c0,0-0.1-1.5-0.1-3
					C45.7,27.7,47.8,24.7,52.1,24.7 M61.1,40.2l3.8-0.4c-0.1-1.1-0.7-2.1-1.7-2.1c0,0-0.1,0-0.2,0C61.8,37.8,61,38.8,61.1,40.2
					 M23.8,26.3c1.1,0,2,0,2,0.1c0.1,1.4,0.1,15-0.1,17.5c1.6-0.1,3.6-0.1,5.4-0.1c1.5,0,2.8,0,3.4,0.1c0.2,1.5,0.4,5.9,0.1,6.6
					c0,0.1-2.5,0.1-5.5,0.1c-4.4,0-10-0.1-10.9-0.2C18,48.2,18,27,18.3,26.6C18.4,26.4,21.6,26.3,23.8,26.3 M75.4,26.4
					c2,0,4.1,0.1,4.3,0.2c0.2,0.1-0.2,9.2-0.2,9.2s6.6-9.3,7-9.3c0.3,0,6.4,1.7,6.4,2.2c0,0.5-5.9,8.9-5.9,8.9
					c1.2,1.8,4.2,7.3,5.5,10.1c0.3-4.8,0.9-14.2,1.1-14.5C93.7,33,94,33,94.4,33c1.8,0,6,0.5,6.1,0.6c0.1,0.1-1.6,16.9-1.8,17.1
					c0,0-0.2,0.1-0.5,0.1c-1.5,0-5.8-0.4-5.8-0.5c0,0,0-0.3,0-0.7c-1.5,0.6-4.7,1.7-6,1.7c-0.1,0-0.2,0-0.3,0
					c-0.3,0-4.1-7.5-4.6-8.5c-0.3,0.4-1.9,2.4-1.9,2.4l0.1,5.6c-0.5,0.1-3.3,0.2-5.3,0.2c-1.1,0-2,0-2.1-0.1
					c-0.3-0.2-0.9-23.6-0.3-24.1C72.2,26.5,73.7,26.4,75.4,26.4 M41.2,33c0.3,0,0.4,0,0.5,0c0.1,0.1,1.2,16.9,1.1,17.2
					c-0.1,0.2-5.1,0.6-6.1,0.6c-0.1,0-0.2,0-0.2,0c-0.1-0.1-1.8-16.8-1.6-17.2C35.1,33.3,39.7,33,41.2,33 M117.6,18.9
					c-1.4,0-3.4,0.3-4.5,0.4c-2.9,0.5-3.9,0.8-4.9,1.6c-2.1,1.7-1.9,4-1.8,5.7c0,0.6,0.1,1.4,0.2,2.3c-0.3,0-0.5,0.1-0.8,0.2
					c0-0.1,0-0.1,0-0.2c0.2-2.4-0.4-4.6-1.8-6.3c-1.4-1.7-3.5-2.8-5.9-3c-0.3,0-0.6,0-0.9,0c-3.3,0-5.2,1.5-6.2,2.8
					c-0.1,0.1-0.2,0.2-0.3,0.4c-3.3-1-4-1-4.4-1c-1.5,0-2.6,0.6-3.4,1.5c-0.5-0.5-1-0.8-1.5-1c-0.6-0.2-1.3-0.6-6.2-0.6h0
					c-3,0-5.2,0.1-6.7,1.7c-1.4,1.4-1.5,2.9-1.6,5.5c-1.1-0.3-2.3-0.5-3.6-0.5c-0.3,0-0.6,0-1,0c0.1-0.5,0.2-0.9,0.2-1.3
					c0.2-1.7-0.4-3.3-1.7-4.4c-0.8-0.7-3.9-2.8-8.9-2.8c-2.9,0-5.6,1-7.6,2.8c-1.5-1.9-3.8-3-6.4-3c-0.3,0-0.5,0-0.8,0
					c-3.6,0.3-6,2.1-7,4.9c-0.5-1.2-1.7-2.9-4.7-3c-0.4,0-1,0-1.7,0l0,0h0c-1.1,0-2.6,0-3.8,0.1c-2.1,0.1-4.2,0.2-5.6,2.2
					c-1,1.4-1,2.3-1.1,6.3c0,2-0.1,4.7-0.1,7.7c0,1.1,0,11.1,0.2,13.1c0.2,2.2,1.9,4,4.1,4.3c1.8,0.2,11.4,0.3,11.5,0.3
					c1.6,0,3,0,4,0c0.6,0,1,0,1.4-0.1c0.1,0,0.3,0,0.4,0c0.5,0.2,1.1,0.3,1.8,0.3c0.8,0,2.5-0.1,3.8-0.2c0.8-0.1,1.5-0.1,2.1-0.2
					c0.3,0,0.7-0.1,1.1-0.2c1.3,0.7,2.7,0.7,4.1,0.7c6.2,0,7.3-0.5,8.5-1.7c0,0,0,0,0.1-0.1c2.1,1.2,4.5,1.9,7.3,1.9
					c0.5,0,1.1,0,1.6-0.1c1.5-0.1,3-0.5,4.4-1c1.4,1,2.8,1,4.8,1c0.8,0,5,0,6.4-0.3c0.7-0.2,1.3-0.5,1.8-0.9
					c0.7,0.7,1.5,1.3,2.8,1.5c0.3,0,0.6,0.1,1,0.1c1.5,0,3.5-0.5,5.2-1.1c0.4,0.1,0.7,0.1,1,0.2c0.5,0.1,1.1,0.1,1.8,0.2
					c1,0.1,2.8,0.2,3.9,0.2c1.8,0,3.1-0.6,4.1-1.7c1.9,1.2,4,1.8,6.2,1.8c0.4,0,0.8,0,1.3-0.1c1.2-0.1,2.3-0.4,3.3-0.8
					c0,0,0.1,0,0.1,0c0.7,0.2,1.5,0.3,2.5,0.3c1.4,0,3-0.2,4.1-0.4c2.2,0.8,5.3,1.4,7.9,1.4c4.6,0,7.4-1.8,8.9-3.3
					c2-2,3.1-4.7,3.1-7.6c0-2.4-0.6-4.4-1.7-6c0.2-0.4,0.3-0.8,0.4-1.2c0.5-1.5,1.6-4.6-0.7-6.9l0,0c-2.4-2.4-8.6-2.8-10.2-2.8
					c-1.5,0-2.8,0.2-3.9,0.5c-0.1-0.9-0.2-1.8-0.2-2.5c-0.1-0.9-0.2-1.7-0.2-2.3c0-0.3-0.1-0.5-0.1-0.7c-0.3-2.6-2.1-3.7-3.1-4.1
					l0,0C119.2,19,118.5,18.9,117.6,18.9L117.6,18.9z"/>
			</g>
			<path fill="#412461" d="M117.6,22.7c0.3,0,0.5,0,0.7,0.1c0.1,0,1.9,18.8,2.3,24.3c0.4-1.4,1.2-3.3,1.4-3.3c0,0,0,0,0,0
				c0.6,0.2,2.8,1.7,5,1.7c0.9,0,1.4-0.3,1.4-0.7c0-0.4-0.3-0.8-2.3-1.1c-3.8-0.7-5.5-2.4-5.5-5.3c0-4,2.5-6.2,7-6.2
				c3.2,0,6.4,1.1,6.8,1.4c0.3,0.3-1.4,4.7-1.7,4.8c0,0,0,0,0,0c-0.2,0-2.6-1.2-4.4-1.2c-0.8,0-1.2,0.4-1.2,0.8
				c0,0.4,0.4,0.7,1.9,0.9c4.3,0.6,6,2,6,5.4c0,3.1-2,6.1-7.2,6.1c-3.5,0-6.9-1.2-7.4-1.6c-0.8,0.2-3,0.6-4.7,0.6
				c-0.5,0-0.9,0-1.2-0.1l-0.3-1.6c0,0-1.9,1.9-4.9,2.2c-0.2,0-0.5,0-0.7,0c-3.5,0-7.1-2.7-7.7-8.1c-0.6-5.7,3.4-8.8,7.1-9.2
				c0.2,0,0.4,0,0.6,0c1.9,0,3.6,1,3.6,1s-1.2-9.7-0.9-10C111.5,23.4,115.8,22.7,117.6,22.7 M110.6,43.6c0.1,0,0.2,0,0.3,0
				c1.8-0.2,2.5-1.5,2.3-2.9c-0.2-1.4-1.3-2.4-2.6-2.4c-0.1,0-0.2,0-0.3,0c-1.7,0.2-2.3,1.4-2.2,2.9
				C108.3,42.6,109.3,43.6,110.6,43.6 M97.3,23.4c0.2,0,0.3,0,0.5,0c2.1,0.2,3.5,1.7,3.3,4.2c-0.1,1.6-1.5,2.8-3.5,2.8
				c-0.1,0-0.2,0-0.4,0c-2.1-0.2-3.4-1.4-3.2-3.6C94.3,24.8,94.9,23.4,97.3,23.4 M38,23.4c1.9,0,3.4,1.3,3.5,3.6
				c0.1,1.7-1.2,3.2-3.3,3.4c-0.1,0-0.3,0-0.4,0c-1.8,0-3.1-1-3.3-3.1c-0.2-2.1,0.3-3.7,3.2-3.9C37.7,23.4,37.9,23.4,38,23.4
				 M52.1,23.7c3.2,0,5.2,1.2,5.9,1.8c-0.1,1-1.1,4.8-1.4,4.9c0,0,0,0-0.1,0c-0.5,0-1.5-0.6-2.4-0.6c-1.4,0-1.7,1.1-1.8,1.9
				c0,0.3,0,0.5,0,0.6c0.3,0.1,3.9-0.1,4.1,0.4c0,0,0.1,1.5,0.1,2.9c1.3-1.8,3.3-3,6.1-3.3c0.3,0,0.5,0,0.8,0c4.4,0,7.1,3.3,7.5,7
				c0.1,1.1,0.1,2.1-0.1,2.8c-1.8,0.4-7.5,0.9-9.3,1c0.1,1.1,0.8,1.8,2.5,1.8c0.2,0,0.4,0,0.7,0c1.6-0.1,2.8-0.8,3.6-1.3
				c0.5,0.4,2.4,3.7,2.4,4.3c-0.9,0.9-3.2,2.1-5.9,2.4c-0.4,0-0.8,0.1-1.2,0.1c-5.9,0-8.3-3.9-8.7-8c-0.1-1.6,0.1-3.1,0.6-4.5
				c-0.9,0.1-2.2,0.1-2.7,0.1c-0.2,0-0.3,0-0.3,0l0,0c-0.1,0,0.5,11.8,0.3,12c-0.1,0.1-3.1,0.3-5.1,0.3c-1,0-1.7,0-1.8-0.1
				c-0.3-0.3-0.2-11.7-0.2-12c-0.3,0-2.5,0-2.6-0.1c-0.1-0.1-0.5-4.5-0.3-4.8c0.2-0.2,3.1-0.5,3.1-0.5c0,0-0.1-1.5-0.1-3
				C45.7,26.7,47.8,23.7,52.1,23.7 M61.1,39.2l3.8-0.4c-0.1-1.1-0.7-2.1-1.7-2.1c0,0-0.1,0-0.2,0C61.8,36.8,61,37.8,61.1,39.2
				 M23.8,25.3c1.1,0,2,0,2,0.1c0.1,1.4,0.1,15-0.1,17.5c1.6-0.1,3.6-0.1,5.4-0.1c1.5,0,2.8,0,3.4,0.1c0.2,1.5,0.4,5.9,0.1,6.6
				c0,0.1-2.5,0.1-5.5,0.1c-4.4,0-10-0.1-10.9-0.2C18,47.2,18,26,18.3,25.6C18.4,25.4,21.6,25.3,23.8,25.3 M75.4,25.4
				c2,0,4.1,0.1,4.3,0.2c0.2,0.1-0.2,9.2-0.2,9.2s6.6-9.3,7-9.3c0.3,0,6.4,1.7,6.4,2.2c0,0.5-5.9,8.9-5.9,8.9
				c1.2,1.8,4.2,7.3,5.5,10.1c0.3-4.8,0.9-14.2,1.1-14.5C93.7,32,94,32,94.4,32c1.8,0,6,0.5,6.1,0.6c0.1,0.1-1.6,16.9-1.8,17.1
				c0,0-0.2,0.1-0.5,0.1c-1.5,0-5.8-0.4-5.8-0.5c0,0,0-0.3,0-0.7c-1.5,0.6-4.7,1.7-6,1.7c-0.1,0-0.2,0-0.3,0c-0.3,0-4.1-7.5-4.6-8.5
				c-0.3,0.4-1.9,2.4-1.9,2.4l0.1,5.6c-0.5,0.1-3.3,0.2-5.3,0.2c-1.1,0-2,0-2.1-0.1c-0.3-0.2-0.9-23.6-0.3-24.1
				C72.2,25.5,73.7,25.4,75.4,25.4 M41.2,32c0.3,0,0.4,0,0.5,0c0.1,0.1,1.2,16.9,1.1,17.2c-0.1,0.2-5.1,0.6-6.1,0.6
				c-0.1,0-0.2,0-0.2,0c-0.1-0.1-1.8-16.8-1.6-17.2C35.1,32.3,39.7,32,41.2,32 M117.6,17.9c-1.4,0-3.4,0.3-4.5,0.4
				c-2.9,0.5-3.9,0.8-4.9,1.6c-2.1,1.7-1.9,4-1.8,5.7c0,0.6,0.1,1.4,0.2,2.3c-0.3,0-0.5,0.1-0.8,0.2c0-0.1,0-0.1,0-0.2
				c0.2-2.4-0.4-4.6-1.8-6.3c-1.4-1.7-3.5-2.8-5.9-3c-0.3,0-0.6,0-0.9,0c-3.3,0-5.2,1.5-6.2,2.8c-0.1,0.1-0.2,0.2-0.3,0.4
				c-3.3-1-4-1-4.4-1c-1.5,0-2.6,0.6-3.4,1.5c-0.5-0.5-1-0.8-1.5-1c-0.6-0.2-1.3-0.6-6.2-0.6h0c-3,0-5.2,0.1-6.7,1.7
				c-1.4,1.4-1.5,2.9-1.6,5.5c-1.1-0.3-2.3-0.5-3.6-0.5c-0.3,0-0.6,0-1,0c0.1-0.5,0.2-0.9,0.2-1.3c0.2-1.7-0.4-3.3-1.7-4.4
				c-0.8-0.7-3.9-2.8-8.9-2.8c-2.9,0-5.6,1-7.6,2.8c-1.5-1.9-3.8-3-6.4-3c-0.3,0-0.5,0-0.8,0c-3.6,0.3-6,2.1-7,4.9
				c-0.5-1.2-1.7-2.9-4.7-3c-0.4,0-1,0-1.7,0l0,0h0c-1.1,0-2.6,0-3.8,0.1c-2.1,0.1-4.2,0.2-5.6,2.2c-1,1.4-1,2.3-1.1,6.3
				c0,2-0.1,4.7-0.1,7.7c0,1.1,0,11.1,0.2,13.1c0.2,2.2,1.9,4,4.1,4.3c1.8,0.2,11.4,0.3,11.5,0.3c1.6,0,3,0,4,0c0.6,0,1,0,1.4-0.1
				c0.1,0,0.3,0,0.4,0c0.5,0.2,1.1,0.3,1.8,0.3c0.8,0,2.5-0.1,3.8-0.2c0.8-0.1,1.5-0.1,2.1-0.2c0.3,0,0.7-0.1,1.1-0.2
				c1.3,0.7,2.7,0.7,4.1,0.7c6.2,0,7.3-0.5,8.5-1.7c0,0,0,0,0.1-0.1c2.1,1.2,4.5,1.9,7.3,1.9c0.5,0,1.1,0,1.6-0.1
				c1.5-0.1,3-0.5,4.4-1c1.4,1,2.8,1,4.8,1c0.8,0,5,0,6.4-0.3c0.7-0.2,1.3-0.5,1.8-0.9c0.7,0.7,1.5,1.3,2.8,1.5c0.3,0,0.6,0.1,1,0.1
				c1.5,0,3.5-0.5,5.2-1.1c0.4,0.1,0.7,0.1,1,0.2c0.5,0.1,1.1,0.1,1.8,0.2c1,0.1,2.8,0.2,3.9,0.2c1.8,0,3.1-0.6,4.1-1.7
				c1.9,1.2,4,1.8,6.2,1.8c0.4,0,0.8,0,1.3-0.1c1.2-0.1,2.3-0.4,3.3-0.8c0,0,0.1,0,0.1,0c0.7,0.2,1.5,0.3,2.5,0.3
				c1.4,0,3-0.2,4.1-0.4c2.2,0.8,5.3,1.4,7.9,1.4c4.6,0,7.4-1.8,8.9-3.3c2-2,3.1-4.7,3.1-7.6c0-2.4-0.6-4.4-1.7-6
				c0.2-0.4,0.3-0.8,0.4-1.2c0.5-1.5,1.6-4.6-0.7-6.9l0,0c-2.4-2.4-8.6-2.8-10.2-2.8c-1.5,0-2.8,0.2-3.9,0.5
				c-0.1-0.9-0.2-1.8-0.2-2.5c-0.1-0.9-0.2-1.7-0.2-2.3c0-0.3-0.1-0.5-0.1-0.7c-0.3-2.6-2.1-3.7-3.1-4.1l0,0
				C119.2,18,118.5,17.9,117.6,17.9L117.6,17.9z"/>
		</g>
		<path fill="#AC1F2D" d="M117.6,22.7c0.3,0,0.5,0,0.7,0.1c0.1,0,1.9,18.8,2.3,24.3c0.4-1.4,1.2-3.3,1.4-3.3c0,0,0,0,0,0
			c0.6,0.2,2.8,1.7,5,1.7c0.9,0,1.4-0.3,1.4-0.7c0-0.4-0.3-0.8-2.3-1.1c-3.8-0.7-5.5-2.4-5.5-5.3c0-4,2.5-6.2,7-6.2
			c3.2,0,6.4,1.1,6.8,1.4c0.3,0.3-1.4,4.7-1.7,4.8c0,0,0,0,0,0c-0.2,0-2.6-1.2-4.4-1.2c-0.8,0-1.2,0.4-1.2,0.8
			c0,0.4,0.4,0.7,1.9,0.9c4.3,0.6,6,2,6,5.4c0,3.1-2,6.1-7.2,6.1c-3.5,0-6.9-1.2-7.4-1.6c-0.8,0.2-3,0.6-4.7,0.6
			c-0.5,0-0.9,0-1.2-0.1l-0.3-1.6c0,0-1.9,1.9-4.9,2.2c-0.2,0-0.5,0-0.7,0c-3.5,0-7.1-2.7-7.7-8.1c-0.6-5.7,3.4-8.8,7.1-9.2
			c0.2,0,0.4,0,0.6,0c1.9,0,3.6,1,3.6,1s-1.2-9.7-0.9-10C111.5,23.4,115.8,22.7,117.6,22.7 M110.6,43.6c0.1,0,0.2,0,0.3,0
			c1.8-0.2,2.5-1.5,2.3-2.9c-0.2-1.4-1.3-2.4-2.6-2.4c-0.1,0-0.2,0-0.3,0c-1.7,0.2-2.3,1.4-2.2,2.9
			C108.3,42.6,109.3,43.6,110.6,43.6 M97.3,23.4c0.2,0,0.3,0,0.5,0c2.1,0.2,3.5,1.7,3.3,4.2c-0.1,1.6-1.5,2.8-3.5,2.8
			c-0.1,0-0.2,0-0.4,0c-2.1-0.2-3.4-1.4-3.2-3.6C94.3,24.8,94.9,23.4,97.3,23.4 M38,23.4c1.9,0,3.4,1.3,3.5,3.6
			c0.1,1.7-1.2,3.2-3.3,3.4c-0.1,0-0.3,0-0.4,0c-1.8,0-3.1-1-3.3-3.1c-0.2-2.1,0.3-3.7,3.2-3.9C37.7,23.4,37.9,23.4,38,23.4
			 M52.1,23.7c3.2,0,5.2,1.2,5.9,1.8c-0.1,1-1.1,4.8-1.4,4.9c0,0,0,0-0.1,0c-0.5,0-1.5-0.6-2.4-0.6c-1.4,0-1.7,1.1-1.8,1.9
			c0,0.3,0,0.5,0,0.6c0.3,0.1,3.9-0.1,4.1,0.4c0,0,0.1,1.5,0.1,2.9c1.3-1.8,3.3-3,6.1-3.3c0.3,0,0.5,0,0.8,0c4.4,0,7.1,3.3,7.5,7
			c0.1,1.1,0.1,2.1-0.1,2.8c-1.8,0.4-7.5,0.9-9.3,1c0.1,1.1,0.8,1.8,2.5,1.8c0.2,0,0.4,0,0.7,0c1.6-0.1,2.8-0.8,3.6-1.3
			c0.5,0.4,2.4,3.7,2.4,4.3c-0.9,0.9-3.2,2.1-5.9,2.4c-0.4,0-0.8,0.1-1.2,0.1c-5.9,0-8.3-3.9-8.7-8c-0.1-1.6,0.1-3.1,0.6-4.5
			c-0.9,0.1-2.2,0.1-2.7,0.1c-0.2,0-0.3,0-0.3,0l0,0c-0.1,0,0.5,11.8,0.3,12c-0.1,0.1-3.1,0.3-5.1,0.3c-1,0-1.7,0-1.8-0.1
			c-0.3-0.3-0.2-11.7-0.2-12c-0.3,0-2.5,0-2.6-0.1c-0.1-0.1-0.5-4.5-0.3-4.8c0.2-0.2,3.1-0.5,3.1-0.5c0,0-0.1-1.5-0.1-3
			C45.7,26.7,47.8,23.7,52.1,23.7 M61.1,39.2l3.8-0.4c-0.1-1.1-0.7-2.1-1.7-2.1c0,0-0.1,0-0.2,0C61.8,36.8,61,37.8,61.1,39.2
			 M23.8,25.3c1.1,0,2,0,2,0.1c0.1,1.4,0.1,15-0.1,17.5c1.6-0.1,3.6-0.1,5.4-0.1c1.5,0,2.8,0,3.4,0.1c0.2,1.5,0.4,5.9,0.1,6.6
			c0,0.1-2.5,0.1-5.5,0.1c-4.4,0-10-0.1-10.9-0.2C18,47.2,18,26,18.3,25.6C18.4,25.4,21.6,25.3,23.8,25.3 M75.4,25.4
			c2,0,4.1,0.1,4.3,0.2c0.2,0.1-0.2,9.2-0.2,9.2s6.6-9.3,7-9.3c0.3,0,6.4,1.7,6.4,2.2c0,0.5-5.9,8.9-5.9,8.9
			c1.2,1.8,4.2,7.3,5.5,10.1c0.3-4.8,0.9-14.2,1.1-14.5C93.7,32,94,32,94.4,32c1.8,0,6,0.5,6.1,0.6c0.1,0.1-1.6,16.9-1.8,17.1
			c0,0-0.2,0.1-0.5,0.1c-1.5,0-5.8-0.4-5.8-0.5c0,0,0-0.3,0-0.7c-1.5,0.6-4.7,1.7-6,1.7c-0.1,0-0.2,0-0.3,0c-0.3,0-4.1-7.5-4.6-8.5
			c-0.3,0.4-1.9,2.4-1.9,2.4l0.1,5.6c-0.5,0.1-3.3,0.2-5.3,0.2c-1.1,0-2,0-2.1-0.1c-0.3-0.2-0.9-23.6-0.3-24.1
			C72.2,25.5,73.7,25.4,75.4,25.4 M41.2,32c0.3,0,0.4,0,0.5,0c0.1,0.1,1.2,16.9,1.1,17.2c-0.1,0.2-5.1,0.6-6.1,0.6
			c-0.1,0-0.2,0-0.2,0c-0.1-0.1-1.8-16.8-1.6-17.2C35.1,32.3,39.7,32,41.2,32 M117.6,21.2c-0.9,0-6.3,0.5-7.2,1.3
			c-0.6,0.5-0.9,0.7,0.1,8.8c-0.6-0.1-1.2-0.2-1.9-0.2c-0.3,0-0.5,0-0.7,0c-2.2,0.2-4.4,1.3-6,3c0.2-1.9,0.1-2-0.3-2.5
			c-0.2-0.3-0.4-0.4-1.2-0.6c1.2-0.7,2.1-2,2.2-3.4c0.1-1.6-0.3-2.9-1.1-4c-0.8-1-2.1-1.6-3.5-1.8c-0.2,0-0.4,0-0.6,0
			c-2.6,0-4.1,1.3-4.6,3.9c-0.6-0.3-1.4-0.5-2.6-0.9c-0.3-0.1-3.2-1-3.8-1c-0.8,0-1,0-5.3,6c0-1.2,0.1-2.2,0.1-3
			c0-1.5,0-2.4-0.9-2.8C79.6,24,75.8,24,75.4,24c-3.4,0-3.9,0.3-4.4,0.7c-0.5,0.5-0.7,0.7-0.6,9.3c-1.5-1.9-3.9-3.3-6.9-3.3
			c-0.3,0-0.6,0-0.9,0c-1.7,0.1-3.3,0.7-4.6,1.5c0-0.1-0.1-0.2-0.1-0.3c-0.1-0.2-0.2-0.3-0.3-0.5c0.6-0.4,0.9-1.4,1.3-2.9
			c0.3-1,0.6-2.3,0.7-3c0.1-0.5-0.1-1-0.5-1.3c-1.3-1-3.7-2.1-6.8-2.1c-5.1,0-7.8,3.7-7.8,7.2c0,0.5,0,1.1,0,1.7
			c-0.6,0.1-1,0.1-1.3,0.2c-0.1-0.2-0.2-0.3-0.3-0.4c-0.4-0.3-0.8-0.4-1.3-0.4c0.1-0.1,0.3-0.2,0.4-0.4c0.9-0.9,1.3-2.1,1.2-3.4
			c-0.3-3-2.2-4.9-5-4.9c-0.2,0-0.3,0-0.5,0c-3.2,0.3-4.7,2.1-4.5,5.5c0.1,1.6,0.9,2.9,2,3.6c-0.8,0.2-1.2,0.4-1.5,0.9
			c-0.2,0.5-0.3,0.6,0.5,9.5c-0.7,0-1.7-0.1-3-0.1c-1.2,0-2.6,0-3.9,0c0.1-4.4,0.1-14.8,0-16.1c0,0,0,0,0-0.1
			c-0.2-1.2-1.4-1.3-1.9-1.4c-0.4,0-0.9,0-1.5,0c-6,0-6.3,0.4-6.7,0.9c-0.3,0.5-0.5,0.6-0.5,12.1c0,5.3,0,11.5,0.2,12.8
			c0.1,0.7,0.6,1.2,1.2,1.3c1.1,0.2,7.3,0.2,11.1,0.2c1.6,0,3,0,3.9,0c0.5,0,1,0,1.2,0c0.3,0,0.7,0,1.1-0.3c0.4,0.5,1,0.5,1.3,0.5
			c0.6,0,2.1-0.1,3.5-0.2c2.8-0.2,3.6-0.3,4-1.2c0,0,0.1,0.4,0.7,0.9c0.5,0.5,1,0.6,2.9,0.6c1,0,2.2,0,3.3-0.1
			c1.9-0.1,2.3-0.2,2.8-0.6c0.5-0.5,0.5-0.8,0.4-3.9c0-0.4,0-0.9,0-1.3c1.3,3.3,4.2,6.1,9.4,6.1c0.4,0,0.9,0,1.4-0.1
			c2.5-0.2,4.6-1.1,5.9-2c0.1,0.7,0.1,1.2,0.6,1.6c0.4,0.3,0.8,0.4,3,0.4c1.2,0,4.8-0.1,5.6-0.2c0.7-0.2,1.1-0.7,1.1-1.4l-0.1-5.1
			c0.1-0.1,0.1-0.1,0.2-0.2c0.4,0.8,0.9,1.7,1.4,2.6c0.6,1.2,1.1,2.1,1.5,2.7c0.7,1.2,1,1.8,1.8,1.9c0.2,0,0.3,0,0.5,0
			c1.3,0,3.5-0.7,5.2-1.2c0.4,0.3,1.2,0.4,3.1,0.5c0.6,0.1,2.6,0.2,3.6,0.2c0.5,0,1.2,0,1.7-0.7c0.2-0.3,0.3-0.4,0.7-4.4
			c1.8,3.5,5,5.1,7.9,5.1c0.3,0,0.6,0,0.9,0c1.6-0.2,2.8-0.7,3.8-1.3c0.2,0.3,0.5,0.5,0.8,0.6c0.4,0.1,1,0.2,1.6,0.2
			c1.5,0,3.4-0.3,4.5-0.6c1.5,0.7,4.5,1.5,7.6,1.5c6.3,0,8.6-4.1,8.6-7.6c0-2.7-1-4.3-2.4-5.3c0.2-0.3,0.3-0.6,0.5-1
			c0.3-0.6,0.6-1.3,0.8-2c0.5-1.5,0.8-2.6,0.1-3.4l0,0c-0.9-0.9-4.9-1.9-7.8-1.9c-3,0-5.3,0.9-6.7,2.6c0-0.2,0-0.3,0-0.5
			c-0.3-2.8-0.5-5.3-0.7-7.1c-0.1-0.9-0.2-1.7-0.2-2.2c-0.1-1-0.2-1.8-1.1-2C118.3,21.3,118,21.2,117.6,21.2L117.6,21.2z M88.7,36.6
			c2.5-3.6,3.9-5.6,4.6-6.9c0.2,0.3,0.4,0.6,0.7,0.9c-0.5,0-1.2,0.1-1.6,0.7c-0.3,0.4-0.4,0.5-0.8,6.3c-0.1,1.2-0.2,2.5-0.3,3.8
			C90.5,39.6,89.5,37.8,88.7,36.6L88.7,36.6z M110.6,42.2c-0.7,0-1-0.6-1-1.1c-0.1-1.2,0.5-1.3,0.9-1.3c0,0,0.1,0,0.1,0
			c0.6,0,1.1,0.5,1.2,1.1c0,0.4,0,0.7-0.2,0.9c-0.2,0.2-0.5,0.4-0.9,0.4C110.7,42.2,110.7,42.2,110.6,42.2L110.6,42.2z"/>
		<g>
			<g opacity="0.2">
				<path fill="#231F20" d="M41.7,33.1c0.1,0.1,1.2,16.9,1.1,17.2c-0.1,0.3-6.2,0.7-6.3,0.6s-1.8-16.8-1.6-17.2
					C35.1,33.3,41.6,32.9,41.7,33.1z M38.2,31.4c2.1-0.2,3.5-1.7,3.3-3.4c-0.2-2.4-1.8-3.8-3.9-3.6c-2.8,0.2-3.3,1.8-3.2,3.9
					C34.6,30.5,36.2,31.5,38.2,31.4z M97.3,31.4c2.1,0.2,3.7-1.1,3.8-2.8c0.2-2.4-1.2-4-3.3-4.2c-2.8-0.2-3.6,1.3-3.8,3.4
					C93.9,29.9,95.2,31.2,97.3,31.4z M25.7,43.9c0.1-2.5,0.2-16.1,0.1-17.5c0-0.3-7.3-0.1-7.5,0.2C18,27,18,48.2,18.2,50.5
					c1.5,0.2,16.4,0.3,16.4,0.1c0.2-0.8,0.1-5.2-0.1-6.6C33.2,43.8,28.7,43.8,25.7,43.9z M134.9,45.1c0,3.1-2,6.1-7.2,6.1
					c-3.5,0-6.9-1.2-7.4-1.6c-1,0.3-4.4,0.9-5.9,0.5l-0.3-1.6c0,0-1.9,1.9-4.9,2.2c-3.7,0.4-7.8-2.3-8.5-8c-0.6-5.7,3.4-8.8,7.1-9.2
					c2.2-0.2,4.2,1,4.2,1s-1.2-9.7-0.9-10c0.3-0.3,6.1-1.2,7-0.9c0.1,0,1.9,18.8,2.3,24.3c0.4-1.5,1.2-3.4,1.4-3.3
					c0.6,0.2,2.8,1.7,5,1.7c0.9,0,1.4-0.3,1.4-0.7c0-0.4-0.3-0.8-2.3-1.1c-3.8-0.7-5.5-2.4-5.5-5.3c0-4,2.5-6.2,7-6.2
					c3.2,0,6.4,1.1,6.8,1.4c0.3,0.3-1.4,4.7-1.7,4.8c-0.2,0-2.6-1.2-4.4-1.2c-0.8,0-1.2,0.4-1.2,0.8c0,0.4,0.4,0.7,1.9,0.9
					C133.2,40.3,134.9,41.7,134.9,45.1z M113.3,41.7c-0.2-1.5-1.5-2.5-2.9-2.3c-1.7,0.2-2.3,1.4-2.2,2.9c0.2,1.5,1.3,2.5,2.8,2.4
					C112.7,44.4,113.4,43.2,113.3,41.7z M70.9,40.1c0.1,1.1,0.1,2.1-0.1,2.8c-1.8,0.4-7.5,0.9-9.3,1c0.1,1.2,1,1.9,3.2,1.7
					c1.6-0.1,2.8-0.8,3.6-1.3c0.5,0.4,2.4,3.7,2.4,4.3c-0.9,0.9-3.2,2.1-5.9,2.4c-6.8,0.6-9.5-3.6-9.9-8c-0.1-1.6,0.1-3.1,0.6-4.5
					c-1.2,0.1-3,0.1-3,0.1c-0.1,0,0.5,11.8,0.3,12c-0.2,0.2-6.6,0.4-6.9,0.1c-0.3-0.3-0.2-11.7-0.2-12c-0.3,0-2.5,0-2.6-0.1
					c-0.1-0.1-0.5-4.5-0.3-4.8c0.2-0.2,3.1-0.5,3.1-0.5c0,0-0.1-1.5-0.1-3c0-2.7,2.1-5.8,6.4-5.8c3.2,0,5.2,1.2,5.9,1.8
					c-0.1,1-1.1,4.8-1.4,4.9c-0.5,0.1-1.5-0.6-2.5-0.6c-1.4,0-1.7,1.1-1.8,1.9c0,0.3,0,0.5,0,0.6c0.3,0.1,3.9-0.1,4.1,0.4
					c0,0,0.1,1.5,0.1,2.9c1.3-1.8,3.3-3,6.1-3.3C67.5,32.7,70.6,36.2,70.9,40.1z M64.9,39.8c-0.1-1.1-0.7-2.2-1.9-2.1
					c-1.3,0.1-2.1,1.1-2,2.5L64.9,39.8z M93.6,33.1c-0.2,0.3-0.8,9.7-1.1,14.5c-1.4-2.8-4.3-8.3-5.5-10.1c0,0,5.9-8.4,5.9-8.9
					c0-0.5-6.1-2.2-6.4-2.2c-0.3,0-7,9.3-7,9.3s0.4-9.1,0.2-9.2c-0.2-0.1-7.1-0.4-7.6,0.1s0.1,23.9,0.3,24.1
					c0.3,0.2,6.6,0.1,7.4-0.1l-0.1-5.6c0,0,1.6-2,1.9-2.4c0.5,1,4.3,8.5,4.6,8.5c1.1,0.2,4.7-1,6.3-1.6c0,0.4,0,0.7,0,0.7
					c0.1,0.1,6.2,0.7,6.3,0.5c0.2-0.2,1.9-17,1.8-17.1C100.4,33.5,93.9,32.7,93.6,33.1z"/>
			</g>
			<path fill="#FFDD00" d="M41.7,32.1c0.1,0.1,1.2,16.9,1.1,17.2c-0.1,0.3-6.2,0.7-6.3,0.6s-1.8-16.8-1.6-17.2
				C35.1,32.3,41.6,31.9,41.7,32.1z M38.2,30.4c2.1-0.2,3.5-1.7,3.3-3.4c-0.2-2.4-1.8-3.8-3.9-3.6c-2.8,0.2-3.3,1.8-3.2,3.9
				C34.6,29.5,36.2,30.5,38.2,30.4z M97.3,30.4c2.1,0.2,3.7-1.1,3.8-2.8c0.2-2.4-1.2-4-3.3-4.2c-2.8-0.2-3.6,1.3-3.8,3.4
				C93.9,28.9,95.2,30.2,97.3,30.4z M25.7,42.9c0.1-2.5,0.2-16.1,0.1-17.5c0-0.3-7.3-0.1-7.5,0.2C18,26,18,47.2,18.2,49.5
				c1.5,0.2,16.4,0.3,16.4,0.1c0.2-0.8,0.1-5.2-0.1-6.6C33.2,42.8,28.7,42.8,25.7,42.9z M134.9,44.2c0,3.1-2,6.1-7.2,6.1
				c-3.5,0-6.9-1.2-7.4-1.6c-1,0.3-4.4,0.9-5.9,0.5l-0.3-1.6c0,0-1.9,1.9-4.9,2.2c-3.7,0.4-7.8-2.3-8.5-8c-0.6-5.7,3.4-8.8,7.1-9.2
				c2.2-0.2,4.2,1,4.2,1s-1.2-9.7-0.9-10c0.3-0.3,6.1-1.2,7-0.9c0.1,0,1.9,18.8,2.3,24.3c0.4-1.5,1.2-3.4,1.4-3.3
				c0.6,0.2,2.8,1.7,5,1.7c0.9,0,1.4-0.3,1.4-0.7c0-0.4-0.3-0.8-2.3-1.1c-3.8-0.7-5.5-2.4-5.5-5.3c0-4,2.5-6.2,7-6.2
				c3.2,0,6.4,1.1,6.8,1.4c0.3,0.3-1.4,4.7-1.7,4.8c-0.2,0-2.6-1.2-4.4-1.2c-0.8,0-1.2,0.4-1.2,0.8c0,0.4,0.4,0.7,1.9,0.9
				C133.2,39.3,134.9,40.7,134.9,44.2z M113.3,40.7c-0.2-1.5-1.5-2.5-2.9-2.3c-1.7,0.2-2.3,1.4-2.2,2.9c0.2,1.5,1.3,2.5,2.8,2.4
				C112.7,43.4,113.4,42.2,113.3,40.7z M70.9,39.1c0.1,1.1,0.1,2.1-0.1,2.8c-1.8,0.4-7.5,0.9-9.3,1c0.1,1.2,1,1.9,3.2,1.7
				c1.6-0.1,2.8-0.8,3.6-1.3c0.5,0.4,2.4,3.7,2.4,4.3c-0.9,0.9-3.2,2.1-5.9,2.4c-6.8,0.6-9.5-3.6-9.9-8c-0.1-1.6,0.1-3.1,0.6-4.5
				c-1.2,0.1-3,0.1-3,0.1c-0.1,0,0.5,11.8,0.3,12c-0.2,0.2-6.6,0.4-6.9,0.1c-0.3-0.3-0.2-11.7-0.2-12c-0.3,0-2.5,0-2.6-0.1
				c-0.1-0.1-0.5-4.5-0.3-4.8c0.2-0.2,3.1-0.5,3.1-0.5c0,0-0.1-1.5-0.1-3c0-2.7,2.1-5.8,6.4-5.8c3.2,0,5.2,1.2,5.9,1.8
				c-0.1,1-1.1,4.8-1.4,4.9c-0.5,0.1-1.5-0.6-2.5-0.6c-1.4,0-1.7,1.1-1.8,1.9c0,0.3,0,0.5,0,0.6c0.3,0.1,3.9-0.1,4.1,0.4
				c0,0,0.1,1.5,0.1,2.9c1.3-1.8,3.3-3,6.1-3.3C67.5,31.8,70.6,35.2,70.9,39.1z M64.9,38.8c-0.1-1.1-0.7-2.2-1.9-2.1
				c-1.3,0.1-2.1,1.1-2,2.5L64.9,38.8z M93.6,32.1c-0.2,0.3-0.8,9.7-1.1,14.5c-1.4-2.8-4.3-8.3-5.5-10.1c0,0,5.9-8.4,5.9-8.9
				c0-0.5-6.1-2.2-6.4-2.2c-0.3,0-7,9.3-7,9.3s0.4-9.1,0.2-9.2c-0.2-0.1-7.1-0.4-7.6,0.1s0.1,23.9,0.3,24.1c0.3,0.2,6.6,0.1,7.4-0.1
				l-0.1-5.6c0,0,1.6-2,1.9-2.4c0.5,1,4.3,8.5,4.6,8.5c1.1,0.2,4.7-1,6.3-1.6c0,0.4,0,0.7,0,0.7c0.1,0.1,6.2,0.7,6.3,0.5
				c0.2-0.2,1.9-17,1.8-17.1C100.4,32.5,93.9,31.7,93.6,32.1z"/>
		</g>
	</g>
</g>
</svg>
