<?xml version="1.0" encoding="utf-8"?>
<!-- Generator: Adobe Illustrator 18.0.0, SVG Export Plug-In . SVG Version: 6.00 Build 0)  -->
<!DOCTYPE svg PUBLIC "-//W3C//DTD SVG 1.1//EN" "http://www.w3.org/Graphics/SVG/1.1/DTD/svg11.dtd">
<svg version="1.1" id="Layer_1" xmlns="http://www.w3.org/2000/svg" xmlns:xlink="http://www.w3.org/1999/xlink" x="0px" y="0px"
	 width="167px" height="27px" viewBox="0 0 167 27" enable-background="new 0 0 167 27" xml:space="preserve">
<g>
	<path fill="#2BACE2" d="M30.7,13.5c-0.7-0.6-1.6-1.1-2.6-1.5c-1-0.4-2.2-0.8-3.5-1.2c-1.1-0.3-2-0.6-2.8-0.8
		c-0.7-0.2-1.3-0.5-1.7-0.7c-0.4-0.2-0.7-0.5-0.9-0.8C19.1,8.2,19,7.8,19,7.4V7.3c0-0.6,0.3-1.2,0.8-1.6C20.4,5.3,21.3,5,22.4,5
		c1.1,0,2.2,0.2,3.3,0.7c1.1,0.5,2.2,1.1,3.4,1.9L32,3.3c-1.3-1-2.8-1.9-4.4-2.4c-1.6-0.6-3.3-0.8-5.2-0.8c-1.3,0-2.5,0.2-3.6,0.6
		c-1.1,0.4-2,0.9-2.8,1.6c-0.8,0.7-1.4,1.5-1.8,2.5c-0.4,0.9-0.7,2-0.7,3.2v0.1c0,1.3,0.2,2.3,0.6,3.2c0.4,0.9,1,1.6,1.7,2.2
		c0.7,0.6,1.6,1.1,2.7,1.4c1.1,0.4,2.2,0.7,3.5,1.1c1.1,0.3,2,0.5,2.6,0.8c0.7,0.2,1.2,0.5,1.6,0.7c0.4,0.2,0.6,0.5,0.8,0.8
		c0.1,0.3,0.2,0.6,0.2,1v0.1c0,0.8-0.3,1.4-1,1.8c-0.7,0.4-1.6,0.6-2.7,0.6c-1.5,0-2.8-0.3-4.1-0.8c-1.2-0.6-2.4-1.3-3.6-2.3l-3.4,4
		c1.5,1.4,3.3,2.4,5.2,3.1c1.9,0.7,3.8,1,5.8,1c1.4,0,2.7-0.2,3.8-0.5c1.2-0.4,2.1-0.9,3-1.5c0.8-0.7,1.5-1.5,1.9-2.5
		c0.5-1,0.7-2.1,0.7-3.4v-0.1c0-1.1-0.2-2.1-0.5-2.9C31.9,14.8,31.4,14.1,30.7,13.5z"/>
	<polygon fill="#2BACE2" points="61.1,17.9 55.3,0.4 50.4,0.4 44.7,17.9 39.3,0.4 33.2,0.4 42,26.4 47,26.4 52.8,9.5 58.6,26.4 
		63.6,26.4 72.4,0.4 66.4,0.4 	"/>
	<rect x="75.1" y="0.4" fill="#2BACE2" width="5.7" height="25.8"/>
	<polygon fill="#2BACE2" points="83.5,5.7 91.3,5.7 91.3,26.2 97,26.2 97,5.7 104.8,5.7 104.8,0.4 83.5,0.4 	"/>
	<path fill="#2BACE2" d="M122.2,20.6c-1,0.6-2.3,0.8-3.7,0.8c-1.1,0-2.1-0.2-3-0.6c-0.9-0.4-1.7-1-2.4-1.8c-0.7-0.7-1.2-1.6-1.5-2.6
		c-0.4-1-0.6-2-0.6-3.1v-0.1c0-1.1,0.2-2.1,0.6-3.1c0.4-1,0.9-1.8,1.5-2.6c0.7-0.7,1.5-1.3,2.4-1.7c0.9-0.4,1.9-0.6,3-0.6
		c1.3,0,2.5,0.3,3.5,0.8c1,0.5,2.1,1.2,3.1,2.1l3.6-4.2c-0.6-0.6-1.2-1.1-1.9-1.6c-0.7-0.5-1.4-0.9-2.2-1.3
		c-0.8-0.3-1.7-0.6-2.7-0.8c-1-0.2-2.1-0.3-3.3-0.3c-2,0-3.8,0.3-5.5,1c-1.6,0.7-3.1,1.7-4.2,2.9c-1.2,1.2-2.1,2.6-2.8,4.2
		c-0.7,1.6-1,3.3-1,5.2v0.1c0,1.8,0.3,3.6,1,5.2c0.7,1.6,1.6,3,2.8,4.2c1.2,1.2,2.6,2.1,4.2,2.8c1.6,0.7,3.4,1,5.3,1
		c1.3,0,2.4-0.1,3.4-0.3c1-0.2,1.9-0.5,2.8-0.9c0.8-0.4,1.6-0.9,2.3-1.5c0.7-0.6,1.4-1.2,2.1-1.9l-3.6-3.6
		C124.2,19.3,123.2,20.1,122.2,20.6z"/>
	<polygon fill="#2BACE2" points="147.3,0.4 147.3,10.6 136.9,10.6 136.9,0.4 131.2,0.4 131.2,26.2 136.9,26.2 136.9,15.9 
		147.3,15.9 147.3,26.2 153,26.2 153,0.4 	"/>
</g>
</svg>
