<?xml version="1.0" encoding="utf-8"?>
<!-- Generator: Adobe Illustrator 18.0.0, SVG Export Plug-In . SVG Version: 6.00 Build 0)  -->
<!DOCTYPE svg PUBLIC "-//W3C//DTD SVG 1.1//EN" "http://www.w3.org/Graphics/SVG/1.1/DTD/svg11.dtd">
<svg version="1.1" id="Layer_1" xmlns="http://www.w3.org/2000/svg" xmlns:xlink="http://www.w3.org/1999/xlink" x="0px" y="0px"
	 viewBox="0 0 150 75" enable-background="new 0 0 150 75" xml:space="preserve">
<g>
	<path id="XMLID_51_" fill-rule="evenodd" clip-rule="evenodd" fill="#AC1F2D" d="M96.7,14.3c-21-2.7-51.1,13.9-54.9,19.5
		C30.4,50.4,51.4,61.5,70,59.3c20.3-2.3,58.7-22.1,31.5-33.8c-7.8-3.4-20.1-0.9-26.6,3.5c-6.4,4.3-10.8,17.5,1.6,11.8
		c-8.8-7.9,19.5-15,17.4-2.2c-1.4,8.4-21.3,12-28,11.2C53.3,48.3,52,39.4,59.8,32.3c8.3-7.6,21.6-12.6,33.4-13.6
		c29.1-2.4,41.3,19.4,17.5,35.6c-18,12.3-47.4,19.5-69.2,11.4c-29.7-11-8.6-37.3,9.5-46.5c13.5-6.9,29.6-11,45.1-11.8
		C115.1,6.3,114.7,17.1,96.7,14.3"/>
	<g>
		<g>
			<g opacity="0.2">
				<path fill="#231F20" d="M119.3,26c0.3,0,0.6,0,0.7,0.1c0.1,0,2,17.8,2.5,23.1c0.5-1.4,1.3-3.1,1.5-3.1c0,0,0,0,0,0
					c0.6,0.2,3,1.6,5.3,1.6c1,0,1.5-0.3,1.5-0.7c0-0.4-0.3-0.8-2.5-1.1c-4-0.6-6-2.3-6-5.1c0-3.8,2.7-5.9,7.6-5.9
					c3.4,0,6.9,1,7.3,1.4c0.4,0.3-1.5,4.5-1.9,4.5c0,0,0,0,0,0c-0.2,0-2.8-1.2-4.7-1.2c-0.9,0-1.3,0.4-1.3,0.8s0.4,0.6,2.1,0.8
					c4.7,0.6,6.5,1.9,6.5,5.2c0,2.9-2.2,5.8-7.7,5.8c-3.7,0-7.4-1.1-7.9-1.5c-0.9,0.2-3.3,0.6-5,0.6c-0.5,0-1,0-1.3-0.1l-0.3-1.5
					c0,0-2,1.8-5.3,2.1c-0.3,0-0.5,0-0.8,0c-3.8,0-7.7-2.6-8.3-7.6c-0.7-5.4,3.7-8.4,7.7-8.8c0.2,0,0.4,0,0.6,0c2.1,0,3.9,1,3.9,1
					s-1.3-9.2-0.9-9.4C112.8,26.7,117.4,26,119.3,26 M111.8,45.9c0.1,0,0.2,0,0.3,0c1.9-0.2,2.7-1.4,2.5-2.8
					c-0.2-1.3-1.4-2.2-2.8-2.2c-0.1,0-0.2,0-0.3,0c-1.8,0.2-2.5,1.4-2.3,2.8C109.3,44.9,110.4,45.9,111.8,45.9 M97.5,26.7
					c0.2,0,0.4,0,0.6,0c2.3,0.2,3.8,1.6,3.6,3.9c-0.1,1.5-1.7,2.7-3.7,2.7c-0.1,0-0.3,0-0.4,0c-2.2-0.2-3.6-1.4-3.5-3.4
					C94.1,28,94.9,26.7,97.5,26.7 M33.5,26.7c2.1,0,3.6,1.2,3.8,3.4c0.2,1.6-1.3,3-3.6,3.2c-0.2,0-0.3,0-0.5,0c-2,0-3.4-1-3.6-2.9
					c-0.2-2,0.3-3.5,3.4-3.7C33.2,26.7,33.3,26.7,33.5,26.7 M48.6,27c3.5,0,5.6,1.1,6.4,1.7c-0.1,0.9-1.2,4.6-1.5,4.6
					c0,0-0.1,0-0.1,0c-0.6,0-1.6-0.6-2.6-0.6c-1.5,0-1.9,1-1.9,1.8c0,0.3,0,0.5,0,0.6c0.3,0.1,4.2-0.1,4.5,0.4c0,0,0.1,1.5,0.1,2.7
					c1.4-1.7,3.6-2.9,6.6-3.1c0.3,0,0.6,0,0.8,0c4.7,0,7.7,3.1,8,6.6c0.1,1,0.1,2-0.1,2.7c-1.9,0.4-8.1,0.8-10.1,1
					c0.1,1,0.8,1.7,2.7,1.7c0.2,0,0.5,0,0.7,0c1.7-0.1,3.1-0.8,3.9-1.2c0.5,0.4,2.5,3.5,2.6,4.1c-1,0.9-3.5,2-6.4,2.3
					C61.9,52,61.4,52,61,52c-6.3,0-9-3.7-9.4-7.6c-0.1-1.5,0.1-3,0.7-4.3c-1,0.1-2.3,0.1-2.9,0.1c-0.2,0-0.3,0-0.3,0l0,0
					c-0.1,0,0.5,11.2,0.3,11.4c-0.1,0.1-3.3,0.3-5.5,0.3c-1.1,0-1.9,0-2-0.1c-0.3-0.3-0.2-11.1-0.2-11.4c-0.3,0-2.7,0-2.8-0.1
					c-0.1-0.1-0.6-4.3-0.4-4.5c0.2-0.2,3.3-0.5,3.3-0.5s-0.1-1.4-0.1-2.8C41.8,29.8,44.1,27,48.6,27 M58.4,41.7l4.1-0.4
					c-0.1-1-0.7-2-1.9-2c-0.1,0-0.1,0-0.2,0C59.1,39.4,58.2,40.4,58.4,41.7 M18.1,28.5c1.2,0,2.1,0,2.1,0.1
					c0.1,1.3,0.1,14.2-0.1,16.6c1.7-0.1,3.9-0.1,5.8-0.1c1.6,0,3.1,0,3.7,0.1c0.3,1.4,0.4,5.5,0.1,6.3c0,0.1-2.7,0.1-6,0.1
					c-4.7,0-10.8-0.1-11.7-0.2c-0.2-2.2-0.2-22.3,0.1-22.7C12.3,28.6,15.8,28.5,18.1,28.5 M73.8,28.6c2.1,0,4.5,0.1,4.6,0.2
					c0.3,0.1-0.2,8.7-0.2,8.7s7.1-8.8,7.5-8.8c0.4,0,6.9,1.6,6.9,2.1c0,0.5-6.3,8.5-6.3,8.5c1.3,1.7,4.5,6.9,6,9.5
					c0.3-4.5,1-13.5,1.2-13.8c0.1-0.1,0.4-0.1,0.8-0.1c1.9,0,6.5,0.5,6.6,0.6c0.1,0.1-1.7,16-1.9,16.2c0,0-0.2,0.1-0.5,0.1
					c-1.6,0-6.2-0.4-6.3-0.5c0,0,0-0.3,0-0.7c-1.6,0.6-5.1,1.6-6.5,1.6c-0.1,0-0.2,0-0.3,0c-0.3,0-4.4-7.1-4.9-8.1
					c-0.3,0.4-2,2.3-2,2.3l0.1,5.3c-0.5,0.1-3.5,0.2-5.7,0.2c-1.2,0-2.2,0-2.3-0.1c-0.3-0.2-0.9-22.4-0.4-22.9
					C70.4,28.7,72,28.6,73.8,28.6 M37,34.9c0.3,0,0.5,0,0.5,0c0.2,0.1,1.3,16.1,1.1,16.3c-0.1,0.2-5.5,0.6-6.6,0.6
					c-0.1,0-0.2,0-0.2,0c-0.1-0.1-1.9-15.9-1.7-16.3C30.3,35.2,35.3,34.9,37,34.9 M119.3,21.5c-1.5,0-3.7,0.3-4.8,0.4
					c-3.1,0.4-4.2,0.7-5.3,1.5c-2.2,1.6-2.1,3.8-1.9,5.4c0,0.6,0.1,1.3,0.2,2.2c-0.3,0-0.6,0.1-0.8,0.1c0-0.1,0-0.1,0-0.2
					c0.2-2.3-0.5-4.4-2-6c-1.5-1.6-3.8-2.6-6.3-2.8c-0.3,0-0.7,0-1,0c-3.5,0-5.6,1.4-6.7,2.6c-0.1,0.1-0.2,0.2-0.3,0.3
					c-3.6-1-4.3-1-4.8-1c-1.6,0-2.8,0.6-3.7,1.4c-0.5-0.5-1.1-0.7-1.6-0.9c-0.6-0.2-1.4-0.5-6.6-0.5h0c-3.3,0-5.6,0.1-7.3,1.6
					c-1.5,1.3-1.7,2.7-1.7,5.3c-1.2-0.3-2.5-0.5-3.9-0.5c-0.3,0-0.7,0-1,0c0.1-0.5,0.2-0.9,0.3-1.2c0.2-1.6-0.5-3.2-1.9-4.2
					c-0.9-0.6-4.2-2.7-9.6-2.7c-3.2,0-6.1,0.9-8.2,2.6c-1.6-1.8-4.1-2.9-6.9-2.9c-0.3,0-0.6,0-0.9,0c-3.8,0.3-6.5,2-7.6,4.7
					c-0.5-1.2-1.9-2.7-5.1-2.9c-0.5,0-1.1,0-1.8,0l0,0h0c-1.2,0-2.8,0-4.1,0.1c-2.3,0.1-4.5,0.2-6,2.1c-1.1,1.3-1.1,2.2-1.1,6
					c0,1.9-0.1,4.5-0.1,7.3c0,1.1,0,10.5,0.2,12.4c0.2,2.1,2.1,3.8,4.5,4.1c2,0.2,12.3,0.2,12.4,0.2c1.8,0,3.3,0,4.3,0
					c0.6,0,1.1,0,1.5,0c0.2,0,0.3,0,0.4,0c0.5,0.2,1.2,0.3,1.9,0.3c0.8,0,2.7-0.1,4.1-0.2c0.9-0.1,1.7-0.1,2.2-0.2
					c0.3,0,0.7-0.1,1.2-0.2c1.4,0.7,2.9,0.7,4.4,0.7c6.7,0,7.8-0.5,9.1-1.6c0,0,0,0,0.1,0c2.2,1.2,4.9,1.8,7.9,1.8
					c0.6,0,1.2,0,1.8-0.1c1.6-0.1,3.3-0.5,4.8-1c1.5,0.9,3,0.9,5.2,0.9c0.9,0,5.4,0,6.9-0.3c0.7-0.2,1.4-0.4,2-0.8
					c0.7,0.7,1.6,1.2,3,1.4c0.3,0,0.7,0.1,1.1,0.1c1.6,0,3.8-0.5,5.6-1c0.4,0.1,0.8,0.1,1.1,0.2c0.5,0.1,1.2,0.1,1.9,0.2
					c1.1,0.1,3,0.2,4.2,0.2c1.9,0,3.4-0.5,4.4-1.6c2,1.1,4.3,1.7,6.7,1.7c0.5,0,0.9,0,1.4-0.1c1.3-0.1,2.5-0.4,3.5-0.8
					c0,0,0.1,0,0.1,0c0.8,0.2,1.7,0.3,2.7,0.3c1.5,0,3.2-0.2,4.5-0.4c2.4,0.8,5.7,1.3,8.5,1.3c5,0,8-1.7,9.6-3.1
					c2.1-1.9,3.3-4.4,3.3-7.2c0-2.2-0.6-4.1-1.9-5.7c0.2-0.4,0.3-0.7,0.5-1.1c0.6-1.4,1.7-4.3-0.8-6.5l0,0c-2.6-2.2-9.3-2.7-11-2.7
					c-1.6,0-3,0.2-4.2,0.5c-0.1-0.9-0.2-1.7-0.3-2.4c-0.1-0.9-0.2-1.6-0.3-2.1c0-0.3-0.1-0.5-0.1-0.7c-0.4-2.5-2.3-3.5-3.4-3.9l0,0
					C121.1,21.6,120.3,21.5,119.3,21.5L119.3,21.5z"/>
			</g>
			<path fill="#412461" d="M119.3,25.1c0.3,0,0.6,0,0.7,0.1c0.1,0,2,17.8,2.5,23.1c0.5-1.4,1.3-3.1,1.5-3.1c0,0,0,0,0,0
				c0.6,0.2,3,1.6,5.3,1.6c1,0,1.5-0.3,1.5-0.7c0-0.4-0.3-0.8-2.5-1.1c-4-0.6-6-2.3-6-5.1c0-3.8,2.7-5.9,7.6-5.9
				c3.4,0,6.9,1,7.3,1.4c0.4,0.3-1.5,4.5-1.9,4.5c0,0,0,0,0,0c-0.2,0-2.8-1.2-4.7-1.2c-0.9,0-1.3,0.4-1.3,0.8s0.4,0.6,2.1,0.8
				c4.7,0.6,6.5,1.9,6.5,5.2c0,2.9-2.2,5.8-7.7,5.8c-3.7,0-7.4-1.1-7.9-1.5c-0.9,0.2-3.3,0.6-5,0.6c-0.5,0-1,0-1.3-0.1l-0.3-1.5
				c0,0-2,1.8-5.3,2.1c-0.3,0-0.5,0-0.8,0c-3.8,0-7.7-2.6-8.3-7.6c-0.7-5.4,3.7-8.4,7.7-8.8c0.2,0,0.4,0,0.6,0c2.1,0,3.9,1,3.9,1
				s-1.3-9.2-0.9-9.4C112.8,25.7,117.4,25.1,119.3,25.1 M111.8,44.9c0.1,0,0.2,0,0.3,0c1.9-0.2,2.7-1.4,2.5-2.8
				c-0.2-1.3-1.4-2.2-2.8-2.2c-0.1,0-0.2,0-0.3,0c-1.8,0.2-2.5,1.4-2.3,2.8C109.3,44,110.4,44.9,111.8,44.9 M97.5,25.7
				c0.2,0,0.4,0,0.6,0c2.3,0.2,3.8,1.6,3.6,3.9c-0.1,1.5-1.7,2.7-3.7,2.7c-0.1,0-0.3,0-0.4,0c-2.2-0.2-3.6-1.4-3.5-3.4
				C94.1,27.1,94.9,25.7,97.5,25.7 M33.5,25.7c2.1,0,3.6,1.2,3.8,3.4c0.2,1.6-1.3,3-3.6,3.2c-0.2,0-0.3,0-0.5,0c-2,0-3.4-1-3.6-2.9
				c-0.2-2,0.3-3.5,3.4-3.7C33.2,25.7,33.3,25.7,33.5,25.7 M48.6,26c3.5,0,5.6,1.1,6.4,1.7c-0.1,0.9-1.2,4.6-1.5,4.6
				c0,0-0.1,0-0.1,0c-0.6,0-1.6-0.6-2.6-0.6c-1.5,0-1.9,1-1.9,1.8c0,0.3,0,0.5,0,0.6c0.3,0.1,4.2-0.1,4.5,0.4c0,0,0.1,1.5,0.1,2.7
				c1.4-1.7,3.6-2.9,6.6-3.1c0.3,0,0.6,0,0.8,0c4.7,0,7.7,3.1,8,6.6c0.1,1,0.1,2-0.1,2.7c-1.9,0.4-8.1,0.8-10.1,1
				c0.1,1,0.8,1.7,2.7,1.7c0.2,0,0.5,0,0.7,0c1.7-0.1,3.1-0.8,3.9-1.2c0.5,0.4,2.5,3.5,2.6,4.1c-1,0.9-3.5,2-6.4,2.3
				C61.9,51,61.4,51,61,51c-6.3,0-9-3.7-9.4-7.6c-0.1-1.5,0.1-3,0.7-4.3c-1,0.1-2.3,0.1-2.9,0.1c-0.2,0-0.3,0-0.3,0l0,0
				c-0.1,0,0.5,11.2,0.3,11.4c-0.1,0.1-3.3,0.3-5.5,0.3c-1.1,0-1.9,0-2-0.1c-0.3-0.3-0.2-11.1-0.2-11.4c-0.3,0-2.7,0-2.8-0.1
				c-0.1-0.1-0.6-4.3-0.4-4.5c0.2-0.2,3.3-0.5,3.3-0.5s-0.1-1.4-0.1-2.8C41.8,28.9,44.1,26,48.6,26 M58.4,40.7l4.1-0.4
				c-0.1-1-0.7-2-1.9-2c-0.1,0-0.1,0-0.2,0C59.1,38.5,58.2,39.4,58.4,40.7 M18.1,27.5c1.2,0,2.1,0,2.1,0.1
				c0.1,1.3,0.1,14.2-0.1,16.6c1.7-0.1,3.9-0.1,5.8-0.1c1.6,0,3.1,0,3.7,0.1c0.3,1.4,0.4,5.5,0.1,6.3c0,0.1-2.7,0.1-6,0.1
				c-4.7,0-10.8-0.1-11.7-0.2c-0.2-2.2-0.2-22.3,0.1-22.7C12.3,27.7,15.8,27.5,18.1,27.5 M73.8,27.6c2.1,0,4.5,0.1,4.6,0.2
				c0.3,0.1-0.2,8.7-0.2,8.7s7.1-8.8,7.5-8.8c0.4,0,6.9,1.6,6.9,2.1c0,0.5-6.3,8.5-6.3,8.5c1.3,1.7,4.5,6.9,6,9.5
				c0.3-4.5,1-13.5,1.2-13.8c0.1-0.1,0.4-0.1,0.8-0.1c1.9,0,6.5,0.5,6.6,0.6c0.1,0.1-1.7,16-1.9,16.2c0,0-0.2,0.1-0.5,0.1
				c-1.6,0-6.2-0.4-6.3-0.5c0,0,0-0.3,0-0.7c-1.6,0.6-5.1,1.6-6.5,1.6c-0.1,0-0.2,0-0.3,0c-0.3,0-4.4-7.1-4.9-8.1
				c-0.3,0.4-2,2.3-2,2.3l0.1,5.3c-0.5,0.1-3.5,0.2-5.7,0.2c-1.2,0-2.2,0-2.3-0.1c-0.3-0.2-0.9-22.4-0.4-22.9
				C70.4,27.7,72,27.6,73.8,27.6 M37,34c0.3,0,0.5,0,0.5,0c0.2,0.1,1.3,16.1,1.1,16.3c-0.1,0.2-5.5,0.6-6.6,0.6c-0.1,0-0.2,0-0.2,0
				c-0.1-0.1-1.9-15.9-1.7-16.3C30.3,34.2,35.3,34,37,34 M119.3,20.5c-1.5,0-3.7,0.3-4.8,0.4c-3.1,0.4-4.2,0.7-5.3,1.5
				c-2.2,1.6-2.1,3.8-1.9,5.4c0,0.6,0.1,1.3,0.2,2.2c-0.3,0-0.6,0.1-0.8,0.1c0-0.1,0-0.1,0-0.2c0.2-2.3-0.5-4.4-2-6
				c-1.5-1.6-3.8-2.6-6.3-2.8c-0.3,0-0.7,0-1,0c-3.5,0-5.6,1.4-6.7,2.6c-0.1,0.1-0.2,0.2-0.3,0.3c-3.6-1-4.3-1-4.8-1
				c-1.6,0-2.8,0.6-3.7,1.4c-0.5-0.5-1.1-0.7-1.6-0.9c-0.6-0.2-1.4-0.5-6.6-0.5h0c-3.3,0-5.6,0.1-7.3,1.6C65,26,64.8,27.4,64.8,30
				c-1.2-0.3-2.5-0.5-3.9-0.5c-0.3,0-0.7,0-1,0c0.1-0.5,0.2-0.9,0.3-1.2c0.2-1.6-0.5-3.2-1.9-4.2c-0.9-0.6-4.2-2.7-9.6-2.7
				c-3.2,0-6.1,0.9-8.2,2.6c-1.6-1.8-4.1-2.9-6.9-2.9c-0.3,0-0.6,0-0.9,0c-3.8,0.3-6.5,2-7.6,4.7c-0.5-1.2-1.9-2.7-5.1-2.9
				c-0.5,0-1.1,0-1.8,0l0,0h0c-1.2,0-2.8,0-4.1,0.1c-2.3,0.1-4.5,0.2-6,2.1c-1.1,1.3-1.1,2.2-1.1,6c0,1.9-0.1,4.5-0.1,7.3
				c0,1.1,0,10.5,0.2,12.4C7.2,53,9,54.7,11.4,55c2,0.2,12.3,0.2,12.4,0.2c1.8,0,3.3,0,4.3,0c0.6,0,1.1,0,1.5,0c0.2,0,0.3,0,0.4,0
				c0.5,0.2,1.2,0.3,1.9,0.3c0.8,0,2.7-0.1,4.1-0.2c0.9-0.1,1.7-0.1,2.2-0.2c0.3,0,0.7-0.1,1.2-0.2c1.4,0.7,2.9,0.7,4.4,0.7
				c6.7,0,7.8-0.5,9.1-1.6c0,0,0,0,0.1,0c2.2,1.2,4.9,1.8,7.9,1.8c0.6,0,1.2,0,1.8-0.1c1.6-0.1,3.3-0.5,4.8-1c1.5,0.9,3,0.9,5.2,0.9
				c0.9,0,5.4,0,6.9-0.3c0.7-0.2,1.4-0.4,2-0.8c0.7,0.7,1.6,1.2,3,1.4c0.3,0,0.7,0.1,1.1,0.1c1.6,0,3.8-0.5,5.6-1
				c0.4,0.1,0.8,0.1,1.1,0.2c0.5,0.1,1.2,0.1,1.9,0.2c1.1,0.1,3,0.2,4.2,0.2c1.9,0,3.4-0.5,4.4-1.6c2,1.1,4.3,1.7,6.7,1.7
				c0.5,0,0.9,0,1.4-0.1c1.3-0.1,2.5-0.4,3.5-0.8c0,0,0.1,0,0.1,0c0.8,0.2,1.7,0.3,2.7,0.3c1.5,0,3.2-0.2,4.5-0.4
				c2.4,0.8,5.7,1.3,8.5,1.3c5,0,8-1.7,9.6-3.1c2.1-1.9,3.3-4.4,3.3-7.2c0-2.2-0.6-4.1-1.9-5.7c0.2-0.4,0.3-0.7,0.5-1.1
				c0.6-1.4,1.7-4.3-0.8-6.5l0,0c-2.6-2.2-9.3-2.7-11-2.7c-1.6,0-3,0.2-4.2,0.5c-0.1-0.9-0.2-1.7-0.3-2.4c-0.1-0.9-0.2-1.6-0.3-2.1
				c0-0.3-0.1-0.5-0.1-0.7c-0.4-2.5-2.3-3.5-3.4-3.9l0,0C121.1,20.6,120.3,20.5,119.3,20.5L119.3,20.5z"/>
		</g>
		<path fill="#AC1F2D" d="M119.3,25.1c0.3,0,0.6,0,0.7,0.1c0.1,0,2,17.8,2.5,23.1c0.5-1.4,1.3-3.1,1.5-3.1c0,0,0,0,0,0
			c0.6,0.2,3,1.6,5.3,1.6c1,0,1.5-0.3,1.5-0.7c0-0.4-0.3-0.8-2.5-1.1c-4-0.6-6-2.3-6-5.1c0-3.8,2.7-5.9,7.6-5.9c3.4,0,6.9,1,7.3,1.4
			c0.4,0.3-1.5,4.5-1.9,4.5c0,0,0,0,0,0c-0.2,0-2.8-1.2-4.7-1.2c-0.9,0-1.3,0.4-1.3,0.8c0,0.4,0.4,0.6,2.1,0.8
			c4.7,0.6,6.5,1.9,6.5,5.2c0,2.9-2.2,5.8-7.7,5.8c-3.7,0-7.4-1.1-7.9-1.5c-0.9,0.2-3.3,0.6-5,0.6c-0.5,0-1,0-1.3-0.1l-0.3-1.5
			c0,0-2,1.8-5.3,2.1c-0.3,0-0.5,0-0.8,0c-3.8,0-7.7-2.6-8.3-7.6c-0.7-5.4,3.7-8.4,7.7-8.8c0.2,0,0.4,0,0.6,0c2.1,0,3.9,1,3.9,1
			s-1.3-9.2-0.9-9.4C112.8,25.7,117.4,25.1,119.3,25.1 M111.8,44.9c0.1,0,0.2,0,0.3,0c1.9-0.2,2.7-1.4,2.5-2.8
			c-0.2-1.3-1.4-2.2-2.8-2.2c-0.1,0-0.2,0-0.3,0c-1.8,0.2-2.5,1.4-2.3,2.8C109.3,44,110.4,44.9,111.8,44.9 M97.5,25.7
			c0.2,0,0.4,0,0.6,0c2.3,0.2,3.8,1.6,3.6,3.9c-0.1,1.5-1.7,2.7-3.7,2.7c-0.1,0-0.3,0-0.4,0c-2.2-0.2-3.6-1.4-3.5-3.4
			C94.1,27.1,94.9,25.7,97.5,25.7 M33.5,25.7c2.1,0,3.6,1.2,3.8,3.4c0.2,1.6-1.3,3-3.6,3.2c-0.2,0-0.3,0-0.5,0c-2,0-3.4-1-3.6-2.9
			c-0.2-2,0.3-3.5,3.4-3.7C33.2,25.7,33.3,25.7,33.5,25.7 M48.6,26c3.5,0,5.6,1.1,6.4,1.7c-0.1,0.9-1.2,4.6-1.5,4.6c0,0-0.1,0-0.1,0
			c-0.6,0-1.6-0.6-2.6-0.6c-1.5,0-1.9,1-1.9,1.8c0,0.3,0,0.5,0,0.6c0.3,0.1,4.2-0.1,4.5,0.4c0,0,0.1,1.5,0.1,2.7
			c1.4-1.7,3.6-2.9,6.6-3.1c0.3,0,0.6,0,0.8,0c4.7,0,7.7,3.1,8,6.6c0.1,1,0.1,2-0.1,2.7c-1.9,0.4-8.1,0.8-10.1,1
			c0.1,1,0.8,1.7,2.7,1.7c0.2,0,0.5,0,0.7,0c1.7-0.1,3.1-0.8,3.9-1.2c0.5,0.4,2.5,3.5,2.6,4.1c-1,0.9-3.5,2-6.4,2.3
			C61.9,51,61.4,51,61,51c-6.3,0-9-3.7-9.4-7.6c-0.1-1.5,0.1-3,0.7-4.3c-1,0.1-2.3,0.1-2.9,0.1c-0.2,0-0.3,0-0.3,0l0,0
			c-0.1,0,0.5,11.2,0.3,11.4c-0.1,0.1-3.3,0.3-5.5,0.3c-1.1,0-1.9,0-2-0.1c-0.3-0.3-0.2-11.1-0.2-11.4c-0.3,0-2.7,0-2.8-0.1
			c-0.1-0.1-0.6-4.3-0.4-4.5c0.2-0.2,3.3-0.5,3.3-0.5c0,0-0.1-1.4-0.1-2.8C41.8,28.9,44.1,26,48.6,26 M58.4,40.7l4.1-0.4
			c-0.1-1-0.7-2-1.9-2c-0.1,0-0.1,0-0.2,0C59.1,38.5,58.2,39.4,58.4,40.7 M18.1,27.5c1.2,0,2.1,0,2.1,0.1c0.1,1.3,0.1,14.2-0.1,16.6
			c1.7-0.1,3.9-0.1,5.8-0.1c1.6,0,3.1,0,3.7,0.1c0.3,1.4,0.4,5.5,0.1,6.3c0,0.1-2.7,0.1-6,0.1c-4.7,0-10.8-0.1-11.7-0.2
			c-0.2-2.2-0.2-22.3,0.1-22.7C12.3,27.7,15.8,27.5,18.1,27.5 M73.8,27.6c2.1,0,4.5,0.1,4.6,0.2c0.3,0.1-0.2,8.7-0.2,8.7
			s7.1-8.8,7.5-8.8c0.4,0,6.9,1.6,6.9,2.1c0,0.5-6.3,8.5-6.3,8.5c1.3,1.7,4.5,6.9,6,9.5c0.3-4.5,1-13.5,1.2-13.8
			c0.1-0.1,0.4-0.1,0.8-0.1c1.9,0,6.5,0.5,6.6,0.6c0.1,0.1-1.7,16-1.9,16.2c0,0-0.2,0.1-0.5,0.1c-1.6,0-6.2-0.4-6.3-0.5
			c0,0,0-0.3,0-0.7c-1.6,0.6-5.1,1.6-6.5,1.6c-0.1,0-0.2,0-0.3,0c-0.3,0-4.4-7.1-4.9-8.1c-0.3,0.4-2,2.3-2,2.3l0.1,5.3
			c-0.5,0.1-3.5,0.2-5.7,0.2c-1.2,0-2.2,0-2.3-0.1c-0.3-0.2-0.9-22.4-0.4-22.9C70.4,27.7,72,27.6,73.8,27.6 M37,34
			c0.3,0,0.5,0,0.5,0c0.2,0.1,1.3,16.1,1.1,16.3c-0.1,0.2-5.5,0.6-6.6,0.6c-0.1,0-0.2,0-0.2,0c-0.1-0.1-1.9-15.9-1.7-16.3
			C30.3,34.2,35.3,34,37,34 M119.3,23.7c-1,0-6.8,0.5-7.8,1.2c-0.7,0.5-1,0.7,0.1,8.4c-0.6-0.1-1.3-0.2-2-0.2c-0.3,0-0.5,0-0.8,0
			c-2.4,0.2-4.7,1.2-6.4,2.8c0.2-1.8,0.1-1.9-0.3-2.3c-0.3-0.3-0.4-0.4-1.3-0.5c1.3-0.7,2.2-1.9,2.4-3.3c0.1-1.5-0.3-2.8-1.2-3.7
			c-0.9-1-2.2-1.6-3.8-1.7c-0.2,0-0.5,0-0.7,0c-2.8,0-4.4,1.3-4.9,3.7c-0.7-0.3-1.6-0.5-2.8-0.8c-0.3-0.1-3.4-0.9-4.1-0.9
			c-0.8,0-1.1,0-5.8,5.7c0-1.2,0.1-2.1,0.1-2.8c0-1.5,0-2.3-1-2.7c-0.7-0.3-4.8-0.3-5.2-0.3c-3.7,0-4.3,0.3-4.7,0.7
			c-0.5,0.5-0.8,0.7-0.7,8.8c-1.6-1.8-4.2-3.1-7.5-3.1c-0.3,0-0.6,0-1,0c-1.9,0.1-3.6,0.6-5,1.4c0-0.1-0.1-0.2-0.1-0.3
			c-0.1-0.2-0.2-0.3-0.4-0.4c0.7-0.4,1-1.4,1.4-2.7c0.3-0.9,0.6-2.2,0.7-2.8c0.1-0.5-0.1-0.9-0.6-1.2c-1.3-0.9-4-2-7.4-2
			c-5.5,0-8.4,3.5-8.4,6.8c0,0.5,0,1.1,0,1.7c-0.6,0.1-1.1,0.1-1.4,0.2c-0.1-0.1-0.2-0.2-0.4-0.4c-0.4-0.3-0.9-0.3-1.4-0.3
			c0.2-0.1,0.3-0.2,0.4-0.4c1-0.9,1.4-2,1.3-3.2c-0.3-2.8-2.4-4.6-5.4-4.6c-0.2,0-0.4,0-0.5,0c-3.5,0.3-5.1,2-4.8,5.2
			c0.1,1.5,0.9,2.7,2.2,3.4c-0.9,0.2-1.3,0.4-1.6,0.9c-0.3,0.5-0.4,0.6,0.6,9c-0.7,0-1.8-0.1-3.3-0.1c-1.3,0-2.8,0-4.2,0
			c0.1-4.1,0.1-14,0-15.3c0,0,0,0,0-0.1c-0.2-1.2-1.5-1.3-2.1-1.3c-0.4,0-0.9,0-1.6,0c-6.5,0-6.8,0.4-7.2,0.9
			c-0.4,0.4-0.5,0.6-0.5,11.4c0,5,0,10.9,0.2,12.1c0.1,0.6,0.6,1.1,1.3,1.2C13.1,52,19.8,52,23.9,52c1.7,0,3.2,0,4.2,0
			c0.6,0,1,0,1.3,0c0.3,0,0.8,0,1.2-0.3c0.5,0.5,1.1,0.5,1.4,0.5c0.6,0,2.3-0.1,3.8-0.2c3-0.2,3.9-0.3,4.3-1.1c0,0,0.1,0.4,0.7,0.9
			c0.5,0.4,1.1,0.5,3.1,0.5c1,0,2.4,0,3.6-0.1c2.1-0.1,2.5-0.2,3-0.6c0.5-0.5,0.5-0.8,0.4-3.7c0-0.4,0-0.8,0-1.3
			c1.4,3.1,4.5,5.8,10.1,5.8c0.5,0,1,0,1.5-0.1c2.7-0.2,5-1,6.4-1.9c0.1,0.7,0.2,1.1,0.7,1.5c0.4,0.3,0.8,0.4,3.2,0.4
			c1.3,0,5.2-0.1,6-0.2c0.7-0.1,1.2-0.7,1.2-1.3l-0.1-4.8c0.1-0.1,0.1-0.1,0.2-0.2c0.4,0.8,1,1.6,1.5,2.5c0.7,1.1,1.2,2,1.6,2.6
			c0.7,1.2,1.1,1.7,1.9,1.8c0.2,0,0.3,0,0.5,0c1.3,0,3.8-0.6,5.6-1.2c0.5,0.3,1.3,0.3,3.3,0.5c0.6,0.1,2.8,0.2,3.9,0.2
			c0.5,0,1.3,0,1.8-0.6c0.2-0.3,0.3-0.4,0.8-4.1c1.9,3.3,5.4,4.9,8.6,4.9c0.3,0,0.6,0,1,0c1.7-0.2,3.1-0.7,4.1-1.2
			c0.2,0.3,0.5,0.5,0.9,0.5c0.5,0.1,1,0.2,1.7,0.2c1.6,0,3.6-0.3,4.8-0.5c1.6,0.6,4.9,1.4,8.2,1.4c6.8,0,9.3-3.9,9.3-7.2
			c0-2.5-1.1-4-2.6-5c0.2-0.3,0.4-0.6,0.5-0.9c0.3-0.6,0.6-1.3,0.9-1.9c0.6-1.4,0.9-2.5,0.1-3.2l0,0c-1-0.9-5.3-1.8-8.4-1.8
			c-3.2,0-5.7,0.9-7.3,2.4c0-0.2,0-0.3-0.1-0.5c-0.3-2.7-0.6-5-0.7-6.7c-0.1-0.9-0.2-1.6-0.3-2.1c-0.1-0.9-0.2-1.7-1.2-1.9
			C120.1,23.7,119.8,23.7,119.3,23.7L119.3,23.7z M88.2,38.2c2.7-3.4,4.2-5.3,5-6.5c0.2,0.3,0.5,0.6,0.8,0.8c-0.6,0-1.3,0.1-1.7,0.6
			c-0.3,0.4-0.4,0.5-0.9,6c-0.1,1.2-0.2,2.4-0.3,3.6C90.1,41.1,89,39.4,88.2,38.2L88.2,38.2z M111.8,43.6c-0.7,0-1.1-0.6-1.1-1
			c-0.1-1.1,0.6-1.2,1-1.3c0,0,0.1,0,0.1,0c0.7,0,1.2,0.4,1.3,1c0,0.4,0,0.7-0.2,0.9c-0.2,0.2-0.5,0.3-1,0.4
			C111.9,43.6,111.9,43.6,111.8,43.6L111.8,43.6z"/>
		<g>
			<g opacity="0.2">
				<path fill="#231F20" d="M37.5,34.9c0.2,0.1,1.3,16.1,1.1,16.3c-0.1,0.2-6.7,0.6-6.8,0.5c-0.1-0.1-1.9-15.9-1.7-16.3
					C30.3,35.1,37.3,34.8,37.5,34.9z M33.7,33.3c2.3-0.2,3.8-1.6,3.6-3.2c-0.2-2.3-1.9-3.6-4.2-3.4c-3.1,0.2-3.6,1.7-3.4,3.7
					C29.8,32.5,31.5,33.5,33.7,33.3z M97.4,33.3c2.3,0.2,4-1,4.1-2.7c0.2-2.3-1.3-3.8-3.6-3.9c-3.1-0.2-3.9,1.2-4,3.2
					C93.8,31.9,95.2,33.1,97.4,33.3z M20.2,45.2c0.1-2.4,0.2-15.2,0.1-16.6c0-0.3-7.9-0.1-8.1,0.2c-0.3,0.4-0.3,20.5-0.1,22.7
					c1.7,0.2,17.6,0.3,17.7,0.1c0.3-0.8,0.1-4.9-0.1-6.3C28.3,45.1,23.4,45.1,20.2,45.2z M138,46.4c0,2.9-2.2,5.8-7.7,5.8
					c-3.7,0-7.4-1.1-7.9-1.5c-1.1,0.3-4.8,0.9-6.4,0.5l-0.3-1.5c0,0-2,1.8-5.3,2.1c-4,0.4-8.4-2.2-9.1-7.6c-0.7-5.4,3.7-8.4,7.7-8.8
					c2.4-0.2,4.5,0.9,4.5,0.9s-1.3-9.2-0.9-9.4c0.4-0.3,6.6-1.1,7.5-0.8c0.1,0,2,17.8,2.5,23.1c0.5-1.4,1.3-3.2,1.5-3.1
					c0.6,0.2,3,1.6,5.3,1.6c1,0,1.5-0.3,1.5-0.7c0-0.4-0.3-0.8-2.5-1.1c-4-0.6-6-2.3-6-5.1c0-3.8,2.7-5.9,7.6-5.9
					c3.4,0,6.9,1,7.3,1.4c0.4,0.3-1.5,4.5-1.9,4.5c-0.2,0-2.8-1.2-4.7-1.2c-0.9,0-1.3,0.4-1.3,0.8s0.4,0.6,2.1,0.8
					C136.2,41.8,138,43.1,138,46.4z M114.7,43.1c-0.2-1.4-1.6-2.4-3.2-2.2c-1.8,0.2-2.5,1.4-2.3,2.8c0.2,1.4,1.4,2.4,3,2.2
					C114.1,45.7,114.8,44.5,114.7,43.1z M68.9,41.6c0.1,1,0.1,2-0.1,2.7c-1.9,0.4-8.1,0.8-10.1,1c0.1,1.1,1,1.8,3.4,1.6
					c1.7-0.1,3.1-0.8,3.9-1.2c0.5,0.4,2.5,3.5,2.6,4.1c-1,0.9-3.5,2-6.4,2.3c-7.3,0.5-10.3-3.4-10.7-7.6c-0.1-1.5,0.1-3,0.7-4.3
					c-1.2,0.1-3.2,0.1-3.2,0.1c-0.1,0,0.5,11.2,0.3,11.4c-0.2,0.2-7.1,0.4-7.5,0.1c-0.3-0.3-0.2-11.1-0.2-11.4c-0.3,0-2.7,0-2.8-0.1
					c-0.1-0.1-0.6-4.3-0.4-4.5c0.2-0.2,3.3-0.5,3.3-0.5s-0.1-1.4-0.1-2.8c0-2.6,2.3-5.5,6.9-5.5c3.5,0,5.6,1.1,6.4,1.7
					c-0.1,0.9-1.2,4.6-1.5,4.6c-0.5,0.1-1.7-0.6-2.7-0.6c-1.5,0-1.9,1-1.9,1.8c0,0.3,0,0.5,0,0.6c0.3,0.1,4.2-0.1,4.5,0.4
					c0,0,0.1,1.5,0.1,2.7c1.4-1.7,3.6-2.9,6.6-3.1C65.2,34.6,68.6,37.9,68.9,41.6z M62.5,41.3c-0.1-1.1-0.8-2.1-2-2
					c-1.4,0.1-2.2,1-2.1,2.4L62.5,41.3z M93.5,34.9c-0.2,0.3-0.9,9.2-1.2,13.8c-1.5-2.6-4.6-7.9-6-9.5c0,0,6.4-8,6.3-8.5
					c0-0.5-6.6-2.1-6.9-2.1c-0.4,0-7.5,8.8-7.5,8.8s0.4-8.6,0.2-8.7c-0.3-0.1-7.7-0.4-8.2,0.1s0.1,22.7,0.4,22.9
					c0.3,0.2,7.2,0.1,8-0.1l-0.1-5.3c0,0,1.7-1.9,2-2.3c0.5,0.9,4.6,8,4.9,8.1c1.1,0.2,5-0.9,6.8-1.6c0,0.4,0,0.6,0,0.7
					c0.1,0.1,6.6,0.7,6.8,0.4c0.2-0.2,2-16.1,1.9-16.2C100.7,35.3,93.8,34.6,93.5,34.9z"/>
			</g>
			<path fill="#FFDD00" d="M37.5,34c0.2,0.1,1.3,16.1,1.1,16.3c-0.1,0.2-6.7,0.6-6.8,0.5c-0.1-0.1-1.9-15.9-1.7-16.3
				C30.3,34.2,37.3,33.9,37.5,34z M33.7,32.4c2.3-0.2,3.8-1.6,3.6-3.2c-0.2-2.3-1.9-3.6-4.2-3.4c-3.1,0.2-3.6,1.7-3.4,3.7
				C29.8,31.5,31.5,32.5,33.7,32.4z M97.4,32.4c2.3,0.2,4-1,4.1-2.7c0.2-2.3-1.3-3.8-3.6-3.9c-3.1-0.2-3.9,1.2-4,3.2
				C93.8,31,95.2,32.2,97.4,32.4z M20.2,44.3c0.1-2.4,0.2-15.2,0.1-16.6c0-0.3-7.9-0.1-8.1,0.2c-0.3,0.4-0.3,20.5-0.1,22.7
				c1.7,0.2,17.6,0.3,17.7,0.1c0.3-0.8,0.1-4.9-0.1-6.3C28.3,44.1,23.4,44.2,20.2,44.3z M138,45.4c0,2.9-2.2,5.8-7.7,5.8
				c-3.7,0-7.4-1.1-7.9-1.5c-1.1,0.3-4.8,0.9-6.4,0.5l-0.3-1.5c0,0-2,1.8-5.3,2.1c-4,0.4-8.4-2.2-9.1-7.6c-0.7-5.4,3.7-8.4,7.7-8.8
				c2.4-0.2,4.5,0.9,4.5,0.9s-1.3-9.2-0.9-9.4c0.4-0.3,6.6-1.1,7.5-0.8c0.1,0,2,17.8,2.5,23.1c0.5-1.4,1.3-3.2,1.5-3.1
				c0.6,0.2,3,1.6,5.3,1.6c1,0,1.5-0.3,1.5-0.7c0-0.4-0.3-0.8-2.5-1.1c-4-0.6-6-2.3-6-5.1c0-3.8,2.7-5.9,7.6-5.9
				c3.4,0,6.9,1,7.3,1.4c0.4,0.3-1.5,4.5-1.9,4.5c-0.2,0-2.8-1.2-4.7-1.2c-0.9,0-1.3,0.4-1.3,0.8s0.4,0.6,2.1,0.8
				C136.2,40.9,138,42.2,138,45.4z M114.7,42.1c-0.2-1.4-1.6-2.4-3.2-2.2c-1.8,0.2-2.5,1.4-2.3,2.8c0.2,1.4,1.4,2.4,3,2.2
				C114.1,44.7,114.8,43.5,114.7,42.1z M68.9,40.6c0.1,1,0.1,2-0.1,2.7c-1.9,0.4-8.1,0.8-10.1,1c0.1,1.1,1,1.8,3.4,1.6
				c1.7-0.1,3.1-0.8,3.9-1.2c0.5,0.4,2.5,3.5,2.6,4.1c-1,0.9-3.5,2-6.4,2.3c-7.3,0.5-10.3-3.4-10.7-7.6c-0.1-1.5,0.1-3,0.7-4.3
				c-1.2,0.1-3.2,0.1-3.2,0.1c-0.1,0,0.5,11.2,0.3,11.4c-0.2,0.2-7.1,0.4-7.5,0.1c-0.3-0.3-0.2-11.1-0.2-11.4c-0.3,0-2.7,0-2.8-0.1
				c-0.1-0.1-0.6-4.3-0.4-4.5c0.2-0.2,3.3-0.5,3.3-0.5s-0.1-1.4-0.1-2.8c0-2.6,2.3-5.5,6.9-5.5c3.5,0,5.6,1.1,6.4,1.7
				c-0.1,0.9-1.2,4.6-1.5,4.6c-0.5,0.1-1.7-0.6-2.7-0.6c-1.5,0-1.9,1-1.9,1.8c0,0.3,0,0.5,0,0.6c0.3,0.1,4.2-0.1,4.5,0.4
				c0,0,0.1,1.5,0.1,2.7c1.4-1.7,3.6-2.9,6.6-3.1C65.2,33.7,68.6,36.9,68.9,40.6z M62.5,40.4c-0.1-1.1-0.8-2.1-2-2
				c-1.4,0.1-2.2,1-2.1,2.4L62.5,40.4z M93.5,34c-0.2,0.3-0.9,9.2-1.2,13.8c-1.5-2.6-4.6-7.9-6-9.5c0,0,6.4-8,6.3-8.5
				c0-0.5-6.6-2.1-6.9-2.1c-0.4,0-7.5,8.8-7.5,8.8s0.4-8.6,0.2-8.7c-0.3-0.1-7.7-0.4-8.2,0.1c-0.6,0.5,0.1,22.7,0.4,22.9
				c0.3,0.2,7.2,0.1,8-0.1l-0.1-5.3c0,0,1.7-1.9,2-2.3c0.5,0.9,4.6,8,4.9,8.1c1.1,0.2,5-0.9,6.8-1.6c0,0.4,0,0.6,0,0.7
				c0.1,0.1,6.6,0.7,6.8,0.4c0.2-0.2,2-16.1,1.9-16.2C100.7,34.4,93.8,33.6,93.5,34z"/>
		</g>
	</g>
</g>
</svg>
