<?xml version="1.0" encoding="utf-8"?>
<!-- Generator: Adobe Illustrator 18.0.0, SVG Export Plug-In . SVG Version: 6.00 Build 0)  -->
<!DOCTYPE svg PUBLIC "-//W3C//DTD SVG 1.1//EN" "http://www.w3.org/Graphics/SVG/1.1/DTD/svg11.dtd">
<svg version="1.1" id="map" xmlns="http://www.w3.org/2000/svg" xmlns:xlink="http://www.w3.org/1999/xlink" x="0px" y="0px"
	 viewBox="193 18.6 940 430.4" enable-background="new 193 18.6 940 430.4" xml:space="preserve">
<g id="land">
	<path fill="#F6F0EF" d="M179.8,12.3c-0.4,0-0.7,0-1-1.6v442.6l964.1,1.5V12.3H179.8z"/>
</g>
<g id="greenery">
</g>
<g id="smallroads">
	<polyline fill="none" stroke="#F4E6D7" stroke-width="4" stroke-miterlimit="10" points="760.5,397 900,285 887,267.5 775,360 
		786,374.5 	"/>
	<line fill="none" stroke="#F4E6D7" stroke-width="4" stroke-miterlimit="10" x1="803.5" y1="335" x2="815.5" y2="354"/>
	<line fill="none" stroke="#F4E6D7" stroke-width="4" stroke-miterlimit="10" x1="856" y1="294" x2="869" y2="310.5"/>
	<line fill="none" stroke="#F4E6D7" stroke-width="4" stroke-miterlimit="10" x1="805.5" y1="396" x2="740.5" y2="449"/>
	<line fill="none" stroke="#F4E6D7" stroke-width="4" stroke-miterlimit="10" x1="720" y1="435" x2="733.5" y2="452"/>
	<line fill="none" stroke="#F4E6D7" stroke-width="4" stroke-miterlimit="10" x1="698" y1="398" x2="722.5" y2="430"/>
	<polyline fill="none" stroke="#F4E6D7" stroke-width="4" stroke-miterlimit="10" points="702,447.7 667,404 633,432.5 	"/>
	<line fill="none" stroke="#F4E6D7" stroke-width="4" stroke-miterlimit="10" x1="627" y1="426" x2="651" y2="454"/>
	<line fill="none" stroke="#F4E6D7" stroke-width="4" stroke-miterlimit="10" x1="669.5" y1="440.5" x2="655" y2="452.5"/>
	<polyline fill="none" stroke="#F4E6D7" stroke-width="4" stroke-miterlimit="10" points="772.5,449 817.5,415 847,454.5 	"/>
	<path fill="none" stroke="#F4E6D7" stroke-width="4" stroke-miterlimit="10" d="M830,428.5l72.5-58c0,0,34.5-19,2-49.5"/>
	<path fill="none" stroke="#F4E6D7" stroke-width="4" stroke-miterlimit="10" d="M912,330l-64,54.5c0,0-14,8.5,2,28.5"/>
	<path fill="none" stroke="#F4E6D7" stroke-width="4" stroke-miterlimit="10" d="M918.5,347.5c0,0,32.5,5.5,14.5,23.5
		s-21.5,24.5-12.5,37.5s11,16,11,16"/>
	<line fill="none" stroke="#F4E6D7" stroke-width="4" stroke-miterlimit="10" x1="949.5" y1="411.5" x2="901.5" y2="451.5"/>
	<line fill="none" stroke="#F4E6D7" stroke-width="4" stroke-miterlimit="10" x1="919" y1="299.5" x2="987.5" y2="241"/>
	<line fill="none" stroke="#F4E6D7" stroke-width="4" stroke-miterlimit="10" x1="972" y1="224" x2="950.5" y2="243"/>
	<polyline fill="none" stroke="#F4E6D7" stroke-width="4" stroke-miterlimit="10" points="1005,257 934,318.5 945.5,334.5 
		990,295.5 977.5,281.5 	"/>
	<path fill="none" stroke="#F4E6D7" stroke-width="4" stroke-miterlimit="10" d="M1046.5,295.5c-1.5-0.5-15.5,11-24,11
		s-29.5,19-29.5,19L960.5,355c0,0-9.5,7-0.5,18s19.5-3.5,19.5-3.5l44-36.5c0,0,4.5-6,5-13.5s12.5-8.5,10-17.5"/>
	<line fill="none" stroke="#F4E6D7" stroke-width="4" stroke-miterlimit="10" x1="733.5" y1="364" x2="948" y2="183.5"/>
	<polyline fill="none" stroke="#F4E6D7" stroke-width="4" stroke-miterlimit="10" points="849.5,264 798,195 776.5,188 712.5,112 	
		"/>
	<line fill="none" stroke="#F4E6D7" stroke-width="4" stroke-miterlimit="10" x1="723.5" y1="104" x2="659" y2="156"/>
	<polyline fill="none" stroke="#F4E6D7" stroke-width="4" stroke-miterlimit="10" points="711.5,354.5 854,237.5 859,225.5 
		933.5,163 	"/>
	<line fill="none" stroke="#F4E6D7" stroke-width="4" stroke-miterlimit="10" x1="926.5" y1="149" x2="888.5" y2="181.5"/>
	<line fill="none" stroke="#F4E6D7" stroke-width="4" stroke-miterlimit="10" x1="701.5" y1="326.5" x2="819.5" y2="225.5"/>
	<polyline fill="none" stroke="#F4E6D7" stroke-width="4" stroke-miterlimit="10" points="761.5,272.5 746,249.5 835.5,174 847,179 
		915,126.5 	"/>
	<line fill="none" stroke="#F4E6D7" stroke-width="4" stroke-miterlimit="10" x1="821.5" y1="186" x2="833" y2="202"/>
	<polyline fill="none" stroke="#F4E6D7" stroke-width="4" stroke-miterlimit="10" points="672,292.5 727,245 658,165.5 643,175 	"/>
	<polyline fill="none" stroke="#F4E6D7" stroke-width="4" stroke-miterlimit="10" points="664,283 682,271 689.5,278.5 	"/>
	<line fill="none" stroke="#F4E6D7" stroke-width="4" stroke-miterlimit="10" x1="869" y1="115" x2="783" y2="189"/>
	<polyline fill="none" stroke="#F4E6D7" stroke-width="4" stroke-miterlimit="10" points="754,17 816,42 817.5,80.5 846.5,107.5 
		653,270.5 638.5,281 613.5,282.5 543,346.5 555.5,367 	"/>
	<line fill="none" stroke="#F4E6D7" stroke-width="4" stroke-miterlimit="10" x1="674" y1="181" x2="730.5" y2="134.5"/>
	<line fill="none" stroke="#F4E6D7" stroke-width="4" stroke-miterlimit="10" x1="691" y1="202.5" x2="748.5" y2="154.5"/>
	<polyline fill="none" stroke="#F4E6D7" stroke-width="4" stroke-miterlimit="10" points="868,60.5 850.5,73 791,59 768.5,42.5 
		681.5,16.5 613,70 589,79 531.5,126 	"/>
	<line fill="none" stroke="#F4E6D7" stroke-width="4" stroke-miterlimit="10" x1="850.5" y1="73" x2="861.5" y2="88.5"/>
	<line fill="none" stroke="#F4E6D7" stroke-width="4" stroke-miterlimit="10" x1="835.7" y1="68.3" x2="840.5" y2="54"/>
	<path fill="none" stroke="#F4E6D7" stroke-width="4" stroke-miterlimit="10" d="M817.5,80.5c0,0-25,13,2,43.5"/>
	<polyline fill="none" stroke="#F4E6D7" stroke-width="4" stroke-miterlimit="10" points="768.5,42.5 760,69 784,87 779.5,127 
		796,147.5 	"/>
	<polyline fill="none" stroke="#F4E6D7" stroke-width="4" stroke-miterlimit="10" points="719.5,29.5 716.5,59.5 764,117 
		781.5,117.5 	"/>
	<line fill="none" stroke="#F4E6D7" stroke-width="4" stroke-miterlimit="10" x1="744.5" y1="34.5" x2="740.5" y2="49.5"/>
	<line fill="none" stroke="#F4E6D7" stroke-width="4" stroke-miterlimit="10" x1="741" y1="15.5" x2="735.5" y2="32.5"/>
	<line fill="none" stroke="#F4E6D7" stroke-width="4" stroke-miterlimit="10" x1="716.3" y1="56.7" x2="573" y2="175"/>
	<line fill="none" stroke="#F4E6D7" stroke-width="4" stroke-miterlimit="10" x1="585.5" y1="189.5" x2="726" y2="73"/>
	<line fill="none" stroke="#F4E6D7" stroke-width="4" stroke-miterlimit="10" x1="639" y1="146" x2="532" y2="18.6"/>
	<line fill="none" stroke="#F4E6D7" stroke-width="4" stroke-miterlimit="10" x1="518.5" y1="109" x2="554.5" y2="84"/>
	<polyline fill="none" stroke="#F4E6D7" stroke-width="4" stroke-miterlimit="10" points="506.5,95.5 580.5,40.5 588,14.5 	"/>
	<line fill="none" stroke="#F4E6D7" stroke-width="4" stroke-miterlimit="10" x1="549" y1="38" x2="563.5" y2="16.5"/>
	<path fill="none" stroke="#F4E6D7" stroke-width="4" stroke-miterlimit="10" d="M483.5,65.5c1-1.5,40-31,40-31"/>
	<line fill="none" stroke="#F4E6D7" stroke-width="4" stroke-miterlimit="10" x1="598" y1="54" x2="609.5" y2="72"/>
	<polyline fill="none" stroke="#F4E6D7" stroke-width="4" stroke-miterlimit="10" points="631.5,57 610,26.5 613,12.5 	"/>
	<line fill="none" stroke="#F4E6D7" stroke-width="4" stroke-miterlimit="10" x1="651" y1="41.5" x2="631" y2="15.5"/>
	<line fill="none" stroke="#F4E6D7" stroke-width="4" stroke-miterlimit="10" x1="666" y1="26" x2="659.5" y2="15"/>
	<line fill="none" stroke="#F4E6D7" stroke-width="4" stroke-miterlimit="10" x1="486.5" y1="71.5" x2="390" y2="152"/>
	<polyline fill="none" stroke="#F4E6D7" stroke-width="4" stroke-miterlimit="10" points="399.5,145.5 451.5,215.5 472.3,227 
		695.5,37 701,22.5 	"/>
	<line fill="none" stroke="#F4E6D7" stroke-width="4" stroke-miterlimit="10" x1="473.5" y1="228" x2="537" y2="305.5"/>
	<line fill="none" stroke="#F4E6D7" stroke-width="4" stroke-miterlimit="10" x1="621" y1="232.5" x2="461.5" y2="370"/>
	<line fill="none" stroke="#F4E6D7" stroke-width="4" stroke-miterlimit="10" x1="451.5" y1="215.5" x2="402" y2="256.5"/>
	<line fill="none" stroke="#F4E6D7" stroke-width="4" stroke-miterlimit="10" x1="413" y1="166" x2="389.5" y2="185"/>
	<line fill="none" stroke="#F4E6D7" stroke-width="4" stroke-miterlimit="10" x1="428.5" y1="189" x2="388.5" y2="222"/>
	<polyline fill="none" stroke="#F4E6D7" stroke-width="4" stroke-miterlimit="10" points="506.5,328.5 449,260 406.5,295 	"/>
	<path fill="none" stroke="#F4E6D7" stroke-width="4" stroke-miterlimit="10" d="M477.5,354.5c0-1.5-60.5-68.5-60.5-68.5"/>
	<polyline fill="none" stroke="#F4E6D7" stroke-width="4" stroke-miterlimit="10" points="435.5,273.5 467.5,311.5 458,332.5 	"/>
	<line fill="none" stroke="#F4E6D7" stroke-width="4" stroke-miterlimit="10" x1="467.5" y1="311.5" x2="489" y2="306.5"/>
	<line fill="none" stroke="#F4E6D7" stroke-width="4" stroke-miterlimit="10" x1="483" y1="329.5" x2="492.5" y2="341"/>
	<line fill="none" stroke="#F4E6D7" stroke-width="4" stroke-miterlimit="10" x1="596.5" y1="203.5" x2="533.5" y2="256.5"/>
	<path fill="none" stroke="#F4E6D7" stroke-width="4" stroke-miterlimit="10" d="M493.5,251.5c1-1.5,60.5-44,60.5-44"/>
	<line fill="none" stroke="#F4E6D7" stroke-width="4" stroke-miterlimit="10" x1="514" y1="224" x2="519" y2="233"/>
	<line fill="none" stroke="#F4E6D7" stroke-width="4" stroke-miterlimit="10" x1="532" y1="207.5" x2="536" y2="219"/>
	<line fill="none" stroke="#F4E6D7" stroke-width="4" stroke-miterlimit="10" x1="622" y1="271" x2="621.5" y2="282"/>
	<polyline fill="none" stroke="#F4E6D7" stroke-width="4" stroke-miterlimit="10" points="595.5,298 615,320.5 609.5,348.5 
		486.5,450.5 	"/>
	<line fill="none" stroke="#F4E6D7" stroke-width="4" stroke-miterlimit="10" x1="467" y1="407" x2="510.5" y2="457"/>
	<line fill="none" stroke="#F4E6D7" stroke-width="4" stroke-miterlimit="10" x1="544" y1="403" x2="558.5" y2="423.5"/>
	<line fill="none" stroke="#F4E6D7" stroke-width="4" stroke-miterlimit="10" x1="708.5" y1="337" x2="631.5" y2="401"/>
	<polyline fill="none" stroke="#F4E6D7" stroke-width="4" stroke-miterlimit="10" points="902.5,220 911.5,232.5 878,259.5 	"/>
	<polyline fill="none" stroke="#F4E6D7" stroke-width="4" stroke-miterlimit="10" points="1030.5,278.5 1077,204 1077,85.5 	"/>
	<line fill="none" stroke="#F4E6D7" stroke-width="4" stroke-miterlimit="10" x1="1049.5" y1="248" x2="1108.5" y2="248"/>
	<line fill="none" stroke="#F4E6D7" stroke-width="4" stroke-miterlimit="10" x1="1075" y1="179.5" x2="1138" y2="179.5"/>
	<path fill="none" stroke="#F4E6D7" stroke-width="4" stroke-miterlimit="10" d="M1100,179.5c0,1.5,0,38,0,38"/>
	<line fill="none" stroke="#F4E6D7" stroke-width="4" stroke-miterlimit="10" x1="1077" y1="92.7" x2="1137.5" y2="131.5"/>
	<polyline fill="none" stroke="#F4E6D7" stroke-width="4" stroke-miterlimit="10" points="1079,129.5 1099,129.5 1109.5,113 	"/>
	<polyline fill="none" stroke="#F4E6D7" stroke-width="4" stroke-miterlimit="10" points="1077.5,155 1111,155 1128.5,126.5 	"/>
	<line fill="none" stroke="#F4E6D7" stroke-width="4" stroke-miterlimit="10" x1="1116.5" y1="147" x2="1124.2" y2="154.8"/>
</g>
<g id="roads">
	<line fill="none" stroke="#F4D8B3" stroke-width="4" stroke-miterlimit="10" x1="438" y1="15" x2="805" y2="449"/>
	<polyline fill="none" stroke="#F4D8B3" stroke-width="4" stroke-miterlimit="10" points="844,18.6 982,237 1133,376 	"/>
	<line fill="none" stroke="#F4D8B3" stroke-width="4" stroke-miterlimit="10" x1="1136" y1="412" x2="1088" y2="453"/>
	<line fill="none" stroke="#F4D8B3" stroke-width="4" stroke-miterlimit="10" x1="761" y1="398" x2="697" y2="452"/>
	<path fill="none" stroke="#EAB488" stroke-width="6" stroke-miterlimit="10" d="M1133,265c0,0-104,128-136,157s-32,29-32,29"/>
	<path fill="none" stroke="#EAB488" stroke-width="6" stroke-miterlimit="10" d="M1133,294c0,0-96,114-157,158"/>
</g>
<g id="marker">
	<path id="pin_1_" fill="#B9252D" d="M871,191c1-1.6,1.6-3.5,1.6-5.5c0-5.7-4.6-10.4-10.4-10.4c-5.7,0-10.4,4.6-10.4,10.4
		c0,2.2,0.7,4.2,1.8,5.8l8.6,10.4L871,191z"/>
</g>
<text transform="matrix(0.5393 0.8421 -0.8421 0.5393 883.1924 87.8332)" fill="#877C6C" font-family="'HelveticaNeue-Bold'" font-size="10">SAND CREEK RD</text>
<g id="sign_2_">
	<path fill="#FFFFFF" d="M1055.7,367c15.5-5.1,7.6-19.3,7.6-19.3s-4.9,1.1-7.6-0.2h0c-2.7,1.3-7.6,0.2-7.6,0.2
		S1040.2,361.9,1055.7,367L1055.7,367z"/>
	<path fill="#0EA9D6" d="M1063.8,351.8c0,0,3.6,10-8.1,13.9c-11.7-3.9-8.1-13.9-8.1-13.9H1063.8z"/>
	<path fill="#D72631" d="M1055.7,351h7.8c0,0-0.3-1.4-0.8-1.9c0,0-4.2,0.7-7-0.3c-2.9,1-7,0.3-7,0.3c-0.5,0.5-0.8,1.9-0.8,1.9
		H1055.7z"/>
	<text transform="matrix(1 0 0 1 1050.6266 360.0884)" fill="#FFFFFF" font-family="'HelveticaNeue-Bold'" font-size="8.7129">87</text>
</g>
<text transform="matrix(0.6529 0.7574 -0.7574 0.6529 672.7443 299.6498)" fill="#877C6C" font-family="'HelveticaNeue-Bold'" font-size="10">CENTRAL AVE</text>
<text transform="matrix(0.7805 -0.6252 0.6252 0.7805 776.2131 305.4582)" fill="#877C6C" font-family="'HelveticaNeue-Bold'" font-size="10">DELAFIELD DR</text>
</svg>
