<?xml version="1.0" encoding="utf-8"?>
<!-- Generator: Adobe Illustrator 18.0.0, SVG Export Plug-In . SVG Version: 6.00 Build 0)  -->
<!DOCTYPE svg PUBLIC "-//W3C//DTD SVG 1.1//EN" "http://www.w3.org/Graphics/SVG/1.1/DTD/svg11.dtd">
<svg version="1.1" id="map" xmlns="http://www.w3.org/2000/svg" xmlns:xlink="http://www.w3.org/1999/xlink" x="0px" y="0px"
	 viewBox="193 18.6 940 430.4" enable-background="new 193 18.6 940 430.4" xml:space="preserve">
<g id="land">
	<path fill="#F6F0EF" d="M179.8,12.3c-0.4,0-0.7,0-1-1.6v442.6l964.1,1.5V12.3H179.8z"/>
</g>
<g id="greenery">
</g>
<g id="smallroads">
	<polyline fill="none" stroke="#F4E6D7" stroke-width="4" stroke-miterlimit="10" points="958,319 1022,347 1133,347 	"/>
	<line fill="none" stroke="#F4E6D7" stroke-width="4" stroke-miterlimit="10" x1="733" y1="111" x2="733" y2="462"/>
	<line fill="none" stroke="#F4E6D7" stroke-width="4" stroke-miterlimit="10" x1="836" y1="16" x2="836" y2="171"/>
	<line fill="none" stroke="#F4E6D7" stroke-width="4" stroke-miterlimit="10" x1="629" y1="16" x2="629" y2="463"/>
	<line fill="none" stroke="#F4E6D7" stroke-width="4" stroke-miterlimit="10" x1="523" y1="15" x2="523" y2="462"/>
	<line fill="none" stroke="#F4E6D7" stroke-width="4" stroke-miterlimit="10" x1="393" y1="12" x2="393" y2="462"/>
	<line fill="none" stroke="#F4E6D7" stroke-width="4" stroke-miterlimit="10" x1="834" y1="55" x2="193" y2="55"/>
	<line fill="none" stroke="#F4E6D7" stroke-width="4" stroke-miterlimit="10" x1="834" y1="112" x2="628" y2="112"/>
	<line fill="none" stroke="#F4E6D7" stroke-width="4" stroke-miterlimit="10" x1="523" y1="113" x2="188" y2="113"/>
	<line fill="none" stroke="#F4E6D7" stroke-width="4" stroke-miterlimit="10" x1="827" y1="227" x2="193" y2="227"/>
	<line fill="none" stroke="#F4E6D7" stroke-width="4" stroke-miterlimit="10" x1="827" y1="285" x2="193" y2="285"/>
	<line fill="none" stroke="#F4E6D7" stroke-width="4" stroke-miterlimit="10" x1="827" y1="337" x2="193" y2="337"/>
	<line fill="none" stroke="#F4E6D7" stroke-width="4" stroke-miterlimit="10" x1="827" y1="395" x2="193" y2="395"/>
	<line fill="none" stroke="#F4E6D7" stroke-width="4" stroke-miterlimit="10" x1="827" y1="452" x2="193" y2="452"/>
	<line fill="none" stroke="#F4E6D7" stroke-width="4" stroke-miterlimit="10" x1="306" y1="13" x2="306" y2="458.6"/>
	<line fill="none" stroke="#F4E6D7" stroke-width="4" stroke-miterlimit="10" x1="279" y1="111" x2="279" y2="458.6"/>
</g>
<g id="roads">
	<line fill="none" stroke="#F4D8B3" stroke-width="4" stroke-miterlimit="10" x1="193" y1="172" x2="1133" y2="172"/>
	<path fill="none" stroke="#F4D8B3" stroke-width="4" stroke-miterlimit="10" d="M897.7,15c0,0-16.7,38-16.7,162s39,209,39,209"/>
	<path fill="none" stroke="#F4D8B3" stroke-width="4" stroke-miterlimit="10" d="M962.3,11c0,0,22.7,38,22.7,162s-53,209-53,209"/>
	<line fill="none" stroke="#EAB488" stroke-width="6" stroke-miterlimit="10" x1="920" y1="18.6" x2="920" y2="458.6"/>
	<line fill="none" stroke="#EAB488" stroke-width="6" stroke-miterlimit="10" x1="928" y1="18.6" x2="928" y2="458.6"/>
</g>
<g id="marker">
	<path id="pin_1_" fill="#B9252D" d="M875,281.4c1-1.6,1.6-3.5,1.6-5.5c0-5.7-4.6-10.4-10.4-10.4c-5.7,0-10.4,4.6-10.4,10.4
		c0,2.2,0.7,4.2,1.8,5.8l8.6,10.4L875,281.4z"/>
</g>
<text transform="matrix(1 0 0 1 996.3334 176)" fill="#877C6C" font-family="'HelveticaNeue-Bold'" font-size="10">NE 93RD ST</text>
<text transform="matrix(1 0 0 1 811.3334 176)" fill="#877C6C" font-family="'HelveticaNeue-Bold'" font-size="10">NE 93RD ST</text>
<g id="sign">
	<path fill="#FFFFFF" stroke="#231F20" stroke-miterlimit="10" d="M923.9,145.3c11,0,6-9,6-9c2.3-2.2-0.2-6-0.2-6
		c-3.5,2.5-5.7-0.5-5.7-0.5l0,0c0,0-2.3,3-5.8,0.5c0,0-2.5,3.8-0.2,6c0,0-5,9,6,9H923.9z"/>
	<text transform="matrix(1 0 0 1 919.3958 140.7819)" font-family="'MyriadPro-Regular'" font-size="9.1977">77</text>
</g>
<g id="sign_1_">
	<path fill="#FFFFFF" stroke="#231F20" stroke-miterlimit="10" d="M923.9,315.3c11,0,6-9,6-9c2.3-2.2-0.2-6-0.2-6
		c-3.5,2.5-5.7-0.5-5.7-0.5l0,0c0,0-2.3,3-5.8,0.5c0,0-2.5,3.8-0.2,6c0,0-5,9,6,9H923.9z"/>
	<text transform="matrix(1 0 0 1 919.3958 310.7819)" font-family="'MyriadPro-Regular'" font-size="9.1977">77</text>
</g>
</svg>
