<?xml version="1.0" encoding="utf-8"?>
<!-- Generator: Adobe Illustrator 18.0.0, SVG Export Plug-In . SVG Version: 6.00 Build 0)  -->
<!DOCTYPE svg PUBLIC "-//W3C//DTD SVG 1.1//EN" "http://www.w3.org/Graphics/SVG/1.1/DTD/svg11.dtd">
<svg version="1.1" id="map" xmlns="http://www.w3.org/2000/svg" xmlns:xlink="http://www.w3.org/1999/xlink" x="0px" y="0px"
	 viewBox="193 18.6 940 430.4" enable-background="new 193 18.6 940 430.4" xml:space="preserve">
<g id="land">
	<path fill="#F6F0EF" d="M179.8,12.3c-0.4,0-0.7,0-1-1.6v442.6l964.1,1.5V12.3H179.8z"/>
</g>
<g id="greenery">
	<polygon fill="#A2DDF5" points="648.7,451.3 672,398 708,419.3 677.3,452.7 	"/>
	<polyline fill="none" stroke="#A2DDF5" stroke-width="3" stroke-miterlimit="10" points="1133,294.7 1047.3,291.3 1022.7,315.3 
		984,315.3 900,360 731.3,338 724.7,295.3 585.3,304 548.7,349.3 506.7,346.7 455.3,410.7 432,452 	"/>
</g>
<g id="smallroads">
	<polyline fill="none" stroke="#F4E6D7" stroke-width="4" stroke-miterlimit="10" points="900.7,221.3 954.7,221.3 954.7,146.7 
		938.7,122 924,16 	"/>
	<line fill="none" stroke="#F4E6D7" stroke-width="4" stroke-miterlimit="10" x1="986" y1="120" x2="986" y2="186.7"/>
	<polyline fill="none" stroke="#F4E6D7" stroke-width="4" stroke-miterlimit="10" points="1036,186 1046.7,75.3 1030.7,51.3 	"/>
	<polyline fill="none" stroke="#F4E6D7" stroke-width="4" stroke-miterlimit="10" points="1046.7,75.3 1099.3,55.3 1115.3,13.3 	"/>
	<line fill="none" stroke="#F4E6D7" stroke-width="4" stroke-miterlimit="10" x1="1061.3" y1="68" x2="1033.3" y2="13.3"/>
	<line fill="none" stroke="#F4E6D7" stroke-width="4" stroke-miterlimit="10" x1="1104.7" y1="40.7" x2="1140.7" y2="40"/>
	<polyline fill="none" stroke="#F4E6D7" stroke-width="4" stroke-miterlimit="10" points="930,56 944.4,50.6 976.7,38.7 974.7,71.3 
		956,71.3 	"/>
	<polyline fill="none" stroke="#F4E6D7" stroke-width="4" stroke-miterlimit="10" points="934.7,184.7 856.7,164.7 820,127.3 
		833.3,35.3 	"/>
	<line fill="none" stroke="#F4E6D7" stroke-width="4" stroke-miterlimit="10" x1="827.3" y1="59.3" x2="874.7" y2="59.3"/>
	<line fill="none" stroke="#F4E6D7" stroke-width="4" stroke-miterlimit="10" x1="898" y1="141.3" x2="908.7" y2="180.7"/>
	<polyline fill="none" stroke="#F4E6D7" stroke-width="4" stroke-miterlimit="10" points="740,191.3 782.7,154 782.7,16 	"/>
	<polyline fill="none" stroke="#F4E6D7" stroke-width="4" stroke-miterlimit="10" points="739.3,199.3 742.7,238.7 770.7,303.3 
		770.7,449 	"/>
	<polyline fill="none" stroke="#F4E6D7" stroke-width="4" stroke-miterlimit="10" points="864,190.7 808.7,277.3 797.3,311.3 
		797.3,449 	"/>
	<path fill="none" stroke="#F4E6D7" stroke-width="4" stroke-miterlimit="10" d="M768.7,415.3c-0.7-2-48.7-1.3-48.7-1.3l-52-42.7
		l-39.3,85.3"/>
	<path fill="none" stroke="#F4E6D7" stroke-width="4" stroke-miterlimit="10" d="M682,380c2-2.7,20-36,20-36l-38.7,1.3l1.3,10.7"/>
	<path fill="none" stroke="#F4E6D7" stroke-width="4" stroke-miterlimit="10" d="M661.3,385.3c0,0-16-15.3-16.7-17.3
		c-0.7-2-7.3-27.3-7.3-27.3l-24.7-2l8.7,46l24.7,24"/>
	<line fill="none" stroke="#F4E6D7" stroke-width="4" stroke-miterlimit="10" x1="624" y1="449" x2="588" y2="390.7"/>
	<line fill="none" stroke="#F4E6D7" stroke-width="4" stroke-miterlimit="10" x1="588" y1="339.3" x2="588" y2="449"/>
	<path fill="none" stroke="#F4E6D7" stroke-width="4" stroke-miterlimit="10" d="M586.7,424.7c-2,0.7-81.3,27.3-81.3,27.3"/>
	<line fill="none" stroke="#F4E6D7" stroke-width="4" stroke-miterlimit="10" x1="561.3" y1="398.7" x2="561.3" y2="451.3"/>
	<polyline fill="none" stroke="#F4E6D7" stroke-width="4" stroke-miterlimit="10" points="690,228 698.5,167 740,167 740,144.5 
		680.5,144.5 	"/>
	<line fill="none" stroke="#F4E6D7" stroke-width="4" stroke-miterlimit="10" x1="722.5" y1="143" x2="715.5" y2="53.5"/>
	<polyline fill="none" stroke="#F4E6D7" stroke-width="4" stroke-miterlimit="10" points="743,124 688.5,124 688.5,62 716,62 	"/>
	<polyline fill="none" stroke="#F4E6D7" stroke-width="4" stroke-miterlimit="10" points="688,99 766,99 766,60 	"/>
	<line fill="none" stroke="#F4E6D7" stroke-width="4" stroke-miterlimit="10" x1="717" y1="76.5" x2="781.5" y2="76.5"/>
	<line fill="none" stroke="#F4E6D7" stroke-width="4" stroke-miterlimit="10" x1="742" y1="62.5" x2="742" y2="75.5"/>
	<line fill="none" stroke="#F4E6D7" stroke-width="4" stroke-miterlimit="10" x1="651.5" y1="184" x2="662.5" y2="137.5"/>
	<polyline fill="none" stroke="#F4E6D7" stroke-width="4" stroke-miterlimit="10" points="637.5,139.5 637.5,166 655,166 	"/>
	<line fill="none" stroke="#F4E6D7" stroke-width="4" stroke-miterlimit="10" x1="625.5" y1="186.5" x2="625.5" y2="18.6"/>
	<line fill="none" stroke="#F4E6D7" stroke-width="4" stroke-miterlimit="10" x1="584.5" y1="122" x2="667.5" y2="122"/>
	<line fill="none" stroke="#F4E6D7" stroke-width="4" stroke-miterlimit="10" x1="614.5" y1="187.5" x2="614.5" y2="241"/>
	<line fill="none" stroke="#F4E6D7" stroke-width="4" stroke-miterlimit="10" x1="493" y1="187.5" x2="493" y2="285.5"/>
	<line fill="none" stroke="#F4E6D7" stroke-width="4" stroke-miterlimit="10" x1="567.5" y1="269.5" x2="492.5" y2="269.5"/>
	<line fill="none" stroke="#F4E6D7" stroke-width="4" stroke-miterlimit="10" x1="495.5" y1="206" x2="554" y2="206"/>
	<line fill="none" stroke="#F4E6D7" stroke-width="4" stroke-miterlimit="10" x1="532" y1="204.5" x2="532" y2="187"/>
	<polyline fill="none" stroke="#F4E6D7" stroke-width="4" stroke-miterlimit="10" points="509.5,183.5 509.5,63 482.5,63 482.5,169 
		509,169 	"/>
	<line fill="none" stroke="#F4E6D7" stroke-width="4" stroke-miterlimit="10" x1="483" y1="124" x2="507.5" y2="124"/>
	<line fill="none" stroke="#F4E6D7" stroke-width="4" stroke-miterlimit="10" x1="497" y1="62" x2="497" y2="41"/>
	<polyline fill="none" stroke="#F4E6D7" stroke-width="4" stroke-miterlimit="10" points="483,17 483,39 511,39 511,15 	"/>
	<polyline fill="none" stroke="#F4E6D7" stroke-width="4" stroke-miterlimit="10" points="367,385 457.5,385 457.5,311 409.5,222 
		433.5,222 460,289 460,259.5 449,259 	"/>
	<polyline fill="none" stroke="#F4E6D7" stroke-width="4" stroke-miterlimit="10" points="425.5,259 414.5,293 445.5,291.5 	"/>
	<line fill="none" stroke="#F4E6D7" stroke-width="4" stroke-miterlimit="10" x1="367" y1="292.5" x2="419" y2="292.5"/>
	<path fill="none" stroke="#F4E6D7" stroke-width="4" stroke-miterlimit="10" d="M423.5,383.5c0-1.5,0-52.5,0-52.5l31.5-27"/>
	<line fill="none" stroke="#F4E6D7" stroke-width="4" stroke-miterlimit="10" x1="401.5" y1="351" x2="401.5" y2="384.5"/>
	<line fill="none" stroke="#F4E6D7" stroke-width="4" stroke-miterlimit="10" x1="382" y1="352" x2="382" y2="384"/>
	<line fill="none" stroke="#F4E6D7" stroke-width="4" stroke-miterlimit="10" x1="320.5" y1="303" x2="366" y2="303"/>
	<path fill="none" stroke="#F4E6D7" stroke-width="4" stroke-miterlimit="10" d="M348.5,449c0-2,0-45.5,0-45.5H299V451"/>
	<polyline fill="none" stroke="#F4E6D7" stroke-width="4" stroke-miterlimit="10" points="278,449 278,405 220,405 199.5,417.5 	"/>
	<path fill="none" stroke="#F4E6D7" stroke-width="4" stroke-miterlimit="10" d="M223.5,452c-1.5-2-34-46.5-34-46.5"/>
	<line fill="none" stroke="#F4E6D7" stroke-width="4" stroke-miterlimit="10" x1="193" y1="429.5" x2="206.5" y2="429.5"/>
	<line fill="none" stroke="#F4E6D7" stroke-width="4" stroke-miterlimit="10" x1="245" y1="438" x2="278" y2="428"/>
	<polyline fill="none" stroke="#F4E6D7" stroke-width="4" stroke-miterlimit="10" points="250.5,289.5 250.5,385.5 190.5,385.5 	"/>
	<line fill="none" stroke="#F4E6D7" stroke-width="4" stroke-miterlimit="10" x1="249" y1="301.5" x2="193" y2="301.5"/>
	<polyline fill="none" stroke="#F4E6D7" stroke-width="4" stroke-miterlimit="10" points="205,303 205,326 187.5,326 	"/>
	<line fill="none" stroke="#F4E6D7" stroke-width="4" stroke-miterlimit="10" x1="228.5" y1="302" x2="228.5" y2="383.5"/>
	<line fill="none" stroke="#F4E6D7" stroke-width="4" stroke-miterlimit="10" x1="206" y1="352.5" x2="206" y2="383.5"/>
	<line fill="none" stroke="#F4E6D7" stroke-width="4" stroke-miterlimit="10" x1="262" y1="187" x2="262" y2="279"/>
	<rect x="273.5" y="328.5" fill="none" stroke="#F4E6D7" stroke-width="4" stroke-miterlimit="10" width="30" height="21"/>
	<rect x="321.5" y="323.5" fill="none" stroke="#F4E6D7" stroke-width="4" stroke-miterlimit="10" width="35" height="8.5"/>
	<rect x="322.5" y="345.5" fill="none" stroke="#F4E6D7" stroke-width="4" stroke-miterlimit="10" width="33" height="8"/>
	<line fill="none" stroke="#F4E6D7" stroke-width="4" stroke-miterlimit="10" x1="338.5" y1="325.5" x2="338.5" y2="362.5"/>
	<line fill="none" stroke="#F4E6D7" stroke-width="4" stroke-miterlimit="10" x1="365" y1="362.5" x2="265" y2="362.5"/>
	<line fill="none" stroke="#F4E6D7" stroke-width="4" stroke-miterlimit="10" x1="289" y1="351" x2="289" y2="381.5"/>
	<line fill="none" stroke="#F4E6D7" stroke-width="4" stroke-miterlimit="10" x1="276.5" y1="380" x2="350.5" y2="380"/>
</g>
<g id="roads">
	<path fill="none" stroke="#F4D8B3" stroke-width="4" stroke-miterlimit="10" d="M1133,172"/>
	<path fill="none" stroke="#F4D8B3" stroke-width="4" stroke-miterlimit="10" d="M193,172"/>
	<path fill="none" stroke="#EAB488" stroke-width="6" stroke-miterlimit="10" d="M920,458.6"/>
	<path fill="none" stroke="#EAB488" stroke-width="6" stroke-miterlimit="10" d="M920,18.6"/>
	<path fill="none" stroke="#EAB488" stroke-width="6" stroke-miterlimit="10" d="M928,458.6"/>
	<path fill="none" stroke="#EAB488" stroke-width="6" stroke-miterlimit="10" d="M928,18.6"/>
	<polyline fill="none" stroke="#F4D8B3" stroke-width="4" stroke-miterlimit="10" points="193,185 711,185 797,205 887,187 
		1133,187 	"/>
	<line fill="none" stroke="#F4D8B3" stroke-width="4" stroke-miterlimit="10" x1="366" y1="18.6" x2="366" y2="449"/>
	<polyline fill="none" stroke="#EAB488" stroke-width="6" stroke-miterlimit="10" points="819,15 782,300 782,449 	"/>
	<polyline fill="none" stroke="#EAB488" stroke-width="6" stroke-miterlimit="10" points="827,15 790,300 790,449 	"/>
</g>
<g id="marker">
	<path id="pin_1_" fill="#B9252D" d="M875,281.4c1-1.6,1.6-3.5,1.6-5.5c0-5.7-4.6-10.4-10.4-10.4c-5.7,0-10.4,4.6-10.4,10.4
		c0,2.2,0.7,4.2,1.8,5.8l8.6,10.4L875,281.4z"/>
</g>
<text transform="matrix(1 0 0 1 888.3334 191)" fill="#877C6C" font-family="'HelveticaNeue-Bold'" font-size="10">E 2ND ST</text>
<text transform="matrix(1 0 0 1 736.3334 200)" fill="#877C6C" font-family="'HelveticaNeue-Bold'" font-size="10">E 2ND ST</text>
<g id="sign_2_">
	<path fill="#FFFFFF" d="M795.2,237.5c15.5-5.1,7.6-19.3,7.6-19.3s-4.9,1.1-7.6-0.2h0c-2.7,1.3-7.6,0.2-7.6,0.2
		S779.7,232.4,795.2,237.5L795.2,237.5z"/>
	<path fill="#0EA9D6" d="M803.3,222.3c0,0,3.6,10-8.1,13.9c-11.7-3.9-8.1-13.9-8.1-13.9H803.3z"/>
	<path fill="#D72631" d="M795.2,221.5h7.8c0,0-0.3-1.4-0.8-1.9c0,0-4.2,0.6-7-0.3c-2.9,1-7,0.3-7,0.3c-0.5,0.5-0.8,1.9-0.8,1.9
		H795.2z"/>
	<text transform="matrix(1 0 0 1 790.1266 230.5884)" fill="#FFFFFF" font-family="'HelveticaNeue-Bold'" font-size="8.7129">35</text>
</g>
</svg>
