<?xml version="1.0" encoding="utf-8"?>
<!-- Generator: Adobe Illustrator 18.0.0, SVG Export Plug-In . SVG Version: 6.00 Build 0)  -->
<!DOCTYPE svg PUBLIC "-//W3C//DTD SVG 1.1//EN" "http://www.w3.org/Graphics/SVG/1.1/DTD/svg11.dtd">
<svg version="1.1" xmlns="http://www.w3.org/2000/svg" xmlns:xlink="http://www.w3.org/1999/xlink" x="0px" y="0px"
	 viewBox="193 18.6 940 430.4" enable-background="new 193 18.6 940 430.4" xml:space="preserve">
<g id="map">
	<g id="land">
		<path fill="#F6F0EF" d="M179.8,12.3c-0.4,0-0.7,0-1-1.6v442.6l964.1,1.5V12.3H179.8z"/>
	</g>
	<g id="smallroads">
		<path fill="none" stroke="#F4E6D7" stroke-width="4" stroke-miterlimit="10" d="M833.3,178.7c0,0,7.3,13.3,65.3,13.3
			s114.7,0,114.7,0s22-7.3,36.7,30s14,46.7,14,70.7s0,160,0,160"/>
		<path fill="none" stroke="#F4E6D7" stroke-width="4" stroke-miterlimit="10" d="M889.3,191.3l14,113.3c0,0-2.7,23.3,42.7,28
			c45.3,4.7,187,10.7,187,10.7"/>
		<polyline fill="none" stroke="#F4E6D7" stroke-width="4" stroke-miterlimit="10" points="1133,280.7 1108,299.3 1108,449 		"/>
		<path fill="none" stroke="#F4E6D7" stroke-width="4" stroke-miterlimit="10" d="M1109.3,294.7c0,0,3.3-12.7-62-12.7
			c-65.3,0-88.7,0-88.7,0s-50.7-3.3-96,18.7c-45.3,22-107.3,57.3-135.3,91.3S684,451.3,684,451.3"/>
		<polyline fill="none" stroke="#F4E6D7" stroke-width="4" stroke-miterlimit="10" points="1110.7,150.7 1097.3,181.3 1104,288.7 		
			"/>
		<path fill="none" stroke="#F4E6D7" stroke-width="4" stroke-miterlimit="10" d="M1039.3,202c0,0,22-14.7,57.3-11.3"/>
		<polyline fill="none" stroke="#F4E6D7" stroke-width="4" stroke-miterlimit="10" points="894.7,236 1015.3,236 1015.3,283.3 		"/>
		<path fill="none" stroke="#F4E6D7" stroke-width="4" stroke-miterlimit="10" d="M904,393.3c0,0,26-29.3,83.3-13.3
			s76.7,19.3,149.3,19.3"/>
		<path fill="none" stroke="#F4E6D7" stroke-width="4" stroke-miterlimit="10" d="M1060.7,452C986,409.3,934,439.3,934,439.3
			l-32.7,12"/>
		<polyline fill="none" stroke="#F4E6D7" stroke-width="4" stroke-miterlimit="10" points="846.7,334 863.3,406.7 857.3,456.7 		"/>
		<path fill="none" stroke="#F4E6D7" stroke-width="4" stroke-miterlimit="10" d="M796,337.3c0,0,39.3,30.7,19.3,111.7"/>
		<path fill="none" stroke="#F4E6D7" stroke-width="4" stroke-miterlimit="10" d="M760,363.3c0,0,36.7,30,14,89.3"/>
		<path fill="none" stroke="#F4E6D7" stroke-width="4" stroke-miterlimit="10" d="M730,452c0,0,37.3-54.7,132-0.7"/>
		<line fill="none" stroke="#F4E6D7" stroke-width="4" stroke-miterlimit="10" x1="786.7" y1="280" x2="622.7" y2="465.3"/>
		<line fill="none" stroke="#F4E6D7" stroke-width="4" stroke-miterlimit="10" x1="601.3" y1="401.3" x2="585.3" y2="462"/>
		<polyline fill="none" stroke="#F4E6D7" stroke-width="4" stroke-miterlimit="10" points="494.7,454 598.7,348 714,462.7 		"/>
		<line fill="none" stroke="#F4E6D7" stroke-width="4" stroke-miterlimit="10" x1="598.7" y1="348" x2="612.7" y2="12.7"/>
		<polyline fill="none" stroke="#F4E6D7" stroke-width="4" stroke-miterlimit="10" points="382.7,69.3 408,130.7 408,460.7 		"/>
		<line fill="none" stroke="#F4E6D7" stroke-width="4" stroke-miterlimit="10" x1="454" y1="12.7" x2="302" y2="137.3"/>
		<polyline fill="none" stroke="#F4E6D7" stroke-width="4" stroke-miterlimit="10" points="386.7,111.3 470,54.7 512,72.7 		"/>
		<line fill="none" stroke="#F4E6D7" stroke-width="4" stroke-miterlimit="10" x1="436" y1="77.3" x2="444.7" y2="106.7"/>
		<path fill="none" stroke="#F4E6D7" stroke-width="4" stroke-miterlimit="10" d="M498,15.3c0,0,5.3,32,55.3,32.7s95.3-1.3,106,7.3"
			/>
		<path fill="none" stroke="#F4E6D7" stroke-width="4" stroke-miterlimit="10" d="M673.3,14c0,0-14.7,25.3-18.7,63.3
			s-6,137.3-6,137.3s2,36-72,54S444,247.3,363.3,258"/>
		<path fill="none" stroke="#F4E6D7" stroke-width="4" stroke-miterlimit="10" d="M511.3,30.7c0,0-48,35.3-30,82s26,38,19.3,78.7"/>
		<path fill="none" stroke="#F4E6D7" stroke-width="4" stroke-miterlimit="10" d="M406,149.3c2,0.7,134.7,0,134.7,0V46.7"/>
		<path fill="none" stroke="#F4E6D7" stroke-width="4" stroke-miterlimit="10" d="M408.7,187.3c2.7,0.7,134,0,134,0l60.7-18"/>
		<path fill="none" stroke="#F4E6D7" stroke-width="4" stroke-miterlimit="10" d="M582,133.3"/>
		<line fill="none" stroke="#F4E6D7" stroke-width="4" stroke-miterlimit="10" x1="578" y1="132.7" x2="606.7" y2="132.7"/>
		<line fill="none" stroke="#F4E6D7" stroke-width="4" stroke-miterlimit="10" x1="580.7" y1="88.7" x2="610" y2="88.7"/>
		<polyline fill="none" stroke="#F4E6D7" stroke-width="4" stroke-miterlimit="10" points="408.7,222 538.7,234.7 602.7,214 		"/>
		<line fill="none" stroke="#F4E6D7" stroke-width="4" stroke-miterlimit="10" x1="408" y1="298.7" x2="599.3" y2="313.3"/>
		<path fill="none" stroke="#F4E6D7" stroke-width="4" stroke-miterlimit="10" d="M408,334c2.7,0.7,145.3,17.3,145.3,17.3l23.3,18.7
			"/>
		<polyline fill="none" stroke="#F4E6D7" stroke-width="4" stroke-miterlimit="10" points="363.3,366.7 518.7,383.3 544.7,401.3 		
			"/>
		<path fill="none" stroke="#F4E6D7" stroke-width="4" stroke-miterlimit="10" d="M410.7,406c0,0,77.3,4.7,104.7,24.7"/>
		<path fill="none" stroke="#F4E6D7" stroke-width="4" stroke-miterlimit="10" d="M408,440.7c0,0,40,0,58.7,19.3"/>
		<path fill="none" stroke="#F4E6D7" stroke-width="4" stroke-miterlimit="10" d="M650,167.3c0,0,11.3-12,53.3,30s52,55.3,52,55.3"
			/>
		<path fill="none" stroke="#F4E6D7" stroke-width="4" stroke-miterlimit="10" d="M740,236c2.7-1.3,190.7-187.3,190-185.3"/>
		<line fill="none" stroke="#F4E6D7" stroke-width="4" stroke-miterlimit="10" x1="767.3" y1="18.6" x2="884" y2="123.3"/>
		<path fill="none" stroke="#F4E6D7" stroke-width="4" stroke-miterlimit="10" d="M876,22.7l-66,78c0,0-18,21.3,13.3,52"/>
		<path fill="none" stroke="#F4E6D7" stroke-width="4" stroke-miterlimit="10" d="M794.7,16c0,0-32,48-27.3,102
			c4.7,54,26.7,62,26.7,62"/>
		<path fill="none" stroke="#F4E6D7" stroke-width="4" stroke-miterlimit="10" d="M770,88.7c2,0,34-3.3,41.3,8"/>
		<path fill="none" stroke="#F4E6D7" stroke-width="4" stroke-miterlimit="10" d="M751.3,18.6c0,0-27.3,57.4-24.7,92
			c2.7,34.7,5.3,72,42.7,98"/>
		<line fill="none" stroke="#F4E6D7" stroke-width="4" stroke-miterlimit="10" x1="679.3" y1="173.3" x2="712" y2="12.7"/>
		<line fill="none" stroke="#F4E6D7" stroke-width="4" stroke-miterlimit="10" x1="642.7" y1="230" x2="672" y2="256.7"/>
		<path fill="none" stroke="#F4E6D7" stroke-width="4" stroke-miterlimit="10" d="M633.3,242.7l36.7,38l31.3-28
			c0,0-34.7-36-54.7-32.7"/>
		<path fill="none" stroke="#F4E6D7" stroke-width="4" stroke-miterlimit="10" d="M649.3,203.3c0,0,25.3-14,48,15.3
			C720,248,724,255.3,724,255.3l-44,45.3c0,0-31.3-5.3-52-34"/>
		<line fill="none" stroke="#F4E6D7" stroke-width="4" stroke-miterlimit="10" x1="665.3" y1="279.3" x2="660.7" y2="294"/>
		<path fill="none" stroke="#F4E6D7" stroke-width="4" stroke-miterlimit="10" d="M991.3,48c2-0.7,33.3-33.3,33.3-33.3"/>
		<path fill="none" stroke="#F4E6D7" stroke-width="4" stroke-miterlimit="10" d="M1053.3,18.6c3.3,0,64,30.7,36.7,84"/>
		<line fill="none" stroke="#F4E6D7" stroke-width="4" stroke-miterlimit="10" x1="1074.7" y1="72.7" x2="1094.7" y2="72.7"/>
		<line fill="none" stroke="#F4E6D7" stroke-width="4" stroke-miterlimit="10" x1="1044.7" y1="52" x2="1068.7" y2="29.3"/>
	</g>
	<g id="roads">
		<line fill="none" stroke="#F4D8B3" stroke-width="4" stroke-miterlimit="10" x1="995.3" y1="14.7" x2="548" y2="453.3"/>
		<path fill="none" stroke="#F4D8B3" stroke-width="4" stroke-miterlimit="10" d="M754,252l80,72c0,0,42.7,16,65.3,56.7
			c22.7,40.7,43.3,72,43.3,72"/>
		<polyline fill="none" stroke="#F4D8B3" stroke-width="4" stroke-miterlimit="10" points="866.7,16 1083.3,142 1136.7,160.7 		"/>
		<polyline fill="none" stroke="#F4D8B3" stroke-width="4" stroke-miterlimit="10" points="938.7,18.6 1096,104.7 1133,123.3 		"/>
		<line fill="none" stroke="#EAB488" stroke-width="6" stroke-miterlimit="10" x1="911" y1="14" x2="1133" y2="137"/>
		<line fill="none" stroke="#EAB488" stroke-width="6" stroke-miterlimit="10" x1="893" y1="15" x2="1133" y2="147"/>
	</g>
	<g id="marker">
		<path id="pin_1_" fill="#B9252D" d="M875,205c1-1.6,1.6-3.5,1.6-5.5c0-5.7-4.6-10.4-10.4-10.4c-5.7,0-10.4,4.6-10.4,10.4
			c0,2.2,0.7,4.2,1.8,5.8l8.6,10.4L875,205z"/>
	</g>
	
		<text transform="matrix(0.6983 -0.7158 0.7158 0.6983 836.3804 177.8846)" fill="#877C6C" font-family="'HelveticaNeue-Bold'" font-size="10">GRANBURY RD</text>
	
		<text transform="matrix(0.7467 0.6651 -0.6651 0.7467 761.3155 264.6047)" fill="#877C6C" font-family="'HelveticaNeue-Bold'" font-size="10">N WEDGMONT CIR</text>
</g>
<g id="Layer_4">
	<g id="sign_2_">
		<path fill="#FFFFFF" d="M1005.9,82.7c15.5-5.1,7.6-19.3,7.6-19.3s-4.9,1.1-7.6-0.2h0c-2.7,1.3-7.6,0.2-7.6,0.2
			S990.4,77.5,1005.9,82.7L1005.9,82.7z"/>
		<path fill="#0EA9D6" d="M1013.9,67.5c0,0,3.6,10-8.1,13.9c-11.7-3.9-8.1-13.9-8.1-13.9H1013.9z"/>
		<path fill="#D72631" d="M1005.9,66.7h7.8c0,0-0.3-1.4-0.8-1.9c0,0-4.2,0.7-7-0.3c-2.9,1-7,0.3-7,0.3c-0.5,0.5-0.8,1.9-0.8,1.9
			H1005.9z"/>
		<text transform="matrix(1 0 0 1 1000.7932 75.7551)" fill="#FFFFFF" font-family="'HelveticaNeue-Bold'" font-size="8.7129">20</text>
	</g>
</g>
</svg>
