<?xml version="1.0" encoding="utf-8"?>
<!-- Generator: Adobe Illustrator 18.0.0, SVG Export Plug-In . SVG Version: 6.00 Build 0)  -->
<!DOCTYPE svg PUBLIC "-//W3C//DTD SVG 1.1//EN" "http://www.w3.org/Graphics/SVG/1.1/DTD/svg11.dtd">
<svg version="1.1" id="map" xmlns="http://www.w3.org/2000/svg" xmlns:xlink="http://www.w3.org/1999/xlink" x="0px" y="0px"
	 viewBox="193 18.6 940 430.4" enable-background="new 193 18.6 940 430.4" xml:space="preserve">
<g id="land">
	<path fill="#F6F0EF" d="M179.8,12.3c-0.4,0-0.7,0-1-1.6v442.6l964.1,1.5V12.3H179.8z"/>
</g>
<g id="greenery">
	<path opacity="0.5" fill="#DEECD2" d="M771.3,453.3l-3.3-20.7L794,308l12.7-52l-4-32l10-52l12.7-58l38-24l53.3-82.7l-78,7.3
		L664,236l63.3,15.3l-4.7,84c0,0-22,9.3-26.7,32.7s-0.7,41.3-0.7,41.3s8.7,55.3,12.7,54C712,462,771.3,453.3,771.3,453.3z"/>
	<path fill="#A2DDF5" d="M241,97.5c0,0-13-6.5-16,4.5s8.5,10.5,8.5,10.5l15-3L260,95l-13-4.5L241,97.5z"/>
	<path fill="none" stroke="#A2DDF5" stroke-width="2" stroke-miterlimit="10" d="M758.5,16.5c1,1.5,15.5,36,23,44s-2,32.5,6,36.5
		s0.5,17,14,20.5s-0.5,15,18,16.5"/>
	<path fill="#A4DEF5" d="M907.4,17.3c-3.7,8.1-8.7,15.4-13.8,22.7c-10.5,15.2-21,30.4-31.5,45.6c-1.8,2.5-3.5,5.1-5.9,7.2
		c-6,5.4-14.6,6.5-21.5,10.7c-12.2,7.4-16.7,22.6-19.9,36.5c-3.4,14.8-6.4,29.9-7,45.1c-0.2,6.4-0.1,13-1.7,19.2
		c-1.8,6.8-5.8,12.9-7.3,19.8c-2.8,12.3,2.6,25.2,1,37.8c-1.4,10.6-7.6,20.1-8.6,30.7c0,0,0,0,0,0c0.8,0.9,1.1,2,0.7,3.1
		c-0.6,1.9-1.2,3.8-1.7,5.8c-1.5,5.9-2.4,12.1-6,16.9c-3.6,4.8-11,7.6-15.8,3.9c6.5-5.3,11-12.8,12.6-21c-4.1,1.3-6.6,5.2-9.5,8.4
		c-8.7,9.7-23.1,14.1-35.8,10.7c-2.3-8.4-1.9-17.3,0.1-25.8c0.6-2.6,1.4-5.6-0.8-7.8c-0.8-0.8-2-1.3-3.2-1.4
		c-3.1-0.3-5.7,1.5-7.7,3.7c-7.2,8.1-6.4,20.7-12.1,30c-1.7,2.8-4,5.2-5.9,8c-2.7,4.1-4.3,8.8-5.9,13.5c-2.8,8.2-5.6,16.4-8.4,24.7
		c-2.1,6.2-4.3,12.5-7.8,18.1c-3.5,5.6-8.6,10.5-14.8,12.5c-2.5,0.8-5.3,1.1-7.9,0.6c-4-0.9-8.4-3.9-11.8-1.2
		c-2.3,1.8-2.6,5.2-1,7.7c3,4.7,8.5,5.1,13.5,5.7c1.2,0.1,2.5,0.3,3.6,0.9c3.4,1.9,3.3,6.6,3.3,10.5c-0.2,11,3,22.1,8.8,31.4
		c0.5,0.7,1,1.5,1.6,2c1,0.8,2.4,1,3.7,1.1c14,1.6,28.3,0.7,42-2.5c0.9-0.2,1.9-0.5,2.5-1.2c0.8-0.9,0.8-2.2,0.7-3.4
		c-0.6-6.3-2.9-12.3-4.1-18.6c-2.9-15.3,1-30.9,3.7-46.2c0.2-0.9,0.3-2-0.3-2.7c-0.6-0.7-1.8-0.7-2.7-0.7c-8.5,0.6-17,2.2-25.2,4.5
		c-1.1-1.4,0-3.4,1.1-4.8c8.1-10,16.2-20.1,24.3-30.1c6.6-8.2,14-16.9,24.3-18.9c6.6-1.3,13.3,0.4,20,1.1c6.7,0.6,14.2-0.2,18.6-5.2
		c2.5-2.9,3.7-6.7,4.6-10.4c1.9-7.4,3.5-14.9,4.7-22.4c0.2-0.1,0.5-0.3,0.7-0.4c2-1.6,3-4.1,3.8-6.5c2.5-7,4.6-14.1,6.3-21.3
		c0.6-2.6,1.2-5.3,1.1-7.9c-0.1-5.5-2.8-10.6-4-16c-1.5-7.2-0.3-14.6,1-21.8c1.5-8.6,3.1-17.2,4.6-25.8c2.7-15.3,5.4-30.6,8.5-45.9
		c2.7-13.6,6.3-28.1,16.9-37c5.5-4.6,12.5-7.2,18.3-11.4c8.4-6.1,14.2-15.1,19.8-23.8c10.3-16.3,20.7-32.7,31-49
		C907.2,23.3,908.9,20,907.4,17.3z"/>
</g>
<g id="smallroads">
	<line fill="none" stroke="#F4E6D7" stroke-width="4" stroke-miterlimit="10" x1="872" y1="290" x2="904" y2="272.5"/>
	<line fill="none" stroke="#F4E6D7" stroke-width="4" stroke-miterlimit="10" x1="893" y1="253" x2="912" y2="291"/>
	<line fill="none" stroke="#F4E6D7" stroke-width="4" stroke-miterlimit="10" x1="888.5" y1="284" x2="897.5" y2="298"/>
	<path fill="none" stroke="#F4E6D7" stroke-width="4" stroke-miterlimit="10" d="M905,240l12,19.5l36.5-17l45,74.5
		c0,0,13.5,27-17.5,47.5s-66.5,39-66.5,39"/>
	<path fill="none" stroke="#F4E6D7" stroke-width="4" stroke-miterlimit="10" d="M895.5,353c1.5-0.5,21-12.5,21-12.5"/>
	<path fill="none" stroke="#F4E6D7" stroke-width="4" stroke-miterlimit="10" d="M935,449c0,0,20-17.5,82-17.5s103-0.5,103-0.5"/>
	<path fill="none" stroke="#F4E6D7" stroke-width="4" stroke-miterlimit="10" d="M945.5,420l62-39.5c0,0,12.5-8.5,21,2
		s7.5,69,7.5,69"/>
	<line fill="none" stroke="#F4E6D7" stroke-width="4" stroke-miterlimit="10" x1="1010" y1="406" x2="1010" y2="452.5"/>
	<line fill="none" stroke="#F4E6D7" stroke-width="4" stroke-miterlimit="10" x1="987" y1="418" x2="987" y2="449"/>
	<line fill="none" stroke="#F4E6D7" stroke-width="4" stroke-miterlimit="10" x1="954.5" y1="415.5" x2="966" y2="453.5"/>
	<line fill="none" stroke="#F4E6D7" stroke-width="4" stroke-miterlimit="10" x1="1067" y1="450.5" x2="1047" y2="319.5"/>
	<path fill="none" stroke="#F4E6D7" stroke-width="4" stroke-miterlimit="10" d="M1025,328c0,0,30-14.5,85.5-20"/>
	<line fill="none" stroke="#F4E6D7" stroke-width="4" stroke-miterlimit="10" x1="1008.5" y1="301" x2="1069" y2="276"/>
	<path fill="none" stroke="#F4E6D7" stroke-width="4" stroke-miterlimit="10" d="M1133,359l-16-14l-23-153.5l-17-37.5l13.5-86.5
		c0,0,2.5-37.5-15-55.5"/>
	<polyline fill="none" stroke="#F4E6D7" stroke-width="4" stroke-miterlimit="10" points="949.5,68.5 930,58 952,17 	"/>
	<line fill="none" stroke="#F4E6D7" stroke-width="4" stroke-miterlimit="10" x1="948" y1="24" x2="968.5" y2="34.5"/>
	<line fill="none" stroke="#F4E6D7" stroke-width="4" stroke-miterlimit="10" x1="997" y1="162.5" x2="1032.5" y2="153.5"/>
	<polyline fill="none" stroke="#F4E6D7" stroke-width="4" stroke-miterlimit="10" points="943.5,210 989,185 1004.5,239 	"/>
	<polyline fill="none" stroke="#F4E6D7" stroke-width="4" stroke-miterlimit="10" points="1098,216.5 1112,213 1135.5,262 	"/>
	<path fill="none" stroke="#F4E6D7" stroke-width="4" stroke-miterlimit="10" d="M800.5,451.5c-0.5-2-19-94-19-94l20-64.5l-16-26
		l11.5-71"/>
	<path fill="none" stroke="#F4E6D7" stroke-width="4" stroke-miterlimit="10" d="M769,268c0,0,5.5-10.5,16-6.5"/>
	<path fill="none" stroke="#F4E6D7" stroke-width="4" stroke-miterlimit="10" d="M846.5,195c0,0-36.5,10-57.5,2s-39-17.5-39-17.5
		s-16-4.5,1-26s82-128,82-128"/>
	<line fill="none" stroke="#F4E6D7" stroke-width="4" stroke-miterlimit="10" x1="851.5" y1="402.5" x2="834" y2="406.5"/>
	<path fill="none" stroke="#F4E6D7" stroke-width="4" stroke-miterlimit="10" d="M834.5,415.5c0,0,7-17-14.5-11.5s-17,16.5-6.5,19"
		/>
	<path fill="none" stroke="#F4E6D7" stroke-width="4" stroke-miterlimit="10" d="M803.5,418c0,0-23.5,6.5-46.5,0.5
		s-38.5-4-32.5-19.5s25-23.5,25-23.5"/>
	<path fill="none" stroke="#F4E6D7" stroke-width="4" stroke-miterlimit="10" d="M730.5,410.5c0,0,23-30,20.5-41"/>
	<path fill="none" stroke="#F4E6D7" stroke-width="4" stroke-miterlimit="10" d="M788.5,389.5c0,0,35-5.5,34.5-16S810.5,352,810,347
		"/>
	<path fill="none" stroke="#F4E6D7" stroke-width="4" stroke-miterlimit="10" d="M823,373.5c0,0,11.5,5,13.5,15"/>
	<path fill="none" stroke="#F4E6D7" stroke-width="4" stroke-miterlimit="10" d="M823,369.5c0,0,4-5,11,0.5"/>
	<line fill="none" stroke="#F4E6D7" stroke-width="4" stroke-miterlimit="10" x1="637" y1="387.5" x2="656.5" y2="455.5"/>
	<path fill="none" stroke="#F4E6D7" stroke-width="4" stroke-miterlimit="10" d="M624,426.5c3-0.5,24.5-4,24.5-4"/>
	<line fill="none" stroke="#F4E6D7" stroke-width="4" stroke-miterlimit="10" x1="560.5" y1="402.5" x2="556" y2="452.5"/>
	<line fill="none" stroke="#F4E6D7" stroke-width="4" stroke-miterlimit="10" x1="512.5" y1="415" x2="520" y2="451.5"/>
	<line fill="none" stroke="#F4E6D7" stroke-width="4" stroke-miterlimit="10" x1="482.5" y1="419.5" x2="489.5" y2="449"/>
	<path fill="none" stroke="#F4E6D7" stroke-width="4" stroke-miterlimit="10" d="M446.5,430c-0.5,1.5,3,20.5,3,20.5"/>
	<path fill="none" stroke="#F4E6D7" stroke-width="4" stroke-miterlimit="10" d="M424,452c0-3-9-59-9-59l26.5-7.5"/>
	<line fill="none" stroke="#F4E6D7" stroke-width="4" stroke-miterlimit="10" x1="427" y1="369" x2="481.5" y2="351"/>
	<line fill="none" stroke="#F4E6D7" stroke-width="4" stroke-miterlimit="10" x1="448.5" y1="362.5" x2="466" y2="423.5"/>
	<path fill="none" stroke="#F4E6D7" stroke-width="4" stroke-miterlimit="10" d="M552.5,350.5l27,4.5c0,0,26-19.5,37-48.5
		s5-55,35.5-45s51,19,51,19L679,382"/>
	<polyline fill="none" stroke="#F4E6D7" stroke-width="4" stroke-miterlimit="10" points="665.5,268.5 639.5,360.5 683,367.5 	"/>
	<path fill="none" stroke="#F4E6D7" stroke-width="4" stroke-miterlimit="10" d="M367,449c0-1.5-9.5-60-9.5-60l-69,48l-3,19"/>
	<line fill="none" stroke="#F4E6D7" stroke-width="4" stroke-miterlimit="10" x1="288.5" y1="437" x2="302.5" y2="457"/>
	<line fill="none" stroke="#F4E6D7" stroke-width="4" stroke-miterlimit="10" x1="298.5" y1="449" x2="361" y2="412"/>
	<line fill="none" stroke="#F4E6D7" stroke-width="4" stroke-miterlimit="10" x1="323.5" y1="414" x2="338" y2="456.5"/>
	<line fill="none" stroke="#F4E6D7" stroke-width="4" stroke-miterlimit="10" x1="344" y1="423" x2="355" y2="458.5"/>
	<line fill="none" stroke="#F4E6D7" stroke-width="4" stroke-miterlimit="10" x1="233.5" y1="388.5" x2="284.5" y2="399.5"/>
	<path fill="none" stroke="#F4E6D7" stroke-width="4" stroke-miterlimit="10" d="M219.5,408.5C222,409,270,417,270,417"/>
	<path fill="none" stroke="#F4E6D7" stroke-width="4" stroke-miterlimit="10" d="M373.5,326.5c0,0,17-24.5,4-46.5"/>
	<path fill="none" stroke="#F4E6D7" stroke-width="4" stroke-miterlimit="10" d="M319,253.5c0,0,22.5,40,67.5,25.5
		s49.5-21.5,93.5-16.5s83.5,14,83.5,14s44-16,68-37S678,202,678,202s5.5-15-22-19.5s-76.5-23-76.5-23"/>
	<path fill="none" stroke="#F4E6D7" stroke-width="4" stroke-miterlimit="10" d="M625,176.5c0,0-4,23.5,19,32.5"/>
	<path fill="none" stroke="#F4E6D7" stroke-width="4" stroke-miterlimit="10" d="M656,182.5c0,0,5,25.5-25.5,41.5s-37,24-62.5,21
		s-59-8-59-8s-26.5-21.5-60.5-25s-57.5-4.5-57.5-4.5l-63-40l-29.5,3l-54-27"/>
	<path fill="none" stroke="#F4E6D7" stroke-width="4" stroke-miterlimit="10" d="M267.5,156.5c0,0-22,26-3.5,36s30,2.5,34.5-22"/>
	<path fill="none" stroke="#F4E6D7" stroke-width="4" stroke-miterlimit="10" d="M317,254c0,0-11-21-38-19.5s-41-15-41-15"/>
	<path fill="none" stroke="#F4E6D7" stroke-width="4" stroke-miterlimit="10" d="M288,235.5c0,0,3-16.5,18.5-26s27-37,24.5-53.5
		s-6.5-25.5,34-53"/>
	<path fill="none" stroke="#F4E6D7" stroke-width="4" stroke-miterlimit="10" d="M382.5,149.5l-40.5-29c0,0-5.5-36.5-29-44
		s-55-6-73,9"/>
	<path fill="none" stroke="#F4E6D7" stroke-width="4" stroke-miterlimit="10" d="M252.5,117c0,0,19,25,36,18.5s30.5-7,42,0.5"/>
	<line fill="none" stroke="#F4E6D7" stroke-width="4" stroke-miterlimit="10" x1="299" y1="132.5" x2="302.5" y2="143"/>
	<path fill="none" stroke="#F4E6D7" stroke-width="4" stroke-miterlimit="10" d="M243.5,83.5c0,0,10.5,17.5,42,20s40-14,40-14"/>
	<path fill="none" stroke="#F4E6D7" stroke-width="4" stroke-miterlimit="10" d="M246,44.5c1.5,0,131.5,12,131.5,12"/>
	<path fill="none" stroke="#F4E6D7" stroke-width="4" stroke-miterlimit="10" d="M367,56c0,0,8.5,28-13.5,24"/>
	<path fill="none" stroke="#F4E6D7" stroke-width="4" stroke-miterlimit="10" d="M313,76.5c0,0,20.5-27.5-0.5-62.5"/>
	<line fill="none" stroke="#F4E6D7" stroke-width="4" stroke-miterlimit="10" x1="348" y1="40.5" x2="344" y2="54.5"/>
	<line fill="none" stroke="#F4E6D7" stroke-width="4" stroke-miterlimit="10" x1="290" y1="18.6" x2="293" y2="50"/>
	<line fill="none" stroke="#F4E6D7" stroke-width="4" stroke-miterlimit="10" x1="263.5" y1="30" x2="262.5" y2="49"/>
	<path fill="none" stroke="#F4E6D7" stroke-width="4" stroke-miterlimit="10" d="M382.5,117.5l5.5-40l18.5-16
		c0,0,27.5,7.5,40.5,21.5s17,41,46.5,48.5"/>
	<path fill="none" stroke="#F4E6D7" stroke-width="4" stroke-miterlimit="10" d="M386,91c1.5,0,21,16.5,21,16.5"/>
	<path fill="none" stroke="#F4E6D7" stroke-width="4" stroke-miterlimit="10" d="M461,107c0,0-29,9.5-37.5,30.5s-9,32-19,42
		s-13.5,53-13.5,53"/>
	<path fill="none" stroke="#F4E6D7" stroke-width="4" stroke-miterlimit="10" d="M371,244c0,0,1.5-14,31-10l75,10l14-15.5"/>
	<line fill="none" stroke="#F4E6D7" stroke-width="4" stroke-miterlimit="10" x1="525.5" y1="171.5" x2="515.5" y2="267.5"/>
	<polyline fill="none" stroke="#F4E6D7" stroke-width="4" stroke-miterlimit="10" points="522.5,187.5 423,174.5 413,168.5 	"/>
	<line fill="none" stroke="#F4E6D7" stroke-width="4" stroke-miterlimit="10" x1="423.5" y1="140.5" x2="500.5" y2="152.5"/>
	<line fill="none" stroke="#F4E6D7" stroke-width="4" stroke-miterlimit="10" x1="457" y1="133.5" x2="454.5" y2="147.5"/>
	<line fill="none" stroke="#F4E6D7" stroke-width="4" stroke-miterlimit="10" x1="451" y1="86.5" x2="465" y2="67"/>
	<path fill="none" stroke="#F4E6D7" stroke-width="4" stroke-miterlimit="10" d="M441,102c1,2,6,13,6,13"/>
	<polyline fill="none" stroke="#F4E6D7" stroke-width="4" stroke-miterlimit="10" points="450.5,17 489,42.5 511.5,63 618,77.5 	"/>
	<path fill="none" stroke="#F4E6D7" stroke-width="4" stroke-miterlimit="10" d="M518,117.5c0,0-30-11-38.5-42.5s18-42,18-42
		s-4-12.2,8-14.4s20,6.4,13.5,16.9S506,46,498.5,36"/>
	<line fill="none" stroke="#F4E6D7" stroke-width="4" stroke-miterlimit="10" x1="531" y1="67" x2="514" y2="127"/>
	<line fill="none" stroke="#F4E6D7" stroke-width="4" stroke-miterlimit="10" x1="511.5" y1="63" x2="496" y2="104"/>
	<line fill="none" stroke="#F4E6D7" stroke-width="4" stroke-miterlimit="10" x1="544" y1="18.6" x2="540.5" y2="66.5"/>
	<polyline fill="none" stroke="#F4E6D7" stroke-width="4" stroke-miterlimit="10" points="549,69 533,139.5 557.5,144 582,140.5 	
		"/>
	<line fill="none" stroke="#F4E6D7" stroke-width="4" stroke-miterlimit="10" x1="567.5" y1="70.5" x2="550" y2="144"/>
	<path fill="none" stroke="#F4E6D7" stroke-width="4" stroke-miterlimit="10" d="M578.5,88.5C578.5,90,567,140,567,140"/>
	<path fill="none" stroke="#F4E6D7" stroke-width="4" stroke-miterlimit="10" d="M570,53c2.5,0,22.5-1,22.5-1"/>
	<path fill="none" stroke="#F4E6D7" stroke-width="4" stroke-miterlimit="10" d="M555,18.6c0,0,6.5,12.4,47,9.9s152.5-11,152.5-11"
		/>
	<line fill="none" stroke="#F4E6D7" stroke-width="4" stroke-miterlimit="10" x1="638" y1="17" x2="638" y2="25"/>
	<line fill="none" stroke="#F4E6D7" stroke-width="4" stroke-miterlimit="10" x1="701.5" y1="14" x2="704.5" y2="49.5"/>
	<path fill="none" stroke="#F4E6D7" stroke-width="4" stroke-miterlimit="10" d="M588,122l118.5,26.5c0,0,27,1,23.5-25
		s-7.5-49-7.5-49"/>
	<path fill="none" stroke="#F4E6D7" stroke-width="4" stroke-miterlimit="10" d="M611,126.5l8-59.5c0,0,11-25.5,30.5-8
		s27.5,18.5,37,32.5s27,35,46,30.5S763,102.5,765,82.5S779.5,47,736,49s-68-2.5-83.5,14.5"/>
	<path fill="none" stroke="#F4E6D7" stroke-width="4" stroke-miterlimit="10" d="M618,87.5c0,0,30.5-2,48,21s14,32.5,14,32.5"/>
	<line fill="none" stroke="#F4E6D7" stroke-width="4" stroke-miterlimit="10" x1="640" y1="122" x2="639" y2="132"/>
	<path fill="none" stroke="#F4E6D7" stroke-width="4" stroke-miterlimit="10" d="M661.5,105.5c0,0,11-29.5,42-29S742,74,741,51"/>
	<path fill="none" stroke="#F4E6D7" stroke-width="4" stroke-miterlimit="10" d="M775,17c0,0,16,22.5,39-1"/>
	<line fill="none" stroke="#F4E6D7" stroke-width="4" stroke-miterlimit="10" x1="596" y1="203.5" x2="622.5" y2="225.5"/>
	<line fill="none" stroke="#F4E6D7" stroke-width="4" stroke-miterlimit="10" x1="605" y1="212.5" x2="592" y2="223"/>
	<path fill="none" stroke="#F4E6D7" stroke-width="4" stroke-miterlimit="10" d="M675.5,190.5c0,0,9-4.5,22.5-1.5"/>
	<line fill="none" stroke="#F4E6D7" stroke-width="4" stroke-miterlimit="10" x1="678" y1="202" x2="689.5" y2="204.5"/>
	<polyline fill="none" stroke="#F4E6D7" stroke-width="4" stroke-miterlimit="10" points="594.5,164.5 613.5,149.5 712.5,173 	"/>
	<line fill="none" stroke="#F4E6D7" stroke-width="4" stroke-miterlimit="10" x1="661.5" y1="163.5" x2="655.5" y2="185"/>
	<line fill="none" stroke="#F4E6D7" stroke-width="4" stroke-miterlimit="10" x1="606.5" y1="171.5" x2="601" y2="184"/>
	<line fill="none" stroke="#F4E6D7" stroke-width="4" stroke-miterlimit="10" x1="248.5" y1="259.5" x2="298" y2="286"/>
	<line fill="none" stroke="#F4E6D7" stroke-width="4" stroke-miterlimit="10" x1="245.5" y1="311.5" x2="271" y2="330.5"/>
</g>
<g id="roads">
	<path fill="none" stroke="#EAB488" stroke-width="6" stroke-miterlimit="10" d="M1136,167L834,335c0,0-53,35-181,51s-287,67-287,67
		"/>
	<path fill="none" stroke="#F4D8B3" stroke-width="4" stroke-miterlimit="10" d="M977,15c0,0-28,77-69,102s-76,55-54,123
		s83,217,83,217"/>
	<path fill="none" stroke="#F4D8B3" stroke-width="4" stroke-miterlimit="10" d="M589,13c0,0,11,34-3,113s-42,284-42,284"/>
	<line fill="none" stroke="#F4D8B3" stroke-width="4" stroke-miterlimit="10" x1="470" y1="14" x2="191" y2="455"/>
	<path fill="none" stroke="#F4D8B3" stroke-width="4" stroke-miterlimit="10" d="M950,68.5c0,0,82,56.5,85,89.5s0,62,18,85
		s41,108,44,147s2,59,2,59"/>
</g>
<g id="marker">
	<path id="pin_1_" fill="#B9252D" d="M875,205c1-1.6,1.6-3.5,1.6-5.5c0-5.7-4.6-10.4-10.4-10.4c-5.7,0-10.4,4.6-10.4,10.4
		c0,2.2,0.7,4.2,1.8,5.8l8.6,10.4L875,205z"/>
</g>
<text transform="matrix(0.1585 -0.9874 0.9874 0.1585 568.6731 259.8256)" fill="#877C6C" font-family="'HelveticaNeue-Bold'" font-size="10">OLD SHACKLE ISLAND RD</text>
<text transform="matrix(0.3394 0.9406 -0.9406 0.3394 842.5703 219.653)" fill="#877C6C" font-family="'HelveticaNeue-Bold'" font-size="10">INDIAN LAKE RD</text>
<g id="sign">
	<path fill="#FFFFFF" stroke="#231F20" stroke-miterlimit="10" d="M925,293.3c11,0,7-9,7-9c2.3-2.2-0.2-6-0.2-6
		c-3.5,2.5-6.7-0.5-6.7-0.5l0,0c0,0-3.3,3-6.8,0.5c0,0-2.5,3.8-0.2,6c0,0-4,9,7,9H925z"/>
	<text transform="matrix(1 0 0 1 919.1963 288.7819)"><tspan x="0" y="0" font-family="'MyriadPro-Regular'" font-size="9.1978">31</tspan><tspan x="7.6" y="0" font-family="'MyriadPro-Regular'" font-size="9.1978">E</tspan></text>
</g>
</svg>
