<?xml version="1.0" encoding="utf-8"?>
<!-- Generator: Adobe Illustrator 18.0.0, SVG Export Plug-In . SVG Version: 6.00 Build 0)  -->
<!DOCTYPE svg PUBLIC "-//W3C//DTD SVG 1.1//EN" "http://www.w3.org/Graphics/SVG/1.1/DTD/svg11.dtd">
<svg version="1.1" id="map" xmlns="http://www.w3.org/2000/svg" xmlns:xlink="http://www.w3.org/1999/xlink" x="0px" y="0px"
	 viewBox="193 18.6 940 430.4" enable-background="new 193 18.6 940 430.4" xml:space="preserve">
<g id="land">
	<path fill="#F6F0EF" d="M179.8,12.3c-0.4,0-0.7,0-1-1.6v442.6l964.1,1.5V12.3H179.8z"/>
</g>
<g id="greenery">
	<path fill="#A2DDF5" d="M754,451.3l2-24L742,410c0,0,24.7-20,39.3-2.7c14.7,17.3-0.7,44-0.7,44H754z"/>
	<path fill="#A2DDF5" d="M1062,402.7l12,24.7l14-7.3l1.3-14.7C1089.3,405.3,1074.7,391.3,1062,402.7z"/>
	<polygon fill="#A2DDF5" points="852.7,141.3 854,167.3 935.3,165.3 953.3,171.3 971.3,120.7 954.7,124 924.7,144 	"/>
	<polygon fill="#A2DDF5" points="986.7,114.7 1023.3,101.3 1030,114.7 1074,95.3 1076,81.3 1097.3,58.7 1107.3,34.7 1133,41.3 
		1137.3,65.3 1120.7,93.3 1076.7,98.7 1014.7,126 988,121.3 	"/>
	<path fill="#A2DDF5" d="M483.3,370.7l-12.7,22h-17.3l-2-18C451.3,374.7,479.3,348.7,483.3,370.7z"/>
</g>
<g id="smallroads">
	<polyline fill="none" stroke="#F4E6D7" stroke-width="4" stroke-miterlimit="10" points="492,184 492,129.5 584.5,129.5 614,83 
		616.5,15 	"/>
	<line fill="none" stroke="#F4E6D7" stroke-width="4" stroke-miterlimit="10" x1="324" y1="30.5" x2="324" y2="185.5"/>
	<line fill="none" stroke="#F4E6D7" stroke-width="4" stroke-miterlimit="10" x1="217" y1="17.5" x2="217" y2="390"/>
	<polyline fill="none" stroke="#F4E6D7" stroke-width="4" stroke-miterlimit="10" points="191.5,291 321,291 321,394.5 424.5,394.5 
			"/>
	<line fill="none" stroke="#F4E6D7" stroke-width="4" stroke-miterlimit="10" x1="371" y1="289.5" x2="424.5" y2="289.5"/>
	<polyline fill="none" stroke="#F4E6D7" stroke-width="4" stroke-miterlimit="10" points="735,17 771,106.5 771,185 	"/>
	<polyline fill="none" stroke="#F4E6D7" stroke-width="4" stroke-miterlimit="10" points="739,31.5 693.5,38 693.5,25 719,20 
		719,13.5 	"/>
	<path fill="none" stroke="#F4E6D7" stroke-width="4" stroke-miterlimit="10" d="M966,184c1-2,15-73,15-73l-14-27l-36.5,22.5
		c0,0-41,14.5-55.5-15S891.5,27,891.5,27s50,27.5,99.5-10.5"/>
	<path fill="none" stroke="#F4E6D7" stroke-width="4" stroke-miterlimit="10" d="M969,83c0,0,18-8.5,50-14.5s55-15.7,66-49.9"/>
	<line fill="none" stroke="#F4E6D7" stroke-width="4" stroke-miterlimit="10" x1="924" y1="84" x2="930.5" y2="106.5"/>
	<polyline fill="none" stroke="#F4E6D7" stroke-width="4" stroke-miterlimit="10" points="978.5,127 1051,144 1134.5,104.5 	"/>
	<line fill="none" stroke="#F4E6D7" stroke-width="4" stroke-miterlimit="10" x1="1088" y1="128" x2="1096" y2="149"/>
	<line fill="none" stroke="#F4E6D7" stroke-width="4" stroke-miterlimit="10" x1="1006" y1="135.5" x2="1005" y2="164.5"/>
	<polyline fill="none" stroke="#F4E6D7" stroke-width="4" stroke-miterlimit="10" points="732,449 732,418.7 670,418.7 	"/>
</g>
<g id="roads_1_">
	<path fill="none" stroke="#EAB488" stroke-width="6" stroke-miterlimit="10" d="M1207,598"/>
	<path fill="none" stroke="#F4D8B3" stroke-width="4" stroke-miterlimit="10" d="M387,449"/>
	<path fill="none" stroke="#F4D8B3" stroke-width="4" stroke-miterlimit="10" d="M387,16"/>
	<path fill="none" stroke="#F4D8B3" stroke-width="4" stroke-miterlimit="10" d="M821-9"/>
	<path fill="none" stroke="#F4D8B3" stroke-width="4" stroke-miterlimit="10" d="M335-9"/>
	<path fill="none" stroke="#EAB488" stroke-width="6" stroke-miterlimit="10" d="M960,8"/>
	<path fill="none" stroke="#EAB488" stroke-width="6" stroke-miterlimit="10" d="M366,8"/>
	<line fill="none" stroke="#F4D8B3" stroke-width="4" stroke-miterlimit="10" x1="193" y1="185" x2="1133" y2="185"/>
	<path fill="none" stroke="#F4D8B3" stroke-width="4" stroke-miterlimit="10" d="M426,16c0,0-1,434,0,433"/>
	<line fill="none" stroke="#F4D8B3" stroke-width="4" stroke-miterlimit="10" x1="849" y1="187" x2="849" y2="449"/>
	<path fill="none" stroke="#F4D8B3" stroke-width="4" stroke-miterlimit="10" d="M658,34c0,0,16.7,72,16,152s-43.3,178-43.3,178"/>
	<path fill="none" stroke="#F4D8B3" stroke-width="4" stroke-miterlimit="10" d="M647.3,34c-0.7,2-36.7,71.3-44.7,150.7
		s14,178,14,178"/>
	<line fill="none" stroke="#EAB488" stroke-width="6" stroke-miterlimit="10" x1="650" y1="15" x2="610" y2="449"/>
	<line fill="none" stroke="#EAB488" stroke-width="6" stroke-miterlimit="10" x1="660" y1="15" x2="620" y2="449"/>
</g>
<g id="marker">
	<path id="pin_1_" fill="#B9252D" d="M875,205c1-1.6,1.6-3.5,1.6-5.5c0-5.7-4.6-10.4-10.4-10.4c-5.7,0-10.4,4.6-10.4,10.4
		c0,2.2,0.7,4.2,1.8,5.8l8.6,10.4L875,205z"/>
</g>
<text transform="matrix(0 1 -1 0 845.4844 242.089)" fill="#877C6C" font-family="'HelveticaNeue-Bold'" font-size="10">S MAYBELLE AVE</text>
<text transform="matrix(1 0 0 1 782.7048 187.9621)" fill="#877C6C" font-family="'HelveticaNeue-Bold'" font-size="10">W 81ST ST</text>
<g id="sign">
	<path fill="#FFFFFF" stroke="#231F20" stroke-miterlimit="10" d="M641.4,166.3c11,0,6-9,6-9c2.3-2.2-0.2-6-0.2-6
		c-3.5,2.5-5.7-0.5-5.7-0.5l0,0c0,0-2.3,3-5.8,0.5c0,0-2.5,3.8-0.2,6c0,0-5,9,6,9H641.4z"/>
	<text transform="matrix(1 0 0 1 636.8958 161.7819)" font-family="'MyriadPro-Regular'" font-size="9.1978">75</text>
</g>
</svg>
