<?xml version="1.0" encoding="utf-8"?>
<!-- Generator: Adobe Illustrator 18.0.0, SVG Export Plug-In . SVG Version: 6.00 Build 0)  -->
<!DOCTYPE svg PUBLIC "-//W3C//DTD SVG 1.1//EN" "http://www.w3.org/Graphics/SVG/1.1/DTD/svg11.dtd">
<svg version="1.1" id="map" xmlns="http://www.w3.org/2000/svg" xmlns:xlink="http://www.w3.org/1999/xlink" x="0px" y="0px"
	 viewBox="193 18.6 940 430.4" enable-background="new 193 18.6 940 430.4" xml:space="preserve">
<g id="land">
	<path fill="#F6F0EF" d="M179.8,12.3c-0.4,0-0.7,0-1-1.6v442.6l964.1,1.5V12.3H179.8z"/>
</g>
<g id="smallroads">
	<polyline fill="none" stroke="#F4E6D7" stroke-width="4" stroke-miterlimit="10" points="547.5,452.5 547.5,298 572.5,230.5 
		545,125.5 579.5,49.5 579.5,17.5 	"/>
	<path fill="none" stroke="#F4E6D7" stroke-width="4" stroke-miterlimit="10" d="M560.5,257.5c0,0-6-19-59.5-20.5s-85.5,0-85.5,0
		s-28.5-3-28.5-47.5s0-174,0-174"/>
	<line fill="none" stroke="#F4E6D7" stroke-width="4" stroke-miterlimit="10" x1="350" y1="40.5" x2="387.5" y2="40.5"/>
	<line fill="none" stroke="#F4E6D7" stroke-width="4" stroke-miterlimit="10" x1="349" y1="85" x2="387" y2="85"/>
	<path fill="none" stroke="#F4E6D7" stroke-width="4" stroke-miterlimit="10" d="M350.5,128.5c1.5-0.5,36.5,0,36.5,0"/>
	<line fill="none" stroke="#F4E6D7" stroke-width="4" stroke-miterlimit="10" x1="351" y1="175" x2="386.5" y2="175"/>
	<line fill="none" stroke="#F4E6D7" stroke-width="4" stroke-miterlimit="10" x1="351" y1="217" x2="388" y2="217"/>
	<polyline fill="none" stroke="#F4E6D7" stroke-width="4" stroke-miterlimit="10" points="386.5,148 462,148 503,211 503,239 	"/>
	<path fill="none" stroke="#F4E6D7" stroke-width="4" stroke-miterlimit="10" d="M386.5,193.5c3,0,82.5,0,82.5,0l19-6.5"/>
	<polyline fill="none" stroke="#F4E6D7" stroke-width="4" stroke-miterlimit="10" points="527.5,148 679.5,142 679.5,227.5 
		569.5,219.5 	"/>
	<line fill="none" stroke="#F4E6D7" stroke-width="4" stroke-miterlimit="10" x1="552" y1="194.5" x2="562" y2="191"/>
	<path fill="none" stroke="#F4E6D7" stroke-width="4" stroke-miterlimit="10" d="M590.5,144.5c2.5,1.5,11,76.5,11,76.5"/>
	<line fill="none" stroke="#F4E6D7" stroke-width="4" stroke-miterlimit="10" x1="596.5" y1="187" x2="749.5" y2="185"/>
	<path fill="none" stroke="#F4E6D7" stroke-width="4" stroke-miterlimit="10" d="M278,449V331c-1-1.5,2.5-46-21-81.5
		s-30-58-31.5-93.5S189,74.5,189,74.5"/>
	<polyline fill="none" stroke="#F4E6D7" stroke-width="4" stroke-miterlimit="10" points="213.5,329 213.5,394 202,421.5 202,453 	
		"/>
	<polyline fill="none" stroke="#F4E6D7" stroke-width="4" stroke-miterlimit="10" points="240,451.5 240,420.5 368,420.5 368,454.5 
			"/>
	<line fill="none" stroke="#F4E6D7" stroke-width="4" stroke-miterlimit="10" x1="325.5" y1="421.5" x2="325.5" y2="452"/>
	<polyline fill="none" stroke="#F4E6D7" stroke-width="4" stroke-miterlimit="10" points="368,428 478,428 478,458 	"/>
	<polyline fill="none" stroke="#F4E6D7" stroke-width="4" stroke-miterlimit="10" points="279.5,363 341.5,363 341.5,331.5 	"/>
	<line fill="none" stroke="#F4E6D7" stroke-width="4" stroke-miterlimit="10" x1="443.5" y1="331" x2="443.5" y2="238"/>
	<polyline fill="none" stroke="#F4E6D7" stroke-width="4" stroke-miterlimit="10" points="644.5,331 644.5,406 658,419 686,419 
		686,329.5 	"/>
	<line fill="none" stroke="#F4E6D7" stroke-width="4" stroke-miterlimit="10" x1="646.5" y1="375.5" x2="748.5" y2="375.5"/>
	<polyline fill="none" stroke="#F4E6D7" stroke-width="4" stroke-miterlimit="10" points="745.5,421.5 874.5,421.5 874.5,368 
		805,368 	"/>
	<line fill="none" stroke="#F4E6D7" stroke-width="4" stroke-miterlimit="10" x1="805.5" y1="331.5" x2="805.5" y2="422"/>
	<line fill="none" stroke="#F4E6D7" stroke-width="4" stroke-miterlimit="10" x1="850" y1="450.5" x2="850" y2="332"/>
	<line fill="none" stroke="#F4E6D7" stroke-width="4" stroke-miterlimit="10" x1="766.5" y1="422.5" x2="766.5" y2="454.5"/>
	<line fill="none" stroke="#F4E6D7" stroke-width="4" stroke-miterlimit="10" x1="956" y1="331" x2="956" y2="405.5"/>
	<line fill="none" stroke="#F4E6D7" stroke-width="4" stroke-miterlimit="10" x1="932" y1="328" x2="932" y2="272.5"/>
	<polyline fill="none" stroke="#F4E6D7" stroke-width="4" stroke-miterlimit="10" points="1002,330 1002,393.5 956.5,393.5 	"/>
	<path fill="none" stroke="#F4E6D7" stroke-width="4" stroke-miterlimit="10" d="M1001,380c-1.5,0-58,0-58,0v16l30,12.5h61.5"/>
	<polyline fill="none" stroke="#F4E6D7" stroke-width="4" stroke-miterlimit="10" points="975,408.5 975,440.5 1032,440.5 	"/>
	<line fill="none" stroke="#F4E6D7" stroke-width="4" stroke-miterlimit="10" x1="998.5" y1="408.5" x2="998.5" y2="439.5"/>
	<polyline fill="none" stroke="#F4E6D7" stroke-width="4" stroke-miterlimit="10" points="998.5,423 1046.5,423 1046.5,330.5 	"/>
	<path fill="none" stroke="#F4E6D7" stroke-width="4" stroke-miterlimit="10" d="M1046,449c0-1,0-26,0-26"/>
	<polyline fill="none" stroke="#F4E6D7" stroke-width="4" stroke-miterlimit="10" points="1047,437.5 1077.5,437.5 1077.5,453.5 	
		"/>
	<path fill="none" stroke="#F4E6D7" stroke-width="4" stroke-miterlimit="10" d="M1002,393.5c1.5-1,44,0,44,0"/>
	<line fill="none" stroke="#F4E6D7" stroke-width="4" stroke-miterlimit="10" x1="1046.5" y1="403.5" x2="1119" y2="408.5"/>
	<line fill="none" stroke="#F4E6D7" stroke-width="4" stroke-miterlimit="10" x1="1114" y1="454" x2="1121.5" y2="357"/>
	<polyline fill="none" stroke="#F4E6D7" stroke-width="4" stroke-miterlimit="10" points="1137.5,357.5 1080,360.5 1080.5,371.5 
		1119.5,371 	"/>
	<line fill="none" stroke="#F4E6D7" stroke-width="4" stroke-miterlimit="10" x1="1078" y1="331.5" x2="1080" y2="360.5"/>
	<path fill="none" stroke="#F4E6D7" stroke-width="4" stroke-miterlimit="10" d="M1134.5,242c-1.5,0-118,0-118,0v-47.5"/>
	<path fill="none" stroke="#F4E6D7" stroke-width="4" stroke-miterlimit="10" d="M1133,195c-1.5-1-158,0-158,0"/>
	<polyline fill="none" stroke="#F4E6D7" stroke-width="4" stroke-miterlimit="10" points="912.5,130.5 912.5,216 975.5,216 
		975.5,15 	"/>
	<path fill="none" stroke="#F4E6D7" stroke-width="4" stroke-miterlimit="10" d="M912,212.5c-1.5,0-23,0-23,0"/>
	<line fill="none" stroke="#F4E6D7" stroke-width="4" stroke-miterlimit="10" x1="893.5" y1="129" x2="973.5" y2="129"/>
	<polyline fill="none" stroke="#F4E6D7" stroke-width="4" stroke-miterlimit="10" points="1017.5,18.6 1017.5,148 1133,148 	"/>
	<line fill="none" stroke="#F4E6D7" stroke-width="4" stroke-miterlimit="10" x1="1019" y1="104" x2="1133" y2="104"/>
	<line fill="none" stroke="#F4E6D7" stroke-width="4" stroke-miterlimit="10" x1="1019.5" y1="58" x2="1133" y2="58"/>
	<line fill="none" stroke="#F4E6D7" stroke-width="4" stroke-miterlimit="10" x1="1069" y1="32" x2="1069" y2="59.5"/>
	<line fill="none" stroke="#F4E6D7" stroke-width="4" stroke-miterlimit="10" x1="1122.5" y1="33.5" x2="1133" y2="99.5"/>
	<path fill="none" stroke="#F4E6D7" stroke-width="4" stroke-miterlimit="10" d="M748.5,25.5H817L843.5,36H918c0,0,4.5,46.5,0,46.5
		s-79,0-79,0v-50"/>
	<path fill="none" stroke="#F4E6D7" stroke-width="4" stroke-miterlimit="10" d="M750.5,44.5c1.5,0.5,64.5,0,64.5,0l7.5,25.5"/>
	<line fill="none" stroke="#F4E6D7" stroke-width="4" stroke-miterlimit="10" x1="193" y1="89.5" x2="226.5" y2="70.5"/>
	<polyline fill="none" stroke="#F4E6D7" stroke-width="4" stroke-miterlimit="10" points="191.5,45 204,43.5 274.5,54.5 341.5,54.5 
			"/>
	<polyline fill="none" stroke="#F4E6D7" stroke-width="4" stroke-miterlimit="10" points="326.5,53.5 326.5,126 264.5,126 
		222.5,143 	"/>
	<polyline fill="none" stroke="#F4E6D7" stroke-width="4" stroke-miterlimit="10" points="203.5,46 229.5,76.5 253.5,130 	"/>
	<path fill="none" stroke="#F4E6D7" stroke-width="4" stroke-miterlimit="10" d="M241.5,97.5C243,96.5,261,88,261,88h68"/>
</g>
<g id="roads">
	<polyline fill="none" stroke="#F4D8B3" stroke-width="4" stroke-miterlimit="10" points="750,11 750,383 741,455 	"/>
	<line fill="none" stroke="#EAB488" stroke-width="6" stroke-miterlimit="10" x1="193" y1="330" x2="1133" y2="330"/>
</g>
<g id="marker">
	<path id="pin_1_" fill="#B9252D" d="M875,205c1-1.6,1.6-3.5,1.6-5.5c0-5.7-4.6-10.4-10.4-10.4c-5.7,0-10.4,4.6-10.4,10.4
		c0,2.2,0.7,4.2,1.8,5.8l8.6,10.4L875,205z"/>
</g>
<text transform="matrix(1 4.001781e-03 -4.001781e-03 1 803.7953 333.6559)" fill="#877C6C" font-family="'HelveticaNeue-Bold'" font-size="10">KELLER PKWY</text>
<text transform="matrix(4.001781e-03 -1 1 4.001781e-03 753.1082 212.8967)" fill="#877C6C" font-family="'HelveticaNeue-Bold'" font-size="10">N RUFE SNOW DR</text>
</svg>
