<?xml version="1.0" encoding="utf-8"?>
<!-- Generator: Adobe Illustrator 18.0.0, SVG Export Plug-In . SVG Version: 6.00 Build 0)  -->
<!DOCTYPE svg PUBLIC "-//W3C//DTD SVG 1.1//EN" "http://www.w3.org/Graphics/SVG/1.1/DTD/svg11.dtd">
<svg version="1.1" id="map" xmlns="http://www.w3.org/2000/svg" xmlns:xlink="http://www.w3.org/1999/xlink" x="0px" y="0px"
	 viewBox="193 18.6 940 570" enable-background="new 193 18.6 940 570" xml:space="preserve">
<g id="land">
	<path fill="#F6F0EF" d="M179.8,12.8c-0.4,0-0.7,0-1-2.1v585.1l964.1,2V12.8H179.8z"/>
</g>
<g id="greenery">
	<path fill="#DEECD2" d="M325,428c-0.3-1.7,3.3-9,3.3-9l-8.3-17.3l-11.3-21.3l0.7,21l-5.3,9.3L325,428z"/>
	<polygon fill="#DEECD2" points="367,460.3 363.3,454.7 384.7,444 390.7,456.3 382.7,469 	"/>
	<polygon fill="#DEECD2" points="422,436 417.7,457.3 433.7,476.7 480.3,474.7 483.7,461 	"/>
	<path fill="#DEECD2" d="M717,333l2,15.7c0,0,10.7,6.7,11.7,6c1-0.7,16-9.3,16-9.3l-10-23.7l-5,20.7L717,333z"/>
	<path fill="#DEECD2" d="M990,236l2.7,17.3l13.7,14c0,0,3.3,15.3,2.3,15.3s-12.7,0.7-12.7,0.7l-16.7-21l2-25.3L990,236z"/>
</g>
<g id="smallroads">
	<polyline fill="none" stroke="#F4E6D7" stroke-width="4" stroke-miterlimit="10" points="770.4,12.8 775,152.2 781.3,168 
		781.3,239.2 785.4,258.7 785.4,310.4 800.7,334 800.7,416.7 792,429.3 793.3,588.6 	"/>
	<polyline fill="none" stroke="#F4E6D7" stroke-width="4" stroke-miterlimit="10" points="854.6,214.4 849.3,458 814.7,522 
		792.8,522 	"/>
	<polyline fill="none" stroke="#F4E6D7" stroke-width="4" stroke-miterlimit="10" points="685.3,276.1 901.6,277.4 928,296.8 	"/>
	<polyline fill="none" stroke="#F4E6D7" stroke-width="4" stroke-miterlimit="10" points="1048,18.3 1040.7,54.7 1016,98.7 
		1016,152.2 1043.3,152.2 1043.3,105.3 1133,34.7 	"/>
	<line fill="none" stroke="#F4E6D7" stroke-width="4" stroke-miterlimit="10" x1="980" y1="115.5" x2="1131.3" y2="108.3"/>
	<polyline fill="none" stroke="#F4E6D7" stroke-width="4" stroke-miterlimit="10" points="990,115 1066.7,158 1074.5,171.3 
		1133,202.7 	"/>
	<polyline fill="none" stroke="#F4E6D7" stroke-width="4" stroke-miterlimit="10" points="980,168 987.4,214.4 993.4,253.8 
		993.4,301.9 1070,588.6 	"/>
	<polyline fill="none" stroke="#F4E6D7" stroke-width="4" stroke-miterlimit="10" points="1108,189.2 1104,230.7 1038,424 990,591 	
		"/>
	<polyline fill="none" stroke="#F4E6D7" stroke-width="4" stroke-miterlimit="10" points="977,168 972.4,218 1105.6,214.4 	"/>
	<polyline fill="none" stroke="#F4E6D7" stroke-width="4" stroke-miterlimit="10" points="993.4,249.4 1055.7,249.4 1061.5,205.9 
		1020.7,168 	"/>
	<polyline fill="none" stroke="#F4E6D7" stroke-width="4" stroke-miterlimit="10" points="800.7,334 851.9,339.3 901.6,378.3 
		938.2,378.3 	"/>
	<polyline fill="none" stroke="#F4E6D7" stroke-width="4" stroke-miterlimit="10" points="961.6,294.9 961.6,316 938.2,344 
		935.3,498.7 961.6,588.6 	"/>
	<polyline fill="none" stroke="#F4E6D7" stroke-width="4" stroke-miterlimit="10" points="766,81.7 832,70 904.7,81.7 926.7,98.7 	
		"/>
	<polyline fill="none" stroke="#F4E6D7" stroke-width="4" stroke-miterlimit="10" points="302.7,44.6 442,49.3 489.7,65.7 	"/>
	<line fill="none" stroke="#F4E6D7" stroke-width="4" stroke-miterlimit="10" x1="411.3" y1="18.6" x2="396.7" y2="98.7"/>
	<polyline fill="none" stroke="#F4E6D7" stroke-width="4" stroke-miterlimit="10" points="192.6,119.3 389.9,122 396.7,98.7 
		469.3,101.5 496,54.7 775,54.7 800.7,95 926.7,98.7 941.3,113.4 965,115.5 	"/>
	<polyline fill="none" stroke="#F4E6D7" stroke-width="4" stroke-miterlimit="10" points="389.9,122 386,334 366.7,390 397.3,588.6 
			"/>
	<path fill="none" stroke="#F4E6D7" stroke-width="4" stroke-miterlimit="10" d="M515,268.4v58.3l15.7,4c0,0,5.3,55.3,3.3,55.3
		s-19,8.7-19,8.7l5,58.3"/>
	<polyline fill="none" stroke="#F4E6D7" stroke-width="4" stroke-miterlimit="10" points="534,386 593.5,389.8 598.3,279.1 	"/>
</g>
<g id="roads">
	<polyline fill="none" stroke="#F4D8B3" stroke-width="4" stroke-miterlimit="10" points="958.9,130 1089,210 1108,281.9 	"/>
	<polyline fill="none" stroke="#F4D8B3" stroke-width="4" stroke-miterlimit="10" points="1128,18.3 1007,128 1002,168 980,168 
		980,101.5 1015,68 1015,18.3 	"/>
	<line fill="none" stroke="#F4D8B3" stroke-width="4" stroke-miterlimit="10" x1="965" y1="128" x2="971" y2="18.3"/>
	<polyline fill="none" stroke="#F4D8B3" stroke-width="4" stroke-miterlimit="10" points="713.6,75 762,75 783,110 891,122 958,128 
			"/>
	<polyline fill="none" stroke="#F4D8B3" stroke-width="4" stroke-miterlimit="10" points="671.9,300.7 667,326.6 520,453 515,591 	
		"/>
	<polyline fill="none" stroke="#F4D8B3" stroke-width="4" stroke-miterlimit="10" points="685,277.3 671.9,278.3 671.9,300.7 
		781,305 967,294.6 1131.3,278.3 	"/>
	<polyline fill="none" stroke="#F4D8B3" stroke-width="4" stroke-miterlimit="10" points="273,18.3 479,201 513,201 546,275.1 
		635,281.9 648,286.1 692.2,286.1 691.7,248.3 	"/>
	<polyline fill="none" stroke="#F4D8B3" stroke-width="4" stroke-miterlimit="10" points="192.6,323.6 298,305.6 444,268.4 
		645,271.3 654,252.1 759,240.1 897,203 958,128 1137,122 	"/>
	<polyline fill="none" stroke="#F4D8B3" stroke-width="4" stroke-miterlimit="10" points="709.9,12.8 716.7,128 682.3,290 
		682.3,342.5 751.4,518 751.4,591 	"/>
</g>
<g id="marker">
	<path id="pin_1_" fill="#B9252D" d="M683,257.4c1-1.6,1.6-3.5,1.6-5.5c0-5.7-4.6-10.4-10.4-10.4c-5.7,0-10.4,4.6-10.4,10.4
		c0,2.2,0.7,4.2,1.8,5.8l8.6,10.4L683,257.4z"/>
	<text id="id" transform="matrix(1 0 0 1 669.704 256.1449)" fill="#FFFFFF" font-family="'Helvetica-Bold'" font-size="12.4974">A</text>
</g>
<g id="marker_1_">
	<path id="pin_2_" fill="#B9252D" d="M700.4,238.8c1-1.6,1.6-3.5,1.6-5.5c0-5.7-4.6-10.4-10.4-10.4s-10.4,4.6-10.4,10.4
		c0,2.2,0.7,4.2,1.8,5.8l8.6,10.4L700.4,238.8z"/>
	
		<text id="id_1_" transform="matrix(1 0 0 1 687.0546 237.5023)" fill="#FFFFFF" font-family="'Helvetica-Bold'" font-size="12.4974">B</text>
</g>
<g id="marker_2_">
	<path id="pin_3_" fill="#B9252D" d="M702.7,278.7c1-1.6,1.6-3.5,1.6-5.5c0-5.7-4.6-10.4-10.4-10.4s-10.4,4.6-10.4,10.4
		c0,2.2,0.7,4.2,1.8,5.8l8.6,10.4L702.7,278.7z"/>
	
		<text id="id_2_" transform="matrix(1 0 0 1 689.4055 277.434)" fill="#FFFFFF" font-family="'Helvetica-Bold'" font-size="12.4974">C</text>
</g>
<g id="marker_9_">
	<path id="pin_10_" fill="#B9252D" d="M963.3,143.6c1-1.6,1.6-3.5,1.6-5.5c0-5.7-4.6-10.4-10.4-10.4c-5.7,0-10.4,4.6-10.4,10.4
		c0,2.2,0.7,4.2,1.8,5.8l8.6,10.4L963.3,143.6z"/>
	
		<text id="id_9_" transform="matrix(1 0 0 1 951.0029 142.376)" fill="#FFFFFF" font-family="'Helvetica-Bold'" font-size="12.4974">J</text>
</g>
<g id="marker_10_">
	<path id="pin_11_" fill="#B9252D" d="M997.3,89.6c1-1.6,1.6-3.5,1.6-5.5c0-5.7-4.6-10.4-10.4-10.4c-5.7,0-10.4,4.6-10.4,10.4
		c0,2.2,0.7,4.2,1.8,5.8l8.6,10.4L997.3,89.6z"/>
	
		<text id="id_10_" transform="matrix(1 0 0 1 984.0029 88.376)" fill="#FFFFFF" font-family="'Helvetica-Bold'" font-size="12.4974">K</text>
</g>
<g id="marker_8_">
	<path id="pin_9_" fill="#B9252D" d="M1015.2,140.6c1-1.6,1.6-3.5,1.6-5.5c0-5.7-4.6-10.4-10.4-10.4c-5.7,0-10.4,4.6-10.4,10.4
		c0,2.2,0.7,4.2,1.8,5.8l8.6,10.4L1015.2,140.6z"/>
	
		<text id="id_8_" transform="matrix(1 0 0 1 1004.9053 139.376)" fill="#FFFFFF" font-family="'Helvetica-Bold'" font-size="12.4974">I</text>
</g>
<g id="marker_12_">
	<path id="pin_13_" fill="#B9252D" d="M979.7,159.6c1-1.6,1.6-3.5,1.6-5.5c0-5.7-4.6-10.4-10.4-10.4c-5.7,0-10.4,4.6-10.4,10.4
		c0,2.2,0.7,4.2,1.8,5.8l8.6,10.4L979.7,159.6z"/>
	
		<text id="id_12_" transform="matrix(1 0 0 1 966.4053 158.376)" fill="#FFFFFF" font-family="'Helvetica-Bold'" font-size="12.4974">N</text>
</g>
<g id="marker_11_">
	<path id="pin_12_" fill="#B9252D" d="M982.7,128.6c1-1.6,1.6-3.5,1.6-5.5c0-5.7-4.6-10.4-10.4-10.4c-5.7,0-10.4,4.6-10.4,10.4
		c0,2.2,0.7,4.2,1.8,5.8l8.6,10.4L982.7,128.6z"/>
	
		<text id="id_11_" transform="matrix(1 0 0 1 969.4053 128.376)" fill="#FFFFFF" font-family="'Helvetica-Bold'" font-size="12.4974">L</text>
</g>
<g id="marker_5_">
	<path id="pin_6_" fill="#B9252D" d="M667,240.4c1-1.6,1.6-3.5,1.6-5.5c0-5.7-4.6-10.4-10.4-10.4c-5.7,0-10.4,4.6-10.4,10.4
		c0,2.2,0.7,4.2,1.8,5.8l8.6,10.4L667,240.4z"/>
	
		<text id="id_5_" transform="matrix(1 0 0 1 653.6752 239.1765)" fill="#FFFFFF" font-family="'Helvetica-Bold'" font-size="12.4974">F</text>
</g>
<g id="marker_4_">
	<path id="pin_5_" fill="#B9252D" d="M664.3,269.7c1-1.6,1.6-3.5,1.6-5.5c0-5.7-4.6-10.4-10.4-10.4c-5.7,0-10.4,4.6-10.4,10.4
		c0,2.2,0.7,4.2,1.8,5.8l8.6,10.4L664.3,269.7z"/>
	
		<text id="id_4_" transform="matrix(1 0 0 1 650.9738 268.4033)" fill="#FFFFFF" font-family="'Helvetica-Bold'" font-size="12.4974">E</text>
</g>
<g id="marker_7_">
	<path id="pin_8_" fill="#B9252D" d="M644,279c1-1.6,1.6-3.5,1.6-5.5c0-5.7-4.6-10.4-10.4-10.4c-5.7,0-10.4,4.6-10.4,10.4
		c0,2.2,0.7,4.2,1.8,5.8l8.6,10.4L644,279z"/>
	
		<text id="id_7_" transform="matrix(1 0 0 1 630.7037 277.738)" fill="#FFFFFF" font-family="'Helvetica-Bold'" font-size="12.4974">H</text>
</g>
<g id="marker_6_">
	<path id="pin_7_" fill="#B9252D" d="M682,295c1-1.6,1.6-3.5,1.6-5.5c0-5.7-4.6-10.4-10.4-10.4c-5.7,0-10.4,4.6-10.4,10.4
		c0,2.2,0.7,4.2,1.8,5.8l8.6,10.4L682,295z"/>
	
		<text id="id_6_" transform="matrix(1 0 0 1 668.7037 293.738)" fill="#FFFFFF" font-family="'Helvetica-Bold'" font-size="12.4974">G</text>
</g>
<g id="marker_3_">
	<path id="pin_4_" fill="#B9252D" d="M697,313c1-1.6,1.6-3.5,1.6-5.5c0-5.7-4.6-10.4-10.4-10.4c-5.7,0-10.4,4.6-10.4,10.4
		c0,2.2,0.7,4.2,1.8,5.8l8.6,10.4L697,313z"/>
	
		<text id="id_3_" transform="matrix(1 0 0 1 683.7037 311.738)" fill="#FFFFFF" font-family="'Helvetica-Bold'" font-size="12.4974">D</text>
</g>
<g id="marker_13_">
	<path id="pin_14_" fill="#B9252D" d="M783.7,114.6c1-1.6,1.6-3.5,1.6-5.5c0-5.7-4.6-10.4-10.4-10.4c-5.7,0-10.4,4.6-10.4,10.4
		c0,2.2,0.7,4.2,1.8,5.8l8.6,10.4L783.7,114.6z"/>
	
		<text id="id_13_" transform="matrix(1 0 0 1 770.4053 113.376)" fill="#FFFFFF" font-family="'Helvetica-Bold'" font-size="12.4974">O</text>
</g>
<g id="sign">
	<g>
		<path fill="#FFFFFF" d="M815.2,233.6c15.5-5.1,7.6-19.3,7.6-19.3s-4.9,1.1-7.6-0.2h0c-2.7,1.3-7.6,0.2-7.6,0.2
			S799.7,228.5,815.2,233.6L815.2,233.6z"/>
		<path fill="#0EA9D6" d="M823.2,218.5c0,0,3.6,10-8.1,13.9c-11.7-3.9-8.1-13.9-8.1-13.9H823.2z"/>
		<path fill="#D72631" d="M815.2,217.6h7.8c0,0-0.3-1.4-0.8-1.9c0,0-4.2,0.6-7-0.3c-2.9,1-7,0.3-7,0.3c-0.5,0.5-0.8,1.9-0.8,1.9
			H815.2z"/>
		<text transform="matrix(1 0 0 1 810.0958 226.7234)" fill="#FFFFFF" font-family="'HelveticaNeue-Bold'" font-size="8.7129">44</text>
	</g>
	<g>
		<path fill="#FFFFFF" d="M891.2,311c15.5-5.1,7.6-19.3,7.6-19.3s-4.9,1.1-7.6-0.2h0c-2.7,1.3-7.6,0.2-7.6,0.2
			S875.7,305.9,891.2,311L891.2,311z"/>
		<path fill="#0EA9D6" d="M899.3,295.8c0,0,3.6,10-8.1,13.9c-11.7-3.9-8.1-13.9-8.1-13.9H899.3z"/>
		<path fill="#D72631" d="M891.2,295h7.8c0,0-0.3-1.4-0.8-1.9c0,0-4.2,0.7-7-0.3c-2.9,1-7,0.3-7,0.3c-0.5,0.5-0.8,1.9-0.8,1.9H891.2
			z"/>
		<text transform="matrix(1 0 0 1 886.1266 304.0884)" fill="#FFFFFF" font-family="'HelveticaNeue-Bold'" font-size="8.7129">40</text>
	</g>
	<g>
		<path fill="#FFFFFF" d="M630.5,366.3c15.5-5.1,7.6-19.3,7.6-19.3s-4.9,1.1-7.6-0.2h0c-2.7,1.3-7.6,0.2-7.6,0.2
			S615.1,361.2,630.5,366.3L630.5,366.3z"/>
		<path fill="#0EA9D6" d="M638.6,351.2c0,0,3.6,10-8.1,13.9c-11.7-3.9-8.1-13.9-8.1-13.9H638.6z"/>
		<path fill="#D72631" d="M630.5,350.3h7.8c0,0-0.3-1.4-0.8-1.9c0,0-4.2,0.6-7-0.3c-2.9,1-7,0.3-7,0.3c-0.5,0.5-0.8,1.9-0.8,1.9
			H630.5z"/>
		<text transform="matrix(1 0 0 1 625.4599 359.4218)" fill="#FFFFFF" font-family="'HelveticaNeue-Bold'" font-size="8.7129">44</text>
	</g>
	<g>
		<path fill="#FFFFFF" d="M706.2,181c15.5-5.1,7.6-19.3,7.6-19.3s-4.9,1.1-7.6-0.2h0c-2.7,1.3-7.6,0.2-7.6,0.2
			S690.7,175.9,706.2,181L706.2,181z"/>
		<path fill="#0EA9D6" d="M714.3,165.8c0,0,3.6,10-8.1,13.9c-11.7-3.9-8.1-13.9-8.1-13.9H714.3z"/>
		<path fill="#D72631" d="M706.2,165h7.8c0,0-0.3-1.4-0.8-1.9c0,0-4.2,0.6-7-0.3c-2.9,1-7,0.3-7,0.3c-0.5,0.5-0.8,1.9-0.8,1.9H706.2
			z"/>
		<text transform="matrix(1 0 0 1 701.1266 174.0884)" fill="#FFFFFF" font-family="'HelveticaNeue-Bold'" font-size="8.7129">35</text>
	</g>
</g>
<text transform="matrix(1 0 0 1 665.3334 217)" fill="#877C6C" font-family="'HelveticaNeue-Bold'" font-size="10">OKLAHOMA CITY</text>
<text transform="matrix(1 0 0 1 927.6738 119.2819)" fill="#877C6C" font-family="'HelveticaNeue-Bold'" font-size="10">TULSA</text>
<text transform="matrix(1 0 0 1 709.0072 134.2819)" fill="#877C6C" font-family="'HelveticaNeue-Bold'" font-size="10">STILLWATER</text>
<g id="marker_14_">
	<path id="pin_15_" fill="#B9252D" d="M1002.2,160.6c1-1.6,1.6-3.5,1.6-5.5c0-5.7-4.6-10.4-10.4-10.4c-5.7,0-10.4,4.6-10.4,10.4
		c0,2.2,0.7,4.2,1.8,5.8l8.6,10.4L1002.2,160.6z"/>
	
		<text id="id_14_" transform="matrix(1 0 0 1 987.9053 159.376)" fill="#FFFFFF" font-family="'Helvetica-Bold'" font-size="12.4974">M</text>
</g>
</svg>
