<svg xmlns="http://www.w3.org/2000/svg" viewBox="193 18.6 940 570" enable-background="new 193 18.6 940 570"><path fill="#F6F0EF" d="M179.8 12.8c-.4 0-.7 0-1-2.1v585.1l964.1 2v-585H179.8z"/><g fill="#A2DDF5"><path d="M915 201.8l5.2 29-7.7 14.4 17.7-16.7.8-27.3zM818 253.8v19.4l17-7.4-8-16zM792 336l-14.2 4.2L775 329l15.8-1zM1051.2 268.8l22.6-5.3 4.4 10.3-25.2 3zM994.2 16.2L986 55l-18 3-22.2 46.8-4.3-8.8 5.5-51.5-34-11.3-25.8 32-6.4-10.2 25.4-40.2zM831.8 63.2c-.8 0-22.2 4-22.2 4L790 77l-3-7 9.8-9.2 14.5-18 17.8-1 2.7 21.4zM546.5 371.5l2 13.5h11l-9.5 12-20-3.5s-2.5-22 16.5-22zM459 379.5l-2.5 13 17 15.5-20.5 1-13-18zM431 407l-5.5 14-48 9.5 1-11 45-18zM440 502.5l11 17-10.5 10.5-17-18.5 3.5-15zM294.5 404l-4.5 8-13-2.5 9.5-8zM189.5 406l60.5-25.5 6-18-15.5 1.5-47.5 17.5zM1059.5 558l-5.5 20.5-37 .5-1.5-15.5s36.5-11.5 44-5.5z"/></g><g stroke="#F4E6D7" stroke-width="4" stroke-miterlimit="10" fill="none"><path d="M192.6 119.3l197.3 2.7 6.8-23.3 72.6 2.8L496 54.7h279L800.7 95l126 3.7 14.6 14.7 23.7 2.1M922.7 311.3V254l36.6-34.7V188h-16v-35.3h62v66.6h-46M1005.3 219.3h83.3s6.7 26-8.7 34.7c-15.3 8.7-55.3 20-55.3 20v26h56.7v-18.7h-56.7M1064 311.3V282M1057.3 220.7v40.6l6.7 18M1080 254l4 11.3M1085.3 240.7h-60.6V274M1040 241.3V268M844 346.7h32s3.3 54-30.7 54M908.7 314.7s-10.7 84-31.3 101.3c-20.7 17.3-20 19.3-20 58.7h148v-150h-98.7M970.7 279.3V396M894.7 380.7c32.7-6 58 15.3 58 15.3h70.7v58.5s-1.1 22.8 28.7 22.8h65.5s-1.8-25 15.5-25M871.5 422.2s4.8 11 4.8 51.2M875.2 437.8h42.3v19.7h-41.3M883.2 409.8L897 420h17.2s23.1-4.5 23.1 23.1V475M891.5 393.5l62.3 21.7M952.7 396v79M952.5 458.5h52M953.2 414.2h35M953.2 439.8h52M970.2 415.2v24M988 439.5v-77.7M1004 361.8H900.8M945.8 363v27.2M946 379.2h24.5M903.2 343.5h101.6M1080.8 477v-53l-42.3-56.2v-53M1024.5 329v-14.8M1042.5 389.8s21-24 49.2-24h41.2M1099 315.2v50.3M1024.5 410.5h23.2s16.8-21.2 42.2-26M1024.8 458.2h55.7M1050.5 457.2s7-47.5 40.2-56M1080.8 441s18.8-3 18.8 10.2V477M844.3 544.3h53l36.4 20.4h58l41-6.7 11-31.7 54.3 21 35-32.6M978.3 563.7v-69l136 35.6M998.3 518.7v45.6M1017.3 520v41M938.3 494.5V565M918.7 494.5v60.8M897.3 494.5v49.8M877.3 494.5v48.8M857.7 494.5V545M953.3 474v90.3M1031 559.7l-4.3 31M842.3 454H788s-58-16.3-58-45.7V315M728.3 347.3h-43.6v58.4h45M686 385h43.7M686.7 367.3h87s6.7 35-17.7 35v-56M730.7 420.7h-45.4V476M712 420.7l42 54.6M736.3 476.7h35.4v-54"/><path d="M790.3 408.3h40v69.3h-40zM809.3 409v45.3M660 314.3V468M659 335.7c-1.3.3-56.3 0-56.3 0v-21.3M602.3 337v32h30v-33.7M606.7 402.3s30.7-1.3 30.7 30.7-29.4 32.3-29.4 32.3M630.7 413.3l29-21M506 409h74.7v65.3h-43l10-28M538 409v38.3h42M506 525h31.7l27-15.7V474M548.7 518v-25.7h-30v23.4h29.6M533 492.7V514M565 486.3h17.3V509h-18M519 526.7v28.6h60.7V533l-60 .7M554.3 556.7V573h-35.6v15.6M554.3 573h38.4v15.6M487.3 543.7s-41.7-2.3-41.7 47.7M522.3 467s-22 7.3-40-9.3c-18-16.7-75.3-15.7-126 35v24.7s-2 17 22 31 45.7 42.3 45.7 42.3M434.7 419.7l7.6 50.3M458 447.3l1.7 36s14.7 2.3 14.3-11c-.3-13.3-14.3-14.7-14.3-14.7M492.3 466.7S481 472.4 483 500"/><path d="M390.3 448l15.3 32 20-10-13-27.7c.1 0-11.6-1.3-22.3 5.7zM369 456.7l19.7 33.6-12.4 7M356.3 527.3s-31.3 13-32.3 13.3M368.3 543l-31.6 45.6M354.7 492S327 477 329 447.7c2-29.3 24.3-130 119-118.7M360.7 361.3s-15-1-15-30.7h39l6 18.3M397 315.3l6 16.4M352 470s-9 16.3-24.3 17.3l-49 36M326.3 486.3s2-22.3-28-4-45-15-46 39.3M221.3 495l21.4-12.3L256 493M242 427c38.3-22.7 88 5.3 88 5.3M301 422.3s2-39.7 40.3-26.3M317.3 393s-13.7-36-102.7 13M268 383.3c-.3.3 0 34.7 0 34.7M289 419.7s-4 18-15 25.7M841.7 208s-37.3 8.3-59 4c-21.7-4.3-28.3-18.3-38-5.3s10 23.3 4 39M601.7 114.3c5-4.3 23.3-6.3 15 18.3-8.3 24.7-29 19.7-29 19.7s-16 25.3.3 73.3 68 40.3 105.7 36c37.7-4.3 51-35.3 51-35.3M633 300.3v-17l-12.3-1.3s11.7-76.7 33-73.7 20.7 44.7-2.3 42.3l-23-2.3M652 252l1 13.3M633.3 230.3L668 226M687.3 259s-4.7-14.7 3.3-24c0 0 7.7 11 25.3-6.3s5-34.7-4.7-46.7M711 229.3s-24.3-34.3 21.3-76.7c0 0 9-6.3 17.3-4.7M755.3 116s-13.7 33 .7 85M741.7 209.7s-3.3-34.7-17.3-47.3c-14-12.7-15.7-12.7-15.7-12.7M730.7 132.3s-15 9.3-27.7 26-26.3 37.3-26.3 37.3 10.3 20.7 14 39.3M588 221l21-4 29.7-43M596.3 217.7l-4-16 29.4-4.7M590 234.7l-24 16.6M609 256l-22.3 72.7M520.7 176l42.3 59.7 12.3-7-11-28M538 197.7s30 10.3 32-1.3c2-11.7-24-26.7-45.3-14.3M569 189.7l48.3-13s5.3-21.7-34.3-7.3"/><path d="M623.3 157.7s15.3 25.3 25.3 18c10-7.3-6.7-25-6.7-25s-6.7-11.7-16-3.7c-6.2 5-2.6 10.7-2.6 10.7zM616 167.7l9.7-5.7M630.3 143.7c.7-1 3.3-35.7 3.3-35.7l49 11.3s17 13.3-1.3 26.3-29.3 17-29.3 17M643 149l39-28.3M633.7 126s17-3.7 27.3 8.7M618 130.3l12.7 4.4M562 168.3l-3 14.4M519.3 146l-.3-51.7s34.7-23 59.7-8M587.3 72s-19 8.7.3 80.3l-67-5.7s-11.3 13.3 6.7 15.7c18 2.3 39 5.3 39 5.3s9 2.7 8-14.7M520 111.7s64-10.7 65-10.7 9.3-3.3 14.3 10.7-1.3 27.3-22 24.7c-20.7-2.7-27.3-5.3-27.3-5.3M579.7 119.3s-34.7-18.7-29 29M534 146.3s.3-36 0-35S554.7 98 554.7 98l-3-15.7M405.3 312.3c0-1-5.3-41.7-5.3-41.7M360.7 270.7s29.7 13.3 56-7 47-50 48.7-68.3M340.3 224s34.3 9.7 33.7 49.7M401.3 226l18 35M438.2 245.2s22.4 24.1 65.4 5.4"/></g><g stroke="#F4D8B3" stroke-width="4" stroke-miterlimit="10" fill="none"><path d="M844 18.6v570M193 314h940M505 18.6v570"/></g><path fill="#B9252D" d="M875 281.4c1-1.6 1.6-3.5 1.6-5.5 0-5.7-4.6-10.4-10.4-10.4-5.7 0-10.4 4.6-10.4 10.4 0 2.2.7 4.2 1.8 5.8l8.6 10.4 8.8-10.7z"/><text transform="translate(750.333 317)" fill="#877C6C" font-family="'HelveticaNeue-Bold'" font-size="10">NW 178TH ST</text><text transform="translate(880.333 317)" fill="#877C6C" font-family="'HelveticaNeue-Bold'" font-size="10">W EDMOND RD</text><text transform="matrix(0 1 -1 0 841.394 150.846)" fill="#877C6C" font-family="'HelveticaNeue-Bold'" font-size="10">N PENNSYLVANIA AVE</text><text transform="matrix(0 1 -1 0 502.394 183.846)" fill="#877C6C" font-family="'HelveticaNeue-Bold'" font-size="10">N MAY AVE</text></svg>