<?xml version="1.0" encoding="utf-8"?>
<!-- Generator: Adobe Illustrator 18.0.0, SVG Export Plug-In . SVG Version: 6.00 Build 0)  -->
<!DOCTYPE svg PUBLIC "-//W3C//DTD SVG 1.1//EN" "http://www.w3.org/Graphics/SVG/1.1/DTD/svg11.dtd">
<svg version="1.1" id="map" xmlns="http://www.w3.org/2000/svg" xmlns:xlink="http://www.w3.org/1999/xlink" x="0px" y="0px"
	 width="940px" height="430.4px" viewBox="193 18.6 940 430.4" enable-background="new 193 18.6 940 430.4" xml:space="preserve">
<g id="greenery">
</g>
<g id="smallroads">
	<rect x="188.1" y="-37.1" fill="#F6F0EF" width="948.7" height="556.8"/>
	<g id="D3agoL.tif" display="none" opacity="0.5">
		
			<image display="inline" overflow="visible" width="2874" height="1410" id="Layer_0_1_" xlink:href="B803EFA954181D10.png"  transform="matrix(0.3185 0 0 0.3185 120.286 3.9977)">
		</image>
	</g>
	<g>
		<g enable-background="new    ">
			<path fill="#877C6C" d="M522,374.4l5-1.7v0l-5-1.6v-2.3h7.3v1.5h-5.2v0l5.2,1.8v1.2l-5.1,1.8v0h5.1v1.5H522V374.4z"/>
			<path fill="#877C6C" d="M522,361.9h1.3v3.8h1.6v-3.5h1.2v3.5h1.8v-3.9h1.3v5.5H522V361.9z"/>
			<path fill="#877C6C" d="M523.3,361.3H522v-6h1.3v2.2h5.9v1.6h-5.9V361.3z"/>
			<path fill="#877C6C" d="M523.9,349.9c-0.2,0.1-0.3,0.2-0.4,0.4c-0.1,0.1-0.2,0.3-0.3,0.5c-0.1,0.2-0.1,0.4-0.1,0.6
				c0,0.4,0.1,0.7,0.2,0.9c0.1,0.3,0.3,0.5,0.6,0.6c0.2,0.2,0.5,0.3,0.8,0.3c0.3,0.1,0.6,0.1,0.9,0.1c0.3,0,0.6,0,0.9-0.1
				c0.3-0.1,0.5-0.2,0.8-0.3c0.2-0.2,0.4-0.4,0.6-0.6c0.1-0.3,0.2-0.6,0.2-0.9c0-0.5-0.1-0.9-0.4-1.1c-0.3-0.3-0.7-0.4-1.2-0.5v-1.6
				c0.5,0,0.9,0.1,1.2,0.3c0.4,0.2,0.7,0.4,0.9,0.7s0.5,0.6,0.6,1c0.1,0.4,0.2,0.8,0.2,1.2c0,0.6-0.1,1.1-0.3,1.5
				c-0.2,0.4-0.5,0.8-0.8,1.1c-0.3,0.3-0.7,0.5-1.2,0.7s-1,0.2-1.5,0.2c-0.5,0-1-0.1-1.5-0.2s-0.9-0.4-1.2-0.7
				c-0.3-0.3-0.6-0.7-0.8-1.1c-0.2-0.4-0.3-0.9-0.3-1.5c0-0.4,0.1-0.8,0.2-1.1s0.3-0.7,0.5-1c0.2-0.3,0.5-0.5,0.8-0.7
				s0.7-0.3,1.1-0.3v1.6C524.2,349.7,524.1,349.8,523.9,349.9z"/>
			<path fill="#877C6C" d="M522,343.3l7.3-2.7v1.7l-1.6,0.6v2.7l1.6,0.6v1.6L522,345V343.3z M526.4,343.2l-2.7,0.9v0l2.7,0.9V343.2z
				"/>
			<path fill="#877C6C" d="M522,338.4h5.9v-3.6h1.3v5.2H522V338.4z"/>
			<path fill="#877C6C" d="M522,328.8h1.3v3.5h1.7v-3.1h1.2v3.1h3v1.6H522V328.8z"/>
			<path fill="#877C6C" d="M522,321.4l7.3-2.7v1.7l-1.6,0.6v2.7l1.6,0.6v1.6L522,323V321.4z M526.4,321.3l-2.7,0.9v0l2.7,0.9V321.3z
				"/>
			<path fill="#877C6C" d="M529.3,316.9l-7.3,2.4v-1.6l5.1-1.6v0l-5.1-1.6v-1.7l7.3,2.4V316.9z"/>
			<path fill="#877C6C" d="M522,306.6h1.3v3.8h1.6v-3.5h1.2v3.5h1.8v-3.9h1.3v5.5H522V306.6z"/>
		</g>
		<g enable-background="new    ">
			<path fill="#877C6C" d="M778.3,199.9h1.3v3.8h1.6v-3.5h1.2v3.5h1.8v-3.9h1.3v5.5h-7.3V199.9z"/>
			<path fill="#877C6C" d="M778.3,195.6c0-0.5,0.1-0.9,0.2-1.3c0.1-0.4,0.4-0.8,0.7-1.1s0.7-0.5,1.1-0.7c0.4-0.2,1-0.2,1.6-0.2
				c0.5,0,1,0.1,1.5,0.2s0.8,0.3,1.2,0.6c0.3,0.3,0.6,0.6,0.8,1c0.2,0.4,0.3,0.9,0.3,1.5v3.1h-7.3V195.6z M784.2,195.8
				c0-0.2,0-0.5-0.1-0.7c-0.1-0.2-0.2-0.4-0.4-0.6c-0.2-0.2-0.4-0.3-0.7-0.4c-0.3-0.1-0.6-0.2-1-0.2c-0.4,0-0.7,0-1,0.1
				s-0.5,0.2-0.8,0.4c-0.2,0.2-0.4,0.4-0.5,0.6s-0.2,0.6-0.2,1v1.1h4.6V195.8z"/>
			<path fill="#877C6C" d="M785.5,186.9c0.1,0.3,0.2,0.7,0.2,1.1c0,0.6-0.1,1.1-0.3,1.5c-0.2,0.4-0.5,0.8-0.8,1.1
				c-0.3,0.3-0.7,0.5-1.2,0.7c-0.5,0.2-1,0.2-1.5,0.2c-0.5,0-1-0.1-1.5-0.2c-0.5-0.2-0.9-0.4-1.2-0.7c-0.3-0.3-0.6-0.7-0.8-1.1
				c-0.2-0.4-0.3-0.9-0.3-1.5c0-0.4,0.1-0.7,0.2-1.1c0.1-0.4,0.3-0.7,0.5-0.9c0.2-0.3,0.5-0.5,0.8-0.7c0.3-0.2,0.7-0.3,1.1-0.3v1.5
				c-0.4,0.1-0.7,0.3-0.9,0.6c-0.2,0.3-0.3,0.6-0.3,1c0,0.4,0.1,0.7,0.2,0.9c0.1,0.3,0.3,0.5,0.6,0.6c0.2,0.2,0.5,0.3,0.8,0.3
				c0.3,0.1,0.6,0.1,0.9,0.1c0.3,0,0.6,0,0.9-0.1c0.3-0.1,0.5-0.2,0.8-0.3c0.2-0.2,0.4-0.4,0.6-0.6c0.1-0.3,0.2-0.6,0.2-0.9
				c0-0.5-0.1-0.9-0.4-1.2c-0.3-0.3-0.7-0.5-1.2-0.5v1.6h-1.2v-3.1h3.9v1l-0.8,0.2C785.1,186.2,785.4,186.6,785.5,186.9z"/>
			<path fill="#877C6C" d="M778.3,178h1.3v3.8h1.6v-3.5h1.2v3.5h1.8v-3.9h1.3v5.5h-7.3V178z"/>
			<path fill="#877C6C" d="M785.6,171.5l-5,1.2v0l5,1.2v1.6l-7.3,1.9v-1.6l5-1.2v0l-5-1.3V172l5-1.2v0l-5-1.2V168l7.3,2V171.5z"/>
			<path fill="#877C6C" d="M778.3,163.8l7.3-2.7v1.7l-1.6,0.6v2.7l1.6,0.6v1.6l-7.3-2.8V163.8z M782.8,163.7l-2.7,0.9v0l2.7,0.9
				V163.7z"/>
			<path fill="#877C6C" d="M779.6,162h-1.3v-6h1.3v2.2h5.9v1.6h-5.9V162z"/>
			<path fill="#877C6C" d="M778.3,149.7h1.3v3.8h1.6V150h1.2v3.5h1.8v-3.9h1.3v5.5h-7.3V149.7z"/>
			<path fill="#877C6C" d="M778.3,144.6c0-0.3,0.1-0.6,0.2-0.9c0.1-0.3,0.2-0.5,0.4-0.7c0.2-0.2,0.4-0.3,0.6-0.4
				c0.2-0.1,0.5-0.1,0.8-0.1c0.4,0,0.8,0.1,1.1,0.3c0.3,0.2,0.6,0.5,0.7,0.9h0c0.1-0.2,0.1-0.4,0.2-0.5c0.1-0.1,0.2-0.2,0.4-0.3
				c0.2-0.1,0.3-0.1,0.5-0.2c0.2,0,0.4-0.1,0.6-0.1c0.1,0,0.3,0,0.4,0c0.2,0,0.3,0,0.5,0c0.2,0,0.3,0,0.5-0.1c0.1,0,0.3-0.1,0.4-0.2
				v1.6c-0.2,0.1-0.5,0.1-0.8,0.2c-0.3,0-0.6,0.1-0.9,0.1c-0.4,0.1-0.7,0.2-0.8,0.3c-0.2,0.2-0.3,0.5-0.3,0.9v1.6h2.8v1.6h-7.3
				V144.6z M781.6,145.2c0-0.4-0.1-0.6-0.2-0.8c-0.2-0.2-0.4-0.3-0.8-0.3c-0.4,0-0.6,0.1-0.8,0.3c-0.2,0.2-0.2,0.5-0.2,0.8v1.8h2.1
				V145.2z"/>
			<path fill="#877C6C" d="M778.3,135.2c0-0.5,0.1-0.9,0.2-1.3c0.1-0.4,0.4-0.8,0.7-1.1s0.7-0.5,1.1-0.7c0.4-0.2,1-0.2,1.6-0.2
				c0.5,0,1,0.1,1.5,0.2s0.8,0.3,1.2,0.6c0.3,0.3,0.6,0.6,0.8,1c0.2,0.4,0.3,0.9,0.3,1.5v3.1h-7.3V135.2z M784.2,135.3
				c0-0.2,0-0.5-0.1-0.7c-0.1-0.2-0.2-0.4-0.4-0.6c-0.2-0.2-0.4-0.3-0.7-0.4c-0.3-0.1-0.6-0.2-1-0.2c-0.4,0-0.7,0-1,0.1
				s-0.5,0.2-0.8,0.4c-0.2,0.2-0.4,0.4-0.5,0.6s-0.2,0.6-0.2,1v1.1h4.6V135.3z"/>
			<path fill="#877C6C" d="M778.3,126.9c0-0.3,0.1-0.6,0.2-0.9c0.1-0.3,0.2-0.5,0.4-0.7c0.2-0.2,0.4-0.3,0.6-0.4
				c0.2-0.1,0.5-0.1,0.8-0.1c0.4,0,0.8,0.1,1.1,0.3c0.3,0.2,0.6,0.5,0.7,0.9h0c0.1-0.2,0.1-0.4,0.2-0.5c0.1-0.1,0.2-0.2,0.4-0.3
				c0.2-0.1,0.3-0.1,0.5-0.2c0.2,0,0.4-0.1,0.6-0.1c0.1,0,0.3,0,0.4,0c0.2,0,0.3,0,0.5,0c0.2,0,0.3,0,0.5-0.1c0.1,0,0.3-0.1,0.4-0.2
				v1.6c-0.2,0.1-0.5,0.1-0.8,0.2c-0.3,0-0.6,0.1-0.9,0.1c-0.4,0.1-0.7,0.2-0.8,0.3c-0.2,0.2-0.3,0.5-0.3,0.9v1.6h2.8v1.6h-7.3
				V126.9z M781.6,127.4c0-0.4-0.1-0.6-0.2-0.8c-0.2-0.2-0.4-0.3-0.8-0.3c-0.4,0-0.6,0.1-0.8,0.3c-0.2,0.2-0.2,0.5-0.2,0.8v1.8h2.1
				V127.4z"/>
		</g>
		<line fill="none" stroke="#F4E6D7" stroke-width="3.8956" stroke-miterlimit="10" x1="504.6" y1="-37.1" x2="504.6" y2="519.7"/>
		<line fill="none" stroke="#F4E6D7" stroke-width="3.8956" stroke-miterlimit="10" x1="514.8" y1="-37.1" x2="514.8" y2="519.7"/>
		<path fill="none" stroke="#F4E6D7" stroke-width="3.8956" stroke-miterlimit="10" d="M782.1,43.1c0,0-22.6-13.5-64.4-13.5
			s-50.7,7.1-152.2,7.1S474.3,39.9,449.3,54c-42.4,19.9-32.1,0-91.8,2.6c-26.3,0.1-70.3-5.7-109,51.5
			c-16.7,25.9-46.6,30.8-46.6,30.8"/>
		<path fill="none" stroke="#F4E6D7" stroke-width="3.8956" stroke-miterlimit="10" d="M441.6-37.1c0,0-5.2,50.6,18.9,84.3"/>
		<path fill="none" stroke="#F4E6D7" stroke-width="3.8956" stroke-miterlimit="10" d="M417.8,62.9c0,0,42.7,28.3,42.7,83.5
			c0,73.2-60.7,91.2-74.8,123.3"/>
		<path fill="none" stroke="#F4E6D7" stroke-width="3.8956" stroke-miterlimit="10" d="M1312,437.4c-35.3-10.3-59.1-43-61.1-64.2
			c-4.5-75.8,55.9-157.4,28.9-275.5C1247.6-39.1,1125-1.2,1083.2,7.8c-165.7,36-177.3,0-242.8,6.4c-69.4,9.6-84.4,63.6-74.5,124
			c12.8,78.6-1.3,152.2-120.8,149c-240.8-6.5-230,14.8-293.5-37.3c-43.9-35.9-149.8-53.3-149.8-53.3"/>
		<path fill="none" stroke="#F4E6D7" stroke-width="3.8956" stroke-miterlimit="10" d="M456.1,50c0,0-10.3,27.7-7.9,48"/>
		<path fill="none" stroke="#F4E6D7" stroke-width="3.8956" stroke-miterlimit="10" d="M385.7,124.6c29.5,37.9-28.3,71.9-28.3,71.9
			s-18.4,13.6-28.3,38.8"/>
		<path fill="none" stroke="#F4E6D7" stroke-width="3.8956" stroke-miterlimit="10" d="M413.6,281.2c-8.6,34.2-13.8,29.1-61.9,122.2
			c0,0-18,33.1-27,58.6"/>
		<path fill="none" stroke="#F4E6D7" stroke-width="3.8956" stroke-miterlimit="10" d="M581-39.8c0,38.5,10.3,55.2,10.3,95.7
			s-25,45-25,96.3s49.4,65.4,49.4,134.2"/>
		<path fill="none" stroke="#F4E6D7" stroke-width="3.8956" stroke-miterlimit="10" d="M581.7,198.9c-34.8,17.6-32.8,15.6-32.8,35.5
			s2.9,21.2,32.8,21.2c30,0,30,0,30,0"/>
		<path fill="none" stroke="#F4E6D7" stroke-width="3.8956" stroke-miterlimit="10" d="M609.1,246.9c19.4-9.2,26.4-8.7,48.3-8.7
			c21.8,0,46.2,11.1,68.7-14c22.5-25,8.3-35.3,8.3-35.3s9.4-14.1,4.4-28.3"/>
		<path fill="none" stroke="#F4E6D7" stroke-width="3.8956" stroke-miterlimit="10" d="M734.5,188.9c0,0-39.1,1.4-55.9,51.1"/>
		<path fill="none" stroke="#F4E6D7" stroke-width="3.8956" stroke-miterlimit="10" d="M593.5,216.8c33-15.1,42.5-26.2,63.9,21.4"/>
		<path fill="none" stroke="#F4E6D7" stroke-width="3.8956" stroke-miterlimit="10" d="M385.7,470.1c0,0,14.9,31.1,8.4,61.2"/>
		<path fill="none" stroke="#F4E6D7" stroke-width="3.8956" stroke-miterlimit="10" d="M589.3,73.9c24.9,10.3,20.9,15.9,68.1,6.2
			c27.3-3.6,13.6-11.2,63.5-17.2"/>
		<line fill="none" stroke="#F4E6D7" stroke-width="3.8956" stroke-miterlimit="10" x1="657.4" y1="80.1" x2="662.2" y2="103.6"/>
		<path fill="none" stroke="#F4E6D7" stroke-width="3.8956" stroke-miterlimit="10" d="M753.1-43.9c0,27.6,5.1,55.6,55.1,28.1
			c11.7-5.6,19.9-10.1,42.9-8.4c23,1.7,27.1-21.7,27.1-21.7"/>
		<path fill="none" stroke="#F4E6D7" stroke-width="3.8956" stroke-miterlimit="10" d="M867.8-28.6c9.4,9.8,25.7,18.9,60.9,12.3"/>
		<path fill="none" stroke="#F4E6D7" stroke-width="3.8956" stroke-miterlimit="10" d="M946.9-45.9
			c12.3,262.7,97.3,189.2,110.3,361.3c0.1,84.4-89.2,132.7-88.5,222.5"/>
		<path fill="none" stroke="#F4E6D7" stroke-width="3.8956" stroke-miterlimit="10" d="M718.1,275.5c15.9,44-2.6,83.5,22.3,134.5
			s26.3,84.1-11.1,121.3"/>
		<path fill="none" stroke="#F4E6D7" stroke-width="3.8956" stroke-miterlimit="10" d="M746,255.7c36.3,24.4,31.3,23,85.8,23
			s41.6-14.3,55.9-14.3s40.2,16.1,51.7,11.1c11.6-5,7.5-19.9,15.7-29.5c8.2-9.5,26.5-16.9,29.3-29.2c2.7-12.3,8.8-10.9,22.5-8.9
			c13.6,2,7.1-5,15.8-9c8.7-4,18.9-13.4,43.4-10.1c24.5,3.4,58.5,2,83.7,38.4s29.3,36.4,57.2,42.5c9.5,2.7,13.6,15,26.5,25.2
			s25.9,11.2,25.9,11.2"/>
		<path fill="none" stroke="#F4E6D7" stroke-width="3.8956" stroke-miterlimit="10" d="M678.6,330.2c27.9,22,42.4,14.5,94.8,19.3
			c29.3,3.4,42.9,25.9,72.8,27.9c29.9,2,34-17,75.5-6.1c41.5,10.9,46.5,34.4,88.6,57"/>
		<path fill="none" stroke="#F4E6D7" stroke-width="3.8956" stroke-miterlimit="10" d="M681.5,412.7c0,0,23.6,3.1,54.7-12.1"/>
		<path fill="none" stroke="#F4E6D7" stroke-width="3.8956" stroke-miterlimit="10" d="M689.7,477.4c0,0,21.6-18.4,68-16.3"/>
		<path fill="none" stroke="#F4E6D7" stroke-width="3.8956" stroke-miterlimit="10" d="M754.7,493.4c0,0,54.7,13.6,60.2,37.9"/>
		<line fill="none" stroke="#F4E6D7" stroke-width="3.8956" stroke-miterlimit="10" x1="789" y1="330.2" x2="782.1" y2="351.1"/>
		<path fill="none" stroke="#F4E6D7" stroke-width="3.8956" stroke-miterlimit="10" d="M855.7,330.2c0,0-6.8,9.7-9.5,47.2"/>
		<line fill="none" stroke="#F4E6D7" stroke-width="3.8956" stroke-miterlimit="10" x1="921.1" y1="330.2" x2="910.3" y2="368.8"/>
		<path fill="none" stroke="#F4E6D7" stroke-width="3.8956" stroke-miterlimit="10" d="M987.1,335.4c24.5-9.1,17.2-10.8,69.2-5.2"/>
		<path fill="none" stroke="#F4E6D7" stroke-width="3.8956" stroke-miterlimit="10" d="M991.2-45.9c0,0,2.7,27.8,10.9,51"/>
		
			<line fill="none" stroke="#F4E6D7" stroke-width="3.8956" stroke-miterlimit="10" x1="1056.3" y1="-45.9" x2="1074.2" y2="-10.6"/>
		<path fill="none" stroke="#F4E6D7" stroke-width="3.8956" stroke-miterlimit="10" d="M1135.5-45.9c1.4,4.7,10.8,42.5,10.8,42.5"/>
		<path fill="none" stroke="#F4E6D7" stroke-width="3.8956" stroke-miterlimit="10" d="M1236.2-39.8c0,0-23.3,9.4-31.1,42.8"/>
		<path fill="none" stroke="#F4E6D7" stroke-width="3.8956" stroke-miterlimit="10" d="M1279.8,97.7c0,0,20.4-1.8,43.5-12.5"/>
		<path fill="none" stroke="#F4E6D7" stroke-width="3.8956" stroke-miterlimit="10" d="M1110.2,1.8c7.6,44.8,45,78.5,42.3,121.6
			c-2.7,43-20.1,49.3-13.4,91.1"/>
		<line fill="none" stroke="#F4E6D7" stroke-width="3.8956" stroke-miterlimit="10" x1="1124.8" y1="43.1" x2="1094.6" y2="56.1"/>
		<path fill="none" stroke="#F4E6D7" stroke-width="3.8956" stroke-miterlimit="10" d="M1010.4,46.3c16.9,41.8,38,91.2,107.4,77.1
			c13.6-3.2,16.6-15.5,34.9-9.4"/>
		<path fill="none" stroke="#F4E6D7" stroke-width="3.8956" stroke-miterlimit="10" d="M1042.2,103.6c0,0-10.1,14.2-35.4,22.2"/>
		<path fill="none" stroke="#F4E6D7" stroke-width="3.8956" stroke-miterlimit="10" d="M1139.2,180.4c0,0-13.1,11.3-29.5,16"/>
		<path fill="none" stroke="#F4E6D7" stroke-width="3.8956" stroke-miterlimit="10" d="M1180.6,261.9
			c-33.6,68.5-28.8,84.8-76.4,99.1c-47.6,14.3-44.5,39.5-38.9,55.8c5.6,16.3,16.4,27.9-12.1,38.1c-10.9,3.4-25.9,6-25.9,6"/>
		
			<line fill="none" stroke="#F4E6D7" stroke-width="3.8956" stroke-miterlimit="10" x1="1135.5" y1="346.1" x2="1155.9" y2="368.8"/>
		<path fill="none" stroke="#F4E6D7" stroke-width="3.8956" stroke-miterlimit="10" d="M1074.2,265.1c25.2,6.1,35.6,24.1,84.8,44.1"
			/>
		<path fill="none" stroke="#F4E6D7" stroke-width="3.8956" stroke-miterlimit="10" d="M1267.4,275.5c28.6,10.7,35.4,31.8,82.4,41.3
			"/>
		<path fill="#A2DDF5" d="M609.1,152.1l-3.2-37.4c-1.4-10.9,13.6-20,23.1-6.6s15.3,11.3,25.3,10.6c10.1-0.7,10.2-5.4,16.6-6.8
			c6.4-1.4,6.4,0.5,15.9-3.8c9.5-4.3,4.8-5.1,14.3-10.2c9.5-5.1,10.1-3,19.7-3.7c9.6-0.7,2.8-11.3,10.3-9.1s1.3,6.9,9.2,12.8
			s9.2,39.9,0,45.3c-9.2,5.4-54.1,26.5-54.1,26.5l-31.2,3.6C611.7,184.1,627.9,151.4,609.1,152.1z"/>
		<path fill="#A2DDF5" d="M766.7,403.4c0,0-0.7-5.7,0-7.9c23.8-10.1,20.9-11,52,7.9c31,18.8,55.6,41.3,70,34
			c14.4-7.2,30.3-25.3,51.2-16.6s31.7,16.6,31.7,16.6l-24.7,93.9c0,0-22.1,31.4-36.6,6.6c-14.5-24.8-7.3-32-7.3-32
			s-8.7-17.3-26-19.5s-11.9-3.6-26.1-17.3c-14.3-13.7-10.7-15.1-26.5-27.4c-15.9-12.3-16.6-23.1-28.9-31.7S766.7,403.4,766.7,403.4z
			"/>
		<path fill="#A2DDF5" d="M1145.7,49.6l-10.2-15.5c-8.7-12.3,4.7-26,17.2-16.6c12.4,9.4,19.7,8.7,28,5.1c8.2-3.6,21.2-7.2,21.2,15.9
			s2.3,33.1,18.8,35.7c16.5,2.6,20.1,2.8,25.9,23.6c5.8,20.8,7.9,18.9,0,25.7s-5.8,16.1-20.9,17.5c-15.2,1.4-18.8-10.8-29.6-21.6
			c-3.6-4.5-11.5-2.7-23.8-11.1s-0.7-18.7-2.2-28C1168.6,70.9,1145.7,49.6,1145.7,49.6z"/>
		<path fill="#A2DDF5" d="M991.2,531.3c-0.1-17.4-6-31.9,30.5-26.1s47.4,9.4,49.5-6.5s32.5-17.2,41.9-37.8
			c9.4-20.6,5.6-35.5-3.3-47.9c-8.9-12.4,1.7-30.4,14.8-21c13.1,9.4,42.7,29,51.4,14.9c8.7-14.1,4.5-14.4,4.8-27.6
			c0.3-13.2,15.5-55.1,21.2-65.9c5.8-10.8,27.4-18.2,23.8,13.6c-3.6,31.8-8.6,70.8,0.4,97.5c9,26.7,112.9,99.6,112.9,99.6
			l-52.7,57.7c0,0-47.5-52.8-105.6-69.4c-58.1-16.5-137.7,37.7-138.3,35.1c-0.6-2.6,0-9.5,0-9.5S991.4,537.3,991.2,531.3z"/>
		<path fill="none" stroke="#F4E6D7" stroke-width="3.8956" stroke-miterlimit="10" d="M362.7-50.4c0,0,16,51.4,50.9,47"/>
		<path fill="none" stroke="#F4E6D7" stroke-width="3.8956" stroke-miterlimit="10" d="M382.6-14.1c0,0-22.9,17.2-39.5,9.6"/>
		<path fill="none" stroke="#F4E6D7" stroke-width="1.7015" stroke-miterlimit="10" d="M977.9,125.8c-50.3,30.2-58.2,29.8-43.8,54.6
			c14.4,24.7-4.3,26.5-28.9,16.2c-24.5-10.3-26.1-11.7-27.1-21.1s0.4-11.2,25-11.4c13.7,0.5,22.1,0,26.9-6.9"/>
		<g id="marker_2_">
			<path id="pin_1_" fill="#B9252D" d="M851.4,231.5c1.6-2.5,2.5-5.5,2.5-8.8c0-9-7.4-16.6-16.6-16.6c-9,0-16.6,7.4-16.6,16.6
				c0,3.5,1.2,6.7,2.8,9.2l13.6,16.6L851.4,231.5z"/>
		</g>
		<g enable-background="new    ">
			<path fill="#877C6C" d="M797.4,294.6l-1.2-5h0l-1.2,5h-1.6l-1.9-7.3h1.6l1.2,5h0l1.3-5h1.5l1.2,5h0l1.2-5h1.6l-2,7.3H797.4z"/>
			<path fill="#877C6C" d="M806.4,294.6v-4.6h-1.8v-1.1c0.3,0,0.5,0,0.7-0.1s0.4-0.1,0.6-0.2s0.3-0.3,0.5-0.4
				c0.1-0.2,0.2-0.4,0.3-0.7h1.2v7.1H806.4z"/>
			<path fill="#877C6C" d="M809.7,292.9v-1.3l3.1-4.2h1.3v4.3h0.9v1.2h-0.9v1.7h-1.4v-1.7H809.7z M812.7,289.3l-1.8,2.5h1.9
				L812.7,289.3L812.7,289.3z"/>
			<path fill="#877C6C" d="M818.8,288.7c-0.2-0.2-0.4-0.3-0.6-0.3c-0.3,0-0.5,0.1-0.6,0.2c-0.2,0.2-0.3,0.3-0.4,0.6
				c-0.1,0.2-0.2,0.5-0.2,0.7c0,0.3-0.1,0.5-0.1,0.7l0,0c0.2-0.3,0.4-0.5,0.7-0.6c0.3-0.1,0.6-0.2,0.9-0.2c0.3,0,0.6,0.1,0.9,0.2
				s0.5,0.3,0.7,0.5c0.2,0.2,0.3,0.5,0.4,0.7c0.1,0.3,0.1,0.6,0.1,0.8c0,0.4-0.1,0.7-0.2,1c-0.1,0.3-0.3,0.6-0.5,0.8
				c-0.2,0.2-0.5,0.4-0.8,0.6s-0.6,0.2-1,0.2c-0.5,0-1-0.1-1.3-0.3s-0.6-0.5-0.8-0.8s-0.4-0.7-0.4-1.2s-0.1-0.9-0.1-1.3
				c0-0.4,0.1-0.9,0.2-1.3c0.1-0.4,0.3-0.8,0.5-1.2c0.2-0.4,0.5-0.6,0.9-0.9c0.4-0.2,0.8-0.3,1.3-0.3c0.3,0,0.6,0,0.9,0.1
				c0.3,0.1,0.5,0.2,0.7,0.4c0.2,0.2,0.4,0.4,0.5,0.6c0.1,0.2,0.2,0.5,0.3,0.8h-1.4C819.1,289,819,288.8,818.8,288.7z M817.6,291
				c-0.1,0.1-0.3,0.2-0.4,0.3c-0.1,0.1-0.2,0.3-0.2,0.4c0,0.2-0.1,0.3-0.1,0.5c0,0.2,0,0.3,0.1,0.5c0.1,0.2,0.1,0.3,0.2,0.4
				s0.2,0.2,0.4,0.3c0.1,0.1,0.3,0.1,0.5,0.1c0.2,0,0.3,0,0.5-0.1c0.1-0.1,0.2-0.2,0.3-0.3c0.1-0.1,0.2-0.3,0.2-0.4
				c0-0.2,0.1-0.3,0.1-0.5c0-0.2,0-0.3-0.1-0.5c0-0.2-0.1-0.3-0.2-0.4c-0.1-0.1-0.2-0.2-0.3-0.3s-0.3-0.1-0.5-0.1
				C817.9,290.9,817.8,290.9,817.6,291z"/>
			<path fill="#877C6C" d="M821,288.6v-1.3h6v1.3h-2.2v5.9h-1.6v-5.9H821z"/>
			<path fill="#877C6C" d="M829.4,287.3v2.8h3v-2.8h1.6v7.3h-1.6v-3.1h-3v3.1h-1.6v-7.3H829.4z"/>
			<path fill="#877C6C" d="M837.7,288.6v-1.3h6v1.3h-2.2v5.9h-1.6v-5.9H837.7z"/>
			<path fill="#877C6C" d="M849.9,287.3v1.3h-3.8v1.6h3.5v1.2h-3.5v1.8h3.9v1.3h-5.5v-7.3H849.9z"/>
			<path fill="#877C6C" d="M855,287.3c0.3,0,0.6,0.1,0.9,0.2s0.5,0.2,0.7,0.4c0.2,0.2,0.3,0.4,0.4,0.6c0.1,0.2,0.1,0.5,0.1,0.8
				c0,0.4-0.1,0.8-0.3,1.1c-0.2,0.3-0.5,0.6-0.9,0.7v0c0.2,0.1,0.4,0.1,0.5,0.2c0.1,0.1,0.2,0.2,0.3,0.4c0.1,0.2,0.1,0.3,0.2,0.5
				c0,0.2,0.1,0.4,0.1,0.6c0,0.1,0,0.3,0,0.4c0,0.2,0,0.3,0,0.5c0,0.2,0,0.3,0.1,0.5c0,0.1,0.1,0.3,0.2,0.4h-1.6
				c-0.1-0.2-0.1-0.5-0.2-0.8c0-0.3-0.1-0.6-0.1-0.9c-0.1-0.4-0.2-0.7-0.3-0.8c-0.2-0.2-0.5-0.3-0.9-0.3h-1.6v2.8h-1.6v-7.3H855z
				 M854.4,290.6c0.4,0,0.6-0.1,0.8-0.2c0.2-0.2,0.3-0.4,0.3-0.8c0-0.4-0.1-0.6-0.3-0.8c-0.2-0.2-0.5-0.2-0.8-0.2h-1.8v2.1H854.4z"
				/>
			<path fill="#877C6C" d="M862.4,287.3c0.3,0,0.6,0.1,0.9,0.2s0.5,0.2,0.7,0.4c0.2,0.2,0.3,0.4,0.4,0.6c0.1,0.2,0.1,0.5,0.1,0.8
				c0,0.4-0.1,0.8-0.3,1.1c-0.2,0.3-0.5,0.6-0.9,0.7v0c0.2,0.1,0.4,0.1,0.5,0.2c0.1,0.1,0.2,0.2,0.3,0.4c0.1,0.2,0.1,0.3,0.2,0.5
				c0,0.2,0.1,0.4,0.1,0.6c0,0.1,0,0.3,0,0.4c0,0.2,0,0.3,0,0.5c0,0.2,0,0.3,0.1,0.5c0,0.1,0.1,0.3,0.2,0.4h-1.6
				c-0.1-0.2-0.1-0.5-0.2-0.8c0-0.3-0.1-0.6-0.1-0.9c-0.1-0.4-0.2-0.7-0.3-0.8c-0.2-0.2-0.5-0.3-0.9-0.3H860v2.8h-1.6v-7.3H862.4z
				 M861.8,290.6c0.4,0,0.6-0.1,0.8-0.2c0.2-0.2,0.3-0.4,0.3-0.8c0-0.4-0.1-0.6-0.3-0.8c-0.2-0.2-0.5-0.2-0.8-0.2H860v2.1H861.8z"/>
			<path fill="#877C6C" d="M869.5,287.3l2.7,7.3h-1.7L870,293h-2.7l-0.6,1.6h-1.6l2.8-7.3H869.5z M869.5,291.8l-0.9-2.7h0l-0.9,2.7
				H869.5z"/>
			<path fill="#877C6C" d="M877.5,289.2c-0.1-0.2-0.2-0.3-0.4-0.4c-0.1-0.1-0.3-0.2-0.5-0.3c-0.2-0.1-0.4-0.1-0.6-0.1
				c-0.4,0-0.7,0.1-0.9,0.2c-0.3,0.1-0.5,0.3-0.6,0.6c-0.2,0.2-0.3,0.5-0.3,0.8c-0.1,0.3-0.1,0.6-0.1,0.9c0,0.3,0,0.6,0.1,0.9
				c0.1,0.3,0.2,0.5,0.3,0.8c0.2,0.2,0.4,0.4,0.6,0.6c0.3,0.1,0.6,0.2,0.9,0.2c0.5,0,0.9-0.1,1.1-0.4c0.3-0.3,0.4-0.7,0.5-1.2h1.6
				c0,0.5-0.1,0.9-0.3,1.2c-0.2,0.4-0.4,0.7-0.7,0.9s-0.6,0.5-1,0.6c-0.4,0.1-0.8,0.2-1.2,0.2c-0.6,0-1.1-0.1-1.5-0.3
				c-0.4-0.2-0.8-0.5-1.1-0.8c-0.3-0.3-0.5-0.7-0.7-1.2s-0.2-1-0.2-1.5c0-0.5,0.1-1,0.2-1.5s0.4-0.9,0.7-1.2
				c0.3-0.3,0.7-0.6,1.1-0.8c0.4-0.2,0.9-0.3,1.5-0.3c0.4,0,0.8,0.1,1.1,0.2s0.7,0.3,1,0.5c0.3,0.2,0.5,0.5,0.7,0.8s0.3,0.7,0.3,1.1
				h-1.6C877.6,289.6,877.6,289.4,877.5,289.2z"/>
			<path fill="#877C6C" d="M885.8,287.3v1.3H882v1.6h3.5v1.2H882v1.8h3.9v1.3h-5.5v-7.3H885.8z"/>
		</g>
		<g enable-background="new    ">
			<path fill="#877C6C" d="M983.7,106.6l-5.2,2.8l1.7,3.1l-1.2,0.6l-2.5-4.5l6.4-3.5L983.7,106.6z"/>
			<path fill="#877C6C" d="M987.5,113.8l-5.1,5.9l-0.8-1.5l1.2-1.3l-1.3-2.4l-1.7,0.3l-0.8-1.4l7.7-1L987.5,113.8z M983.6,116
				l1.9-2.1l0,0l-2.8,0.4L983.6,116z"/>
			<path fill="#877C6C" d="M990.2,118.7l-3.6,3.9l0,0l5.2-1l1.1,2l-6.4,3.5l-0.7-1.3l4.5-2.5l0,0l-5.4,0.9l-0.6-1.1l3.6-4l0,0
				l-4.5,2.4l-0.7-1.3l6.4-3.5L990.2,118.7z"/>
			<path fill="#877C6C" d="M995.3,128l-5.1,5.9l-0.8-1.5l1.2-1.3l-1.3-2.4l-1.7,0.3l-0.8-1.4l7.7-1L995.3,128z M991.4,130.3l1.9-2.1
				l0,0l-2.8,0.4L991.4,130.3z"/>
			<path fill="#877C6C" d="M998.7,134.5c0.2,0.3,0.2,0.6,0.3,0.9c0,0.3,0,0.5-0.1,0.8c-0.1,0.3-0.2,0.5-0.4,0.7
				c-0.2,0.2-0.4,0.4-0.6,0.5c-0.4,0.2-0.7,0.3-1.1,0.3c-0.4,0-0.7-0.2-1-0.4l0,0c0,0.2,0.1,0.4,0,0.5c0,0.2-0.1,0.3-0.2,0.5
				c-0.1,0.1-0.2,0.3-0.4,0.4c-0.1,0.1-0.3,0.2-0.4,0.3c-0.1,0.1-0.2,0.1-0.3,0.2c-0.1,0.1-0.3,0.2-0.4,0.3
				c-0.1,0.1-0.3,0.2-0.4,0.3c-0.1,0.1-0.2,0.2-0.2,0.3l-0.8-1.4c0.2-0.2,0.4-0.4,0.6-0.5c0.3-0.2,0.5-0.3,0.8-0.5
				c0.3-0.2,0.5-0.5,0.6-0.7s0-0.5-0.2-0.9l-0.8-1.4l-2.5,1.4l-0.8-1.4l6.4-3.5L998.7,134.5z M995.5,135.5c0.2,0.3,0.4,0.5,0.6,0.6
				c0.2,0.1,0.5,0,0.8-0.1c0.3-0.2,0.5-0.4,0.5-0.6c0.1-0.2,0-0.5-0.2-0.8l-0.8-1.5l-1.8,1L995.5,135.5z"/>
			<path fill="#877C6C" d="M1003.4,143.2l-5.1,5.9l-0.8-1.5l1.2-1.3l-1.3-2.4l-1.7,0.3l-0.8-1.4l7.7-1L1003.4,143.2z M999.5,145.4
				l1.9-2.1l0,0l-2.8,0.4L999.5,145.4z"/>
			<path fill="#877C6C" d="M999.2,150.6l5.3-5.5l0.8,1.4l-3.7,3.9l0,0l5.3-1l0.8,1.5l-7.6,1.3L999.2,150.6z"/>
			<path fill="#877C6C" d="M1010.5,156.2l-1.2,0.6l-1.8-3.4l-1.4,0.7l1.7,3.1l-1.1,0.6l-1.7-3.1l-1.6,0.8l1.9,3.5l-1.2,0.6l-2.6-4.9
				l6.4-3.5L1010.5,156.2z"/>
		</g>
		<path fill="none" stroke="#F4E6D7" stroke-width="3.8956" stroke-miterlimit="10" d="M157.3-2.6c-5.3,73.4,15,88.7,27.8,110.6
			s36.6,49.3,0,119.2c-18.5,30-25.1,40.7-31.8,96.7c-6.7,56-48.7,73.3-48.7,73.3"/>
		<path fill="none" stroke="#F4E6D7" stroke-width="3.8956" stroke-miterlimit="10" d="M271.1,212.9c6.7-24.9,38.1-54.2,39.4-68.2"
			/>
		<line fill="none" stroke="#F4E6D7" stroke-width="3.8956" stroke-miterlimit="10" x1="341.1" y1="56.4" x2="341.1" y2="73.9"/>
		<line fill="none" stroke="#F4E6D7" stroke-width="3.8956" stroke-miterlimit="10" x1="267.8" y1="60" x2="280.6" y2="74.1"/>
		<path fill="none" stroke="#F4E6D7" stroke-width="3.8956" stroke-miterlimit="10" d="M171.6,250.4c0,0,40.2,28.2,115.5,16.2"/>
		<path fill="none" stroke="#F4E6D7" stroke-width="3.8956" stroke-miterlimit="10" d="M224.6,338.5c-6.5,43.5-7.5,60.5,59.5,119.5"
			/>
		<line fill="none" stroke="#F4E6D7" stroke-width="3.8956" stroke-miterlimit="10" x1="314.6" y1="403" x2="343.5" y2="419.2"/>
		<path fill="none" stroke="#F4E6D7" stroke-width="3.8956" stroke-miterlimit="10" d="M290.8,335.4l60.9-5.2c0,0,21.2,1.5,34,10.4"
			/>
		<line fill="none" stroke="#F4E6D7" stroke-width="3.8956" stroke-miterlimit="10" x1="358.9" y1="389.6" x2="385.7" y2="405"/>
	</g>
	<path fill="none" stroke="#F4E6D7" stroke-width="3.8956" stroke-miterlimit="10" d="M109.3,56.4c0,0,30.4,4,49.9-3.2"/>
	<path fill="none" stroke="#F4E6D7" stroke-width="3.8956" stroke-miterlimit="10" d="M170.6,85.2c0,0,16.1-9.3,22.4-22.2"/>
	<path fill="none" stroke="#F4E6D7" stroke-width="3.8956" stroke-miterlimit="10" d="M185.1,108.1c0,0-7.8,22.6-70.5,15.2"/>
	<path fill="none" stroke="#F4E6D7" stroke-width="3.8956" stroke-miterlimit="10" d="M160.3,281.2c0,0-34.3-0.5-55.7-25.5"/>
	<path fill="none" stroke="#F4E6D7" stroke-width="3.8956" stroke-miterlimit="10" d="M548.8-63.9"/>
</g>
</svg>
