<?xml version="1.0" encoding="utf-8"?>
<!-- Generator: Adobe Illustrator 18.0.0, SVG Export Plug-In . SVG Version: 6.00 Build 0)  -->
<!DOCTYPE svg PUBLIC "-//W3C//DTD SVG 1.1//EN" "http://www.w3.org/Graphics/SVG/1.1/DTD/svg11.dtd">
<svg version="1.1" id="map" xmlns="http://www.w3.org/2000/svg" xmlns:xlink="http://www.w3.org/1999/xlink" x="0px" y="0px"
	 width="940px" height="430.4px" viewBox="193 18.6 940 430.4" enable-background="new 193 18.6 940 430.4" xml:space="preserve">
<g id="greenery">
</g>
<g id="smallroads">
	<rect x="188.1" y="18.6" fill="#F6F0EF" width="948.7" height="432.8"/>
	<g>
		<line fill="none" stroke="#F4E6D7" stroke-width="2.3201" stroke-miterlimit="10" x1="710.2" y1="-5.1" x2="710.2" y2="526.7"/>
		<line fill="none" stroke="#F4E6D7" stroke-width="2.3201" stroke-miterlimit="10" x1="716.3" y1="-5.1" x2="716.3" y2="526.7"/>
		<line fill="none" stroke="#F4E6D7" stroke-width="2.3201" stroke-miterlimit="10" x1="1062.3" y1="68.8" x2="190.2" y2="68.8"/>
		<line fill="none" stroke="#F4E6D7" stroke-width="2.3201" stroke-miterlimit="10" x1="1062.3" y1="74.8" x2="190.2" y2="74.8"/>
		<path fill="none" stroke="#F4E6D7" stroke-width="2.3201" stroke-miterlimit="10" d="M875.6,242.8c0,0-13.5-8-38.3-8
			S807,239,746.6,239c-60.4,0-54.3,1.9-69.2,10.3c-25.2,11.9-19.1,0-54.7,1.5c-15.7,0.1-41.9-3.4-64.9,30.7
			c-9.9,15.4-27.7,18.3-27.7,18.3"/>
		<path fill="none" stroke="#F4E6D7" stroke-width="2.3201" stroke-miterlimit="10" d="M684,245.3c-14.4-20.1-11.3-50.2-11.3-50.2
			c0.6-79.8-35.1-13.8-35.1-165.2c0-27.3,38.4-19.3,38.4-42.7"/>
		<path fill="none" stroke="#F4E6D7" stroke-width="2.3201" stroke-miterlimit="10" d="M658.6,254.7c0,0,25.4,16.9,25.4,49.8
			c0,43.6-36.1,54.3-44.5,73.4"/>
		<path fill="none" stroke="#F4E6D7" stroke-width="2.3201" stroke-miterlimit="10" d="M1191.1,477.7c-21-6.1-35.2-25.6-36.4-38.3
			c-2.7-45.1,33.3-93.7,17.2-164.1c-19.2-81.5-92.2-58.9-117.1-53.6c-98.7,21.4-105.6,0-144.6,3.8c-41.3,5.7-50.2,37.9-44.4,73.8
			c7.7,46.8-0.8,90.7-71.9,88.7c-143.4-3.9-137,8.8-174.8-22.2c-26.1-21.4-89.2-31.8-89.2-31.8"/>
		<path fill="none" stroke="#F4E6D7" stroke-width="2.3201" stroke-miterlimit="10" d="M681.4,246.9c0,0-6.1,16.5-4.7,28.6"/>
		<path fill="none" stroke="#F4E6D7" stroke-width="2.3201" stroke-miterlimit="10" d="M639.5,291.4c17.6,22.6-16.8,42.8-16.8,42.8
			s-10.9,8.1-16.9,23.1"/>
		<path fill="none" stroke="#F4E6D7" stroke-width="2.3201" stroke-miterlimit="10" d="M656.1,384.6c-5.1,20.4-8.2,17.3-36.9,72.8
			c0,0-10.7,19.7-16.1,34.9"/>
		<path fill="none" stroke="#F4E6D7" stroke-width="2.3201" stroke-miterlimit="10" d="M776.4,387.8c0-41-29.4-49.3-29.4-79.9
			s14.9-33.3,14.9-57.4s-6.1-34-6.1-57v-77.2c0-17,9.7-15.7,20.6-15.7c10.9,0,24.9-0.7,24.9,22.7s0,27.3,0,27.3"/>
		<path fill="none" stroke="#F4E6D7" stroke-width="2.3201" stroke-miterlimit="10" d="M756.2,335.7c-20.7,10.5-19.6,9.3-19.6,21.2
			s1.7,12.6,19.6,12.6c17.9,0,17.9,0,17.9,0"/>
		<path fill="none" stroke="#F4E6D7" stroke-width="2.3201" stroke-miterlimit="10" d="M772.5,364.2c11.5-5.5,15.7-5.2,28.8-5.2
			s27.5,6.6,40.9-8.3c13.4-14.9,5-21,5-21s5.6-8.4,2.6-16.8"/>
		<path fill="none" stroke="#F4E6D7" stroke-width="2.3201" stroke-miterlimit="10" d="M847.2,329.7c0,0-23.3,0.8-33.3,30.4"/>
		<path fill="none" stroke="#F4E6D7" stroke-width="2.3201" stroke-miterlimit="10" d="M763.2,346.3c19.7-9,25.3-15.6,38,12.7"/>
		<path fill="none" stroke="#F4E6D7" stroke-width="2.3201" stroke-miterlimit="10" d="M639.5,497.2c0,0,8.9,18.5,5,36.5"/>
		<path fill="none" stroke="#F4E6D7" stroke-width="2.3201" stroke-miterlimit="10" d="M760.7,261.2c14.9,6.1,12.5,9.5,40.6,3.7
			c16.2-2.1,8.1-6.7,37.8-10.2"/>
		<line fill="none" stroke="#F4E6D7" stroke-width="2.3201" stroke-miterlimit="10" x1="801.3" y1="264.9" x2="804.1" y2="278.9"/>
		<path fill="none" stroke="#F4E6D7" stroke-width="2.3201" stroke-miterlimit="10" d="M926.5,200.1c5.6,5.8,15.3,11.3,36.3,7.3"/>
		<path fill="none" stroke="#F4E6D7" stroke-width="2.3201" stroke-miterlimit="10" d="M986.7,537.6c-0.4-53.5,52.7-82.3,52.7-132.5
			c-7.7-102.5-61.1-54.7-68.4-211.1c-0.7-9.3-26.3-35.7-26.3-35.7c-43.3-42-42.7-43.7-42.7-76.3s2-43.7-18.3-82.4"/>
		<path fill="none" stroke="#F4E6D7" stroke-width="2.3201" stroke-miterlimit="10" d="M837.4,381.3c9.4,26.2-1.5,49.7,13.3,80.1
			s15.7,50.1-6.6,72.3"/>
		<path fill="none" stroke="#F4E6D7" stroke-width="2.3201" stroke-miterlimit="10" d="M854,369.5c21.6,14.5,18.6,13.7,51.1,13.7
			c32.5,0,24.8-8.5,33.3-8.5s23.9,9.6,30.8,6.6c6.9-3,4.5-11.9,9.3-17.6c4.9-5.7,15.8-10.1,17.4-17.4c1.6-7.3,5.3-6.5,13.4-5.3
			c8.1,1.2,4.2-3,9.4-5.3c5.2-2.4,11.3-8,25.8-6c14.6,2,34.9,1.2,49.9,22.9c15,21.7,17.4,21.7,34,25.3c5.7,1.6,8.1,8.9,15.8,15
			s15.4,6.7,15.4,6.7"/>
		<path fill="none" stroke="#F4E6D7" stroke-width="2.3201" stroke-miterlimit="10" d="M813.9,413.8c16.6,13.1,25.2,8.6,56.4,11.5
			c17.4,2,25.5,15.4,43.4,16.6c17.8,1.2,20.3-10.1,45-3.6s27.7,20.5,52.8,34"/>
		<path fill="none" stroke="#F4E6D7" stroke-width="2.3201" stroke-miterlimit="10" d="M815.6,463c0,0,14.1,1.8,32.6-7.2"/>
		<path fill="none" stroke="#F4E6D7" stroke-width="2.3201" stroke-miterlimit="10" d="M820.5,501.5c0,0,12.9-10.9,40.5-9.7"/>
		<path fill="none" stroke="#F4E6D7" stroke-width="2.3201" stroke-miterlimit="10" d="M859.2,511c0,0,32.6,8.1,35.8,22.6"/>
		<line fill="none" stroke="#F4E6D7" stroke-width="2.3201" stroke-miterlimit="10" x1="879.7" y1="413.8" x2="875.6" y2="426.3"/>
		<path fill="none" stroke="#F4E6D7" stroke-width="2.3201" stroke-miterlimit="10" d="M919.4,413.8c0,0-4.1,5.8-5.7,28.1"/>
		<line fill="none" stroke="#F4E6D7" stroke-width="2.3201" stroke-miterlimit="10" x1="958.3" y1="413.8" x2="951.9" y2="436.8"/>
		<path fill="none" stroke="#F4E6D7" stroke-width="2.3201" stroke-miterlimit="10" d="M997.6,416.9c14.6-5.4,10.3-6.5,41.2-3.1"/>
		<path fill="none" stroke="#F4E6D7" stroke-width="2.3201" stroke-miterlimit="10" d="M1086,189.8c0.8,2.8,6.4,25.3,6.4,25.3"/>
		<path fill="none" stroke="#F4E6D7" stroke-width="2.3201" stroke-miterlimit="10" d="M1146,193.5c0,0-13.9,5.6-18.5,25.5"/>
		<path fill="none" stroke="#F4E6D7" stroke-width="2.3201" stroke-miterlimit="10" d="M1171.9,275.3c0,0,12.1-1.1,25.9-7.4"/>
		<path fill="none" stroke="#F4E6D7" stroke-width="2.3201" stroke-miterlimit="10" d="M1070.9,218.2c4.5,26.7,26.8,46.8,25.2,72.4
			s-12,29.4-8,54.3"/>
		
			<line fill="none" stroke="#F4E6D7" stroke-width="2.3201" stroke-miterlimit="10" x1="1079.6" y1="242.8" x2="1061.7" y2="250.6"/>
		<path fill="none" stroke="#F4E6D7" stroke-width="2.3201" stroke-miterlimit="10" d="M1011.5,244.7c10.1,24.9,22.6,54.3,64,45.9
			c8.1-1.9,9.9-9.2,20.8-5.6"/>
		<path fill="none" stroke="#F4E6D7" stroke-width="2.3201" stroke-miterlimit="10" d="M1030.5,278.9c0,0-6,8.5-21.1,13.2"/>
		<path fill="none" stroke="#F4E6D7" stroke-width="2.3201" stroke-miterlimit="10" d="M1088.2,324.6c0,0-7.8,6.8-17.6,9.5"/>
		<path fill="none" stroke="#F4E6D7" stroke-width="2.3201" stroke-miterlimit="10" d="M1112.9,373.2c-20,40.8-17.2,50.5-45.5,59
			c-28.4,8.5-26.5,23.5-23.2,33.2c3.3,9.7,9.8,16.6-7.2,22.7c-6.5,2-15.4,3.6-15.4,3.6"/>
		<line fill="none" stroke="#F4E6D7" stroke-width="2.3201" stroke-miterlimit="10" x1="1086" y1="423.3" x2="1098.1" y2="436.8"/>
		<path fill="none" stroke="#F4E6D7" stroke-width="2.3201" stroke-miterlimit="10" d="M1049.5,375c15,3.6,21.2,14.4,50.5,26.2"/>
		<path fill="none" stroke="#F4E6D7" stroke-width="2.3201" stroke-miterlimit="10" d="M1164.6,381.3c17.1,6.3,21.1,18.9,49.1,24.6"
			/>
		<path fill="#A2DDF5" d="M772.5,307.8l-1.9-22.3c-0.8-6.5,8.1-11.9,13.8-3.9s9.1,6.7,15.1,6.3c6-0.4,6.1-3.2,9.9-4.1
			c3.8-0.8,3.8,0.3,9.5-2.3c5.7-2.6,2.8-3.1,8.5-6.1c5.7-3,6-1.8,11.7-2.2s1.7-6.7,6.1-5.4c4.5,1.3,0.8,4.1,5.5,7.6
			c4.7,3.5,5.5,23.7,0,27s-32.2,15.8-32.2,15.8l-18.6,2.1C774,326.8,783.7,307.3,772.5,307.8z"/>
		<path fill="#A2DDF5" d="M866.4,457.4c0,0-0.4-3.4,0-4.7c14.2-6,12.5-6.5,30.9,4.7c18.5,11.2,33.1,24.6,41.7,20.3s18-15.1,30.5-9.9
			s18.9,9.9,18.9,9.9l-14.7,55.9c0,0-13.2,18.7-21.8,3.9c-8.6-14.8-4.3-19.1-4.3-19.1s-5.2-10.3-15.5-11.6
			c-10.3-1.3-7.1-2.2-15.6-10.3c-8.5-8.2-6.3-9-15.8-16.3s-9.9-13.8-17.2-18.9C876.3,456.2,866.4,457.4,866.4,457.4z"/>
		<path fill="#A2DDF5" d="M1092.1,246.7l-6.1-9.2c-5.2-7.3,2.8-15.5,10.2-9.9c7.4,5.6,11.8,5.2,16.7,3c4.9-2.1,12.6-4.3,12.6,9.5
			c0,13.8,1.4,19.7,11.2,21.2c9.8,1.5,12,1.7,15.4,14.1c3.4,12.4,4.7,11.3,0,15.3c-4.7,4-3.4,9.6-12.5,10.4
			c-9,0.9-11.2-6.4-17.6-12.9c-2.1-2.7-6.9-1.6-14.2-6.6c-7.3-5-0.4-11.1-1.3-16.7C1105.7,259.4,1092.1,246.7,1092.1,246.7z"/>
		<path fill="#A2DDF5" d="M1000,533.6c0-10.4-3.6-19,18.2-15.5s28.2,5.6,29.5-3.9c1.3-9.5,19.3-10.3,24.9-22.5
			c5.6-12.3,3.3-21.2-2-28.5c-5.3-7.4,1-18.1,8.8-12.5c7.8,5.6,25.4,17.3,30.6,8.9c5.2-8.4,2.7-8.6,2.8-16.4
			c0.2-7.9,9.2-32.8,12.6-39.2c3.4-6.4,16.3-10.8,14.2,8.1c-2.1,19-5.1,42.2,0.2,58.1c5.3,15.9,67.2,59.3,67.2,59.3l-31.4,34.4
			c0,0-28.3-31.5-62.9-41.3c-34.6-9.8-82,22.4-82.4,20.9c-0.4-1.5,0-5.7,0-5.7S1000.2,537.2,1000,533.6z"/>
		<path fill="none" stroke="#F4E6D7" stroke-width="2.3201" stroke-miterlimit="10" d="M656.1,215.2c-20.8,2.6-30.3-28-30.3-28
			c-6.8-25,7.9-48.3,7.9-48.3"/>
		<path fill="none" stroke="#F4E6D7" stroke-width="2.3201" stroke-miterlimit="10" d="M637.6,208.8c0,0-13.6,10.2-23.5,5.7"/>
		<path fill="none" stroke="#F4E6D7" stroke-width="1.0133" stroke-miterlimit="10" d="M989.1,294.1c-29.9,18-31.7,15.8-23.1,30.5
			c8.6,14.7-2.6,15.8-17.2,9.7c-14.6-6.1-15.5-6.9-16.2-12.5c-0.6-5.6,0.2-6.7,14.9-6.8c8.2,0.3,13.2,0,16-4.1"/>
		<g id="marker_2_">
			<path id="pin_1_" fill="#B9252D" d="M916.8,355c1-1.5,1.5-3.3,1.5-5.2c0-5.4-4.4-9.9-9.9-9.9c-5.4,0-9.9,4.4-9.9,9.9
				c0,2.1,0.7,4,1.6,5.5l8.1,9.9L916.8,355z"/>
		</g>
		<g enable-background="new    ">
			<path fill="#877C6C" d="M986.5,280.6l-3.1,1.7l1,1.9l-0.7,0.4l-1.5-2.7l3.8-2.1L986.5,280.6z"/>
			<path fill="#877C6C" d="M988.8,284.9l-3,3.5l-0.5-0.9l0.7-0.7l-0.8-1.4l-1,0.2l-0.5-0.8l4.6-0.6L988.8,284.9z M986.5,286.2
				l1.1-1.2l0,0l-1.7,0.3L986.5,286.2z"/>
			<path fill="#877C6C" d="M990.4,287.8l-2.1,2.3l0,0l3.1-0.6l0.6,1.2l-3.8,2.1l-0.4-0.8l2.7-1.5l0,0l-3.2,0.5l-0.3-0.6l2.2-2.4l0,0
				l-2.7,1.4l-0.4-0.8l3.8-2.1L990.4,287.8z"/>
			<path fill="#877C6C" d="M993.4,293.4l-3,3.5l-0.5-0.9l0.7-0.7l-0.8-1.4l-1,0.2l-0.5-0.8l4.6-0.6L993.4,293.4z M991.1,294.7
				l1.1-1.2l0,0l-1.7,0.3L991.1,294.7z"/>
			<path fill="#877C6C" d="M995.5,297.2c0.1,0.2,0.1,0.3,0.2,0.5c0,0.2,0,0.3,0,0.5c0,0.1-0.1,0.3-0.2,0.4c-0.1,0.1-0.2,0.2-0.4,0.3
				c-0.2,0.1-0.4,0.2-0.7,0.2c-0.2,0-0.4-0.1-0.6-0.3l0,0c0,0.1,0,0.2,0,0.3c0,0.1-0.1,0.2-0.1,0.3c-0.1,0.1-0.1,0.2-0.2,0.2
				c-0.1,0.1-0.2,0.1-0.3,0.2c-0.1,0-0.1,0.1-0.2,0.1c-0.1,0-0.2,0.1-0.2,0.2c-0.1,0.1-0.2,0.1-0.2,0.2c-0.1,0.1-0.1,0.1-0.1,0.2
				l-0.5-0.8c0.1-0.1,0.2-0.2,0.4-0.3s0.3-0.2,0.5-0.3c0.2-0.1,0.3-0.3,0.3-0.4c0-0.1,0-0.3-0.1-0.5l-0.5-0.8l-1.5,0.8l-0.5-0.8
				l3.8-2.1L995.5,297.2z M993.6,297.9c0.1,0.2,0.2,0.3,0.4,0.4c0.1,0,0.3,0,0.5-0.1c0.2-0.1,0.3-0.2,0.3-0.4c0-0.1,0-0.3-0.1-0.5
				l-0.5-0.9l-1.1,0.6L993.6,297.9z"/>
			<path fill="#877C6C" d="M998.3,302.4l-3,3.5l-0.5-0.9l0.7-0.7l-0.8-1.4l-1,0.2l-0.5-0.8l4.6-0.6L998.3,302.4z M996,303.7l1.1-1.2
				l0,0l-1.7,0.3L996,303.7z"/>
			<path fill="#877C6C" d="M995.8,306.8l3.1-3.3l0.5,0.9l-2.2,2.3l0,0l3.2-0.6l0.5,0.9l-4.5,0.8L995.8,306.8z"/>
			<path fill="#877C6C" d="M1002.5,310.1l-0.7,0.4l-1.1-2l-0.8,0.4l1,1.9l-0.7,0.4l-1-1.9l-0.9,0.5l1.1,2.1l-0.7,0.4l-1.6-2.9
				l3.8-2.1L1002.5,310.1z"/>
		</g>
		<path fill="none" stroke="#F4E6D7" stroke-width="2.3201" stroke-miterlimit="10" d="M472.1,453.8c0,0,25-10.3,29-43.7
			c4-33.4,7.9-39.7,18.9-57.6c21.8-41.7,7.6-58,0-71c-7.6-13.1-19.7-22.1-16.6-65.9c1.2-23.1,30.5-56.8,28.2-81.1
			s-13.3-26.9-15.6-65.8"/>
		<path fill="none" stroke="#F4E6D7" stroke-width="2.3201" stroke-miterlimit="10" d="M571.2,344c4-14.8,22.7-32.3,23.5-40.6"/>
		<line fill="none" stroke="#F4E6D7" stroke-width="2.3201" stroke-miterlimit="10" x1="612.9" y1="250.8" x2="612.9" y2="261.2"/>
		<line fill="none" stroke="#F4E6D7" stroke-width="2.3201" stroke-miterlimit="10" x1="569.2" y1="252.9" x2="576.9" y2="261.3"/>
		<path fill="none" stroke="#F4E6D7" stroke-width="2.3201" stroke-miterlimit="10" d="M511.9,366.3c0,0,23.9,16.8,68.8,9.7"/>
		<path fill="none" stroke="#F4E6D7" stroke-width="2.3201" stroke-miterlimit="10" d="M543.5,418.8c-3.9,25.9-4.5,36,35.4,71.2"/>
		<line fill="none" stroke="#F4E6D7" stroke-width="2.3201" stroke-miterlimit="10" x1="597.1" y1="457.2" x2="614.3" y2="466.8"/>
		<path fill="none" stroke="#F4E6D7" stroke-width="2.3201" stroke-miterlimit="10" d="M582.9,416.9l36.3-3.1c0,0,12.6,0.9,20.3,6.2
			"/>
		<line fill="none" stroke="#F4E6D7" stroke-width="2.3201" stroke-miterlimit="10" x1="623.5" y1="449.2" x2="639.5" y2="458.4"/>
		<path fill="none" stroke="#F4E6D7" stroke-width="2.3201" stroke-miterlimit="10" d="M624,182.6c12.7-1.7,18.1-1.6,46.5-16.1"/>
		<line fill="none" stroke="#F4E6D7" stroke-width="2.3201" stroke-miterlimit="10" x1="716.3" y1="162.2" x2="755.7" y2="162.2"/>
		<path fill="none" stroke="#F4E6D7" stroke-width="2.3201" stroke-miterlimit="10" d="M918,130.9c-14.7,19-21,45-32.3,42
			c-19.3-4.7-27.4,2.3-27.4,18.1c0,16.4,3,33.1,32.8,16.7c7-3.3,11.9-6,25.5-5c13.7,1,16.1-12.9,16.1-12.9
			c2.7-15.7-10.1-22.6-29.4-34.7"/>
		<path fill="none" stroke="#F4E6D7" stroke-width="2.3201" stroke-miterlimit="10" d="M908.2,146.2c-17.2-9-28.4-20-32.6-47.3"/>
		<path fill="none" stroke="#F4E6D7" stroke-width="2.3201" stroke-miterlimit="10" d="M852,138.2c0,0,26.1-1.5,34.6-9.4"/>
		<path fill="none" stroke="#F4E6D7" stroke-width="2.3201" stroke-miterlimit="10" d="M898.8,35.4c0,46.5-11.7,65.5,14.3,90"/>
		<path fill="none" stroke="#F4E6D7" stroke-width="2.3201" stroke-miterlimit="10" d="M1013-3.1c28.7,25.3,22.7,16.3,22.7,94
			c0,23.3-5.7,46.7,34,79.3"/>
		<path fill="none" stroke="#F4E6D7" stroke-width="2.3201" stroke-miterlimit="10" d="M1065.9,167c-25.2,16.6-55,34.9-74.8-2.8
			s-29.8-60-53.1-60.7s-23.3-0.7-23.3-0.7"/>
		<line fill="none" stroke="#F4E6D7" stroke-width="2.3201" stroke-miterlimit="10" x1="947" y1="85.9" x2="947" y2="105.1"/>
		<line fill="none" stroke="#F4E6D7" stroke-width="2.3201" stroke-miterlimit="10" x1="947" y1="142.6" x2="968.8" y2="124.1"/>
		<path fill="none" stroke="#F4E6D7" stroke-width="2.3201" stroke-miterlimit="10" d="M971.9,128.8l18.4-9.3
			c17.1-9.7,12.7-12.4,27.4-19c14.7-6.6,18.3,1,23.7,0"/>
		<path fill="none" stroke="#F4E6D7" stroke-width="2.3201" stroke-miterlimit="10" d="M990.3,85.9c0,0,0.8,18.8,9.6,27.4"/>
		<path fill="none" stroke="#F4E6D7" stroke-width="2.3201" stroke-miterlimit="10" d="M1025.3,142.6c0,0,18.8-2.6,45.6-18.4"/>
		<path fill="none" stroke="#F4E6D7" stroke-width="2.3201" stroke-miterlimit="10" d="M1002.3,179.2c-5.7,12.1-4.7,32.7,0,41.7"/>
		<path fill="none" stroke="#F4E6D7" stroke-width="2.3201" stroke-miterlimit="10" d="M1034.5,184c4.2,15.2,13.6,27.9,13.6,27.9"/>
		<path fill="none" stroke="#F4E6D7" stroke-width="2.3201" stroke-miterlimit="10" d="M493.6,433.4c0,0-42.2-41.7-73.2,5.1"/>
		<line fill="none" stroke="#F4E6D7" stroke-width="2.3201" stroke-miterlimit="10" x1="420.3" y1="421.2" x2="427.3" y2="429.6"/>
		<path fill="none" stroke="#F4E6D7" stroke-width="2.3201" stroke-miterlimit="10" d="M512.6,270.1c0,0,9.4-4.5,14.7-13"/>
		<path fill="none" stroke="#F4E6D7" stroke-width="2.3201" stroke-miterlimit="10" d="M521.9,284.7c-11.6,4.5-41.3,1.5-67.9,6.7"/>
		<path fill="none" stroke="#F4E6D7" stroke-width="2.3201" stroke-miterlimit="10" d="M412.2,159.6l19.8-6.3
			c10.3-3,24-19.7,53.3-21.7s46.2,9.4,46.2,9.4"/>
		<path fill="none" stroke="#F4E6D7" stroke-width="2.3201" stroke-miterlimit="10" d="M470,86.2c0,0,16.3,33.7,15.3,45.3"/>
		<path fill="none" stroke="#F4E6D7" stroke-width="2.3201" stroke-miterlimit="10" d="M525.2,162.2c15.8,9.1,28.3,23.1,57.7,6.1"/>
		<path fill="none" stroke="#F4E6D7" stroke-width="2.3201" stroke-miterlimit="10" d="M529.3,121.8c17.1-3.6,20.5,12.7,43.8,7.7
			c23.3-5,32.3-10.3,30.6-43.3"/>
		<path fill="none" stroke="#F4E6D7" stroke-width="2.3201" stroke-miterlimit="10" d="M558.3,86.2c-5.3,18.3,1.8,28-4.3,42.4"/>
		<path fill="none" stroke="#F4E6D7" stroke-width="2.3201" stroke-miterlimit="10" d="M608.7-11.1c0,0-0.3,37,0,47.3
			c0.3,10.3,3,18,3,18"/>
		<path fill="none" stroke="#F4E6D7" stroke-width="2.3201" stroke-miterlimit="10" d="M609.8,46.5c0,0,26.4-1,28,0"/>
		<path fill="none" stroke="#F4E6D7" stroke-width="2.3201" stroke-miterlimit="10" d="M628.8-5.1c0,0-2.5,9.5,12,23.4"/>
		<path fill="none" stroke="#F4E6D7" stroke-width="2.3201" stroke-miterlimit="10" d="M457,68.8c-1-39.2-0.3-47.9,13-65.5
			s8.7-8,17,0s14,2.8,23-9.9s13,5.9,17.3,10.6c4.3,4.7,2.1-4.4,4.2-4.4c2.1,0,17.8,27.3,44.8,47c16.3,7.7,17.7,5.8,19,22.2"/>
		<path fill="none" stroke="#F4E6D7" stroke-width="2.3201" stroke-miterlimit="10" d="M413.3,208.8l13.7,0
			c29.3-2.2,25.3-39.6,56.7-39.6s33.7,9.2,33.7,9.2"/>
		<path fill="none" stroke="#F4E6D7" stroke-width="2.3201" stroke-miterlimit="10" d="M488,210.6c0,0,12.6,7.5,15.5,5.1"/>
		<path fill="none" stroke="#F4E6D7" stroke-width="2.3201" stroke-miterlimit="10" d="M507.6,199.3c35.1,16.6,35.1,19.2,81.7,11.2"
			/>
		<path fill="none" stroke="#F4E6D7" stroke-width="2.3201" stroke-miterlimit="10" d="M505.1,251.6c0,0-27.4,3.6-48.4,1.3
			s-46,18.6-45.7,44.6s7,34.3,30,39.3s32.9,20.3,40.8,31.7c7.9,11.3,24.3,12.6,24.3,12.6"/>
		<path fill="none" stroke="#F4E6D7" stroke-width="2.3201" stroke-miterlimit="10" d="M401,372c0,0,4.2-2.7,10,0
			c12,5.8,15.3,6.9,35,5.7s26.9,1.8,35.8-9.2"/>
		<path fill="none" stroke="#F4E6D7" stroke-width="2.3201" stroke-miterlimit="10" d="M472.1,355.6c12.3-8.3,15.6-7.9,18.3-15.6"/>
		<g enable-background="new    ">
			<path fill="#877C6C" d="M713.6,440.2l3-1v0l-3-1v-1.3h4.3v0.9h-3.1v0l3.1,1.1v0.7l-3,1.1v0h3v0.9h-4.3V440.2z"/>
			<path fill="#877C6C" d="M713.6,432.7h0.8v2.3h0.9v-2.1h0.7v2.1h1.1v-2.3h0.8v3.3h-4.3V432.7z"/>
			<path fill="#877C6C" d="M714.4,432.4h-0.8v-3.6h0.8v1.3h3.5v1h-3.5V432.4z"/>
			<path fill="#877C6C" d="M714.8,425.5c-0.1,0.1-0.2,0.1-0.2,0.2c-0.1,0.1-0.1,0.2-0.2,0.3c0,0.1-0.1,0.2-0.1,0.3
				c0,0.2,0,0.4,0.1,0.5c0.1,0.2,0.2,0.3,0.3,0.4c0.1,0.1,0.3,0.2,0.5,0.2c0.2,0,0.4,0.1,0.6,0.1c0.2,0,0.4,0,0.5-0.1
				c0.2,0,0.3-0.1,0.5-0.2c0.1-0.1,0.2-0.2,0.3-0.4c0.1-0.1,0.1-0.3,0.1-0.5c0-0.3-0.1-0.5-0.3-0.7s-0.4-0.3-0.7-0.3v-0.9
				c0.3,0,0.5,0.1,0.7,0.2c0.2,0.1,0.4,0.2,0.6,0.4s0.3,0.4,0.4,0.6s0.1,0.5,0.1,0.7c0,0.3-0.1,0.6-0.2,0.9
				c-0.1,0.3-0.3,0.5-0.5,0.7c-0.2,0.2-0.4,0.3-0.7,0.4s-0.6,0.1-0.9,0.1c-0.3,0-0.6,0-0.9-0.1c-0.3-0.1-0.5-0.2-0.7-0.4
				c-0.2-0.2-0.4-0.4-0.5-0.7c-0.1-0.3-0.2-0.6-0.2-0.9c0-0.2,0-0.5,0.1-0.7c0.1-0.2,0.2-0.4,0.3-0.6s0.3-0.3,0.5-0.4
				s0.4-0.2,0.7-0.2v0.9C715,425.5,714.8,425.5,714.8,425.5z"/>
			<path fill="#877C6C" d="M713.6,421.7l4.3-1.6v1l-1,0.3v1.6l1,0.3v1l-4.3-1.6V421.7z M716.3,421.6l-1.6,0.5v0l1.6,0.6V421.6z"/>
			<path fill="#877C6C" d="M713.6,418.7h3.5v-2.1h0.8v3.1h-4.3V418.7z"/>
			<path fill="#877C6C" d="M713.6,413h0.8v2.1h1v-1.8h0.7v1.8h1.8v1h-4.3V413z"/>
			<path fill="#877C6C" d="M713.6,408.6l4.3-1.6v1l-1,0.3v1.6l1,0.3v1l-4.3-1.6V408.6z M716.3,408.5l-1.6,0.5v0l1.6,0.6V408.5z"/>
			<path fill="#877C6C" d="M717.9,405.9l-4.3,1.4v-1l3.1-1v0l-3.1-1v-1l4.3,1.4V405.9z"/>
			<path fill="#877C6C" d="M713.6,399.8h0.8v2.3h0.9V400h0.7v2.1h1.1v-2.3h0.8v3.3h-4.3V399.8z"/>
		</g>
		<g enable-background="new    ">
			<path fill="#877C6C" d="M865.3,336.3h0.8v2.3h0.9v-2.1h0.7v2.1h1.1v-2.3h0.8v3.3h-4.3V336.3z"/>
			<path fill="#877C6C" d="M865.3,333.7c0-0.3,0-0.5,0.1-0.8c0.1-0.2,0.2-0.5,0.4-0.6c0.2-0.2,0.4-0.3,0.7-0.4
				c0.3-0.1,0.6-0.1,0.9-0.1c0.3,0,0.6,0,0.9,0.1s0.5,0.2,0.7,0.4s0.3,0.4,0.5,0.6s0.2,0.5,0.2,0.9v1.9h-4.3V333.7z M868.8,333.8
				c0-0.1,0-0.3-0.1-0.4c0-0.1-0.1-0.2-0.2-0.3c-0.1-0.1-0.2-0.2-0.4-0.2c-0.2-0.1-0.4-0.1-0.6-0.1c-0.2,0-0.4,0-0.6,0.1
				c-0.2,0-0.3,0.1-0.5,0.2c-0.1,0.1-0.2,0.2-0.3,0.4c-0.1,0.2-0.1,0.4-0.1,0.6v0.7h2.7V333.8z"/>
			<path fill="#877C6C" d="M869.6,328.5c0.1,0.2,0.1,0.4,0.1,0.6c0,0.3-0.1,0.6-0.2,0.9c-0.1,0.3-0.3,0.5-0.5,0.7
				c-0.2,0.2-0.4,0.3-0.7,0.4s-0.6,0.1-0.9,0.1c-0.3,0-0.6,0-0.9-0.1c-0.3-0.1-0.5-0.2-0.7-0.4c-0.2-0.2-0.4-0.4-0.5-0.7
				c-0.1-0.3-0.2-0.6-0.2-0.9c0-0.2,0-0.4,0.1-0.6c0.1-0.2,0.2-0.4,0.3-0.6c0.1-0.2,0.3-0.3,0.5-0.4c0.2-0.1,0.4-0.2,0.7-0.2v0.9
				c-0.2,0.1-0.4,0.2-0.5,0.3c-0.1,0.2-0.2,0.4-0.2,0.6c0,0.2,0,0.4,0.1,0.5c0.1,0.2,0.2,0.3,0.3,0.4c0.1,0.1,0.3,0.2,0.5,0.2
				c0.2,0,0.4,0.1,0.6,0.1c0.2,0,0.4,0,0.5-0.1c0.2,0,0.3-0.1,0.5-0.2c0.1-0.1,0.2-0.2,0.3-0.4c0.1-0.1,0.1-0.3,0.1-0.5
				c0-0.3-0.1-0.6-0.2-0.7s-0.4-0.3-0.7-0.3v1h-0.7v-1.8h2.3v0.6l-0.5,0.1C869.3,328.1,869.5,328.3,869.6,328.5z"/>
			<path fill="#877C6C" d="M865.3,323.2h0.8v2.3h0.9v-2.1h0.7v2.1h1.1v-2.3h0.8v3.3h-4.3V323.2z"/>
			<path fill="#877C6C" d="M869.6,319.3l-3,0.7v0l3,0.7v1l-4.3,1.1v-1l3-0.7v0l-3-0.8v-0.9l3-0.7v0l-3-0.7v-0.9l4.3,1.2V319.3z"/>
			<path fill="#877C6C" d="M865.3,314.8l4.3-1.6v1l-1,0.3v1.6l1,0.3v1l-4.3-1.6V314.8z M867.9,314.7l-1.6,0.5v0l1.6,0.6V314.7z"/>
			<path fill="#877C6C" d="M866.1,313.7h-0.8v-3.6h0.8v1.3h3.5v1h-3.5V313.7z"/>
			<path fill="#877C6C" d="M865.3,306.3h0.8v2.3h0.9v-2.1h0.7v2.1h1.1v-2.3h0.8v3.3h-4.3V306.3z"/>
			<path fill="#877C6C" d="M865.3,303.3c0-0.2,0-0.4,0.1-0.5c0.1-0.2,0.1-0.3,0.3-0.4s0.2-0.2,0.4-0.3c0.1-0.1,0.3-0.1,0.5-0.1
				c0.3,0,0.5,0.1,0.7,0.2s0.3,0.3,0.4,0.5h0c0-0.1,0.1-0.2,0.1-0.3c0.1-0.1,0.1-0.1,0.2-0.2c0.1,0,0.2-0.1,0.3-0.1s0.2,0,0.3,0
				c0.1,0,0.1,0,0.2,0c0.1,0,0.2,0,0.3,0c0.1,0,0.2,0,0.3,0s0.2-0.1,0.2-0.1v1c-0.1,0.1-0.3,0.1-0.5,0.1c-0.2,0-0.4,0-0.5,0.1
				c-0.2,0-0.4,0.1-0.5,0.2s-0.2,0.3-0.2,0.5v1h1.7v1h-4.3V303.3z M867.2,303.7c0-0.2,0-0.4-0.1-0.5c-0.1-0.1-0.3-0.2-0.5-0.2
				c-0.2,0-0.4,0.1-0.5,0.2c-0.1,0.1-0.1,0.3-0.1,0.5v1h1.2V303.7z"/>
			<path fill="#877C6C" d="M865.3,297.7c0-0.3,0-0.5,0.1-0.8c0.1-0.2,0.2-0.5,0.4-0.6c0.2-0.2,0.4-0.3,0.7-0.4
				c0.3-0.1,0.6-0.1,0.9-0.1c0.3,0,0.6,0,0.9,0.1s0.5,0.2,0.7,0.4s0.3,0.4,0.5,0.6s0.2,0.5,0.2,0.9v1.9h-4.3V297.7z M868.8,297.8
				c0-0.1,0-0.3-0.1-0.4c0-0.1-0.1-0.2-0.2-0.3c-0.1-0.1-0.2-0.2-0.4-0.2c-0.2-0.1-0.4-0.1-0.6-0.1c-0.2,0-0.4,0-0.6,0.1
				c-0.2,0-0.3,0.1-0.5,0.2c-0.1,0.1-0.2,0.2-0.3,0.4c-0.1,0.2-0.1,0.4-0.1,0.6v0.7h2.7V297.8z"/>
			<path fill="#877C6C" d="M865.3,292.7c0-0.2,0-0.4,0.1-0.5c0.1-0.2,0.1-0.3,0.3-0.4s0.2-0.2,0.4-0.3c0.1-0.1,0.3-0.1,0.5-0.1
				c0.3,0,0.5,0.1,0.7,0.2s0.3,0.3,0.4,0.5h0c0-0.1,0.1-0.2,0.1-0.3c0.1-0.1,0.1-0.1,0.2-0.2c0.1,0,0.2-0.1,0.3-0.1s0.2,0,0.3,0
				c0.1,0,0.1,0,0.2,0c0.1,0,0.2,0,0.3,0c0.1,0,0.2,0,0.3,0s0.2-0.1,0.2-0.1v1c-0.1,0.1-0.3,0.1-0.5,0.1c-0.2,0-0.4,0-0.5,0.1
				c-0.2,0-0.4,0.1-0.5,0.2s-0.2,0.3-0.2,0.5v1h1.7v1h-4.3V292.7z M867.2,293.1c0-0.2,0-0.4-0.1-0.5c-0.1-0.1-0.3-0.2-0.5-0.2
				c-0.2,0-0.4,0.1-0.5,0.2c-0.1,0.1-0.1,0.3-0.1,0.5v1h1.2V293.1z"/>
		</g>
		<g enable-background="new    ">
			<path fill="#877C6C" d="M806.2,77l-0.7-3h0l-0.7,3h-1l-1.1-4.3h1l0.7,3h0l0.8-3h0.9l0.7,3h0l0.7-3h0.9l-1.2,4.3H806.2z"/>
			<path fill="#877C6C" d="M811.6,77v-2.8h-1.1v-0.7c0.1,0,0.3,0,0.4,0s0.3-0.1,0.4-0.1c0.1-0.1,0.2-0.2,0.3-0.3s0.1-0.2,0.2-0.4
				h0.7V77H811.6z"/>
			<path fill="#877C6C" d="M813.5,76.1v-0.8l1.8-2.5h0.8v2.6h0.6v0.7h-0.6v1h-0.8v-1H813.5z M815.3,73.9l-1.1,1.5h1.1L815.3,73.9
				L815.3,73.9z"/>
			<path fill="#877C6C" d="M818.5,74.5c0.1,0,0.2,0,0.3-0.1c0.1,0,0.2-0.1,0.2-0.2s0.1-0.2,0.1-0.3c0-0.2-0.1-0.3-0.2-0.4
				c-0.1-0.1-0.3-0.1-0.4-0.1c-0.2,0-0.4,0.1-0.5,0.2c-0.1,0.1-0.2,0.3-0.2,0.5H817c0-0.2,0-0.4,0.1-0.6c0.1-0.2,0.2-0.3,0.3-0.5
				c0.1-0.1,0.3-0.2,0.5-0.3c0.2-0.1,0.4-0.1,0.6-0.1c0.2,0,0.3,0,0.5,0.1c0.2,0,0.3,0.1,0.5,0.2c0.1,0.1,0.2,0.2,0.3,0.4
				c0.1,0.1,0.1,0.3,0.1,0.5c0,0.2,0,0.4-0.1,0.5s-0.2,0.3-0.4,0.3v0c0.2,0.1,0.4,0.2,0.6,0.3s0.2,0.4,0.2,0.6c0,0.2,0,0.4-0.1,0.6
				c-0.1,0.2-0.2,0.3-0.3,0.4c-0.1,0.1-0.3,0.2-0.5,0.3c-0.2,0.1-0.4,0.1-0.6,0.1c-0.2,0-0.5,0-0.7-0.1c-0.2-0.1-0.4-0.2-0.5-0.3
				s-0.2-0.3-0.3-0.5s-0.1-0.4-0.1-0.7h0.8c0,0.1,0,0.2,0.1,0.3c0,0.1,0.1,0.2,0.1,0.3c0.1,0.1,0.1,0.1,0.2,0.2
				c0.1,0,0.2,0.1,0.3,0.1c0.2,0,0.4-0.1,0.5-0.2c0.1-0.1,0.2-0.3,0.2-0.5c0-0.2,0-0.3-0.1-0.4c-0.1-0.1-0.1-0.1-0.2-0.2
				c-0.1,0-0.2-0.1-0.3-0.1s-0.2,0-0.3,0v-0.6C818.3,74.5,818.4,74.5,818.5,74.5z"/>
			<path fill="#877C6C" d="M822.9,72.7c0.2,0,0.4,0,0.5,0.1c0.2,0.1,0.3,0.1,0.4,0.3s0.2,0.2,0.3,0.4c0.1,0.1,0.1,0.3,0.1,0.5
				c0,0.3-0.1,0.5-0.2,0.7s-0.3,0.3-0.5,0.4v0c0.1,0,0.2,0.1,0.3,0.1c0.1,0.1,0.1,0.1,0.2,0.2c0,0.1,0.1,0.2,0.1,0.3s0,0.2,0,0.3
				c0,0.1,0,0.1,0,0.2c0,0.1,0,0.2,0,0.3c0,0.1,0,0.2,0,0.3s0.1,0.2,0.1,0.2h-1c-0.1-0.1-0.1-0.3-0.1-0.5c0-0.2,0-0.4-0.1-0.5
				c0-0.2-0.1-0.4-0.2-0.5s-0.3-0.2-0.5-0.2h-1V77h-1v-4.3H822.9z M822.6,74.7c0.2,0,0.4,0,0.5-0.1c0.1-0.1,0.2-0.3,0.2-0.5
				c0-0.2-0.1-0.4-0.2-0.5c-0.1-0.1-0.3-0.1-0.5-0.1h-1v1.2H822.6z"/>
			<path fill="#877C6C" d="M826.9,72.7c0.3,0,0.5,0,0.8,0.1c0.2,0.1,0.5,0.2,0.6,0.4c0.2,0.2,0.3,0.4,0.4,0.7
				c0.1,0.3,0.1,0.6,0.1,0.9c0,0.3,0,0.6-0.1,0.9s-0.2,0.5-0.4,0.7s-0.4,0.3-0.6,0.5s-0.5,0.2-0.9,0.2H825v-4.3H826.9z M826.8,76.2
				c0.1,0,0.3,0,0.4-0.1c0.1,0,0.2-0.1,0.3-0.2c0.1-0.1,0.2-0.2,0.2-0.4c0.1-0.2,0.1-0.4,0.1-0.6c0-0.2,0-0.4-0.1-0.6
				c0-0.2-0.1-0.3-0.2-0.5c-0.1-0.1-0.2-0.2-0.4-0.3c-0.2-0.1-0.4-0.1-0.6-0.1h-0.7v2.7H826.8z"/>
			<path fill="#877C6C" d="M831.9,76c0.1,0.1,0.1,0.2,0.2,0.2c0.1,0.1,0.2,0.1,0.3,0.1c0.1,0,0.2,0,0.4,0c0.1,0,0.2,0,0.3,0
				c0.1,0,0.2,0,0.3-0.1c0.1,0,0.2-0.1,0.2-0.2c0.1-0.1,0.1-0.2,0.1-0.3c0-0.1,0-0.2-0.1-0.3c-0.1-0.1-0.2-0.1-0.3-0.2
				c-0.1,0-0.3-0.1-0.4-0.1c-0.2,0-0.3-0.1-0.5-0.1c-0.2,0-0.3-0.1-0.5-0.1c-0.2-0.1-0.3-0.1-0.4-0.2c-0.1-0.1-0.2-0.2-0.3-0.3
				c-0.1-0.1-0.1-0.3-0.1-0.5c0-0.2,0-0.4,0.1-0.6c0.1-0.2,0.2-0.3,0.4-0.4s0.3-0.2,0.5-0.2c0.2-0.1,0.4-0.1,0.6-0.1
				c0.2,0,0.4,0,0.7,0.1c0.2,0.1,0.4,0.1,0.6,0.2s0.3,0.3,0.4,0.4c0.1,0.2,0.1,0.4,0.1,0.6h-0.9c0-0.1,0-0.2-0.1-0.3
				c0-0.1-0.1-0.2-0.2-0.2c-0.1,0-0.2-0.1-0.3-0.1c-0.1,0-0.2,0-0.3,0c-0.1,0-0.2,0-0.2,0c-0.1,0-0.1,0-0.2,0.1
				c-0.1,0-0.1,0.1-0.2,0.2c0,0.1-0.1,0.1-0.1,0.2c0,0.1,0,0.2,0,0.2c0,0.1,0.1,0.1,0.2,0.1c0.1,0,0.2,0.1,0.4,0.1
				c0.2,0,0.4,0.1,0.7,0.2c0.1,0,0.2,0,0.3,0.1c0.1,0,0.3,0.1,0.4,0.2c0.1,0.1,0.3,0.2,0.4,0.4c0.1,0.2,0.2,0.4,0.2,0.6
				c0,0.2,0,0.4-0.1,0.6c-0.1,0.2-0.2,0.3-0.3,0.4s-0.3,0.2-0.6,0.3c-0.2,0.1-0.5,0.1-0.8,0.1c-0.2,0-0.5,0-0.7-0.1
				c-0.2-0.1-0.4-0.2-0.6-0.3s-0.3-0.3-0.4-0.5s-0.2-0.4-0.1-0.7h0.9C831.8,75.7,831.9,75.9,831.9,76z"/>
			<path fill="#877C6C" d="M834.8,73.5v-0.8h3.6v0.8H837V77h-1v-3.5H834.8z"/>
		</g>
		<g enable-background="new    ">
			<path fill="#877C6C" d="M714.6,131.6l3-1v0l-3-1v-1.3h4.3v0.9h-3.1v0l3.1,1.1v0.7l-3,1.1v0h3v0.9h-4.3V131.6z"/>
			<path fill="#877C6C" d="M714.6,124.2h0.8v2.3h0.9v-2.1h0.7v2.1h1.1v-2.3h0.8v3.3h-4.3V124.2z"/>
			<path fill="#877C6C" d="M715.4,123.8h-0.8v-3.6h0.8v1.3h3.5v1h-3.5V123.8z"/>
			<path fill="#877C6C" d="M715.8,117c-0.1,0.1-0.2,0.1-0.2,0.2c-0.1,0.1-0.1,0.2-0.2,0.3c0,0.1-0.1,0.2-0.1,0.3
				c0,0.2,0,0.4,0.1,0.5c0.1,0.2,0.2,0.3,0.3,0.4c0.1,0.1,0.3,0.2,0.5,0.2c0.2,0,0.4,0.1,0.6,0.1c0.2,0,0.4,0,0.5-0.1
				c0.2,0,0.3-0.1,0.5-0.2c0.1-0.1,0.2-0.2,0.3-0.4c0.1-0.1,0.1-0.3,0.1-0.5c0-0.3-0.1-0.5-0.3-0.7s-0.4-0.3-0.7-0.3v-0.9
				c0.3,0,0.5,0.1,0.7,0.2c0.2,0.1,0.4,0.2,0.6,0.4s0.3,0.4,0.4,0.6s0.1,0.5,0.1,0.7c0,0.3-0.1,0.6-0.2,0.9
				c-0.1,0.3-0.3,0.5-0.5,0.7c-0.2,0.2-0.4,0.3-0.7,0.4s-0.6,0.1-0.9,0.1c-0.3,0-0.6,0-0.9-0.1c-0.3-0.1-0.5-0.2-0.7-0.4
				c-0.2-0.2-0.4-0.4-0.5-0.7c-0.1-0.3-0.2-0.6-0.2-0.9c0-0.2,0-0.5,0.1-0.7c0.1-0.2,0.2-0.4,0.3-0.6s0.3-0.3,0.5-0.4
				s0.4-0.2,0.7-0.2v0.9C716,116.9,715.9,116.9,715.8,117z"/>
			<path fill="#877C6C" d="M714.6,113.1l4.3-1.6v1l-1,0.3v1.6l1,0.3v1l-4.3-1.6V113.1z M717.3,113l-1.6,0.5v0l1.6,0.6V113z"/>
			<path fill="#877C6C" d="M714.6,110.1h3.5V108h0.8v3.1h-4.3V110.1z"/>
			<path fill="#877C6C" d="M714.6,104.4h0.8v2.1h1v-1.8h0.7v1.8h1.8v1h-4.3V104.4z"/>
			<path fill="#877C6C" d="M714.6,100l4.3-1.6v1l-1,0.3v1.6l1,0.3v1l-4.3-1.6V100z M717.3,100l-1.6,0.5v0l1.6,0.6V100z"/>
			<path fill="#877C6C" d="M718.9,97.4l-4.3,1.4v-1l3.1-1v0l-3.1-1v-1l4.3,1.4V97.4z"/>
			<path fill="#877C6C" d="M714.6,91.2h0.8v2.3h0.9v-2.1h0.7v2.1h1.1v-2.3h0.8v3.3h-4.3V91.2z"/>
		</g>
	</g>
	<path fill="none" stroke="#EBB485" stroke-width="6" stroke-miterlimit="10" d="M411-5.1l-36,382.8c-4,31.8,0,76,0,76"/>
	<path fill="none" stroke="#EBB485" stroke-width="6" stroke-miterlimit="10" d="M401-5.1l-36,382.8c-4,31.8,0,76,0,76"/>
	<path fill="none" stroke="#F4E6D7" stroke-width="2.3201" stroke-miterlimit="10" d="M190.2,43.1c33.8,0.5,56.8-3,89.8,0
		s52.1,7.8,68.5-14.2c14-18.8,8-39.9,8-39.9"/>
	<line fill="none" stroke="#F4E6D7" stroke-width="2.3201" stroke-miterlimit="10" x1="344.8" y1="33.3" x2="355.5" y2="42.1"/>
	<path fill="none" stroke="#F4E6D7" stroke-width="2.3201" stroke-miterlimit="10" d="M280,43.1c0,0-2.5-13,14-33"/>
	<path fill="none" stroke="#F4E6D7" stroke-width="2.3201" stroke-miterlimit="10" d="M245.5,43.1c-0.5-17.5,5-20.3,4.5-48.1"/>
	<path fill="none" stroke="#F4E6D7" stroke-width="2.3201" stroke-miterlimit="10" d="M225,42.5c0,0-1.5,25.1,0,52.1
		c1.5,27,31.6,46.3,25,81.7s-8,46.9-7,75.4s28.5,34.4,5.5,58.4s-39,46.5-75,49.5"/>
	<path fill="none" stroke="#F4E6D7" stroke-width="2.3201" stroke-miterlimit="10" d="M215.6,102.6c38.4-6,44.4-8,58.4-7.5"/>
	<path fill="none" stroke="#F4E6D7" stroke-width="2.3201" stroke-miterlimit="10" d="M238.5,128.6c0,0-23.1,22.5-48.3,17"/>
	<line fill="none" stroke="#F4E6D7" stroke-width="2.3201" stroke-miterlimit="10" x1="217.3" y1="142.3" x2="226" y2="159.6"/>
	<path fill="none" stroke="#F4E6D7" stroke-width="2.3201" stroke-miterlimit="10" d="M247.8,146.4c32.2-16.4,39.8-15,59.2-8.9
		s40-4.2,40-4.2"/>
	<path fill="none" stroke="#F4E6D7" stroke-width="2.3201" stroke-miterlimit="10" d="M250,176.2c21,4.3,23.5-3.7,39.5-3.7
		s13.5,8.5,52,2.5"/>
	<path fill="none" stroke="#F4E6D7" stroke-width="2.3201" stroke-miterlimit="10" d="M244,213.4c23,1.7,19.3-4.3,42.9-4.6
		s26.1,5.5,51.6,4.9"/>
	<path fill="none" stroke="#F4E6D7" stroke-width="2.3201" stroke-miterlimit="10" d="M244,261.3c19-11.7,24.8-18.7,59.5-4.2
		c10,4.2,35-2,35-2"/>
	<line fill="none" stroke="#F4E6D7" stroke-width="2.3201" stroke-miterlimit="10" x1="236" y1="284.7" x2="251.2" y2="276.2"/>
	<path fill="none" stroke="#F4E6D7" stroke-width="2.3201" stroke-miterlimit="10" d="M257.7,291.4c19.9,7.1,27.9,6.1,46.9,2.1
		S332,294,332,294"/>
	<line fill="none" stroke="#F4E6D7" stroke-width="2.3201" stroke-miterlimit="10" x1="214.4" y1="316.4" x2="227.8" y2="331.9"/>
	<path fill="none" stroke="#F4E6D7" stroke-width="2.3201" stroke-miterlimit="10" d="M215.6,342.9c12.4,15.6,10.5,31.3,28.5,30.5"
		/>
	<path fill="none" stroke="#F4E6D7" stroke-width="2.3201" stroke-miterlimit="10" d="M242.5,316.4c14,20.2,44,19.9,45,57
		s-3,73.6-3,73.6"/>
	<path fill="none" stroke="#F4E6D7" stroke-width="2.3201" stroke-miterlimit="10" d="M278.2,346.3c0,0,13.8-25.2,50.3-12.2"/>
	<path fill="none" stroke="#F4E6D7" stroke-width="2.3201" stroke-miterlimit="10" d="M287.6,377.8c14.4-4.7,27.9,6.8,40.9-2.2"/>
	<path fill="none" stroke="#F4E6D7" stroke-width="2.3201" stroke-miterlimit="10" d="M287.6,416.3c0,0,10.9-4.8,36.4,2.5"/>
	<path fill="none" stroke="#F4E6D7" stroke-width="2.3201" stroke-miterlimit="10" d="M438,74.8c12,30.2,7.5,42.2-6,46.2
		s-20.5,32.5-21,51.5s7,29.1,0,42.3c-15.5,28.2,6.4,19.2,0,52.5c-6.5,33.2-1,29.4-12.5,56.3S404,357,401,372
		c-3,15-9.1,33.4-6.5,66.4"/>
	<line fill="none" stroke="#F4E6D7" stroke-width="2.3201" stroke-miterlimit="10" x1="411" y1="267.3" x2="418" y2="273.9"/>
	<g id="sign_2_">
		<path fill="#FFFFFF" d="M401.4,52.8c15.5-5.1,7.6-19.3,7.6-19.3s-4.9,1.1-7.6-0.2h0c-2.7,1.3-7.6,0.2-7.6,0.2S386,47.7,401.4,52.8
			L401.4,52.8z"/>
		<path fill="#0EA9D6" d="M409.5,37.7c0,0,3.6,10-8.1,13.9c-11.7-3.9-8.1-13.9-8.1-13.9H409.5z"/>
		<path fill="#D72631" d="M401.5,36.8h7.8c0,0-0.3-1.4-0.8-1.9c0,0-4.2,0.7-7-0.3c-2.9,1-7,0.3-7,0.3c-0.5,0.5-0.8,1.9-0.8,1.9
			H401.5z"/>
		<g>
			<path fill="#FFFFFF" d="M399.5,40.8c-0.1-0.2-0.3-0.2-0.5-0.2c-0.2,0-0.4,0.1-0.6,0.2c-0.1,0.1-0.3,0.3-0.4,0.5
				c-0.1,0.2-0.2,0.4-0.2,0.6c0,0.2-0.1,0.4-0.1,0.6l0,0c0.2-0.2,0.4-0.4,0.6-0.5c0.2-0.1,0.5-0.2,0.8-0.2c0.3,0,0.5,0.1,0.8,0.2
				s0.5,0.3,0.6,0.5c0.2,0.2,0.3,0.4,0.4,0.6c0.1,0.2,0.1,0.5,0.1,0.7c0,0.3-0.1,0.6-0.2,0.9s-0.2,0.5-0.4,0.7
				c-0.2,0.2-0.4,0.4-0.7,0.5c-0.3,0.1-0.6,0.2-0.9,0.2c-0.5,0-0.8-0.1-1.1-0.3c-0.3-0.2-0.5-0.4-0.7-0.7c-0.2-0.3-0.3-0.6-0.4-1
				c-0.1-0.4-0.1-0.8-0.1-1.1c0-0.4,0-0.8,0.1-1.1c0.1-0.4,0.2-0.7,0.4-1c0.2-0.3,0.4-0.6,0.7-0.7c0.3-0.2,0.7-0.3,1.1-0.3
				c0.3,0,0.5,0,0.7,0.1c0.2,0.1,0.4,0.2,0.6,0.3c0.2,0.1,0.3,0.3,0.4,0.5s0.2,0.5,0.2,0.7h-1.2C399.7,41.2,399.6,41,399.5,40.8z
				 M398.4,42.8c-0.1,0.1-0.2,0.1-0.3,0.2c-0.1,0.1-0.1,0.2-0.2,0.4c0,0.1-0.1,0.3-0.1,0.4c0,0.1,0,0.3,0.1,0.4
				c0,0.1,0.1,0.3,0.2,0.4c0.1,0.1,0.2,0.2,0.3,0.3c0.1,0.1,0.3,0.1,0.4,0.1c0.2,0,0.3,0,0.4-0.1s0.2-0.1,0.3-0.3
				c0.1-0.1,0.1-0.2,0.2-0.4c0-0.1,0.1-0.3,0.1-0.4c0-0.1,0-0.3-0.1-0.4c0-0.1-0.1-0.3-0.2-0.4c-0.1-0.1-0.2-0.2-0.3-0.3
				c-0.1-0.1-0.3-0.1-0.4-0.1C398.7,42.7,398.6,42.8,398.4,42.8z"/>
			<path fill="#FFFFFF" d="M403,44.9c0.1,0.2,0.3,0.2,0.5,0.2c0.2,0,0.4-0.1,0.6-0.2c0.1-0.1,0.3-0.3,0.3-0.5
				c0.1-0.2,0.2-0.4,0.2-0.6c0-0.2,0.1-0.4,0.1-0.6l0,0c-0.2,0.2-0.4,0.4-0.6,0.5s-0.5,0.2-0.8,0.2c-0.3,0-0.5-0.1-0.8-0.2
				c-0.2-0.1-0.5-0.3-0.6-0.5c-0.2-0.2-0.3-0.4-0.4-0.6c-0.1-0.2-0.1-0.5-0.1-0.7c0-0.3,0.1-0.6,0.2-0.9s0.2-0.5,0.4-0.7
				c0.2-0.2,0.4-0.4,0.7-0.5s0.6-0.2,0.9-0.2c0.5,0,0.8,0.1,1.1,0.3c0.3,0.2,0.5,0.4,0.7,0.7c0.2,0.3,0.3,0.6,0.4,1
				c0.1,0.4,0.1,0.8,0.1,1.1c0,0.4,0,0.8-0.1,1.1c-0.1,0.4-0.2,0.7-0.4,1c-0.2,0.3-0.4,0.6-0.7,0.7c-0.3,0.2-0.7,0.3-1.1,0.3
				c-0.3,0-0.5,0-0.7-0.1s-0.4-0.2-0.6-0.3c-0.2-0.1-0.3-0.3-0.4-0.5c-0.1-0.2-0.2-0.4-0.2-0.7h1.2C402.7,44.5,402.8,44.7,403,44.9z
				 M404,42.9c0.1-0.1,0.2-0.1,0.3-0.2c0.1-0.1,0.1-0.2,0.2-0.4c0-0.1,0.1-0.3,0.1-0.4c0-0.1,0-0.3-0.1-0.4c0-0.1-0.1-0.3-0.2-0.4
				s-0.2-0.2-0.3-0.3c-0.1-0.1-0.3-0.1-0.4-0.1c-0.1,0-0.3,0-0.4,0.1c-0.1,0.1-0.2,0.1-0.3,0.3s-0.1,0.2-0.2,0.4
				c0,0.1-0.1,0.3-0.1,0.4c0,0.1,0,0.3,0.1,0.4c0,0.1,0.1,0.3,0.2,0.4s0.2,0.2,0.3,0.3c0.1,0.1,0.3,0.1,0.4,0.1
				C403.7,43,403.9,42.9,404,42.9z"/>
		</g>
	</g>
	<g id="sign_1_">
		<path fill="#FFFFFF" d="M368.6,428.5c15.5-5.1,7.6-19.3,7.6-19.3s-4.9,1.1-7.6-0.2h0c-2.7,1.3-7.6,0.2-7.6,0.2
			S353.1,423.4,368.6,428.5L368.6,428.5z"/>
		<path fill="#0EA9D6" d="M376.6,413.4c0,0,3.6,10-8.1,13.9c-11.7-3.9-8.1-13.9-8.1-13.9H376.6z"/>
		<path fill="#D72631" d="M368.6,412.5h7.8c0,0-0.3-1.4-0.8-1.9c0,0-4.2,0.6-7-0.3c-2.9,1-7,0.3-7,0.3c-0.5,0.5-0.8,1.9-0.8,1.9
			H368.6z"/>
		<g>
			<path fill="#FFFFFF" d="M366.6,416.6c-0.1-0.2-0.3-0.2-0.5-0.2c-0.2,0-0.4,0.1-0.6,0.2c-0.1,0.1-0.3,0.3-0.4,0.5
				s-0.2,0.4-0.2,0.6c0,0.2-0.1,0.4-0.1,0.6l0,0c0.2-0.2,0.4-0.4,0.6-0.5c0.2-0.1,0.5-0.2,0.8-0.2c0.3,0,0.5,0.1,0.8,0.2
				s0.5,0.3,0.6,0.5c0.2,0.2,0.3,0.4,0.4,0.6c0.1,0.2,0.1,0.5,0.1,0.7c0,0.3-0.1,0.6-0.2,0.9c-0.1,0.3-0.2,0.5-0.4,0.7
				c-0.2,0.2-0.4,0.4-0.7,0.5c-0.3,0.1-0.6,0.2-0.9,0.2c-0.5,0-0.8-0.1-1.1-0.3c-0.3-0.2-0.5-0.4-0.7-0.7s-0.3-0.6-0.4-1
				c-0.1-0.4-0.1-0.8-0.1-1.1c0-0.4,0-0.8,0.1-1.1c0.1-0.4,0.2-0.7,0.4-1c0.2-0.3,0.4-0.6,0.7-0.7c0.3-0.2,0.7-0.3,1.1-0.3
				c0.3,0,0.5,0,0.7,0.1s0.4,0.2,0.6,0.3c0.2,0.1,0.3,0.3,0.4,0.5s0.2,0.5,0.2,0.7h-1.2C366.8,416.9,366.7,416.7,366.6,416.6z
				 M365.6,418.6c-0.1,0.1-0.2,0.1-0.3,0.2c-0.1,0.1-0.1,0.2-0.2,0.4s-0.1,0.3-0.1,0.4c0,0.1,0,0.3,0.1,0.4c0,0.1,0.1,0.3,0.2,0.4
				c0.1,0.1,0.2,0.2,0.3,0.3c0.1,0.1,0.3,0.1,0.4,0.1c0.2,0,0.3,0,0.4-0.1c0.1-0.1,0.2-0.1,0.3-0.3c0.1-0.1,0.1-0.2,0.2-0.4
				c0-0.1,0.1-0.3,0.1-0.4c0-0.1,0-0.3-0.1-0.4c0-0.1-0.1-0.3-0.2-0.4c-0.1-0.1-0.2-0.2-0.3-0.3c-0.1-0.1-0.3-0.1-0.4-0.1
				C365.8,418.5,365.7,418.5,365.6,418.6z"/>
			<path fill="#FFFFFF" d="M370.1,420.6c0.1,0.2,0.3,0.2,0.5,0.2c0.2,0,0.4-0.1,0.6-0.2c0.1-0.1,0.3-0.3,0.3-0.5
				c0.1-0.2,0.2-0.4,0.2-0.6c0-0.2,0.1-0.4,0.1-0.6l0,0c-0.2,0.2-0.4,0.4-0.6,0.5s-0.5,0.2-0.8,0.2c-0.3,0-0.5-0.1-0.8-0.2
				c-0.2-0.1-0.5-0.3-0.6-0.5c-0.2-0.2-0.3-0.4-0.4-0.6c-0.1-0.2-0.1-0.5-0.1-0.7c0-0.3,0.1-0.6,0.2-0.9c0.1-0.3,0.2-0.5,0.4-0.7
				c0.2-0.2,0.4-0.4,0.7-0.5s0.6-0.2,0.9-0.2c0.5,0,0.8,0.1,1.1,0.3c0.3,0.2,0.5,0.4,0.7,0.7c0.2,0.3,0.3,0.6,0.4,1
				c0.1,0.4,0.1,0.8,0.1,1.1c0,0.4,0,0.8-0.1,1.1c-0.1,0.4-0.2,0.7-0.4,1s-0.4,0.6-0.7,0.7c-0.3,0.2-0.7,0.3-1.1,0.3
				c-0.3,0-0.5,0-0.7-0.1c-0.2-0.1-0.4-0.2-0.6-0.3c-0.2-0.1-0.3-0.3-0.4-0.5s-0.2-0.4-0.2-0.7h1.2
				C369.8,420.3,369.9,420.4,370.1,420.6z M371.1,418.6c0.1-0.1,0.2-0.1,0.3-0.2c0.1-0.1,0.1-0.2,0.2-0.4c0-0.1,0.1-0.3,0.1-0.4
				c0-0.1,0-0.3-0.1-0.4c0-0.1-0.1-0.3-0.2-0.4s-0.2-0.2-0.3-0.3s-0.3-0.1-0.4-0.1c-0.1,0-0.3,0-0.4,0.1s-0.2,0.1-0.3,0.3
				s-0.1,0.2-0.2,0.4c0,0.1-0.1,0.3-0.1,0.4c0,0.1,0,0.3,0.1,0.4c0,0.1,0.1,0.3,0.2,0.4s0.2,0.2,0.3,0.3s0.3,0.1,0.4,0.1
				C370.9,418.7,371,418.7,371.1,418.6z"/>
		</g>
	</g>
</g>
</svg>
