<?xml version="1.0" encoding="utf-8"?>
<!-- Generator: Adobe Illustrator 18.0.0, SVG Export Plug-In . SVG Version: 6.00 Build 0)  -->
<!DOCTYPE svg PUBLIC "-//W3C//DTD SVG 1.1//EN" "http://www.w3.org/Graphics/SVG/1.1/DTD/svg11.dtd">
<svg version="1.1" id="map" xmlns="http://www.w3.org/2000/svg" xmlns:xlink="http://www.w3.org/1999/xlink" x="0px" y="0px"
	 viewBox="193 18.6 940 430.4" enable-background="new 193 18.6 940 430.4" xml:space="preserve">
<g id="land">
	<path fill="#F6F0EF" d="M179.8,12.3c-0.4,0-0.7,0-1-1.6v442.6l964.1,1.5V12.3H179.8z"/>
</g>
<g id="greenery">
	<polygon fill="#A2DDF5" points="637,252 642.5,285.5 621.5,282 611.5,270.5 	"/>
	<path fill="#A2DDF5" d="M484.5,220.5l-5,26.5l-6,2.5L458,282l29,32c0,0,22-6,23.5-6.5s7-17.5,7-17.5l-24.5-8.5l6-27l-2-36.5
		L484.5,220.5z"/>
	<polygon fill="#A2DDF5" points="737,345 733,381.5 745.5,385 750.5,365 	"/>
	<path fill="#A2DDF5" d="M779.5,411c0,0,0.5,10,2,9.5s9.5-2,9.5-2l-4.5-13L779.5,411z"/>
	<path fill="#A2DDF5" d="M336,449c0,0-11.5-19-9.5-19s12.5-4,12.5-4l10.5,10l3,15.5L336,449z"/>
	<path fill="#A2DDF5" d="M241,184c0,0-31,43-32.5,43.5s-22,4.5-22,4.5l-2-35.5c0,0,30.5-16.5,54.5-13"/>
	<path fill="#A2DDF5" d="M278.5,151c1,1.5-10,15.5-10,15.5l-10.5-6l9.5-12.5C267.5,148,272.5,142.5,278.5,151z"/>
	<polygon fill="#A2DDF5" points="529.5,104.5 503,119.5 498.5,103 506,82 520.5,78.5 	"/>
	<polygon fill="#A2DDF5" points="961,190.5 954.5,247 972,245.5 978,230.5 975,204.5 	"/>
	<path fill="#A2DDF5" d="M992,275c1.5,0,13,17,13,17l8-10.5l-6-10.5L992,275z"/>
	<path fill="#A2DDF5" d="M1051.5,258.5c1.5-1,11-16,11-16l3.5-29l9,2l5,30.5l-8,11L1051.5,258.5z"/>
	<path fill="#A2DDF5" d="M1060.5,418.5l-3.5,15l-11-2.5l-6.5-11.5C1039.5,419.5,1052.5,406,1060.5,418.5z"/>
	<path fill="#A2DDF5" d="M1092,158l9,3.5l11.5-8l1-9C1113.5,144.5,1096,139,1092,158z"/>
	<polygon fill="#A2DDF5" points="930.5,167 947,161.5 953.5,143.5 947.5,105.5 937.5,103 923.5,140 909,144 918.5,150 928,150 	"/>
	<polygon fill="#A2DDF5" points="936.5,97.5 955,104 952.5,82.5 941,83.5 	"/>
</g>
<g id="smallroads">
	<path fill="none" stroke="#F4E6D7" stroke-width="4" stroke-miterlimit="10" d="M540.5,180c0,0,12,25-16,32.5s-77,9.5-77,9.5
		L289,354l-75.5,98"/>
	<line fill="none" stroke="#F4E6D7" stroke-width="4" stroke-miterlimit="10" x1="254" y1="397" x2="266.5" y2="406.5"/>
	<path fill="none" stroke="#F4E6D7" stroke-width="4" stroke-miterlimit="10" d="M259,449l4-41c0,0,3-10,23-10s32,1.5,36,25
		s-10.5,28.5-10.5,28.5"/>
	<path fill="none" stroke="#F4E6D7" stroke-width="4" stroke-miterlimit="10" d="M315.5,406c0,0,20-16.5,54.5-4"/>
	<path fill="none" stroke="#F4E6D7" stroke-width="4" stroke-miterlimit="10" d="M405.5,385c0,0-25.5-3.5-34,11s-4.5,53-4.5,53"/>
	<path fill="none" stroke="#F4E6D7" stroke-width="4" stroke-miterlimit="10" d="M342,398.5c0,0,0,16.5,8.5,28"/>
	<line fill="none" stroke="#F4E6D7" stroke-width="4" stroke-miterlimit="10" x1="454" y1="404.5" x2="451" y2="450.5"/>
	<path fill="none" stroke="#F4E6D7" stroke-width="4" stroke-miterlimit="10" d="M451,413.5c0,0-23-3.5-41.5,13s-20.5,23-15,29"/>
	<polyline fill="none" stroke="#F4E6D7" stroke-width="4" stroke-miterlimit="10" points="360.5,296.5 382,324 410.5,324 
		410.5,307.5 420.5,295.5 390,269 	"/>
	<path fill="none" stroke="#F4E6D7" stroke-width="4" stroke-miterlimit="10" d="M191,358c0,0,79.5-31.5,100.5-71s21-48.5,39.5-54
		s23-16,23-31.5s0-49,0-49h-15.5v-19h10V98"/>
	<polyline fill="none" stroke="#F4E6D7" stroke-width="4" stroke-miterlimit="10" points="287,176 287,151 276.5,136.5 276.5,98.5 
		489,98.5 489,139 453,169 421,169 421,176 	"/>
	<line fill="none" stroke="#F4E6D7" stroke-width="4" stroke-miterlimit="10" x1="407" y1="98" x2="407" y2="17"/>
	<polyline fill="none" stroke="#F4E6D7" stroke-width="4" stroke-miterlimit="10" points="408,53.5 449.5,53.5 477,31 609.5,31 	"/>
	<line fill="none" stroke="#F4E6D7" stroke-width="4" stroke-miterlimit="10" x1="438" y1="53" x2="438" y2="15.5"/>
	<line fill="none" stroke="#F4E6D7" stroke-width="4" stroke-miterlimit="10" x1="474" y1="32" x2="458" y2="16"/>
	<line fill="none" stroke="#F4E6D7" stroke-width="4" stroke-miterlimit="10" x1="495" y1="29" x2="495" y2="13"/>
	<polyline fill="none" stroke="#F4E6D7" stroke-width="4" stroke-miterlimit="10" points="343,16.5 343,62 247.5,62 247.5,15 	"/>
	<line fill="none" stroke="#F4E6D7" stroke-width="4" stroke-miterlimit="10" x1="271" y1="61.5" x2="271" y2="15.5"/>
	<line fill="none" stroke="#F4E6D7" stroke-width="4" stroke-miterlimit="10" x1="294.5" y1="61" x2="294.5" y2="17.5"/>
	<line fill="none" stroke="#F4E6D7" stroke-width="4" stroke-miterlimit="10" x1="318" y1="62" x2="318" y2="18.6"/>
	<line fill="none" stroke="#F4E6D7" stroke-width="4" stroke-miterlimit="10" x1="280" y1="62" x2="280" y2="72"/>
	<line fill="none" stroke="#F4E6D7" stroke-width="4" stroke-miterlimit="10" x1="219.5" y1="18.6" x2="219.5" y2="73"/>
	<line fill="none" stroke="#F4E6D7" stroke-width="4" stroke-miterlimit="10" x1="218.5" y1="60.5" x2="191" y2="60.5"/>
	<polyline fill="none" stroke="#F4E6D7" stroke-width="4" stroke-miterlimit="10" points="219.5,342.5 201.5,324 189.5,332.5 	"/>
	<path fill="none" stroke="#F4E6D7" stroke-width="4" stroke-miterlimit="10" d="M485,451l0.5-30l30-31c0,0,8-6.5,8-21"/>
	<path fill="none" stroke="#F4E6D7" stroke-width="4" stroke-miterlimit="10" d="M515.5,368.5H547c0,0,9.5,21-19,42.5"/>
	<path fill="none" stroke="#F4E6D7" stroke-width="4" stroke-miterlimit="10" d="M503,384.5l29,31c0,0,7.5,4.5,32,4.5"/>
	<line fill="none" stroke="#F4E6D7" stroke-width="4" stroke-miterlimit="10" x1="546" y1="419.5" x2="546" y2="450.5"/>
	<line fill="none" stroke="#F4E6D7" stroke-width="4" stroke-miterlimit="10" x1="484.5" y1="402.5" x2="526" y2="451.5"/>
	<path fill="none" stroke="#F4E6D7" stroke-width="4" stroke-miterlimit="10" d="M288.5,400.5c0,0,5.5,22.5-1.5,31s-7,20-7,20"/>
	<path fill="none" stroke="#F4E6D7" stroke-width="4" stroke-miterlimit="10" d="M580.5,379.5l10.5-18c0,0-24-0.5-25.5,0"/>
	<line fill="none" stroke="#F4E6D7" stroke-width="4" stroke-miterlimit="10" x1="591" y1="361.5" x2="591" y2="339.5"/>
	<polyline fill="none" stroke="#F4E6D7" stroke-width="4" stroke-miterlimit="10" points="602.5,317.5 581.5,317.5 581.5,341.5 
		635,341.5 	"/>
	<polyline fill="none" stroke="#F4E6D7" stroke-width="4" stroke-miterlimit="10" points="628,296 689.5,296 689.5,430 712.5,430 
		712.5,451.5 	"/>
	<path fill="none" stroke="#F4E6D7" stroke-width="4" stroke-miterlimit="10" d="M659,337.5V246l-9-20.5l1-19c0,0,0.5-13-14-12
		S624.5,211,624.5,211s2,26.5-8,35.5"/>
	<path fill="none" stroke="#F4E6D7" stroke-width="4" stroke-miterlimit="10" d="M623,234.5c0,0,8,14.5,30,1"/>
	<polyline fill="none" stroke="#F4E6D7" stroke-width="4" stroke-miterlimit="10" points="656.5,319 636,319 636,377.5 	"/>
	<path fill="none" stroke="#F4E6D7" stroke-width="4" stroke-miterlimit="10" d="M697.5,376H627c0,0-8,3.5-8,24.5"/>
	<path fill="none" stroke="#F4E6D7" stroke-width="4" stroke-miterlimit="10" d="M582,449c0,0-2-16.5,13-30s14-20.5,34-20.5
		s21.5,13,21.5,22s0,31,0,31"/>
	<line fill="none" stroke="#F4E6D7" stroke-width="4" stroke-miterlimit="10" x1="565.5" y1="444.5" x2="580.5" y2="444.5"/>
	<polyline fill="none" stroke="#F4E6D7" stroke-width="4" stroke-miterlimit="10" points="599.5,417 626,440.5 649,440.5 	"/>
	<line fill="none" stroke="#F4E6D7" stroke-width="4" stroke-miterlimit="10" x1="626" y1="440.5" x2="623.5" y2="453.5"/>
	<line fill="none" stroke="#F4E6D7" stroke-width="4" stroke-miterlimit="10" x1="623.5" y1="420.5" x2="600.5" y2="453"/>
	<line fill="none" stroke="#F4E6D7" stroke-width="4" stroke-miterlimit="10" x1="648" y1="407.5" x2="657.8" y2="397.8"/>
	<line fill="none" stroke="#F4E6D7" stroke-width="4" stroke-miterlimit="10" x1="650.5" y1="428" x2="661" y2="428"/>
	<line fill="none" stroke="#F4E6D7" stroke-width="4" stroke-miterlimit="10" x1="620.5" y1="364.5" x2="632.5" y2="364.5"/>
	<line fill="none" stroke="#F4E6D7" stroke-width="4" stroke-miterlimit="10" x1="654" y1="375" x2="654" y2="365.5"/>
	<polyline fill="none" stroke="#F4E6D7" stroke-width="4" stroke-miterlimit="10" points="689,406.5 730.5,406.5 730.5,398 	"/>
	<line fill="none" stroke="#F4E6D7" stroke-width="4" stroke-miterlimit="10" x1="688" y1="355" x2="720" y2="355"/>
	<polyline fill="none" stroke="#F4E6D7" stroke-width="4" stroke-miterlimit="10" points="719.5,374.5 719.5,298 762.5,298 
		762.5,374 	"/>
	<line fill="none" stroke="#F4E6D7" stroke-width="4" stroke-miterlimit="10" x1="720" y1="329.5" x2="812.5" y2="329.5"/>
	<line fill="none" stroke="#F4E6D7" stroke-width="4" stroke-miterlimit="10" x1="763.5" y1="400" x2="763.5" y2="451.5"/>
	<line fill="none" stroke="#F4E6D7" stroke-width="4" stroke-miterlimit="10" x1="748.5" y1="425" x2="762" y2="425"/>
	<line fill="none" stroke="#F4E6D7" stroke-width="4" stroke-miterlimit="10" x1="786" y1="434.5" x2="786" y2="449"/>
	<line fill="none" stroke="#F4E6D7" stroke-width="4" stroke-miterlimit="10" x1="811" y1="449" x2="811" y2="373.5"/>
	<path fill="none" stroke="#F4E6D7" stroke-width="4" stroke-miterlimit="10" d="M796,404c1.5,0,13,0,13,0"/>
	<path fill="none" stroke="#F4E6D7" stroke-width="4" stroke-miterlimit="10" d="M808,254c-33,25.5-3,34-3,42.5s-6,42.5-12,59
		s12,20.8,12,20.8s18,0,39.8,0s18.8-18.8,18.8-18.8V273c0,0,2-12-20-12s-40.5,4.5-40.5-19.5s0-39.5,0-39.5l-5-25.5"/>
	<line fill="none" stroke="#F4E6D7" stroke-width="4" stroke-miterlimit="10" x1="809.5" y1="178" x2="803" y2="202"/>
	<polyline fill="none" stroke="#F4E6D7" stroke-width="4" stroke-miterlimit="10" points="789.5,197 789.5,231 819,231 819,195.5 	
		"/>
	<line fill="none" stroke="#F4E6D7" stroke-width="4" stroke-miterlimit="10" x1="847.5" y1="293.5" x2="864" y2="293.5"/>
	<line fill="none" stroke="#F4E6D7" stroke-width="4" stroke-miterlimit="10" x1="845" y1="329" x2="861" y2="329"/>
	<line fill="none" stroke="#F4E6D7" stroke-width="4" stroke-miterlimit="10" x1="805" y1="296.5" x2="817" y2="292.5"/>
	<line fill="none" stroke="#F4E6D7" stroke-width="4" stroke-miterlimit="10" x1="747" y1="296" x2="747" y2="179.5"/>
	<polyline fill="none" stroke="#F4E6D7" stroke-width="4" stroke-miterlimit="10" points="695,169 695,261 745,261 	"/>
	<path fill="none" stroke="#F4E6D7" stroke-width="4" stroke-miterlimit="10" d="M672,236.5c1.5,0,20.5,0,20.5,0"/>
	<line fill="none" stroke="#F4E6D7" stroke-width="4" stroke-miterlimit="10" x1="652.5" y1="224" x2="662.5" y2="224"/>
	<line fill="none" stroke="#F4E6D7" stroke-width="4" stroke-miterlimit="10" x1="651" y1="201" x2="659.8" y2="192.2"/>
	<line fill="none" stroke="#F4E6D7" stroke-width="4" stroke-miterlimit="10" x1="637.5" y1="177" x2="637.5" y2="194.5"/>
	<line fill="none" stroke="#F4E6D7" stroke-width="4" stroke-miterlimit="10" x1="618" y1="196" x2="625.5" y2="203.5"/>
	<line fill="none" stroke="#F4E6D7" stroke-width="4" stroke-miterlimit="10" x1="917" y1="179" x2="917" y2="196.5"/>
	<polyline fill="none" stroke="#F4E6D7" stroke-width="4" stroke-miterlimit="10" points="901.5,214.5 901.5,196.5 926.5,196.5 
		946,220.5 946,264.5 981,264.5 	"/>
	<path fill="none" stroke="#F4E6D7" stroke-width="4" stroke-miterlimit="10" d="M918.5,263.5c3,0,27.5,0,27.5,0"/>
	<line fill="none" stroke="#F4E6D7" stroke-width="4" stroke-miterlimit="10" x1="928.5" y1="236" x2="947" y2="236"/>
	<line fill="none" stroke="#F4E6D7" stroke-width="4" stroke-miterlimit="10" x1="895" y1="279.5" x2="984" y2="279.5"/>
	<line fill="none" stroke="#F4E6D7" stroke-width="4" stroke-miterlimit="10" x1="982" y1="336.5" x2="970.5" y2="336.5"/>
	<polyline fill="none" stroke="#F4E6D7" stroke-width="4" stroke-miterlimit="10" points="892.5,340 892.5,354.5 936.5,400 
		968.5,400 968.5,294.5 943.5,294.5 943.5,348 937,363 950,377 967,377 	"/>
	<line fill="none" stroke="#F4E6D7" stroke-width="4" stroke-miterlimit="10" x1="916" y1="338.5" x2="937" y2="363"/>
	<line fill="none" stroke="#F4E6D7" stroke-width="4" stroke-miterlimit="10" x1="925" y1="351.5" x2="906.5" y2="367.5"/>
	<path fill="none" stroke="#F4E6D7" stroke-width="4" stroke-miterlimit="10" d="M926.5,389.5L898,413c0,0-14.5,8-14.5,38"/>
	<path fill="none" stroke="#F4E6D7" stroke-width="4" stroke-miterlimit="10" d="M912.5,415.5l-16-23.5l-54.5,9.5
		c0,0-10-1.5-12,12.5s14,3,18.5,22"/>
	<path fill="none" stroke="#F4E6D7" stroke-width="4" stroke-miterlimit="10" d="M884,435.5c0,0-26.5-13.5-53.5,13.5"/>
	<line fill="none" stroke="#F4E6D7" stroke-width="4" stroke-miterlimit="10" x1="944.5" y1="401" x2="944.5" y2="454"/>
	<polyline fill="none" stroke="#F4E6D7" stroke-width="4" stroke-miterlimit="10" points="984,366 1111.5,366 1133,350.5 	"/>
	<polyline fill="none" stroke="#F4E6D7" stroke-width="4" stroke-miterlimit="10" points="1133,289.5 1077.5,339 1077.5,451.5 	"/>
	<line fill="none" stroke="#F4E6D7" stroke-width="4" stroke-miterlimit="10" x1="1076.5" y1="398" x2="1135.5" y2="398"/>
	<line fill="none" stroke="#F4E6D7" stroke-width="4" stroke-miterlimit="10" x1="1076.5" y1="422" x2="1134.5" y2="422"/>
	<line fill="none" stroke="#F4E6D7" stroke-width="4" stroke-miterlimit="10" x1="1077.5" y1="442.5" x2="1138" y2="442.5"/>
	<line fill="none" stroke="#F4E6D7" stroke-width="4" stroke-miterlimit="10" x1="1127" y1="294.5" x2="1094" y2="262"/>
	<polyline fill="none" stroke="#F4E6D7" stroke-width="4" stroke-miterlimit="10" points="1133,231 1021,324.5 983.5,324.5 	"/>
	<polyline fill="none" stroke="#F4E6D7" stroke-width="4" stroke-miterlimit="10" points="985,218.5 1031,218.5 1069.5,285.5 	"/>
	<line fill="none" stroke="#F4E6D7" stroke-width="4" stroke-miterlimit="10" x1="1016" y1="264.5" x2="1048.5" y2="253"/>
	<polyline fill="none" stroke="#F4E6D7" stroke-width="4" stroke-miterlimit="10" points="1023,218.5 1025,204.5 1044,196 	"/>
	<polyline fill="none" stroke="#F4E6D7" stroke-width="4" stroke-miterlimit="10" points="1080,217 1094.5,201 1135,205.5 	"/>
	<path fill="none" stroke="#F4E6D7" stroke-width="4" stroke-miterlimit="10" d="M983,123c-2.5,0-50,0-50,0"/>
	<path fill="none" stroke="#F4E6D7" stroke-width="4" stroke-miterlimit="10" d="M866,86.5c0.5-2,0-77,0-75.5"/>
	<line fill="none" stroke="#F4E6D7" stroke-width="4" stroke-miterlimit="10" x1="750" y1="178.5" x2="750" y2="72.5"/>
	<line fill="none" stroke="#F4E6D7" stroke-width="4" stroke-miterlimit="10" x1="984" y1="47.5" x2="1133" y2="47.5"/>
	<path fill="none" stroke="#F4E6D7" stroke-width="4" stroke-miterlimit="10" d="M1111.5,47.5c0.5-2.5,0-37.5,0-37.5"/>
	<line fill="none" stroke="#F4E6D7" stroke-width="4" stroke-miterlimit="10" x1="1030.5" y1="47.5" x2="1030.5" y2="176.5"/>
	<line fill="none" stroke="#F4E6D7" stroke-width="4" stroke-miterlimit="10" x1="1032" y1="94.5" x2="1140" y2="94.5"/>
	<line fill="none" stroke="#F4E6D7" stroke-width="4" stroke-miterlimit="10" x1="1031.5" y1="135.5" x2="1135" y2="135.5"/>
</g>
<g id="roads_1_">
	<path fill="none" stroke="#EAB488" stroke-width="6" stroke-miterlimit="10" d="M1207,598"/>
	<line fill="none" stroke="#F4D8B3" stroke-width="4" stroke-miterlimit="10" x1="193" y1="177" x2="1136" y2="177"/>
	<line fill="none" stroke="#F4D8B3" stroke-width="4" stroke-miterlimit="10" x1="984" y1="16" x2="984" y2="449"/>
	<path fill="none" stroke="#F4D8B3" stroke-width="4" stroke-miterlimit="10" d="M565,14c-1,3,0,439,0,439"/>
	<path fill="none" stroke="#F4D8B3" stroke-width="4" stroke-linejoin="round" stroke-miterlimit="10" d="M562,105l-24,71
		c0,0-6.5-36.5-30.5-24"/>
	<line fill="none" stroke="#F4D8B3" stroke-width="4" stroke-miterlimit="10" x1="386.5" y1="240.5" x2="402" y2="176"/>
	<path fill="none" stroke="#F4D8B3" stroke-width="4" stroke-miterlimit="10" d="M412.5,176c0,0-33.5,25.5,11,34"/>
	<polyline fill="none" stroke="#EAB488" stroke-width="6" stroke-miterlimit="10" points="646,16 255,360 187,451 	"/>
	<polyline fill="none" stroke="#EAB488" stroke-width="6" stroke-miterlimit="10" points="659,16 262,365 194,456 	"/>
</g>
<g id="marker">
	<path id="pin_1_" fill="#B9252D" d="M875,205c1-1.6,1.6-3.5,1.6-5.5c0-5.7-4.6-10.4-10.4-10.4c-5.7,0-10.4,4.6-10.4,10.4
		c0,2.2,0.7,4.2,1.8,5.8l8.6,10.4L875,205z"/>
</g>
<text transform="matrix(0 1 -1 0 980.8184 187.4224)" fill="#877C6C" font-family="'HelveticaNeue-Bold'" font-size="10">N 145TH E AVE</text>
<text transform="matrix(0 1 -1 0 561.4854 187.4224)" fill="#877C6C" font-family="'HelveticaNeue-Bold'" font-size="10">N 129TH AVE</text>
<text transform="matrix(1 0 0 1 893.3715 180.6287)" fill="#877C6C" font-family="'HelveticaNeue-Bold'" font-size="10">E 96TH ST N</text>
<g id="sign_1_">
	<path fill="#FFFFFF" stroke="#231F20" stroke-miterlimit="10" d="M454.7,205.7c11,0,8-9,8-9c2.3-2.2-0.2-6-0.2-6
		c-3.5,2.5-7.7-0.5-7.7-0.5l0,0c0,0-4.3,3-7.8,0.5c0,0-2.5,3.8-0.2,6c0,0-3,9,8,9H454.7z"/>
	<text transform="matrix(1 0 0 1 447.2292 201.1152)" font-family="'MyriadPro-Regular'" font-size="9.1978">169</text>
</g>
</svg>
