<?xml version="1.0" encoding="utf-8"?>
<!-- Generator: Adobe Illustrator 18.0.0, SVG Export Plug-In . SVG Version: 6.00 Build 0)  -->
<!DOCTYPE svg PUBLIC "-//W3C//DTD SVG 1.1//EN" "http://www.w3.org/Graphics/SVG/1.1/DTD/svg11.dtd">
<svg version="1.1" id="map" xmlns="http://www.w3.org/2000/svg" xmlns:xlink="http://www.w3.org/1999/xlink" x="0px" y="0px"
	 viewBox="0 0 664.6 304.5" enable-background="new 0 0 664.6 304.5" xml:space="preserve">
<rect y="-0.2" fill="#F6F0EF" width="664.6" height="304.7"/>
<g id="greenery">
</g>
<path fill="none" stroke="#F4E6D7" stroke-width="4" stroke-miterlimit="10" d="M85.3,17.9C105,17.9,123.5-6,123.5-6"/>
<path fill="none" stroke="#F4E6D7" stroke-width="4" stroke-miterlimit="10" d="M105.8,10.5c55.2,60,55.7,78.3,149.7,93
	c64,10,70,21,114,63.5s58,50.8,58,71.7"/>
<path fill="none" stroke="#F4E6D7" stroke-width="4" stroke-miterlimit="10" d="M121.5,28c-16,13.5-15,26.5-9,46.5c9,28-4,43-4,65.5
	s3.5,18,3.5,31s-8.5,25.5,3,35s22,0,53,0c19.5,0,20.5,12.3,42.5,12.3s26-26.2,45.5-26.2s72,17.4,72,17.4c15.5,4,26.5,4,35.5-8.5"/>
<path fill="none" stroke="#F4E6D7" stroke-width="4" stroke-miterlimit="10" d="M141,92c35.5,27,57,34.5,110,43s54.5,7.2,126,82.6"
	/>
<path fill="none" stroke="#F4E6D7" stroke-width="4" stroke-miterlimit="10" d="M158.4,104.4c-13.4,16-4.4,14.9-4.4,50.5
	s-3.7,26.8-3.7,52.2"/>
<path fill="none" stroke="#F4E6D7" stroke-width="4" stroke-miterlimit="10" d="M199.1,123.8c-14.2,38.7,8.7,50.7-14.2,86.4"/>
<path fill="none" stroke="#F4E6D7" stroke-width="4" stroke-miterlimit="10" d="M241,133.3c-6,22.2,0,25.7,0,36.7
	s-5.7,14.9,1.4,27.2"/>
<path fill="none" stroke="#F4E6D7" stroke-width="4" stroke-miterlimit="10" d="M286.4,141.8c-3.4,10.7,6.7-2.7-10.9,53"/>
<path fill="none" stroke="#F4E6D7" stroke-width="4" stroke-miterlimit="10" d="M328.5,168.3c-6.5,9.2-2,9.3-10.5,38.7"/>
<path fill="none" stroke="#F4E6D7" stroke-width="4" stroke-miterlimit="10" d="M313.8,207.1c0,0-16.9,53.9,5.1,83.9l8.7,7.5l-2-7.5
	c-22-30-5.1-83.9-5.1-83.9"/>
<path fill="none" stroke="#F4D8B3" stroke-width="4" stroke-miterlimit="10" d="M327.5,298.5c0,0,6.7,8.1,19,17.2"/>
<path fill="none" stroke="#F4E6D7" stroke-width="4" stroke-miterlimit="10" d="M401.3,197.2c20.4-20.4,20.5-23.7,47.7,3.5"/>
<path fill="none" stroke="#F4E6D7" stroke-width="4" stroke-miterlimit="10" d="M300,308.2C357.3,272,350,276,514.7,276
	c6,0,5.3,5.1,22,32.2"/>
<g id="marker_1_">
	<path id="pin_2_" fill="#B9252D" d="M456.9,219.4c0.7-1.1,1.1-2.4,1.1-3.8c0-3.9-3.2-7.2-7.2-7.2c-3.9,0-7.2,3.2-7.2,7.2
		c0,1.5,0.5,2.9,1.2,4l5.9,7.2L456.9,219.4z"/>
</g>
<text transform="matrix(0.7223 0.6915 -0.6915 0.7223 342.9402 144.4829)" fill="#877C6C" font-family="'HelveticaNeue-Bold'" font-size="6.8936">ARAPAHOE DR NE</text>
<path fill="none" stroke="#F4E6D7" stroke-width="4" stroke-miterlimit="10" d="M649,238.7C649,84,643.7,81,668.5,53.5"/>
<path fill="none" stroke="#F4E6D7" stroke-width="4" stroke-miterlimit="10" d="M377-6c0,13,0,17.5,53.5,68.5s48.9,53.1,218.2,53.1"
	/>
<text transform="matrix(1 0 0 1 544.1345 117.5616)" fill="#877C6C" font-family="'HelveticaNeue-Bold'" font-size="6.8936">MANITOBA RD NE</text>
<line fill="none" stroke="#F4D8B3" stroke-width="4" stroke-miterlimit="10" x1="0" y1="238.7" x2="664.6" y2="238.7"/>
<line fill="none" stroke="#F4D8B3" stroke-width="4" stroke-miterlimit="10" x1="0" y1="246" x2="664.6" y2="246"/>
<path fill="none" stroke="#F4D8B3" stroke-width="4" stroke-miterlimit="10" d="M85.3,0v259.3c0,0-1.8,32.7-12.5,48.9"/>
<path fill="none" stroke="#F4D8B3" stroke-width="4" stroke-miterlimit="10" d="M77.9,0v259.3c0,0-1.8,32.7-12.5,48.9"/>
<text transform="matrix(1 0 0 1 462.6345 241.4932)" fill="#877C6C" font-family="'HelveticaNeue-Bold'" font-size="6.8936">NORTHERN BLVD NE</text>
</svg>
