<svg xmlns="http://www.w3.org/2000/svg" viewBox="0 0 664.6 304.5" enable-background="new 0 0 664.6 304.5"><path fill="#F6F0EF" d="M0-.2h664.6v304.7H0z"/><path stroke="#F4E6D7" stroke-width="4" stroke-miterlimit="10" d="M85.3 17.9C105 17.9 123.5-6 123.5-6M105.8 10.5c55.2 60 55.7 78.3 149.7 93 64 10 70 21 114 63.5s58 50.8 58 71.7M121.5 28c-16 13.5-15 26.5-9 46.5 9 28-4 43-4 65.5s3.5 18 3.5 31-8.5 25.5 3 35 22 0 53 0c19.5 0 20.5 12.3 42.5 12.3s26-26.2 45.5-26.2 72 17.4 72 17.4c15.5 4 26.5 4 35.5-8.5M141 92c35.5 27 57 34.5 110 43s54.5 7.2 126 82.6M158.4 104.4c-13.4 16-4.4 14.9-4.4 50.5s-3.7 26.8-3.7 52.2M199.1 123.8c-14.2 38.7 8.7 50.7-14.2 86.4M241 133.3c-6 22.2 0 25.7 0 36.7s-5.7 14.9 1.4 27.2M286.4 141.8c-3.4 10.7 6.7-2.7-10.9 53M328.5 168.3c-6.5 9.2-2 9.3-10.5 38.7M313.8 207.1s-16.9 53.9 5.1 83.9l8.7 7.5-2-7.5c-22-30-5.1-83.9-5.1-83.9" fill="none"/><path stroke="#F4D8B3" stroke-width="4" stroke-miterlimit="10" d="M327.5 298.5s6.7 8.1 19 17.2" fill="none"/><path stroke="#F4E6D7" stroke-width="4" stroke-miterlimit="10" d="M401.3 197.2c20.4-20.4 20.5-23.7 47.7 3.5M300 308.2C357.3 272 350 276 514.7 276c6 0 5.3 5.1 22 32.2" fill="none"/><path fill="#B9252D" d="M456.9 219.4c.7-1.1 1.1-2.4 1.1-3.8 0-3.9-3.2-7.2-7.2-7.2-3.9 0-7.2 3.2-7.2 7.2 0 1.5.5 2.9 1.2 4l5.9 7.2 6.2-7.4z"/><text transform="matrix(.722 .692 -.692 .722 342.94 144.483)" fill="#877C6C" font-family="'HelveticaNeue-Bold'" font-size="6.894">ARAPAHOE DR NE</text><path stroke="#F4E6D7" stroke-width="4" stroke-miterlimit="10" d="M649 238.7C649 84 643.7 81 668.5 53.5M377-6c0 13 0 17.5 53.5 68.5s48.9 53.1 218.2 53.1" fill="none"/><text transform="translate(544.135 117.562)" fill="#877C6C" font-family="'HelveticaNeue-Bold'" font-size="6.894">MANITOBA RD NE</text><path stroke="#F4D8B3" stroke-width="4" stroke-miterlimit="10" fill="none" d="M0 238.7h664.6M0 246h664.6M85.3 0v259.3s-1.8 32.7-12.5 48.9M77.9 0v259.3s-1.8 32.7-12.5 48.9"/><text transform="translate(462.635 241.493)" fill="#877C6C" font-family="'HelveticaNeue-Bold'" font-size="6.894">NORTHERN BLVD NE</text></svg>