<?xml version="1.0" encoding="utf-8"?>
<!-- Generator: Adobe Illustrator 18.0.0, SVG Export Plug-In . SVG Version: 6.00 Build 0)  -->
<!DOCTYPE svg PUBLIC "-//W3C//DTD SVG 1.1//EN" "http://www.w3.org/Graphics/SVG/1.1/DTD/svg11.dtd">
<svg version="1.1" id="map" xmlns="http://www.w3.org/2000/svg" xmlns:xlink="http://www.w3.org/1999/xlink" x="0px" y="0px"
	 viewBox="193 18.6 940 430.4" enable-background="new 193 18.6 940 430.4" xml:space="preserve">
<g id="land">
	<path fill="#F6F0EF" d="M179.8,12.3c-0.4,0-0.7,0-1-1.6v442.6l964.1,1.5V12.3H179.8z"/>
</g>
<g id="greenery">
	<path fill="#A4DEF5" d="M536.4,379.7c-4,1.9-8.4,3.2-12.8,3.8c-0.5,3.5,2.8,7.1,1.5,10.4c-0.5,1.2-1.4,2.2-2.3,3.1
		c-2.1,2.4-3.7,5.3-4.5,8.4c-0.5,1.8-0.7,4.1,0.7,5.4c1.1,1.1,2.9,1.2,4.4,0.7c1.5-0.5,2.7-1.6,3.9-2.7c1.7-1.5,3.4-3,5.1-4.6
		c3.1-2.7,6.1-5.5,8.5-8.8c2.4-3.3,4-7.4,3.8-11.4c-0.1-2.4-1.3-5.1-3.6-5.6C539.5,378.2,537.9,379,536.4,379.7z"/>
	<path fill="#A1D7F7" d="M514.7,270.7c-3.1-0.4-6.5,0.8-8.6,3.1c-2.2,2.3-3.1,5.7-2.5,8.8c4.3,1.5,9.3,0.4,12.6-2.7
		c1.2-1.1,2.2-2.6,2.4-4.2c0.2-1.6-0.4-3.4-1.8-4.3C516.1,271,515.4,270.8,514.7,270.7z"/>
	<path fill="#A1D7F7" d="M909.7,347.6c0.9,0.9,2.5,1.8,3.2,0.8c2.1-4.2,2.2-9.4,0.3-13.8c-2-1.9-5.4-1.9-7.4-0.1
		c-1.1,2.1-1,4.8-0.2,7.1C906.5,343.8,908,345.8,909.7,347.6z"/>
</g>
<g id="smallroads">
	<polyline fill="none" stroke="#F4E6D7" stroke-width="4" stroke-miterlimit="10" points="872,449 872,410 1000.7,410 1000.7,449 	
		"/>
	<polyline fill="none" stroke="#F4E6D7" stroke-width="4" stroke-miterlimit="10" points="1037.3,449 1037.3,411.3 1135.3,411.3 	
		"/>
	<path fill="none" stroke="#F4E6D7" stroke-width="4" stroke-miterlimit="10" d="M800,195.3h178c0,0,39.3-14.7,74.7-0.7h82.7"/>
	<polyline fill="none" stroke="#F4E6D7" stroke-width="4" stroke-miterlimit="10" points="1040,190 1040,91.3 1078,91.3 1078,150.7 
		1135.3,150.7 	"/>
	<line fill="none" stroke="#F4E6D7" stroke-width="4" stroke-miterlimit="10" x1="874.7" y1="194" x2="874.7" y2="116.7"/>
	<polyline fill="none" stroke="#F4E6D7" stroke-width="4" stroke-miterlimit="10" points="842.7,117.3 1002,117.3 1002,188 	"/>
	<line fill="none" stroke="#F4E6D7" stroke-width="4" stroke-miterlimit="10" x1="874" y1="154" x2="1001.3" y2="154"/>
	<polyline fill="none" stroke="#F4E6D7" stroke-width="4" stroke-miterlimit="10" points="1002,117.3 1002,76.7 926,76.7 	"/>
	<line fill="none" stroke="#F4E6D7" stroke-width="4" stroke-miterlimit="10" x1="925.3" y1="117.3" x2="925.3" y2="57.3"/>
	<path fill="none" stroke="#F4E6D7" stroke-width="4" stroke-miterlimit="10" d="M1038,18.6v32c0,0,50,5.3,82.7-34.7"/>
	<line fill="none" stroke="#F4E6D7" stroke-width="4" stroke-miterlimit="10" x1="1080" y1="27.3" x2="1086.7" y2="40.7"/>
	<path fill="none" stroke="#F4E6D7" stroke-width="4" stroke-miterlimit="10" d="M1078,91.3c0,0,36-11.3,57.3-33.3"/>
	<path fill="none" stroke="#F4E6D7" stroke-width="4" stroke-miterlimit="10" d="M1110.7,77.3c2,0,8.7,9.3,8.7,35.3h16"/>
	<path fill="none" stroke="#F4E6D7" stroke-width="4" stroke-miterlimit="10" d="M742.7,120.7c0,0,6-14.7,30.7-14.7
		c24.7,0,44.7,0,44.7,0V52.7h-72c0,0-59.3,34.7-59.3,68.7"/>
	<line fill="none" stroke="#F4E6D7" stroke-width="4" stroke-miterlimit="10" x1="778.7" y1="104.7" x2="778.7" y2="94"/>
	<line fill="none" stroke="#F4E6D7" stroke-width="4" stroke-miterlimit="10" x1="818" y1="82" x2="839.3" y2="82"/>
	<line fill="none" stroke="#F4E6D7" stroke-width="4" stroke-miterlimit="10" x1="730" y1="60.7" x2="584" y2="60.7"/>
	<line fill="none" stroke="#F4E6D7" stroke-width="4" stroke-miterlimit="10" x1="702.7" y1="58.7" x2="702.7" y2="14"/>
	<path fill="none" stroke="#F4E6D7" stroke-width="4" stroke-miterlimit="10" d="M650,59.3c0,0-24-12.7-24-44.7"/>
	<line fill="none" stroke="#F4E6D7" stroke-width="4" stroke-miterlimit="10" x1="633.3" y1="40.7" x2="646" y2="25.3"/>
	<path fill="none" stroke="#F4E6D7" stroke-width="4" stroke-miterlimit="10" d="M588.7,15.3c0,0,0.7,54-16,76
		c-16.7,22-30.7,67.3-26,118.7"/>
	<line fill="none" stroke="#F4E6D7" stroke-width="4" stroke-miterlimit="10" x1="518" y1="194" x2="545.3" y2="194"/>
	<line fill="none" stroke="#F4E6D7" stroke-width="4" stroke-miterlimit="10" x1="518.7" y1="155.3" x2="549.3" y2="155.3"/>
	<line fill="none" stroke="#F4E6D7" stroke-width="4" stroke-miterlimit="10" x1="517.3" y1="118.7" x2="556.7" y2="118.7"/>
	<path fill="none" stroke="#F4E6D7" stroke-width="4" stroke-miterlimit="10" d="M552,137.3c0,0,18-0.7,31.3-6.7
		c13.3-6,30-18.7,30-18.7l30.7,26l-62.7,36l-35.3,2.7"/>
	<line fill="none" stroke="#F4E6D7" stroke-width="4" stroke-miterlimit="10" x1="570" y1="192" x2="570" y2="175.3"/>
	<line fill="none" stroke="#F4E6D7" stroke-width="4" stroke-miterlimit="10" x1="596" y1="165.3" x2="615.3" y2="192"/>
	<line fill="none" stroke="#F4E6D7" stroke-width="4" stroke-miterlimit="10" x1="629.3" y1="148" x2="650" y2="168.7"/>
	<path fill="none" stroke="#F4E6D7" stroke-width="4" stroke-miterlimit="10" d="M572.7,91.3c0,0-4.7-13.3-19.3-13.3
		c-14.7,0-40.7,0-40.7,0V40h-43.3"/>
	<path fill="none" stroke="#F4E6D7" stroke-width="4" stroke-miterlimit="10" d="M474.7,18.6l-16,56L412,119.3l-6,77.3l67.3,0.7
		l-0.7-76c0,0-29.3-3.3-42-17.3"/>
	<line fill="none" stroke="#F4E6D7" stroke-width="4" stroke-miterlimit="10" x1="468" y1="80.7" x2="458.7" y2="74.7"/>
	<line fill="none" stroke="#F4E6D7" stroke-width="4" stroke-miterlimit="10" x1="402.7" y1="196" x2="317.3" y2="196"/>
	<polyline fill="none" stroke="#F4E6D7" stroke-width="4" stroke-miterlimit="10" points="336,194.7 336,55.3 394.7,55.3 
		413.3,67.3 	"/>
	<line fill="none" stroke="#F4E6D7" stroke-width="4" stroke-miterlimit="10" x1="318.7" y1="120.7" x2="334.7" y2="120.7"/>
	<polyline fill="none" stroke="#F4E6D7" stroke-width="4" stroke-miterlimit="10" points="337.3,92.7 386,92.7 428.7,52 437.3,16 	
		"/>
	<line fill="none" stroke="#F4E6D7" stroke-width="4" stroke-miterlimit="10" x1="420" y1="25.3" x2="434" y2="32"/>
	<line fill="none" stroke="#F4E6D7" stroke-width="4" stroke-miterlimit="10" x1="369.3" y1="94.7" x2="369.3" y2="196"/>
	<path fill="none" stroke="#F4E6D7" stroke-width="4" stroke-miterlimit="10" d="M650.7,60.7c0,0-2.7,15.3,10.7,21.3"/>
</g>
<g id="roads">
	<line fill="none" stroke="#F4D8B3" stroke-width="4" stroke-miterlimit="10" x1="842" y1="18.6" x2="842" y2="449"/>
	<path fill="none" stroke="#F4D8B3" stroke-width="4" stroke-miterlimit="10" d="M608,310.7l138.7-34c0,0,30-10,70.7-10
		c40.7,0,116,0,116,0s69.3,2.7,123.3,15.3"/>
	<path fill="none" stroke="#F4D8B3" stroke-width="4" stroke-miterlimit="10" d="M1016,291.3c0,0-37.3,3.3-71.3,20
		c-34,16.7-56.7,22.7-111.3,22c-54.7-0.7-109.3-8-134-10c-24.7-2-50-5.3-80-2.7"/>
	<path fill="none" stroke="#EAB488" stroke-width="6" stroke-miterlimit="10" d="M1138,296c0,0-42.2-25-205.1-11S189,345,189,345"/>
	<path fill="none" stroke="#EAB488" stroke-width="6" stroke-miterlimit="10" d="M1138,306c0,0-42.2-25-205.1-11S189,355,189,355"/>
</g>
<g id="marker">
	<path id="pin_1_" fill="#B9252D" d="M871,191c1-1.6,1.6-3.5,1.6-5.5c0-5.7-4.6-10.4-10.4-10.4c-5.7,0-10.4,4.6-10.4,10.4
		c0,2.2,0.7,4.2,1.8,5.8l8.6,10.4L871,191z"/>
</g>
<text transform="matrix(2.621826e-03 -1 1 2.621826e-03 845.9592 174.8209)" fill="#877C6C" font-family="'HelveticaNeue-Bold'" font-size="10">S ELM PL</text>
<text transform="matrix(0.9976 -6.882512e-02 6.882512e-02 0.9976 715.6386 316.0579)" fill="#877C6C" font-family="'HelveticaNeue-Bold'" font-size="10">CREEK TURNPIKE</text>
<text transform="matrix(1 1.117177e-04 -1.117177e-04 1 894.6144 198.943)" fill="#877C6C" font-family="'HelveticaNeue-Bold'" font-size="10">W MIAMI ST</text>
</svg>
