<?xml version="1.0" encoding="utf-8"?>
<!-- Generator: Adobe Illustrator 18.0.0, SVG Export Plug-In . SVG Version: 6.00 Build 0)  -->
<!DOCTYPE svg PUBLIC "-//W3C//DTD SVG 1.1//EN" "http://www.w3.org/Graphics/SVG/1.1/DTD/svg11.dtd">
<svg version="1.1" id="map" xmlns="http://www.w3.org/2000/svg" xmlns:xlink="http://www.w3.org/1999/xlink" x="0px" y="0px"
	 viewBox="193 18.6 940 430.4" enable-background="new 193 18.6 940 430.4" xml:space="preserve">
<g id="land">
	<path fill="#F6F0EF" d="M179.8-17.7c-0.4,0-0.7,0-1-1.6v472.6l964.1,1.5V-17.7H179.8z"/>
</g>
<g id="greenery">
	<path fill="#A4DEF5" d="M536.4,349.7c-4,1.9-8.4,3.2-12.8,3.8c-0.5,3.5,2.8,7.1,1.5,10.4c-0.5,1.2-1.4,2.2-2.3,3.1
		c-2.1,2.4-3.7,5.3-4.5,8.4c-0.5,1.8-0.7,4.1,0.7,5.4c1.1,1.1,2.9,1.2,4.4,0.7c1.5-0.5,2.7-1.6,3.9-2.7c1.7-1.5,3.4-3,5.1-4.6
		c3.1-2.7,6.1-5.5,8.5-8.8c2.4-3.3,4-7.4,3.8-11.4c-0.1-2.4-1.3-5.1-3.6-5.6C539.5,348.2,537.9,349,536.4,349.7z"/>
	<path fill="#A1D7F7" d="M514.7,240.7c-3.1-0.4-6.5,0.8-8.6,3.1c-2.2,2.3-3.1,5.7-2.5,8.8c4.3,1.5,9.3,0.4,12.6-2.7
		c1.2-1.1,2.2-2.6,2.4-4.2c0.2-1.6-0.4-3.4-1.8-4.3C516.1,241,515.4,240.8,514.7,240.7z"/>
	<path fill="#A1D7F7" d="M909.7,317.6c0.9,0.9,2.5,1.8,3.2,0.8c2.1-4.2,2.2-9.4,0.3-13.8c-2-1.9-5.4-1.9-7.4-0.1
		c-1.1,2.1-1,4.8-0.2,7.1C906.5,313.8,908,315.8,909.7,317.6z"/>
</g>
<g id="smallroads">
	<polyline fill="none" stroke="#F4E6D7" stroke-width="4" stroke-miterlimit="10" points="872,449 872,380 1000.7,380 1000.7,449 	
		"/>
	<polyline fill="none" stroke="#F4E6D7" stroke-width="4" stroke-miterlimit="10" points="1037.3,449 1037.3,381.3 1135.3,381.3 	
		"/>
	<path fill="none" stroke="#F4E6D7" stroke-width="4" stroke-miterlimit="10" d="M800,165.3h178c0,0,39.3-14.7,74.7-0.7h82.7"/>
	<polyline fill="none" stroke="#F4E6D7" stroke-width="4" stroke-miterlimit="10" points="1040,160 1040,61.3 1078,61.3 1078,120.7 
		1135.3,120.7 	"/>
	<line fill="none" stroke="#F4E6D7" stroke-width="4" stroke-miterlimit="10" x1="874.7" y1="164" x2="874.7" y2="86.7"/>
	<polyline fill="none" stroke="#F4E6D7" stroke-width="4" stroke-miterlimit="10" points="842.7,87.3 1002,87.3 1002,158 	"/>
	<line fill="none" stroke="#F4E6D7" stroke-width="4" stroke-miterlimit="10" x1="874" y1="124" x2="1001.3" y2="124"/>
	<polyline fill="none" stroke="#F4E6D7" stroke-width="4" stroke-miterlimit="10" points="1002,87.3 1002,46.7 926,46.7 	"/>
	<line fill="none" stroke="#F4E6D7" stroke-width="4" stroke-miterlimit="10" x1="925.3" y1="87.3" x2="925.3" y2="27.3"/>
	<path fill="none" stroke="#F4E6D7" stroke-width="4" stroke-miterlimit="10" d="M1038-11.4v32c0,0,50,5.3,82.7-34.7"/>
	<line fill="none" stroke="#F4E6D7" stroke-width="4" stroke-miterlimit="10" x1="1080" y1="-2.7" x2="1086.7" y2="10.7"/>
	<path fill="none" stroke="#F4E6D7" stroke-width="4" stroke-miterlimit="10" d="M1078,61.3c0,0,36-11.3,57.3-33.3"/>
	<path fill="none" stroke="#F4E6D7" stroke-width="4" stroke-miterlimit="10" d="M1110.7,47.3c2,0,8.7,9.3,8.7,35.3h16"/>
	<path fill="none" stroke="#F4E6D7" stroke-width="4" stroke-miterlimit="10" d="M742.7,90.7c0,0,6-14.7,30.7-14.7
		c24.7,0,44.7,0,44.7,0V22.7h-72c0,0-59.3,34.7-59.3,68.7"/>
	<line fill="none" stroke="#F4E6D7" stroke-width="4" stroke-miterlimit="10" x1="778.7" y1="74.7" x2="778.7" y2="64"/>
	<line fill="none" stroke="#F4E6D7" stroke-width="4" stroke-miterlimit="10" x1="818" y1="52" x2="839.3" y2="52"/>
	<line fill="none" stroke="#F4E6D7" stroke-width="4" stroke-miterlimit="10" x1="730" y1="30.7" x2="584" y2="30.7"/>
	<line fill="none" stroke="#F4E6D7" stroke-width="4" stroke-miterlimit="10" x1="702.7" y1="28.7" x2="702.7" y2="-16"/>
	<path fill="none" stroke="#F4E6D7" stroke-width="4" stroke-miterlimit="10" d="M650,29.3c0,0-24-12.7-24-44.7"/>
	<line fill="none" stroke="#F4E6D7" stroke-width="4" stroke-miterlimit="10" x1="633.3" y1="10.7" x2="646" y2="-4.7"/>
	<path fill="none" stroke="#F4E6D7" stroke-width="4" stroke-miterlimit="10" d="M588.7-14.7c0,0,0.7,54-16,76
		c-16.7,22-30.7,67.3-26,118.7"/>
	<line fill="none" stroke="#F4E6D7" stroke-width="4" stroke-miterlimit="10" x1="518" y1="164" x2="545.3" y2="164"/>
	<line fill="none" stroke="#F4E6D7" stroke-width="4" stroke-miterlimit="10" x1="518.7" y1="125.3" x2="549.3" y2="125.3"/>
	<line fill="none" stroke="#F4E6D7" stroke-width="4" stroke-miterlimit="10" x1="517.3" y1="88.7" x2="556.7" y2="88.7"/>
	<path fill="none" stroke="#F4E6D7" stroke-width="4" stroke-miterlimit="10" d="M552,107.3c0,0,18-0.7,31.3-6.7
		c13.3-6,30-18.7,30-18.7l30.7,26l-62.7,36l-35.3,2.7"/>
	<line fill="none" stroke="#F4E6D7" stroke-width="4" stroke-miterlimit="10" x1="570" y1="162" x2="570" y2="145.3"/>
	<line fill="none" stroke="#F4E6D7" stroke-width="4" stroke-miterlimit="10" x1="596" y1="135.3" x2="615.3" y2="162"/>
	<line fill="none" stroke="#F4E6D7" stroke-width="4" stroke-miterlimit="10" x1="629.3" y1="118" x2="650" y2="138.7"/>
	<path fill="none" stroke="#F4E6D7" stroke-width="4" stroke-miterlimit="10" d="M572.7,61.3c0,0-4.7-13.3-19.3-13.3
		c-14.7,0-40.7,0-40.7,0V10h-43.3"/>
	<path fill="none" stroke="#F4E6D7" stroke-width="4" stroke-miterlimit="10" d="M474.7-11.4l-16,56L412,89.3l-6,77.3l67.3,0.7
		l-0.7-76c0,0-29.3-3.3-42-17.3"/>
	<line fill="none" stroke="#F4E6D7" stroke-width="4" stroke-miterlimit="10" x1="468" y1="50.7" x2="458.7" y2="44.7"/>
	<line fill="none" stroke="#F4E6D7" stroke-width="4" stroke-miterlimit="10" x1="402.7" y1="166" x2="317.3" y2="166"/>
	<polyline fill="none" stroke="#F4E6D7" stroke-width="4" stroke-miterlimit="10" points="336,164.7 336,25.3 394.7,25.3 
		413.3,37.3 	"/>
	<line fill="none" stroke="#F4E6D7" stroke-width="4" stroke-miterlimit="10" x1="318.7" y1="90.7" x2="334.7" y2="90.7"/>
	<polyline fill="none" stroke="#F4E6D7" stroke-width="4" stroke-miterlimit="10" points="337.3,62.7 386,62.7 428.7,22 437.3,-14 	
		"/>
	<line fill="none" stroke="#F4E6D7" stroke-width="4" stroke-miterlimit="10" x1="420" y1="-4.7" x2="434" y2="2"/>
	<line fill="none" stroke="#F4E6D7" stroke-width="4" stroke-miterlimit="10" x1="369.3" y1="64.7" x2="369.3" y2="166"/>
	<path fill="none" stroke="#F4E6D7" stroke-width="4" stroke-miterlimit="10" d="M650.7,30.7c0,0-2.7,15.3,10.7,21.3"/>
</g>
<g id="roads">
	<line fill="none" stroke="#F4D8B3" stroke-width="4" stroke-miterlimit="10" x1="842" y1="-11.4" x2="842" y2="449"/>
	<path fill="none" stroke="#F4D8B3" stroke-width="4" stroke-miterlimit="10" d="M608,280.7l138.7-34c0,0,30-10,70.7-10
		c40.7,0,116,0,116,0s69.3,2.7,123.3,15.3"/>
	<path fill="none" stroke="#F4D8B3" stroke-width="4" stroke-miterlimit="10" d="M1016,261.3c0,0-37.3,3.3-71.3,20
		c-34,16.7-56.7,22.7-111.3,22c-54.7-0.7-109.3-8-134-10c-24.7-2-50-5.3-80-2.7"/>
	<path fill="none" stroke="#EAB488" stroke-width="6" stroke-miterlimit="10" d="M1138,266c0,0-42.2-25-205.1-11S189,315,189,315"/>
	<path fill="none" stroke="#EAB488" stroke-width="6" stroke-miterlimit="10" d="M1138,276c0,0-42.2-25-205.1-11S189,325,189,325"/>
</g>
<g id="marker">
	<path id="pin_1_" fill="#B9252D" d="M931,328c1-1.6,1.6-3.5,1.6-5.5c0-5.7-4.6-10.4-10.4-10.4c-5.7,0-10.4,4.6-10.4,10.4
		c0,2.2,0.7,4.2,1.8,5.8l8.6,10.4L931,328z"/>
</g>
<text transform="matrix(2.620000e-03 -1 1 2.620000e-03 845.924 144.8266)" fill="#877C6C" font-family="'HelveticaNeue-Bold'" font-size="10">S ELM PL</text>
<text transform="matrix(0.9976 -6.883000e-02 6.883000e-02 0.9976 715.7136 286.053)" fill="#877C6C" font-family="'HelveticaNeue-Bold'" font-size="10">CREEK TURNPIKE</text>
<text transform="matrix(1 1.100000e-04 -1.100000e-04 1 894.6283 168.929)" fill="#877C6C" font-family="'HelveticaNeue-Bold'" font-size="10">W MIAMI ST</text>
<text transform="matrix(1 1.100000e-04 -1.100000e-04 1 899.6283 383.929)" fill="#877C6C" font-family="'HelveticaNeue-Bold'" font-size="10">W QUANAH ST</text>
</svg>
