<?xml version="1.0" encoding="utf-8"?>
<!-- Generator: Adobe Illustrator 18.1.0, SVG Export Plug-In . SVG Version: 6.00 Build 0)  -->
<svg version="1.1" id="map" xmlns="http://www.w3.org/2000/svg" xmlns:xlink="http://www.w3.org/1999/xlink" x="0px" y="0px"
	 viewBox="193 18.6 940 570" enable-background="new 193 18.6 940 570" xml:space="preserve">
<g id="greenery">
</g>
<g id="smallroads">
</g>
<g id="sign">
</g>
<g id="land">
	<path fill="#F6F0EF" d="M190,14.6v574.1h942.8l0.3-573.9c0,0,0,0,0,0L190,14.6z"/>
</g>
<rect x="804.7" y="12.3" fill="#F4E6D7" width="8" height="578.7"/>
<rect x="190" y="330.9" fill="#F4E6D7" width="951.3" height="8"/>
<rect x="726" y="196.9" fill="#F4E6D7" width="407.2" height="8"/>
<rect x="810.3" y="262.3" fill="#F4E6D7" width="203.6" height="8"/>
<rect x="1028.9" y="380" fill="#F4E6D7" width="8" height="170"/>
<rect x="960.7" y="380" fill="#F4E6D7" width="76.2" height="8"/>
<rect x="916" y="507" fill="#F4E6D7" width="116.9" height="8"/>
<rect x="916" y="449" fill="#F4E6D7" width="116.9" height="8"/>
<rect x="915.6" y="449" fill="#F4E6D7" width="8" height="66"/>
<polygon fill="#F4E6D7" points="960.7,380 960.7,388 864.7,434.3 808.7,434.3 808.7,426.3 864.7,426.3 "/>
<polygon fill="#F4E6D7" points="801.8,318.2 792.7,322.9 258.7,322.9 258.7,317.9 "/>
<polygon fill="#F4E6D7" points="870.2,331.2 870.2,336.2 808.7,321.6 748.2,336.2 748.2,331.2 808.5,316.6 "/>
<polygon fill="#F4E6D7" points="869.7,338.8 869.7,333.8 808.2,348.4 747.7,333.8 747.7,338.8 807.9,353.4 "/>
<g id="marker_2_">
	<path id="pin_2_" fill="#B9252D" d="M796.4,211.1c1.2-1.8,1.9-4,1.9-6.3c0-6.5-5.3-11.8-11.8-11.8c-6.5,0-11.8,5.3-11.8,11.8
		c0,2.5,0.8,4.7,2,6.6l9.8,11.8L796.4,211.1z"/>
</g>
<g>
	<path fill="#FFFFFF" d="M690.2,347.3c17.7-5.9,8.7-22,8.7-22s-5.6,1.2-8.7-0.3h0c-3,1.5-8.7,0.3-8.7,0.3S672.5,341.4,690.2,347.3
		L690.2,347.3z"/>
	<path fill="#0EA9D6" d="M699.4,330c0,0,4.2,11.4-9.2,15.9c-13.4-4.5-9.2-15.9-9.2-15.9H699.4z"/>
	<path fill="#D72631" d="M690.2,329h8.9c0,0-0.4-1.6-0.9-2.2c0,0-4.7,0.7-8-0.4c-3.3,1.1-8,0.4-8,0.4c-0.5,0.6-0.9,2.2-0.9,2.2
		H690.2z"/>
	<text transform="matrix(1 0 0 1 684.4016 339.4258)" fill="#FFFFFF" font-family="'HelveticaNeue-Bold'" font-size="9.9473">40</text>
</g>
<g>
	<path fill="#FFFFFF" d="M976.2,347.3c17.7-5.9,8.7-22,8.7-22s-5.6,1.2-8.7-0.3h0c-3,1.5-8.7,0.3-8.7,0.3S958.5,341.4,976.2,347.3
		L976.2,347.3z"/>
	<path fill="#0EA9D6" d="M985.4,330c0,0,4.2,11.4-9.2,15.9c-13.4-4.5-9.2-15.9-9.2-15.9H985.4z"/>
	<path fill="#D72631" d="M976.2,329h8.9c0,0-0.4-1.6-0.9-2.2c0,0-4.7,0.7-8-0.4c-3.3,1.1-8,0.4-8,0.4c-0.5,0.6-0.9,2.2-0.9,2.2
		H976.2z"/>
	<text transform="matrix(1 0 0 1 970.4016 339.4258)" fill="#FFFFFF" font-family="'HelveticaNeue-Bold'" font-size="9.9473">40</text>
</g>
<rect x="780.3" y="95.6" fill="none" width="34" height="170.7"/>
<text transform="matrix(0 1 -1 0 805.6973 95.5905)" fill="#58585B" font-family="'HelveticaNeue-Bold'" font-size="12">N Harrison</text>
<rect x="918.2" y="196.9" fill="none" width="170.7" height="34"/>
<text transform="matrix(1 0 0 1 918.2501 205.4913)" fill="#58585B" font-family="'HelveticaNeue-Bold'" font-size="12">Westech Rd</text>
</svg>
