<?xml version="1.0" encoding="utf-8"?>
<!-- Generator: Adobe Illustrator 18.0.0, SVG Export Plug-In . SVG Version: 6.00 Build 0)  -->
<!DOCTYPE svg PUBLIC "-//W3C//DTD SVG 1.1//EN" "http://www.w3.org/Graphics/SVG/1.1/DTD/svg11.dtd">
<svg version="1.1" id="map" xmlns="http://www.w3.org/2000/svg" xmlns:xlink="http://www.w3.org/1999/xlink" x="0px" y="0px"
	 viewBox="193 18.6 940 430.4" enable-background="new 193 18.6 940 430.4" xml:space="preserve">
<g id="land">
	<path fill="#F6F0EF" d="M179.8,12.3c-0.4,0-0.7,0-1-1.6v442.6l964.1,1.5V12.3H179.8z"/>
</g>
<g id="greenery">
	<polygon fill="#A2DDF5" points="1061.7,176.3 1042.7,182.7 1049.3,211 1066,213.7 	"/>
	<polygon fill="#A2DDF5" points="1014.3,289 998.7,299 1001.7,325 1032.7,330 1035,305.3 	"/>
	<polyline fill="none" stroke="#A2DDF5" stroke-width="3" stroke-miterlimit="10" points="544,18.6 528.7,119.3 520.7,164.7 
		481.3,234.7 476,290.7 338,362 312,335.3 267.3,323.3 193,360.7 	"/>
	<polygon fill="#DEECD2" points="398,344 398,452 585.3,452 585.3,295.7 496.7,281.3 487.3,301.3 	"/>
</g>
<g id="smallroads">
	<polyline fill="none" stroke="#F4E6D7" stroke-width="4" stroke-miterlimit="10" points="1133,275 789,275 764,283 589,283 
		589,204 608,161 608,115 	"/>
	<polygon fill="none" stroke="#F4E6D7" stroke-width="4" stroke-miterlimit="10" points="578.5,274.2 578.5,197 594.5,163 
		594.5,124 555,124 555,165.5 501.5,250 519.5,274.2 	"/>
	<line fill="none" stroke="#F4E6D7" stroke-width="4" stroke-miterlimit="10" x1="529" y1="202.5" x2="577.5" y2="202.5"/>
	<line fill="none" stroke="#F4E6D7" stroke-width="4" stroke-miterlimit="10" x1="577" y1="144.5" x2="594" y2="144.5"/>
	<line fill="none" stroke="#F4E6D7" stroke-width="4" stroke-miterlimit="10" x1="550.5" y1="174" x2="573.5" y2="174"/>
	<polyline fill="none" stroke="#F4E6D7" stroke-width="4" stroke-miterlimit="10" points="515,228.5 535.5,228.5 535.5,273 	"/>
	<line fill="none" stroke="#F4E6D7" stroke-width="4" stroke-miterlimit="10" x1="555.5" y1="234" x2="577" y2="234"/>
	<polyline fill="none" stroke="#F4E6D7" stroke-width="4" stroke-miterlimit="10" points="522,115 522,123 475,209.5 431,209.5 
		431,179 490.5,179 	"/>
	<polyline fill="none" stroke="#F4E6D7" stroke-width="4" stroke-miterlimit="10" points="1053.5,276 1053.5,367.5 922.5,367.5 
		896.5,383.5 705.5,383.5 	"/>
	<polyline fill="none" stroke="#F4E6D7" stroke-width="4" stroke-miterlimit="10" points="932.5,368 932.5,385.5 942.5,404.5 
		942.5,431 931,449 	"/>
	<polyline fill="none" stroke="#F4E6D7" stroke-width="4" stroke-miterlimit="10" points="845.5,449 845.5,434.5 762,434.5 	"/>
	<line fill="none" stroke="#F4E6D7" stroke-width="4" stroke-miterlimit="10" x1="785.5" y1="435.5" x2="785.5" y2="444"/>
	<polyline fill="none" stroke="#F4E6D7" stroke-width="4" stroke-miterlimit="10" points="742.5,385 742.5,422 786,422 786,392 
		744,392 	"/>
	<line fill="none" stroke="#F4E6D7" stroke-width="4" stroke-miterlimit="10" x1="760.5" y1="385" x2="760.5" y2="392"/>
	<polyline fill="none" stroke="#F4E6D7" stroke-width="4" stroke-miterlimit="10" points="729.5,382.5 729.5,412 718.5,412 	"/>
	<line fill="none" stroke="#F4E6D7" stroke-width="4" stroke-miterlimit="10" x1="1033" y1="37.5" x2="1029.5" y2="15"/>
	<line fill="none" stroke="#F4E6D7" stroke-width="4" stroke-miterlimit="10" x1="1096.5" y1="33.5" x2="1093" y2="15"/>
	<path fill="none" stroke="#F4E6D7" stroke-width="4" stroke-miterlimit="10" d="M383.5,359.5c0,0-56.5-2.5-56.5,52.5v37"/>
	<polyline fill="none" stroke="#F4E6D7" stroke-width="4" stroke-miterlimit="10" points="193,419 294.5,356 294.5,300.5 	"/>
	<path fill="none" stroke="#F4E6D7" stroke-width="4" stroke-miterlimit="10" d="M396,301.5H283c0,0-57.5-7-90,33"/>
	<line fill="none" stroke="#F4E6D7" stroke-width="4" stroke-miterlimit="10" x1="312" y1="105.5" x2="312" y2="301"/>
	<path fill="none" stroke="#F4E6D7" stroke-width="4" stroke-miterlimit="10" d="M250.5,302c0,0-9.5-18-9.5-42s0-131.5,0-131.5
		s1.5-16.5-11.5-23.5"/>
	<line fill="none" stroke="#F4E6D7" stroke-width="4" stroke-miterlimit="10" x1="313.5" y1="235" x2="385" y2="235"/>
	<line fill="none" stroke="#F4E6D7" stroke-width="4" stroke-miterlimit="10" x1="301" y1="18.6" x2="301" y2="63"/>
	<line fill="none" stroke="#F4E6D7" stroke-width="4" stroke-miterlimit="10" x1="227" y1="18.6" x2="227" y2="63"/>
	<path fill="none" stroke="#F4E6D7" stroke-width="4" stroke-miterlimit="10" d="M244,388c0,0,15.5,22.5,15.5,61"/>
	<path fill="none" stroke="#F4E6D7" stroke-width="4" stroke-miterlimit="10" d="M204,412c0,0,9.5,10,9.5,37"/>
</g>
<g id="roads_1_">
	<path fill="none" stroke="#EAB488" stroke-width="6" stroke-miterlimit="10" d="M1207,598"/>
	<path fill="none" stroke="#F4D8B3" stroke-width="4" stroke-miterlimit="10" d="M1180,16"/>
	<path fill="none" stroke="#F4D8B3" stroke-width="4" stroke-miterlimit="10" d="M920,449"/>
	<path fill="none" stroke="#F4D8B3" stroke-width="4" stroke-miterlimit="10" d="M190,50"/>
	<path fill="none" stroke="#F4D8B3" stroke-width="4" stroke-miterlimit="10" d="M900,449"/>
	<path fill="none" stroke="#F4D8B3" stroke-width="4" stroke-miterlimit="10" d="M170,50"/>
	<path fill="none" stroke="#EAB488" stroke-width="6" stroke-miterlimit="10" d="M629,449"/>
	<polyline fill="none" stroke="#F4D8B3" stroke-width="4" stroke-miterlimit="10" points="193,73 783,75 1133,39 	"/>
	<polyline fill="none" stroke="#F4D8B3" stroke-width="4" stroke-miterlimit="10" points="193,115 783,117 1133,81 	"/>
	<line fill="none" stroke="#F4D8B3" stroke-width="4" stroke-miterlimit="10" x1="801" y1="16" x2="801" y2="449"/>
	<line fill="none" stroke="#F4D8B3" stroke-width="4" stroke-miterlimit="10" x1="387" y1="16" x2="387" y2="449"/>
	<polyline fill="none" stroke="#EAB488" stroke-width="6" stroke-miterlimit="10" points="193,90 787,90 1133,56 	"/>
	<polyline fill="none" stroke="#EAB488" stroke-width="6" stroke-miterlimit="10" points="193,100 787,100 1133,66 	"/>
</g>
<g id="marker">
	<path id="pin_1_" fill="#B9252D" d="M875,205c1-1.6,1.6-3.5,1.6-5.5c0-5.7-4.6-10.4-10.4-10.4c-5.7,0-10.4,4.6-10.4,10.4
		c0,2.2,0.7,4.2,1.8,5.8l8.6,10.4L875,205z"/>
</g>
<text transform="matrix(1 0 0 1 841.3334 279)" fill="#877C6C" font-family="'HelveticaNeue-Bold'" font-size="10">SW 79TH ST</text>
<g id="sign">
	<path fill="#FFFFFF" stroke="#231F20" stroke-miterlimit="10" d="M845.4,97.3c11,0,6-9,6-9c2.3-2.2-0.2-6-0.2-6
		c-3.5,2.5-5.7-0.5-5.7-0.5l0,0c0,0-2.3,3-5.8,0.5c0,0-2.5,3.8-0.2,6c0,0-5,9,6,9H845.4z"/>
	<text transform="matrix(1 0 0 1 840.8958 92.7819)" font-family="'MyriadPro-Regular'" font-size="9.1978">62</text>
</g>
<text transform="matrix(4.489659e-11 1 -1 4.489659e-11 797.8164 155.7557)" fill="#877C6C" font-family="'HelveticaNeue-Bold'" font-size="10">S WALKER AVE</text>
<g id="sign_2_">
	<path fill="#FFFFFF" d="M755.2,104c15.5-5.1,7.6-19.3,7.6-19.3s-4.9,1.1-7.6-0.2h0c-2.7,1.3-7.6,0.2-7.6,0.2S739.7,98.9,755.2,104
		L755.2,104z"/>
	<path fill="#0EA9D6" d="M763.3,88.8c0,0,3.6,10-8.1,13.9c-11.7-3.9-8.1-13.9-8.1-13.9H763.3z"/>
	<path fill="#D72631" d="M755.2,88h7.8c0,0-0.3-1.4-0.8-1.9c0,0-4.2,0.7-7-0.3c-2.9,1-7,0.3-7,0.3c-0.5,0.5-0.8,1.9-0.8,1.9H755.2z"
		/>
	<text transform="matrix(1 0 0 1 747.7047 97.0884)" fill="#FFFFFF" font-family="'HelveticaNeue-Bold'" font-size="8.7129">240</text>
</g>
</svg>
