<?xml version="1.0" encoding="utf-8"?>
<!-- Generator: Adobe Illustrator 18.0.0, SVG Export Plug-In . SVG Version: 6.00 Build 0)  -->
<!DOCTYPE svg PUBLIC "-//W3C//DTD SVG 1.1//EN" "http://www.w3.org/Graphics/SVG/1.1/DTD/svg11.dtd">
<svg version="1.1" id="map" xmlns="http://www.w3.org/2000/svg" xmlns:xlink="http://www.w3.org/1999/xlink" x="0px" y="0px"
	 viewBox="193 18.6 940 430.4" enable-background="new 193 18.6 940 430.4" xml:space="preserve">
<g id="land">
	<path fill="#F6F0EF" d="M179.8,12.3c-0.4,0-0.7,0-1-1.6v442.6l964.1,1.5V12.3H179.8z"/>
</g>
<g id="greenery">
	<path fill="#A2DDF5" d="M767,197.5l2.5,13l-9,11L743,215l-3.5-11.5C739.5,203.5,749.5,183.5,767,197.5z"/>
	<path fill="#A2DDF5" d="M319.5,282l-2.5,12l13.5,7l19.5-6.5l-4.5-13C345.5,281.5,333.5,272.5,319.5,282z"/>
	<path fill="#A2DDF5" d="M190.5,362c0,1.5,17,35,17,35l80.5,28.5l28,25H191L190.5,362z"/>
	<polygon fill="#A2DDF5" points="305,399 320.5,425 319,432 347,449 352,449 312,397.5 	"/>
	<path fill="#A2DDF5" d="M367,175l0.5,47l18.5,1l3.5-12.5l-11-12C378.5,198.5,380,172.5,367,175z"/>
	<polygon fill="#A2DDF5" points="402,215 400,228 414.5,227 407.5,214.5 	"/>
	<path fill="#A2DDF5" d="M427,210l-8,5.5l4,9l9.5-1.5C432.5,223,434,210,427,210z"/>
	<path fill="#A2DDF5" d="M241,97.5c0,0-13-6.5-16,4.5s8.5,10.5,8.5,10.5l15-3L260,95l-13-4.5L241,97.5z"/>
	<polyline fill="none" stroke="#A2DDF5" stroke-width="2" stroke-miterlimit="10" points="888,17 936.5,58.5 936.5,450.5 	"/>
</g>
<g id="smallroads">
	<line fill="none" stroke="#F4E6D7" stroke-width="4" stroke-miterlimit="10" x1="948" y1="112.5" x2="1105" y2="112.5"/>
	<line fill="none" stroke="#F4E6D7" stroke-width="4" stroke-miterlimit="10" x1="1051" y1="79" x2="1040.5" y2="112"/>
	<line fill="none" stroke="#F4E6D7" stroke-width="4" stroke-miterlimit="10" x1="1077.5" y1="80.5" x2="1075.5" y2="112"/>
	<path fill="none" stroke="#F4E6D7" stroke-width="4" stroke-miterlimit="10" d="M1011,114.5c0-1.5-5-31.5-5-31.5"/>
	<path fill="none" stroke="#F4E6D7" stroke-width="4" stroke-miterlimit="10" d="M1040,28h-92.5v118.5c0,0,24,13,24,43.5
		s0,43.5,0,43.5"/>
	<line fill="none" stroke="#F4E6D7" stroke-width="4" stroke-miterlimit="10" x1="958.5" y1="201.5" x2="971" y2="201.5"/>
	<path fill="none" stroke="#F4E6D7" stroke-width="4" stroke-miterlimit="10" d="M971,179l-12.5,0.5l-5-9.5c0,0,12-5.5,37.5-5.5
		s36,0,36,0v-23h-80"/>
	<path fill="none" stroke="#F4E6D7" stroke-width="4" stroke-miterlimit="10" d="M982,28v40c0,0-1.5,17.5,23.5,17.5S1026,65,1026,65
		V29"/>
	<line fill="none" stroke="#F4E6D7" stroke-width="4" stroke-miterlimit="10" x1="818" y1="234" x2="818" y2="280"/>
	<polyline fill="none" stroke="#F4E6D7" stroke-width="4" stroke-miterlimit="10" points="817,264 792,264 792,290 	"/>
	<path fill="none" stroke="#F4E6D7" stroke-width="4" stroke-miterlimit="10" d="M789.5,274.5c0,0-20.5,0.5-21,0s0-12,0-12H726"/>
	<line fill="none" stroke="#F4E6D7" stroke-width="4" stroke-miterlimit="10" x1="738" y1="263.5" x2="738" y2="280"/>
	<path fill="none" stroke="#F4E6D7" stroke-width="4" stroke-miterlimit="10" d="M832,223.5c-1.5-0.5-16,0-16,0v-59h26.5"/>
	<polyline fill="none" stroke="#F4E6D7" stroke-width="4" stroke-miterlimit="10" points="842,232 842,148.5 873,148.5 873,132 
		904.5,132 904.5,199 891.5,212 891.5,234 	"/>
	<line fill="none" stroke="#F4E6D7" stroke-width="4" stroke-miterlimit="10" x1="891.5" y1="212" x2="893.5" y2="181.5"/>
	<line fill="none" stroke="#F4E6D7" stroke-width="4" stroke-miterlimit="10" x1="904" y1="182.5" x2="842.5" y2="182.5"/>
	<path fill="none" stroke="#F4E6D7" stroke-width="4" stroke-miterlimit="10" d="M903.5,159c1.5,0,14.5,0,14.5,0l-14-20.5"/>
	<polyline fill="none" stroke="#F4E6D7" stroke-width="4" stroke-miterlimit="10" points="852,231.5 852,196.5 878.5,196.5 
		878.5,234 	"/>
	<polyline fill="none" stroke="#F4E6D7" stroke-width="4" stroke-miterlimit="10" points="727.5,66.5 769.5,66.5 783,99 775,116.5 	
		"/>
	<path fill="none" stroke="#F4E6D7" stroke-width="4" stroke-miterlimit="10" d="M744.5,67v23.5c0,0,6.5,26.5,39,26.5s71.5,0,71.5,0
		s18.5-1.5,24.5-20s5.5-39.5-1-54h-30l-9,73.5"/>
	<path fill="none" stroke="#F4E6D7" stroke-width="4" stroke-miterlimit="10" d="M778.5,85c0,0,24-4,64.5,1.5"/>
	<line fill="none" stroke="#F4E6D7" stroke-width="4" stroke-miterlimit="10" x1="750" y1="103.5" x2="744.5" y2="112"/>
	<polyline fill="none" stroke="#F4E6D7" stroke-width="4" stroke-miterlimit="10" points="846.5,53 797,53 782,39.5 782,16.5 	"/>
	<line fill="none" stroke="#F4E6D7" stroke-width="4" stroke-miterlimit="10" x1="810" y1="53.5" x2="810" y2="16"/>
	<path fill="none" stroke="#F4E6D7" stroke-width="4" stroke-miterlimit="10" d="M784,40c-2-0.5-38.5,0-38.5,0V11.5"/>
	<path fill="none" stroke="#F4E6D7" stroke-width="4" stroke-miterlimit="10" d="M879,99c1.5,1,13.5,6,13.5,6l-2.5,11.5"/>
	<line fill="none" stroke="#F4E6D7" stroke-width="4" stroke-miterlimit="10" x1="885" y1="68" x2="900" y2="71"/>
	<path fill="none" stroke="#F4E6D7" stroke-width="4" stroke-miterlimit="10" d="M727,424c2,0,13,2,13,2l-1,23"/>
	<line fill="none" stroke="#F4E6D7" stroke-width="4" stroke-miterlimit="10" x1="742" y1="433.5" x2="786" y2="442"/>
	<path fill="none" stroke="#F4E6D7" stroke-width="4" stroke-miterlimit="10" d="M778,454.5c0,0,10-30.5,46-37.5"/>
	<path fill="none" stroke="#F4E6D7" stroke-width="4" stroke-miterlimit="10" d="M822,405c0,0-3,15.5,14,21.5s47,25,47,25"/>
	<path fill="none" stroke="#F4E6D7" stroke-width="4" stroke-miterlimit="10" d="M725,194c0,0-53.2,1.2-52,0"/>
	<line fill="none" stroke="#F4E6D7" stroke-width="4" stroke-miterlimit="10" x1="686" y1="195" x2="686" y2="213.5"/>
	<line fill="none" stroke="#F4E6D7" stroke-width="4" stroke-miterlimit="10" x1="709.5" y1="186.5" x2="709.5" y2="213.5"/>
	<path fill="none" stroke="#F4E6D7" stroke-width="4" stroke-miterlimit="10" d="M659.5,232c0,0,1.5-52,0-52s-36,0-36,0"/>
	<polyline fill="none" stroke="#F4E6D7" stroke-width="4" stroke-miterlimit="10" points="645.5,216.5 645.5,202 660.5,202 	"/>
	<path fill="none" stroke="#F4E6D7" stroke-width="4" stroke-miterlimit="10" d="M608,232v-32l16-9.5c0,0,11-30.5-16.5-28.5"/>
	<line fill="none" stroke="#F4E6D7" stroke-width="4" stroke-miterlimit="10" x1="608" y1="185.5" x2="616.5" y2="196"/>
	<polyline fill="none" stroke="#F4E6D7" stroke-width="4" stroke-miterlimit="10" points="621.5,166.5 621.5,141 606,141 606,68.5 
		624,68.5 624,25 	"/>
	<path fill="none" stroke="#F4E6D7" stroke-width="4" stroke-miterlimit="10" d="M611,39.5c1.5-0.5,13.5,0,13.5,0"/>
	<path fill="none" stroke="#F4E6D7" stroke-width="4" stroke-miterlimit="10" d="M726,26H534c0,0-48-8-58,33c-2,8-0.5,19.5-8,23.5"
		/>
	<path fill="none" stroke="#F4E6D7" stroke-width="4" stroke-miterlimit="10" d="M607.5,117c1.5-0.5,13.5,0,13.5,0"/>
	<line fill="none" stroke="#F4E6D7" stroke-width="4" stroke-miterlimit="10" x1="607.5" y1="90.5" x2="619.5" y2="90.5"/>
	<path fill="none" stroke="#F4E6D7" stroke-width="4" stroke-miterlimit="10" d="M504,31c0,0-5.5,7.5,8.5,12s21.5,4.5,20,19.5
		s-2,29-16,26.5s-13.5-10-12-21s-9-16,4.5-26"/>
	<line fill="none" stroke="#F4E6D7" stroke-width="4" stroke-miterlimit="10" x1="527" y1="48" x2="535.5" y2="34"/>
	<path fill="none" stroke="#F4E6D7" stroke-width="4" stroke-miterlimit="10" d="M548.5,26.5l13,44l-4.5,34l9,4
		c0,0,1.5-6.5,10.5-4.5s15.5,15,3,16s-17.5-2-13.5-11.5"/>
	<path fill="none" stroke="#F4E6D7" stroke-width="4" stroke-miterlimit="10" d="M429,18.6c0,0-1,24.4,17,40.9s27,19,32,35.5
		s5,39,4.5,47"/>
	<path fill="none" stroke="#F4E6D7" stroke-width="4" stroke-miterlimit="10" d="M458,71.5c0,0-23,17.5-11.5,33s27.5,7.5,33,2"/>
	<line fill="none" stroke="#F4E6D7" stroke-width="4" stroke-miterlimit="10" x1="435" y1="152" x2="443.5" y2="166"/>
	<path fill="none" stroke="#F4E6D7" stroke-width="4" stroke-miterlimit="10" d="M442,231c0,0,2-11-3-22s-17.5-22-3.5-37.5
		s28-27.5,39.5-28s28-0.5,28.5,15.5s-6.5,23-21.5,33s-29,20-39,22"/>
	<line fill="none" stroke="#F4E6D7" stroke-width="4" stroke-miterlimit="10" x1="490.5" y1="186.5" x2="500" y2="212.5"/>
	<polyline fill="none" stroke="#F4E6D7" stroke-width="4" stroke-miterlimit="10" points="396,231.5 396,112.5 415,72 409.5,47 
		384,40 334.5,53 326,116 311.5,116.5 	"/>
	<path fill="none" stroke="#F4E6D7" stroke-width="4" stroke-miterlimit="10" d="M373,41.5c-0.5,1.5,7.5,29.5,7.5,29.5"/>
	<line fill="none" stroke="#F4E6D7" stroke-width="4" stroke-miterlimit="10" x1="417" y1="40" x2="409.5" y2="47"/>
	<line fill="none" stroke="#F4E6D7" stroke-width="4" stroke-miterlimit="10" x1="387.5" y1="102.5" x2="409" y2="115"/>
	<path fill="none" stroke="#F4E6D7" stroke-width="4" stroke-miterlimit="10" d="M393.5,157c-2-0.5-23.5,0.5-23.5,0.5"/>
	<line fill="none" stroke="#F4E6D7" stroke-width="4" stroke-miterlimit="10" x1="388" y1="188" x2="394.5" y2="191"/>
	<polyline fill="none" stroke="#F4E6D7" stroke-width="4" stroke-miterlimit="10" points="357.5,231.5 357.5,156 324.5,156 	"/>
	<line fill="none" stroke="#F4E6D7" stroke-width="4" stroke-miterlimit="10" x1="326" y1="131" x2="326" y2="165.5"/>
	<polyline fill="none" stroke="#F4E6D7" stroke-width="4" stroke-miterlimit="10" points="351,155 351,137.5 325,137.5 	"/>
	<line fill="none" stroke="#F4E6D7" stroke-width="4" stroke-miterlimit="10" x1="322" y1="153" x2="269.5" y2="153"/>
	<line fill="none" stroke="#F4E6D7" stroke-width="4" stroke-miterlimit="10" x1="308.5" y1="232" x2="308.5" y2="17"/>
	<path fill="none" stroke="#F4E6D7" stroke-width="4" stroke-miterlimit="10" d="M306.5,129c-3,0-100,0-100,0"/>
	<path fill="none" stroke="#F4E6D7" stroke-width="4" stroke-miterlimit="10" d="M206,231.5c0.5-1.5,0-163,0-163l-14.5-12"/>
</g>
<g id="roads_1_">
	<path fill="none" stroke="#EAB488" stroke-width="6" stroke-miterlimit="10" d="M1207,598"/>
	<line fill="none" stroke="#F4D8B3" stroke-width="4" stroke-miterlimit="10" x1="1136" y1="233" x2="188" y2="233"/>
	<line fill="none" stroke="#F4D8B3" stroke-width="4" stroke-miterlimit="10" x1="727" y1="18.6" x2="727" y2="452"/>
	<line fill="none" stroke="#EAB488" stroke-width="6" stroke-miterlimit="10" x1="1104" y1="11" x2="1104" y2="455"/>
</g>
<g id="marker">
	<path id="pin_1_" fill="#B9252D" d="M875,205c1-1.6,1.6-3.5,1.6-5.5c0-5.7-4.6-10.4-10.4-10.4c-5.7,0-10.4,4.6-10.4,10.4
		c0,2.2,0.7,4.2,1.8,5.8l8.6,10.4L875,205z"/>
</g>
<text transform="matrix(0 1 -1 0 722.8184 192.7557)" fill="#877C6C" font-family="'HelveticaNeue-Bold'" font-size="10">S SHERIDAN RD</text>
<text transform="matrix(1 0 0 1 843.3715 236.6287)" fill="#877C6C" font-family="'HelveticaNeue-Bold'" font-size="10">EAST 121ST ST S</text>
<g id="sign">
	<path fill="#FFFFFF" stroke="#231F20" stroke-miterlimit="10" d="M1104,144.7c11,0,6-9,6-9c2.3-2.2-0.2-6-0.2-6
		c-3.5,2.5-5.7-0.5-5.7-0.5l0,0c0,0-2.3,3-5.8,0.5c0,0-2.5,3.8-0.2,6c0,0-5,9,6,9H1104z"/>
	<text transform="matrix(1 0 0 1 1099.5625 140.1152)" font-family="'MyriadPro-Regular'" font-size="9.1978">64</text>
</g>
</svg>
