<?xml version="1.0" encoding="utf-8"?>
<!-- Generator: Adobe Illustrator 18.0.0, SVG Export Plug-In . SVG Version: 6.00 Build 0)  -->
<!DOCTYPE svg PUBLIC "-//W3C//DTD SVG 1.1//EN" "http://www.w3.org/Graphics/SVG/1.1/DTD/svg11.dtd">
<svg version="1.1" id="map" xmlns="http://www.w3.org/2000/svg" xmlns:xlink="http://www.w3.org/1999/xlink" x="0px" y="0px"
	 viewBox="193 18.6 940 430.4" enable-background="new 193 18.6 940 430.4" xml:space="preserve">
<g id="land">
	<path fill="#F6F0EF" d="M179.8,12.3c-0.4,0-0.7,0-1-1.6v442.6l964.1,1.5V12.3H179.8z"/>
</g>
<g id="greenery">
	<path fill="#A2DDF5" d="M319.5,282l-2.5,12l13.5,7l19.5-6.5l-4.5-13C345.5,281.5,333.5,272.5,319.5,282z"/>
	<path fill="#A2DDF5" d="M190.5,362c0,1.5,17,35,17,35l80.5,28.5l28,25H191L190.5,362z"/>
	<polygon fill="#A2DDF5" points="305,399 320.5,425 319,432 347,449 352,449 312,397.5 	"/>
	<path fill="#A2DDF5" d="M367,175l0.5,47l18.5,1l3.5-12.5l-11-12C378.5,198.5,380,172.5,367,175z"/>
	<polygon fill="#A2DDF5" points="402,215 400,228 414.5,227 407.5,214.5 	"/>
	<path fill="#A2DDF5" d="M427,210l-8,5.5l4,9l9.5-1.5C432.5,223,434,210,427,210z"/>
	<path fill="#A2DDF5" d="M241,97.5c0,0-13-6.5-16,4.5s8.5,10.5,8.5,10.5l15-3L260,95l-13-4.5L241,97.5z"/>
	<polyline fill="none" stroke="#A2DDF5" stroke-width="2" stroke-miterlimit="10" points="857.5,17 907,60.5 923.5,95 986,126.5 
		1001,151 1035,152 1052,170 1062,216.5 1101,258.5 1101,341 1133,349.5 	"/>
	<path fill="none" stroke="#A2DDF5" stroke-width="2" stroke-miterlimit="10" d="M910,451c1.5-1.5,12-59,12-59l-13.5-24"/>
	<path fill="none" stroke="#A2DDF5" stroke-width="2" stroke-miterlimit="10" d="M754,449c-1.5-2.5-18.5-32.5-18.5-32.5l3-44
		L779,323l-1.5-59l26.5-26"/>
	<polyline fill="none" stroke="#A2DDF5" stroke-width="2" stroke-miterlimit="10" points="721,348 705,309.5 705,163 688.5,113.5 	
		"/>
	<polyline fill="none" stroke="#A2DDF5" stroke-width="2" stroke-miterlimit="10" points="584.5,13 543,51 521.5,154.5 516,209 
		525,217.5 515.5,247 520.5,282.5 517.5,314 	"/>
	<path fill="none" stroke="#A2DDF5" stroke-width="2" stroke-miterlimit="10" d="M550.5,362c-0.5,1.5-0.5,33-0.5,33l18,16.5l18.5,41
		"/>
	<polygon fill="#A2DDF5" points="797,235.5 809,246.5 825,236.5 824.5,226.5 815.5,220.5 815,205.5 805.5,202.5 	"/>
	<path fill="#A2DDF5" d="M712,345.5l11-9l27,8.5l6,14.5l-12.5,20l-17.5-3C726,376.5,708.5,374,712,345.5z"/>
	<polygon fill="#A2DDF5" points="803.5,326.5 812,347 833,330.5 826.5,324 824.5,313.5 808,321 	"/>
	<polygon fill="#A2DDF5" points="575,344 569,366 548,366 527.5,350 517,343 514,312 522.5,310.5 533.5,323 531.5,335 	"/>
	<path fill="#A2DDF5" d="M706.5,114c-1.5,0.3-31.5,3.5-31.5,3.5l2-48.5l6.5,6l4.5,20l7-9.5l5.5,8.5l20-21.5l-3.5,22
		C717,94.5,715.5,112,706.5,114z"/>
	<polygon fill="#A2DDF5" points="725,16.5 721.5,29.5 735,31.5 744,13.5 	"/>
	<polygon fill="#A2DDF5" points="596.5,21.5 591,27.5 603,36.5 610.5,32.5 	"/>
	<polygon fill="#A2DDF5" points="555.5,80 553,93 568.5,97.5 571,85.5 	"/>
	<path fill="#A2DDF5" d="M805,27.5l4.5,12.5c0,0,9-2,8.5-4s-4.5-11.5-4.5-11.5L805,27.5z"/>
	<path fill="#A2DDF5" d="M904,354c0,0-3.5,13.5-3,15s6,10,6,10s18-9,19-11s0.5-23,0.5-23l-10-9C916.5,336,915.5,347,904,354z"/>
	<polygon fill="#A2DDF5" points="998,173.5 1026,195.5 1036.5,180.5 1023,172 	"/>
	<path fill="#A2DDF5" d="M1108,449c-0.4-0.9,4.5-19,4.5-19l28-2.5l-3.5,25C1137,452.5,1112,458,1108,449z"/>
</g>
<g id="smallroads">
	<line fill="none" stroke="#F4E6D7" stroke-width="4" stroke-miterlimit="10" x1="919.5" y1="137.5" x2="919.5" y2="175.5"/>
	<line fill="none" stroke="#F4E6D7" stroke-width="4" stroke-miterlimit="10" x1="1028.5" y1="135" x2="1028.5" y2="14.5"/>
	<line fill="none" stroke="#F4E6D7" stroke-width="4" stroke-miterlimit="10" x1="1091.5" y1="115" x2="1091.5" y2="454.5"/>
	<polyline fill="none" stroke="#F4E6D7" stroke-width="4" stroke-miterlimit="10" points="1057.5,312 1011,312 1011,452.5 	"/>
	<polyline fill="none" stroke="#F4E6D7" stroke-width="4" stroke-miterlimit="10" points="1091.5,212 1117.5,212 1117.5,195.5 	"/>
	<line fill="none" stroke="#F4E6D7" stroke-width="4" stroke-miterlimit="10" x1="1093" y1="162.5" x2="1111.5" y2="162.5"/>
	<path fill="none" stroke="#F4E6D7" stroke-width="4" stroke-miterlimit="10" d="M1110,16.5c0,0,0,21,0,20.5s29,0,29,0"/>
	<polyline fill="none" stroke="#F4E6D7" stroke-width="4" stroke-miterlimit="10" points="814,295 814,256.5 838,256.5 	"/>
	<line fill="none" stroke="#F4E6D7" stroke-width="4" stroke-miterlimit="10" x1="791.5" y1="271.5" x2="812.5" y2="271.5"/>
	<polyline fill="none" stroke="#F4E6D7" stroke-width="4" stroke-miterlimit="10" points="837,202 822.5,202 822.5,191.5 
		837.5,191.5 	"/>
	<polyline fill="none" stroke="#F4E6D7" stroke-width="4" stroke-miterlimit="10" points="688,137.5 688,294 678.5,303 	"/>
	<line fill="none" stroke="#F4E6D7" stroke-width="4" stroke-miterlimit="10" x1="690" y1="236" x2="727" y2="236"/>
	<line fill="none" stroke="#F4E6D7" stroke-width="4" stroke-miterlimit="10" x1="679" y1="248.5" x2="687" y2="248.5"/>
	<line fill="none" stroke="#F4E6D7" stroke-width="4" stroke-miterlimit="10" x1="657.5" y1="137.5" x2="657.5" y2="161"/>
	<line fill="none" stroke="#F4E6D7" stroke-width="4" stroke-miterlimit="10" x1="612.5" y1="121.5" x2="612.5" y2="156"/>
	<polyline fill="none" stroke="#F4E6D7" stroke-width="4" stroke-miterlimit="10" points="642.5,135.5 642.5,52.5 633,52.5 
		633,17.5 	"/>
	<line fill="none" stroke="#F4E6D7" stroke-width="4" stroke-miterlimit="10" x1="643.5" y1="57.5" x2="655.5" y2="44.5"/>
	<path fill="none" stroke="#F4E6D7" stroke-width="4" stroke-miterlimit="10" d="M765,49.5c1.5,0,72.5,0,72.5,0"/>
	<polyline fill="none" stroke="#F4E6D7" stroke-width="4" stroke-miterlimit="10" points="749,86.5 749,110 771.5,110 771.5,137 	
		"/>
	<line fill="none" stroke="#F4E6D7" stroke-width="4" stroke-miterlimit="10" x1="788" y1="135" x2="788" y2="122"/>
	<line fill="none" stroke="#F4E6D7" stroke-width="4" stroke-miterlimit="10" x1="467" y1="225" x2="505.5" y2="225"/>
	<line fill="none" stroke="#F4E6D7" stroke-width="4" stroke-miterlimit="10" x1="536" y1="139.5" x2="536" y2="170.5"/>
	<polyline fill="none" stroke="#F4E6D7" stroke-width="4" stroke-miterlimit="10" points="508,372 524,372 524,388.5 506,388.5 	"/>
	<line fill="none" stroke="#F4E6D7" stroke-width="4" stroke-miterlimit="10" x1="508" y1="399.5" x2="529" y2="399.5"/>
	<path fill="none" stroke="#F4E6D7" stroke-width="4" stroke-miterlimit="10" d="M481.5,428.5c2.5,0,23,0,23,0"/>
	<line fill="none" stroke="#F4E6D7" stroke-width="4" stroke-miterlimit="10" x1="453.5" y1="137" x2="453.5" y2="156"/>
	<path fill="none" stroke="#F4E6D7" stroke-width="4" stroke-miterlimit="10" d="M838.5,286c2-0.5,74.5,0,74.5,0"/>
	<line fill="none" stroke="#F4E6D7" stroke-width="4" stroke-miterlimit="10" x1="884.5" y1="266.5" x2="884.5" y2="288"/>
	<path fill="none" stroke="#F4E6D7" stroke-width="4" stroke-miterlimit="10" d="M838,365.5c-3,0.5-23.5,0-23.5,0"/>
	<line fill="none" stroke="#F4E6D7" stroke-width="4" stroke-miterlimit="10" x1="828.5" y1="339.5" x2="837" y2="347"/>
	<line fill="none" stroke="#F4E6D7" stroke-width="4" stroke-miterlimit="10" x1="839" y1="404.5" x2="787" y2="404.5"/>
	<line fill="none" stroke="#F4E6D7" stroke-width="4" stroke-miterlimit="10" x1="793" y1="405" x2="793" y2="425.5"/>
	<polyline fill="none" stroke="#F4E6D7" stroke-width="4" stroke-miterlimit="10" points="823.5,425 764.5,425 764.5,398.5 	"/>
	<polyline fill="none" stroke="#F4E6D7" stroke-width="4" stroke-miterlimit="10" points="691.5,375.5 691.5,407.5 713,426 713,449 
			"/>
</g>
<g id="roads">
	<line fill="none" stroke="#F4D8B3" stroke-width="4" stroke-miterlimit="10" x1="838" y1="18.6" x2="838" y2="452"/>
	<line fill="none" stroke="#F4D8B3" stroke-width="4" stroke-miterlimit="10" x1="506" y1="18.6" x2="506" y2="449"/>
	<line fill="none" stroke="#F4D8B3" stroke-width="4" stroke-miterlimit="10" x1="188" y1="137" x2="1133" y2="137"/>
</g>
<g id="marker">
	<path id="pin_1_" fill="#B9252D" d="M875,205c1-1.6,1.6-3.5,1.6-5.5c0-5.7-4.6-10.4-10.4-10.4c-5.7,0-10.4,4.6-10.4,10.4
		c0,2.2,0.7,4.2,1.8,5.8l8.6,10.4L875,205z"/>
</g>
<text transform="matrix(0 1 -1 0 834.3184 77.7557)" fill="#877C6C" font-family="'HelveticaNeue-Bold'" font-size="10">N 3300 RD       N COUNTRY CLUB RD</text>
<text transform="matrix(1 0 0 1 874.3715 140.1287)" fill="#877C6C" font-family="'HelveticaNeue-Bold'" font-size="10">W LAKEVIEW RD</text>
</svg>
