<?xml version="1.0" encoding="utf-8"?>
<!-- Generator: Adobe Illustrator 18.0.0, SVG Export Plug-In . SVG Version: 6.00 Build 0)  -->
<!DOCTYPE svg PUBLIC "-//W3C//DTD SVG 1.1//EN" "http://www.w3.org/Graphics/SVG/1.1/DTD/svg11.dtd">
<svg version="1.1" id="map" xmlns="http://www.w3.org/2000/svg" xmlns:xlink="http://www.w3.org/1999/xlink" x="0px" y="0px"
	 viewBox="193 18.6 940 430.4" enable-background="new 193 18.6 940 430.4" xml:space="preserve">
<g id="land">
	<path fill="#F6F0EF" d="M179.8,12.3c-0.4,0-0.7,0-1-1.6v442.6l964.1,1.5V12.3H179.8z"/>
</g>
<g id="greenery">
	<path fill="#A2DDF5" d="M958,174.7l-2.7,30.7l-28.7-3.3l-9.3-8c0,0,7.3-16,9.3-16.7C928.7,176.7,958,174.7,958,174.7z"/>
	<polygon fill="#A2DDF5" points="230.7,94 257.3,102 268,91.3 264.7,54.7 258,56.7 252,79.3 	"/>
</g>
<g id="smallroads">
	<path fill="none" stroke="#F4E6D7" stroke-width="4" stroke-miterlimit="10" d="M721.5,165.5c2-0.5,95,0,95,0l79,44.5v25"/>
	<line fill="none" stroke="#F4E6D7" stroke-width="4" stroke-miterlimit="10" x1="848.5" y1="234" x2="848.5" y2="441"/>
	<path fill="none" stroke="#F4E6D7" stroke-width="4" stroke-miterlimit="10" d="M713.5,440H946c0,0,5-17.5,62-17.5s126.5,0,126.5,0
		"/>
	<polyline fill="none" stroke="#F4E6D7" stroke-width="4" stroke-miterlimit="10" points="899.5,439 899.5,258.5 908.5,232.5 	"/>
	<line fill="none" stroke="#F4E6D7" stroke-width="4" stroke-miterlimit="10" x1="794.5" y1="236" x2="794.5" y2="359"/>
	<line fill="none" stroke="#F4E6D7" stroke-width="4" stroke-miterlimit="10" x1="693" y1="360.5" x2="849.5" y2="360.5"/>
	<line fill="none" stroke="#F4E6D7" stroke-width="4" stroke-miterlimit="10" x1="713.5" y1="303" x2="793" y2="303"/>
	<line fill="none" stroke="#F4E6D7" stroke-width="4" stroke-miterlimit="10" x1="952.5" y1="233" x2="952.5" y2="434"/>
	<line fill="none" stroke="#F4E6D7" stroke-width="4" stroke-miterlimit="10" x1="946" y1="440" x2="954.5" y2="451"/>
	<polyline fill="none" stroke="#F4E6D7" stroke-width="4" stroke-miterlimit="10" points="953.5,275 1097,326.5 1133,326.5 	"/>
	<polyline fill="none" stroke="#F4E6D7" stroke-width="4" stroke-miterlimit="10" points="1012,296.5 998.5,334 1020.5,381 
		1020.5,423.5 	"/>
	<polyline fill="none" stroke="#F4E6D7" stroke-width="4" stroke-miterlimit="10" points="721.5,207 788.5,207 788.5,232.5 	"/>
	<line fill="none" stroke="#F4E6D7" stroke-width="4" stroke-miterlimit="10" x1="764" y1="208.5" x2="764" y2="231.5"/>
	<polyline fill="none" stroke="#F4E6D7" stroke-width="4" stroke-miterlimit="10" points="828,18.6 776.5,70 794.5,90.5 859,33 
		931.5,33 931.5,128.5 	"/>
	<path fill="none" stroke="#F4E6D7" stroke-width="4" stroke-miterlimit="10" d="M795.5,92.5c0,0,7,38.5,72,38.5s204.5,0,204.5,0
		s18-5.5,18,24s0,77.5,0,77.5"/>
	<line fill="none" stroke="#F4E6D7" stroke-width="4" stroke-miterlimit="10" x1="1090" y1="187" x2="1136.5" y2="187"/>
	<line fill="none" stroke="#F4E6D7" stroke-width="4" stroke-miterlimit="10" x1="589" y1="232.5" x2="721.5" y2="116.5"/>
	<line fill="none" stroke="#F4E6D7" stroke-width="4" stroke-miterlimit="10" x1="721.5" y1="97.5" x2="619" y2="97.5"/>
	<polyline fill="none" stroke="#F4E6D7" stroke-width="4" stroke-miterlimit="10" points="621,203.5 621,67 518.5,67 	"/>
	<polyline fill="none" stroke="#F4E6D7" stroke-width="4" stroke-miterlimit="10" points="651,98 651,26.5 701,26.5 701,50.5 
		722,50.5 	"/>
	<path fill="none" stroke="#F4E6D7" stroke-width="4" stroke-miterlimit="10" d="M518.5,16v216v38.5c0,0-2,33.5-34.5,59.5
		S340.5,452.5,340.5,452.5"/>
	<line fill="none" stroke="#F4E6D7" stroke-width="4" stroke-miterlimit="10" x1="516.5" y1="25.5" x2="189.5" y2="25.5"/>
	<polyline fill="none" stroke="#F4E6D7" stroke-width="4" stroke-miterlimit="10" points="462,17.5 468.5,50 468.5,107 	"/>
	<polyline fill="none" stroke="#F4E6D7" stroke-width="4" stroke-miterlimit="10" points="518,147 508,147 491.5,125 491.5,50 
		423,50 423,160 482,153 497.5,171.5 517.5,171.5 	"/>
	<line fill="none" stroke="#F4E6D7" stroke-width="4" stroke-miterlimit="10" x1="493.5" y1="98" x2="519" y2="105"/>
	<path fill="none" stroke="#F4E6D7" stroke-width="4" stroke-miterlimit="10" d="M490.5,98c-1.5,0-42.5,15.5-42.5,15.5h-28"/>
	<polyline fill="none" stroke="#F4E6D7" stroke-width="4" stroke-miterlimit="10" points="446.5,51 446.5,138 491.5,125 	"/>
	<polyline fill="none" stroke="#F4E6D7" stroke-width="4" stroke-miterlimit="10" points="516.5,175 413,175 396.5,162.5 303,162.5 
			"/>
	<polyline fill="none" stroke="#F4E6D7" stroke-width="4" stroke-miterlimit="10" points="304,141.5 322,141.5 399,115.5 	"/>
	<polyline fill="none" stroke="#F4E6D7" stroke-width="4" stroke-miterlimit="10" points="399,127 399,49 369.5,49 	"/>
	<polyline fill="none" stroke="#F4E6D7" stroke-width="4" stroke-miterlimit="10" points="369.5,27 369.5,84.5 382,119 	"/>
	<path fill="none" stroke="#F4E6D7" stroke-width="4" stroke-miterlimit="10" d="M361.5,124c0-1.5-15-37-15-37h-43"/>
	<line fill="none" stroke="#F4E6D7" stroke-width="4" stroke-miterlimit="10" x1="335.5" y1="114" x2="337.5" y2="135"/>
	<polyline fill="none" stroke="#F4E6D7" stroke-width="4" stroke-miterlimit="10" points="303,64 279.5,64 279.5,120.5 	"/>
	<polyline fill="none" stroke="#F4E6D7" stroke-width="4" stroke-miterlimit="10" points="301,119.5 261.5,119.5 193,91 	"/>
	<polyline fill="none" stroke="#F4E6D7" stroke-width="4" stroke-miterlimit="10" points="240.5,27 240.5,70.5 210,98 	"/>
	<polyline fill="none" stroke="#F4E6D7" stroke-width="4" stroke-miterlimit="10" points="214,17.5 211.5,26.5 224.5,82 	"/>
	<line fill="none" stroke="#F4E6D7" stroke-width="4" stroke-miterlimit="10" x1="237" y1="25" x2="241.5" y2="13.5"/>
	<line fill="none" stroke="#F4E6D7" stroke-width="4" stroke-miterlimit="10" x1="266" y1="26" x2="269" y2="15.5"/>
	<polyline fill="none" stroke="#F4E6D7" stroke-width="4" stroke-miterlimit="10" points="236,109 216,134.5 214.5,235 	"/>
	<path fill="none" stroke="#F4E6D7" stroke-width="4" stroke-miterlimit="10" d="M191.5,134.5c3.5-0.5,23.5,0,23.5,0"/>
	<polyline fill="none" stroke="#F4E6D7" stroke-width="4" stroke-miterlimit="10" points="215,144.5 277.5,144.5 302.5,154.5 	"/>
	<polyline fill="none" stroke="#F4E6D7" stroke-width="4" stroke-miterlimit="10" points="190.5,172 290.5,172 290.5,201 	"/>
	<polyline fill="none" stroke="#F4E6D7" stroke-width="4" stroke-miterlimit="10" points="302,204 257,193 215,197 	"/>
	<line fill="none" stroke="#F4E6D7" stroke-width="4" stroke-miterlimit="10" x1="240.5" y1="196.5" x2="240.5" y2="231.5"/>
	<line fill="none" stroke="#F4E6D7" stroke-width="4" stroke-miterlimit="10" x1="267.5" y1="195.5" x2="267.5" y2="234.5"/>
	<polyline fill="none" stroke="#F4E6D7" stroke-width="4" stroke-miterlimit="10" points="208.5,233.5 208.5,256 232,273.5 
		232,319.5 	"/>
	<polyline fill="none" stroke="#F4E6D7" stroke-width="4" stroke-miterlimit="10" points="364.5,199 401,208 453,208 453,233.5 	"/>
	<polyline fill="none" stroke="#F4E6D7" stroke-width="4" stroke-miterlimit="10" points="426.5,208 426.5,315 439,346.5 449,355.5 
			"/>
	<path fill="none" stroke="#F4E6D7" stroke-width="4" stroke-miterlimit="10" d="M191,431.5c1,2.5,151,0,151,0l79-67.5l-16.5-43"/>
	<polyline fill="none" stroke="#F4E6D7" stroke-width="4" stroke-miterlimit="10" points="427,312.5 385.5,330 278,330 	"/>
	<line fill="none" stroke="#F4E6D7" stroke-width="4" stroke-miterlimit="10" x1="324.5" y1="303" x2="302" y2="303"/>
	<line fill="none" stroke="#F4E6D7" stroke-width="4" stroke-miterlimit="10" x1="336" y1="331.5" x2="336" y2="432.5"/>
	<path fill="none" stroke="#F4E6D7" stroke-width="4" stroke-miterlimit="10" d="M361.5,332.5c-1.5,1,0,86.5,0,86.5"/>
	<line fill="none" stroke="#F4E6D7" stroke-width="4" stroke-miterlimit="10" x1="385.5" y1="327" x2="385.5" y2="397"/>
	<line fill="none" stroke="#F4E6D7" stroke-width="4" stroke-miterlimit="10" x1="303" y1="405.5" x2="183.5" y2="405.5"/>
	<line fill="none" stroke="#F4E6D7" stroke-width="4" stroke-miterlimit="10" x1="204" y1="407" x2="204" y2="433.5"/>
	<polyline fill="none" stroke="#F4E6D7" stroke-width="4" stroke-miterlimit="10" points="359.5,226.5 359.5,266.5 517,266.5 	"/>
	<polyline fill="none" stroke="#F4E6D7" stroke-width="4" stroke-miterlimit="10" points="501.5,234.5 501.5,273.5 440,348.5 	"/>
	<path fill="none" stroke="#F4E6D7" stroke-width="4" stroke-miterlimit="10" d="M451.5,265.5c-2,0,7.5,60,7.5,60"/>
	<line fill="none" stroke="#F4E6D7" stroke-width="4" stroke-miterlimit="10" x1="474.5" y1="265.5" x2="477.5" y2="299.5"/>
	<polyline fill="none" stroke="#F4E6D7" stroke-width="4" stroke-miterlimit="10" points="489.5,233.5 489.5,221 513,221 513,235 	
		"/>
	<polyline fill="none" stroke="#F4E6D7" stroke-width="4" stroke-miterlimit="10" points="406.5,422.5 425.2,441.2 660.5,441.2 
		660.5,449 	"/>
	<line fill="none" stroke="#F4E6D7" stroke-width="4" stroke-miterlimit="10" x1="634.5" y1="451.5" x2="634.5" y2="420.5"/>
	<polyline fill="none" stroke="#F4E6D7" stroke-width="4" stroke-miterlimit="10" points="588.5,337.5 593.5,394 579,442 	"/>
	<path fill="none" stroke="#F4E6D7" stroke-width="4" stroke-miterlimit="10" d="M591,368c2.5-0.5,21,0,21,0"/>
	<polyline fill="none" stroke="#F4E6D7" stroke-width="4" stroke-miterlimit="10" points="592,391.5 609.5,391.5 609.5,441.5 	"/>
	<polyline fill="none" stroke="#F4E6D7" stroke-width="4" stroke-miterlimit="10" points="721.5,338.5 617.5,338.5 567,353.5 
		530,353.5 	"/>
	<polyline fill="none" stroke="#F4E6D7" stroke-width="4" stroke-miterlimit="10" points="520,323.5 528.5,338.5 528.5,440 	"/>
	<polyline fill="none" stroke="#F4E6D7" stroke-width="4" stroke-miterlimit="10" points="567,353.5 567,394 553.5,442 	"/>
	<line fill="none" stroke="#F4E6D7" stroke-width="4" stroke-miterlimit="10" x1="530" y1="372.5" x2="568.5" y2="372.5"/>
	<path fill="none" stroke="#F4E6D7" stroke-width="4" stroke-miterlimit="10" d="M529.5,394.5c2,0.5,32.5,11,32.5,11"/>
	<polyline fill="none" stroke="#F4E6D7" stroke-width="4" stroke-miterlimit="10" points="630.5,338.5 630.5,394.5 651,394.5 
		651,339.5 	"/>
	<line fill="none" stroke="#F4E6D7" stroke-width="4" stroke-miterlimit="10" x1="462.5" y1="431" x2="462.5" y2="453"/>
	<line fill="none" stroke="#F4E6D7" stroke-width="4" stroke-miterlimit="10" x1="418" y1="433.5" x2="406" y2="450.5"/>
	<line fill="none" stroke="#F4E6D7" stroke-width="4" stroke-miterlimit="10" x1="504" y1="442.5" x2="504" y2="451"/>
</g>
<g id="roads_1_">
	<path fill="none" stroke="#EAB488" stroke-width="6" stroke-miterlimit="10" d="M1207,598"/>
	<line fill="none" stroke="#EAB488" stroke-width="6" stroke-miterlimit="10" x1="976" y1="14" x2="1136" y2="119"/>
	<line fill="none" stroke="#EAB488" stroke-width="6" stroke-miterlimit="10" x1="987" y1="11" x2="1147" y2="116"/>
	<line fill="none" stroke="#F4D8B3" stroke-width="4" stroke-miterlimit="10" x1="193" y1="233" x2="1133" y2="233"/>
	<line fill="none" stroke="#F4D8B3" stroke-width="4" stroke-miterlimit="10" x1="723" y1="16" x2="723" y2="449"/>
	<line fill="none" stroke="#F4D8B3" stroke-width="4" stroke-miterlimit="10" x1="304" y1="12" x2="304" y2="449"/>
	<line fill="none" stroke="#EAB488" stroke-width="6" stroke-miterlimit="10" x1="356" y1="454" x2="853" y2="16.6"/>
	<line fill="none" stroke="#EAB488" stroke-width="6" stroke-miterlimit="10" x1="369" y1="454" x2="866" y2="16.6"/>
</g>
<g id="marker">
	<path id="pin_1_" fill="#B9252D" d="M875,205c1-1.6,1.6-3.5,1.6-5.5c0-5.7-4.6-10.4-10.4-10.4c-5.7,0-10.4,4.6-10.4,10.4
		c0,2.2,0.7,4.2,1.8,5.8l8.6,10.4L875,205z"/>
</g>
<text transform="matrix(0 1 -1 0 720.1523 200.7557)" fill="#877C6C" font-family="'HelveticaNeue-Bold'" font-size="10">S SHERIDAN RD</text>
<text transform="matrix(1 0 0 1 892.0381 236.6287)" fill="#877C6C" font-family="'HelveticaNeue-Bold'" font-size="10">E 41ST ST</text>
<g id="sign_2_">
	<path fill="#FFFFFF" d="M762.9,113c15.5-5.1,7.6-19.3,7.6-19.3s-4.9,1.1-7.6-0.2h0c-2.7,1.3-7.6,0.2-7.6,0.2S747.4,107.9,762.9,113
		L762.9,113z"/>
	<path fill="#0EA9D6" d="M770.9,97.8c0,0,3.6,10-8.1,13.9c-11.7-3.9-8.1-13.9-8.1-13.9H770.9z"/>
	<path fill="#D72631" d="M762.9,97h7.8c0,0-0.3-1.4-0.8-1.9c0,0-4.2,0.7-7-0.3c-2.9,1-7,0.3-7,0.3c-0.5,0.5-0.8,1.9-0.8,1.9H762.9z"
		/>
	<text transform="matrix(1 0 0 1 757.7932 106.0884)" fill="#FFFFFF" font-family="'HelveticaNeue-Bold'" font-size="8.7129">44</text>
</g>
</svg>
