<?xml version="1.0" encoding="utf-8"?>
<!-- Generator: Adobe Illustrator 18.0.0, SVG Export Plug-In . SVG Version: 6.00 Build 0)  -->
<!DOCTYPE svg PUBLIC "-//W3C//DTD SVG 1.1//EN" "http://www.w3.org/Graphics/SVG/1.1/DTD/svg11.dtd">
<svg version="1.1" id="map" xmlns="http://www.w3.org/2000/svg" xmlns:xlink="http://www.w3.org/1999/xlink" x="0px" y="0px"
	 viewBox="193 18.6 940 430.4" enable-background="new 193 18.6 940 430.4" xml:space="preserve">
<g id="land">
	<path fill="#F6F0EF" d="M179.8,12.3c-0.4,0-0.7,0-1-1.6v442.6l964.1,1.5V12.3H179.8z"/>
</g>
<g id="greenery">
	<rect x="820" y="277" fill="#DEECD2" width="201" height="119"/>
</g>
<g id="smallroads">
	<line fill="none" stroke="#F4E6D7" stroke-width="4" stroke-miterlimit="10" x1="770" y1="28.7" x2="770" y2="58"/>
	<polyline fill="none" stroke="#F4E6D7" stroke-width="4" stroke-miterlimit="10" points="729.3,28.7 706.7,100 734,192 672,300 
		672,449 	"/>
	<line fill="none" stroke="#F4E6D7" stroke-width="4" stroke-miterlimit="10" x1="685.3" y1="278.7" x2="814.7" y2="278.7"/>
	<line fill="none" stroke="#F4E6D7" stroke-width="4" stroke-miterlimit="10" x1="713.3" y1="234" x2="788.7" y2="234"/>
	<line fill="none" stroke="#F4E6D7" stroke-width="4" stroke-miterlimit="10" x1="734" y1="192" x2="786.7" y2="192"/>
	<line fill="none" stroke="#F4E6D7" stroke-width="4" stroke-miterlimit="10" x1="722.7" y1="145.3" x2="786.7" y2="145.3"/>
	<line fill="none" stroke="#F4E6D7" stroke-width="4" stroke-miterlimit="10" x1="708.7" y1="106" x2="813.3" y2="106"/>
	<polyline fill="none" stroke="#F4E6D7" stroke-width="4" stroke-miterlimit="10" points="670.7,328 781.3,328 781.3,374.7 
		670.7,374.7 	"/>
	<polyline fill="none" stroke="#F4E6D7" stroke-width="4" stroke-miterlimit="10" points="414,76 489.3,76 606,229.3 627.3,312.7 
		627.3,449 	"/>
	<polyline fill="none" stroke="#F4E6D7" stroke-width="4" stroke-miterlimit="10" points="414,127.3 475.3,127.3 561.3,62 561.3,28 
			"/>
	<polyline fill="none" stroke="#F4E6D7" stroke-width="4" stroke-miterlimit="10" points="415.3,180.7 498,180.7 607.3,95.3 
		607.3,28.7 	"/>
	<polyline fill="none" stroke="#F4E6D7" stroke-width="4" stroke-miterlimit="10" points="415.3,232.7 516,232.7 654.7,116 
		654.7,28.7 	"/>
	<polyline fill="none" stroke="#F4E6D7" stroke-width="4" stroke-miterlimit="10" points="414,286 494,286 680,182 669.3,134.7 
		649.3,120 	"/>
	<polyline fill="none" stroke="#F4E6D7" stroke-width="4" stroke-miterlimit="10" points="680,182 688.7,219.3 645.3,283.3 
		576,310.7 576,449 	"/>
	<line fill="none" stroke="#F4E6D7" stroke-width="4" stroke-miterlimit="10" x1="518.7" y1="402.7" x2="518.7" y2="272"/>
	<path fill="none" stroke="#F4E6D7" stroke-width="4" stroke-miterlimit="10" d="M413.3,94.7c0,0-74.7,29.3-100,94.7
		C288,254.7,284.7,319.3,298,356s14.7,40,14.7,48"/>
	<path fill="none" stroke="#F4E6D7" stroke-width="4" stroke-miterlimit="10" d="M306.7,206.7c0,0-5.3-18.7-19.3-22"/>
	<path fill="none" stroke="#F4E6D7" stroke-width="4" stroke-miterlimit="10" d="M319.3,175.3c0,0-16.7,10.7-48,10.7s-78.3,0-78.3,0
		"/>
	<path fill="none" stroke="#F4E6D7" stroke-width="4" stroke-miterlimit="10" d="M190.7,128.7c0,0,62.7-7.3,93.3-35.3
		s38-48.7,40.7-62"/>
	<line fill="none" stroke="#F4E6D7" stroke-width="4" stroke-miterlimit="10" x1="224.7" y1="402" x2="224.7" y2="449"/>
	<line fill="none" stroke="#F4E6D7" stroke-width="4" stroke-miterlimit="10" x1="278" y1="402.7" x2="278" y2="449"/>
	<line fill="none" stroke="#F4E6D7" stroke-width="4" stroke-miterlimit="10" x1="492.7" y1="403.3" x2="492.7" y2="449"/>
	<line fill="none" stroke="#F4E6D7" stroke-width="4" stroke-miterlimit="10" x1="788" y1="402.7" x2="788" y2="449"/>
	<line fill="none" stroke="#F4E6D7" stroke-width="4" stroke-miterlimit="10" x1="878.7" y1="403.3" x2="892" y2="449"/>
	<line fill="none" stroke="#F4E6D7" stroke-width="4" stroke-miterlimit="10" x1="833.3" y1="431.3" x2="842.7" y2="449"/>
	<line fill="none" stroke="#F4E6D7" stroke-width="4" stroke-miterlimit="10" x1="1018" y1="403.3" x2="1018" y2="451.3"/>
	<line fill="none" stroke="#F4E6D7" stroke-width="4" stroke-miterlimit="10" x1="1078" y1="402" x2="1078" y2="358"/>
	<polyline fill="none" stroke="#F4E6D7" stroke-width="4" stroke-miterlimit="10" points="1027.3,374 1054,374 1054,359 	"/>
	<polyline fill="none" stroke="#F4E6D7" stroke-width="4" stroke-miterlimit="10" points="1043.3,374.7 1043.3,303.3 1074.7,303.3 	
		"/>
	<polyline fill="none" stroke="#F4E6D7" stroke-width="4" stroke-miterlimit="10" points="1084.7,303.3 1112,303.3 1112,374.7 	"/>
	<polyline fill="none" stroke="#F4E6D7" stroke-width="4" stroke-miterlimit="10" points="1128,374 1100,374 1100,359.3 	"/>
	<line fill="none" stroke="#F4E6D7" stroke-width="4" stroke-miterlimit="10" x1="1044.7" y1="357.3" x2="1110" y2="357.3"/>
	<polyline fill="none" stroke="#F4E6D7" stroke-width="4" stroke-miterlimit="10" points="1043.3,303.3 1051.3,267.3 1045.3,209 	
		"/>
	<polyline fill="none" stroke="#F4E6D7" stroke-width="4" stroke-miterlimit="10" points="1112,303.3 1109.3,268.7 1113.3,208.7 	
		"/>
	<polyline fill="none" stroke="#F4E6D7" stroke-width="4" stroke-miterlimit="10" points="1047.3,218 1080.7,221.3 1114,219.3 	"/>
	<line fill="none" stroke="#F4E6D7" stroke-width="4" stroke-miterlimit="10" x1="1026.7" y1="207.3" x2="1062" y2="207.3"/>
	<line fill="none" stroke="#F4E6D7" stroke-width="4" stroke-miterlimit="10" x1="1092.7" y1="207.3" x2="1128" y2="207.3"/>
	<line fill="none" stroke="#F4E6D7" stroke-width="4" stroke-miterlimit="10" x1="1048.7" y1="272.7" x2="1074.7" y2="274.7"/>
	<line fill="none" stroke="#F4E6D7" stroke-width="4" stroke-miterlimit="10" x1="1088.7" y1="277.3" x2="1133" y2="277.3"/>
	<line fill="none" stroke="#F4E6D7" stroke-width="4" stroke-miterlimit="10" x1="1059.3" y1="273.3" x2="1059.3" y2="293.3"/>
	<line fill="none" stroke="#F4E6D7" stroke-width="4" stroke-miterlimit="10" x1="1100" y1="276.7" x2="1100" y2="302"/>
</g>
<g id="roads">
	<line fill="none" stroke="#F4D8B3" stroke-width="4" stroke-miterlimit="10" x1="414" y1="18.6" x2="414" y2="452"/>
	<line fill="none" stroke="#F4D8B3" stroke-width="4" stroke-miterlimit="10" x1="190" y1="402" x2="1133" y2="402"/>
	<polyline fill="none" stroke="#F4D8B3" stroke-width="4" stroke-miterlimit="10" points="411,29 814,29 814,401 	"/>
</g>
<g id="marker">
	<path id="pin_1_" fill="#B9252D" d="M875,205c1-1.6,1.6-3.5,1.6-5.5c0-5.7-4.6-10.4-10.4-10.4c-5.7,0-10.4,4.6-10.4,10.4
		c0,2.2,0.7,4.2,1.8,5.8l8.6,10.4L875,205z"/>
</g>
<text transform="matrix(0 1 -1 0 811.8184 159.7557)" fill="#877C6C" font-family="'HelveticaNeue-Bold'" font-size="10">N GOVERNEOUR RD</text>
<text transform="matrix(0 1 -1 0 410.8184 162.7557)" fill="#877C6C" font-family="'HelveticaNeue-Bold'" font-size="10">N WOODLAWN ST</text>
<text transform="matrix(1 0 0 1 854.3715 405.6287)" fill="#877C6C" font-family="'HelveticaNeue-Bold'" font-size="10">E 13TH ST N</text>
</svg>
