<?xml version="1.0" encoding="utf-8"?>
<!-- Generator: Adobe Illustrator 19.2.0, SVG Export Plug-In . SVG Version: 6.00 Build 0)  -->
<svg version="1.1" id="map" xmlns="http://www.w3.org/2000/svg" xmlns:xlink="http://www.w3.org/1999/xlink" x="0px" y="0px"
	 viewBox="0 0 940 430.4" enable-background="new 0 0 940 430.4" xml:space="preserve">
<g id="land">
	<path fill="#F6F0EF" d="M-10-5.9c-0.4,0-0.7,0-1-1.6v442.6l964.1,1.5V-5.9H-10z"/>
</g>
<path fill="none" stroke="#F4D8B3" stroke-width="4" stroke-miterlimit="10" d="M624.9,210.2c0,0,128.3,0,151.3,0
	c43.2,0,82.7,46.7,126.7,106"/>
<g id="greenery">
</g>
<g id="smallroads">
	<line fill="none" stroke="#F4E6D7" stroke-width="4" stroke-miterlimit="10" x1="688.9" y1="385.1" x2="702.2" y2="430.8"/>
	<path fill="none" stroke="#F4E6D7" stroke-width="4" stroke-miterlimit="10" d="M580.2,39.8"/>
	<path fill="none" stroke="#F4E6D7" stroke-width="4" stroke-miterlimit="10" d="M580.2,10.5"/>
	<path fill="none" stroke="#F4E6D7" stroke-width="4" stroke-miterlimit="10" d="M624.9,260.5"/>
	<path fill="none" stroke="#F4E6D7" stroke-width="4" stroke-miterlimit="10" d="M495.5,260.5"/>
	<path fill="none" stroke="#F4E6D7" stroke-width="4" stroke-miterlimit="10" d="M598.9,215.8"/>
	<path fill="none" stroke="#F4E6D7" stroke-width="4" stroke-miterlimit="10" d="M523.5,215.8"/>
	<path fill="none" stroke="#F4E6D7" stroke-width="4" stroke-miterlimit="10" d="M596.9,173.8"/>
	<path fill="none" stroke="#F4E6D7" stroke-width="4" stroke-miterlimit="10" d="M544.2,173.8"/>
	<path fill="none" stroke="#F4E6D7" stroke-width="4" stroke-miterlimit="10" d="M596.9,127.1"/>
	<path fill="none" stroke="#F4E6D7" stroke-width="4" stroke-miterlimit="10" d="M532.9,127.1"/>
	<path fill="none" stroke="#F4E6D7" stroke-width="4" stroke-miterlimit="10" d="M623.5,87.8"/>
	<path fill="none" stroke="#F4E6D7" stroke-width="4" stroke-miterlimit="10" d="M518.9,87.8"/>
	<polyline fill="none" stroke="#F4E6D7" stroke-width="4" stroke-miterlimit="10" points="501.2,383.8 501.9,119.5 501.9,38.8 	"/>
	<line fill="none" stroke="#F4E6D7" stroke-width="4" stroke-miterlimit="10" x1="294.9" y1="384.5" x2="294.9" y2="37.8"/>
	<line fill="none" stroke="#F4E6D7" stroke-width="4" stroke-miterlimit="10" x1="34.9" y1="383.8" x2="34.9" y2="430.8"/>
	<line fill="none" stroke="#F4E6D7" stroke-width="4" stroke-miterlimit="10" x1="88.2" y1="384.5" x2="88.2" y2="430.8"/>
	<line fill="none" stroke="#F4E6D7" stroke-width="4" stroke-miterlimit="10" x1="302.9" y1="385.1" x2="302.9" y2="430.8"/>
	<line fill="none" stroke="#F4E6D7" stroke-width="4" stroke-miterlimit="10" x1="598.2" y1="384.5" x2="598.2" y2="430.8"/>
	<line fill="none" stroke="#F4E6D7" stroke-width="4" stroke-miterlimit="10" x1="643.5" y1="413.1" x2="652.9" y2="430.8"/>
	<line fill="none" stroke="#F4E6D7" stroke-width="4" stroke-miterlimit="10" x1="828.2" y1="385.1" x2="828.2" y2="433.1"/>
	<path fill="none" stroke="#F4E6D7" stroke-width="4" stroke-miterlimit="10" d="M864.2,340.8"/>
	<path fill="none" stroke="#F4E6D7" stroke-width="4" stroke-miterlimit="10" d="M864.2,355.8"/>
	<path fill="none" stroke="#F4E6D7" stroke-width="4" stroke-miterlimit="10" d="M837.5,355.8"/>
	<path fill="none" stroke="#F4E6D7" stroke-width="4" stroke-miterlimit="10" d="M922.2,356.5"/>
	<path fill="none" stroke="#F4E6D7" stroke-width="4" stroke-miterlimit="10" d="M922.2,285.1"/>
	<path fill="none" stroke="#F4E6D7" stroke-width="4" stroke-miterlimit="10" d="M894.8,285.1"/>
	<path fill="none" stroke="#F4E6D7" stroke-width="4" stroke-miterlimit="10" d="M910.2,341.1"/>
	<path fill="none" stroke="#F4E6D7" stroke-width="4" stroke-miterlimit="10" d="M910.2,355.8"/>
	<path fill="none" stroke="#F4E6D7" stroke-width="4" stroke-miterlimit="10" d="M938.2,355.8"/>
	<path fill="none" stroke="#F4E6D7" stroke-width="4" stroke-miterlimit="10" d="M920.2,339.1"/>
	<path fill="none" stroke="#F4E6D7" stroke-width="4" stroke-miterlimit="10" d="M854.8,339.1"/>
	<path fill="none" stroke="#F4E6D7" stroke-width="4" stroke-miterlimit="10" d="M855.5,190.8"/>
	<path fill="none" stroke="#F4E6D7" stroke-width="4" stroke-miterlimit="10" d="M861.5,249.1"/>
	<path fill="none" stroke="#F4E6D7" stroke-width="4" stroke-miterlimit="10" d="M853.5,285.1"/>
	<path fill="none" stroke="#F4E6D7" stroke-width="4" stroke-miterlimit="10" d="M923.5,190.5"/>
	<path fill="none" stroke="#F4E6D7" stroke-width="4" stroke-miterlimit="10" d="M919.5,250.5"/>
	<path fill="none" stroke="#F4E6D7" stroke-width="4" stroke-miterlimit="10" d="M922.2,285.1"/>
	<path fill="none" stroke="#F4E6D7" stroke-width="4" stroke-miterlimit="10" d="M924.2,201.1"/>
	<path fill="none" stroke="#F4E6D7" stroke-width="4" stroke-miterlimit="10" d="M857.5,199.8"/>
	<path fill="none" stroke="#F4E6D7" stroke-width="4" stroke-miterlimit="10" d="M872.2,189.1"/>
	<path fill="none" stroke="#F4E6D7" stroke-width="4" stroke-miterlimit="10" d="M836.8,189.1"/>
	<path fill="none" stroke="#F4E6D7" stroke-width="4" stroke-miterlimit="10" d="M938.2,189.1"/>
	<path fill="none" stroke="#F4E6D7" stroke-width="4" stroke-miterlimit="10" d="M902.8,189.1"/>
	<path fill="none" stroke="#F4E6D7" stroke-width="4" stroke-miterlimit="10" d="M884.8,256.5"/>
	<path fill="none" stroke="#F4E6D7" stroke-width="4" stroke-miterlimit="10" d="M858.8,254.5"/>
	<path fill="none" stroke="#F4E6D7" stroke-width="4" stroke-miterlimit="10" d="M943.2,259.1"/>
	<path fill="none" stroke="#F4E6D7" stroke-width="4" stroke-miterlimit="10" d="M898.8,259.1"/>
	<path fill="none" stroke="#F4E6D7" stroke-width="4" stroke-miterlimit="10" d="M869.5,275.1"/>
	<path fill="none" stroke="#F4E6D7" stroke-width="4" stroke-miterlimit="10" d="M869.5,255.1"/>
	<path fill="none" stroke="#F4E6D7" stroke-width="4" stroke-miterlimit="10" d="M910.2,258.5"/>
	<polyline fill="none" stroke="#F4E6D7" stroke-width="4" stroke-miterlimit="10" points="294.9,143.8 222.2,143.8 222.2,37.8 	"/>
	<polyline fill="none" stroke="#F4E6D7" stroke-width="4" stroke-miterlimit="10" points="222.2,143.8 130.2,143.8 130.2,85.8 
		180.2,85.8 186.2,143.8 	"/>
	<line fill="none" stroke="#F4E6D7" stroke-width="4" stroke-miterlimit="10" x1="127.2" y1="37.8" x2="137.2" y2="85.8"/>
	<line fill="none" stroke="#F4D8B3" stroke-width="4" stroke-miterlimit="10" x1="953.1" y1="39.8" x2="624.2" y2="39.3"/>
	<line fill="none" stroke="#F4D8B3" stroke-width="4" stroke-miterlimit="10" x1="625.1" y1="-1" x2="624.6" y2="62.3"/>
	<line fill="none" stroke="#F4E6D7" stroke-width="4" stroke-miterlimit="10" x1="294.9" y1="299.8" x2="237.2" y2="299.8"/>
	<line fill="none" stroke="#F4E6D7" stroke-width="4" stroke-miterlimit="10" x1="499.9" y1="329.8" x2="455.2" y2="329.8"/>
	<line fill="none" stroke="#F4E6D7" stroke-width="4" stroke-miterlimit="10" x1="357.2" y1="308.1" x2="294.9" y2="308.1"/>
</g>
<g id="roads">
	<path fill="none" stroke="#F4D8B3" stroke-width="4" stroke-miterlimit="10" d="M224.2,433.8"/>
	<path fill="none" stroke="#F4D8B3" stroke-width="4" stroke-miterlimit="10" d="M224.2,0.4"/>
	<line fill="none" stroke="#F4D8B3" stroke-width="4" stroke-miterlimit="10" x1="0.2" y1="383.8" x2="953.1" y2="388.6"/>
	<polyline fill="none" stroke="#F4D8B3" stroke-width="4" stroke-miterlimit="10" points="-11,39.3 624.2,39.3 624.2,436.6 	"/>
</g>
<path fill="none" stroke="#F4D8B3" stroke-width="4" stroke-miterlimit="10" d="M763.9,304.8c-7.7-21-64-54.2-68.3-94.6"/>
<path fill="none" stroke="#F4D8B3" stroke-width="4" stroke-miterlimit="10" d="M774.2,304.8c-7.7-21,31.3-47.5,27-88"/>
<path fill="none" stroke="#F4D8B3" stroke-width="4" stroke-miterlimit="10" d="M796.9,344.7c32-17.3,57.4,21.8,97.7,3.6"/>
<path fill="none" stroke="#F4D8B3" stroke-width="4" stroke-miterlimit="10" d="M906.5,326.6c0,14.3-11.6,25.8-25.8,25.8
	c-14.3,0-25.8-11.6-25.8-25.8c0-14.3,24.5-41,33-29.5C889.2,298.9,906.5,316.1,906.5,326.6z"/>
<path fill="none" stroke="#F4D8B3" stroke-width="4" stroke-miterlimit="10" d="M824,323.3c15.5-11.5,31.4-30.1,27.1-70.6"/>
<path fill="none" stroke="#E5820C" stroke-width="11" stroke-miterlimit="10" d="M953.1,271.2c0,0-52.6,9.3-91.6,33.6
	C790.2,341.6,631.9,426.3,614,441"/>
<path fill="none" stroke="#F4D8B3" stroke-width="4" stroke-miterlimit="10" d="M831.7,235.5c-7.7-21-80.1-68-84.5-108.4"/>
<g id="marker">
	<path id="pin_1_" fill="#B9252D" d="M658.2,162.8c1-1.6,1.6-3.5,1.6-5.5c0-5.7-4.6-10.4-10.4-10.4c-5.7,0-10.4,4.6-10.4,10.4
		c0,2.2,0.7,4.2,1.8,5.8l8.6,10.4L658.2,162.8z"/>
</g>
<text transform="matrix(0 1 -1 0 621.9688 143.5557)" fill="#877C6C" font-family="'HelveticaNeue-Bold'" font-size="10px">S. 127th St E</text>
<text transform="matrix(1 0 0 1 664.5215 387.4287)" fill="#877C6C" font-family="'HelveticaNeue-Bold'" font-size="10px">H 400</text>
<path fill="none" stroke="#E5820C" stroke-width="11" stroke-miterlimit="10" d="M768.2,436.6c0,0-0.1-51.5,0-97.5
	c0.3-209.3-30-285.6-188-346.6"/>
<polyline fill="none" stroke="#F4E6D7" stroke-width="4" stroke-miterlimit="10" points="502,159.8 479.6,154.1 477.4,114.8 
	502,114.8 "/>
<line fill="none" stroke="#F4E6D7" stroke-width="4" stroke-miterlimit="10" x1="478.2" y1="137.3" x2="501.2" y2="137.3"/>
<polyline fill="none" stroke="#F4E6D7" stroke-width="4" stroke-miterlimit="10" points="501.2,95.8 461.2,95.8 461.2,38.8 "/>
<polyline fill="none" stroke="#F4E6D7" stroke-width="4" stroke-miterlimit="10" points="502,72.8 532.9,72.8 532.9,38.8 "/>
<g>
	<circle fill="#FFFFFF" stroke="#231F20" stroke-width="0.5" stroke-miterlimit="10" cx="767.2" cy="254.7" r="10"/>
</g>
<text transform="matrix(1 0 0 1 761.15 258.4667)" font-family="'MyriadPro-Regular'" font-size="12px">96</text>
</svg>
