<?xml version="1.0" encoding="utf-8"?>
<!-- Generator: Adobe Illustrator 18.0.0, SVG Export Plug-In . SVG Version: 6.00 Build 0)  -->
<!DOCTYPE svg PUBLIC "-//W3C//DTD SVG 1.1//EN" "http://www.w3.org/Graphics/SVG/1.1/DTD/svg11.dtd">
<svg version="1.1" id="map" xmlns="http://www.w3.org/2000/svg" xmlns:xlink="http://www.w3.org/1999/xlink" x="0px" y="0px"
	 viewBox="193 18.6 940 430.4" enable-background="new 193 18.6 940 430.4" xml:space="preserve">
<g id="land">
	<path fill="#F6F0EF" d="M179.8,12.3c-0.4,0-0.7,0-1-1.6v442.6l964.1,1.5V12.3H179.8z"/>
</g>
<g id="greenery">
	<polygon fill="#A2DDF5" points="725,16.5 721.5,29.5 735,31.5 744,13.5 	"/>
	<polygon fill="#A2DDF5" points="596.5,21.5 591,27.5 603,36.5 610.5,32.5 	"/>
	<path fill="#A2DDF5" d="M805,27.5l4.5,12.5c0,0,9-2,8.5-4s-4.5-11.5-4.5-11.5L805,27.5z"/>
	<path fill="#A2DDF5" d="M508.5,145.5c-0.5,17.2-1,34.3-1.5,51.5c-0.6,20.4,3.8,15.3,24.2,16.5c44.2,2.7,46.9-6.8,58.9-48.5
		c-17.4-2.1-25.1-5.3-40.1-14.4C537.7,143.3,522.5,145.9,508.5,145.5z"/>
	<path fill="#A2DDF5" d="M649.5,153c-35.6,0-36.7,32.3-42.5,58c6.8,0.5,52.8,5.9,53.2,0.9C661.2,196.2,672.1,154.2,649.5,153z"/>
	<path fill="#A2DDF5" d="M802.5,303.5c-4.6,9.6-0.4,16.2,10,18C822.6,308.2,811.3,287.8,802.5,303.5z"/>
	<path fill="#A2DDF5" d="M704,449c4.7-4.7,23.3-29.7,28-10.5C736.8,458.1,711.6,450.7,704,449z"/>
	<path fill="#A2DDF5" d="M781,423.5c-3.8,8.5-7.7,17-11.5,25.5c4.4,0.3,22.5,4.1,25.5,1.5c2.2-2,1.5-30.5,1.5-30.5
		C792.1,420,784.8,421.4,781,423.5z"/>
	<path fill="#A2DDF5" d="M610.6,267.4c-4,0.2-8.6,0.8-10.6,4.2c-1,1.7-1,3.7-1.4,5.6c-1.3,5.9-6.6,10.7-12.6,11.4
		s-12.3-2.8-14.9-8.2c-2-4.2-2.3-9.6-6-12.3c-1.3-0.9-2.9-1.4-4.4-1.8c-16.9-5-35.3-9.9-51.8-3.9c-1.5,0.5-3,1.2-3.8,2.6
		c-0.7,1.1-0.7,2.4-0.7,3.7c-0.2,8.4-0.4,16.8-0.6,25.3c4.4,1.1,8.9,1.7,13.4,2.1c1.4,0.1,2.8,0.1,4-0.5c1-0.5,1.7-1.5,2.3-2.4
		c2.8-4.6,3.3-10.1,4.8-15.2s4.8-10.4,10-11.5c5.7-1.2,11.3,3.6,13.2,9.1s1.1,11.6,0.2,17.4c16.5,0.1,32.9,2.1,48.9,5.9
		c2.2,0.5,4.9,1,6.6-0.6c2.2-2.1,0.7-5.7,0.7-8.7c-0.1-4.3,3.1-8.1,6.9-10c3.8-1.9,8.2-2.2,12.5-2.3c3.7,0,8,0.4,10.2,3.4
		c1.5,2,1.6,4.6,1.6,7.1c0.1,7,0,13.9-0.5,20.8c5.3,0.3,10.6,0.6,15.9,0.9c1.4,0.1,3,0.1,4.2-0.7c1.3-1,1.7-2.8,1.9-4.4
		c1.2-8.2,1.6-16.6,1.2-24.9c-0.2-4.4-1.1-9.7-5.1-11.5c-1.5-0.7-3.3-0.8-5-0.8C637.9,266.7,624.2,266.8,610.6,267.4z"/>
	<path fill="#A2DDF5" d="M659.4,353c-6.8,3.6-11.8-4.4-13.2,7.1c-2.5,19.2-29.3,25.7-30.8,2.3c-1-15-17.9-17.3-18.2-5.4
		c-0.4,13.7-1.8,35.7-22,33.1c-18.4-2.4-12.1-18.3-6-28c6-9.6-10.8-14.5-13.5-6.6c-3.5,9.9-2.4,31.8-21.2,22.5
		c-4.4-2.2-16.2-38.5-21-25.3c-17.7,48.4,37.8,18.1,46.7,40.6c5.3,13.2-7.4,18.4-18.1,18.5c-10.2,0-20.4-0.5-30.5-1.6
		c-2.1,6.2-2.1,13.6,5.9,14.3c16.1,1.5,39.1,5,52.4-6.8c14.2-12.6,22.4-26.6,42.3-31.4c15.1-3.6,18.8,5.3,34.4,5.5
		C657.1,392,659,360.3,659.4,353C656.4,354.6,658.8,365.2,659.4,353z"/>
	<path fill="#A2DDF5" d="M720.6,256.6c-2.6,0.2-5.3,0.7-7.1,2.5c-1.4,1.4-2,3.4-2.2,5.4c-0.3,4.4,1.7,8.5,2.8,12.7
		c2.7,11.3-1.4,22.9-4.3,34.1c-0.5,1.9-0.9,3.9,0,5.7c1.1,2.1,3.7,2.9,6.1,3.3c1.7,0.3,3.7,0.5,5-0.7c1.1-1,1.4-2.6,1.6-4
		c1.2-8.9,2.4-17.9,3.6-26.8c0.7-5.1,1.8-10.8,6.1-13.5c2.5-1.6,5.6-1.7,8.5-2.5c2.9-0.7,5.9-2.4,6.6-5.3c0.9-4.3-3.9-7.6-8.1-8.9
		C733.2,256.9,726.8,256.2,720.6,256.6z"/>
	<path fill="#A2DDF5" d="M712.3,393.1c-1,4.2-5.3,6.6-9.3,8.1c-2.6,1-5.3,1.8-8.1,1.7s-5.6-1.1-7.4-3.2c-1.3-1.6-1.9-3.6-3-5.2
		c-1.1-1.7-3.3-3-5.1-2.2c-0.6,0.2-1,0.6-1.5,1c-3.3,3.1-5.7,7.2-6.7,11.6c-0.1,0.7-0.3,1.4,0.1,2c0.4,0.6,1.2,0.8,1.9,0.8
		c5.6,0.7,11.3,0.4,16.9-0.1c6.9-0.7,13.9-1.8,20.8-1.9c7-0.1,14.1,0.9,20.3,4.1c5,2.6,9.2,6.7,12.8,11.1c1,1.3,2.1,2.7,3.7,2.7
		c2.1,0.1,3.4-2.2,4-4.2c0.8-2.6,1-5.7-0.9-7.6c-0.6-0.6-1.5-1.1-2.3-1.5c-3-1.5-6-3.1-8.9-4.6c-5.1-2.6-10.7-6-11.6-11.7
		c-0.2-1.2-0.1-2.4,0.5-3.4c0.4-0.7,1.1-1.1,1.8-1.5c5.1-2.9,11.6-2.4,16.6-5.5c1.4-0.9,2.8-2.2,2.8-3.8c0-1.4-1.1-2.7-2.3-3.3
		c-1.3-0.6-2.7-0.8-4.1-0.9c-5.6-0.4-11.3-0.3-16.9,0.1c-2.8,0.2-5.6,0.6-8.2,1.7c-2.5,1.2-4.8,3.2-5.5,5.9
		C711.8,386.6,713.1,390,712.3,393.1z"/>
	<path fill="#A2DDF5" d="M606.4,426.6c-1.7,0.7-3.5,1.7-4.4,3.4c-0.6,1.2-0.7,2.6-0.8,3.9c-0.1,2.3-0.2,4.6-0.4,7
		c-0.1,1.3-0.1,2.7-0.7,3.9c-0.9,1.8-2.6,2.9-4.4,3.8c-5.6,2.7-12,3.8-18.2,3c-1.1-0.1-2.3-0.4-3.2-1.1c-0.9-0.7-1.4-2-0.9-3
		c0.2-0.4,0.5-0.7,0.8-0.9c8.4-8.1,16.8-16.2,25.8-23.6c3.8-3.1,7.7-6.1,12.2-8.1c10.9-4.9,23.4-3.5,35.1-1.1
		c3.2,0.7,6.4,1.4,9.5,2.3c6.2,1.8,12.1,4.4,17.8,7.2c2.2,1.1,4.4,2.3,5.4,4.5c0.7,1.4,0.7,3,0.7,4.6c0,2.4,0,4.7,0.1,7.1
		c0,2.5,0,5.2-1.1,7.4c-2.1,4.1-8.3,5.5-12,2.5c-0.3-0.3-0.6-0.6-0.7-1c-0.1-0.4,0-0.9,0.2-1.3c1.3-4,2.1-8.2,2.3-12.4
		c0-0.9,0-1.8-0.3-2.7c-0.4-1-1.2-1.7-2.1-2.3c-9-6.8-21.2-7.1-32.5-7C625,422.7,615.2,422.8,606.4,426.6z"/>
	<path fill="#A2DDF5" d="M452.6,339.7c-17.1-3-34.4-1.8-51.7-1.8c-8-0.8-15.9-0.4-23.7,1.1c-5,2.9-4.8,10.8,1.9,10.8
		c17.3,0,31.3-5.2,49-1c7,1.7,31.2,17.7,13.2,25.4c-30.3,12.9,27.8,22.4,3.2,38.4c-8.7,5.6-23.1,3.2-32.6,2.2
		c-18.9-2-30.5,3.9-46,14.6c-47.1,32.7,11.3,27.4,21.3,6.2c15.2-32.3,16,14.5,30.6,4c12.7-9,15.3-10.7,29.5-3.7
		c15.4,7.6,20-12.1,19.4-23.3c-0.5-5.3-2.1-10.2-4.8-14.8c-3.7-9.9,8.2-14.5,8-25.5C469.8,357.6,470.3,342.9,452.6,339.7z"/>
	<path fill="#A2DDF5" d="M306.6,430.6c4.2,13.8,69.9-26.8,58.2-55.2c-4.9-12-18.4,19.5-19.9,21.3C338.3,404,302.9,418.7,306.6,430.6
		z"/>
	<path fill="#A2DDF5" d="M380.5,273.3c-3.1-7.6-25.4-6.1-31.7-6.1c-6.2,0.1-7.3,28.3-7.8,33.5c-0.9,9.1,25.3,6.6,30.1,6.5
		C380.4,307.1,382.6,278.5,380.5,273.3z"/>
	<path fill="#A2DDF5" d="M259.1,386.1c-9.1,4.6-7.8-27.7-7.7-31.1c0.5-19.9,38.5-13.3,36.1-8.1c-6.3,14.2-26.5-4-29.4,12.6
		C255.8,372.8,277.9,376.5,259.1,386.1z"/>
	<path fill="#A2DDF5" d="M262.2,424.8c4,3.1,10.2,24.8,21.2,8.6c2.5-3.6-2.4-9.8-0.6-14.3c-0.4,1,22.4-25.2,7.5-18.9
		c-8.5,3.6-13.6,10.2-23.3,12.5c-5.7,1.4-22.7-3-26,1.5C219.5,443.3,249.9,415.1,262.2,424.8z"/>
	<path fill="#A2DDF5" d="M248.4,317.1c-28-0.1-23.8,34.1-23.4,53.6c0.2,9.6,2.3,29.1-6.3,36.4c-13.9,11.9-7.2-13.3-6.9-14.6
		c3.6-15.1,16.5-56.5,4.7-70c-5.1-5.9-18.5-9.2-25.9-7.9c-2.4,0.4-25.3-3-11.9-7.5c21-7,54.9-1.1,76.8,0
		c15.8,0.8,78.7-0.3,88.2,13.9c5.8,8.7-15,32.7-23.4,14.8C308.7,310.7,272.5,317.2,248.4,317.1z"/>
	<path fill="#A2DDF5" d="M198.6,262.2c0.3,5.4,26.5,9.7,18.7-11.6C211.8,235.6,198.1,252.5,198.6,262.2z"/>
	<path fill="#A2DDF5" d="M414.8,186.1c-2.5,6.8-5.3,19.2-4.2,26.3c12.9,1.7,14.3,3.7,13.7-5.8c-0.6-10.8,14.4-4.6,15.3-20.4
		c0.2-4.2,1.4-22.4-9.5-16C426.3,180.7,417.9,177.6,414.8,186.1z"/>
	<path fill="#A2DDF5" d="M332,144.7c5.3,0.3,31.1-3.2,31.4,5.5c0.3,7.2,1.5,24.6-8.3,26.2C347.2,177.6,332,151,332,144.7
		C341.1,145.2,332,146.5,332,144.7z"/>
	<path fill="#A2DDF5" d="M239.8,121.4c0.4,4.7-9.5,35.1,10.2,27.4C262.1,144.1,251.8,109.9,239.8,121.4
		C240.3,127.5,241,120.3,239.8,121.4z"/>
	<path fill="#A2DDF5" d="M597.7,73.1c7.8,12.4-71.1,26.2-71.9-6.5c-0.4-18.9,1.3-17.6,21.1-17.1C576.5,50.3,582.4,48.8,597.7,73.1z"
		/>
	<path fill="#A2DDF5" d="M681.5,64.3c-0.3,6.3,1.7,25.9-6.6,28.3c-18.2,5.2-33.6-9.7-41.2-24.6C619.4,39.8,682.5,46.6,681.5,64.3z"
		/>
	<path fill="#A2DDF5" d="M796.9,95.1c-14.9,5.9-58.4-3.4-35.2-30.2c3.9-4.5,34.8-5.6,38.2-0.9C802.9,68,803.1,92.7,796.9,95.1z"/>
	<path fill="#A2DDF5" d="M971.4,17.4c-8.6,5.7-36.1,10.2-38.5,22.3c-4.1,20,20.2,6.7,26.1,9.7c25.1,12.7,2.6,22.1,0.8,35.2
		c-3.9,29,25.7,2.7,35.3,10c7.8,5.9-7.1,14.2-11,17.3c-8.2,6.5-18,1.3-26.6-1.2c-21.8-6.3-25.7-12.3-24.1-35.5
		c1.1-15.6-19.1-18.5-14-35.9C925.4,18.4,953.1,12.5,971.4,17.4C964.6,21.9,960.4,14.4,971.4,17.4z"/>
	<path fill="#A2DDF5" d="M1113.2,121.7c6.2-2.5,12.5-4.6,19-6.2c0.9,13.2,2.5,15.1-4.9,24.4c-6.7,8.4-10.1,25.9-6.8,36
		c3.4,10.7,23.4,7.5,17.7,20.7c-4.1,9.5-29.2,8.1-36.9,8.8c-13.8,1.2-75-8.3-58.9-35.5c6.1-10.3,17.6-24.8,28.8-29.7
		c17.2-7.5,12.2,11.4,13.3,21.5c-39.1,10.6-9,41.3,15.3,25.1C1119.5,173.6,1097.6,128.1,1113.2,121.7z"/>
	<path fill="#A2DDF5" d="M1072.8,28.7c-0.1-8.9-11.5-11.2-18.4-8.2c-12.8,5.6-1.5,24.7-12.9,31.8c-14.8,9.1-9.2-18.9-9.8-23.3
		c-2.2-14.4-30.6,1-29.2-10.9c26.8-11.3,71.2-11.1,98.6-1.8c-11.6,17-17.5,34.1-24.5,53.2c-8.1,22.1-12.6,26.9-32,19.8
		C1062.3,74.6,1073,51.8,1072.8,28.7z"/>
	<path fill="#A2DDF5" d="M1114.5,76c7.6-1.9,1.3-14.4,3.7-19.9c5.7-12.8,17.1-3,15.7-19.7C1113.8,25.2,1086.1,83.2,1114.5,76z"/>
	<path fill="#A2DDF5" d="M301.3,216.2c14.7,0.3,17.7-12,0.5-12.7C285.2,202.7,284.4,215.9,301.3,216.2z"/>
	<path fill="#A2DDF5" d="M907.9,415.8c30.9,4.2,53.8-39.4,20.5-42.9C904.4,370.4,901.2,414.9,907.9,415.8z"/>
</g>
<g id="smallroads">
	<polyline fill="none" stroke="#F4E6D7" stroke-width="4" stroke-miterlimit="10" points="603.5,124.5 604,179.5 593,204.5 
		607,228.5 672,228.5 672,142.5 636,142.5 614,158.5 582.5,154.5 553.5,134.5 495.5,134.5 492.5,220.5 566,230 599,214 	"/>
	<line fill="none" stroke="#F4E6D7" stroke-width="4" stroke-miterlimit="10" x1="622.5" y1="141" x2="630" y2="149.5"/>
	<path fill="none" stroke="#F4E6D7" stroke-width="4" stroke-miterlimit="10" d="M459.5,123.5c0,0,2,25.5-6.5,39.5
		s-7.5,33.5-7.5,33.5v91H403v-166"/>
	<line fill="none" stroke="#F4E6D7" stroke-width="4" stroke-miterlimit="10" x1="404.5" y1="141" x2="458.5" y2="141"/>
	<path fill="none" stroke="#F4E6D7" stroke-width="4" stroke-miterlimit="10" d="M323,119.5V184c0,0,48,1,48,0s0-45.5,0-45.5h-48"/>
	<polyline fill="none" stroke="#F4E6D7" stroke-width="4" stroke-miterlimit="10" points="230,114.5 230,142.5 247.5,157.5 
		247.5,241.5 280.5,241.5 289,236 	"/>
	<polyline fill="none" stroke="#F4E6D7" stroke-width="4" stroke-miterlimit="10" points="338,16 352,33.5 356.5,17 	"/>
	<path fill="none" stroke="#F4E6D7" stroke-width="4" stroke-miterlimit="10" d="M350,35.5l-19,33c0,0-10.5,37,14.5,38.5"/>
	<path fill="none" stroke="#F4E6D7" stroke-width="4" stroke-miterlimit="10" d="M334.5,65.5c1.5,0.5,16,4,21.5-10.5s8.5-28,8.5-28"
		/>
	<line fill="none" stroke="#F4E6D7" stroke-width="4" stroke-miterlimit="10" x1="347" y1="50" x2="354.5" y2="57"/>
	<polyline fill="none" stroke="#F4E6D7" stroke-width="4" stroke-miterlimit="10" points="408,16.5 417,31.5 412,83.5 	"/>
	<path fill="none" stroke="#F4E6D7" stroke-width="4" stroke-miterlimit="10" d="M227,17.5L255,69l8-5c0,0-3-10-12-7.5"/>
	<path fill="none" stroke="#F4E6D7" stroke-width="4" stroke-miterlimit="10" d="M191.5,49.5c2.5,0,11,17,11,17"/>
	<polyline fill="none" stroke="#F4E6D7" stroke-width="4" stroke-miterlimit="10" points="707.5,127.5 722,85.5 698,85.5 698,41 	
		"/>
	<path fill="none" stroke="#F4E6D7" stroke-width="4" stroke-miterlimit="10" d="M724,40c-2,0-97-2.5-97-2.5L602,51l33.5,51l58,3
		c0,0,4-8,4-17.5"/>
	<path fill="none" stroke="#F4E6D7" stroke-width="4" stroke-miterlimit="10" d="M622,84l-26.5,17.5l-85.5-7l3-57
		c0,0-3.5-3.5,28-2.5s48.5-4.5,61,16"/>
	<polyline fill="none" stroke="#F4E6D7" stroke-width="4" stroke-miterlimit="10" points="722,85.5 743.5,84.5 747.5,42.5 817.5,46 
		814.5,106 743.5,105.5 743.5,84.5 	"/>
	<line fill="none" stroke="#F4E6D7" stroke-width="4" stroke-miterlimit="10" x1="815.5" y1="44" x2="813" y2="26.5"/>
	<polyline fill="none" stroke="#F4E6D7" stroke-width="4" stroke-miterlimit="10" points="877,29 783,23 771,15 	"/>
	<line fill="none" stroke="#F4E6D7" stroke-width="4" stroke-miterlimit="10" x1="813.5" y1="24.5" x2="815" y2="16.5"/>
	<line fill="none" stroke="#F4E6D7" stroke-width="4" stroke-miterlimit="10" x1="832" y1="26" x2="832" y2="16"/>
	<line fill="none" stroke="#F4E6D7" stroke-width="4" stroke-miterlimit="10" x1="850.5" y1="25" x2="849" y2="16"/>
	<line fill="none" stroke="#F4E6D7" stroke-width="4" stroke-miterlimit="10" x1="854.5" y1="80.5" x2="874.5" y2="80"/>
	<path fill="none" stroke="#F4E6D7" stroke-width="4" stroke-miterlimit="10" d="M835.5,338c1.5,0,299.5-0.5,299.5-0.5"/>
	<polyline fill="none" stroke="#F4E6D7" stroke-width="4" stroke-miterlimit="10" points="935,339 934.5,357.5 958.5,357.5 959,423 
		895.5,422.5 899.5,358 933,357.5 	"/>
	<polyline fill="none" stroke="#F4E6D7" stroke-width="4" stroke-miterlimit="10" points="954,267 971,287.5 972,338 	"/>
	<polyline fill="none" stroke="#F4E6D7" stroke-width="4" stroke-miterlimit="10" points="884.5,337.5 888.5,243 914,247.5 	"/>
	<polyline fill="none" stroke="#F4E6D7" stroke-width="4" stroke-miterlimit="10" points="935,437.5 995.5,437.5 995.5,241.5 
		1133,241.5 	"/>
	<polyline fill="none" stroke="#F4E6D7" stroke-width="4" stroke-miterlimit="10" points="1024,242.5 1024,436 1133,436 	"/>
	<path fill="none" stroke="#F4E6D7" stroke-width="4" stroke-miterlimit="10" d="M1028,403c1.5,0.5,105,0,105,0"/>
	<line fill="none" stroke="#F4E6D7" stroke-width="4" stroke-miterlimit="10" x1="1025.5" y1="370" x2="1133" y2="370"/>
	<path fill="none" stroke="#F4E6D7" stroke-width="4" stroke-miterlimit="10" d="M1026,305.5c2,0,108.5,0,108.5,0"/>
	<path fill="none" stroke="#F4E6D7" stroke-width="4" stroke-miterlimit="10" d="M1025,272c1.5,0,111,0,111,0"/>
	<path fill="none" stroke="#F4E6D7" stroke-width="4" stroke-miterlimit="10" d="M851.5,370c1.5,0.5,13.5,0,13.5,0"/>
	<polyline fill="none" stroke="#F4E6D7" stroke-width="4" stroke-miterlimit="10" points="824.5,431 829,424 860,425 	"/>
	<polyline fill="none" stroke="#F4E6D7" stroke-width="4" stroke-miterlimit="10" points="809.5,447.5 809.5,406.5 764.5,406.5 
		764.5,364 701.5,364 701.5,389 696,386 699,381 	"/>
	<line fill="none" stroke="#F4E6D7" stroke-width="4" stroke-miterlimit="10" x1="812" y1="407" x2="836" y2="408"/>
	<line fill="none" stroke="#F4E6D7" stroke-width="4" stroke-miterlimit="10" x1="834.5" y1="400.5" x2="834.5" y2="417"/>
	<line fill="none" stroke="#F4E6D7" stroke-width="4" stroke-miterlimit="10" x1="739.5" y1="395" x2="763" y2="395"/>
	<polyline fill="none" stroke="#F4E6D7" stroke-width="4" stroke-miterlimit="10" points="765,409.5 765.5,428 748,441 	"/>
	<path fill="none" stroke="#F4E6D7" stroke-width="4" stroke-miterlimit="10" d="M753,450.5c0-2-23.5-33-23.5-33l-54,2.5l-38-21.5
		l-36.5,3L564,438l-60.5,0.5c0,0-9.5-5-9.5-25s0-61,0-61s1-19.5,31-17s131,4,131,4s14,3.5,13.5,19s-1.5,35-13.5,49"/>
	<line fill="none" stroke="#F4E6D7" stroke-width="4" stroke-miterlimit="10" x1="631" y1="339.5" x2="631" y2="366.5"/>
	<line fill="none" stroke="#F4E6D7" stroke-width="4" stroke-miterlimit="10" x1="586.5" y1="339.5" x2="582.5" y2="377.5"/>
	<line fill="none" stroke="#F4E6D7" stroke-width="4" stroke-miterlimit="10" x1="538.5" y1="338" x2="539.5" y2="364"/>
	<line fill="none" stroke="#F4E6D7" stroke-width="4" stroke-miterlimit="10" x1="497" y1="396.5" x2="548.5" y2="400.5"/>
	<polyline fill="none" stroke="#F4E6D7" stroke-width="4" stroke-miterlimit="10" points="866,272 781,272 735,248 679,247.5 
		664,262 671,270 669,322.5 603.5,320 588,312 491,307.5 492,246 557.5,249.5 650.5,256 662,261 	"/>
	<polyline fill="none" stroke="#F4E6D7" stroke-width="4" stroke-miterlimit="10" points="700.5,249 706.5,283 699.5,333 738,331.5 
		738.5,286 758,284 766.5,270 	"/>
	<path fill="none" stroke="#F4E6D7" stroke-width="4" stroke-miterlimit="10" d="M793.5,271.5c1-1.5,2-18,2-18L834,252l0.5,19"/>
	<path fill="none" stroke="#F4E6D7" stroke-width="4" stroke-miterlimit="10" d="M778,284.5c1.5,0,78.5,0,78.5,0"/>
	<line fill="none" stroke="#F4E6D7" stroke-width="4" stroke-miterlimit="10" x1="816" y1="274.5" x2="816" y2="284"/>
	<line fill="none" stroke="#F4E6D7" stroke-width="4" stroke-miterlimit="10" x1="583.5" y1="252" x2="585" y2="278"/>
	<line fill="none" stroke="#F4E6D7" stroke-width="4" stroke-miterlimit="10" x1="625" y1="290" x2="623.5" y2="320"/>
	<path fill="none" stroke="#F4E6D7" stroke-width="4" stroke-miterlimit="10" d="M539.5,281c-1,1.5-1,27-1,27"/>
	<path fill="none" stroke="#F4E6D7" stroke-width="4" stroke-miterlimit="10" d="M437,326.5h-73.5l-27,64l-39,26l15,37l52.5-33
		c0,0,29-35-8-70.5"/>
	<polyline fill="none" stroke="#F4E6D7" stroke-width="4" stroke-miterlimit="10" points="373.5,369 403,358 436.5,367 	"/>
	<polyline fill="none" stroke="#F4E6D7" stroke-width="4" stroke-miterlimit="10" points="374.5,398.5 392,404.5 437,403 	"/>
	<line fill="none" stroke="#F4E6D7" stroke-width="4" stroke-miterlimit="10" x1="300" y1="436.5" x2="269" y2="457"/>
	<path fill="none" stroke="#F4E6D7" stroke-width="4" stroke-miterlimit="10" d="M202,454c1.5-2.5,39.5-52,39.5-52l-4.5-55l17.5-20
		l40.5,4l6,26l-30,45h-29.5"/>
	<path fill="none" stroke="#F4E6D7" stroke-width="4" stroke-miterlimit="10" d="M273,365.5c0,0,17,7,15.5,7.5"/>
	<polyline fill="none" stroke="#F4E6D7" stroke-width="4" stroke-miterlimit="10" points="191.5,325.5 207.5,330.5 206.5,390 
		191.5,405 	"/>
	<line fill="none" stroke="#F4E6D7" stroke-width="4" stroke-miterlimit="10" x1="197.5" y1="399.5" x2="220" y2="429"/>
	<line fill="none" stroke="#F4E6D7" stroke-width="4" stroke-miterlimit="10" x1="206" y1="414" x2="191" y2="425"/>
	<path fill="none" stroke="#F4E6D7" stroke-width="4" stroke-miterlimit="10" d="M190.5,363c1.5,0.5,13,1.5,13,1.5"/>
	<line fill="none" stroke="#F4E6D7" stroke-width="4" stroke-miterlimit="10" x1="393.5" y1="437" x2="389.5" y2="450.5"/>
	<line fill="none" stroke="#F4E6D7" stroke-width="4" stroke-miterlimit="10" x1="432.5" y1="438" x2="435" y2="453.5"/>
	<line fill="none" stroke="#F4E6D7" stroke-width="4" stroke-miterlimit="10" x1="613" y1="436.5" x2="660" y2="436.5"/>
	<line fill="none" stroke="#F4E6D7" stroke-width="4" stroke-miterlimit="10" x1="638" y1="437" x2="638" y2="450.5"/>
	<line fill="none" stroke="#F4E6D7" stroke-width="4" stroke-miterlimit="10" x1="1003" y1="175.5" x2="1054" y2="104.5"/>
	<path fill="none" stroke="#F4E6D7" stroke-width="4" stroke-miterlimit="10" d="M987,14c0,0-4,42,34.5,69s64,40,111.5,19.5"/>
	<path fill="none" stroke="#F4E6D7" stroke-width="4" stroke-miterlimit="10" d="M1119.5,24.5c0,0-28.5,6.5-27,46s5.5,109,5.5,109
		l-23-0.5"/>
	<path fill="none" stroke="#F4E6D7" stroke-width="4" stroke-miterlimit="10" d="M1093.5,129l-32.5-2l-33.5,51
		c0,0,10.5,36.5,63.5,36.5s56,0,56,0"/>
	<path fill="none" stroke="#F4E6D7" stroke-width="4" stroke-miterlimit="10" d="M1082.5,93c0,0,10,4.5,33-3.5s23-10,23-10"/>
	<polyline fill="none" stroke="#F4E6D7" stroke-width="4" stroke-miterlimit="10" points="943.5,42.5 974.5,33 990.5,73.5 
		973.5,87.5 	"/>
	<polyline fill="none" stroke="#F4E6D7" stroke-width="4" stroke-miterlimit="10" points="990.5,73.5 1031,111.5 1003.5,147.5 
		972.5,127 902,116 900,67 922,67 922,116 	"/>
	<line fill="none" stroke="#F4E6D7" stroke-width="4" stroke-miterlimit="10" x1="985.5" y1="135" x2="1016.5" y2="98.5"/>
	<line fill="none" stroke="#F4E6D7" stroke-width="4" stroke-miterlimit="10" x1="904" y1="14.5" x2="904" y2="40.5"/>
	<line fill="none" stroke="#F4E6D7" stroke-width="4" stroke-miterlimit="10" x1="979.5" y1="52.5" x2="1020.5" y2="32.5"/>
	<path fill="none" stroke="#F4E6D7" stroke-width="4" stroke-miterlimit="10" d="M1008.5,39l23.5,31c0,0,16,13.5,24.5-7.5
		s5.5-35,5.5-35"/>
</g>
<g id="roads">
	<path fill="none" stroke="#F4D8B3" stroke-width="4" stroke-miterlimit="10" d="M465,13c0,0-35,99,66,106s101,7,101,7l295,6
		c0,0,49,2,90,59s119,45,119,45"/>
	<path fill="none" stroke="#F4D8B3" stroke-width="4" stroke-miterlimit="10" d="M465,82l-5,40c0,0-264-10-267-10"/>
	<line fill="none" stroke="#EAB488" stroke-width="6" stroke-miterlimit="10" x1="879" y1="12" x2="862" y2="449"/>
	<line fill="none" stroke="#EAB488" stroke-width="6" stroke-miterlimit="10" x1="889" y1="12" x2="872" y2="449"/>
</g>
<g id="marker">
	<path id="pin_1_" fill="#B9252D" d="M875,205c1-1.6,1.6-3.5,1.6-5.5c0-5.7-4.6-10.4-10.4-10.4c-5.7,0-10.4,4.6-10.4,10.4
		c0,2.2,0.7,4.2,1.8,5.8l8.6,10.4L875,205z"/>
</g>
<text transform="matrix(1 0 0 1 762.3715 133.4621)" fill="#877C6C" font-family="'HelveticaNeue-Bold'" font-size="10">STRIBLING WAY</text>
<g id="sign">
	<path fill="#FFFFFF" stroke="#231F20" stroke-miterlimit="10" d="M878.7,167.3c11,0,7-9,7-9c2.3-2.2-0.2-6-0.2-6
		c-3.5,2.5-6.7-0.5-6.7-0.5l0,0c0,0-3.3,3-6.8,0.5c0,0-2.5,3.8-0.2,6c0,0-4,9,7,9H878.7z"/>
	<text transform="matrix(1 0 0 1 872.2291 162.7819)"><tspan x="0" y="0" font-family="'MyriadPro-Regular'" font-size="9.1978">4</tspan><tspan x="4.7" y="0" font-family="'MyriadPro-Regular'" font-size="9.1978">4</tspan><tspan x="8.9" y="0" font-family="'MyriadPro-Regular'" font-size="9.1978">1</tspan></text>
</g>
</svg>
