<?xml version="1.0" encoding="utf-8"?>
<!-- Generator: Adobe Illustrator 18.0.0, SVG Export Plug-In . SVG Version: 6.00 Build 0)  -->
<!DOCTYPE svg PUBLIC "-//W3C//DTD SVG 1.1//EN" "http://www.w3.org/Graphics/SVG/1.1/DTD/svg11.dtd">
<svg version="1.1" id="map" xmlns="http://www.w3.org/2000/svg" xmlns:xlink="http://www.w3.org/1999/xlink" x="0px" y="0px"
	 viewBox="193 18.6 940 430.4" enable-background="new 193 18.6 940 430.4" xml:space="preserve">
<g id="land">
	<path fill="#F6F0EF" d="M179.8,12.3c-0.4,0-0.7,0-1-1.6v442.6l964.1,1.5V12.3H179.8z"/>
</g>
<g id="greenery">
	<polygon fill="#A2DDF5" points="924.7,343.3 946.7,358 948.7,378 922,412.7 900.7,406 899.3,354.7 	"/>
	<polygon fill="#A2DDF5" points="472,15.3 510.7,56.7 453.3,67.3 421.3,38 426.7,15.6 	"/>
</g>
<g id="smallroads">
	<line fill="none" stroke="#F4E6D7" stroke-width="4" stroke-miterlimit="10" x1="826" y1="18.6" x2="826" y2="449"/>
	<polyline fill="none" stroke="#F4E6D7" stroke-width="4" stroke-miterlimit="10" points="827.3,61.3 868.7,61.3 868.7,42.7 	"/>
	<polyline fill="none" stroke="#F4E6D7" stroke-width="4" stroke-miterlimit="10" points="827.3,166.7 890,166.7 890,191.3 	"/>
	<polyline fill="none" stroke="#F4E6D7" stroke-width="4" stroke-miterlimit="10" points="1133,278 896,278 774,305.3 216.7,305.3 	
		"/>
	<polyline fill="none" stroke="#F4E6D7" stroke-width="4" stroke-miterlimit="10" points="304.7,306.7 330.7,376 312,451.3 	"/>
	<polyline fill="none" stroke="#F4E6D7" stroke-width="4" stroke-miterlimit="10" points="460,306.7 460,442 749.3,442 	"/>
	<line fill="none" stroke="#F4E6D7" stroke-width="4" stroke-miterlimit="10" x1="618.7" y1="441.3" x2="618.7" y2="408"/>
	<polyline fill="none" stroke="#F4E6D7" stroke-width="4" stroke-miterlimit="10" points="604,306 604,356 693.3,356 693.3,305.3 	
		"/>
	<line fill="none" stroke="#F4E6D7" stroke-width="4" stroke-miterlimit="10" x1="657.3" y1="305.3" x2="657.3" y2="356.7"/>
	<line fill="none" stroke="#F4E6D7" stroke-width="4" stroke-miterlimit="10" x1="398.7" y1="303.3" x2="398.7" y2="270"/>
	<polyline fill="none" stroke="#F4E6D7" stroke-width="4" stroke-miterlimit="10" points="190.7,270 444.7,270 460,220.7 	"/>
	<line fill="none" stroke="#F4E6D7" stroke-width="4" stroke-miterlimit="10" x1="555.3" y1="304" x2="555.3" y2="279.3"/>
	<line fill="none" stroke="#F4E6D7" stroke-width="4" stroke-miterlimit="10" x1="680.7" y1="304" x2="680.7" y2="279.3"/>
	<line fill="none" stroke="#F4E6D7" stroke-width="4" stroke-miterlimit="10" x1="280.7" y1="304" x2="280.7" y2="279.3"/>
	<line fill="none" stroke="#F4E6D7" stroke-width="4" stroke-miterlimit="10" x1="728.7" y1="290" x2="728.7" y2="318.7"/>
	<polyline fill="none" stroke="#F4E6D7" stroke-width="4" stroke-miterlimit="10" points="787.3,302.7 787.3,364.7 826.7,364.7 	"/>
	<polyline fill="none" stroke="#F4E6D7" stroke-width="4" stroke-miterlimit="10" points="827.3,382 889.3,382 889.3,300 912.7,300 
		912.7,246.7 	"/>
	<line fill="none" stroke="#F4E6D7" stroke-width="4" stroke-miterlimit="10" x1="828" y1="342" x2="886.7" y2="342"/>
	<polyline fill="none" stroke="#F4E6D7" stroke-width="4" stroke-miterlimit="10" points="827.3,425.3 920,425.3 995.3,354.7 
		995.3,278 	"/>
	<line fill="none" stroke="#F4E6D7" stroke-width="4" stroke-miterlimit="10" x1="962" y1="389.3" x2="1012.7" y2="449"/>
	<line fill="none" stroke="#F4E6D7" stroke-width="4" stroke-miterlimit="10" x1="996" y1="350.7" x2="1046" y2="350.7"/>
	<line fill="none" stroke="#F4E6D7" stroke-width="4" stroke-miterlimit="10" x1="994" y1="359.3" x2="1046" y2="393.3"/>
	<polyline fill="none" stroke="#F4E6D7" stroke-width="4" stroke-miterlimit="10" points="1046.7,425.3 1046.7,311.3 996,311.3 	"/>
	<line fill="none" stroke="#F4E6D7" stroke-width="4" stroke-miterlimit="10" x1="1088" y1="278.7" x2="1088" y2="449"/>
	<line fill="none" stroke="#F4E6D7" stroke-width="4" stroke-miterlimit="10" x1="1087.3" y1="308" x2="1133" y2="308"/>
	<polyline fill="none" stroke="#F4E6D7" stroke-width="4" stroke-miterlimit="10" points="1014.7,152.7 1016.7,166 1044.7,164.7 	
		"/>
	<polyline fill="none" stroke="#F4E6D7" stroke-width="4" stroke-miterlimit="10" points="364.7,268.7 364.7,150 388,115.3 
		388,18.6 	"/>
	<polyline fill="none" stroke="#F4E6D7" stroke-width="4" stroke-miterlimit="10" points="364.7,150 228.7,150 188.7,124.7 
		218.7,70.7 218.7,18.6 	"/>
	<polyline fill="none" stroke="#F4E6D7" stroke-width="4" stroke-miterlimit="10" points="220.7,73.3 276,122.7 276,149.3 	"/>
	<polyline fill="none" stroke="#F4E6D7" stroke-width="4" stroke-miterlimit="10" points="338,147.3 338,120.7 266.7,50.7 
		266.7,15.3 	"/>
	<line fill="none" stroke="#F4E6D7" stroke-width="4" stroke-miterlimit="10" x1="280.7" y1="62.7" x2="300" y2="43.3"/>
	<polyline fill="none" stroke="#F4E6D7" stroke-width="4" stroke-miterlimit="10" points="321.3,102.7 346.3,77.7 346.3,18.6 	"/>
	<polyline fill="none" stroke="#F4E6D7" stroke-width="4" stroke-miterlimit="10" points="364.7,195.3 275.3,195.3 275.3,269.3 	"/>
	<polyline fill="none" stroke="#F4E6D7" stroke-width="4" stroke-miterlimit="10" points="390,92 509.3,92 556,26.7 771,26.3 
		791.3,49.3 825.3,49.3 	"/>
	<line fill="none" stroke="#F4E6D7" stroke-width="4" stroke-miterlimit="10" x1="739.3" y1="49.3" x2="739.3" y2="25.3"/>
	<line fill="none" stroke="#F4E6D7" stroke-width="4" stroke-miterlimit="10" x1="689.3" y1="49.3" x2="689.3" y2="25.3"/>
	<line fill="none" stroke="#F4E6D7" stroke-width="4" stroke-miterlimit="10" x1="639.3" y1="49.3" x2="639.3" y2="25.3"/>
	<line fill="none" stroke="#F4E6D7" stroke-width="4" stroke-miterlimit="10" x1="599.3" y1="49.3" x2="599.3" y2="25.3"/>
	<line fill="none" stroke="#F4E6D7" stroke-width="4" stroke-miterlimit="10" x1="542" y1="44.7" x2="515.6" y2="18.3"/>
	<polyline fill="none" stroke="#F4E6D7" stroke-width="4" stroke-miterlimit="10" points="518.7,80 534.3,95.7 534.3,140 	"/>
	<line fill="none" stroke="#F4E6D7" stroke-width="4" stroke-miterlimit="10" x1="478.7" y1="94" x2="478.7" y2="133.3"/>
	<line fill="none" stroke="#F4E6D7" stroke-width="4" stroke-miterlimit="10" x1="431.3" y1="92" x2="431.3" y2="146.7"/>
	<polyline fill="none" stroke="#F4E6D7" stroke-width="4" stroke-miterlimit="10" points="214.7,270.7 214.7,248.7 188.7,248.7 	"/>
</g>
<g id="roads_1_">
	<path fill="none" stroke="#EAB488" stroke-width="6" stroke-miterlimit="10" d="M1207,598"/>
	<path fill="none" stroke="#F4D8B3" stroke-width="4" stroke-miterlimit="10" d="M387,449"/>
	<path fill="none" stroke="#F4D8B3" stroke-width="4" stroke-miterlimit="10" d="M387,16"/>
	<path fill="none" stroke="#F4D8B3" stroke-width="4" stroke-miterlimit="10" d="M193,280h486c0,0,127,8,226-41s228-119,228-119"/>
	<path fill="none" stroke="#F4D8B3" stroke-width="4" stroke-miterlimit="10" d="M193,290h486c0,0,127,8,226-41s228-119,228-119"/>
</g>
<g id="marker">
	<path id="pin_1_" fill="#B9252D" d="M875,205c1-1.6,1.6-3.5,1.6-5.5c0-5.7-4.6-10.4-10.4-10.4c-5.7,0-10.4,4.6-10.4,10.4
		c0,2.2,0.7,4.2,1.8,5.8l8.6,10.4L875,205z"/>
</g>
<text transform="matrix(0.9993 -3.664585e-02 3.664585e-02 0.9993 695.4193 283.9317)" fill="#877C6C" font-family="'HelveticaNeue-Bold'" font-size="10">E MAIN ST</text>
<text transform="matrix(0.9847 -0.1741 0.1741 0.9847 781.4463 278.2279)" fill="#877C6C" font-family="'HelveticaNeue-Bold'" font-size="10">HWY 66</text>
<text transform="matrix(0 1 -1 0 822.1504 133.7557)" fill="#877C6C" font-family="'HelveticaNeue-Bold'" font-size="10">N YUKON PKWY</text>
</svg>
