<?xml version="1.0" encoding="utf-8"?>
<!-- Generator: Adobe Illustrator 18.0.0, SVG Export Plug-In . SVG Version: 6.00 Build 0)  -->
<!DOCTYPE svg PUBLIC "-//W3C//DTD SVG 1.1//EN" "http://www.w3.org/Graphics/SVG/1.1/DTD/svg11.dtd">
<svg version="1.1" id="Layer_1" xmlns="http://www.w3.org/2000/svg" xmlns:xlink="http://www.w3.org/1999/xlink" x="0px" y="0px"
	 viewBox="0 0 200 150" enable-background="new 0 0 200 150" xml:space="preserve">
<path id="headphones-1" fill="#010101" d="M67.7,133.6v-60c-22,0-32.7,14.8-32.7,30C35,118.9,45.9,133.6,67.7,133.6z M165.9,103.6
	c0-15.2-10.7-30-32.7-30v60C155,133.6,165.9,118.9,165.9,103.6z M100.4,29.9c-21.1,0-37.4,12.8-42.2,33.8c-4.1,0.8-8.1,2.1-11.8,3.9
	c3.4-30,23.5-53.9,54-53.9c30.5,0,50.7,23.9,54.1,54c-3.7-1.8-7.7-3.1-11.8-3.9C137.9,42.7,121.6,29.8,100.4,29.9z"/>
</svg>
