<?xml version="1.0" encoding="utf-8"?>
<!-- Generator: Adobe Illustrator 18.0.0, SVG Export Plug-In . SVG Version: 6.00 Build 0)  -->
<!DOCTYPE svg PUBLIC "-//W3C//DTD SVG 1.1//EN" "http://www.w3.org/Graphics/SVG/1.1/DTD/svg11.dtd">
<svg version="1.1" id="Layer_1" xmlns="http://www.w3.org/2000/svg" xmlns:xlink="http://www.w3.org/1999/xlink" x="0px" y="0px"
	 width="200px" height="150px" viewBox="0 0 200 150" style="enable-background:new 0 0 200 150;" xml:space="preserve">
<style type="text/css">
	.st0{display:none;fill-rule:evenodd;clip-rule:evenodd;fill:#AC1F2D;}
	.st1{display:none;}
	.st2{display:inline;fill:#FFFFFF;}
	.st3{fill-rule:evenodd;clip-rule:evenodd;fill:#010101;}
	.st4{fill:#FFFFFF;}
</style>
<path class="st0" d="M290-8.1H-28.3l-37.5,31.5c-3.2,2.7-8.1,0.4-8.1-3.8V-8.1H-90c-2.7,0-4.9-2.2-4.9-4.9v-91.1
	c0-2.7,2.2-4.9,4.9-4.9H290c2.7,0,4.9,2.2,4.9,4.9V-13C294.9-10.3,292.7-8.1,290-8.1z"/>
<g class="st1">
	<path class="st2" d="M-54.2-69.8h-10.1V-78h29.6v8.2h-10.1v25.6h-9.4V-69.8z"/>
	<path class="st2" d="M-25.2-78.2h9l14.4,34h-10l-2.4-6.1h-13.1l-2.4,6.1h-9.8L-25.2-78.2z M-17-57.5l-3.8-9.6l-3.8,9.6H-17z"/>
	<path class="st2" d="M2.5-78h9.4v25.6h16.4v8.2H2.5V-78z"/>
	<path class="st2" d="M32.3-78h9.4v13.7L53.3-78h11.1L51.6-63.5l13.2,19.3H53.6l-8.5-12.6L41.6-53v8.8h-9.4V-78z"/>
	<path class="st2" d="M75.3-78h9.4v33.8h-9.4V-78z"/>
	<path class="st2" d="M99.2-69.8H89.1V-78h29.6v8.2h-10.1v25.6h-9.4V-69.8z"/>
	<path class="st2" d="M129.2-61L129.2-61c0-9.8,7.8-17.7,18.3-17.7s18.2,7.8,18.2,17.5v0.1c0,9.7-7.8,17.6-18.3,17.6
		S129.2-51.3,129.2-61z M156-61L156-61c0-5-3.5-9.2-8.6-9.2c-5.2,0-8.6,4.2-8.6,9v0.1c0,4.9,3.5,9.1,8.7,9.1
		C152.6-51.9,156-56.1,156-61z"/>
	<path class="st2" d="M163.7-78h10.4l7.7,21.4l7.7-21.4h10.2l-13.7,34h-8.7L163.7-78z"/>
	<path class="st2" d="M203.1-78h27.2v7.9h-17.9v5.2h16.2v7.4h-16.2v5.4h18.2v8h-27.4V-78z"/>
	<path class="st2" d="M234.4-78h16c5.2,0,8.7,1.4,11,3.6c2,2,3,4.5,3,7.9v0.1c0,5.2-2.8,8.6-7,10.4l8.1,11.8h-10.8l-6.8-10.2h-4.2
		v10.2h-9.4V-78z M250-61.8c3.1,0,5-1.5,5-4v-0.1c0-2.7-2-4.1-5.1-4.1h-6.2v8.2H250z"/>
</g>
<path class="st3" d="M193.5,102.3H36l-18.6,19c-1.6,1.6-4,0.2-4-2.3v-16.7h-8c-1.3,0-2.4-1.3-2.4-3V44.4c0-1.6,1.1-3,2.4-3h188
	c1.3,0,2.4,1.3,2.4,3v54.9C195.9,101,194.8,102.3,193.5,102.3z"/>
<g>
	<path class="st4" d="M23.1,65.1h-5v-4.9h14.6v4.9h-5v15.4h-4.6V65.1z"/>
	<path class="st4" d="M37.5,60H42l7.1,20.5h-5l-1.2-3.7h-6.5l-1.2,3.7h-4.9L37.5,60z M41.6,72.5l-1.9-5.8l-1.9,5.8H41.6z"/>
	<path class="st4" d="M51.2,60.2h4.6v15.4h8.1v4.9H51.2V60.2z"/>
	<path class="st4" d="M65.9,60.2h4.6v8.3l5.8-8.3h5.5l-6.3,8.7L82,80.6h-5.5L72.3,73l-1.7,2.3v5.3h-4.6V60.2z"/>
	<path class="st4" d="M87.2,60.2h4.6v20.4h-4.6V60.2z"/>
	<path class="st4" d="M99,65.1h-5v-4.9h14.6v4.9h-5v15.4H99V65.1z"/>
	<path class="st4" d="M113.9,70.4L113.9,70.4c0-5.9,3.9-10.7,9-10.7s9,4.7,9,10.5v0.1c0,5.9-3.9,10.6-9,10.6
		C117.7,81,113.9,76.3,113.9,70.4z M127.2,70.4L127.2,70.4c0-3-1.7-5.6-4.3-5.6c-2.6,0-4.3,2.5-4.3,5.4v0.1c0,2.9,1.7,5.5,4.3,5.5
		C125.5,75.9,127.2,73.4,127.2,70.4z"/>
	<path class="st4" d="M131,60.2h5.2l3.8,12.9l3.8-12.9h5.1L142,80.7h-4.3L131,60.2z"/>
	<path class="st4" d="M150.4,60.2h13.5v4.8H155v3.1h8v4.5h-8v3.2h9v4.8h-13.6V60.2z"/>
	<path class="st4" d="M165.9,60.2h7.9c2.6,0,4.3,0.8,5.4,2.2c1,1.2,1.5,2.7,1.5,4.7v0.1c0,3.1-1.4,5.2-3.4,6.3l4,7.1H176l-3.4-6.2
		h-2.1v6.2h-4.6V60.2z M173.6,70c1.6,0,2.5-0.9,2.5-2.4v-0.1c0-1.6-1-2.4-2.5-2.4h-3.1V70H173.6z"/>
</g>
</svg>
