<?xml version="1.0" encoding="utf-8"?>
<!-- Generator: Adobe Illustrator 17.1.0, SVG Export Plug-In . SVG Version: 6.00 Build 0)  -->
<!DOCTYPE svg PUBLIC "-//W3C//DTD SVG 1.1//EN" "http://www.w3.org/Graphics/SVG/1.1/DTD/svg11.dtd">
<svg version="1.1" id="icon" xmlns="http://www.w3.org/2000/svg" xmlns:xlink="http://www.w3.org/1999/xlink" x="0px" y="0px"
	 viewBox="0 0 200 150" enable-background="new 0 0 200 150" xml:space="preserve">
<linearGradient id="SVGID_1_" gradientUnits="userSpaceOnUse" x1="296" y1="965" x2="296" y2="1115" gradientTransform="matrix(1 0 0 1 -196 -965)">
	<stop  offset="0" style="stop-color:#F79810"/>
	<stop  offset="1" style="stop-color:#F8310E"/>
</linearGradient>
<rect fill="url(#SVGID_1_)" width="200" height="150"/>
<path id="path2465" fill="#FFFFFF" d="M25.4,81.6c-0.3,0-0.6,0.2-0.6,0.6l-1.1,8.6l1.1,8.4c0,0.4,0.3,0.6,0.6,0.6
	c0.3,0,0.6-0.2,0.6-0.6l0,0v0c0,0,0,0,0,0l1.3-8.4L26,82.2C26,81.9,25.7,81.6,25.4,81.6z M31.8,77c-0.1-0.4-0.3-0.6-0.6-0.6
	c-0.3,0-0.6,0.3-0.6,0.6c0,0-1.5,13.8-1.5,13.8l1.5,13.5c0,0.4,0.3,0.6,0.6,0.6c0.3,0,0.6-0.3,0.6-0.6l1.7-13.5L31.8,77z M55.6,64.2
	c-0.6,0-1.1,0.5-1.2,1.2l-1.2,25.5l1.2,16.5c0,0.6,0.5,1.2,1.2,1.2c0.6,0,1.1-0.5,1.2-1.2v0l1.4-16.5l-1.4-25.5
	C56.8,64.7,56.2,64.2,55.6,64.2z M43.3,73c-0.5,0-0.9,0.4-0.9,0.9L41,90.8l1.4,16.3c0,0.5,0.4,0.9,0.9,0.9c0.5,0,0.9-0.4,0.9-0.9
	l1.5-16.3l-1.5-16.9C44.1,73.4,43.7,73,43.3,73z M68.2,108.4c0.8,0,1.4-0.6,1.4-1.4l1.2-16.2l-1.2-33.9c0-0.8-0.7-1.4-1.4-1.4
	c-0.8,0-1.4,0.6-1.4,1.4c0,0-1,33.9-1,33.9l1,16.2C66.8,107.8,67.4,108.4,68.2,108.4z M93.9,108.5c1.1,0,1.9-0.9,2-1.9v0v0l0.8-15.7
	l-0.8-39.2c0-1.1-0.9-1.9-2-1.9c-1.1,0-1.9,0.9-2,1.9l-0.7,39.2c0,0,0.7,15.7,0.7,15.7C92,107.6,92.8,108.5,93.9,108.5z M81,108.4
	c0.9,0,1.7-0.7,1.7-1.7v0l1-15.9l-1-34.2c0-0.9-0.8-1.7-1.7-1.7c-0.9,0-1.7,0.7-1.7,1.7l-0.9,34.2l0.9,15.9
	C79.3,107.7,80,108.4,81,108.4z M49.4,108.3c0.5,0,1-0.4,1-1l1.5-16.5l-1.5-15.7c0-0.6-0.5-1-1-1c-0.6,0-1,0.4-1,1l-1.3,15.7
	l1.3,16.5C48.4,107.8,48.9,108.3,49.4,108.3z M37.2,107.4c0.4,0,0.7-0.3,0.8-0.8l1.6-15.8l-1.6-16.4c0-0.4-0.4-0.8-0.8-0.8
	c-0.4,0-0.7,0.3-0.8,0.8c0,0-1.4,16.4-1.4,16.4l1.4,15.8C36.4,107.1,36.8,107.4,37.2,107.4z M87.4,56.1c-1,0-1.8,0.8-1.8,1.8
	l-0.8,32.9l0.8,15.8c0,1,0.8,1.8,1.8,1.8c1,0,1.8-0.8,1.8-1.8v0l0.9-15.8l-0.9-32.9C89.2,56.9,88.4,56.1,87.4,56.1z M61.9,108.5
	c0.7,0,1.3-0.6,1.3-1.3l1.3-16.4l-1.3-31.3c0-0.7-0.6-1.3-1.3-1.3c-0.7,0-1.3,0.6-1.3,1.3c0,0-1.1,31.3-1.1,31.3l1.1,16.4
	C60.6,107.9,61.2,108.5,61.9,108.5z M76.1,106.9L76.1,106.9l1.1-16.1l-1.1-35.1c0-0.9-0.7-1.6-1.6-1.6c-0.9,0-1.5,0.7-1.6,1.6
	l-1,35.1l1,16.1c0,0.9,0.7,1.5,1.6,1.5C75.4,108.4,76.1,107.8,76.1,106.9L76.1,106.9z M158.9,70.6c-2.6,0-5.1,0.5-7.3,1.5
	C150,55,135.7,41.6,118.2,41.6c-4.3,0-8.4,0.8-12.1,2.3c-1.4,0.6-1.8,1.1-1.8,2.2v60.2c0,1.2,0.9,2.1,2,2.2c0,0,52.2,0,52.6,0
	c10.5,0,19-8.5,19-19S169.3,70.6,158.9,70.6z M100.4,46c-1.1,0-2.1,0.9-2.1,2.1l-0.9,42.7l0.9,15.5c0,1.1,0.9,2.1,2.1,2.1
	c1.1,0,2.1-0.9,2.1-2.1v0l0.9-15.5l-0.9-42.7C102.4,47,101.5,46,100.4,46z"/>
</svg>
