<?xml version="1.0" encoding="utf-8"?>
<!-- Generator: Adobe Illustrator 18.0.0, SVG Export Plug-In . SVG Version: 6.00 Build 0)  -->
<!DOCTYPE svg PUBLIC "-//W3C//DTD SVG 1.1//EN" "http://www.w3.org/Graphics/SVG/1.1/DTD/svg11.dtd">
<svg version="1.1" id="Layer_1" xmlns="http://www.w3.org/2000/svg" xmlns:xlink="http://www.w3.org/1999/xlink" x="0px" y="0px"
	 viewBox="0 0 200 150" enable-background="new 0 0 200 150" xml:space="preserve">
<g>
	<g>
		<g>
			<g>
				<g>
					<path fill="#282829" d="M24.4,49.9h14.8c2.2,0,4.1,0.3,5.9,0.8c1.8,0.5,3.3,1.3,4.5,2.4c1.3,1,2.2,2.3,2.9,3.8
						c0.7,1.5,1,3.2,1,5.1v0.1c0,2-0.4,3.8-1.1,5.4c-0.7,1.5-1.8,2.8-3.1,3.9c-1.3,1.1-2.9,1.8-4.7,2.4c-1.8,0.5-3.8,0.8-5.9,0.8
						h-4.7v9.9h-9.6V49.9z M38.5,67.1c1.7,0,3.1-0.4,4-1.2c1-0.8,1.5-1.9,1.5-3.3v-0.1c0-1.5-0.5-2.6-1.5-3.4
						c-1-0.8-2.3-1.2-4.1-1.2h-4.5v9.2H38.5z"/>
				</g>
			</g>
			<g>
				<g>
					<path fill="#282829" d="M71.8,49.8H81l14.7,34.8H85.5L83,78.4H69.6l-2.5,6.2H57.1L71.8,49.8z M80.2,71l-3.9-9.8L72.5,71H80.2z"
						/>
				</g>
			</g>
			<g>
				<g>
					<path fill="#282829" d="M120.9,85.5c-2.5,0-4.8-0.4-7-1.3s-4.1-2.1-5.7-3.7c-1.6-1.6-2.9-3.5-3.8-5.7c-0.9-2.2-1.4-4.6-1.4-7.1
						v-0.1c0-2.5,0.5-4.8,1.4-7c0.9-2.2,2.2-4.1,3.8-5.7c1.6-1.6,3.5-2.9,5.8-3.8c2.2-0.9,4.6-1.4,7.3-1.4c1.8,0,3.4,0.2,4.8,0.5
						c1.4,0.3,2.8,0.8,4,1.5c1.2,0.6,2.3,1.4,3.3,2.3c1,0.9,1.8,1.9,2.6,2.9l-7.2,5.6c-1-1.3-2.1-2.2-3.3-3
						c-1.2-0.7-2.6-1.1-4.3-1.1c-1.2,0-2.3,0.2-3.3,0.7c-1,0.5-1.9,1.1-2.6,1.9c-0.7,0.8-1.3,1.8-1.7,2.9c-0.4,1.1-0.6,2.3-0.6,3.6
						v0.1c0,1.3,0.2,2.5,0.6,3.6c0.4,1.1,1,2.1,1.7,2.9c0.7,0.8,1.6,1.5,2.6,2c1,0.5,2.1,0.7,3.3,0.7c0.9,0,1.7-0.1,2.4-0.3
						c0.7-0.2,1.4-0.5,2-0.9c0.6-0.4,1.2-0.8,1.7-1.3c0.5-0.5,1.1-1.1,1.6-1.7l7.2,5.1c-0.8,1.1-1.7,2.2-2.7,3.1
						c-1,1-2.1,1.8-3.3,2.5c-1.2,0.7-2.6,1.2-4.1,1.6C124.5,85.3,122.8,85.5,120.9,85.5z"/>
				</g>
			</g>
			<g>
				<g>
					<g>
						<path fill="#282829" d="M148,50.3h27.7v8.1h-18.3v5.2H174v7.6h-16.6v5.5H176v8.1h-28V50.3z"/>
					</g>
				</g>
			</g>
		</g>
		<path fill="#282829" d="M186.1,38.8v57H46.3l-18.4,15v-15H13.4v-57H186.1 M194.5,30.3H4.9v73.9h14.6v24.3l29.8-24.3h145.2V30.3
			L194.5,30.3z"/>
	</g>
</g>
</svg>
