<?xml version="1.0" encoding="utf-8"?>
<!-- Generator: Adobe Illustrator 18.0.0, SVG Export Plug-In . SVG Version: 6.00 Build 0)  -->
<!DOCTYPE svg PUBLIC "-//W3C//DTD SVG 1.1//EN" "http://www.w3.org/Graphics/SVG/1.1/DTD/svg11.dtd">
<svg version="1.1" id="Layer_1" xmlns="http://www.w3.org/2000/svg" xmlns:xlink="http://www.w3.org/1999/xlink" x="0px" y="0px"
	 width="200px" height="150px" viewBox="0 0 200 150" enable-background="new 0 0 200 150" xml:space="preserve">
<g>
	<g>
		<path fill="#AB1D22" d="M100,64.3c-1,1.5-5.9,8.6-9.6,14.3l22.6-3.2l1.7-0.3c4-0.6,5.6-4.3,6-5.2c4.8-10.1,9.4-10.7,18.2-12.4
			c18.9-3.7,27.5-18.4,27.5-18.8c-10.5,1.6-26.1,4.2-26.1,4.2C111.6,48.3,105.2,56.5,100,64.3z"/>
		<path fill="#AB1D22" d="M107.2,96.5c0,0,25-2.8,34.1-5.8c15.6-5.2,20.8-16.6,20.8-16.6c0,0-23.9,2.7-34.2,7.1
			C125.6,82.1,118.8,83.8,107.2,96.5z"/>
		<path fill="#AB1D22" d="M92.8,98.4c14.9-6.8,18.8-15.8,18.8-15.8s-3.9,0.4-9.1,1.3l-18.8,2.6c-1.9,2.3-5.1,6.2-5.8,6.9
			c-2.5,2.5-3.7,2.6-9.6,3.3c-1.5,0-2.1-0.9-1-2.6l6.2-9.2c0.6-1.1,1.4-2.2,1.8-2.8l20.7-30.7c-20.4,3.8-33.4,12.6-38.7,21
			l-22.7,35.2h0l53.9-7.6C90,99.5,91.5,99,92.8,98.4z"/>
	</g>
</g>
</svg>
