<?xml version="1.0" encoding="utf-8"?>
<!-- Generator: Adobe Illustrator 18.0.0, SVG Export Plug-In . SVG Version: 6.00 Build 0)  -->
<!DOCTYPE svg PUBLIC "-//W3C//DTD SVG 1.1//EN" "http://www.w3.org/Graphics/SVG/1.1/DTD/svg11.dtd">
<svg version="1.1" id="Layer_1" xmlns="http://www.w3.org/2000/svg" xmlns:xlink="http://www.w3.org/1999/xlink" x="0px" y="0px"
	 width="200px" height="150px" viewBox="0 0 200 150" enable-background="new 0 0 200 150" xml:space="preserve">
<g display="none">
	<g display="inline">
		<polygon fill="#8AC3EA" points="185,92.9 176.2,81.4 183.1,73 198.6,92.9 		"/>
		<polygon fill="#8AC3EA" points="185,50 176.2,61.5 183.1,69.9 198.6,50 		"/>
		<polygon fill="#00A7E1" points="163.8,49.7 181.6,71.5 164.1,92.9 150.2,92.9 167.7,71.5 149.9,49.7 		"/>
	</g>
	<g display="inline">
		<path fill="#58595B" d="M1.9,92.9V49.7h18.5c5.6,0,9.7,0.9,12.3,2.6c2.6,1.7,3.9,4.4,3.9,8.1c0,3.1-0.9,5.5-2.6,7.3
			c-1.7,1.7-4.2,2.7-7.4,2.9c4,0.4,7,1.4,8.8,3c1.8,1.6,2.7,4.1,2.7,7.5c0,2.3-0.6,4.4-1.7,6.2c-1.1,1.8-2.7,3.1-4.6,4
			c-1.4,0.6-3,1-4.7,1.3c-1.7,0.3-4.4,0.4-8.1,0.4H1.9z M12.1,74.5v10.6h6.4c3.7,0,6.1-0.4,7.4-1.2c1.3-0.8,1.9-2.2,1.9-4.1
			c0-2-0.6-3.4-1.9-4.2c-1.2-0.8-3.7-1.2-7.4-1.2H12.1z M12.4,57.5v9.2h5.8c3.3,0,5.5-0.3,6.7-1c1.2-0.7,1.7-1.9,1.7-3.6
			c0-1.7-0.6-2.9-1.7-3.6c-1.1-0.7-3.4-1-6.7-1H12.4z"/>
		<path fill="#58595B" d="M51.2,92.9H41V49.7h10.2V92.9z"/>
		<path fill="#58595B" d="M55,92.9V49.7h18.5c5.6,0,9.7,0.9,12.3,2.6c2.6,1.7,3.9,4.4,3.9,8.1c0,3.1-0.9,5.5-2.6,7.3
			c-1.7,1.7-4.2,2.7-7.4,2.9c4,0.4,7,1.4,8.8,3c1.8,1.6,2.7,4.1,2.7,7.5c0,2.3-0.6,4.4-1.7,6.2c-1.1,1.8-2.7,3.1-4.6,4
			c-1.4,0.6-3,1-4.7,1.3c-1.7,0.3-4.4,0.4-8.1,0.4H55z M65.3,74.5v10.6h6.4c3.7,0,6.1-0.4,7.4-1.2c1.3-0.8,1.9-2.2,1.9-4.1
			c0-2-0.6-3.4-1.9-4.2c-1.2-0.8-3.7-1.2-7.4-1.2H65.3z M65.5,57.5v9.2h5.8c3.3,0,5.5-0.3,6.7-1c1.2-0.7,1.7-1.9,1.7-3.6
			c0-1.7-0.6-2.9-1.7-3.6c-1.1-0.7-3.4-1-6.7-1H65.5z"/>
		<path fill="#58595B" d="M93.6,92.9V49.7h10.2v34.4h16.5v8.8H93.6z"/>
		<polygon fill="#58595B" points="146.3,49.7 122.5,49.7 122.5,92.9 146.3,92.9 153.1,84.5 132.7,84.5 132.7,75.3 149.3,75.3 
			149.3,67.3 132.7,67.3 132.7,58.1 153.1,58.1 		"/>
	</g>
</g>
<linearGradient id="SVGID_1_" gradientUnits="userSpaceOnUse" x1="100.6107" y1="134" x2="100.6107" y2="27.2747" gradientTransform="matrix(1 0 0 -1 0 152)">
	<stop  offset="0" style="stop-color:#F7991D"/>
	<stop  offset="1" style="stop-color:#EF3924"/>
</linearGradient>
<path fill="url(#SVGID_1_)" d="M9.1,66.6c-0.4,0-0.7,0.3-0.8,0.7L7,77.8L8.4,88c0.1,0.4,0.4,0.7,0.8,0.7c0.4,0,0.7-0.3,0.7-0.7l0,0
	v0c0,0,0,0,0,0l1.6-10.2L9.9,67.4C9.8,66.9,9.5,66.6,9.1,66.6z M16.8,60.9c-0.1-0.4-0.4-0.8-0.8-0.8c-0.4,0-0.7,0.3-0.8,0.8
	c0,0-1.8,16.8-1.8,16.8l1.8,16.4c0.1,0.4,0.4,0.8,0.8,0.8c0.4,0,0.7-0.3,0.8-0.8l2.1-16.4L16.8,60.9z M45.8,45.4
	c-0.8,0-1.4,0.6-1.4,1.4l-1.5,30.9l1.5,20c0,0.8,0.7,1.4,1.4,1.4c0.8,0,1.4-0.6,1.4-1.4v0l1.7-20l-1.7-30.9
	C47.2,46.1,46.6,45.4,45.8,45.4z M30.8,56.2c-0.6,0-1.1,0.5-1.1,1.1l-1.7,20.5l1.7,19.8c0,0.6,0.5,1.1,1.1,1.1c0.6,0,1-0.5,1.1-1.1
	l1.9-19.8l-1.9-20.5C31.9,56.7,31.4,56.2,30.8,56.2z M61.1,99.2c0.9,0,1.7-0.8,1.7-1.7l1.4-19.7l-1.4-41.2c0-1-0.8-1.7-1.7-1.7
	c-0.9,0-1.7,0.8-1.7,1.7c0,0-1.3,41.2-1.3,41.2l1.3,19.7C59.4,98.4,60.1,99.2,61.1,99.2z M92.3,99.3c1.3,0,2.4-1.1,2.4-2.4v0v0
	l1-19.1l-1-47.6c0-1.3-1.1-2.4-2.4-2.4c-1.3,0-2.4,1.1-2.4,2.4L89,77.8c0,0,0.9,19.1,0.9,19.1C89.9,98.2,91,99.3,92.3,99.3z
	 M76.6,99.2c1.1,0,2-0.9,2.1-2v0l1.2-19.4l-1.2-41.5c0-1.1-0.9-2-2.1-2c-1.1,0-2,0.9-2.1,2l-1.1,41.5l1.1,19.4
	C74.5,98.3,75.4,99.2,76.6,99.2z M38.3,99c0.7,0,1.2-0.5,1.3-1.2l1.8-20l-1.8-19c0-0.7-0.6-1.2-1.3-1.2c-0.7,0-1.2,0.5-1.3,1.2
	l-1.6,19l1.6,20C37.1,98.5,37.6,99,38.3,99z M23.4,97.9c0.5,0,0.9-0.4,0.9-0.9l2-19.2l-2-19.9c-0.1-0.5-0.5-0.9-0.9-0.9
	c-0.5,0-0.9,0.4-0.9,0.9c0,0-1.7,19.9-1.7,19.9L22.5,97C22.5,97.5,22.9,97.9,23.4,97.9z M84.4,35.6c-1.2,0-2.2,1-2.2,2.2l-1,40
	l1,19.2c0,1.2,1,2.2,2.2,2.2c1.2,0,2.2-1,2.2-2.2v0l1.1-19.2l-1.1-40C86.6,36.6,85.6,35.6,84.4,35.6z M53.4,99.2
	c0.8,0,1.5-0.7,1.6-1.6l1.5-19.9l-1.5-38c0-0.9-0.7-1.6-1.6-1.6c-0.8,0-1.5,0.7-1.6,1.6c0,0-1.4,38-1.4,38l1.4,19.9
	C51.9,98.5,52.6,99.2,53.4,99.2z M70.7,97.3L70.7,97.3L72,77.8l-1.3-42.6c0-1.1-0.9-1.9-1.9-1.9c-1,0-1.9,0.8-1.9,1.9l-1.2,42.6
	l1.2,19.5c0,1,0.9,1.9,1.9,1.9C69.8,99.2,70.7,98.4,70.7,97.3L70.7,97.3z M171.2,53.2c-3.2,0-6.2,0.6-8.9,1.8
	c-1.8-20.8-19.2-37-40.5-37c-5.2,0-10.3,1-14.7,2.8c-1.7,0.7-2.2,1.4-2.2,2.7v73.1c0,1.4,1.1,2.6,2.5,2.7c0.1,0,63.4,0,63.8,0
	c12.7,0,23-10.3,23-23S183.9,53.2,171.2,53.2z M100.2,23.4c-1.4,0-2.5,1.1-2.5,2.5l-1,51.9l1,18.8c0,1.4,1.2,2.5,2.5,2.5
	c1.4,0,2.5-1.1,2.5-2.5v0l1.1-18.8l-1.1-51.9C102.7,24.5,101.5,23.4,100.2,23.4z M25.6,113.9c-2.7-0.6-3.5-1-3.5-2.1
	c0-0.8,0.6-1.5,2.5-1.5c1.6,0,2.8,0.6,3.9,1.8l2.5-2.4c-1.6-1.7-3.6-2.7-6.3-2.7c-3.4,0-6.1,1.9-6.1,5c0,3.4,2.2,4.4,5.4,5.1
	c3.2,0.7,3.8,1.2,3.8,2.3c0,1.3-1,1.9-3,1.9c-1.6,0-3.2-0.6-4.4-2l-2.5,2.2c1.3,1.9,3.8,3.1,6.7,3.1c4.7,0,6.8-2.2,6.8-5.5
	C31.3,115.5,28.3,114.6,25.6,113.9z M41.4,107c-4.7,0-7.5,3.6-7.5,8.9s2.8,8.9,7.5,8.9s7.5-3.6,7.5-8.9S46.1,107,41.4,107z
	 M41.4,121.3c-2.8,0-3.9-2.4-3.9-5.4c0-3.1,1.2-5.5,3.9-5.5c2.8,0,3.9,2.4,3.9,5.5C45.3,118.9,44.2,121.3,41.4,121.3z M62.7,116.9
	c0,2.7-1.4,4.4-3.5,4.4c-2.2,0-3.5-1.7-3.5-4.5v-9.6h-3.4v9.7c0,5,2.8,7.8,6.9,7.8c4.4,0,7-2.9,7-7.9v-9.6h-3.4
	C62.7,107.3,62.7,116.9,62.7,116.9z M81,114.5c0,1,0,3.1,0,3.8c-0.2-0.4-0.8-1.3-1.2-1.9l-6.1-9.1h-3.3v17.2h3.4v-7.6
	c0-1,0-3.1,0-3.8c0.2,0.4,0.8,1.3,1.2,1.9l6.3,9.4h3.1v-17.2H81C81,107.3,81,114.5,81,114.5z M94.2,107.3h-5.4v17.2h5.1
	c4.4,0,8.8-2.6,8.8-8.6C102.7,109.6,99.1,107.3,94.2,107.3z M93.9,121.1h-1.7v-10.5h1.8c3.6,0,5.1,1.7,5.1,5.3
	C99.2,119,97.6,121.1,93.9,121.1z M113.4,110.4c1.5,0,2.5,0.7,3.1,1.9l3.2-1.5c-1.1-2.2-3-3.8-6.3-3.8c-4.5,0-7.6,3.6-7.6,8.9
	c0,5.4,3,8.9,7.5,8.9c3.1,0,5.2-1.4,6.4-3.9l-2.9-1.7c-0.9,1.5-1.8,2.2-3.4,2.2c-2.6,0-4.1-2.4-4.1-5.4
	C109.3,112.7,110.8,110.4,113.4,110.4z M126.1,107.3h-3.4v17.2H133v-3.4h-6.9V107.3z M142.1,107c-4.7,0-7.5,3.6-7.5,8.9
	s2.8,8.9,7.5,8.9c4.7,0,7.5-3.6,7.5-8.9S146.7,107,142.1,107z M142.1,121.3c-2.8,0-3.9-2.4-3.9-5.4c0-3.1,1.2-5.5,3.9-5.5
	c2.8,0,3.9,2.4,3.9,5.5C146,118.9,144.8,121.3,142.1,121.3z M163.4,116.9c0,2.7-1.3,4.4-3.5,4.4c-2.2,0-3.5-1.7-3.5-4.5v-9.6h-3.4
	v9.7c0,5,2.8,7.8,6.9,7.8c4.4,0,7-2.9,7-7.9v-9.6h-3.4V116.9z M176.5,107.3h-5.4v17.2h5.1c4.4,0,8.8-2.6,8.8-8.6
	C185,109.6,181.4,107.3,176.5,107.3z M176.2,121.1h-1.7v-10.5h1.8c3.6,0,5.1,1.7,5.1,5.3C181.5,119,179.9,121.1,176.2,121.1z"/>
</svg>
