<?xml version="1.0" encoding="utf-8"?>
<!-- Generator: Adobe Illustrator 18.0.0, SVG Export Plug-In . SVG Version: 6.00 Build 0)  -->
<!DOCTYPE svg PUBLIC "-//W3C//DTD SVG 1.1//EN" "http://www.w3.org/Graphics/SVG/1.1/DTD/svg11.dtd">
<svg version="1.1" id="Layer_1" xmlns="http://www.w3.org/2000/svg" xmlns:xlink="http://www.w3.org/1999/xlink" x="0px" y="0px"
	 width="200px" height="150px" viewBox="0 0 200 150" enable-background="new 0 0 200 150" xml:space="preserve">
<g>
	<g>
		<path fill="#AB1D22" d="M100.2,63.2c-1.3,1.9-7.3,10.6-11.8,17.6l27.8-3.9l2.1-0.3c4.9-0.8,6.9-5.4,7.4-6.4
			c5.9-12.4,11.6-13.1,22.4-15.3c23.3-4.6,33.9-22.6,33.9-23.1c-13,2-32.2,5.2-32.2,5.2C114.5,43.5,106.6,53.6,100.2,63.2z"/>
		<path fill="#AB1D22" d="M109.1,102.9c0,0,30.8-3.5,42-7.2c19.2-6.3,25.6-20.5,25.6-20.5c0,0-29.5,3.3-42.1,8.8
			C131.8,85.2,123.4,87.3,109.1,102.9z"/>
		<path fill="#AB1D22" d="M91.4,105.3c18.4-8.4,23.1-19.4,23.1-19.4s-4.8,0.5-11.2,1.6l-23.1,3.2c-2.3,2.8-6.3,7.6-7.1,8.5
			c-3,3-4.6,3.1-11.9,4c-1.8,0-2.6-1.2-1.3-3.2l7.6-11.4c0.7-1.4,1.7-2.7,2.2-3.4l25.5-37.8C70,52,54,62.9,47.4,73.2l-28,43.3h0
			l66.4-9.3C87.9,106.6,89.8,106,91.4,105.3z"/>
	</g>
</g>
</svg>
