<?xml version="1.0" encoding="utf-8"?>
<!-- Generator: Adobe Illustrator 18.0.0, SVG Export Plug-In . SVG Version: 6.00 Build 0)  -->
<!DOCTYPE svg PUBLIC "-//W3C//DTD SVG 1.1//EN" "http://www.w3.org/Graphics/SVG/1.1/DTD/svg11.dtd">
<svg version="1.1" id="Layer_1" xmlns="http://www.w3.org/2000/svg" xmlns:xlink="http://www.w3.org/1999/xlink" x="0px" y="0px"
	 width="200px" height="150px" viewBox="0 0 200 150" style="enable-background:new 0 0 200 150;" xml:space="preserve">
<style type="text/css">
	.st0{fill:#424143;}
	.st1{fill:#FFFFFF;}
</style>
<rect x="-15.2" y="-8.5" class="st0" width="506" height="505.3"/>
<g>
	<path class="st1" d="M189.6,81.3H9.9V52.6h179.6V81.3z M10.9,80.3h177.7V53.5H10.9V80.3z"/>
</g>
<g>
	<path class="st1" d="M17.7,64.5L17.7,64.5c0-3.6,2.7-6.3,6.4-6.3c2.5,0,4.1,1,5.1,2.5l-2.5,2c-0.7-0.8-1.5-1.4-2.7-1.4
		c-1.7,0-2.9,1.5-2.9,3.2v0c0,1.8,1.2,3.2,2.9,3.2c1.3,0,2-0.6,2.7-1.5l2.5,1.8c-1.1,1.6-2.7,2.7-5.4,2.7
		C20.5,70.8,17.7,68.2,17.7,64.5z"/>
	<path class="st1" d="M30.2,58.4h5.7c1.9,0,3.1,0.5,3.9,1.3c0.7,0.7,1.1,1.6,1.1,2.8v0c0,1.9-1,3.1-2.5,3.7l2.9,4.2h-3.9L35,66.9
		h-1.5v3.7h-3.4V58.4z M35.8,64.3c1.1,0,1.8-0.6,1.8-1.4v0c0-1-0.7-1.5-1.8-1.5h-2.2v2.9H35.8z"/>
	<path class="st1" d="M46,58.4h3.2l5.2,12.2h-3.6l-0.9-2.2h-4.7l-0.9,2.2h-3.5L46,58.4z M48.9,65.8l-1.4-3.4l-1.4,3.4H48.9z"/>
	<path class="st1" d="M55.1,58.4h3.4v12.1h-3.4V58.4z"/>
	<path class="st1" d="M59.6,64.5L59.6,64.5c0-3.6,2.8-6.3,6.5-6.3c2.1,0,3.6,0.6,4.9,1.7l-2,2.4c-0.9-0.7-1.7-1.1-2.9-1.1
		c-1.7,0-3.1,1.5-3.1,3.3v0c0,2,1.4,3.4,3.3,3.4c0.8,0,1.5-0.2,1.9-0.5v-1.5h-2.4v-2.5h5.6v5.4c-1.3,1.1-3,1.9-5.3,1.9
		C62.4,70.8,59.6,68.2,59.6,64.5z"/>
	<path class="st1" d="M76.5,64.5L76.5,64.5c0-3.6,2.8-6.3,6.5-6.3c2.1,0,3.6,0.6,4.9,1.7l-2,2.4c-0.9-0.7-1.7-1.1-2.9-1.1
		c-1.7,0-3.1,1.5-3.1,3.3v0c0,2,1.4,3.4,3.3,3.4c0.8,0,1.5-0.2,1.9-0.5v-1.5h-2.4v-2.5h5.6v5.4c-1.3,1.1-3,1.9-5.3,1.9
		C79.3,70.8,76.5,68.2,76.5,64.5z"/>
	<path class="st1" d="M89.6,58.4h5.7c1.9,0,3.1,0.5,3.9,1.3c0.7,0.7,1.1,1.6,1.1,2.8v0c0,1.9-1,3.1-2.5,3.7l2.9,4.2h-3.9l-2.4-3.7
		H93v3.7h-3.4V58.4z M95.2,64.3c1.1,0,1.8-0.6,1.8-1.4v0c0-1-0.7-1.5-1.8-1.5H93v2.9H95.2z"/>
	<path class="st1" d="M101.1,64.5L101.1,64.5c0-3.5,2.8-6.3,6.5-6.3s6.5,2.8,6.5,6.3v0c0,3.5-2.8,6.3-6.5,6.3
		C103.9,70.8,101.1,68,101.1,64.5z M110.7,64.5L110.7,64.5c0-1.8-1.2-3.3-3.1-3.3c-1.9,0-3.1,1.5-3.1,3.2v0c0,1.7,1.3,3.3,3.1,3.3
		C109.5,67.8,110.7,66.3,110.7,64.5z"/>
	<path class="st1" d="M115.3,58.4h9.8v2.8h-6.4v1.9h5.8v2.7h-5.8v1.9h6.5v2.9h-9.8V58.4z"/>
	<path class="st1" d="M125.3,68.8l1.9-2.2c1.2,1,2.5,1.5,3.9,1.5c0.9,0,1.4-0.3,1.4-0.8v0c0-0.5-0.4-0.8-2.1-1.2
		c-2.6-0.6-4.6-1.3-4.6-3.8v0c0-2.3,1.8-3.9,4.7-3.9c2.1,0,3.7,0.6,5,1.6l-1.7,2.4c-1.1-0.8-2.3-1.2-3.4-1.2c-0.8,0-1.2,0.3-1.2,0.8
		v0c0,0.6,0.4,0.8,2.1,1.2c2.8,0.6,4.5,1.5,4.5,3.8v0c0,2.5-2,3.9-4.9,3.9C128.9,70.8,126.8,70.1,125.3,68.8z"/>
	<path class="st1" d="M136.5,64.5L136.5,64.5c0-3.6,2.7-6.3,6.4-6.3c2.5,0,4.1,1,5.1,2.5l-2.5,2c-0.7-0.8-1.5-1.4-2.7-1.4
		c-1.7,0-2.9,1.5-2.9,3.2v0c0,1.8,1.2,3.2,2.9,3.2c1.3,0,2-0.6,2.7-1.5l2.5,1.8c-1.1,1.6-2.7,2.7-5.4,2.7
		C139.3,70.8,136.5,68.2,136.5,64.5z"/>
	<path class="st1" d="M149,58.4h3.4V63h4.3v-4.5h3.4v12.1h-3.4V66h-4.3v4.6H149V58.4z"/>
	<path class="st1" d="M161.6,58.4h9.8v2.8h-6.4v1.9h5.8v2.7h-5.8v1.9h6.5v2.9h-9.8V58.4z"/>
	<path class="st1" d="M172.5,58.4h3.4v9.2h5.9v2.9h-9.2V58.4z"/>
</g>
<g>
	<rect x="35.7" y="75.2" class="st1" width="128" height="10.1"/>
</g>
<g>
	<path class="st0" d="M40.9,77.6h0.6v4.5h2.8v0.5h-3.4V77.6z"/>
	<path class="st0" d="M47.3,77.6h3.6v0.5h-3.1v1.7h2.7v0.5h-2.7v1.8h3.1v0.5h-3.7V77.6z"/>
	<path class="st0" d="M55.8,77.6h0.5l2.3,5.1h-0.6l-0.6-1.3h-2.7l-0.6,1.3h-0.6L55.8,77.6z M57.3,80.8l-1.1-2.6L55,80.8H57.3z"/>
	<path class="st0" d="M61.6,77.6h1.7c1.6,0,2.7,1.1,2.7,2.5v0c0,1.4-1.1,2.5-2.7,2.5h-1.7V77.6z M62.1,78.1v4h1.2
		c1.3,0,2.1-0.9,2.1-2v0c0-1.1-0.8-2-2.1-2H62.1z"/>
	<path class="st0" d="M69.1,77.6h3.6v0.5h-3.1v1.7h2.7v0.5h-2.7v1.8h3.1v0.5h-3.7V77.6z"/>
	<path class="st0" d="M75.8,77.6H78c0.6,0,1.1,0.2,1.4,0.5c0.2,0.2,0.4,0.6,0.4,1v0c0,0.8-0.6,1.3-1.4,1.5l1.5,2.1h-0.7l-1.5-2h-1.4
		v2h-0.6V77.6z M78,80.2c0.8,0,1.3-0.4,1.3-1v0c0-0.6-0.5-1-1.3-1h-1.6v2H78z"/>
	<path class="st0" d="M82.6,81.9l0.4-0.4c0.5,0.5,1,0.7,1.7,0.7c0.7,0,1.1-0.4,1.1-0.9v0c0-0.5-0.3-0.7-1.3-1
		c-1.2-0.3-1.7-0.6-1.7-1.5v0c0-0.8,0.7-1.4,1.7-1.4c0.7,0,1.3,0.2,1.8,0.6l-0.3,0.4C85.4,78.2,85,78,84.5,78
		c-0.7,0-1.1,0.4-1.1,0.8v0c0,0.5,0.3,0.7,1.4,1c1.1,0.2,1.6,0.7,1.6,1.4v0c0,0.9-0.7,1.4-1.7,1.4C83.9,82.7,83.2,82.4,82.6,81.9z"
		/>
	<path class="st0" d="M89.5,77.6H90v2.2h2.9v-2.2h0.6v5h-0.6v-2.3H90v2.3h-0.6V77.6z"/>
	<path class="st0" d="M96.9,77.6h0.6v5h-0.6V77.6z"/>
	<path class="st0" d="M100.8,77.6h1.9c1.1,0,1.9,0.6,1.9,1.6v0c0,1.1-0.9,1.6-2,1.6h-1.2v1.8h-0.6V77.6z M102.7,80.3
		c0.8,0,1.4-0.4,1.4-1.1v0c0-0.7-0.5-1.1-1.4-1.1h-1.3v2.2H102.7z"/>
	<path class="st0" d="M111.6,77.6h1.9c1.1,0,1.9,0.6,1.9,1.6v0c0,1.1-0.9,1.6-2,1.6h-1.2v1.8h-0.6V77.6z M113.4,80.3
		c0.8,0,1.4-0.4,1.4-1.1v0c0-0.7-0.5-1.1-1.4-1.1h-1.3v2.2H113.4z"/>
	<path class="st0" d="M118.1,80.1L118.1,80.1c0-1.4,1-2.6,2.6-2.6c1.5,0,2.6,1.2,2.6,2.6v0c0,1.4-1,2.6-2.6,2.6
		C119.1,82.7,118.1,81.5,118.1,80.1z M122.7,80.1L122.7,80.1c0-1.2-0.8-2.1-2-2.1c-1.2,0-2,0.9-2,2.1v0c0,1.1,0.8,2.1,2,2.1
		C121.8,82.2,122.7,81.3,122.7,80.1z"/>
	<path class="st0" d="M126.4,77.6h1.7c1.6,0,2.7,1.1,2.7,2.5v0c0,1.4-1.1,2.5-2.7,2.5h-1.7V77.6z M126.9,78.1v4h1.2
		c1.3,0,2.1-0.9,2.1-2v0c0-1.1-0.8-2-2.1-2H126.9z"/>
	<path class="st0" d="M133.7,80.1L133.7,80.1c0-1.4,1.1-2.6,2.5-2.6c0.9,0,1.5,0.3,2,0.8l-0.4,0.4c-0.4-0.4-0.9-0.7-1.6-0.7
		c-1.1,0-2,0.9-2,2.1v0c0,1.2,0.8,2.1,2,2.1c0.7,0,1.1-0.3,1.6-0.7l0.4,0.4c-0.5,0.5-1.1,0.9-2,0.9
		C134.7,82.7,133.7,81.6,133.7,80.1z"/>
	<path class="st0" d="M143,77.6h0.5l2.3,5.1h-0.6l-0.6-1.3h-2.7l-0.6,1.3h-0.6L143,77.6z M144.4,80.8l-1.1-2.6l-1.2,2.6H144.4z"/>
	<path class="st0" d="M148.3,81.9l0.4-0.4c0.5,0.5,1,0.7,1.7,0.7c0.7,0,1.1-0.4,1.1-0.9v0c0-0.5-0.3-0.7-1.3-1
		c-1.2-0.3-1.7-0.6-1.7-1.5v0c0-0.8,0.7-1.4,1.7-1.4c0.7,0,1.3,0.2,1.8,0.6l-0.3,0.4c-0.5-0.4-0.9-0.5-1.5-0.5
		c-0.7,0-1.1,0.4-1.1,0.8v0c0,0.5,0.3,0.7,1.4,1c1.1,0.2,1.6,0.7,1.6,1.4v0c0,0.9-0.7,1.4-1.7,1.4C149.5,82.7,148.9,82.4,148.3,81.9
		z"/>
	<path class="st0" d="M156.3,78.1h-1.7v-0.5h4v0.5h-1.7v4.5h-0.6V78.1z"/>
</g>
</svg>
