<?xml version="1.0" encoding="utf-8"?>
<!-- Generator: Adobe Illustrator 18.0.0, SVG Export Plug-In . SVG Version: 6.00 Build 0)  -->
<!DOCTYPE svg PUBLIC "-//W3C//DTD SVG 1.1//EN" "http://www.w3.org/Graphics/SVG/1.1/DTD/svg11.dtd">
<svg version="1.1" id="Layer_1" xmlns="http://www.w3.org/2000/svg" xmlns:xlink="http://www.w3.org/1999/xlink" x="0px" y="0px"
	 width="200px" height="150px" viewBox="0 0 200 150" enable-background="new 0 0 200 150" xml:space="preserve">
<g>
	<g>
		<polygon fill="#8AC3EA" points="185,92.9 176.2,81.4 183.1,73 198.6,92.9 		"/>
		<polygon fill="#8AC3EA" points="185,50 176.2,61.5 183.1,69.9 198.6,50 		"/>
		<polygon fill="#00A7E1" points="163.8,49.7 181.6,71.5 164.1,92.9 150.2,92.9 167.7,71.5 149.9,49.7 		"/>
	</g>
	<g>
		<path fill="#58595B" d="M1.9,92.9V49.7h18.5c5.6,0,9.7,0.9,12.3,2.6c2.6,1.7,3.9,4.4,3.9,8.1c0,3.1-0.9,5.5-2.6,7.3
			c-1.7,1.7-4.2,2.7-7.4,2.9c4,0.4,7,1.4,8.8,3c1.8,1.6,2.7,4.1,2.7,7.5c0,2.3-0.6,4.4-1.7,6.2c-1.1,1.8-2.7,3.1-4.6,4
			c-1.4,0.6-3,1-4.7,1.3c-1.7,0.3-4.4,0.4-8.1,0.4H1.9z M12.1,74.5v10.6h6.4c3.7,0,6.1-0.4,7.4-1.2c1.3-0.8,1.9-2.2,1.9-4.1
			c0-2-0.6-3.4-1.9-4.2c-1.2-0.8-3.7-1.2-7.4-1.2H12.1z M12.4,57.5v9.2h5.8c3.3,0,5.5-0.3,6.7-1c1.2-0.7,1.7-1.9,1.7-3.6
			c0-1.7-0.6-2.9-1.7-3.6c-1.1-0.7-3.4-1-6.7-1H12.4z"/>
		<path fill="#58595B" d="M51.2,92.9H41V49.7h10.2V92.9z"/>
		<path fill="#58595B" d="M55,92.9V49.7h18.5c5.6,0,9.7,0.9,12.3,2.6c2.6,1.7,3.9,4.4,3.9,8.1c0,3.1-0.9,5.5-2.6,7.3
			c-1.7,1.7-4.2,2.7-7.4,2.9c4,0.4,7,1.4,8.8,3c1.8,1.6,2.7,4.1,2.7,7.5c0,2.3-0.6,4.4-1.7,6.2c-1.1,1.8-2.7,3.1-4.6,4
			c-1.4,0.6-3,1-4.7,1.3c-1.7,0.3-4.4,0.4-8.1,0.4H55z M65.3,74.5v10.6h6.4c3.7,0,6.1-0.4,7.4-1.2c1.3-0.8,1.9-2.2,1.9-4.1
			c0-2-0.6-3.4-1.9-4.2c-1.2-0.8-3.7-1.2-7.4-1.2H65.3z M65.5,57.5v9.2h5.8c3.3,0,5.5-0.3,6.7-1c1.2-0.7,1.7-1.9,1.7-3.6
			c0-1.7-0.6-2.9-1.7-3.6c-1.1-0.7-3.4-1-6.7-1H65.5z"/>
		<path fill="#58595B" d="M93.6,92.9V49.7h10.2v34.4h16.5v8.8H93.6z"/>
		<polygon fill="#58595B" points="146.3,49.7 122.5,49.7 122.5,92.9 146.3,92.9 153.1,84.5 132.7,84.5 132.7,75.3 149.3,75.3 
			149.3,67.3 132.7,67.3 132.7,58.1 153.1,58.1 		"/>
	</g>
</g>
</svg>
