<?xml version="1.0" encoding="utf-8"?>
<!-- Generator: Adobe Illustrator 18.0.0, SVG Export Plug-In . SVG Version: 6.00 Build 0)  -->
<!DOCTYPE svg PUBLIC "-//W3C//DTD SVG 1.1//EN" "http://www.w3.org/Graphics/SVG/1.1/DTD/svg11.dtd">
<svg version="1.1" id="Layer_1" xmlns="http://www.w3.org/2000/svg" xmlns:xlink="http://www.w3.org/1999/xlink" x="0px" y="0px"
	 viewBox="0 0 200 150" enable-background="new 0 0 200 150" xml:space="preserve">
<path display="none" fill-rule="evenodd" clip-rule="evenodd" fill="#AC1F2D" d="M290-8.1H-28.3l-37.5,31.5
	c-3.2,2.7-8.1,0.4-8.1-3.8V-8.1H-90c-2.7,0-4.9-2.2-4.9-4.9v-91.1c0-2.7,2.2-4.9,4.9-4.9H290c2.7,0,4.9,2.2,4.9,4.9V-13
	C294.9-10.3,292.7-8.1,290-8.1z"/>
<path fill-rule="evenodd" clip-rule="evenodd" fill="#010101" d="M193.5,102.3H36l-18.6,19c-1.6,1.6-4,0.2-4-2.3v-16.7h-8
	c-1.3,0-2.4-1.3-2.4-3V44.4c0-1.6,1.1-3,2.4-3h188c1.3,0,2.4,1.3,2.4,3v54.9C195.9,101,194.8,102.3,193.5,102.3z"/>
<g>
	<path fill="#FFFFFF" d="M23.1,65.1h-5v-4.9h14.6v4.9h-5v15.4h-4.6V65.1z"/>
	<path fill="#FFFFFF" d="M37.5,60H42l7.1,20.5h-5l-1.2-3.7h-6.5l-1.2,3.7h-4.9L37.5,60z M41.6,72.5l-1.9-5.8l-1.9,5.8H41.6z"/>
	<path fill="#FFFFFF" d="M51.2,60.2h4.6v15.4h8.1v4.9H51.2V60.2z"/>
	<path fill="#FFFFFF" d="M65.9,60.2h4.6v8.3l5.8-8.3h5.5l-6.3,8.7L82,80.6h-5.5L72.3,73l-1.7,2.3v5.3h-4.6V60.2z"/>
	<path fill="#FFFFFF" d="M87.2,60.2h4.6v20.4h-4.6V60.2z"/>
	<path fill="#FFFFFF" d="M99,65.1h-5v-4.9h14.6v4.9h-5v15.4H99V65.1z"/>
	<path fill="#FFFFFF" d="M113.9,70.4L113.9,70.4c0-5.9,3.9-10.7,9-10.7s9,4.7,9,10.5v0.1c0,5.9-3.9,10.6-9,10.6
		C117.7,81,113.9,76.3,113.9,70.4z M127.2,70.4L127.2,70.4c0-3-1.7-5.6-4.3-5.6c-2.6,0-4.3,2.5-4.3,5.4v0.1c0,2.9,1.7,5.5,4.3,5.5
		C125.5,75.9,127.2,73.4,127.2,70.4z"/>
	<path fill="#FFFFFF" d="M131,60.2h5.2l3.8,12.9l3.8-12.9h5.1L142,80.7h-4.3L131,60.2z"/>
	<path fill="#FFFFFF" d="M150.4,60.2h13.5v4.8H155v3.1h8v4.5h-8v3.2h9v4.8h-13.6V60.2z"/>
	<path fill="#FFFFFF" d="M165.9,60.2h7.9c2.6,0,4.3,0.8,5.4,2.2c1,1.2,1.5,2.7,1.5,4.7v0.1c0,3.1-1.4,5.2-3.4,6.3l4,7.1H176
		l-3.4-6.2h-2.1v6.2h-4.6V60.2z M173.6,70c1.6,0,2.5-0.9,2.5-2.4v-0.1c0-1.6-1-2.4-2.5-2.4h-3.1V70H173.6z"/>
</g>
</svg>
