<?xml version="1.0" encoding="utf-8"?>
<!-- Generator: Adobe Illustrator 17.1.0, SVG Export Plug-In . SVG Version: 6.00 Build 0)  -->
<!DOCTYPE svg PUBLIC "-//W3C//DTD SVG 1.1//EN" "http://www.w3.org/Graphics/SVG/1.1/DTD/svg11.dtd">
<svg version="1.1" id="Layer_1" xmlns="http://www.w3.org/2000/svg" xmlns:xlink="http://www.w3.org/1999/xlink" x="0px" y="0px"
	 viewBox="514.4 274 445.6 412" enable-background="new 514.4 274 445.6 412" xml:space="preserve">
<g id="Phones">
	<g>
		<path fill="#E96658" d="M959,655c0,17.1-13.9,31-31,31H793.3c-17.1,0-31-13.9-31-31V309.1c0-17.1,13.9-31,31-31H928
			c17.1,0,31,13.9,31,31V655z"/>
		<path fill="#010005" d="M953.5,655c0,14.6-11.9,26.5-26.5,26.5H794.6c-14.6,0-26.5-11.9-26.5-26.5v-345
			c0-14.6,11.9-26.5,26.5-26.5h132.5c14.6,0,26.5,11.9,26.5,26.5v345H953.5z"/>
		<rect x="892.2" y="275.5" fill="#E96658" width="31" height="2.6"/>
		<circle fill="#232323" cx="861" cy="654.8" r="18.3"/>
		<path fill="#232323" d="M877.9,313.9c0,2.2-1.8,3.9-3.9,3.9h-28.7c-2.2,0-3.9-1.8-3.9-3.9l0,0c0-2.2,1.8-3.9,3.9-3.9H874
			C876.1,309.9,877.9,311.7,877.9,313.9L877.9,313.9z"/>
		<circle fill="#232323" cx="859.5" cy="298.9" r="3.9"/>
		<rect x="778" y="335.9" fill="#232323" width="165.3" height="291.1"/>
	</g>
	<g>
		<path fill="#E7E7E9" d="M915.8,655c0,17.1-13.9,31-31,31H750.1c-17.1,0-31-13.9-31-31V309.1c0-17.1,13.9-31,31-31h134.7
			c17.1,0,31,13.9,31,31V655z"/>
		<path fill="#010005" d="M910.4,655c0,14.6-11.9,26.5-26.5,26.5H751.5c-14.6,0-26.5-11.9-26.5-26.5v-345
			c0-14.6,11.9-26.5,26.5-26.5H884c14.6,0,26.5,11.9,26.5,26.5v345H910.4z"/>
		<rect x="849.2" y="275.5" fill="#E7E7E9" width="31" height="2.6"/>
		<circle fill="#232323" cx="817.8" cy="654.8" r="18.3"/>
		<path fill="#232323" d="M834.7,313.9c0,2.2-1.8,3.9-3.9,3.9H802c-2.2,0-3.9-1.8-3.9-3.9l0,0c0-2.2,1.8-3.9,3.9-3.9h28.7
			C832.9,309.9,834.7,311.7,834.7,313.9L834.7,313.9z"/>
		<circle fill="#232323" cx="816.3" cy="298.9" r="3.9"/>
		<rect x="734.8" y="335.9" fill="#232323" width="165.3" height="291.1"/>
	</g>
</g>
<g id="Content">
	<rect x="735.4" y="335.9" fill="#2F2F2F" width="164.6" height="31.9"/>
	<rect x="735.4" y="604.9" fill="#2F2F2F" width="164.6" height="23.5"/>
	<circle fill="#FFFFFF" cx="740" cy="341.1" r="1.3"/>
	<circle fill="#FFFFFF" cx="743.8" cy="341.1" r="1.3"/>
	<circle fill="#FFFFFF" cx="750.9" cy="341.1" r="1.3"/>
	<circle fill="#FFFFFF" cx="754.5" cy="341.1" r="1.3"/>
	<circle fill="#FFFFFF" cx="747.3" cy="341.1" r="1.3"/>
	<text transform="matrix(1 0 0 1 757.486 343.6027)" fill="#FFFFFF" font-family="'HelveticaNeue-Medium'" font-size="6.8753">L</text>
	<text transform="matrix(1 0 0 1 760.8892 343.6027)" fill="#FFFFFF" font-family="'HelveticaNeue-Medium'" font-size="6.8753">C</text>
	<text transform="matrix(1 0 0 1 765.8961 343.6027)" fill="#FFFFFF" font-family="'HelveticaNeue-Medium'" font-size="6.8753">T</text>
	<text transform="matrix(1 0 0 1 770.1012 343.6027)" fill="#FFFFFF" font-family="'HelveticaNeue-Medium'" font-size="6.8753">V</text>
	<text transform="matrix(1 0 0 1 805.9576 343.1539)" fill="#FFFFFF" font-family="'HelveticaNeue-Medium'" font-size="6.2177">9:47 AM</text>
	<g>
		<path fill="#FFFFFF" d="M896.2,343.8h-11.6v-5.1h11.6V343.8z M884.8,343.5h11.1v-4.6h-11.1V343.5L884.8,343.5z"/>
	</g>
	<rect x="885.3" y="339.5" fill="#FFFFFF" width="6.9" height="3.4"/>
	<rect x="896.6" y="340.4" fill="#FFFFFF" width="0.7" height="1.7"/>
	<text transform="matrix(1 0 0 1 790.3571 361.1881)" fill="#FFFFFF" font-family="'HelveticaNeue'" font-size="10.3527">Genesis 31</text>
	<polygon fill="#FFFFFF" points="846.3,356.5 850.8,356.5 848.5,358.9 	"/>
	<rect x="742.4" y="354.1" fill="#FFFFFF" width="8.4" height="1.2"/>
	<rect x="742.4" y="356.8" fill="#FFFFFF" width="8.4" height="1.2"/>
	<rect x="742.4" y="359.7" fill="#FFFFFF" width="8.4" height="1.2"/>
	<text transform="matrix(1 0 0 1 879.1011 359.3721)" fill="#FFFFFF" font-family="'HelveticaNeue-Medium'" font-size="6.38">NLT</text>
	<rect x="735.4" y="367.8" fill="#FFFFFF" width="164.8" height="237.1"/>
	<text transform="matrix(1 0 0 1 740.0084 383.3116)" fill="#3D3D3D" font-family="'HelveticaNeue'" font-size="9.8151">Laben’s sons were grumbling</text>
	<text transform="matrix(1 0 0 1 740.0084 397.7301)" fill="#3D3D3D" font-family="'HelveticaNeue'" font-size="9.8151">about him. “Jacob has robbed our</text>
	<text transform="matrix(1 0 0 1 740.0084 412.148)" fill="#3D3D3D" font-family="'HelveticaNeue'" font-size="9.8151">father of everything!” they said.</text>
	<text transform="matrix(1 0 0 1 740.0084 426.5656)" fill="#3D3D3D" font-family="'HelveticaNeue'" font-size="9.8151">“He has gained all his wealth at our</text>
	<text transform="matrix(1 0 0 1 740.0084 440.9835)" fill="#3D3D3D" font-family="'HelveticaNeue'" font-size="9.8151">father’s expense.” </text>
	<text transform="matrix(1 0 0 1 822.3101 440.9835)" fill="#3D3D3D" font-family="'HelveticaNeue-Bold'" font-size="9.8151">2</text>
	<text transform="matrix(1 0 0 1 827.817 440.9835)" fill="#3D3D3D" font-family="'HelveticaNeue'" font-size="9.8151"> And Jacob</text>
	<text transform="matrix(1 0 0 1 740.0084 455.402)" fill="#3D3D3D" font-family="'HelveticaNeue'" font-size="9.8151">began to notice a change in</text>
	<text transform="matrix(1 0 0 1 740.0084 469.8195)" fill="#3D3D3D" font-family="'HelveticaNeue'" font-size="9.8151">Laban’s attitude toward him.</text>
	<text transform="matrix(1 0 0 1 740.0084 484.2374)" fill="#3D3D3D" font-family="'HelveticaNeue'" font-size="9.8151">  </text>
	<text transform="matrix(1 0 0 1 745.5142 484.2374)" fill="#3D3D3D" font-family="'HelveticaNeue'" font-size="9.8151"> </text>
	<text transform="matrix(1 0 0 1 749.0191 484.2374)" fill="#3D3D3D" font-family="'HelveticaNeue-Bold'" font-size="9.8151">3</text>
	<text transform="matrix(1 0 0 1 754.4264 484.2374)" fill="#3D3D3D" font-family="'HelveticaNeue'" font-size="9.8151"> Then the Lord said to Jacob,</text>
	<text transform="matrix(1 0 0 1 740.0084 498.6554)" fill="#3D3D3D" font-family="'HelveticaNeue'" font-size="9.8151">“Return to the land of your father</text>
	<text transform="matrix(1 0 0 1 740.0084 513.0733)" fill="#3D3D3D" font-family="'HelveticaNeue'" font-size="9.8151">and grandfather and to your</text>
	<text transform="matrix(1 0 0 1 740.0084 527.4913)" fill="#3D3D3D" font-family="'HelveticaNeue'" font-size="9.8151">relatives there, and I will be with</text>
	<text transform="matrix(1 0 0 1 740.0084 541.9093)" fill="#3D3D3D" font-family="'HelveticaNeue'" font-size="9.8151">you.”</text>
	<text transform="matrix(1 0 0 1 740.0084 556.3273)" fill="#3D3D3D" font-family="'HelveticaNeue'" font-size="9.8151">  </text>
	<text transform="matrix(1 0 0 1 745.5142 556.3273)" fill="#3D3D3D" font-family="'HelveticaNeue'" font-size="9.8151"> </text>
	<text transform="matrix(1 0 0 1 749.0191 556.3273)" fill="#3D3D3D" font-family="'HelveticaNeue-Bold'" font-size="9.8151">4</text>
	<text transform="matrix(1 0 0 1 754.4264 556.3273)" fill="#3D3D3D" font-family="'HelveticaNeue'" font-size="9.8151"> So Jacob called Rachel and</text>
	<text transform="matrix(1 0 0 1 740.0084 570.7452)" fill="#3D3D3D" font-family="'HelveticaNeue'" font-size="9.8151">Leah out to the field where he was</text>
	<text transform="matrix(1 0 0 1 740.0084 585.1632)" fill="#3D3D3D" font-family="'HelveticaNeue'" font-size="9.8151">watching his flock. </text>
	<text transform="matrix(1 0 0 1 824.313 585.1632)" fill="#3D3D3D" font-family="'HelveticaNeue-Bold'" font-size="9.8151">5</text>
	<text transform="matrix(1 0 0 1 829.8199 585.1632)" fill="#3D3D3D" font-family="'HelveticaNeue'" font-size="9.8151"> He said to</text>
	<text transform="matrix(1 0 0 1 740.0084 599.5811)" fill="#3D3D3D" font-family="'HelveticaNeue'" font-size="9.8151">them, “I have noticed that your</text>
	<circle fill="none" stroke="#FFFFFF" stroke-width="0.7" stroke-miterlimit="10" cx="749.2" cy="615.7" r="4.8"/>
	<circle fill="none" stroke="#FFFFFF" stroke-width="0.7" stroke-miterlimit="10" cx="749.2" cy="615.7" r="3.5"/>
	<line fill="none" stroke="#FFFFFF" stroke-width="0.7" stroke-miterlimit="10" x1="752.7" y1="619" x2="755.3" y2="621.6"/>
	<path fill="none" stroke="#FFFFFF" stroke-width="0.7" stroke-miterlimit="10" d="M780.2,616.3c0,0,0-0.2,0-2.9
		c0-2.7-1.3-2.4-1.3-2.4s-6.3,0-7.7,0c-1.3,0-1.2,1.7-1.2,1.7v8.9l3.6-2.6l3.3,2.6v-8.7c0,0,0.1-0.9,1-0.9c0.9,0,1.1,0.7,1.1,1.2
		c0,0.6,0,3,0,3h1.2V616.3z"/>
	<polygon fill="#FFFFFF" points="807,612.5 807,620.7 800.8,616.6 	"/>
	<polygon fill="#FFFFFF" points="827.1,612.5 827.1,620.7 833.3,616.6 	"/>
	<polygon fill="none" stroke="#FFFFFF" stroke-width="0.7" stroke-miterlimit="10" points="856.4,613.7 856.4,620.8 854.2,618.5 
		852.5,618.5 852.5,615.9 854,615.9 	"/>
	<path fill="none" stroke="#FFFFFF" stroke-width="0.7" stroke-miterlimit="10" d="M858.6,614.6c0,0,1.6,0.7,1.6,2.7
		s-1.6,2.6-1.6,2.6"/>
	<path fill="none" stroke="#FFFFFF" stroke-width="0.7" stroke-miterlimit="10" d="M860.2,612c0,0,2.8,1.1,2.8,5.2
		c0,4.2-3.6,5.2-3.6,5.2"/>
	<text transform="matrix(1 0 0 1 879.688 620.5353)" fill="#FFFFFF" font-family="'HelveticaNeue-Bold'" font-size="9.6348">Aa</text>
</g>
<g id="Content_2">
	<rect x="922.2" y="335.9" fill="#B0DAEF" width="21.5" height="292.7"/>
	<rect x="919.5" y="583" fill="#86A693" width="3.3" height="8.2"/>
	<path fill="#A4A7A7" d="M929.9,603.7l12,8.9l-10.1,16l-2.4-0.1C929.3,628.4,926.1,609,929.9,603.7z"/>
	<path fill="#5F6E6C" d="M923.2,582.5l-2.9,4.6l-4.4-3.6v-3.6C915.8,580,921.6,576.1,923.2,582.5z"/>
	<path fill="#9C7D50" d="M915.8,580.8l3.3-0.9c0,0,3.8,2.6,4,2.6s10,0,10,0l1.8-1.3h1.9v-1.6l1.9,2l4.8-0.1l-0.1-4.9l-23.2-8.1
		l-4.5,6.4v5.9H915.8z"/>
	<path fill="#91744D" d="M915.8,579.6l4-1l15.2,0.5l1.8-3.2l2.2,3.1l4.4,0.1v-5.2c0,0-21.8-8.6-27.7-2.3v8H915.8z"/>
	<path fill="#906A37" d="M915.8,575.9h2.2l3-5.3l1.5,4l5.1,2.1c0,0,15.9,0.9,15.9,0.7s0-2.2,0-2.2l-23.3-7.3l-4.5,2v6H915.8z"/>
	<path fill="#F5F5F5" d="M929.2,358.2c0,0,2.7-0.1,2.7,1.9c0,2-1.6,2.4-1.6,2.4s0.8,1.2,0,1.7c0,0,0.9,0.1,1.2,1
		c0.3,0.9,0.1,1.3-0.4,1.7c0,0,3-0.9,3.9,1.2c0.9,2.1-0.9,3.8-0.9,3.8s3.2,0.4,3.2,3.4c0,3-2.1,4.2-2.1,4.2l-6.2-2.1v-19.2H929.2z"
		/>
	<path fill="#91B4A1" d="M926.3,346v27.4l-9.1-8.1l1.8-14.6L926.3,346z"/>
	<polygon fill="#B8C1C4" points="933.3,335.9 930.3,343.2 923.1,348.1 	"/>
	<polygon fill="#738985" points="930.3,335.9 929.8,342.1 926.6,345.8 915.8,354.5 915.8,348.1 	"/>
	<polygon fill="#687B77" points="930.3,335.9 925.1,343.6 915.8,348.1 915.8,335.9 	"/>
	<polygon fill="#D0D4D4" points="933.3,335.9 929.8,342.1 930.3,335.9 	"/>
	<polygon fill="#728784" points="919.7,351.4 921.3,353.6 919,359.4 915.8,360.6 915.8,354.5 	"/>
	<polygon fill="#687B77" points="919.7,351.4 921.3,353.6 915.8,357.6 915.8,354.5 	"/>
	<polygon fill="#5D6E6B" points="919,359.4 920.3,363.2 915.8,367.8 915.8,360.6 	"/>
	<polygon fill="#D0D4D4" points="921.3,353.8 924.5,357.9 919,359.4 	"/>
	<polygon fill="#9B9E9E" points="919,359.4 920.3,363.2 924.5,357.9 	"/>
	<path fill="#798D89" d="M918.3,365.2l2.9,2.9c0,0,0.2,10.2,0,10.2s-5.4,0.3-5.4,0.3v-10.8L918.3,365.2z"/>
	<polygon fill="#CDD0D0" points="921.3,368.1 931.2,378.6 921.3,378.3 	"/>
	<polygon fill="#677774" points="921.3,378.3 920.3,382.8 915.8,383.8 915.8,378.6 	"/>
	<polygon fill="#A3A6A6" points="931.2,378.6 921.3,386.9 920.3,382.8 921.3,378.3 	"/>
	<path fill="#96794D" d="M942.3,383.8c0-0.6,0-4.2,0-4.2l-4.8-1.3c0,0-0.7,1.3-0.8,1.3s-1.7-1.9-1.7-1.9l-6.7-0.5l-0.9,6.6
		C927.4,383.8,942.3,383.8,942.3,383.8z"/>
	<polygon fill="#AC9063" points="941.2,383.3 941.2,381 938.1,379.6 936.4,383.3 935.4,379.6 929.2,379.6 929.2,383.8 	"/>
	<polygon fill="#8A693E" points="943.7,389.1 927.3,390.5 915.8,388.1 915.8,382.6 919,381.7 923.1,381.7 929.8,381 930.3,383.3 
		931.6,381.7 938.7,381.7 943.7,383.3 	"/>
	<polygon fill="#A2855B" points="943.7,385.1 939.4,383.8 932.7,384 930.3,386.5 929.2,382.6 926.3,385.1 920.3,383.8 915.8,385.1 
		915.8,390.4 943.7,389.1 	"/>
	<path fill="#AD8D59" d="M943.7,386.9l-8.8-1.8l-3.3,2.9l-3.3,0.5l-2,1.2l-1.8-2.3l-8.6,0.7v1.6h8.6c0,0,3.4,3.8,3.7,3.4
		c0.4-0.4,3.3-3.5,3.3-3.5l4.8,0.2l3.8-1.4l3.6,1.2L943.7,386.9L943.7,386.9z"/>
	<polygon fill="#C6AD7F" points="943.6,389.1 938.8,387.5 931.2,389.1 928.2,398.2 943.6,394.4 	"/>
	<polygon fill="#BCA070" points="931.2,389.1 927.6,392.8 924.5,389.7 920.8,389.1 920.3,395.6 928.2,398.2 	"/>
	<polygon fill="#A68351" points="920.8,389.1 915.8,389.7 915.8,396.6 920.3,395.6 	"/>
	<polygon fill="#DFCFAD" points="928.2,397.6 921.4,445.1 920.4,508.3 925.4,546.6 932,569.7 939,568.4 943.7,569.7 943.6,394.4 	
		"/>
	<polygon fill="#BFA475" points="920.3,395.6 915.8,396.6 915.8,563.8 920.3,562.5 	"/>
	<polygon fill="#D1BC93" points="928.2,397.6 920.3,395.6 915.8,450.4 915.8,529.1 919.5,562 932,569.7 921,508.1 921.4,445.5 	"/>
	<polygon fill="#C8AF82" points="932,569.7 936,575.4 943.7,575.4 943.7,569.7 939,568.4 	"/>
	<polygon fill="#BFA274" points="936,575.4 932,569.7 919.5,562 921.1,569.3 927,574.4 	"/>
	<polygon fill="#B29262" points="919.5,562 915.8,563.8 915.8,573.4 918,569.7 921.1,569.3 	"/>
	<polygon fill="#778B87" points="915.8,583.5 924,590.3 926.8,597.1 915.8,596.1 	"/>
	<polygon fill="#CDD1D1" points="924,590.3 934.6,599.3 926.8,597.1 	"/>
	<polygon fill="#A4A7A7" points="934.6,599.3 933.4,603.6 925.1,600.1 926.8,597.1 	"/>
	<polygon fill="#677773" points="926.8,597.1 925.1,600.1 915.8,601.6 915.8,596.1 	"/>
	<polygon fill="#D0D4D4" points="933.4,603.6 941.8,612.6 925.1,600.1 	"/>
	<polygon fill="#D0D4D4" points="941.8,612.6 928.8,610 932.9,618.7 	"/>
	<polygon fill="#D0D4D4" points="941.8,612.6 931,628.5 933.6,628.5 	"/>
	<polygon fill="#778B87" points="925.1,600.1 929.9,603.7 915.8,608.2 915.8,601.6 	"/>
	<polygon fill="#778B87" points="928.8,610 917.3,612.3 922.2,622 920.9,628.5 923.4,628.5 932.9,618.7 	"/>
	<polygon fill="#677773" points="929.9,603.7 928.8,610 917.3,612.3 915.8,608.2 	"/>
	<polygon fill="#677773" points="932.9,618.7 931,628.5 923.4,628.5 	"/>
	<polygon fill="#687C76" points="917.3,612.3 922.2,622 920.9,628.5 915.8,628.5 915.8,612.3 	"/>
	<polygon fill="#566662" points="915.8,608.2 917.3,612.3 915.8,612.3 	"/>
	<g>
		<path fill="#276694" d="M931.8,450.2c0,0-0.1,0-0.2,0c-0.1,0-0.1,0-0.1,0c-0.1,0-0.3-0.1-0.6-0.1h-5.5c-0.1,0-0.1,0-0.2,0.1
			c-0.1,0.1-0.1,0.1-0.1,0.1c-0.4,0-0.6-0.1-0.6-0.2s0-0.3,0.1-0.6c0.1-0.4,0.2-0.6,0.2-0.7c0.1-0.1,0.2-0.2,0.3-0.2h0.1
			c0,0,0.1,0,0.2,0h6.3h0.1h0.1c0.1,0,0.2,0.1,0.3,0.3c0,0.1,0,0.2,0,0.4c0,0.3-0.1,0.5-0.1,0.6C932.1,450.1,932,450.2,931.8,450.2z
			"/>
		<path fill="#276694" d="M925.4,455.1c-0.1,0-0.2,0.1-0.3,0.1c-0.2,0-0.3-0.1-0.4-0.2c0,0,0-0.1,0-0.2c0-0.2,0-0.4,0.1-0.7
			c0.1-0.3,0.1-0.5,0.2-0.5h0.1c0.1,0,0.2,0,0.3,0.1s0.3,0.1,0.3,0.1c2.4,0,3.6,0,3.6-0.1s-0.2-0.3-0.8-0.6
			c-0.6-0.3-1.1-0.5-1.4-0.5h-1.7c-0.1,0.1-0.2,0.1-0.3,0.1c-0.2,0-0.4-0.1-0.5-0.3v-0.1c0-0.2,0-0.4,0.1-0.7
			c0.1-0.3,0.1-0.5,0.2-0.5c0,0,0.1-0.1,0.2-0.1c0.1,0,0.1,0,0.2,0.1c0.1,0.1,0.1,0.1,0.2,0.1h4.2c0,0,0.1,0,0.2-0.1
			c0.1,0,0.1-0.1,0.2,0c0.1,0,0.2,0.1,0.2,0.3c0,0.1,0,0.3-0.1,0.7c-0.1,0.4-0.2,0.6-0.3,0.6c-0.1,0-0.2,0-0.3,0
			c-0.2-0.1-0.3-0.1-0.4-0.1c-0.1,0-0.1,0-0.2,0c0.3,0.1,0.6,0.2,0.8,0.4c0.3,0.2,0.4,0.4,0.4,0.6c0,0.2-0.1,0.5-0.2,0.8
			c-0.1,0.3-0.3,0.5-0.4,0.6C929.3,455,927.9,455.1,925.4,455.1z"/>
		<path fill="#276694" d="M929.2,461.1c-0.1,0-0.2,0-0.3-0.1c-0.1-0.1-0.1-0.1-0.1-0.2c0,0,0,0,0-0.1c0-0.1,0-0.3,0-0.6h-3.6
			c0,0,0,0-0.1,0.1c-0.1,0-0.2,0.1-0.3,0.1c-0.2,0-0.3-0.1-0.3-0.4c0-0.1,0-0.4,0.2-0.7c0.1-0.4,0.2-0.6,0.3-0.6c0,0,0.1,0,0.3,0.1
			c0.1,0.1,0.2,0.1,0.3,0.1h3.2v-0.3c0-0.1,0.1-0.3,0.3-0.4c0.2-0.2,0.4-0.3,0.5-0.3c0.1,0,0.2,0,0.2,0.1c0.1,0.1,0.1,0.1,0.1,0.2
			v0.6h0.8c0.1-0.1,0.2-0.1,0.4-0.1c0.1,0,0.2,0.1,0.2,0.2s0,0.1,0,0.2c0,0.2,0,0.5-0.1,0.8c-0.1,0.3-0.1,0.5-0.2,0.6l-0.1,0.1
			c-0.1,0-0.1,0-0.3-0.1c-0.1-0.1-0.2-0.1-0.3-0.2h-0.5v0.3c0,0.1-0.1,0.2-0.3,0.4C929.5,461,929.3,461.1,929.2,461.1z"/>
		<path fill="#276694" d="M925,465.8c-0.2,0-0.3-0.1-0.3-0.2c0,0,0-0.1,0-0.2c0-0.2,0-0.4,0.1-0.7c0.1-0.3,0.1-0.5,0.2-0.5h0.1
			c0,0,0.1,0,0.3,0.1c0,0,0.1,0.1,0.2,0.1c0.1,0,0.1,0.1,0.2,0.1c2.4,0,3.6,0,3.6-0.1s-0.2-0.3-0.7-0.6s-0.9-0.5-1.2-0.5h-2
			c-0.1,0.1-0.2,0.1-0.4,0.1s-0.3-0.1-0.4-0.3V463c0-0.2,0-0.4,0.1-0.7c0.1-0.3,0.1-0.5,0.2-0.5c0.1-0.1,0.2-0.1,0.3,0
			c0,0,0,0,0.1,0.1c0.1,0.1,0.1,0.1,0.1,0.1h6.4c0,0,0.1,0,0.2-0.1c0.1,0,0.1-0.1,0.2,0c0.1,0,0.2,0.1,0.2,0.3c0,0.1,0,0.3-0.1,0.7
			c-0.1,0.4-0.2,0.6-0.3,0.6s-0.2,0-0.3,0c-0.1,0-0.3-0.1-0.5-0.1h-1.7c0.4,0.3,0.6,0.7,0.6,1c0,0.2-0.1,0.5-0.2,0.8
			c-0.1,0.3-0.3,0.5-0.4,0.6c-0.4,0.2-1.8,0.3-4.3,0.3C925.3,465.8,925.1,465.9,925,465.8z"/>
		<path fill="#276694" d="M926.4,470.2c-0.1,0.1-0.4-0.1-0.8-0.4c-0.5-0.3-0.8-0.6-1-0.9c0,0,0-0.1,0-0.2c0-0.2,0.1-0.5,0.2-0.9
			c0.1-0.4,0.3-0.7,0.5-0.8c0.5-0.3,1.1-0.5,1.9-0.5c0.8,0,1.4,0.2,2,0.5c0.6,0.3,1,0.8,1,1.3c0,0.2,0,0.4-0.1,0.7
			c-0.1,0.3-0.3,0.6-0.5,0.8c-0.1,0.1-0.2,0.1-0.5,0.2s-0.6,0.1-0.8,0.1c-0.4,0-0.7-0.1-0.8-0.2c-0.2-0.6-0.3-1.2-0.3-1.9
			c-0.3,0-0.6,0-0.9,0.1s-0.5,0.2-0.5,0.3c0,0.1,0.1,0.3,0.3,0.4c0.2,0.2,0.3,0.2,0.4,0.3c0.2,0,0.4,0.1,0.6,0.2
			c0,0.1,0,0.3-0.1,0.6C926.6,470,926.5,470.2,926.4,470.2z M929.2,468.6c0-0.1-0.1-0.2-0.5-0.4c-0.3-0.2-0.7-0.3-1-0.3
			c0,0.3,0.1,0.5,0.2,0.6c0.1,0.1,0.4,0.1,0.9,0.1C929,468.7,929.2,468.7,929.2,468.6z"/>
		<path fill="#276694" d="M928.1,477.4c-0.1,0-0.2,0-0.3,0c-0.5,0-1-0.2-1.6-0.6c-0.5-0.3-0.9-0.8-1.2-1.3c-0.3-0.5-0.5-0.8-0.5-0.9
			c0-0.2,0.2-0.5,0.4-1s0.4-0.7,0.5-0.7h0.1h0.1c0.1,0,0.1,0,0.1,0h5.8c0.1,0,0.1,0.1,0.1,0.4c0,0.1,0,0.2,0,0.3
			c0.2,0.3,0.3,0.6,0.5,1.1c0.1,0.4,0.2,0.8,0.2,1.1c0,0.2,0,0.3-0.1,0.4c-0.1,0.1-0.1,0.2-0.3,0.3s-0.3,0.2-0.3,0.2
			s-0.1,0.1-0.2,0.3c-0.1,0.1-0.2,0.2-0.3,0.2c-0.1,0-0.1,0-0.2,0c-0.5,0-1-0.3-1.5-0.9C929,477,928.5,477.4,928.1,477.4z
			 M931.1,475.8L931.1,475.8c0-0.2,0-0.5-0.2-0.7c-0.1-0.3-0.3-0.5-0.4-0.6h-0.9c0.3,0.4,0.6,0.7,0.9,1
			C930.8,475.8,931,475.9,931.1,475.8z M928.4,476.2c0-0.2-0.1-0.4-0.2-0.8c-0.2-0.4-0.3-0.7-0.5-0.9H926c0.1,0.4,0.4,0.8,1,1.2
			C927.6,476,928,476.2,928.4,476.2z"/>
		<path fill="#276694" d="M926.4,481.8c-0.1,0.1-0.4-0.1-0.8-0.4c-0.5-0.3-0.8-0.6-1-0.9c0,0,0-0.1,0-0.2c0-0.2,0.1-0.5,0.2-0.9
			c0.1-0.4,0.3-0.7,0.5-0.8c0.5-0.3,1.1-0.5,1.9-0.5c0.8,0,1.4,0.2,2,0.5c0.6,0.3,1,0.8,1,1.3c0,0.2,0,0.4-0.1,0.7
			c-0.1,0.3-0.3,0.6-0.5,0.8c-0.1,0.1-0.2,0.1-0.5,0.2s-0.6,0.1-0.8,0.1c-0.4,0-0.7-0.1-0.8-0.2c-0.2-0.6-0.3-1.2-0.3-1.9
			c-0.3,0-0.6,0-0.9,0.1s-0.5,0.2-0.5,0.3s0.1,0.3,0.3,0.4c0.2,0.2,0.3,0.2,0.4,0.3c0.2,0,0.4,0.1,0.6,0.2c0,0.1,0,0.3-0.1,0.6
			C926.6,481.5,926.5,481.7,926.4,481.8z M929.2,480.2c0-0.1-0.1-0.2-0.5-0.4c-0.3-0.2-0.7-0.3-1-0.3c0,0.3,0.1,0.5,0.2,0.6
			c0.1,0.1,0.4,0.1,0.9,0.1C929,480.2,929.2,480.2,929.2,480.2z"/>
		<path fill="#276694" d="M929.6,486.4c0,0-0.1,0-0.2-0.1c-0.1,0-0.1-0.1-0.2-0.1h-3.9c-1,0-1.6-0.4-1.9-1.1
			c-0.1-0.3-0.2-0.7-0.2-0.9c0-0.4,0.1-0.8,0.4-1.1c0.1-0.1,0.2-0.2,0.5-0.4c0,0,0.1-0.1,0.2-0.2c0.1-0.1,0.1-0.1,0.2-0.1
			c0.1,0,0.2,0.1,0.2,0.3v0.1c0,0.1,0,0.3-0.1,0.5c-0.1,0.2-0.1,0.3-0.2,0.4c-0.1,0.1-0.2,0.2-0.4,0.3c-0.1,0.1-0.2,0.2-0.2,0.4
			c0,0.2,0.1,0.4,0.5,0.5c0.2,0,0.5,0.1,0.9,0.1c0,0-0.1-0.1-0.2-0.2c-0.1-0.1-0.2-0.1-0.2-0.2c-0.1-0.1-0.1-0.1-0.1-0.2
			c0-0.3,0.1-0.6,0.3-0.8c0.5-0.6,1.3-1,2.4-1c0.7,0,1.3,0.1,1.8,0.4c0.6,0.3,0.9,0.7,1.1,1.2v0.1c0,0.1,0,0.2-0.1,0.3
			c-0.1,0.1-0.2,0.2-0.2,0.3c0.1,0,0.2,0.1,0.3,0.1s0.2,0.1,0.2,0.2c0,0.1,0,0.3-0.1,0.7c-0.1,0.3-0.2,0.5-0.3,0.5
			C929.8,486.4,929.7,486.4,929.6,486.4z M927.4,484.7c0.4,0,0.8,0.1,1,0.1c0.5,0,0.8-0.1,0.8-0.2c0-0.1-0.2-0.3-0.6-0.5
			c-0.5-0.2-0.9-0.3-1.3-0.3c-0.7,0-1.3,0.1-1.7,0.2C926.2,484.4,926.8,484.6,927.4,484.7z"/>
		<path fill="#276694" d="M925,488.9c-0.2,0-0.4-0.1-0.4-0.2v-0.1c0-0.2,0-0.5,0.1-0.8s0.2-0.5,0.3-0.6c0,0,0.1,0,0.3,0.1
			c0.1,0.1,0.3,0.1,0.5,0.1h3.8c0.2-0.1,0.4-0.1,0.5-0.1c0.1,0,0.1,0.1,0.1,0.3c0,0.2-0.1,0.4-0.2,0.8c-0.1,0.4-0.2,0.5-0.3,0.6
			h-0.1c0,0-0.1,0-0.3-0.1c-0.1-0.1-0.2-0.1-0.3-0.1h-3.6c-0.1,0-0.1,0-0.2,0.1C925.1,488.9,925.1,488.9,925,488.9z M931.2,488.9
			C931.2,489,931.2,489,931.2,488.9c-0.2,0-0.4,0-0.6-0.1s-0.4-0.1-0.4-0.2s0-0.3,0.2-0.8c0.2-0.5,0.3-0.7,0.3-0.7h0.1
			c0.2,0,0.3,0,0.5,0.1s0.3,0.2,0.3,0.3s0,0.4-0.2,0.7C931.5,488.7,931.4,488.9,931.2,488.9z"/>
		<path fill="#276694" d="M925.4,493.9c-0.1,0-0.2,0.1-0.3,0.1c-0.2,0-0.3-0.1-0.4-0.2c0,0,0-0.1,0-0.2c0-0.2,0-0.4,0.1-0.7
			c0.1-0.3,0.1-0.5,0.2-0.5h0.1c0.1,0,0.2,0,0.3,0.1s0.3,0.1,0.3,0.1c2.4,0,3.6,0,3.6-0.1s-0.2-0.3-0.8-0.6
			c-0.6-0.3-1.1-0.5-1.4-0.5h-1.7c-0.1,0.1-0.2,0.1-0.3,0.1c-0.2,0-0.4-0.1-0.5-0.3v-0.1c0-0.2,0-0.4,0.1-0.7
			c0.1-0.3,0.1-0.5,0.2-0.5c0,0,0.1-0.1,0.2-0.1c0.1,0,0.1,0,0.2,0.1c0.1,0.1,0.1,0.1,0.2,0.1h4.2c0,0,0.1,0,0.2-0.1
			c0.1,0,0.1-0.1,0.2,0c0.1,0,0.2,0.1,0.2,0.3c0,0.1,0,0.3-0.1,0.7c-0.1,0.4-0.2,0.6-0.3,0.6c-0.1,0-0.2,0-0.3,0
			c-0.2-0.1-0.3-0.1-0.4-0.1c-0.1,0-0.1,0-0.2,0c0.3,0.1,0.6,0.2,0.8,0.4c0.3,0.2,0.4,0.4,0.4,0.6s-0.1,0.5-0.2,0.8
			c-0.1,0.3-0.3,0.5-0.4,0.6C929.3,493.8,927.9,493.9,925.4,493.9z"/>
		<path fill="#276694" d="M925.4,498.9c-0.1,0-0.2,0.1-0.3,0.1c-0.2,0-0.3-0.1-0.4-0.2c0,0,0-0.1,0-0.2c0-0.2,0-0.4,0.1-0.7
			c0.1-0.3,0.1-0.5,0.2-0.5h0.1c0.1,0,0.2,0,0.3,0.1s0.3,0.1,0.3,0.1c2.4,0,3.6,0,3.6-0.1s-0.2-0.3-0.8-0.6
			c-0.6-0.3-1.1-0.5-1.4-0.5h-1.7c-0.1,0.1-0.2,0.1-0.3,0.1c-0.2,0-0.4-0.1-0.5-0.3v-0.1c0-0.2,0-0.4,0.1-0.7s0.1-0.5,0.2-0.5
			c0,0,0.1-0.1,0.2-0.1c0.1,0,0.1,0,0.2,0.1c0.1,0.1,0.1,0.1,0.2,0.1h4.2c0,0,0.1,0,0.2-0.1c0.1,0,0.1-0.1,0.2,0
			c0.1,0,0.2,0.1,0.2,0.3c0,0.1,0,0.3-0.1,0.7c-0.1,0.4-0.2,0.6-0.3,0.6c-0.1,0-0.2,0-0.3,0c-0.2-0.1-0.3-0.1-0.4-0.1
			c-0.1,0-0.1,0-0.2,0c0.3,0.1,0.6,0.2,0.8,0.4c0.3,0.2,0.4,0.4,0.4,0.6c0,0.2-0.1,0.5-0.2,0.8c-0.1,0.3-0.3,0.5-0.4,0.6
			C929.3,498.9,927.9,498.9,925.4,498.9z"/>
		<path fill="#276694" d="M925,501.6c-0.2,0-0.4-0.1-0.4-0.2v-0.1c0-0.2,0-0.5,0.1-0.8s0.2-0.5,0.3-0.6c0,0,0.1,0,0.3,0.1
			c0.1,0.1,0.3,0.1,0.5,0.1h3.8c0.2-0.1,0.4-0.1,0.5-0.1c0.1,0,0.1,0.1,0.1,0.3c0,0.2-0.1,0.4-0.2,0.8c-0.1,0.4-0.2,0.5-0.3,0.6
			h-0.1c0,0-0.1,0-0.3-0.1c-0.1-0.1-0.2-0.1-0.3-0.1h-3.6c-0.1,0-0.1,0-0.2,0.1C925.1,501.6,925.1,501.6,925,501.6z M931.2,501.6
			L931.2,501.6c-0.2,0-0.4,0-0.6-0.1s-0.4-0.1-0.4-0.2s0-0.3,0.2-0.8c0.2-0.5,0.3-0.7,0.3-0.7h0.1c0.2,0,0.3,0,0.5,0.1
			s0.3,0.2,0.3,0.3s0,0.4-0.2,0.7C931.5,501.4,931.4,501.6,931.2,501.6z"/>
		<path fill="#276694" d="M925.4,506.6c-0.1,0-0.2,0.1-0.3,0.1c-0.2,0-0.3-0.1-0.4-0.2c0,0,0-0.1,0-0.2c0-0.2,0-0.4,0.1-0.7
			c0.1-0.3,0.1-0.5,0.2-0.5h0.1c0.1,0,0.2,0,0.3,0.1s0.3,0.1,0.3,0.1c2.4,0,3.6,0,3.6-0.1s-0.2-0.3-0.8-0.6
			c-0.6-0.3-1.1-0.5-1.4-0.5h-1.7c-0.1,0.1-0.2,0.1-0.3,0.1c-0.2,0-0.4-0.1-0.5-0.3v-0.1c0-0.2,0-0.4,0.1-0.7s0.1-0.5,0.2-0.5
			c0,0,0.1-0.1,0.2-0.1c0.1,0,0.1,0,0.2,0.1c0.1,0.1,0.1,0.1,0.2,0.1h4.2c0,0,0.1,0,0.2-0.1c0.1,0,0.1-0.1,0.2,0
			c0.1,0,0.2,0.1,0.2,0.3c0,0.1,0,0.3-0.1,0.7c-0.1,0.4-0.2,0.6-0.3,0.6c-0.1,0-0.2,0-0.3,0c-0.2-0.1-0.3-0.1-0.4-0.1
			c-0.1,0-0.1,0-0.2,0c0.3,0.1,0.6,0.2,0.8,0.4c0.3,0.2,0.4,0.4,0.4,0.6c0,0.2-0.1,0.5-0.2,0.8c-0.1,0.3-0.3,0.5-0.4,0.6
			C929.3,506.5,927.9,506.6,925.4,506.6z"/>
		<path fill="#276694" d="M929.6,511.2c0,0-0.1,0-0.2-0.1c-0.1,0-0.1-0.1-0.2-0.1h-3.9c-1,0-1.6-0.4-1.9-1.1
			c-0.1-0.3-0.2-0.7-0.2-0.9c0-0.4,0.1-0.8,0.4-1.1c0.1-0.1,0.2-0.2,0.5-0.4c0,0,0.1-0.1,0.2-0.2c0.1-0.1,0.1-0.1,0.2-0.1
			c0.1,0,0.2,0.1,0.2,0.3v0.1c0,0.1,0,0.3-0.1,0.5c-0.1,0.2-0.1,0.3-0.2,0.4c-0.1,0.1-0.2,0.2-0.4,0.3c-0.1,0.1-0.2,0.2-0.2,0.4
			c0,0.2,0.1,0.4,0.5,0.5c0.2,0,0.5,0.1,0.9,0.1c0,0-0.1-0.1-0.2-0.2c-0.1-0.1-0.2-0.1-0.2-0.2c-0.1-0.1-0.1-0.1-0.1-0.2
			c0-0.3,0.1-0.6,0.3-0.8c0.5-0.6,1.3-1,2.4-1c0.7,0,1.3,0.1,1.8,0.4c0.6,0.3,0.9,0.7,1.1,1.2v0.1c0,0.1,0,0.2-0.1,0.3
			c-0.1,0.1-0.2,0.2-0.2,0.3c0.1,0,0.2,0.1,0.3,0.1s0.2,0.1,0.2,0.2c0,0.1,0,0.3-0.1,0.7c-0.1,0.3-0.2,0.5-0.3,0.5
			C929.8,511.2,929.7,511.3,929.6,511.2z M927.4,509.6c0.4,0,0.8,0.1,1,0.1c0.5,0,0.8-0.1,0.8-0.2s-0.2-0.3-0.6-0.5
			c-0.5-0.2-0.9-0.3-1.3-0.3c-0.7,0-1.3,0.1-1.7,0.2C926.2,509.3,926.8,509.6,927.4,509.6z"/>
	</g>
</g>
<g id="Phone">
	<g>
		<path fill="#E7E7E9" d="M710.7,654.1c0,17.1-13.9,30.9-30.9,30.9H545.4c-17.1,0-30.9-13.9-30.9-30.9V308.9
			c0-17.1,13.9-30.9,30.9-30.9h134.5c17.1,0,30.9,13.9,30.9,30.9V654.1z"/>
		<path fill="#010005" d="M705.3,654.1c0,14.6-11.8,26.5-26.5,26.5H546.6c-14.6,0-26.5-11.8-26.5-26.5V309.7
			c0.1-14.6,11.9-26.5,26.5-26.5h132.2c14.6,0,26.5,11.8,26.5,26.5V654.1z"/>
		<rect x="644.1" y="275.3" fill="#E7E7E9" width="30.9" height="2.7"/>
		<circle fill="#232323" cx="612.9" cy="653.8" r="18.3"/>
		<path fill="#232323" d="M629.8,313.7c0,2.2-1.8,3.9-3.9,3.9h-28.7c-2.2,0-3.9-1.8-3.9-3.9l0,0c0-2.2,1.8-3.9,3.9-3.9h28.7
			C628,309.7,629.8,311.5,629.8,313.7L629.8,313.7z"/>
		<circle fill="#232323" cx="611.4" cy="298.7" r="3.9"/>
		<rect x="530" y="335.6" fill="#232323" width="165" height="290.6"/>
	</g>
</g>
<g id="Contents">
	<rect x="531.1" y="460.6" fill="#1E1E1E" width="163.5" height="142.7"/>
	<rect x="531.1" y="367.3" fill="#2F3030" width="163.5" height="93.3"/>
	<path fill="#FFFFFF" d="M547.2,385.1c-0.3,0.1-0.6,0.2-0.9,0.3l-10.8,1.5l4.6-7.1c1.1-1.7,3.7-3.5,7.9-4.3l-4.2,6.2
		c-0.1,0.1-0.2,0.3-0.4,0.6l-1.3,1.9c-0.2,0.3-0.1,0.5,0.2,0.5c1.2-0.1,1.5-0.2,2-0.7c0.1-0.1,0.8-0.9,1.2-1.4l3.8-0.5
		c1.1-0.2,1.9-0.3,1.9-0.3S550.2,383.7,547.2,385.1z M557,383.5c-1.8,0.6-6.9,1.2-6.9,1.2c2.4-2.6,3.7-2.9,4.2-3.1
		c2.1-0.9,6.9-1.4,6.9-1.4S560.2,382.5,557,383.5z M556.5,376.9c-1.8,0.3-2.7,0.5-3.7,2.5c-0.1,0.2-0.4,0.9-1.2,1.1l-0.3,0.1
		l-4.6,0.6c0.7-1.1,1.7-2.6,1.9-2.9c1.1-1.6,2.4-3.2,8.2-4.3c0,0,3.2-0.5,5.3-0.9C562.1,373.2,560.4,376.2,556.5,376.9z"/>
	<g>
		<path fill="#FFFFFF" d="M661.5,377.9l1.1,3.4l0,0l1.1-3.4h1.5v4.9h-1v-3.5l0,0l-1.1,3.5h-0.8l-1.2-3.4l0,0v3.4h-1v-4.9H661.5z"/>
		<path fill="#FFFFFF" d="M669.9,377.9v0.9h-2.6v1.1h2.4v0.8h-2.4v1.2h2.6v0.9h-3.7v-4.9H669.9z"/>
		<path fill="#FFFFFF" d="M671.8,377.9l2,3.3l0,0v-3.3h1v4.9h-1.1l-2-3.3l0,0v3.3h-1v-4.9H671.8z"/>
		<path fill="#FFFFFF" d="M679.3,382.3c-0.4,0.3-0.9,0.5-1.5,0.5c-0.7,0-1.2-0.2-1.5-0.5c-0.3-0.3-0.5-0.8-0.5-1.5v-3h1.1v3
			c0,0.1,0,0.3,0,0.4c0,0.1,0.1,0.2,0.1,0.3c0.1,0.1,0.2,0.2,0.3,0.2c0.1,0.1,0.3,0.1,0.5,0.1c0.4,0,0.7-0.1,0.8-0.3
			c0.1-0.2,0.2-0.4,0.2-0.8v-3h1.1v3C679.8,381.5,679.7,382,679.3,382.3z"/>
	</g>
	<rect x="681.6" y="377.9" fill="#FFFFFF" width="6.9" height="1.1"/>
	<rect x="681.6" y="379.8" fill="#FFFFFF" width="6.9" height="1.1"/>
	<rect x="681.6" y="381.7" fill="#FFFFFF" width="6.9" height="1.1"/>
	<g enable-background="new    ">
		<path fill="#FFFFFF" d="M538.5,406.4v-6.6h0.9l2.1,3.3c0.5,0.8,0.9,1.5,1.2,2.1l0,0c-0.1-0.9-0.1-1.7-0.1-2.7v-2.7h0.8v6.6h-0.9
			l-2.1-3.3c-0.5-0.7-0.9-1.5-1.2-2.2l0,0c0,0.8,0.1,1.6,0.1,2.7v2.8C539.3,406.4,538.5,406.4,538.5,406.4z"/>
		<path fill="#FFFFFF" d="M545.4,404.2c0,1.2,0.8,1.6,1.6,1.6c0.6,0,1-0.1,1.3-0.2l0.1,0.6c-0.3,0.1-0.8,0.3-1.6,0.3
			c-1.4,0-2.3-1-2.3-2.4s0.8-2.5,2.2-2.5c1.5,0,1.9,1.4,1.9,2.2c0,0.2,0,0.3,0,0.4C548.5,404.2,545.4,404.2,545.4,404.2z
			 M547.8,403.6c0-0.5-0.2-1.4-1.2-1.4c-0.9,0-1.2,0.8-1.3,1.4H547.8z"/>
		<path fill="#FFFFFF" d="M550,401.7l0.7,1c0.2,0.3,0.3,0.5,0.5,0.8l0,0c0.2-0.3,0.3-0.5,0.5-0.8l0.7-1h0.9l-1.6,2.3l1.7,2.4h-1
			l-0.7-1.1c-0.2-0.3-0.3-0.5-0.5-0.8l0,0c-0.2,0.3-0.3,0.5-0.5,0.8l-0.7,1.1h-1l1.7-2.4l-1.6-2.3C549.1,401.7,550,401.7,550,401.7z
			"/>
		<path fill="#FFFFFF" d="M555.3,400.4v1.4h1.2v0.7h-1.2v2.5c0,0.6,0.2,0.9,0.6,0.9c0.2,0,0.4,0,0.5-0.1v0.6
			c-0.2,0.1-0.4,0.1-0.8,0.1c-0.4,0-0.7-0.1-0.9-0.4c-0.2-0.3-0.3-0.7-0.3-1.2v-2.6h-0.7v-0.7h0.7v-1L555.3,400.4z"/>
		<path fill="#FFFFFF" d="M563.8,404c0,1.7-1.2,2.5-2.3,2.5c-1.3,0-2.3-0.9-2.3-2.4c0-1.6,1-2.5,2.3-2.5
			C562.9,401.6,563.8,402.6,563.8,404z M560.1,404.1c0,1,0.6,1.8,1.4,1.8c0.8,0,1.4-0.8,1.4-1.8c0-0.8-0.4-1.8-1.4-1.8
			C560.5,402.3,560.1,403.2,560.1,404.1z"/>
		<path fill="#FFFFFF" d="M564.8,403c0-0.5,0-0.9,0-1.3h0.8v0.8l0,0c0.2-0.4,0.8-0.9,1.6-0.9c0.7,0,1.7,0.4,1.7,2v2.8h-1v-2.7
			c0-0.8-0.3-1.4-1.1-1.4c-0.6,0-1,0.4-1.1,0.9c0,0.1-0.1,0.3-0.1,0.4v2.8h-0.9L564.8,403L564.8,403z"/>
		<path fill="#FFFFFF" d="M570.2,399.5h0.9v6.9h-0.9V399.5z"/>
		<path fill="#FFFFFF" d="M573.4,400.4c0,0.3-0.2,0.5-0.5,0.5s-0.5-0.2-0.5-0.5s0.2-0.5,0.5-0.5S573.4,400.1,573.4,400.4z
			 M572.5,406.4v-4.7h0.9v4.7C573.4,406.4,572.5,406.4,572.5,406.4z"/>
		<path fill="#FFFFFF" d="M574.7,403c0-0.5,0-0.9,0-1.3h0.8v0.8l0,0c0.2-0.4,0.8-0.9,1.6-0.9c0.7,0,1.7,0.4,1.7,2v2.8h-0.9v-2.7
			c0-0.8-0.3-1.4-1.1-1.4c-0.6,0-1,0.4-1.1,0.9c0,0.1-0.1,0.3-0.1,0.4v2.8h-0.9V403z"/>
		<path fill="#FFFFFF" d="M580.6,404.2c0,1.2,0.8,1.6,1.6,1.6c0.6,0,1-0.1,1.3-0.2l0.1,0.6c-0.3,0.1-0.8,0.3-1.6,0.3
			c-1.4,0-2.3-1-2.3-2.4s0.8-2.5,2.2-2.5c1.5,0,1.9,1.4,1.9,2.2c0,0.2,0,0.3,0,0.4C583.7,404.2,580.6,404.2,580.6,404.2z M583,403.6
			c0-0.5-0.2-1.4-1.2-1.4c-0.9,0-1.2,0.8-1.3,1.4H583z"/>
		<path fill="#FFFFFF" d="M587.4,404.2c0,1.2,0.8,1.6,1.6,1.6c0.6,0,1-0.1,1.3-0.2l0.1,0.6c-0.3,0.1-0.8,0.3-1.6,0.3
			c-1.4,0-2.3-1-2.3-2.4s0.8-2.5,2.2-2.5c1.5,0,1.9,1.4,1.9,2.2c0,0.2,0,0.3,0,0.4C590.6,404.2,587.4,404.2,587.4,404.2z
			 M589.9,403.6c0-0.5-0.2-1.4-1.2-1.4c-0.9,0-1.2,0.8-1.3,1.4H589.9z"/>
		<path fill="#FFFFFF" d="M592.2,401.7l0.7,1c0.2,0.3,0.3,0.5,0.5,0.8l0,0c0.2-0.3,0.3-0.5,0.5-0.8l0.7-1h0.9l-1.6,2.3l1.7,2.4h-1
			l-0.7-1.1c-0.2-0.3-0.3-0.5-0.5-0.8l0,0c-0.2,0.3-0.3,0.5-0.5,0.8l-0.7,1.1h-0.9l1.7-2.4l-1.6-2.3
			C591.4,401.7,592.2,401.7,592.2,401.7z"/>
		<path fill="#FFFFFF" d="M596.3,403.3c0-0.6,0-1.1,0-1.5h0.8v0.8l0,0c0.3-0.6,0.9-0.9,1.7-0.9c1.1,0,2,1,2,2.4c0,1.7-1,2.5-2.1,2.5
			c-0.6,0-1.2-0.3-1.4-0.7l0,0v2.6h-0.8v-5.2H596.3z M597.1,404.5c0,0.1,0,0.2,0,0.4c0.2,0.6,0.7,1,1.3,1c0.9,0,1.4-0.7,1.4-1.8
			c0-0.9-0.5-1.7-1.4-1.7c-0.6,0-1.1,0.4-1.3,1.1c0,0.1-0.1,0.2-0.1,0.3L597.1,404.5L597.1,404.5z"/>
		<path fill="#FFFFFF" d="M602.2,404.2c0,1.2,0.8,1.6,1.6,1.6c0.6,0,1-0.1,1.3-0.2l0.1,0.6c-0.3,0.1-0.8,0.3-1.6,0.3
			c-1.4,0-2.3-1-2.3-2.4s0.8-2.5,2.2-2.5c1.5,0,1.9,1.4,1.9,2.2c0,0.2,0,0.3,0,0.4H602.2z M604.7,403.6c0-0.5-0.2-1.4-1.2-1.4
			c-0.9,0-1.2,0.8-1.3,1.4H604.7z"/>
		<path fill="#FFFFFF" d="M606.6,403.2c0-0.6,0-1,0-1.5h0.7v0.9l0,0c0.2-0.6,0.7-1,1.3-1c0.1,0,0.2,0,0.2,0v0.8c-0.1,0-0.2,0-0.3,0
			c-0.6,0-1,0.5-1.1,1.1c0,0.1,0,0.3,0,0.4v2.5h-0.8V403.2z"/>
		<path fill="#FFFFFF" d="M610.8,400.4c0,0.3-0.2,0.5-0.5,0.5c-0.3,0-0.5-0.2-0.5-0.5s0.2-0.5,0.5-0.5
			C610.6,399.9,610.8,400.1,610.8,400.4z M609.8,406.4v-4.7h0.9v4.7C610.7,406.4,609.8,406.4,609.8,406.4z"/>
		<path fill="#FFFFFF" d="M612.6,404.2c0,1.2,0.8,1.6,1.6,1.6c0.6,0,1-0.1,1.3-0.2l0.1,0.6c-0.3,0.1-0.8,0.3-1.6,0.3
			c-1.4,0-2.3-1-2.3-2.4s0.8-2.5,2.2-2.5c1.5,0,1.9,1.4,1.9,2.2c0,0.2,0,0.3,0,0.4C615.8,404.2,612.6,404.2,612.6,404.2z
			 M615.1,403.6c0-0.5-0.2-1.4-1.2-1.4c-0.9,0-1.2,0.8-1.3,1.4H615.1z"/>
		<path fill="#FFFFFF" d="M616.9,403c0-0.5,0-0.9,0-1.3h0.8v0.8l0,0c0.2-0.4,0.8-0.9,1.6-0.9c0.7,0,1.7,0.4,1.7,2v2.8H620v-2.7
			c0-0.8-0.3-1.4-1.1-1.4c-0.6,0-1,0.4-1.1,0.9c0,0.1-0.1,0.3-0.1,0.4v2.8h-0.9V403z"/>
		<path fill="#FFFFFF" d="M625.6,406.2c-0.2,0.1-0.7,0.3-1.4,0.3c-1.4,0-2.3-1-2.3-2.4s1-2.5,2.5-2.5c0.5,0,1,0.1,1.2,0.2l-0.2,0.7
			c-0.2-0.1-0.5-0.2-1-0.2c-1.1,0-1.7,0.8-1.7,1.8c0,1.1,0.7,1.8,1.6,1.8c0.5,0,0.8-0.1,1-0.2L625.6,406.2z"/>
		<path fill="#FFFFFF" d="M627,404.2c0,1.2,0.8,1.6,1.6,1.6c0.6,0,1-0.1,1.3-0.2l0.1,0.6c-0.3,0.1-0.8,0.3-1.6,0.3
			c-1.4,0-2.3-1-2.3-2.4s0.8-2.5,2.2-2.5c1.5,0,1.9,1.4,1.9,2.2c0,0.2,0,0.3,0,0.4C630.2,404.2,627,404.2,627,404.2z M629.5,403.6
			c0-0.5-0.2-1.4-1.2-1.4c-0.9,0-1.2,0.8-1.3,1.4H629.5z"/>
		<path fill="#FFFFFF" d="M636.7,406.2c-0.2,0.1-0.7,0.3-1.4,0.3c-1.4,0-2.3-1-2.3-2.4s1-2.5,2.5-2.5c0.5,0,1,0.1,1.2,0.2l-0.2,0.7
			c-0.2-0.1-0.5-0.2-1-0.2c-1.1,0-1.7,0.8-1.7,1.8c0,1.1,0.7,1.8,1.6,1.8c0.5,0,0.8-0.1,1-0.2L636.7,406.2z"/>
		<path fill="#FFFFFF" d="M641.9,404c0,1.7-1.2,2.5-2.3,2.5c-1.3,0-2.3-0.9-2.3-2.4c0-1.6,1-2.5,2.3-2.5
			C641,401.6,641.9,402.6,641.9,404z M638.2,404.1c0,1,0.6,1.8,1.4,1.8c0.8,0,1.4-0.8,1.4-1.8c0-0.8-0.4-1.8-1.4-1.8
			C638.6,402.3,638.2,403.2,638.2,404.1z"/>
		<path fill="#FFFFFF" d="M643,403c0-0.5,0-0.9,0-1.3h0.7v0.8l0,0c0.3-0.4,0.7-0.9,1.5-0.9c0.6,0,1.1,0.4,1.3,0.9l0,0
			c0.1-0.3,0.3-0.5,0.5-0.6c0.3-0.2,0.6-0.3,1-0.3c0.6,0,1.5,0.4,1.5,2v2.8h-0.8v-2.7c0-0.9-0.3-1.4-1-1.4c-0.5,0-0.9,0.4-1,0.8
			c0,0.1-0.1,0.3-0.1,0.4v2.9h-0.8v-2.8c0-0.7-0.3-1.3-1-1.3c-0.5,0-0.9,0.4-1.1,0.9c0,0.1-0.1,0.3-0.1,0.4v2.8h-0.8V403L643,403
			L643,403z"/>
		<path fill="#FFFFFF" d="M652.1,400.4c0,0.3-0.2,0.5-0.5,0.5c-0.3,0-0.5-0.2-0.5-0.5s0.2-0.5,0.5-0.5
			C651.9,399.9,652.1,400.1,652.1,400.4z M651.1,406.4v-4.7h0.9v4.7C652,406.4,651.1,406.4,651.1,406.4z"/>
		<path fill="#FFFFFF" d="M653.4,403c0-0.5,0-0.9,0-1.3h0.8v0.8l0,0c0.2-0.4,0.8-0.9,1.6-0.9c0.7,0,1.7,0.4,1.7,2v2.8h-1v-2.7
			c0-0.8-0.3-1.4-1.1-1.4c-0.6,0-1,0.4-1.1,0.9c0,0.1-0.1,0.3-0.1,0.4v2.8h-0.9L653.4,403L653.4,403z"/>
		<path fill="#FFFFFF" d="M662.7,401.7c0,0.3,0,0.7,0,1.3v2.7c0,1.1-0.2,1.7-0.7,2.1c-0.5,0.4-1.1,0.6-1.7,0.6
			c-0.6,0-1.2-0.1-1.6-0.4l0.2-0.7c0.3,0.2,0.8,0.4,1.4,0.4c0.9,0,1.5-0.5,1.5-1.6v-0.5l0,0c-0.3,0.4-0.8,0.8-1.5,0.8
			c-1.2,0-2-1-2-2.3c0-1.6,1-2.5,2.1-2.5c0.8,0,1.3,0.4,1.5,0.8l0,0v-0.7C661.9,401.7,662.7,401.7,662.7,401.7z M661.8,403.6
			c0-0.1,0-0.3,0-0.4c-0.2-0.5-0.6-0.9-1.2-0.9c-0.8,0-1.4,0.7-1.4,1.8c0,0.9,0.5,1.7,1.4,1.7c0.5,0,1-0.3,1.2-0.9
			c0-0.1,0.1-0.3,0.1-0.5L661.8,403.6C661.9,403.6,661.8,403.6,661.8,403.6z"/>
		<path fill="#FFFFFF" d="M670.1,405.1c0,0.5,0,0.9,0,1.3h-0.7v-0.8l0,0c-0.2,0.4-0.7,0.9-1.6,0.9c-0.7,0-1.6-0.4-1.6-2.1v-2.8h0.9
			v2.6c0,0.9,0.3,1.5,1,1.5c0.6,0,1-0.4,1.1-0.8c0-0.1,0.1-0.3,0.1-0.4v-2.9h0.9L670.1,405.1L670.1,405.1z"/>
		<path fill="#FFFFFF" d="M671.5,403.3c0-0.6,0-1.1,0-1.5h0.8v0.8l0,0c0.3-0.6,0.9-0.9,1.7-0.9c1.1,0,2,1,2,2.4c0,1.7-1,2.5-2.1,2.5
			c-0.6,0-1.2-0.3-1.4-0.7l0,0v2.6h-0.8v-5.2H671.5z M672.4,404.5c0,0.1,0,0.2,0,0.4c0.2,0.6,0.7,1,1.3,1c0.9,0,1.4-0.7,1.4-1.8
			c0-0.9-0.5-1.7-1.4-1.7c-0.6,0-1.1,0.4-1.3,1.1c0,0.1-0.1,0.2-0.1,0.3L672.4,404.5L672.4,404.5z"/>
		<path fill="#FFFFFF" d="M680,400.4c0,0.3-0.2,0.5-0.5,0.5c-0.3,0-0.5-0.2-0.5-0.5c0-0.3,0.2-0.5,0.5-0.5
			C679.8,399.9,680,400.1,680,400.4z M679,406.4v-4.7h0.9v4.7C679.9,406.4,679,406.4,679,406.4z"/>
		<path fill="#FFFFFF" d="M681.3,403c0-0.5,0-0.9,0-1.3h0.8v0.8l0,0c0.2-0.4,0.8-0.9,1.6-0.9c0.7,0,1.7,0.4,1.7,2v2.8h-0.9v-2.7
			c0-0.8-0.3-1.4-1.1-1.4c-0.6,0-1,0.4-1.1,0.9c0,0.1-0.1,0.3-0.1,0.4v2.8h-0.9V403z"/>
	</g>
	
		<linearGradient id="SVGID_1_" gradientUnits="userSpaceOnUse" x1="470.4088" y1="205.6942" x2="470.4088" y2="45.097" gradientTransform="matrix(0.1414 0 0 -0.1414 500.8206 447.8253)">
		<stop  offset="0" style="stop-color:#FFFFFF"/>
		<stop  offset="0.5179" style="stop-color:#DBDADA"/>
		<stop  offset="0.5196" style="stop-color:#FFFFFF"/>
		<stop  offset="1" style="stop-color:#DDDCDC"/>
	</linearGradient>
	<path fill="url(#SVGID_1_)" d="M578.3,440.1c0,0.8-0.6,1.4-1.4,1.4h-19.1c-0.8,0-1.4-0.6-1.4-1.4v-20c0-0.8,0.6-1.4,1.4-1.4h19.1
		c0.8,0,1.4,0.6,1.4,1.4C578.3,420.1,578.3,440.1,578.3,440.1z"/>
	<g enable-background="new    ">
		<path d="M566.8,430.6c0,3.5-1.3,5.4-3.6,5.4c-2,0-3.4-1.9-3.4-5.3c0-3.5,1.5-5.4,3.6-5.4C565.6,425.4,566.8,427.3,566.8,430.6z
			 M561.3,430.7c0,2.7,0.8,4.2,2.1,4.2c1.4,0,2.1-1.7,2.1-4.3c0-2.5-0.7-4.2-2.1-4.2C562.2,426.4,561.3,427.9,561.3,430.7z"/>
	</g>
	<g enable-background="new    ">
		<path d="M574.6,430.6c0,3.5-1.3,5.4-3.6,5.4c-2,0-3.4-1.9-3.4-5.3c0-3.5,1.5-5.4,3.6-5.4C573.4,425.4,574.6,427.3,574.6,430.6z
			 M569,430.7c0,2.7,0.8,4.2,2.1,4.2c1.4,0,2.1-1.7,2.1-4.3c0-2.5-0.7-4.2-2.1-4.2C569.9,426.4,569,427.9,569,430.7z"/>
	</g>
	
		<linearGradient id="SVGID_2_" gradientUnits="userSpaceOnUse" x1="685.6481" y1="205.6942" x2="685.6481" y2="45.097" gradientTransform="matrix(0.1414 0 0 -0.1414 500.8206 447.8253)">
		<stop  offset="0" style="stop-color:#FFFFFF"/>
		<stop  offset="0.5179" style="stop-color:#DBDADA"/>
		<stop  offset="0.5196" style="stop-color:#FFFFFF"/>
		<stop  offset="1" style="stop-color:#DDDCDC"/>
	</linearGradient>
	<path fill="url(#SVGID_2_)" d="M608.7,440.1c0,0.8-0.6,1.4-1.4,1.4h-19.1c-0.8,0-1.4-0.6-1.4-1.4v-20c0-0.8,0.6-1.4,1.4-1.4h19.1
		c0.8,0,1.4,0.6,1.4,1.4V440.1z"/>
	<g enable-background="new    ">
		<path d="M597.3,430.6c0,3.5-1.3,5.4-3.6,5.4c-2,0-3.4-1.9-3.4-5.3c0-3.5,1.5-5.4,3.6-5.4C596.1,425.4,597.3,427.3,597.3,430.6z
			 M591.7,430.7c0,2.7,0.8,4.2,2.1,4.2c1.4,0,2.1-1.7,2.1-4.3c0-2.5-0.7-4.2-2.1-4.2C592.6,426.4,591.7,427.9,591.7,430.7z"/>
	</g>
	<g enable-background="new    ">
		<path d="M605,430.6c0,3.5-1.3,5.4-3.6,5.4c-2,0-3.4-1.9-3.4-5.3c0-3.5,1.5-5.4,3.6-5.4C603.8,425.4,605,427.3,605,430.6z
			 M599.5,430.7c0,2.7,0.8,4.2,2.1,4.2c1.4,0,2.1-1.7,2.1-4.3c0-2.5-0.7-4.2-2.1-4.2C600.3,426.4,599.5,427.9,599.5,430.7z"/>
	</g>
	
		<linearGradient id="SVGID_3_" gradientUnits="userSpaceOnUse" x1="898.7772" y1="205.6942" x2="898.7772" y2="45.097" gradientTransform="matrix(0.1414 0 0 -0.1414 500.8206 447.8253)">
		<stop  offset="0" style="stop-color:#FFFFFF"/>
		<stop  offset="0.5179" style="stop-color:#DBDADA"/>
		<stop  offset="0.5196" style="stop-color:#FFFFFF"/>
		<stop  offset="1" style="stop-color:#DDDCDC"/>
	</linearGradient>
	<path fill="url(#SVGID_3_)" d="M638.8,440.1c0,0.8-0.6,1.4-1.4,1.4h-19.1c-0.8,0-1.4-0.6-1.4-1.4v-20c0-0.8,0.6-1.4,1.4-1.4h19.1
		c0.8,0,1.4,0.6,1.4,1.4V440.1L638.8,440.1z"/>
	<g enable-background="new    ">
		<path d="M623.7,426.8L623.7,426.8l-1.8,1l-0.3-1.1l2.3-1.2h1.2v10.2h-1.3L623.7,426.8L623.7,426.8z"/>
	</g>
	<g enable-background="new    ">
		<path d="M627.3,435.7v-0.9l1.1-1.1c2.6-2.5,3.8-3.8,3.8-5.4c0-1-0.5-2-2-2c-0.9,0-1.7,0.5-2.2,0.9l-0.4-1c0.7-0.6,1.7-1,2.9-1
			c2.2,0,3.2,1.5,3.2,3c0,1.9-1.4,3.4-3.6,5.5l-0.8,0.8l0,0h4.6v1.2C633.9,435.7,627.3,435.7,627.3,435.7z"/>
	</g>
	
		<linearGradient id="SVGID_4_" gradientUnits="userSpaceOnUse" x1="1119.6436" y1="205.6942" x2="1119.6436" y2="45.097" gradientTransform="matrix(0.1414 0 0 -0.1414 500.8206 447.8253)">
		<stop  offset="0" style="stop-color:#FFFFFF"/>
		<stop  offset="0.5179" style="stop-color:#DBDADA"/>
		<stop  offset="0.5196" style="stop-color:#FFFFFF"/>
		<stop  offset="1" style="stop-color:#DDDCDC"/>
	</linearGradient>
	<path fill="url(#SVGID_4_)" d="M670.1,440.1c0,0.8-0.6,1.4-1.4,1.4h-19.1c-0.8,0-1.4-0.6-1.4-1.4v-20c0-0.8,0.6-1.4,1.4-1.4h19.1
		c0.8,0,1.4,0.6,1.4,1.4V440.1L670.1,440.1z"/>
	<g enable-background="new    ">
		<path d="M655.3,426.8L655.3,426.8l-1.8,1l-0.3-1.1l2.3-1.2h1.2v10.2h-1.3L655.3,426.8L655.3,426.8z"/>
	</g>
	<g enable-background="new    ">
		<path d="M665.2,425.5v0.9l-4.5,9.3h-1.4l4.5-9.1l0,0h-5v-1.2H665.2z"/>
	</g>
	<g enable-background="new    ">
		<path fill="#727272" d="M560.6,446.1c0.4-0.1,0.8-0.1,1.3-0.1c0.9,0,1.5,0.2,1.9,0.6c0.4,0.4,0.7,0.9,0.7,1.7s-0.2,1.4-0.7,1.8
			c-0.4,0.4-1.1,0.7-2,0.7c-0.4,0-0.8,0-1.1-0.1L560.6,446.1L560.6,446.1z M561.2,450.2c0.2,0,0.4,0,0.6,0c1.3,0,2-0.7,2-2
			c0-1.1-0.6-1.8-1.9-1.8c-0.3,0-0.5,0-0.7,0.1C561.2,446.5,561.2,450.2,561.2,450.2z"/>
		<path fill="#727272" d="M565.7,449.2l-0.5,1.5h-0.6l1.6-4.6h0.7l1.6,4.6h-0.6l-0.5-1.5H565.7z M567.3,448.8l-0.5-1.3
			c-0.1-0.3-0.2-0.6-0.2-0.8l0,0c-0.1,0.3-0.1,0.6-0.2,0.8l-0.5,1.3H567.3z"/>
		<path fill="#727272" d="M569.7,450.7v-2l-1.5-2.7h0.7l0.7,1.3c0.2,0.3,0.3,0.6,0.5,1l0,0c0.1-0.3,0.3-0.6,0.5-1l0.7-1.3h0.7
			l-1.6,2.7v2C570.4,450.7,569.7,450.7,569.7,450.7z"/>
		<path fill="#727272" d="M572.2,450c0.3,0.2,0.7,0.3,1.1,0.3c0.6,0,1-0.3,1-0.8c0-0.4-0.2-0.7-0.9-0.9c-0.8-0.3-1.2-0.7-1.2-1.3
			c0-0.7,0.6-1.3,1.5-1.3c0.5,0,0.8,0.1,1,0.2l-0.2,0.5c-0.2-0.1-0.5-0.2-0.9-0.2c-0.6,0-0.9,0.4-0.9,0.7c0,0.4,0.3,0.6,0.9,0.9
			c0.8,0.3,1.2,0.7,1.2,1.4s-0.5,1.3-1.6,1.3c-0.4,0-0.9-0.1-1.2-0.3L572.2,450z"/>
	</g>
	<g enable-background="new    ">
		<path fill="#727272" d="M588.5,446.1v1.9h2.2v-1.9h0.6v4.6h-0.6v-2.2h-2.2v2.2h-0.6v-4.6H588.5z"/>
		<path fill="#727272" d="M596.3,448.3c0,1.6-1,2.4-2.1,2.4c-1.2,0-2.1-0.9-2.1-2.3c0-1.5,0.9-2.4,2.1-2.4
			C595.5,446,596.3,447,596.3,448.3z M592.7,448.4c0,1,0.5,1.9,1.5,1.9c0.9,0,1.5-0.9,1.5-1.9c0-0.9-0.5-1.9-1.5-1.9
			S592.7,447.4,592.7,448.4z"/>
		<path fill="#727272" d="M597.7,446.1v2.7c0,1,0.5,1.5,1.1,1.5c0.7,0,1.1-0.5,1.1-1.5v-2.7h0.6v2.7c0,1.4-0.7,2-1.8,2
			c-0.9,0-1.7-0.5-1.7-2v-2.7H597.7z"/>
		<path fill="#727272" d="M601.4,446.1c0.3-0.1,0.7-0.1,1.1-0.1c0.6,0,1.1,0.1,1.3,0.4c0.2,0.2,0.4,0.5,0.4,0.9c0,0.6-0.4,1-0.9,1.2
			l0,0c0.4,0.1,0.6,0.5,0.7,0.9c0.2,0.6,0.3,1.1,0.4,1.3h-0.6c-0.1-0.1-0.2-0.5-0.3-1.1c-0.1-0.6-0.4-0.9-0.9-0.9H602v2h-0.6
			C601.4,450.7,601.4,446.1,601.4,446.1z M602,448.2h0.6c0.6,0,1-0.4,1-0.9c0-0.6-0.4-0.9-1.1-0.9c-0.3,0-0.5,0-0.6,0.1L602,448.2
			C601.9,448.2,602,448.2,602,448.2z"/>
		<path fill="#727272" d="M605,450c0.3,0.2,0.7,0.3,1.1,0.3c0.6,0,1-0.3,1-0.8c0-0.4-0.2-0.7-0.9-0.9c-0.8-0.3-1.2-0.7-1.2-1.3
			c0-0.7,0.6-1.3,1.5-1.3c0.5,0,0.8,0.1,1,0.2l-0.2,0.5c-0.2-0.1-0.5-0.2-0.9-0.2c-0.6,0-0.9,0.4-0.9,0.7c0,0.4,0.3,0.6,0.9,0.9
			c0.8,0.3,1.2,0.7,1.2,1.4s-0.5,1.3-1.6,1.3c-0.4,0-0.9-0.1-1.2-0.3L605,450z"/>
	</g>
	<g enable-background="new    ">
		<path fill="#727272" d="M624.5,448.7c0-0.6-0.1-1.4-0.1-2l0,0c-0.2,0.5-0.4,1.1-0.6,1.8l-0.8,2.2h-0.4l-0.7-2.2
			c-0.2-0.7-0.4-1.2-0.5-1.8l0,0c0,0.6,0,1.4-0.1,2l-0.1,2h-0.6l0.3-4.6h0.8l0.8,2.2c0.2,0.6,0.3,1.1,0.5,1.6l0,0
			c0.1-0.5,0.3-1,0.5-1.6l0.8-2.2h0.8l0.3,4.6h-0.6L624.5,448.7z"/>
		<path fill="#727272" d="M626.8,446.1v4.6h-0.6v-4.6H626.8z"/>
		<path fill="#727272" d="M627.8,450.7v-4.6h0.7l1.5,2.3c0.3,0.5,0.6,1,0.8,1.5l0,0c-0.1-0.6-0.1-1.2-0.1-1.9v-1.9h0.6v4.6h-0.6
			l-1.5-2.3c-0.3-0.5-0.6-1-0.9-1.5l0,0c0,0.6,0,1.1,0,1.9v2L627.8,450.7L627.8,450.7z"/>
		<path fill="#727272" d="M632.2,450c0.3,0.2,0.7,0.3,1.1,0.3c0.6,0,1-0.3,1-0.8c0-0.4-0.2-0.7-0.9-0.9c-0.8-0.3-1.2-0.7-1.2-1.3
			c0-0.7,0.6-1.3,1.5-1.3c0.5,0,0.8,0.1,1,0.2l-0.2,0.5c-0.2-0.1-0.5-0.2-0.9-0.2c-0.6,0-0.9,0.4-0.9,0.7c0,0.4,0.3,0.6,0.9,0.9
			c0.8,0.3,1.2,0.7,1.2,1.4s-0.5,1.3-1.6,1.3c-0.4,0-0.9-0.1-1.2-0.3L632.2,450z"/>
	</g>
	<g enable-background="new    ">
		<path fill="#727272" d="M652,450c0.3,0.2,0.7,0.3,1.1,0.3c0.6,0,1-0.3,1-0.8c0-0.4-0.2-0.7-0.9-0.9c-0.8-0.3-1.2-0.7-1.2-1.3
			c0-0.7,0.6-1.3,1.5-1.3c0.5,0,0.8,0.1,1,0.2l-0.2,0.5c-0.2-0.1-0.5-0.2-0.9-0.2c-0.6,0-0.9,0.4-0.9,0.7c0,0.4,0.3,0.6,0.9,0.9
			c0.8,0.3,1.2,0.7,1.2,1.4s-0.5,1.3-1.6,1.3c-0.4,0-0.9-0.1-1.2-0.3L652,450z"/>
		<path fill="#727272" d="M657.8,448.5H656v1.7h2v0.5h-2.6v-4.6h2.5v0.5H656v1.5h1.8C657.8,448.1,657.8,448.5,657.8,448.5z"/>
		<path fill="#727272" d="M662,450.6c-0.2,0.1-0.7,0.2-1.2,0.2c-1.3,0-2.3-0.8-2.3-2.3c0-1.4,1-2.4,2.4-2.4c0.6,0,0.9,0.1,1.1,0.2
			l-0.1,0.5c-0.2-0.1-0.5-0.2-0.9-0.2c-1.1,0-1.8,0.7-1.8,1.9c0,1.1,0.7,1.9,1.8,1.9c0.4,0,0.7-0.1,1-0.2V450.6z"/>
		<path fill="#727272" d="M662.7,450c0.3,0.2,0.7,0.3,1.1,0.3c0.6,0,1-0.3,1-0.8c0-0.4-0.2-0.7-0.9-0.9c-0.8-0.3-1.2-0.7-1.2-1.3
			c0-0.7,0.6-1.3,1.5-1.3c0.5,0,0.8,0.1,1,0.2l-0.2,0.5c-0.2-0.1-0.5-0.2-0.9-0.2c-0.6,0-0.9,0.4-0.9,0.7c0,0.4,0.3,0.6,0.9,0.9
			c0.8,0.3,1.2,0.7,1.2,1.4s-0.5,1.3-1.6,1.3c-0.4,0-0.9-0.1-1.2-0.3L662.7,450z"/>
	</g>
	<rect x="536.2" y="466.3" fill="#2F3030" width="153.5" height="15.2"/>
	<g enable-background="new    ">
		<path fill="#FFFFFF" d="M540.8,471.6c0.3-0.1,0.7-0.1,1.1-0.1c0.6,0,1,0.1,1.3,0.3c0.2,0.2,0.4,0.5,0.4,0.8c0,0.4-0.3,0.8-0.8,1
			l0,0c0.4,0.1,1,0.5,1,1.2c0,0.4-0.2,0.7-0.4,0.9c-0.3,0.3-0.8,0.4-1.6,0.4c-0.4,0-0.7,0-0.9-0.1L540.8,471.6L540.8,471.6z
			 M541.4,473.4h0.5c0.6,0,1-0.3,1-0.8s-0.4-0.8-1-0.8c-0.3,0-0.4,0-0.5,0V473.4z M541.4,475.6c0.1,0,0.3,0,0.5,0
			c0.6,0,1.2-0.2,1.2-0.9c0-0.6-0.5-0.9-1.2-0.9h-0.5V475.6z"/>
		<path fill="#FFFFFF" d="M544.9,474.5c0,0.8,0.5,1.2,1.1,1.2c0.4,0,0.7-0.1,0.9-0.2l0.1,0.4c-0.2,0.1-0.6,0.2-1.1,0.2
			c-1,0-1.6-0.7-1.6-1.7c0-1,0.6-1.8,1.6-1.8c1.1,0,1.4,1,1.4,1.6c0,0.1,0,0.2,0,0.3H544.9z M546.6,474.1c0-0.4-0.2-1-0.8-1
			c-0.6,0-0.9,0.6-0.9,1H546.6z"/>
		<path fill="#FFFFFF" d="M548.6,471.9c0,0.2-0.1,0.4-0.4,0.4c-0.2,0-0.4-0.2-0.4-0.4s0.2-0.4,0.4-0.4
			C548.4,471.5,548.6,471.7,548.6,471.9z M547.9,476.1v-3.3h0.6v3.3H547.9z"/>
		<path fill="#FFFFFF" d="M549.5,473.7c0-0.3,0-0.6,0-0.9h0.5v0.5l0,0c0.2-0.3,0.5-0.6,1.1-0.6c0.5,0,1.2,0.3,1.2,1.4v2h-0.6v-1.9
			c0-0.5-0.2-1-0.8-1c-0.4,0-0.7,0.3-0.8,0.6c0,0.1,0,0.2,0,0.3v2h-0.6C549.5,476.1,549.5,473.7,549.5,473.7z"/>
		<path fill="#FFFFFF" d="M556.2,472.8c0,0.2,0,0.5,0,0.9v1.9c0,0.8-0.2,1.2-0.5,1.5c-0.3,0.3-0.8,0.4-1.2,0.4s-0.8-0.1-1.1-0.3
			l0.2-0.5c0.2,0.1,0.6,0.3,1,0.3c0.6,0,1.1-0.3,1.1-1.2v-0.4l0,0c-0.2,0.3-0.5,0.6-1.1,0.6c-0.8,0-1.4-0.7-1.4-1.6
			c0-1.1,0.7-1.8,1.5-1.8c0.6,0,0.9,0.3,1,0.6l0,0v-0.5L556.2,472.8L556.2,472.8z M555.5,474.1c0-0.1,0-0.2,0-0.3
			c-0.1-0.4-0.4-0.6-0.8-0.6c-0.6,0-1,0.5-1,1.3c0,0.7,0.3,1.2,1,1.2c0.4,0,0.7-0.2,0.8-0.6c0-0.1,0-0.2,0-0.3V474.1z"/>
		<path fill="#FFFFFF" d="M558.6,473.8c0-0.4,0-0.7,0-1h0.5v0.7l0,0c0.2-0.4,0.5-0.7,0.9-0.7c0.1,0,0.1,0,0.2,0v0.6
			c-0.1,0-0.1,0-0.2,0c-0.4,0-0.7,0.3-0.8,0.8c0,0.1,0,0.2,0,0.3v1.8h-0.6C558.6,476.3,558.6,473.8,558.6,473.8z"/>
		<path fill="#FFFFFF" d="M561.5,471.9c0,0.2-0.1,0.4-0.4,0.4c-0.2,0-0.4-0.2-0.4-0.4s0.2-0.4,0.4-0.4
			C561.4,471.5,561.5,471.7,561.5,471.9z M560.9,476.1v-3.3h0.6v3.3H560.9z"/>
		<path fill="#FFFFFF" d="M564.8,476c-0.2,0.1-0.5,0.2-1,0.2c-1,0-1.7-0.7-1.7-1.7c0-1,0.7-1.8,1.8-1.8c0.4,0,0.7,0.1,0.8,0.2
			l-0.1,0.5c-0.1-0.1-0.4-0.2-0.7-0.2c-0.8,0-1.2,0.6-1.2,1.3c0,0.8,0.5,1.2,1.2,1.2c0.3,0,0.6-0.1,0.7-0.2L564.8,476z"/>
		<path fill="#FFFFFF" d="M565.5,471.3h0.6v2.1l0,0c0.1-0.2,0.2-0.3,0.4-0.4c0.2-0.1,0.4-0.2,0.6-0.2c0.4,0,1.2,0.3,1.2,1.4v2h-0.6
			v-1.9c0-0.5-0.2-1-0.8-1c-0.4,0-0.7,0.3-0.8,0.6c0,0.1,0,0.2,0,0.3v2h-0.6C565.5,476.1,565.5,471.3,565.5,471.3z"/>
		<path fill="#FFFFFF" d="M571.4,471.9c0,0.2-0.1,0.4-0.4,0.4c-0.2,0-0.4-0.2-0.4-0.4s0.2-0.4,0.4-0.4
			C571.3,471.5,571.4,471.7,571.4,471.9z M570.7,476.1v-3.3h0.6v3.3H570.7z"/>
		<path fill="#FFFFFF" d="M572.3,473.7c0-0.3,0-0.6,0-0.9h0.5v0.5l0,0c0.2-0.3,0.5-0.6,1.1-0.6c0.5,0,1.2,0.3,1.2,1.4v2h-0.6v-1.9
			c0-0.5-0.2-1-0.8-1c-0.4,0-0.7,0.3-0.8,0.6c0,0.1,0,0.2,0,0.3v2h-0.6C572.3,476.1,572.3,473.7,572.3,473.7z"/>
		<path fill="#FFFFFF" d="M577.8,472.8l0.4,1.7c0.1,0.4,0.2,0.7,0.2,1.1l0,0c0.1-0.3,0.2-0.7,0.3-1l0.5-1.7h0.5l0.5,1.7
			c0.1,0.4,0.2,0.7,0.3,1.1l0,0c0.1-0.3,0.1-0.7,0.3-1.1l0.5-1.7h0.6l-1.1,3.3h-0.5l-0.5-1.6c-0.1-0.4-0.2-0.7-0.3-1.1l0,0
			c-0.1,0.4-0.2,0.7-0.3,1.1l-0.5,1.6h-0.5l-1-3.3L577.8,472.8L577.8,472.8z"/>
		<path fill="#FFFFFF" d="M582.6,471.3h0.6v2.1l0,0c0.1-0.2,0.2-0.3,0.4-0.4s0.4-0.2,0.6-0.2c0.4,0,1.2,0.3,1.2,1.4v2h-0.6v-1.9
			c0-0.5-0.2-1-0.8-1c-0.4,0-0.7,0.3-0.8,0.6c0,0.1,0,0.2,0,0.3v2h-0.6C582.6,476.1,582.6,471.3,582.6,471.3z"/>
		<path fill="#FFFFFF" d="M588.2,476.1v-0.4l0,0c-0.2,0.3-0.5,0.5-1,0.5c-0.7,0-1-0.5-1-1c0-0.8,0.7-1.2,2-1.2v-0.1
			c0-0.3-0.1-0.8-0.8-0.8c-0.3,0-0.6,0.1-0.9,0.2l-0.1-0.4c0.3-0.2,0.7-0.3,1.1-0.3c1,0,1.3,0.7,1.3,1.4v1.2c0,0.3,0,0.6,0.1,0.8
			L588.2,476.1C588.2,476,588.2,476.1,588.2,476.1z M588.1,474.4c-0.7,0-1.4,0.1-1.4,0.7c0,0.4,0.3,0.6,0.6,0.6
			c0.4,0,0.7-0.3,0.8-0.6c0-0.1,0-0.1,0-0.2C588.1,474.9,588.1,474.4,588.1,474.4z"/>
		<path fill="#FFFFFF" d="M590.4,471.9v1h0.9v0.5h-0.9v1.8c0,0.4,0.1,0.6,0.5,0.6c0.2,0,0.3,0,0.4,0v0.5c-0.1,0-0.3,0.1-0.5,0.1
			c-0.3,0-0.5-0.1-0.7-0.3c-0.2-0.2-0.2-0.5-0.2-0.9v-1.9h-0.5v-0.5h0.5v-0.8L590.4,471.9z"/>
		<path fill="#FFFFFF" d="M593.4,473.7c0-0.3,0-0.6,0-0.9h0.5v0.5l0,0c0.2-0.3,0.5-0.6,1-0.6s0.8,0.3,0.9,0.7l0,0
			c0.1-0.2,0.2-0.3,0.4-0.4c0.2-0.2,0.4-0.2,0.7-0.2c0.4,0,1.1,0.3,1.1,1.4v2h-0.6v-2c0-0.6-0.2-1-0.7-1c-0.3,0-0.6,0.3-0.7,0.5
			c0,0.1,0,0.2,0,0.3v2.1h-0.6v-2c0-0.5-0.2-0.9-0.7-0.9c-0.4,0-0.7,0.3-0.7,0.6c0,0.1,0,0.2,0,0.3v2h-0.6
			C593.4,476.1,593.4,473.7,593.4,473.7z"/>
		<path fill="#FFFFFF" d="M600.8,476.1v-0.4l0,0c-0.2,0.3-0.5,0.5-1,0.5c-0.7,0-1-0.5-1-1c0-0.8,0.7-1.2,2-1.2v-0.1
			c0-0.3-0.1-0.8-0.8-0.8c-0.3,0-0.6,0.1-0.9,0.2l-0.1-0.4c0.3-0.2,0.7-0.3,1.1-0.3c1,0,1.3,0.7,1.3,1.4v1.2c0,0.3,0,0.6,0.1,0.8
			L600.8,476.1C600.8,476,600.8,476.1,600.8,476.1z M600.8,474.4c-0.7,0-1.4,0.1-1.4,0.7c0,0.4,0.3,0.6,0.6,0.6
			c0.4,0,0.7-0.3,0.8-0.6c0-0.1,0-0.1,0-0.2V474.4z"/>
		<path fill="#FFFFFF" d="M603,471.9v1h0.9v0.5H603v1.8c0,0.4,0.1,0.6,0.5,0.6c0.2,0,0.3,0,0.4,0v0.5c-0.1,0-0.3,0.1-0.5,0.1
			c-0.3,0-0.5-0.1-0.7-0.3c-0.2-0.2-0.2-0.5-0.2-0.9v-1.9H602v-0.5h0.5v-0.8L603,471.9z"/>
		<path fill="#FFFFFF" d="M605.3,471.9v1h0.9v0.5h-0.9v1.8c0,0.4,0.1,0.6,0.5,0.6c0.2,0,0.3,0,0.4,0v0.5c-0.1,0-0.3,0.1-0.5,0.1
			c-0.3,0-0.5-0.1-0.7-0.3c-0.2-0.2-0.2-0.5-0.2-0.9v-1.9h-0.5v-0.5h0.5v-0.8L605.3,471.9z"/>
		<path fill="#FFFFFF" d="M607.1,474.5c0,0.8,0.5,1.2,1.1,1.2c0.4,0,0.7-0.1,0.9-0.2l0.1,0.4c-0.2,0.1-0.6,0.2-1.1,0.2
			c-1,0-1.6-0.7-1.6-1.7c0-1,0.6-1.8,1.6-1.8c1.1,0,1.4,1,1.4,1.6c0,0.1,0,0.2,0,0.3H607.1z M608.9,474.1c0-0.4-0.2-1-0.8-1
			c-0.6,0-0.9,0.6-0.9,1H608.9z"/>
		<path fill="#FFFFFF" d="M610.2,473.8c0-0.4,0-0.7,0-1h0.5v0.7l0,0c0.2-0.4,0.5-0.7,0.9-0.7c0.1,0,0.1,0,0.2,0v0.6
			c-0.1,0-0.1,0-0.2,0c-0.4,0-0.7,0.3-0.8,0.8c0,0.1,0,0.2,0,0.3v1.8h-0.6V473.8z"/>
		<path fill="#FFFFFF" d="M612.4,475.5c0.2,0.1,0.5,0.2,0.8,0.2c0.4,0,0.6-0.2,0.6-0.5c0-0.3-0.2-0.4-0.6-0.6
			c-0.6-0.2-0.9-0.5-0.9-0.9c0-0.5,0.4-1,1.1-1c0.3,0,0.6,0.1,0.8,0.2l-0.2,0.4c-0.1-0.1-0.4-0.2-0.7-0.2c-0.4,0-0.6,0.2-0.6,0.5
			c0,0.3,0.2,0.4,0.6,0.6c0.6,0.2,0.9,0.5,0.9,1c0,0.6-0.5,1-1.2,1c-0.4,0-0.7-0.1-0.9-0.2L612.4,475.5z"/>
		<path fill="#FFFFFF" d="M616.7,473.7c0-0.3,0-0.6,0-0.9h0.5v0.5l0,0c0.2-0.3,0.5-0.6,1-0.6s0.8,0.3,0.9,0.7l0,0
			c0.1-0.2,0.2-0.3,0.4-0.4c0.2-0.2,0.4-0.2,0.7-0.2c0.4,0,1.1,0.3,1.1,1.4v2h-0.6v-2c0-0.6-0.2-1-0.7-1c-0.3,0-0.6,0.3-0.7,0.5
			c0,0.1,0,0.2,0,0.3v2.1h-0.6v-2c0-0.5-0.2-0.9-0.7-0.9c-0.4,0-0.7,0.3-0.7,0.6c0,0.1,0,0.2,0,0.3v2h-0.6
			C616.7,476.1,616.7,473.7,616.7,473.7z"/>
		<path fill="#FFFFFF" d="M625.3,474.4c0,1.2-0.9,1.8-1.7,1.8c-0.9,0-1.6-0.7-1.6-1.7c0-1.1,0.7-1.8,1.6-1.8
			C624.6,472.7,625.3,473.4,625.3,474.4z M622.6,474.4c0,0.7,0.4,1.3,1,1.3c0.6,0,1-0.5,1-1.3c0-0.6-0.3-1.3-1-1.3
			S622.6,473.8,622.6,474.4z"/>
		<path fill="#FFFFFF" d="M626,475.5c0.2,0.1,0.5,0.2,0.8,0.2c0.4,0,0.6-0.2,0.6-0.5c0-0.3-0.2-0.4-0.6-0.6
			c-0.6-0.2-0.9-0.5-0.9-0.9c0-0.5,0.4-1,1.1-1c0.3,0,0.6,0.1,0.8,0.2l-0.2,0.4c-0.1-0.1-0.4-0.2-0.7-0.2c-0.4,0-0.6,0.2-0.6,0.5
			c0,0.3,0.2,0.4,0.6,0.6c0.6,0.2,0.9,0.5,0.9,1c0,0.6-0.5,1-1.2,1c-0.4,0-0.7-0.1-0.9-0.2L626,475.5z"/>
		<path fill="#FFFFFF" d="M629.5,471.9v1h0.9v0.5h-0.9v1.8c0,0.4,0.1,0.6,0.5,0.6c0.2,0,0.3,0,0.4,0v0.5c-0.1,0-0.3,0.1-0.5,0.1
			c-0.3,0-0.5-0.1-0.7-0.3c-0.2-0.2-0.2-0.5-0.2-0.9v-1.9h-0.5v-0.5h0.5v-0.8L629.5,471.9z"/>
	</g>
	<rect x="536.2" y="481.6" fill="#CEC58E" width="153.5" height="115.2"/>
	<path fill="#003E18" d="M650.5,517.2v-7.9h-5.9l-0.2,0.6c-0.8-0.5-2.1-0.8-3.8-0.8c-1.7,0-3.3,0.6-4.7,1.6v-5h-9.7v2.9l-1.9-2.9
		h-8.8v1.2h-8.2v1.9h-14.3c-1.1-0.8-2.7-1.4-5.3-1.4h-10v5.8h1.3v7.3h-1.3v5.9h10.1c1,0,3.3,0,5-1v2.4h16.7V526h8.2v-1.2h7.6v-2.9
		l1.9,2.9h6.5c1.5,2.4,4.1,3.8,7.1,3.8c1.2,0,2.3-0.3,3.3-0.8l0.3,0.6h6.9v-5.8h0.9v-5.3L650.5,517.2
		C650.5,517.3,650.5,517.2,650.5,517.2z M586.7,513.3L586.7,513.3C586.7,513.3,586.8,513.3,586.7,513.3c0.1,0,0.1,0.1,0.1,0.3
		s0,0.3,0,0.4h-0.1V513.3z M587.1,520.6h-0.4v-1.2h0.4c0.3,0,0.5,0,0.5,0.6C587.6,520.5,587.2,520.6,587.1,520.6z M594.4,516.8
		c-0.2-0.2-0.3-0.4-0.5-0.6c0.2-0.3,0.4-0.6,0.5-1V516.8z M602.8,521.9h-0.9V521h0.9V521.9z M602.8,515.1h-0.9v-0.3h0.9V515.1z
		 M608.8,519.8h-2.4v-3h2.4V519.8z M616.9,518.9h-0.5v-6.1h0.5V518.9z M641.7,517.2v4.4c-0.9-0.4-1.1-1.8-1.1-2.7
		c0-1.6,0.8-2.9,1.7-2.9c0.6,0,1,0.4,1.2,1.2H641.7z M635.1,511.5c-0.2,0.2-0.4,0.4-0.6,0.6v-0.6H635.1z"/>
	<path fill="#D2DDBB" stroke="#231F20" stroke-width="0.25" stroke-miterlimit="10" d="M608.8,508.3h7.7v3.1h-1.4v10h1.4v3.1h-7.7
		v-3.1h1.5v-10h-1.5V508.3z"/>
	<path fill="#003E18" d="M668.2,534.7v-9h-17.9v9h2.7v4.2h-6v-4.2h2.9v-9h-16.1v-2.4h-9.6l-0.6,1.5c-1.4-1-3.5-2.1-6.6-2.1
		c-3.6,0-7.4,1.9-10.3,5c-0.9,0.9-1.6,2-2.3,3v-3h-18.2v8.6h2.9v9.4h-4.5c-0.4-2.1-1.6-3.9-3.4-5.2c2.6-1.5,4.1-3.9,4.1-6.9
		c0-7.6-4.4-10.9-14.2-10.9h-16.4v8.9h2.6v17.3h-2.6v9h17.8v-4.4c1.6,3.2,4.8,5,9.3,5c1.8,0,3.2-0.4,4.5-1.1v4.6h18.2v-8.7h-2.9v-17
		h0.6c-0.4,1.6-0.6,3.2-0.6,4.8c0,10.9,7,18,17.7,18c5.8,0,10.1-2.6,12.9-4.9v6.6H650v-9h-2.9v-4h6v4.2h-2.7v9h17.9v-9h-2.7v-17.3
		H668.2L668.2,534.7z M570.2,536.8h-0.7v-5h0.9c2,0,2.8,0.8,2.8,2.7C573.2,536,572.2,536.8,570.2,536.8z M569.5,549.1v-4.3
		c1.7,0.1,1.8,0.8,1.8,3.8c0,0.2,0,0.4,0,0.5H569.5z M634.8,551.9L634.8,551.9v-0.2V551.9z M634.8,550.7l-6.9-7.6l-1.1,1.2
		c0,0-0.1,0.1-0.2,0.2c-2.7,3.2-4.8,3.9-6.1,3.9c-2.7,0-5.4-2.3-5.4-7.3c0-4.4,1.8-7.8,4.1-7.8c3.1,0,3.5,3.4,3.5,4.5l0.1,1.4h11
		v-4.6h0.9V550.7L634.8,550.7z"/>
	<path fill="#D2DDBB" stroke="#231F20" stroke-width="0.25" stroke-miterlimit="10" d="M579.2,525v-3h1.3v-10.1h-1.3v-3h8.6
		c3.8,0,5.7,1.4,5.7,4c0,1.9-0.5,2.9-2.3,3.6c1.7,0.5,3.1,1.7,3.1,3.9c0,3.3-1.8,4.7-6.3,4.7C587.9,525,579.2,525,579.2,525z
		 M585.2,511.9v3.5h1.4c1.2,0,1.6-0.7,1.6-1.8s-0.6-1.7-1.5-1.7H585.2z M589,520c0-1.2-0.7-2-1.9-2h-1.8v4h1.9
		C588.1,522,589,521.3,589,520z"/>
	<path fill="#D2DDBB" stroke="#231F20" stroke-width="0.25" stroke-miterlimit="10" d="M594.4,510.2h13.9v5.1h-4v-2.1h-3.7v3.2h4.4
		v3.1h-4.4v3.8h3.7v-2.2h4v5.2h-13.9v-3.1h1.5v-10h-1.5V510.2z"/>
	<path fill="#D2DDBB" stroke="#231F20" stroke-width="0.25" stroke-miterlimit="10" d="M634.6,510.1h-1.5v13.1h-5l-5.9-8.8v5.8h1.8
		v3H617v-3h1.4v-10.1h-1.3v-3h6.6l5.7,8.5v-5.5h-1.6v-3h7L634.6,510.1L634.6,510.1z"/>
	<g>
		<g>
			<path fill="#003E18" d="M572.9,567.7h-2.4v-1.1h0.4v-2h-0.4v-1.1h2v3.2h0.4V567.7z M571.6,561.4c0.6,0,0.9,0.5,0.9,0.9
				c0,0.5-0.3,0.9-0.9,0.9c-0.5,0-0.9-0.5-0.9-0.9S571,561.4,571.6,561.4z"/>
			<path fill="#003E18" d="M575.8,567.7h-2.6v-1.1h0.4v-2h-0.4v-1.1h1.8l0.2,0.5c0.3-0.4,0.7-0.7,1.2-0.7c1.3,0,1.6,1,1.6,1.9v1.4
				h0.4v1.1h-2.2v-2.3c0-0.3,0-0.8-0.5-0.8c-0.4,0-0.5,0.4-0.5,0.8v1.2h0.6V567.7z"/>
			<path fill="#003E18" d="M582.9,566.4c0-0.4,0.1-1.2,0.4-2l0.3-1h1.6l0.3,1.1c0.2,0.7,0.3,1.6,0.4,1.9l0,0c0-0.3,0.1-0.9,0.2-1.4
				l0.1-0.5h-0.4v-1.1h2.1v1.1h-0.4l-1,3.2h-1.8l-0.6-1.9l-0.6,1.9h-1.8l-1-3.2h-0.2v-1.1h2.3v1.1h-0.3l0.2,0.6
				C582.8,565.6,582.9,566.2,582.9,566.4L582.9,566.4z"/>
			<path fill="#003E18" d="M590.7,567.7H588v-1.1h0.4v-4.2H588v-1.1h2.1v2.7c0.1-0.2,0.7-0.7,1.3-0.7c1.3,0,1.5,1,1.5,1.9v1.4h0.4
				v1.1h-2.2v-2.3c0-0.3,0-0.8-0.5-0.8c-0.4,0-0.5,0.4-0.5,0.8v1.2h0.6V567.7L590.7,567.7z"/>
			<path fill="#003E18" d="M593.6,563.8c0.3-0.2,1.1-0.6,1.9-0.6c1,0,2.3,0.4,2.3,1.8v1.7h0.5v1.1h-1.8l-0.2-0.4
				c-0.3,0.4-0.8,0.5-1.2,0.5c-0.8,0-1.7-0.4-1.7-1.4c0-1,0.8-1.6,1.8-1.6c0.5,0,0.8,0.2,0.8,0.3v-0.3c0-0.4-0.4-0.5-0.8-0.5
				c-0.5,0-1,0.2-1.3,0.4L593.6,563.8z M596,566.5v-0.3c0,0-0.1-0.2-0.5-0.2c-0.3,0-0.5,0.2-0.5,0.5c0,0.2,0.2,0.4,0.5,0.4
				C595.8,566.9,596,566.6,596,566.5z"/>
			<path fill="#003E18" d="M598.1,563.4h0.5v-0.7l1.6-0.5v1.3h0.8v1.1h-0.8v1.5c0,0.3-0.1,0.7,0.3,0.7c0.1,0,0.4-0.1,0.5-0.1v1.1
				c-0.3,0.1-0.8,0.2-1,0.2c-1.3,0-1.3-0.7-1.4-1.8v-1.5h-0.5V563.4L598.1,563.4z"/>
			<path fill="#003E18" d="M605.9,567.7h-2.5v-1.1h0.4v-2h-0.4v-1.1h1.6l0.2,0.5c0.1-0.2,0.5-0.6,1.1-0.6c0.9,0,1.1,0.4,1.3,0.6
				c0.3-0.3,0.7-0.6,1.3-0.6c1.4,0,1.6,1,1.6,2.1v1.2h0.4v1.2h-2.2v-2.1c0-0.4,0.1-1.1-0.3-1.1s-0.5,0.3-0.5,0.6v1.4h0.5v1.1h-2.2
				v-2.2c0-0.7,0-1-0.4-1c-0.3,0-0.4,0.2-0.4,0.5v1.5h0.5V567.7L605.9,567.7z"/>
			<path fill="#003E18" d="M611,563.8c0.3-0.2,1.1-0.6,1.9-0.6c1,0,2.3,0.4,2.3,1.8v1.7h0.5v1.1h-1.8l-0.2-0.4
				c-0.3,0.4-0.8,0.5-1.2,0.5c-0.8,0-1.7-0.4-1.7-1.4c0-1,0.8-1.6,1.8-1.6c0.5,0,0.8,0.2,0.8,0.3v-0.3c0-0.4-0.4-0.5-0.8-0.5
				c-0.5,0-1,0.2-1.3,0.4L611,563.8z M613.5,566.5v-0.3c0,0-0.1-0.2-0.5-0.2c-0.3,0-0.5,0.2-0.5,0.5c0,0.2,0.2,0.4,0.5,0.4
				C613.2,566.8,613.4,566.6,613.5,566.5z"/>
			<path fill="#003E18" d="M615.5,563.4h0.5v-0.7l1.6-0.5v1.3h0.8v1.1h-0.8v1.5c0,0.3-0.1,0.7,0.3,0.7c0.1,0,0.4-0.1,0.5-0.1v1.1
				c-0.3,0.1-0.8,0.2-1,0.2c-1.3,0-1.3-0.7-1.4-1.8v-1.5h-0.5V563.4L615.5,563.4z"/>
			<path fill="#003E18" d="M618.2,563.4h0.5v-0.7l1.6-0.5v1.3h0.8v1.1h-0.8v1.5c0,0.3-0.1,0.7,0.3,0.7c0.1,0,0.4-0.1,0.5-0.1v1.1
				c-0.3,0.1-0.8,0.2-1,0.2c-1.3,0-1.3-0.7-1.4-1.8v-1.5h-0.5V563.4L618.2,563.4z"/>
			<path fill="#003E18" d="M625.5,567.1c-0.6,0.5-1.3,0.7-2.2,0.7c-1.1,0-2.3-0.7-2.3-2.3c0-1.4,1-2.2,2.3-2.2c1,0,1.8,0.5,2,1.2
				c0.1,0.3,0.2,1,0,1.4h-2.7c0.1,0.2,0.2,0.7,0.9,0.7c0.3,0,0.7,0,1.2-0.4L625.5,567.1z M622.7,565.2h1.3c0-0.3-0.1-0.7-0.6-0.7
				C622.8,564.5,622.7,565,622.7,565.2z"/>
			<path fill="#003E18" d="M628.1,567.7h-2.4v-1.1h0.4v-2h-0.4v-1.1h1.6l0.3,0.5c0.2-0.4,0.4-0.8,1.3-0.8v1.5c-0.8,0-1.2,0.2-1.2,1
				v0.9h0.4V567.7L628.1,567.7z"/>
			<path fill="#003E18" d="M628.9,567.7v-1.5h1.1c0,0.5,0.7,0.6,0.9,0.6s0.4-0.1,0.4-0.3c0-0.3-0.6-0.3-1.3-0.5
				c-0.6-0.2-1.1-0.6-1.1-1.4c0-0.9,0.9-1.2,1.5-1.2s1.1,0.3,1.3,0.7l0.1-0.6h1.1v1.5h-1.1c0-0.4-0.4-0.7-0.9-0.7
				c-0.2,0-0.3,0.1-0.3,0.3c0,0.2,0.5,0.3,1.1,0.5c0.7,0.2,1.4,0.5,1.4,1.4c0,0.8-0.8,1.3-1.6,1.3c-0.6,0-1.1-0.3-1.3-0.6l-0.1,0.5
				H628.9L628.9,567.7z"/>
			<path fill="#003E18" d="M637.9,567.7h-2.5v-1.1h0.4v-2h-0.4v-1.1h1.6l0.2,0.5c0.1-0.2,0.5-0.6,1.1-0.6c0.9,0,1.1,0.4,1.3,0.6
				c0.3-0.3,0.7-0.6,1.3-0.6c1.4,0,1.6,1,1.6,2.1v1.2h0.4v1.2h-2.2v-2.1c0-0.4,0.1-1.1-0.3-1.1s-0.5,0.3-0.5,0.6v1.4h0.5v1.1h-2.2
				v-2.2c0-0.7,0-1-0.4-1c-0.3,0-0.4,0.2-0.4,0.5v1.5h0.5V567.7L637.9,567.7z"/>
			<path fill="#003E18" d="M642.9,565.6c0-1.4,1.2-2.2,2.3-2.2c1.4,0,2.4,0.8,2.4,2.3c0,1.4-1,2.2-2.3,2.2
				C644.1,567.8,642.9,567.1,642.9,565.6z M645.9,565.6c0-0.6-0.2-1.1-0.6-1.1c-0.3,0-0.6,0.5-0.6,1.1c0,0.7,0.3,1.2,0.6,1.2
				C645.6,566.7,645.9,566.3,645.9,565.6z"/>
			<path fill="#003E18" d="M647.7,567.7v-1.5h1.1c0,0.5,0.7,0.6,0.9,0.6s0.4-0.1,0.4-0.3c0-0.3-0.6-0.3-1.3-0.5
				c-0.6-0.2-1.1-0.6-1.1-1.4c0-0.9,0.9-1.2,1.5-1.2c0.6,0,1.1,0.3,1.3,0.7l0.1-0.6h1.1v1.5h-1.1c0-0.4-0.4-0.7-0.9-0.7
				c-0.2,0-0.3,0.1-0.3,0.3c0,0.2,0.5,0.3,1.1,0.5c0.7,0.2,1.4,0.5,1.4,1.4c0,0.8-0.8,1.3-1.6,1.3c-0.6,0-1.1-0.3-1.3-0.6l-0.1,0.5
				H647.7L647.7,567.7z"/>
			<g>
				<path fill="#003E18" d="M651.8,563.4h0.5v-0.7l1.6-0.5v1.3h0.8v1.1h-0.8v1.5c0,0.3-0.1,0.7,0.3,0.7c0.1,0,0.4-0.1,0.5-0.1v1.1
					c-0.3,0.1-0.8,0.2-1,0.2c-1.3,0-1.3-0.7-1.4-1.8v-1.5h-0.5V563.4L651.8,563.4z"/>
				<path fill="#003E18" d="M656.5,563.4c0-0.7-0.3-1.2-0.8-1.6c-0.1-0.5-0.3-1-0.8-1.3c-0.5-0.4-1.1-0.5-1.7-0.3l-1.6,0.5
					c-0.4,0.1-0.7,0.4-0.9,0.7h-0.2c-0.1,0-0.2,0-0.4,0c-0.3-0.1-0.6-0.1-1-0.1c-0.7,0-1.3,0.2-1.9,0.5c-0.6-0.3-1.3-0.5-2.1-0.5
					c-0.9,0-1.6,0.2-2.3,0.6c-0.8-0.6-1.7-0.6-2.1-0.6c-0.3,0-0.8,0.1-1.2,0.2c-0.4-0.1-0.8-0.2-1.3-0.2c-0.3,0-0.6,0-0.9,0.2
					c-0.1,0-0.2,0-0.3,0h-1.6c-0.5,0-1,0.2-1.3,0.5c-0.3-0.3-0.8-0.5-1.3-0.5h-1.1c-0.1,0-0.2,0-0.4,0c-0.3-0.1-0.6-0.1-1-0.1
					c-0.3,0-0.5,0-0.8,0.1c-0.3-0.1-0.5-0.2-0.8-0.2c-0.5,0-1,0.1-1.4,0.2c-0.1,0-0.2,0-0.2,0h-1.6c-0.3,0-0.5,0.1-0.8,0.2
					c-0.5-0.2-1-0.3-1.6-0.3c-0.5,0-0.9,0.1-1.3,0.2c-0.1-0.4-0.3-0.8-0.7-1c-0.5-0.4-1.1-0.5-1.7-0.3l-1,0.3c0,0,0,0,0-0.1
					c-0.5-0.4-1.1-0.5-1.7-0.3l-1.6,0.5c-0.4,0.1-0.7,0.4-0.9,0.7c-0.5-0.1-1-0.2-1.5-0.2c-0.8,0-1.5,0.2-2.3,0.6
					c-0.7-0.4-1.5-0.5-1.8-0.5c-0.3,0-0.8,0.1-1.2,0.2c-0.4-0.1-0.8-0.2-1.3-0.2c-0.3,0-0.6,0-0.9,0.2c-0.1,0-0.2,0-0.3,0h-1.6
					c-0.5,0-0.9,0.2-1.2,0.5c-0.1-0.1-0.1-0.1-0.2-0.2c-0.1-0.5-0.3-1-0.8-1.3c-0.5-0.4-1.1-0.5-1.7-0.3l-1.6,0.5
					c-0.4,0.1-0.7,0.4-0.9,0.7c-0.5-0.1-1-0.2-1.6-0.2c-0.7,0-1.5,0.2-2.2,0.6c-0.4-0.2-0.9-0.4-1.2-0.4v-0.1c0-1.1-0.9-1.9-1.9-1.9
					h-2.1c-1.1,0-1.9,0.9-1.9,1.9v0.2h-0.2c-0.1,0-0.2,0-0.4,0c-0.1,0-0.2,0-0.4,0h-1.9c-0.1,0-0.3,0-0.4,0c-0.1,0-0.2,0-0.4,0h-2.2
					c-0.7,0-1.3,0.4-1.6,1c-0.7-0.8-1.6-1.1-2.6-1.1c-0.4,0-0.7,0.1-1.1,0.2c-0.1,0-0.2,0-0.3,0h-0.6c-0.3-1.2-1.4-2.1-2.8-2.1
					c-1.6,0-2.8,1.2-2.8,2.8c0,0.1,0,0.2,0,0.3c-0.2,0.3-0.3,0.6-0.3,1v1.1c0,0.4,0.1,0.7,0.3,1c-0.2,0.3-0.3,0.6-0.3,1v1.1
					c0,1.1,0.9,1.9,1.9,1.9h2.4h0.1h0.1h2.6c0.1,0,0.1,0,0.2,0c0.1,0,0.1,0,0.2,0h2.2c0.8,0,1.6-0.6,1.8-1.3c0.3,0.8,1,1.3,1.8,1.3
					h1.8c0.2,0,0.4,0,0.6-0.1c0.2,0.1,0.4,0.1,0.6,0.1h1.8c0.2,0,0.5-0.1,0.7-0.1c0.2,0.1,0.5,0.1,0.7,0.1h2.7c0.1,0,0.1,0,0.2,0
					c0.1,0,0.1,0,0.2,0h2.2c0.2,0,0.3,0,0.5-0.1c0.4,0.1,0.8,0.2,1.3,0.2c0.4,0,0.8-0.1,1.1-0.2c0.1,0,0.2,0,0.3,0h1.8
					c0.1,0,0.3,0,0.4,0c0.4,0.1,0.7,0.2,1.2,0.2c0,0,1,0,1.7-0.3c0.2-0.1,0.4-0.2,0.5-0.3c0.3,0.3,0.8,0.5,1.2,0.5h2.5h0.1h0.1h2.2
					h0.1h0.1h2.2c0.2,0,0.3,0,0.5-0.1c0.4,0.1,0.8,0.2,1.3,0.2c0.4,0,0.8-0.1,1.1-0.2c0.1,0,0.2,0,0.3,0h1.8c0.1,0,0.2,0,0.3,0
					c0.3,0.1,0.7,0.2,1.2,0.2c0,0,0.8,0,1.5-0.2c0.4,0.1,0.8,0.2,1.3,0.2c0,0,1,0,1.7-0.3c0.5,0.2,1,0.3,1.6,0.3
					c0.7,0,1.2-0.1,1.8-0.3c0.2,0.1,0.4,0.1,0.6,0.1h2.4c0.1,0,0.3,0,0.4-0.1c0.1,0,0.3,0.1,0.4,0.1h1.1c0.1,0,0.3,0,0.4,0
					c0.3,0.1,0.7,0.1,1,0.1c1,0,1.9-0.4,2.5-1c0.3,0.5,0.9,0.9,1.6,0.9h2.5h0.1h0.1h2.2h0.1h0.1h2.2c0.3,0,0.6-0.1,0.8-0.2
					c0.5,0.2,1.1,0.3,1.6,0.3c0.6,0,1.1-0.1,1.6-0.3c0.2,0.1,0.5,0.2,0.8,0.2h1.1c0.1,0,0.3,0,0.4,0c0.3,0.1,0.7,0.1,1,0.1
					c0.6,0,1.2-0.2,1.7-0.4c0.5,0.3,1.1,0.5,1.9,0.5c0,0,1,0,1.7-0.3c0.7-0.3,1.2-1,1.2-1.8v-1.1c0-0.4-0.1-0.7-0.3-1
					c0.2-0.3,0.3-0.7,0.3-1v-1.2H656.5L656.5,563.4z"/>
			</g>
		</g>
		<g>
			<path fill="#D2DDBB" d="M572.9,567.7h-2.4v-1.1h0.4v-2h-0.4v-1.1h2v3.2h0.4V567.7z M571.6,561.4c0.6,0,0.9,0.5,0.9,0.9
				c0,0.5-0.3,0.9-0.9,0.9c-0.5,0-0.9-0.5-0.9-0.9C570.7,561.8,571,561.4,571.6,561.4z"/>
			<path fill="#D2DDBB" d="M575.8,567.7h-2.6v-1.1h0.4v-2h-0.4v-1.1h1.8l0.2,0.5c0.3-0.4,0.7-0.7,1.2-0.7c1.3,0,1.6,1,1.6,1.9v1.4
				h0.4v1.1h-2.2v-2.3c0-0.3,0-0.8-0.5-0.8c-0.4,0-0.5,0.4-0.5,0.8v1.2h0.6V567.7z"/>
			<path fill="#D2DDBB" d="M582.9,566.3c0-0.4,0.1-1.2,0.4-2l0.3-1h1.6l0.3,1.1c0.2,0.7,0.3,1.6,0.4,1.9l0,0c0-0.3,0.1-0.9,0.2-1.4
				l0.1-0.5h-0.4v-1.1h2.1v1.1h-0.4l-1,3.2h-1.8l-0.6-1.9l-0.6,1.9h-1.8l-1-3.2h-0.2v-1.1h2.3v1.1h-0.3l0.2,0.6
				C582.8,565.5,582.9,566.1,582.9,566.3L582.9,566.3z"/>
			<path fill="#D2DDBB" d="M590.7,567.7H588v-1.1h0.4v-4.2H588v-1.1h2.1v2.7c0.1-0.2,0.7-0.7,1.3-0.7c1.3,0,1.5,1,1.5,1.9v1.4h0.4
				v1.1h-2.2v-2.3c0-0.3,0-0.8-0.5-0.8c-0.4,0-0.5,0.4-0.5,0.8v1.2h0.6V567.7L590.7,567.7z"/>
			<path fill="#D2DDBB" d="M593.6,563.7c0.3-0.2,1.1-0.6,1.9-0.6c1,0,2.3,0.4,2.3,1.8v1.7h0.5v1.1h-1.8l-0.2-0.4
				c-0.3,0.4-0.8,0.5-1.2,0.5c-0.8,0-1.7-0.4-1.7-1.4c0-1,0.8-1.6,1.8-1.6c0.5,0,0.8,0.2,0.8,0.3v-0.3c0-0.4-0.4-0.5-0.8-0.5
				c-0.5,0-1,0.2-1.3,0.4L593.6,563.7z M596,566.4v-0.3c0,0-0.1-0.2-0.5-0.2c-0.3,0-0.5,0.2-0.5,0.5c0,0.2,0.2,0.4,0.5,0.4
				C595.8,566.8,596,566.6,596,566.4z"/>
			<path fill="#D2DDBB" d="M598.1,563.4h0.5v-0.8l1.6-0.5v1.3h0.8v1.1h-0.8v1.5c0,0.3-0.1,0.7,0.3,0.7c0.1,0,0.4-0.1,0.5-0.1v1.1
				c-0.3,0.1-0.8,0.2-1,0.2c-1.3,0-1.3-0.7-1.4-1.8v-1.5h-0.5V563.4L598.1,563.4z"/>
			<path fill="#D2DDBB" d="M605.9,567.7h-2.5v-1.1h0.4v-2h-0.4v-1.1h1.6l0.2,0.5c0.1-0.2,0.5-0.6,1.1-0.6c0.9,0,1.1,0.4,1.3,0.6
				c0.3-0.3,0.7-0.6,1.3-0.6c1.4,0,1.6,1,1.6,2.1v1.2h0.4v1.2h-2.2v-2.1c0-0.4,0.1-1.1-0.3-1.1s-0.5,0.3-0.5,0.6v1.4h0.5v1.1h-2.2
				v-2.2c0-0.7,0-1-0.4-1c-0.3,0-0.4,0.2-0.4,0.5v1.5h0.5V567.7L605.9,567.7z"/>
			<path fill="#D2DDBB" d="M611,563.7c0.3-0.2,1.1-0.6,1.9-0.6c1,0,2.3,0.4,2.3,1.8v1.7h0.5v1.1h-1.8l-0.2-0.4
				c-0.3,0.4-0.8,0.5-1.2,0.5c-0.8,0-1.7-0.4-1.7-1.4c0-1,0.8-1.6,1.8-1.6c0.5,0,0.8,0.2,0.8,0.3v-0.3c0-0.4-0.4-0.5-0.8-0.5
				c-0.5,0-1,0.2-1.3,0.4L611,563.7z M613.5,566.4v-0.3c0,0-0.1-0.2-0.5-0.2c-0.3,0-0.5,0.2-0.5,0.5c0,0.2,0.2,0.4,0.5,0.4
				C613.2,566.7,613.4,566.6,613.5,566.4z"/>
			<path fill="#D2DDBB" d="M615.5,563.4h0.5v-0.8l1.6-0.5v1.3h0.8v1.1h-0.8v1.5c0,0.3-0.1,0.7,0.3,0.7c0.1,0,0.4-0.1,0.5-0.1v1.1
				c-0.3,0.1-0.8,0.2-1,0.2c-1.3,0-1.3-0.7-1.4-1.8v-1.5h-0.5V563.4L615.5,563.4z"/>
			<path fill="#D2DDBB" d="M618.2,563.4h0.5v-0.8l1.6-0.5v1.3h0.8v1.1h-0.8v1.5c0,0.3-0.1,0.7,0.3,0.7c0.1,0,0.4-0.1,0.5-0.1v1.1
				c-0.3,0.1-0.8,0.2-1,0.2c-1.3,0-1.3-0.7-1.4-1.8v-1.5h-0.5V563.4L618.2,563.4z"/>
			<path fill="#D2DDBB" d="M625.5,567.1c-0.6,0.5-1.3,0.7-2.2,0.7c-1.1,0-2.3-0.7-2.3-2.3c0-1.4,1-2.2,2.3-2.2c1,0,1.8,0.5,2,1.2
				c0.1,0.3,0.2,1,0,1.4h-2.7c0.1,0.2,0.2,0.7,0.9,0.7c0.3,0,0.7,0,1.2-0.4L625.5,567.1z M622.7,565.1h1.3c0-0.3-0.1-0.7-0.6-0.7
				C622.8,564.4,622.7,564.9,622.7,565.1z"/>
			<path fill="#D2DDBB" d="M628.1,567.7h-2.4v-1.1h0.4v-2h-0.4v-1.1h1.6l0.3,0.5c0.2-0.4,0.4-0.8,1.3-0.8v1.5c-0.8,0-1.2,0.2-1.2,1
				v0.9h0.4V567.7L628.1,567.7z"/>
			<path fill="#D2DDBB" d="M628.9,567.7v-1.5h1.1c0,0.5,0.7,0.6,0.9,0.6s0.4-0.1,0.4-0.3c0-0.3-0.6-0.3-1.3-0.5
				c-0.6-0.2-1.1-0.6-1.1-1.4c0-0.9,0.9-1.2,1.5-1.2s1.1,0.3,1.3,0.7l0.1-0.6h1.1v1.5h-1.1c0-0.4-0.4-0.7-0.9-0.7
				c-0.2,0-0.3,0.1-0.3,0.3c0,0.2,0.5,0.3,1.1,0.5c0.7,0.2,1.4,0.5,1.4,1.4c0,0.8-0.8,1.3-1.6,1.3c-0.6,0-1.1-0.3-1.3-0.6l-0.1,0.5
				H628.9L628.9,567.7z"/>
			<path fill="#D2DDBB" d="M637.9,567.7h-2.5v-1.1h0.4v-2h-0.4v-1.1h1.6l0.2,0.5c0.1-0.2,0.5-0.6,1.1-0.6c0.9,0,1.1,0.4,1.3,0.6
				c0.3-0.3,0.7-0.6,1.3-0.6c1.4,0,1.6,1,1.6,2.1v1.2h0.4v1.2h-2.2v-2.1c0-0.4,0.1-1.1-0.3-1.1s-0.5,0.3-0.5,0.6v1.4h0.5v1.1h-2.2
				v-2.2c0-0.7,0-1-0.4-1c-0.3,0-0.4,0.2-0.4,0.5v1.5h0.5V567.7L637.9,567.7z"/>
			<path fill="#D2DDBB" d="M642.9,565.5c0-1.4,1.2-2.2,2.3-2.2c1.4,0,2.4,0.8,2.4,2.3c0,1.4-1,2.2-2.3,2.2
				C644.1,567.8,642.9,567,642.9,565.5z M645.9,565.5c0-0.6-0.2-1.1-0.6-1.1c-0.3,0-0.6,0.5-0.6,1.1c0,0.7,0.3,1.2,0.6,1.2
				C645.6,566.7,645.9,566.2,645.9,565.5z"/>
			<path fill="#D2DDBB" d="M647.7,567.7v-1.5h1.1c0,0.5,0.7,0.6,0.9,0.6s0.4-0.1,0.4-0.3c0-0.3-0.6-0.3-1.3-0.5
				c-0.6-0.2-1.1-0.6-1.1-1.4c0-0.9,0.9-1.2,1.5-1.2c0.6,0,1.1,0.3,1.3,0.7l0.1-0.6h1.1v1.5h-1.1c0-0.4-0.4-0.7-0.9-0.7
				c-0.2,0-0.3,0.1-0.3,0.3c0,0.2,0.5,0.3,1.1,0.5c0.7,0.2,1.4,0.5,1.4,1.4c0,0.8-0.8,1.3-1.6,1.3c-0.6,0-1.1-0.3-1.3-0.6l-0.1,0.5
				H647.7L647.7,567.7z"/>
			<path fill="#D2DDBB" d="M651.8,563.4h0.5v-0.8l1.6-0.5v1.3h0.8v1.1h-0.8v1.5c0,0.3-0.1,0.7,0.3,0.7c0.1,0,0.4-0.1,0.5-0.1v1.1
				c-0.3,0.1-0.8,0.2-1,0.2c-1.3,0-1.3-0.7-1.4-1.8v-1.5h-0.5V563.4L651.8,563.4z"/>
		</g>
	</g>
	<path fill="#D2DDBB" stroke="#231F20" stroke-width="0.25" stroke-miterlimit="10" d="M644.5,525.5c-0.5,0.9-1.9,1.7-3.7,1.7
		c-4.1,0-7.3-3.2-7.3-8.2c0-5.1,3.5-8.5,7.1-8.5c3.4,0,4.1,1.6,4.5,1.9l0.5-1.7h3.5v6.8H645c-0.1-1.9-1.3-2.9-2.6-2.9
		c-1.9,0-3.2,2-3.2,4.4c0,2.4,1.2,4.3,3.2,4.3c1.3,0,1.9-0.5,2.2-1.1v-1h-1.4v-2.5h7.7v2.5H650v5.8h-4.8L644.5,525.5z"/>
	<path fill="#D2DDBB" stroke="#231F20" stroke-width="0.25" stroke-miterlimit="10" d="M556,524.4h15c10.7,0,12.8,4.3,12.8,9.5
		c0,3.6-2.9,6.2-6.7,6.7c3.2,0.5,6.1,3.3,6.1,6.6c0,2,0.3,3.2,1.1,3.2c0.7,0,1.1-0.6,1.1-1.5v-1.5h3.1v2.6c0,3.9-1.6,7.4-6.8,7.4
		c-6.1,0-9-3.2-9-8.6c0-4.2-0.5-5.3-4.6-5.3v7.2h2.8v6.1h-14.9v-6.1h2.6v-20.2h-2.6L556,524.4C556.1,524.4,556,524.4,556,524.4z
		 M568.1,530.3v7.9h2.1c2.7,0,4.5-1.3,4.5-3.8c0-2.7-1.5-4.1-4.2-4.1H568.1z"/>
	<path fill="#D2DDBB" stroke="#231F20" stroke-width="0.25" stroke-miterlimit="10" d="M587.6,529.1h15.3v5.9h-2.9v19.8h2.9v5.9
		h-15.3v-5.9h2.9v-19.7h-2.9V529.1z"/>
	<path fill="#D2DDBB" stroke="#231F20" stroke-width="0.25" stroke-miterlimit="10" d="M633.3,551.3c-3.2,3.5-8,6.6-14,6.6
		c-9.8,0-16.3-6.3-16.3-16.6c0-10.6,8-17,14-17c4.6,0,6.7,2.6,7.2,3.2l1.1-2.6h7.3v13h-8.3c-0.1-3-1.6-5.9-4.9-5.9s-5.5,4.1-5.5,9.1
		c0,4.6,2.4,8.7,6.8,8.7c3.9,0,7-4.1,7.4-4.6L633.3,551.3z"/>
	<path fill="#D2DDBB" stroke="#231F20" stroke-width="0.25" stroke-miterlimit="10" d="M633.6,527.1h15v6.1h-2.9v7h8.8v-7h-2.7v-6.1
		h15v6.1h-2.7v20.1h2.7v6.1h-15v-6.1h2.7v-7h-8.8v7h2.9v6.1h-15v-6.1h2.6v-20.1h-2.6V527.1L633.6,527.1z"/>
	<g>
		<path fill="#231F20" d="M581.8,555.9c-5.2,0-7.7-2.4-7.7-7.4c0-4.8-0.9-6.5-5.9-6.5h-1.3v9.7h2.8v3.6h-12.3v-3.6h2.6v-22.7h-2.6
			v-3.5h13.7c10.6,0,11.5,4.3,11.5,8.3c0,3-2.9,5.5-7.4,6.4l-3,0.6l3,0.5c3.7,0.6,6.8,3.3,6.8,5.9c0,1.2,0,4.5,2.4,4.5
			c1.2,0,2.4-0.9,2.4-2.8v-0.2h0.5v1.3C587.2,553.9,585.3,555.9,581.8,555.9z M566.5,541.8h1.6c5.3,0,6.2,2.1,6.2,6.8
			c0,4.8,2.4,7.1,7.5,7.1c3.5,0,5.2-2,5.2-5.9V549c-0.1,1.9-1.4,2.7-2.6,2.7c-2.7,0-2.7-3.4-2.7-4.7c0-2.5-3.1-5.1-6.6-5.7l-4.6-0.7
			l4.6-0.9c4.4-0.8,7.2-3.2,7.2-6.1c0-3.9-0.9-8-11.2-8h-13.4v3h2.6V552h-2.6v3h11.8v-3h-2.8L566.5,541.8L566.5,541.8z M570.2,539.8
			h-3.7v-10.9h3.9c3.6,0,5.8,2.1,5.8,5.7C576.2,537.7,573.9,539.8,570.2,539.8z M566.8,539.5h3.4c3.5,0,5.8-2,5.8-5.1
			c0-3.4-2.1-5.4-5.5-5.4h-3.6L566.8,539.5L566.8,539.5z"/>
	</g>
	<g>
		<path fill="#231F20" d="M601.6,559.5h-12.8V556h2.9v-22.2h-2.9v-3.4h12.8v3.4h-2.9V556h2.9C601.6,556,601.6,559.5,601.6,559.5z
			 M589.1,559.2h12.2v-2.9h-2.9v-22.7h2.9v-2.9h-12.2v2.9h2.9v22.7h-2.9V559.2z"/>
	</g>
	<g>
		<path fill="#231F20" d="M619.5,556.4c-9.2,0-15-5.9-15-15.3c0-10.1,7.6-15.7,12.7-15.7c3.8,0,5.7,2,6.1,2.6l1.4,1.8l1.6-3.9h5.1
			v10.5h-5.9v-0.1c-0.6-3.5-2.9-5.7-6.1-5.7c-4,0-6.8,4.4-6.8,10.4c0,5.9,3.3,9.9,8.1,9.9c2.5,0,4.9-1.3,7.3-3.8l0.1-0.1l3.6,4
			l-0.1,0.1C629.3,553.6,625.1,556.4,619.5,556.4z M617.3,525.7c-5.1,0-12.5,5.5-12.5,15.4c0,9.2,5.7,15,14.7,15
			c5.5,0,9.4-2.7,11.8-5l-3.3-3.6c-2.4,2.5-4.9,3.8-7.4,3.8c-4.9,0-8.4-4.2-8.4-10.2c0-6.2,3-10.7,7.1-10.7c3.3,0,5.7,2.2,6.3,5.9
			h5.4v-10h-4.7l-1.7,4.2l-1.7-2.2C622.7,527.5,620.9,525.7,617.3,525.7z"/>
	</g>
	<g>
		<path fill="#231F20" d="M665.6,558.2h-12.4v-3.6h2.7V545h-11.3v9.5h2.9v3.6H635v-3.6h2.6v-22.7h-2.5l-0.2-3.4h12.3v3.6h-2.9v9.5
			l11.5-0.2v-9.5h-2.7v-3.6h12.4v3.6h-2.7v22.7h2.7C665.6,554.6,665.6,558.2,665.6,558.2z M653.4,557.9h11.9v-3h-2.7v-23.3h2.7v-3
			h-11.9v3h2.7v10h-0.1l-11.9,0.2v-9.9h2.9v-3h-11.8l0.2,2.8h2.6V555h-2.6v3h11.8v-3h-2.9v-10.1h11.9v10h-2.7L653.4,557.9
			L653.4,557.9z"/>
	</g>
	<rect x="531.1" y="603.3" fill="#F3E6E1" width="163.5" height="22.6"/>
	<rect x="531.1" y="335.6" fill="#E3E3E3" width="163.5" height="31.7"/>
	<polygon fill="#C9C9C9" points="544.6,619.8 539,614.7 544.5,609.2 545.2,609.8 540.4,614.7 545.2,619.1 	"/>
	<polygon fill="#C9C9C9" points="576.5,619.8 575.8,619.1 580.3,614.7 575.8,609.8 576.5,609.2 581.6,614.7 	"/>
	<g>
		<polygon fill="#0EA9D6" points="618.1,621 607.6,621 607.6,610.7 611.4,610.7 611.4,611.7 608.6,611.7 608.6,620 617.1,620 
			617.1,611.7 614.4,611.7 614.4,610.7 618.1,610.7 		"/>
	</g>
	<polygon fill="#0EA9D6" points="615.2,609.2 612.9,607 612.8,607 610.3,609.2 611,609.9 612.3,608.6 612.3,615.9 613.3,615.9 
		613.3,608.7 614.5,609.9 	"/>
	<path fill="#0EA9D6" d="M653.8,618.5V610c0-0.6-0.3-1-0.5-1.2c-0.5-0.4-1.1-0.4-1.1-0.4h-4.6c-0.5,0-0.9,0.2-1.1,0.4
		c-0.2-0.2-0.5-0.4-1.1-0.4h-4.7c-0.7,0-1.5,0.4-1.5,1.6v8.5c0,0.1-0.1,0.6,0.3,1.1c0.2,0.2,0.5,0.4,1.1,0.4h4.8h0.1
		c0.2,0,0.3,0.2,0.3,0.7h1c0-0.3,0.1-0.6,0.2-0.7c0.1-0.1,0.2,0,0.3,0h4.8c0.6,0,0.9-0.2,1.1-0.4
		C653.8,619.1,653.8,618.5,653.8,618.5z M646.1,619c-0.1,0-0.2,0-0.3,0c-0.1,0-0.2,0-0.2,0h-4.8c-0.1,0-0.3,0-0.4-0.1
		c-0.1-0.1-0.1-0.3-0.1-0.4V610c0-0.3,0.1-0.6,0.6-0.6l0,0h4.6c0.2,0,0.4,0,0.5,0.1c0.1,0.1,0.1,0.4,0.1,0.4V619L646.1,619z
		 M652.7,618.9c-0.1,0.1-0.3,0.1-0.4,0.1h-4.7c0,0-0.3-0.1-0.6,0V610c0,0,0,0,0-0.1l0,0c0,0,0-0.2,0.1-0.4c0.1-0.1,0.3-0.2,0.5-0.2
		h4.6c0,0,0.3,0,0.4,0.1c0.1,0.1,0.2,0.3,0.2,0.5v8.6C652.8,618.6,652.8,618.8,652.7,618.9z"/>
	<path fill="#0EA9D6" d="M683.9,620.9h-10.2v-10.1h10.2V620.9z M674.6,620h8.4v-8.3h-8.4V620z"/>
	<polygon fill="#0EA9D6" points="686.7,618.2 684.5,618.2 684.5,617.2 685.7,617.2 685.7,608.9 677.4,608.9 677.4,610.2 
		676.5,610.2 676.5,607.9 686.7,607.9 	"/>
	<circle cx="535.7" cy="340.8" r="1.3"/>
	<circle cx="539.4" cy="340.8" r="1.3"/>
	<circle cx="546.4" cy="340.8" r="1.3"/>
	<circle cx="550" cy="340.8" r="1.3"/>
	<circle cx="543" cy="340.8" r="1.3"/>
	<text transform="matrix(1 0 0 1 553.0254 343.2559)" font-family="'HelveticaNeue-Medium'" font-size="6.8291">L</text>
	<text transform="matrix(1 0 0 1 556.4053 343.2559)" font-family="'HelveticaNeue-Medium'" font-size="6.8291">C</text>
	<text transform="matrix(1 0 0 1 561.3867 343.2559)" font-family="'HelveticaNeue-Medium'" font-size="6.8291">T</text>
	<text transform="matrix(1 0 0 1 565.5566 343.2559)" font-family="'HelveticaNeue-Medium'" font-size="6.8291">V</text>
	<g enable-background="new    ">
		<path d="M602.1,341.8c0,0.2,0.1,0.3,0.2,0.4c0.1,0.1,0.3,0.2,0.4,0.2c0.2,0,0.3-0.1,0.5-0.2c0.1-0.1,0.2-0.2,0.3-0.4
			c0.1-0.2,0.1-0.3,0.1-0.5c0-0.2,0-0.3,0.1-0.5l0,0c-0.1,0.2-0.2,0.3-0.4,0.4c-0.2,0.1-0.3,0.1-0.5,0.1s-0.4,0-0.6-0.1
			c-0.2-0.1-0.3-0.2-0.4-0.3c-0.1-0.1-0.2-0.3-0.3-0.5c-0.1-0.2-0.1-0.4-0.1-0.6c0-0.2,0-0.4,0.1-0.6c0.1-0.2,0.2-0.3,0.3-0.5
			c0.1-0.1,0.3-0.2,0.5-0.3s0.4-0.1,0.6-0.1c0.3,0,0.6,0.1,0.8,0.2c0.2,0.1,0.4,0.3,0.5,0.5c0.1,0.2,0.2,0.4,0.2,0.7
			c0,0.3,0.1,0.6,0.1,0.9c0,0.3,0,0.5-0.1,0.8c-0.1,0.3-0.1,0.5-0.3,0.7c-0.1,0.2-0.3,0.4-0.5,0.5s-0.6,0.4-0.9,0.4
			c-0.2,0-0.3,0-0.5-0.1c-0.2-0.1-0.3-0.1-0.4-0.2c-0.1-0.1-0.2-0.2-0.3-0.4c-0.1-0.1-0.1-0.3-0.1-0.5H602.1z M602.8,339
			c-0.1,0-0.2,0-0.3,0.1c-0.1,0-0.2,0.1-0.2,0.2c-0.1,0.1-0.1,0.2-0.1,0.3s0,0.2,0,0.3s0,0.2,0,0.3s0.1,0.2,0.1,0.3
			c0.1,0.1,0.1,0.1,0.2,0.2c0.1,0.1,0.2,0.1,0.3,0.1c0.1,0,0.2,0,0.3-0.1c0.1,0,0.2-0.1,0.2-0.2s0.1-0.2,0.1-0.3c0-0.1,0-0.2,0-0.3
			s0-0.2,0-0.3s-0.1-0.2-0.1-0.3c-0.1-0.1-0.1-0.1-0.2-0.2C603,339,602.9,339,602.8,339z"/>
		<path d="M605,339.7h0.9v0.8H605V339.7z M605,342h0.9v0.8H605V342z"/>
		<path d="M609.6,341.8H609v1h-0.7v-1h-1.9v-0.7l1.9-2.6h0.7v2.8h0.6V341.8z M607,341.3h1.3v-1.9l0,0L607,341.3z"/>
		<path d="M610,338.5h3v0.6c-0.2,0.3-0.4,0.5-0.6,0.8c-0.2,0.3-0.3,0.6-0.5,0.9c-0.1,0.3-0.3,0.6-0.3,1c0,0.4-0.1,0.7-0.2,1.1h-0.8
			c0-0.3,0.1-0.7,0.2-1c0.1-0.3,0.2-0.7,0.4-1c0.1-0.3,0.3-0.6,0.5-0.9c0.2-0.3,0.4-0.6,0.6-0.8H610C610,339.2,610,338.5,610,338.5z
			"/>
		<path d="M616.6,338.4h0.8l1.7,4.4h-0.8l-0.4-1.2h-1.8l-0.4,1.2h-0.8L616.6,338.4z M616.3,341.1h1.4l-0.7-1.9l0,0L616.3,341.1z"/>
		<path d="M619.4,338.4h1.1l1.2,3.5l0,0l1.2-3.5h1.1v4.4h-0.7v-3.4l0,0l-1.2,3.4h-0.6l-1.2-3.4l0,0v3.4h-0.7v-4.4H619.4z"/>
	</g>
	<g>
		<path d="M690.9,343.4h-11.5v-5.1h11.5V343.4z M679.5,343.2h11v-4.6h-11V343.2z"/>
	</g>
	<rect x="680" y="339.1" width="6.9" height="3.4"/>
	<rect x="691.2" y="340.1" width="0.7" height="1.7"/>
	<path fill="#C2C3C7" d="M689.4,360c0,1.5-1.2,2.7-2.7,2.7H538.4c-1.5,0-2.7-1.2-2.7-2.7v-9.5c0-1.5,1.2-2.7,2.7-2.7h148.3
		c1.5,0,2.7,1.2,2.7,2.7V360L689.4,360z"/>
	<text transform="matrix(1 0 0 1 581.1406 358.3081)" font-family="'HelveticaNeue'" font-size="8.7895">live.lifechurch.tv</text>
	<path d="M682.2,352.8v1.5l2.4-1.6l-2.4-1.6v1l0,0c-1.8,0-3.3,1.5-3.3,3.3s1.5,3.3,3.3,3.3s3.3-1.5,3.3-3.3h-0.7
		c0,1.5-1.2,2.7-2.7,2.7c-1.5,0-2.7-1.2-2.7-2.7C679.5,354,680.7,352.8,682.2,352.8"/>
</g>
</svg>
