<?xml version="1.0" encoding="UTF-8" standalone="no"?>
<svg width="71px" height="62px" viewBox="0 0 71 62" version="1.1" xmlns="http://www.w3.org/2000/svg" xmlns:xlink="http://www.w3.org/1999/xlink">
    <!-- Generator: sketchtool 40.1 (33804) - http://www.bohemiancoding.com/sketch -->
    <title>D5729D64-D2F8-4013-BE8B-A25272A92AA8</title>
    <desc>Created with sketchtool.</desc>
    <defs></defs>
    <g id="Web" stroke="none" stroke-width="1" fill="none" fill-rule="evenodd">
        <g id="Relief_Banner" transform="translate(-1015.000000, -32.000000)" fill="#FFFFFF">
            <g id="Group-2" transform="translate(1015.000000, 32.000000)">
                <g id="Group">
                    <path d="M67.1728255,36.1916501 C67.4784432,35.384935 67.602641,34.5078133 67.5239607,33.6280596 C67.2749148,30.8696993 64.95092,28.682488 62.1593952,28.4989044 C62.0410497,28.4910083 61.9233544,28.4811383 61.8037083,28.4804803 L46.2835328,28.4192857 C46.5163225,27.6783712 46.6054068,26.9104784 46.5345295,26.1419277 C46.496815,25.727384 46.4077307,25.3279745 46.2822323,24.9443571 C45.5363952,22.6643671 43.3372485,21.0048765 40.8149274,20.9950064 L31.1619608,20.956842 L27.305326,20.9417079 L26.5477843,20.9384179 L25.7271684,20.9351278 C20.0960003,20.9127556 14.0506227,26.861786 9.16008983,31.7270808 L2.02164143,31.6987866 C0.944176595,31.6941805 0.0669888668,32.5745923 0.0630873646,33.6649079 C0.0591858625,34.7552235 0.928570587,35.6422153 2.00603542,35.6468213 L9.97160227,35.6784056 C10.5717833,35.6803796 11.1023876,35.4033592 11.4619761,34.9736814 L11.718825,34.7177172 C15.8973338,30.5604366 21.6188866,24.8673705 25.7122126,24.8831626 L29.1695937,24.8969807 L34.1921275,24.9167209 L40.7993213,24.9430411 C41.7584406,24.9469892 42.5706033,25.6313152 42.6492836,26.5011988 C42.6935006,26.9966772 42.5380908,27.4743894 42.2090641,27.8369506 C41.9249047,28.1501613 41.5503605,28.332429 41.1407028,28.3784894 L36.4836097,28.3600652 C36.4146832,28.3594072 32.5990141,28.3653292 32.5990141,28.3653292 C31.5215493,28.3607232 30.6443616,29.2411349 30.64046,30.3314505 C30.6365585,31.4217661 31.5065935,32.3087579 32.5834081,32.313364 L40.9280709,32.3462643 L44.7417892,32.3613984 L60.5038578,32.423251 L61.7887525,32.428515 C62.7472216,32.432463 63.5600345,33.1167891 63.6387148,33.9873307 C63.6829318,34.4828091 63.527522,34.9598633 63.1984953,35.3224245 C62.8688184,35.6863017 62.4194954,35.8856774 61.9324579,35.8837034 L41.5757203,35.8034267 C40.4982554,35.7988207 39.621718,36.6792324 39.6171662,37.769548 C39.6132647,38.790115 40.3779591,39.6224923 41.3591869,39.7297473 C41.4261627,39.7369853 56.3435561,39.809366 56.3435561,39.809366 L61.4857359,39.8297641 L61.9175021,39.8317382 L62.4799687,39.8337122 L65.3989425,39.8455563 C65.8853298,39.8475303 66.3333523,40.0501961 66.6604282,40.4167053 C66.9862036,40.7818985 67.1396627,41.2563207 67.0902437,41.7557471 C67.0044106,42.6249727 66.1870459,43.3033767 65.2285769,43.2994287 L62.4663134,43.2882426 L61.4584254,43.2842945 L42.7006534,43.2105979 C41.6231885,43.2059919 40.7466511,44.0864036 40.7420993,45.1767192 C40.7381978,46.1966282 41.5028922,47.0296635 42.48412,47.1369185 C42.5510958,47.1441565 47.1672231,47.1757408 47.1672231,47.1757408 L52.3159054,47.196139 L61.2386407,47.2316713 C61.725028,47.2336453 62.1737008,47.4363111 62.5001264,47.8028203 C62.8259019,48.1686715 62.9774102,48.6437517 62.9299419,49.1418621 C62.8447591,50.0110878 62.0267442,50.6894917 61.0682752,50.6855437 L55.8916321,50.6651455 L52.2820924,50.6506694 L41.5184982,50.608557 C40.4410334,50.603951 39.5644959,51.4843627 39.5599442,52.5746783 C39.5560427,53.5945873 40.3207371,54.4276226 41.3019649,54.5348776 C41.3689407,54.5421156 52.0623077,54.5980461 52.0623077,54.5980461 C52.5493453,54.6000201 52.9973677,54.8026859 53.3237934,55.1691952 C53.6495689,55.5350464 53.8023777,56.0088105 53.7536089,56.5082369 C53.6677759,57.3774626 52.8504112,58.0558666 51.8919421,58.0519185 L25.5847635,57.9479536 C22.0968206,57.9341355 19.2968426,56.175286 16.8519013,53.9749146 C15.6242286,52.8701229 14.48499,51.6554442 13.3964709,50.490774 C12.7702798,49.8202661 12.1661972,49.1747624 11.5777206,48.5832152 C11.1609102,48.1640655 10.6049461,47.9831139 10.0613368,48.0232523 C10.015169,48.0193042 7.60794223,47.999564 7.60794223,47.999564 L1.95856715,47.9771919 C0.881102311,47.9725858 0.00456483269,48.8529976 1.30802088e-05,49.9433132 C-0.00388842192,51.0336288 0.865496302,51.9206206 1.94361139,51.9252266 L9.37987445,51.9541789 C9.76612316,52.3568784 10.1575739,52.770764 10.5613793,53.2030738 C14.1689683,57.0635938 18.658947,61.8683521 25.5691575,61.8959884 L51.8763361,61.9999533 C54.823921,62.0117974 57.3540451,59.7706297 57.6356035,56.8984344 C57.7123331,56.1226455 57.629101,55.3475147 57.4021637,54.6191023 L61.0526691,54.6335784 C64.000254,54.6454225 66.5303781,52.4042548 66.8119365,49.5320595 C66.8938681,48.7009982 66.7930793,47.8725689 66.5290776,47.1007281 C68.8810332,46.5591894 70.7335964,44.5792499 70.9722383,42.1459445 C71.1295989,40.5483065 70.6126499,38.9565905 69.5572935,37.77218 C68.9044422,37.0404776 68.0799247,36.4995968 67.1728255,36.1916501 Z M6.09562408,26.3284429 C6.69587496,26.3310486 7.22776755,26.0561426 7.58713684,25.6307548 L7.84494524,25.3773461 C12.0278215,21.2615726 17.7568971,15.6253472 21.8551393,15.6409816 L24.0400004,15.6501017 C24.3804898,16.8018408 24.8505344,17.9737744 25.4247441,19.1606911 L29.8393875,19.1606911 C29.1453881,17.9666086 28.5737826,16.7992351 28.1538674,15.6657362 C27.6545263,14.3159605 27.356354,13.011134 27.2495849,11.7538622 C27.2209395,11.414464 27.2014085,11.0776715 27.2014085,10.7454391 C27.2014085,9.57155115 27.4995809,8.46606403 28.0236611,7.50128711 C29.1792417,5.37630243 31.429206,3.93271996 34.0098941,3.93271996 C37.0248202,3.93271996 39.6419661,5.87009103 40.5215094,8.7539988 C40.7721565,9.57611121 41.530608,10.1383006 42.3899693,10.1383006 C43.2493307,10.1383006 44.0071311,9.57611121 44.2577782,8.7539988 C45.1366705,5.87009103 47.7538164,3.93271996 50.7700445,3.93271996 C53.503725,3.93271996 55.9665765,5.57629333 57.0446844,8.11950001 C57.057054,8.14881463 57.0752829,8.17226633 57.0889545,8.20027809 C57.4007985,8.98069858 57.5778791,9.8301713 57.5778791,10.7206845 C57.5778791,13.3348977 56.6859661,16.1692963 54.9197182,19.1906571 C54.1794955,20.4577004 53.2810723,21.757967 52.2335629,23.088851 C51.9073962,23.5025129 50.3292963,25.3903749 49.3345204,26.5701257 L54.439257,26.5701257 C55.4105958,25.404055 56.2862329,24.2490587 57.0583561,23.1077426 L57.9750082,23.1109998 C58.9346283,23.1149084 59.7484175,23.7930534 59.8271923,24.654252 L59.9443779,26.5525369 L63.0882082,26.5701257 C63.2079979,26.5707771 63.3284387,26.5714286 63.4443223,26.5714286 C63.6858549,25.8418201 63.7874158,25.0809427 63.7164534,24.2985679 C63.4951027,21.8706654 61.630549,19.890951 59.2562378,19.3522133 C60.7327768,16.36147 61.484067,13.4756079 61.484067,10.7206845 C61.484067,4.80890156 56.6775027,5.32907052e-15 50.7693935,5.32907052e-15 C47.413978,5.32907052e-15 44.3723597,1.52370912 42.3893183,4.02131527 C40.4062769,1.52370912 37.3646585,5.32907052e-15 34.0092431,5.32907052e-15 C30.0633422,5.32907052e-15 26.4852741,2.16928233 24.612257,5.60235077 C24.4208538,5.95542916 24.2704655,6.25639265 24.1376551,6.569082 C23.5907888,7.88954305 23.2952206,9.28296495 23.2952206,10.7454391 C23.2952206,11.0744143 23.3062881,11.4053439 23.3277722,11.7382277 L21.870113,11.7323648 C16.2321818,11.7108674 10.1795436,17.5998501 5.28313699,22.4165689 L1.96027311,22.4035402 C0.881514212,22.3996316 0.00392398813,23.2712531 1.78001902e-05,24.3500313 C-0.00453941907,25.429461 0.866540491,26.3082484 1.94529939,26.312157 L6.09562408,26.3284429 Z" id="Giving-Hands"></path>
                </g>
            </g>
        </g>
    </g>
</svg>