<?xml version="1.0" encoding="utf-8"?>
<!-- Generator: Adobe Illustrator 18.0.0, SVG Export Plug-In . SVG Version: 6.00 Build 0)  -->
<!DOCTYPE svg PUBLIC "-//W3C//DTD SVG 1.1//EN" "http://www.w3.org/Graphics/SVG/1.1/DTD/svg11.dtd">
<svg version="1.1" id="Layer_1" xmlns="http://www.w3.org/2000/svg" xmlns:xlink="http://www.w3.org/1999/xlink" x="0px" y="0px"
	 width="90px" height="90px" viewBox="0 0 90 90" enable-background="new 0 0 90 90" xml:space="preserve">
<g display="none">
	<text transform="matrix(1 0 0 1 21.4879 155.1729)" fill="#414042" font-family="'Gotham-Light'" font-size="11">IN 2015</text>
	<g>
		
			<text transform="matrix(1 0 0 1 -24.0444 101.3524)" display="inline" fill="#414042" font-family="'Gotham-Light'" font-size="40" letter-spacing="2">16,563</text>
	</g>
	<text transform="matrix(1 0 0 1 -49.6056 122.7685)"><tspan x="0" y="0" display="inline" fill="#414042" font-family="'Gotham-Bold'" font-size="14">AVERAGE NEXT GENERATION </tspan><tspan x="49" y="16.8" display="inline" fill="#414042" font-family="'Gotham-Bold'" font-size="14">ATTENDANCE</tspan></text>
	<g display="inline">
		<path id="user-14-icon_5_" fill="#FFFFFF" d="M82.8,54.2c-6.2-1.4-11.9-2.7-9.1-7.9c8.5-15.9,2.2-24.5-6.7-24.5
			c-9.1,0-15.2,8.9-6.7,24.5c2.9,5.3-3.1,6.5-9.1,7.9c-6.2,1.4-5.7,4.7-5.7,10.6h43C88.5,58.9,89,55.6,82.8,54.2z"/>
		<g>
			<path fill="#FFFFFF" d="M41.2,63.6c0-5.1-0.1-11.5,9-13.6l0.4-0.1c0.7-0.2,1.7-0.4,2.6-0.6c-8.3-1.9-15.5-3.9-11.7-11
				c12.1-22.9,3.2-35.1-9.6-35.1c-13.1,0-21.7,12.7-9.6,35.1c4.1,7.6-4.4,9.3-13.1,11.3c-8.8,2-8.2,6.7-8.2,15.1h40.1L41.2,63.6z"/>
		</g>
	</g>
</g>
<g>
	<g>
		<path fill="#414042" d="M24.9,170.9h0.6v7.7h-0.6V170.9z"/>
		<path fill="#414042" d="M28.4,170.9H29l5.3,6.7v-6.7h0.5v7.7h-0.4l-5.4-6.8v6.8h-0.6V170.9z"/>
		<path fill="#414042" d="M40.9,178.2l2.9-2.6c1.3-1.2,1.7-1.8,1.7-2.6c0-1-0.8-1.6-1.7-1.6c-1,0-1.6,0.5-2.3,1.4l-0.4-0.3
			c0.7-1,1.4-1.7,2.7-1.7c1.3,0,2.3,0.9,2.3,2.1v0c0,1.1-0.6,1.8-1.9,3l-2.4,2.1h4.4v0.5h-5.3V178.2z"/>
		<path fill="#414042" d="M48.1,174.8L48.1,174.8c0-2.1,1.2-4,3.2-4s3.2,1.8,3.2,4v0c0,2.1-1.2,4-3.2,4
			C49.4,178.8,48.1,176.9,48.1,174.8z M53.9,174.8L53.9,174.8c0-1.8-1-3.5-2.6-3.5c-1.6,0-2.6,1.7-2.6,3.4v0c0,1.8,1,3.5,2.6,3.5
			S53.9,176.6,53.9,174.8z"/>
		<path fill="#414042" d="M57.7,171.5l-1.5,0.5l-0.2-0.5l1.8-0.6h0.4v7.8h-0.6V171.5z"/>
		<path fill="#414042" d="M60.6,177.5l0.4-0.4c0.7,0.7,1.5,1.1,2.3,1.1c1.2,0,2.1-0.9,2.1-1.9v0c0-1.1-0.9-1.8-2.1-1.8
			c-0.7,0-1.3,0.2-1.7,0.5l-0.4-0.3l0.2-3.7h4.3v0.5h-3.8l-0.2,2.9c0.5-0.2,1-0.4,1.7-0.4c1.5,0,2.6,0.9,2.6,2.3v0
			c0,1.5-1.1,2.5-2.7,2.5C62.2,178.8,61.3,178.2,60.6,177.5z"/>
	</g>
	<g>
		<g>
			<path fill="#414042" d="M-23.2,137.6l1.6-1.3c2.2,2.8,5,4.5,8.7,4.5c3.8,0,6.9-2.5,6.9-6.2v-0.1c0-3.9-3.7-6.1-8.7-6.1h-1.5
				l-0.5-1.2l9.6-11.1h-14.7v-2h17.5v1.5l-9.5,10.8c5.3,0.3,9.9,2.8,9.9,7.9v0.1c0,4.9-4.3,8.2-9.1,8.2
				C-17.5,142.6-20.9,140.5-23.2,137.6z"/>
			<path fill="#414042" d="M3.2,137.6l1.6-1.3c2.2,2.8,5,4.5,8.7,4.5c3.8,0,6.9-2.5,6.9-6.2v-0.1c0-3.9-3.7-6.1-8.7-6.1h-1.5
				l-0.5-1.2l9.6-11.1H4.6v-2h17.5v1.5l-9.5,10.8c5.3,0.3,9.9,2.8,9.9,7.9v0.1c0,4.9-4.3,8.2-9.1,8.2C8.9,142.6,5.5,140.5,3.2,137.6
				z"/>
			<path fill="#414042" d="M29.6,145.4c1.7-0.9,2.4-1.8,2.2-3.3h-1.1v-3.4h2.6v3c0,2.5-0.9,3.8-3.3,4.7L29.6,145.4z"/>
			<path fill="#414042" d="M40.9,138.1l1.5-1.5c2.5,2.5,5.4,4.1,8.4,4.1c4.4,0,7.5-3.1,7.5-7v-0.1c0-3.9-3.2-6.6-7.7-6.6
				c-2.6,0-4.6,0.8-6.3,1.8l-1.6-1l0.8-13.6h15.7v2H45.4l-0.7,10.5c1.8-0.9,3.6-1.5,6.2-1.5c5.4,0,9.6,3.4,9.6,8.4v0.1
				c0,5.3-4.1,9-9.8,9C46.9,142.6,43.4,140.6,40.9,138.1z"/>
			<path fill="#414042" d="M66.4,140.6l10.4-9.4c4.6-4.2,6.2-6.6,6.2-9.6c0-3.6-3-6-6.3-6c-3.6,0-5.9,1.8-8.2,5.2l-1.6-1
				c2.4-3.7,5-6,10-6c4.8,0,8.3,3.3,8.3,7.7v0.1c0,3.8-2.1,6.4-7,10.9l-8.6,7.8h15.8v2H66.4V140.6z"/>
			<path fill="#414042" d="M92.3,138.1l1.5-1.5c2.5,2.5,5.4,4.1,8.4,4.1c4.4,0,7.5-3.1,7.5-7v-0.1c0-3.9-3.2-6.6-7.7-6.6
				c-2.6,0-4.6,0.8-6.3,1.8l-1.6-1l0.8-13.6h15.7v2H96.8l-0.7,10.5c1.8-0.9,3.6-1.5,6.2-1.5c5.4,0,9.6,3.4,9.6,8.4v0.1
				c0,5.3-4.1,9-9.8,9C98.3,142.6,94.8,140.6,92.3,138.1z"/>
		</g>
	</g>
	<g>
		<path fill="#414042" d="M6.3,154.1h1.2v8.4h4v1H6.3V154.1z"/>
		<path fill="#414042" d="M14.9,154.1v9.4h-1.2v-9.4H14.9z"/>
		<path fill="#414042" d="M17.7,154.1h5.1v1h-3.9v3.1h3.6v1h-3.6v4.3h-1.2V154.1z"/>
		<path fill="#414042" d="M30.1,159.1h-3.7v3.4h4.1v1h-5.3v-9.4h5.1v1h-3.9v3h3.7V159.1z"/>
		<path fill="#414042" d="M40,163.1c-0.5,0.2-1.6,0.5-2.9,0.5c-1.4,0-2.6-0.4-3.5-1.2c-0.8-0.8-1.3-2-1.3-3.5c0-2.8,1.9-4.9,5.1-4.9
			c1.1,0,1.9,0.2,2.4,0.4l-0.3,1c-0.5-0.2-1.1-0.4-2.1-0.4c-2.3,0-3.8,1.4-3.8,3.8c0,2.4,1.4,3.8,3.6,3.8c0.8,0,1.3-0.1,1.6-0.3
			v-2.8h-1.9v-1H40V163.1z"/>
		<path fill="#414042" d="M42.5,154.2c0.6-0.1,1.5-0.2,2.3-0.2c1.3,0,2.1,0.2,2.7,0.8c0.5,0.4,0.7,1.1,0.7,1.8
			c0,1.2-0.8,2.1-1.8,2.4v0c0.7,0.3,1.2,0.9,1.4,1.9c0.3,1.3,0.5,2.2,0.7,2.6h-1.3c-0.2-0.3-0.4-1.1-0.6-2.3
			c-0.3-1.3-0.8-1.8-1.9-1.8h-1.1v4.1h-1.2V154.2z M43.8,158.5H45c1.3,0,2.1-0.7,2.1-1.8c0-1.2-0.9-1.8-2.2-1.8
			c-0.6,0-1,0.1-1.2,0.1V158.5z"/>
		<path fill="#414042" d="M58.9,158.7c0,3.2-2,5-4.4,5c-2.5,0-4.2-1.9-4.2-4.8c0-3,1.9-5,4.4-5C57.2,154,58.9,155.9,58.9,158.7z
			 M51.6,158.9c0,2,1.1,3.8,3,3.8c1.9,0,3-1.8,3-3.9c0-1.9-1-3.8-3-3.8C52.6,155,51.6,156.8,51.6,158.9z"/>
		<path fill="#414042" d="M62.4,154.1v5.6c0,2.1,0.9,3,2.2,3c1.4,0,2.3-0.9,2.3-3v-5.6h1.2v5.5c0,2.9-1.5,4.1-3.6,4.1
			c-1.9,0-3.4-1.1-3.4-4v-5.6H62.4z"/>
		<path fill="#414042" d="M70.9,154.2c0.6-0.1,1.4-0.2,2.3-0.2c1.2,0,2.1,0.3,2.6,0.8c0.5,0.4,0.8,1.1,0.8,2c0,0.9-0.3,1.5-0.7,2
			c-0.6,0.7-1.7,1-2.9,1c-0.4,0-0.7,0-1-0.1v3.8h-1.2V154.2z M72.1,158.8c0.3,0.1,0.6,0.1,1,0.1c1.5,0,2.4-0.7,2.4-2
			c0-1.2-0.9-1.8-2.2-1.8c-0.5,0-0.9,0-1.1,0.1V158.8z"/>
		<path fill="#414042" d="M78.9,162.1c0.5,0.3,1.3,0.6,2.2,0.6c1.2,0,2-0.7,2-1.6c0-0.9-0.5-1.4-1.8-1.9c-1.5-0.5-2.5-1.3-2.5-2.7
			c0-1.5,1.2-2.6,3.1-2.6c1,0,1.7,0.2,2.1,0.5l-0.3,1c-0.3-0.2-0.9-0.4-1.8-0.4c-1.3,0-1.8,0.8-1.8,1.4c0,0.9,0.6,1.3,1.9,1.8
			c1.6,0.6,2.4,1.4,2.4,2.8c0,1.5-1.1,2.7-3.3,2.7c-0.9,0-1.9-0.3-2.4-0.6L78.9,162.1z"/>
	</g>
	<g>
		<g>
			<path fill="#FFFFFF" d="M57.2,49.9c-4.7-1.1-9.2-2.1-7-6.1C56.7,31.6,51.9,25,45.1,25c-7,0-11.7,6.8-5.1,18.8
				c2.2,4.1-2.4,5-7,6.1c-4.7,1.1-4.4,3.6-4.4,8.1h33.1C61.6,53.5,62,51,57.2,49.9z"/>
		</g>
		<g>
			<path fill="#FFFFFF" d="M85.6,81.1c-4.7-1.1-9.2-2.1-7-6.1c6.5-12.3,1.7-18.8-5.1-18.8c-7,0-11.7,6.8-5.1,18.8
				c2.2,4.1-2.4,5-7,6.1c-4.7,1.1-4.4,3.6-4.4,8.1H90C90,84.7,90.4,82.2,85.6,81.1z"/>
		</g>
		<g>
			<path fill="#FFFFFF" d="M29.6,81.1c-4.7-1.1-9.2-2.1-7-6.1c6.5-12.3,1.7-18.8-5.1-18.8c-7,0-11.7,6.8-5.1,18.8
				c2.2,4.1-2.4,5-7,6.1c-4.7,1.1-4.4,3.6-4.4,8.1H34C34,84.7,34.3,82.2,29.6,81.1z"/>
		</g>
	</g>
</g>
</svg>
