<?xml version="1.0" encoding="utf-8"?>
<!-- Generator: Adobe Illustrator 17.1.0, SVG Export Plug-In . SVG Version: 6.00 Build 0)  -->
<!DOCTYPE svg PUBLIC "-//W3C//DTD SVG 1.1//EN" "http://www.w3.org/Graphics/SVG/1.1/DTD/svg11.dtd">
<svg version="1.1" id="Icon" xmlns="http://www.w3.org/2000/svg" xmlns:xlink="http://www.w3.org/1999/xlink" x="0px" y="0px"
	 viewBox="435 435 90 90" enable-background="new 435 435 90 90" xml:space="preserve">
<g>
	<polygon fill="#FFFFFF" points="463.9,494.6 496,499.4 496,460.5 463.9,465.3 	"/>
	<path fill="#FFFFFF" d="M520.4,435h-80.9c-2.5,0-4.5,2-4.5,4.5v80.9c0,2.5,2,4.5,4.5,4.5h80.9c2.5,0,4.5-2,4.5-4.5v-80.9
		C524.9,437,522.9,435,520.4,435z M502,502.9c0,0.9-0.4,1.7-1,2.2c-0.5,0.5-1.2,0.7-1.9,0.7c-0.1,0-0.3,0-0.4,0l-38.1-5.7
		c-1.5-0.2-2.5-1.5-2.5-2.9v-34.4c0-1.5,1.1-2.7,2.5-2.9l38.1-5.7c0.9-0.1,1.7,0.1,2.4,0.7c0.7,0.6,1,1.4,1,2.2V502.9z"/>
</g>
</svg>
