<?xml version="1.0" encoding="utf-8"?>
<!-- Generator: Adobe Illustrator 18.0.0, SVG Export Plug-In . SVG Version: 6.00 Build 0)  -->
<!DOCTYPE svg PUBLIC "-//W3C//DTD SVG 1.1//EN" "http://www.w3.org/Graphics/SVG/1.1/DTD/svg11.dtd">
<svg version="1.1" id="Layer_1" xmlns="http://www.w3.org/2000/svg" xmlns:xlink="http://www.w3.org/1999/xlink" x="0px" y="0px"
	 width="362px" height="362px" viewBox="0 0 362 362" style="enable-background:new 0 0 362 362;" xml:space="preserve">
<style type="text/css">
	.st0{fill:#B9262E;}
	.st1{fill:#414042;}
</style>
<g>
	<g>
		<path class="st0" d="M43.3,150.3c-0.2,0-0.3,0.1-0.3,0.3v2.4c0,0.2,0.1,0.3,0.3,0.3c0.2,0,0.3-0.1,0.3-0.3v-2.4
			C43.6,150.4,43.5,150.3,43.3,150.3z"/>
		<path class="st0" d="M39.8,150.3c-0.2,0-0.3,0.1-0.3,0.3v2.4c0,0.2,0.1,0.3,0.3,0.3s0.3-0.1,0.3-0.3v-2.4
			C40.1,150.4,40,150.3,39.8,150.3z"/>
		<path class="st0" d="M81.3,128.8c0,0-2-0.4-5.3-0.9V109h0v-2.1l-68.8,5.7v1.7h0V134c-2.9,1.1-5.8,2.4-8.5,3.8l-0.3,0.1l1.5,3.4
			l0.3-0.1c2.3-1.1,4.6-2.2,7-3.2v23.2h23.9H52H76v-29.5c2.9,0.4,4.5,0.8,4.6,0.8l0.3,0.1l0.7-3.7L81.3,128.8z M8.4,114.9l66.3-5.6
			v18.4c-5.1-0.7-12.9-1.5-22.1-1.5c-16.5,0-31.3,2.4-44.2,7.3V114.9z M32.4,159.9V142h8.9v17.9H32.4z M41.9,159.9V142h8.9v17.9
			H41.9z M74.7,159.9H52v-19.1H31.1v19.1H8.4v-22.4c12.8-5,27.6-7.5,44.2-7.5c9.3,0,17.1,0.8,22.1,1.5V159.9z"/>
		<path class="st0" d="M21.9,118.8c-0.2,0.2-0.9,1.4-1.5,2.3l3.6-0.5l0.3,0c0.6-0.1,0.9-0.7,1-0.8c0.8-1.6,1.5-1.7,2.9-2
			c3-0.6,4.4-2.9,4.4-3c-1.7,0.3-4.2,0.7-4.2,0.7C23.7,116.3,22.7,117.6,21.9,118.8z"/>
		<path class="st0" d="M23,124c0,0,4-0.4,5.4-0.9c2.5-0.8,3.3-2.6,3.3-2.6c0,0-3.8,0.4-5.5,1.1C25.9,121.7,24.9,121.9,23,124z"/>
		<path class="st0" d="M22.2,121.9l-3,0.4c-0.3,0.4-0.8,1-0.9,1.1c-0.4,0.4-0.6,0.4-1.5,0.5c-0.2,0-0.3-0.1-0.2-0.4l1-1.5
			c0.1-0.2,0.2-0.3,0.3-0.4l3.3-4.9c-3.2,0.6-5.3,2-6.2,3.3l-3.6,5.6l8.6-1.2c0.3-0.1,0.5-0.2,0.7-0.3c2.4-1.1,3-2.5,3-2.5
			S23.1,121.8,22.2,121.9z"/>
	</g>
	<g>
		<path class="st0" d="M137.4,150.3c-0.2,0-0.3,0.1-0.3,0.3v2.4c0,0.2,0.1,0.3,0.3,0.3c0.2,0,0.3-0.1,0.3-0.3v-2.4
			C137.7,150.4,137.5,150.3,137.4,150.3z"/>
		<path class="st0" d="M133.8,150.3c-0.2,0-0.3,0.1-0.3,0.3v2.4c0,0.2,0.1,0.3,0.3,0.3c0.2,0,0.3-0.1,0.3-0.3v-2.4
			C134.1,150.4,134,150.3,133.8,150.3z"/>
		<path class="st0" d="M175.3,128.8c0,0-2-0.4-5.3-0.9V109h0v-2.1l-68.8,5.7v1.7h0V134c-2.9,1.1-5.8,2.4-8.5,3.8l-0.3,0.1l1.5,3.4
			l0.3-0.1c2.3-1.1,4.6-2.2,7-3.2v23.2h23.9h20.9H170v-29.5c2.9,0.4,4.5,0.8,4.6,0.8l0.3,0.1l0.7-3.7L175.3,128.8z M102.4,114.9
			l66.3-5.6v18.4c-5.1-0.7-12.9-1.5-22.1-1.5c-16.5,0-31.3,2.4-44.2,7.3V114.9z M126.4,159.9V142h8.9v17.9H126.4z M135.9,159.9V142
			h8.9v17.9H135.9z M168.7,159.9h-22.7v-19.1h-20.9v19.1h-22.7v-22.4c12.8-5,27.6-7.5,44.2-7.5c9.3,0,17.1,0.8,22.1,1.5V159.9z"/>
		<path class="st0" d="M115.9,118.8c-0.2,0.2-0.9,1.4-1.5,2.3l3.6-0.5l0.3,0c0.6-0.1,0.9-0.7,1-0.8c0.8-1.6,1.5-1.7,2.9-2
			c3-0.6,4.4-2.9,4.4-3c-1.7,0.3-4.2,0.7-4.2,0.7C117.7,116.3,116.7,117.6,115.9,118.8z"/>
		<path class="st0" d="M117,124c0,0,4-0.4,5.4-0.9c2.5-0.8,3.3-2.6,3.3-2.6c0,0-3.8,0.4-5.5,1.1C120,121.7,118.9,121.9,117,124z"/>
		<path class="st0" d="M116.3,121.9l-3,0.4c-0.3,0.4-0.8,1-0.9,1.1c-0.4,0.4-0.6,0.4-1.5,0.5c-0.2,0-0.3-0.1-0.2-0.4l1-1.5
			c0.1-0.2,0.2-0.3,0.3-0.4l3.3-4.9c-3.2,0.6-5.3,2-6.2,3.3l-3.6,5.6l8.6-1.2c0.3-0.1,0.5-0.2,0.7-0.3c2.4-1.1,3-2.5,3-2.5
			S117.1,121.8,116.3,121.9z"/>
	</g>
	<g>
		<path class="st0" d="M231.4,150.3c-0.2,0-0.3,0.1-0.3,0.3v2.4c0,0.2,0.1,0.3,0.3,0.3c0.2,0,0.3-0.1,0.3-0.3v-2.4
			C231.7,150.4,231.6,150.3,231.4,150.3z"/>
		<path class="st0" d="M227.8,150.3c-0.2,0-0.3,0.1-0.3,0.3v2.4c0,0.2,0.1,0.3,0.3,0.3c0.2,0,0.3-0.1,0.3-0.3v-2.4
			C228.1,150.4,228,150.3,227.8,150.3z"/>
		<path class="st0" d="M269.3,128.8c0,0-2-0.4-5.3-0.9V109h0v-2.1l-68.8,5.7v1.7h0V134c-2.9,1.1-5.8,2.4-8.5,3.8l-0.3,0.1l1.5,3.4
			l0.3-0.1c2.3-1.1,4.6-2.2,7-3.2v23.2h23.9h20.9H264v-29.5c2.9,0.4,4.5,0.8,4.6,0.8l0.3,0.1l0.7-3.7L269.3,128.8z M196.5,114.9
			l66.3-5.6v18.4c-5.1-0.7-12.9-1.5-22.1-1.5c-16.5,0-31.3,2.4-44.2,7.3V114.9z M220.4,159.9V142h8.9v17.9H220.4z M229.9,159.9V142
			h8.9v17.9H229.9z M262.7,159.9h-22.7v-19.1h-20.9v19.1h-22.7v-22.4c12.8-5,27.6-7.5,44.2-7.5c9.3,0,17.1,0.8,22.1,1.5V159.9z"/>
		<path class="st0" d="M209.9,118.8c-0.2,0.2-0.9,1.4-1.5,2.3l3.6-0.5l0.3,0c0.6-0.1,0.9-0.7,1-0.8c0.8-1.6,1.5-1.7,2.9-2
			c3-0.6,4.4-2.9,4.4-3c-1.7,0.3-4.2,0.7-4.2,0.7C211.8,116.3,210.7,117.6,209.9,118.8z"/>
		<path class="st0" d="M211.1,124c0,0,4-0.4,5.4-0.9c2.5-0.8,3.3-2.6,3.3-2.6c0,0-3.8,0.4-5.5,1.1C214,121.7,212.9,121.9,211.1,124z
			"/>
		<path class="st0" d="M210.3,121.9l-3,0.4c-0.3,0.4-0.8,1-0.9,1.1c-0.4,0.4-0.6,0.4-1.5,0.5c-0.2,0-0.3-0.1-0.2-0.4l1-1.5
			c0.1-0.2,0.2-0.3,0.3-0.4l3.3-4.9c-3.2,0.6-5.3,2-6.2,3.3l-3.6,5.6l8.6-1.2c0.3-0.1,0.5-0.2,0.7-0.3c2.4-1.1,3-2.5,3-2.5
			S211.1,121.8,210.3,121.9z"/>
	</g>
	<g>
		<path class="st0" d="M325.4,150.3c-0.2,0-0.3,0.1-0.3,0.3v2.4c0,0.2,0.1,0.3,0.3,0.3c0.2,0,0.3-0.1,0.3-0.3v-2.4
			C325.7,150.4,325.6,150.3,325.4,150.3z"/>
		<path class="st0" d="M321.9,150.3c-0.2,0-0.3,0.1-0.3,0.3v2.4c0,0.2,0.1,0.3,0.3,0.3c0.2,0,0.3-0.1,0.3-0.3v-2.4
			C322.2,150.4,322,150.3,321.9,150.3z"/>
		<path class="st0" d="M363.3,128.8c0,0-2-0.4-5.3-0.9V109h0v-2.1l-68.8,5.7v1.7h0V134c-2.9,1.1-5.8,2.4-8.5,3.8l-0.3,0.1l1.5,3.4
			l0.3-0.1c2.3-1.1,4.6-2.2,7-3.2v23.2h23.9h20.9H358v-29.5c2.9,0.4,4.5,0.8,4.6,0.8l0.3,0.1l0.7-3.7L363.3,128.8z M290.5,114.9
			l66.3-5.6v18.4c-5.1-0.7-12.9-1.5-22.1-1.5c-16.5,0-31.3,2.4-44.2,7.3V114.9z M314.4,159.9V142h8.9v17.9H314.4z M323.9,159.9V142
			h8.9v17.9H323.9z M356.8,159.9h-22.7v-19.1h-20.9v19.1h-22.7v-22.4c12.8-5,27.6-7.5,44.2-7.5c9.3,0,17.1,0.8,22.1,1.5V159.9z"/>
		<path class="st0" d="M303.9,118.8c-0.2,0.2-0.9,1.4-1.5,2.3l3.6-0.5l0.3,0c0.6-0.1,0.9-0.7,1-0.8c0.8-1.6,1.5-1.7,2.9-2
			c3-0.6,4.4-2.9,4.4-3c-1.7,0.3-4.2,0.7-4.2,0.7C305.8,116.3,304.8,117.6,303.9,118.8z"/>
		<path class="st0" d="M305.1,124c0,0,4-0.4,5.4-0.9c2.5-0.8,3.3-2.6,3.3-2.6c0,0-3.8,0.4-5.5,1.1C308,121.7,306.9,121.9,305.1,124z
			"/>
		<path class="st0" d="M304.3,121.9l-3,0.4c-0.3,0.4-0.8,1-0.9,1.1c-0.4,0.4-0.6,0.4-1.5,0.5c-0.2,0-0.3-0.1-0.2-0.4l1-1.5
			c0.1-0.2,0.2-0.3,0.3-0.4l3.3-4.9c-3.2,0.6-5.3,2-6.2,3.3l-3.6,5.6l8.6-1.2c0.3-0.1,0.5-0.2,0.7-0.3c2.4-1.1,3-2.5,3-2.5
			S305.2,121.8,304.3,121.9z"/>
	</g>
</g>
<g>
	<g>
		<path class="st1" d="M69.4,187.7c0.9-0.2,2.2-0.3,3.6-0.3c2,0,3.2,0.3,4.2,1.1c0.8,0.6,1.3,1.5,1.3,2.7c0,1.5-1,2.7-2.6,3.3v0
			c1.4,0.4,3.1,1.6,3.1,3.8c0,1.3-0.5,2.3-1.3,3c-1.1,1-2.8,1.4-5.2,1.4c-1.4,0-2.4-0.1-3-0.2V187.7z M71.3,193.9h1.8
			c2.1,0,3.3-1.1,3.3-2.5c0-1.8-1.4-2.5-3.3-2.5c-0.9,0-1.4,0.1-1.7,0.1V193.9z M71.3,201.2c0.4,0.1,0.9,0.1,1.6,0.1
			c2,0,3.9-0.7,3.9-2.9c0-2.1-1.8-2.9-3.9-2.9h-1.6V201.2z"/>
		<path class="st1" d="M82.7,197.6c0,2.7,1.8,3.8,3.7,3.8c1.4,0,2.3-0.2,3-0.6l0.3,1.4c-0.7,0.3-1.9,0.7-3.6,0.7
			c-3.4,0-5.4-2.2-5.4-5.5s1.9-5.9,5.1-5.9c3.6,0,4.5,3.1,4.5,5.1c0,0.4,0,0.7-0.1,0.9H82.7z M88.5,196.2c0-1.3-0.5-3.2-2.7-3.2
			c-2,0-2.9,1.8-3,3.2H88.5z"/>
		<path class="st1" d="M100.6,202.2c-0.5,0.3-1.7,0.6-3.1,0.6c-3.3,0-5.4-2.2-5.4-5.6c0-3.4,2.3-5.8,5.9-5.8c1.2,0,2.2,0.3,2.7,0.6
			l-0.4,1.5c-0.5-0.3-1.2-0.5-2.3-0.5c-2.5,0-3.8,1.8-3.8,4.1c0,2.5,1.6,4.1,3.8,4.1c1.1,0,1.9-0.3,2.4-0.5L100.6,202.2z"/>
		<path class="st1" d="M109,202.7l-0.2-1.4h-0.1c-0.6,0.9-1.8,1.6-3.3,1.6c-2.2,0-3.3-1.6-3.3-3.1c0-2.6,2.3-4.1,6.5-4.1v-0.2
			c0-0.9-0.2-2.5-2.5-2.5c-1,0-2.1,0.3-2.8,0.8l-0.4-1.3c0.9-0.6,2.2-1,3.6-1c3.3,0,4.1,2.3,4.1,4.5v4.1c0,0.9,0,1.9,0.2,2.6H109z
			 M108.7,197.1c-2.2,0-4.6,0.3-4.6,2.5c0,1.3,0.9,1.9,1.9,1.9c1.4,0,2.3-0.9,2.6-1.8c0.1-0.2,0.1-0.4,0.1-0.6V197.1z"/>
		<path class="st1" d="M122.9,199.7c0,1.1,0,2.1,0.1,3h-1.8l-0.1-1.8h0c-0.5,0.9-1.7,2-3.6,2c-1.7,0-3.8-0.9-3.8-4.8v-6.4h2v6
			c0,2.1,0.6,3.5,2.4,3.5c1.3,0,2.3-0.9,2.6-1.8c0.1-0.3,0.2-0.7,0.2-1v-6.7h2V199.7z"/>
		<path class="st1" d="M125.9,200.6c0.6,0.4,1.6,0.8,2.6,0.8c1.4,0,2.1-0.7,2.1-1.6c0-0.9-0.6-1.5-2-2c-2-0.7-2.9-1.8-2.9-3.1
			c0-1.8,1.4-3.2,3.8-3.2c1.1,0,2.1,0.3,2.7,0.7l-0.5,1.4c-0.4-0.3-1.2-0.6-2.2-0.6c-1.2,0-1.8,0.7-1.8,1.5c0,0.9,0.7,1.3,2.1,1.8
			c1.9,0.7,2.9,1.7,2.9,3.3c0,1.9-1.5,3.3-4.1,3.3c-1.2,0-2.3-0.3-3.1-0.7L125.9,200.6z"/>
		<path class="st1" d="M136.2,197.6c0,2.7,1.8,3.8,3.7,3.8c1.4,0,2.3-0.2,3-0.6l0.3,1.4c-0.7,0.3-1.9,0.7-3.6,0.7
			c-3.4,0-5.4-2.2-5.4-5.5s1.9-5.9,5.1-5.9c3.6,0,4.5,3.1,4.5,5.1c0,0.4,0,0.7-0.1,0.9H136.2z M142,196.2c0-1.3-0.5-3.2-2.7-3.2
			c-2,0-2.9,1.8-3,3.2H142z"/>
		<path class="st1" d="M161,197.1c0,4-2.8,5.8-5.4,5.8c-2.9,0-5.2-2.2-5.2-5.6c0-3.6,2.4-5.8,5.4-5.8
			C158.9,191.5,161,193.8,161,197.1z M152.4,197.2c0,2.4,1.4,4.2,3.3,4.2c1.9,0,3.3-1.8,3.3-4.2c0-1.8-0.9-4.2-3.3-4.2
			S152.4,195.2,152.4,197.2z"/>
		<path class="st1" d="M163.7,202.7v-9.4h-1.5v-1.5h1.5v-0.5c0-1.5,0.3-2.9,1.3-3.8c0.7-0.7,1.7-1,2.7-1c0.7,0,1.3,0.2,1.7,0.3
			l-0.3,1.5c-0.3-0.1-0.7-0.2-1.3-0.2c-1.7,0-2.1,1.5-2.1,3.2v0.6h2.6v1.5h-2.6v9.4H163.7z"/>
		<path class="st1" d="M175.6,191.8l2.4,6.4c0.2,0.7,0.5,1.6,0.7,2.2h0c0.2-0.7,0.4-1.5,0.7-2.3l2.2-6.4h2.1l-3,7.8
			c-1.4,3.7-2.4,5.6-3.7,6.8c-1,0.9-1.9,1.2-2.4,1.3L174,206c0.5-0.2,1.1-0.5,1.7-1c0.5-0.4,1.2-1.2,1.7-2.2
			c0.1-0.2,0.2-0.4,0.2-0.5c0-0.1,0-0.3-0.1-0.5l-4-10H175.6z"/>
		<path class="st1" d="M195.1,197.1c0,4-2.8,5.8-5.4,5.8c-2.9,0-5.2-2.2-5.2-5.6c0-3.6,2.4-5.8,5.4-5.8
			C193,191.5,195.1,193.8,195.1,197.1z M186.4,197.2c0,2.4,1.4,4.2,3.3,4.2c1.9,0,3.3-1.8,3.3-4.2c0-1.8-0.9-4.2-3.3-4.2
			S186.4,195.2,186.4,197.2z"/>
		<path class="st1" d="M206.7,199.7c0,1.1,0,2.1,0.1,3H205l-0.1-1.8h0c-0.5,0.9-1.7,2-3.6,2c-1.7,0-3.8-0.9-3.8-4.8v-6.4h2v6
			c0,2.1,0.6,3.5,2.4,3.5c1.3,0,2.2-0.9,2.6-1.8c0.1-0.3,0.2-0.7,0.2-1v-6.7h2V199.7z"/>
		<path class="st1" d="M208.5,205.4c0.5-1.3,1.1-3.7,1.4-5.4l2.2-0.2c-0.5,1.9-1.5,4.4-2.1,5.5L208.5,205.4z"/>
		<path class="st1" d="M220,191.8l1.4,5.5c0.3,1.2,0.6,2.3,0.8,3.5h0.1c0.2-1.1,0.6-2.3,1-3.4l1.8-5.6h1.7l1.7,5.4
			c0.4,1.3,0.7,2.5,1,3.6h0.1c0.2-1.1,0.5-2.3,0.8-3.5l1.6-5.5h2l-3.5,10.9h-1.8l-1.7-5.2c-0.4-1.2-0.7-2.3-1-3.6h0
			c-0.3,1.3-0.6,2.4-1,3.6l-1.8,5.2h-1.8l-3.3-10.9H220z"/>
		<path class="st1" d="M236.7,197.6c0,2.7,1.8,3.8,3.7,3.8c1.4,0,2.3-0.2,3-0.6l0.3,1.4c-0.7,0.3-1.9,0.7-3.6,0.7
			c-3.4,0-5.4-2.2-5.4-5.5s1.9-5.9,5.1-5.9c3.6,0,4.5,3.1,4.5,5.1c0,0.4,0,0.7-0.1,0.9H236.7z M242.5,196.2c0-1.3-0.5-3.2-2.7-3.2
			c-2,0-2.9,1.8-3,3.2H242.5z"/>
		<path class="st1" d="M251.5,202.7c0-0.7,0.1-1.8,0.1-2.8v-13.2h2v6.8h0c0.7-1.2,2-2,3.7-2c2.7,0,4.6,2.2,4.6,5.6
			c0,3.9-2.5,5.8-4.9,5.8c-1.6,0-2.8-0.6-3.6-2h-0.1l-0.1,1.8H251.5z M253.6,198.3c0,0.2,0,0.5,0.1,0.7c0.4,1.4,1.5,2.3,3,2.3
			c2.1,0,3.3-1.7,3.3-4.2c0-2.2-1.1-4.1-3.2-4.1c-1.4,0-2.6,0.9-3,2.4c0,0.2-0.1,0.5-0.1,0.8V198.3z"/>
		<path class="st1" d="M273.5,199.7c0,1.1,0,2.1,0.1,3h-1.8l-0.1-1.8h0c-0.5,0.9-1.7,2-3.6,2c-1.7,0-3.8-0.9-3.8-4.8v-6.4h2v6
			c0,2.1,0.6,3.5,2.4,3.5c1.3,0,2.3-0.9,2.6-1.8c0.1-0.3,0.2-0.7,0.2-1v-6.7h2V199.7z"/>
		<path class="st1" d="M279,188.7c0,0.7-0.5,1.2-1.3,1.2c-0.7,0-1.2-0.5-1.2-1.2c0-0.7,0.5-1.2,1.2-1.2
			C278.6,187.5,279,188,279,188.7z M276.8,202.7v-10.9h2v10.9H276.8z"/>
		<path class="st1" d="M282.1,186.7h2v16h-2V186.7z"/>
		<path class="st1" d="M289.8,188.6v3.1h2.8v1.5h-2.8v5.9c0,1.4,0.4,2.1,1.5,2.1c0.5,0,0.9-0.1,1.1-0.1l0.1,1.5
			c-0.4,0.2-1,0.3-1.8,0.3c-0.9,0-1.7-0.3-2.1-0.8c-0.6-0.6-0.8-1.6-0.8-2.8v-5.9h-1.7v-1.5h1.7v-2.6L289.8,188.6z"/>
		<path class="st0" d="M39.8,226.7v-1.2l1.6-1.5c3.7-3.6,5.4-5.4,5.4-7.7c0-1.5-0.7-2.9-2.9-2.9c-1.3,0-2.4,0.7-3.1,1.2l-0.6-1.4
			c1-0.9,2.5-1.5,4.1-1.5c3.2,0,4.5,2.2,4.5,4.3c0,2.7-2,4.9-5,7.9l-1.2,1.1v0h6.6v1.6H39.8z"/>
		<path class="st1" d="M56.8,218.7c0-1.1,0-2-0.1-2.9h1.8l0.1,1.8h0c0.5-1,1.8-2,3.6-2c1.5,0,3.8,0.9,3.8,4.6v6.5h-2v-6.3
			c0-1.8-0.7-3.2-2.5-3.2c-1.3,0-2.3,0.9-2.7,2c-0.1,0.2-0.1,0.6-0.1,0.9v6.5h-2V218.7z"/>
		<path class="st1" d="M70.4,221.6c0,2.7,1.8,3.8,3.7,3.8c1.4,0,2.3-0.2,3-0.6l0.3,1.4c-0.7,0.3-1.9,0.7-3.6,0.7
			c-3.4,0-5.4-2.2-5.4-5.5s1.9-5.9,5.1-5.9c3.6,0,4.5,3.1,4.5,5.1c0,0.4,0,0.7-0.1,0.9H70.4z M76.2,220.2c0-1.3-0.5-3.2-2.7-3.2
			c-2,0-2.9,1.8-3,3.2H76.2z"/>
		<path class="st1" d="M81.3,215.8l1.4,5.5c0.3,1.2,0.6,2.3,0.8,3.5h0.1c0.2-1.1,0.6-2.3,1-3.4l1.8-5.6h1.7l1.7,5.4
			c0.4,1.3,0.7,2.5,1,3.6h0.1c0.2-1.1,0.5-2.3,0.8-3.5l1.6-5.5h2l-3.5,10.9h-1.8l-1.7-5.2c-0.4-1.2-0.7-2.3-1-3.6h0
			c-0.3,1.3-0.6,2.4-1,3.6l-1.8,5.2h-1.8l-3.3-10.9H81.3z"/>
		<path class="st1" d="M109.7,226.2c-0.5,0.3-1.7,0.6-3.1,0.6c-3.3,0-5.4-2.2-5.4-5.6c0-3.4,2.3-5.8,5.9-5.8c1.2,0,2.2,0.3,2.7,0.6
			l-0.4,1.5c-0.5-0.3-1.2-0.5-2.3-0.5c-2.5,0-3.8,1.8-3.8,4.1c0,2.5,1.6,4.1,3.8,4.1c1.1,0,1.9-0.3,2.4-0.5L109.7,226.2z"/>
		<path class="st1" d="M118,226.7l-0.2-1.4h-0.1c-0.6,0.9-1.8,1.6-3.3,1.6c-2.2,0-3.3-1.6-3.3-3.1c0-2.6,2.3-4.1,6.5-4.1v-0.2
			c0-0.9-0.2-2.5-2.5-2.5c-1,0-2.1,0.3-2.8,0.8l-0.4-1.3c0.9-0.6,2.2-1,3.6-1c3.3,0,4.1,2.3,4.1,4.5v4.1c0,0.9,0,1.9,0.2,2.6H118z
			 M117.7,221.1c-2.2,0-4.6,0.3-4.6,2.5c0,1.3,0.9,1.9,1.9,1.9c1.4,0,2.3-0.9,2.6-1.8c0.1-0.2,0.1-0.4,0.1-0.6V221.1z"/>
		<path class="st1" d="M122.8,218.7c0-1.1,0-2-0.1-2.9h1.7l0.1,1.8h0.1c0.6-1,1.6-2,3.4-2c1.5,0,2.6,0.9,3.1,2.2h0
			c0.3-0.6,0.8-1.1,1.2-1.4c0.7-0.5,1.4-0.8,2.4-0.8c1.4,0,3.6,0.9,3.6,4.7v6.4h-1.9v-6.2c0-2.1-0.8-3.4-2.4-3.4
			c-1.1,0-2,0.8-2.3,1.8c-0.1,0.3-0.2,0.6-0.2,1v6.7h-1.9v-6.5c0-1.7-0.8-3-2.3-3c-1.2,0-2.1,1-2.5,2c-0.1,0.3-0.2,0.6-0.2,1v6.6
			h-1.9V218.7z"/>
		<path class="st1" d="M141.6,219.3c0-1.4,0-2.5-0.1-3.6h1.8l0.1,1.9h0c0.8-1.3,2.1-2.1,3.9-2.1c2.6,0,4.6,2.2,4.6,5.5
			c0,3.9-2.4,5.9-5,5.9c-1.4,0-2.7-0.6-3.4-1.7h0v5.9h-2V219.3z M143.5,222.2c0,0.3,0,0.6,0.1,0.8c0.4,1.4,1.6,2.3,3,2.3
			c2.1,0,3.3-1.7,3.3-4.2c0-2.2-1.1-4.1-3.2-4.1c-1.4,0-2.6,1-3,2.5c-0.1,0.2-0.1,0.5-0.1,0.8V222.2z"/>
		<path class="st1" d="M163.5,223.7c0,1.1,0,2.1,0.1,3h-1.8l-0.1-1.8h0c-0.5,0.9-1.7,2-3.6,2c-1.7,0-3.8-0.9-3.8-4.8v-6.4h2v6
			c0,2.1,0.6,3.5,2.4,3.5c1.3,0,2.3-0.9,2.6-1.8c0.1-0.3,0.2-0.7,0.2-1v-6.7h2V223.7z"/>
		<path class="st1" d="M166.5,224.6c0.6,0.4,1.6,0.8,2.6,0.8c1.4,0,2.1-0.7,2.1-1.6c0-0.9-0.6-1.5-2-2c-2-0.7-2.9-1.8-2.9-3.1
			c0-1.8,1.4-3.2,3.8-3.2c1.1,0,2.1,0.3,2.7,0.7l-0.5,1.4c-0.4-0.3-1.2-0.6-2.2-0.6c-1.2,0-1.8,0.7-1.8,1.5c0,0.9,0.7,1.3,2.1,1.8
			c1.9,0.7,2.9,1.7,2.9,3.3c0,1.9-1.5,3.3-4.1,3.3c-1.2,0-2.3-0.3-3.1-0.7L166.5,224.6z"/>
		<path class="st1" d="M176.8,221.6c0,2.7,1.8,3.8,3.7,3.8c1.4,0,2.3-0.2,3-0.6l0.3,1.4c-0.7,0.3-1.9,0.7-3.6,0.7
			c-3.4,0-5.4-2.2-5.4-5.5s1.9-5.9,5.1-5.9c3.6,0,4.5,3.1,4.5,5.1c0,0.4,0,0.7-0.1,0.9H176.8z M182.6,220.2c0-1.3-0.5-3.2-2.7-3.2
			c-2,0-2.9,1.8-3,3.2H182.6z"/>
		<path class="st1" d="M186.7,224.6c0.6,0.4,1.6,0.8,2.6,0.8c1.4,0,2.1-0.7,2.1-1.6c0-0.9-0.6-1.5-2-2c-2-0.7-2.9-1.8-2.9-3.1
			c0-1.8,1.4-3.2,3.8-3.2c1.1,0,2.1,0.3,2.7,0.7l-0.5,1.4c-0.4-0.3-1.2-0.6-2.2-0.6c-1.2,0-1.8,0.7-1.8,1.5c0,0.9,0.7,1.3,2.1,1.8
			c1.9,0.7,2.9,1.7,2.9,3.3c0,1.9-1.5,3.3-4.1,3.3c-1.2,0-2.3-0.3-3.1-0.7L186.7,224.6z"/>
		<path class="st1" d="M206.7,226.7l-0.2-1.4h-0.1c-0.6,0.9-1.8,1.6-3.3,1.6c-2.2,0-3.3-1.6-3.3-3.1c0-2.6,2.3-4.1,6.5-4.1v-0.2
			c0-0.9-0.2-2.5-2.5-2.5c-1,0-2.1,0.3-2.8,0.8l-0.4-1.3c0.9-0.6,2.2-1,3.6-1c3.3,0,4.1,2.3,4.1,4.5v4.1c0,0.9,0,1.9,0.2,2.6H206.7z
			 M206.4,221.1c-2.2,0-4.6,0.3-4.6,2.5c0,1.3,0.9,1.9,1.9,1.9c1.4,0,2.3-0.9,2.6-1.8c0.1-0.2,0.1-0.4,0.1-0.6V221.1z"/>
		<path class="st1" d="M211.5,218.7c0-1.1,0-2-0.1-2.9h1.8l0.1,1.8h0c0.5-1,1.8-2,3.6-2c1.5,0,3.8,0.9,3.8,4.6v6.5h-2v-6.3
			c0-1.8-0.7-3.2-2.5-3.2c-1.3,0-2.3,0.9-2.7,2c-0.1,0.2-0.1,0.6-0.1,0.9v6.5h-2V218.7z"/>
		<path class="st1" d="M233.4,210.7v13.2c0,1,0,2.1,0.1,2.8h-1.8l-0.1-1.9h0c-0.6,1.2-1.9,2.1-3.7,2.1c-2.6,0-4.7-2.2-4.7-5.5
			c0-3.6,2.2-5.9,4.9-5.9c1.7,0,2.8,0.8,3.3,1.7h0v-6.5H233.4z M231.4,220.2c0-0.2,0-0.6-0.1-0.8c-0.3-1.3-1.4-2.3-2.9-2.3
			c-2,0-3.3,1.8-3.3,4.2c0,2.2,1.1,4,3.2,4c1.3,0,2.5-0.9,2.9-2.4c0.1-0.3,0.1-0.5,0.1-0.9V220.2z"/>
		<path class="st1" d="M247.5,226.7l-0.2-1.4h-0.1c-0.6,0.9-1.8,1.6-3.3,1.6c-2.2,0-3.3-1.6-3.3-3.1c0-2.6,2.3-4.1,6.5-4.1v-0.2
			c0-0.9-0.2-2.5-2.5-2.5c-1,0-2.1,0.3-2.8,0.8l-0.5-1.3c0.9-0.6,2.2-1,3.6-1c3.3,0,4.1,2.3,4.1,4.5v4.1c0,0.9,0,1.9,0.2,2.6H247.5z
			 M247.2,221.1c-2.2,0-4.6,0.3-4.6,2.5c0,1.3,0.9,1.9,1.9,1.9c1.4,0,2.3-0.9,2.6-1.8c0.1-0.2,0.1-0.4,0.1-0.6V221.1z"/>
		<path class="st1" d="M260.1,226.2c-0.5,0.3-1.7,0.6-3.1,0.6c-3.3,0-5.4-2.2-5.4-5.6c0-3.4,2.3-5.8,5.9-5.8c1.2,0,2.2,0.3,2.7,0.6
			l-0.5,1.5c-0.5-0.3-1.2-0.5-2.3-0.5c-2.5,0-3.8,1.8-3.8,4.1c0,2.5,1.6,4.1,3.8,4.1c1.1,0,1.9-0.3,2.4-0.5L260.1,226.2z"/>
		<path class="st1" d="M269.7,225L269.7,225c-0.6,1.1-1.8,1.9-3.6,1.9c-2.5,0-4.6-2.2-4.6-5.5c0-4.1,2.6-5.9,4.9-5.9
			c1.7,0,2.8,0.8,3.4,1.9h0l0.1-1.6h1.9c0,0.9-0.1,1.9-0.1,3v12.4h-2V225z M269.7,220.2c0-0.3,0-0.6-0.1-0.8
			c-0.3-1.2-1.4-2.3-2.8-2.3c-2,0-3.3,1.7-3.3,4.2c0,2.2,1,4.1,3.2,4.1c1.3,0,2.4-0.8,2.8-2.2c0.1-0.3,0.2-0.7,0.2-0.9V220.2z"/>
		<path class="st1" d="M284,223.7c0,1.1,0,2.1,0.1,3h-1.8l-0.1-1.8h0c-0.5,0.9-1.7,2-3.6,2c-1.7,0-3.8-0.9-3.8-4.8v-6.4h2v6
			c0,2.1,0.6,3.5,2.4,3.5c1.3,0,2.3-0.9,2.6-1.8c0.1-0.3,0.2-0.7,0.2-1v-6.7h2V223.7z"/>
		<path class="st1" d="M289.5,212.7c0,0.7-0.5,1.2-1.3,1.2c-0.7,0-1.2-0.5-1.2-1.2c0-0.7,0.5-1.2,1.2-1.2
			C289.1,211.5,289.5,212,289.5,212.7z M287.3,226.7v-10.9h2v10.9H287.3z"/>
		<path class="st1" d="M292.6,219.2c0-1.3,0-2.4-0.1-3.4h1.7l0.1,2.1h0.1c0.5-1.5,1.7-2.4,3-2.4c0.2,0,0.4,0,0.6,0.1v1.9
			c-0.2,0-0.4-0.1-0.7-0.1c-1.4,0-2.4,1.1-2.7,2.5c0,0.3-0.1,0.6-0.1,0.9v5.8h-2V219.2z"/>
		<path class="st1" d="M300.8,221.6c0,2.7,1.8,3.8,3.7,3.8c1.4,0,2.3-0.2,3-0.6l0.3,1.4c-0.7,0.3-1.9,0.7-3.6,0.7
			c-3.4,0-5.4-2.2-5.4-5.5s1.9-5.9,5.1-5.9c3.6,0,4.5,3.1,4.5,5.1c0,0.4,0,0.7-0.1,0.9H300.8z M306.6,220.2c0-1.3-0.5-3.2-2.7-3.2
			c-2,0-2.9,1.8-3,3.2H306.6z"/>
		<path class="st1" d="M320.4,210.7v13.2c0,1,0,2.1,0.1,2.8h-1.8l-0.1-1.9h0c-0.6,1.2-1.9,2.1-3.7,2.1c-2.6,0-4.7-2.2-4.7-5.5
			c0-3.6,2.2-5.9,4.9-5.9c1.7,0,2.8,0.8,3.3,1.7h0v-6.5H320.4z M318.4,220.2c0-0.2,0-0.6-0.1-0.8c-0.3-1.3-1.4-2.3-2.9-2.3
			c-2,0-3.3,1.8-3.3,4.2c0,2.2,1.1,4,3.2,4c1.3,0,2.5-0.9,2.9-2.4c0.1-0.3,0.1-0.5,0.1-0.9V220.2z"/>
		<path class="st0" d="M64.7,250.7v-1.2l1.6-1.5c3.7-3.6,5.4-5.4,5.4-7.7c0-1.5-0.7-2.9-2.9-2.9c-1.3,0-2.4,0.7-3.1,1.2l-0.6-1.4
			c1-0.9,2.5-1.5,4.1-1.5c3.2,0,4.5,2.2,4.5,4.3c0,2.7-2,4.9-5,7.9l-1.2,1.1v0H74v1.6H64.7z"/>
		<path class="st1" d="M81.6,242.7c0-1.1,0-2-0.1-2.9h1.8l0.1,1.8h0c0.5-1,1.8-2,3.6-2c1.5,0,3.8,0.9,3.8,4.6v6.5h-2v-6.3
			c0-1.8-0.7-3.2-2.5-3.2c-1.3,0-2.3,0.9-2.7,2c-0.1,0.2-0.1,0.6-0.1,0.9v6.5h-2V242.7z"/>
		<path class="st1" d="M95.2,245.6c0,2.7,1.8,3.8,3.7,3.8c1.4,0,2.3-0.2,3-0.6l0.3,1.4c-0.7,0.3-1.9,0.7-3.6,0.7
			c-3.4,0-5.4-2.2-5.4-5.5s1.9-5.9,5.1-5.9c3.6,0,4.5,3.1,4.5,5.1c0,0.4,0,0.7-0.1,0.9H95.2z M101,244.2c0-1.3-0.5-3.2-2.7-3.2
			c-2,0-2.9,1.8-3,3.2H101z"/>
		<path class="st1" d="M106.2,239.8l1.4,5.5c0.3,1.2,0.6,2.3,0.8,3.5h0.1c0.2-1.1,0.6-2.3,1-3.4l1.8-5.6h1.7l1.7,5.4
			c0.4,1.3,0.7,2.5,1,3.6h0.1c0.2-1.1,0.5-2.3,0.8-3.5l1.6-5.5h2l-3.5,10.9h-1.8l-1.7-5.2c-0.4-1.2-0.7-2.3-1-3.6h0
			c-0.3,1.3-0.6,2.4-1,3.6l-1.8,5.2h-1.8l-3.3-10.9H106.2z"/>
		<path class="st1" d="M134.5,250.2c-0.5,0.3-1.7,0.6-3.1,0.6c-3.3,0-5.4-2.2-5.4-5.6c0-3.4,2.3-5.8,5.9-5.8c1.2,0,2.2,0.3,2.7,0.6
			l-0.4,1.5c-0.5-0.3-1.2-0.5-2.3-0.5c-2.5,0-3.8,1.8-3.8,4.1c0,2.5,1.6,4.1,3.8,4.1c1.1,0,1.9-0.3,2.4-0.5L134.5,250.2z"/>
		<path class="st1" d="M142.8,250.7l-0.2-1.4h-0.1c-0.6,0.9-1.8,1.6-3.3,1.6c-2.2,0-3.3-1.6-3.3-3.1c0-2.6,2.3-4.1,6.5-4.1v-0.2
			c0-0.9-0.2-2.5-2.5-2.5c-1,0-2.1,0.3-2.8,0.8l-0.4-1.3c0.9-0.6,2.2-1,3.6-1c3.3,0,4.1,2.3,4.1,4.5v4.1c0,0.9,0,1.9,0.2,2.6H142.8z
			 M142.5,245.1c-2.2,0-4.6,0.3-4.6,2.5c0,1.3,0.9,1.9,1.9,1.9c1.4,0,2.3-0.9,2.6-1.8c0.1-0.2,0.1-0.4,0.1-0.6V245.1z"/>
		<path class="st1" d="M147.7,242.7c0-1.1,0-2-0.1-2.9h1.7l0.1,1.8h0.1c0.6-1,1.6-2,3.4-2c1.5,0,2.6,0.9,3.1,2.2h0
			c0.3-0.6,0.8-1.1,1.2-1.4c0.7-0.5,1.4-0.8,2.4-0.8c1.4,0,3.6,0.9,3.6,4.7v6.4h-1.9v-6.2c0-2.1-0.8-3.4-2.4-3.4
			c-1.1,0-2,0.8-2.3,1.8c-0.1,0.3-0.2,0.6-0.2,1v6.7h-1.9v-6.5c0-1.7-0.8-3-2.3-3c-1.2,0-2.1,1-2.5,2c-0.1,0.3-0.2,0.6-0.2,1v6.6
			h-1.9V242.7z"/>
		<path class="st1" d="M166.4,243.3c0-1.4,0-2.5-0.1-3.6h1.8l0.1,1.9h0c0.8-1.3,2.1-2.1,3.9-2.1c2.6,0,4.6,2.2,4.6,5.5
			c0,3.9-2.4,5.9-5,5.9c-1.4,0-2.7-0.6-3.4-1.7h0v5.9h-2V243.3z M168.4,246.2c0,0.3,0,0.6,0.1,0.8c0.4,1.4,1.6,2.3,3,2.3
			c2.1,0,3.3-1.7,3.3-4.2c0-2.2-1.1-4.1-3.2-4.1c-1.4,0-2.6,1-3,2.5c-0.1,0.2-0.1,0.5-0.1,0.8V246.2z"/>
		<path class="st1" d="M188.3,247.7c0,1.1,0,2.1,0.1,3h-1.8l-0.1-1.8h0c-0.5,0.9-1.7,2-3.6,2c-1.7,0-3.8-0.9-3.8-4.8v-6.4h2v6
			c0,2.1,0.6,3.5,2.4,3.5c1.3,0,2.3-0.9,2.6-1.8c0.1-0.3,0.2-0.7,0.2-1v-6.7h2V247.7z"/>
		<path class="st1" d="M191.4,248.6c0.6,0.4,1.6,0.8,2.6,0.8c1.4,0,2.1-0.7,2.1-1.6c0-0.9-0.6-1.5-2-2c-2-0.7-2.9-1.8-2.9-3.1
			c0-1.8,1.4-3.2,3.8-3.2c1.1,0,2.1,0.3,2.7,0.7l-0.5,1.4c-0.4-0.3-1.2-0.6-2.2-0.6c-1.2,0-1.8,0.7-1.8,1.5c0,0.9,0.7,1.3,2.1,1.8
			c1.9,0.7,2.9,1.7,2.9,3.3c0,1.9-1.5,3.3-4.1,3.3c-1.2,0-2.3-0.3-3.1-0.7L191.4,248.6z"/>
		<path class="st1" d="M201.6,245.6c0,2.7,1.8,3.8,3.7,3.8c1.4,0,2.3-0.2,3-0.6l0.3,1.4c-0.7,0.3-1.9,0.7-3.6,0.7
			c-3.4,0-5.4-2.2-5.4-5.5s1.9-5.9,5.1-5.9c3.6,0,4.5,3.1,4.5,5.1c0,0.4,0,0.7-0.1,0.9H201.6z M207.4,244.2c0-1.3-0.5-3.2-2.7-3.2
			c-2,0-2.9,1.8-3,3.2H207.4z"/>
		<path class="st1" d="M211.5,248.6c0.6,0.4,1.6,0.8,2.6,0.8c1.4,0,2.1-0.7,2.1-1.6c0-0.9-0.6-1.5-2-2c-2-0.7-2.9-1.8-2.9-3.1
			c0-1.8,1.4-3.2,3.8-3.2c1.1,0,2.1,0.3,2.7,0.7l-0.5,1.4c-0.4-0.3-1.2-0.6-2.2-0.6c-1.2,0-1.8,0.7-1.8,1.5c0,0.9,0.7,1.3,2.1,1.8
			c1.9,0.7,2.9,1.7,2.9,3.3c0,1.9-1.5,3.3-4.1,3.3c-1.2,0-2.3-0.3-3.1-0.7L211.5,248.6z"/>
		<path class="st1" d="M227.7,236.7c0,0.7-0.5,1.2-1.3,1.2c-0.7,0-1.2-0.5-1.2-1.2c0-0.7,0.5-1.2,1.2-1.2
			C227.2,235.5,227.7,236,227.7,236.7z M225.5,250.7v-10.9h2v10.9H225.5z"/>
		<path class="st1" d="M230.8,242.7c0-1.1,0-2-0.1-2.9h1.8l0.1,1.8h0c0.5-1,1.8-2,3.6-2c1.5,0,3.8,0.9,3.8,4.6v6.5h-2v-6.3
			c0-1.8-0.7-3.2-2.5-3.2c-1.3,0-2.3,0.9-2.7,2c-0.1,0.2-0.1,0.6-0.1,0.9v6.5h-2V242.7z"/>
		<path class="st1" d="M247.4,250.7v-1.2l1.6-1.5c3.7-3.6,5.4-5.4,5.4-7.7c0-1.5-0.7-2.9-2.9-2.9c-1.3,0-2.4,0.7-3.1,1.2l-0.6-1.4
			c1-0.9,2.5-1.5,4.1-1.5c3.2,0,4.5,2.2,4.5,4.3c0,2.7-2,4.9-5,7.9l-1.2,1.1v0h6.6v1.6H247.4z"/>
		<path class="st1" d="M268.7,243.2c0,5-1.8,7.7-5.1,7.7c-2.9,0-4.8-2.7-4.8-7.5c0-4.9,2.1-7.6,5.1-7.6
			C266.9,235.8,268.7,238.5,268.7,243.2z M260.7,243.4c0,3.8,1.2,6,3,6c2,0,3-2.4,3-6.1c0-3.6-0.9-6-3-6
			C262,237.3,260.7,239.4,260.7,243.4z"/>
		<path class="st1" d="M274.8,237.9L274.8,237.9l-2.6,1.4l-0.4-1.5l3.2-1.7h1.7v14.6h-1.9V237.9z"/>
		<path class="st1" d="M290.8,237.7h-5.6l-0.6,3.8c0.3,0,0.7-0.1,1.2-0.1c1.1,0,2.3,0.2,3.2,0.8c1.1,0.7,2.1,1.9,2.1,3.8
			c0,2.9-2.3,5-5.4,5c-1.6,0-2.9-0.5-3.6-0.9l0.5-1.5c0.6,0.4,1.8,0.8,3.1,0.8c1.9,0,3.5-1.2,3.5-3.2c0-1.9-1.3-3.2-4.2-3.2
			c-0.8,0-1.5,0.1-2,0.2l0.9-7h7V237.7z"/>
		<path class="st1" d="M293.7,249.5c0-0.8,0.6-1.4,1.4-1.4c0.8,0,1.3,0.6,1.3,1.4c0,0.8-0.5,1.4-1.4,1.4
			C294.3,250.9,293.7,250.3,293.7,249.5z"/>
	</g>
</g>
</svg>
