<?xml version="1.0" encoding="utf-8"?>
<!-- Generator: Adobe Illustrator 18.0.0, SVG Export Plug-In . SVG Version: 6.00 Build 0)  -->
<!DOCTYPE svg PUBLIC "-//W3C//DTD SVG 1.1//EN" "http://www.w3.org/Graphics/SVG/1.1/DTD/svg11.dtd">
<svg version="1.1" xmlns="http://www.w3.org/2000/svg" xmlns:xlink="http://www.w3.org/1999/xlink" x="0px" y="0px"
	 viewBox="0 0 362 362" style="enable-background:new 0 0 362 362;" xml:space="preserve">
<g id="Border">
	<path style="fill:#CCCCCC;" d="M181,4c47.3,0,91.7,18.4,125.1,51.8C339.6,89.3,358,133.7,358,181s-18.4,91.7-51.8,125.1
		C272.7,339.6,228.3,358,181,358s-91.7-18.4-125.1-51.8C22.4,272.7,4,228.3,4,181S22.4,89.3,55.8,55.8C89.3,22.4,133.7,4,181,4
		 M181,0C81,0,0,81,0,181s81,181,181,181s181-81,181-181S280.9,0,181,0L181,0z"/>
</g>
<g id="Contents">
	<g>
		<path style="fill:#444444;" d="M48.9,219.3c0.9-0.2,2.1-0.4,3.3-0.4c2,0,3.4,0.4,4.2,1.4c0.7,0.7,1,1.5,1,2.7
			c0,1.7-1.2,3.1-2.8,3.6v0.1c1.4,0.3,3.5,1.5,3.5,4.2c0,1.3-0.5,2.3-1.2,3.1c-1.1,1.1-2.8,1.5-5.2,1.5c-1.2,0-2.2-0.1-2.8-0.1
			V219.3z M50.1,226.2h2.4c2.4,0,3.8-1.4,3.8-3.2c0-2.3-1.7-3.1-4.2-3.1c-1.1,0-1.7,0.1-2.1,0.2V226.2z M50.1,234.3
			c0.5,0.1,1.1,0.1,2,0.1c2.5,0,4.8-0.9,4.8-3.7c0-2.6-2.2-3.7-4.8-3.7h-2.1V234.3z"/>
		<path style="fill:#444444;" d="M60.2,229.4c0,3.7,2,5.2,4.4,5.2c1.7,0,2.6-0.3,3.2-0.7l0.3,0.9c-0.4,0.2-1.6,0.7-3.6,0.7
			c-3.3,0-5.4-2.4-5.4-5.8c0-3.9,2.2-6.3,5.2-6.3c3.8,0,4.5,3.6,4.5,5.2c0,0.3,0,0.5,0,0.7H60.2z M67.6,228.5c0-1.6-0.7-4.1-3.5-4.1
			c-2.6,0-3.6,2.3-3.9,4.1H67.6z"/>
		<path style="fill:#444444;" d="M78.6,234.8c-0.5,0.2-1.7,0.7-3.4,0.7c-3.3,0-5.6-2.4-5.6-5.9c0-3.7,2.5-6.2,6-6.2
			c1.4,0,2.6,0.4,3,0.7l-0.4,0.9c-0.6-0.3-1.4-0.7-2.7-0.7c-3.1,0-4.7,2.4-4.7,5.1c0,3,1.9,5,4.6,5c1.4,0,2.3-0.4,2.9-0.7
			L78.6,234.8z"/>
		<path style="fill:#444444;" d="M87.5,232.5c0,0.9,0,1.9,0.2,2.8h-1.1l-0.2-1.7h0c-0.6,0.9-1.9,1.9-3.7,1.9c-2.3,0-3.4-1.6-3.4-3.2
			c0-2.7,2.3-4.3,7.1-4.2v-0.3c0-1.1-0.2-3.4-3-3.4c-1,0-2.1,0.3-2.9,0.9l-0.4-0.8c1.1-0.7,2.4-1,3.4-1c3.4,0,4,2.5,4,4.6V232.5z
			 M86.4,229.1c-2.5-0.1-5.9,0.3-5.9,3.1c0,1.7,1.1,2.4,2.3,2.4c1.9,0,3-1.2,3.4-2.3c0.1-0.2,0.1-0.5,0.1-0.7V229.1z"/>
		<path style="fill:#444444;" d="M99.1,232.5c0,1,0,1.9,0.1,2.8h-1.1l-0.1-2.1h0c-0.6,1.1-1.9,2.3-4,2.3c-1.5,0-4-0.7-4-5.1v-6.7
			h1.2v6.5c0,2.5,0.8,4.3,3.1,4.3c1.7,0,2.9-1.2,3.4-2.3c0.1-0.4,0.2-0.8,0.2-1.3v-7.2h1.2V232.5z"/>
		<path style="fill:#444444;" d="M101.4,233.8c0.6,0.4,1.6,0.8,2.6,0.8c1.8,0,2.7-1,2.7-2.2c0-1.3-0.8-2-2.4-2.6
			c-1.9-0.7-2.9-1.8-2.9-3.2c0-1.7,1.3-3.1,3.6-3.1c1.1,0,2,0.3,2.6,0.7l-0.4,0.9c-0.4-0.3-1.2-0.7-2.3-0.7c-1.5,0-2.2,0.9-2.2,2
			c0,1.2,0.8,1.7,2.4,2.4c1.9,0.7,3,1.7,3,3.5c0,2-1.5,3.3-3.9,3.3c-1.1,0-2.2-0.3-2.9-0.8L101.4,233.8z"/>
		<path style="fill:#444444;" d="M110,229.4c0,3.7,2,5.2,4.4,5.2c1.7,0,2.6-0.3,3.2-0.7l0.3,0.9c-0.4,0.2-1.6,0.7-3.6,0.7
			c-3.3,0-5.4-2.4-5.4-5.8c0-3.9,2.2-6.3,5.2-6.3c3.8,0,4.5,3.6,4.5,5.2c0,0.3,0,0.5,0,0.7H110z M117.4,228.5c0-1.6-0.7-4.1-3.5-4.1
			c-2.6,0-3.6,2.3-3.9,4.1H117.4z"/>
		<path style="fill:#444444;" d="M129,235.5c-3,0-5.3-2.3-5.3-6c0-4,2.6-6.2,5.5-6.2c3.2,0,5.4,2.4,5.4,6
			C134.5,233.7,131.6,235.5,129,235.5L129,235.5z M129.1,234.6c2.4,0,4.3-2.2,4.3-5.1c0-2.1-1.2-5-4.2-5c-3,0-4.3,2.6-4.3,5.1
			C124.8,232.4,126.7,234.6,129.1,234.6L129.1,234.6z"/>
		<path style="fill:#444444;" d="M136.5,235.3v-10.6h-1.7v-0.9h1.7v-0.6c0-1.8,0.3-3.2,1.3-4.2c0.7-0.7,1.7-1,2.6-1
			c0.7,0,1.4,0.2,1.7,0.4l-0.4,0.9c-0.3-0.2-0.8-0.3-1.5-0.3c-2.2,0-2.6,2-2.6,4.2v0.7h3.1v0.9h-3.1v10.6H136.5z"/>
		<path style="fill:#444444;" d="M145.4,223.7l3,7.6c0.3,0.8,0.6,1.8,0.8,2.5h0c0.2-0.7,0.5-1.6,0.9-2.6l2.8-7.5h1.2l-3.5,8.6
			c-1.4,3.6-2.4,5.7-3.9,7.1c-0.9,0.8-1.8,1.1-2,1.2l-0.4-1c0.6-0.2,1.3-0.6,2-1.3c0.6-0.6,1.4-1.5,1.9-2.9c0.1-0.2,0.1-0.4,0.1-0.5
			c0-0.1,0-0.3-0.1-0.5l-4.3-10.7H145.4z"/>
		<path style="fill:#444444;" d="M159.5,235.5c-3,0-5.3-2.3-5.3-6c0-4,2.6-6.2,5.5-6.2c3.2,0,5.4,2.4,5.4,6
			C165.1,233.7,162.1,235.5,159.5,235.5L159.5,235.5z M159.6,234.6c2.4,0,4.3-2.2,4.3-5.1c0-2.1-1.2-5-4.2-5c-3,0-4.3,2.6-4.3,5.1
			C155.4,232.4,157.2,234.6,159.6,234.6L159.6,234.6z"/>
		<path style="fill:#444444;" d="M175.9,232.5c0,1,0,1.9,0.1,2.8h-1.1l-0.1-2.1h0c-0.6,1.1-1.9,2.3-4,2.3c-1.5,0-4-0.7-4-5.1v-6.7
			h1.2v6.5c0,2.5,0.8,4.3,3.1,4.3c1.7,0,2.9-1.2,3.4-2.3c0.1-0.4,0.2-0.8,0.2-1.3v-7.2h1.2V232.5z"/>
		<path style="fill:#444444;" d="M177.1,238.3c0.4-1,1-3.6,1.3-5.1l1.5-0.2c-0.4,1.8-1.5,4.6-1.9,5.2L177.1,238.3z"/>
		<path style="fill:#444444;" d="M185.6,223.7l2,6.6c0.4,1.4,0.7,2.5,1,3.6h0c0.3-1.1,0.7-2.3,1.2-3.6l2.3-6.6h1.1l2.2,6.5
			c0.5,1.4,0.8,2.6,1.1,3.7h0c0.2-1.1,0.6-2.2,1.1-3.6l2.1-6.6h1.2l-3.9,11.6h-1l-2.2-6.5c-0.5-1.4-0.9-2.6-1.2-3.9h0
			c-0.3,1.4-0.8,2.6-1.3,4l-2.3,6.4h-1l-3.6-11.6H185.6z"/>
		<path style="fill:#444444;" d="M202.1,229.4c0,3.7,2,5.2,4.4,5.2c1.7,0,2.6-0.3,3.2-0.7l0.3,0.9c-0.4,0.2-1.6,0.7-3.6,0.7
			c-3.3,0-5.4-2.4-5.4-5.8c0-3.9,2.2-6.3,5.2-6.3c3.8,0,4.5,3.6,4.5,5.2c0,0.3,0,0.5,0,0.7H202.1z M209.5,228.5
			c0-1.6-0.7-4.1-3.5-4.1c-2.6,0-3.6,2.3-3.9,4.1H209.5z"/>
		<path style="fill:#444444;" d="M216.7,218.1h1.2v7.7h0c0.8-1.5,2.2-2.4,4.2-2.4c2.9,0,4.9,2.5,4.9,5.9c0,4.1-2.6,6.2-5.2,6.2
			c-1.9,0-3.2-0.8-4.2-2.3h0l-0.1,2.1h-1c0.1-0.8,0.1-1.8,0.1-2.7V218.1z M217.9,230.8c0,0.3,0,0.6,0.1,0.8c0.5,1.8,2,2.9,3.8,2.9
			c2.7,0,4.2-2.2,4.2-5.2c0-2.7-1.4-5-4.1-5c-1.7,0-3.3,1.2-3.9,3.1c-0.1,0.3-0.1,0.6-0.1,1V230.8z"/>
		<path style="fill:#444444;" d="M237.9,232.5c0,1,0,1.9,0.1,2.8h-1.1l-0.1-2.1h0c-0.6,1.1-1.9,2.3-4,2.3c-1.5,0-4-0.7-4-5.1v-6.7
			h1.2v6.5c0,2.5,0.8,4.3,3.1,4.3c1.7,0,2.9-1.2,3.4-2.3c0.1-0.4,0.2-0.8,0.2-1.3v-7.2h1.2V232.5z"/>
		<path style="fill:#444444;" d="M241.3,221.4c-0.5,0-0.9-0.5-0.9-1c0-0.5,0.4-1,0.9-1c0.5,0,0.9,0.5,0.9,1
			C242.2,220.9,241.9,221.4,241.3,221.4L241.3,221.4z M240.7,235.3v-11.6h1.2v11.6H240.7z"/>
		<path style="fill:#444444;" d="M244.7,218.1h1.2v17.2h-1.2V218.1z"/>
		<path style="fill:#444444;" d="M250.3,221.1v2.6h3.3v0.9h-3.3v7.5c0,1.5,0.5,2.4,1.7,2.4c0.6,0,1-0.1,1.3-0.2l0.1,0.9
			c-0.4,0.1-0.9,0.3-1.6,0.3c-0.8,0-1.5-0.3-2-0.8c-0.5-0.6-0.7-1.6-0.7-2.8v-7.3h-2v-0.9h2v-2.1L250.3,221.1z"/>
		<path style="fill:#B8252E;" d="M258.9,232.8c0.6,0.4,2,1,3.5,1c2.7,0,3.6-1.7,3.5-3c0-2.2-2-3.1-4.1-3.1h-1.2v-1.6h1.2
			c1.5,0,3.5-0.8,3.5-2.7c0-1.3-0.8-2.4-2.8-2.4c-1.3,0-2.5,0.6-3.1,1l-0.6-1.5c0.8-0.6,2.4-1.2,4.1-1.2c3.1,0,4.5,1.8,4.5,3.7
			c0,1.6-1,3-2.9,3.7v0c1.9,0.4,3.5,1.8,3.5,4c0,2.5-2,4.7-5.7,4.7c-1.8,0-3.3-0.6-4.1-1.1L258.9,232.8z"/>
		<path style="fill:#444444;" d="M274.8,226.5c0-1.1,0-1.9-0.1-2.8h1.1l0.1,2.1h0c0.6-1.3,2.1-2.3,4-2.3c1.1,0,4.1,0.6,4.1,4.9v7
			h-1.2v-6.9c0-2.1-0.8-4-3.2-4c-1.6,0-3,1.2-3.5,2.7c-0.1,0.3-0.1,0.7-0.1,1v7.2h-1.2V226.5z"/>
		<path style="fill:#444444;" d="M286.8,229.4c0,3.7,2,5.2,4.4,5.2c1.7,0,2.6-0.3,3.2-0.7l0.3,0.9c-0.4,0.2-1.6,0.7-3.6,0.7
			c-3.3,0-5.4-2.4-5.4-5.8c0-3.9,2.2-6.3,5.2-6.3c3.8,0,4.5,3.6,4.5,5.2c0,0.3,0,0.5,0,0.7H286.8z M294.2,228.5
			c0-1.6-0.7-4.1-3.5-4.1c-2.6,0-3.6,2.3-3.9,4.1H294.2z"/>
		<path style="fill:#444444;" d="M297.1,223.7l2,6.6c0.4,1.4,0.7,2.5,1,3.6h0c0.3-1.1,0.7-2.3,1.2-3.6l2.3-6.6h1.1l2.2,6.5
			c0.5,1.4,0.8,2.6,1.1,3.7h0c0.2-1.1,0.6-2.2,1.1-3.6l2.1-6.6h1.2l-3.9,11.6h-1l-2.2-6.5c-0.5-1.4-0.9-2.6-1.2-3.9h0
			c-0.3,1.4-0.8,2.6-1.3,4l-2.3,6.4h-1l-3.6-11.6H297.1z"/>
		<path style="fill:#444444;" d="M112,262.8c-0.5,0.2-1.7,0.7-3.4,0.7c-3.3,0-5.6-2.4-5.6-5.9c0-3.7,2.5-6.2,6-6.2
			c1.4,0,2.6,0.4,3,0.7l-0.4,0.9c-0.6-0.3-1.4-0.7-2.7-0.7c-3.1,0-4.7,2.4-4.7,5.1c0,3,1.9,5,4.6,5c1.4,0,2.3-0.4,2.9-0.7L112,262.8
			z"/>
		<path style="fill:#444444;" d="M120.9,260.5c0,0.9,0,1.9,0.2,2.8H120l-0.2-1.7h0c-0.6,0.9-1.9,1.9-3.7,1.9c-2.3,0-3.4-1.6-3.4-3.2
			c0-2.7,2.3-4.3,7.1-4.2v-0.3c0-1.1-0.2-3.4-3-3.4c-1,0-2.1,0.3-2.9,0.9l-0.4-0.8c1.1-0.7,2.4-1,3.4-1c3.4,0,4,2.5,4,4.6V260.5z
			 M119.8,257.1c-2.5-0.1-5.9,0.3-5.9,3.1c0,1.7,1.1,2.4,2.3,2.4c1.9,0,3-1.2,3.4-2.3c0.1-0.2,0.1-0.5,0.1-0.7V257.1z"/>
		<path style="fill:#444444;" d="M123.6,254.5c0-1.1,0-1.9-0.1-2.8h1.1l0.1,2h0c0.7-1.3,1.9-2.3,3.8-2.3c1.6,0,2.8,1.1,3.3,2.5h0
			c0.3-0.7,0.7-1.2,1.2-1.6c0.7-0.6,1.5-0.9,2.8-0.9c1.1,0,3.8,0.6,3.8,5v6.8h-1.2v-6.7c0-2.6-1-4.2-3-4.2c-1.4,0-2.6,1.1-3,2.3
			c-0.1,0.3-0.2,0.7-0.2,1.2v7.4H131V256c0-2.1-1-3.6-2.9-3.6c-1.5,0-2.8,1.3-3.2,2.6c-0.1,0.3-0.2,0.7-0.2,1.1v7.1h-1.2V254.5z"/>
		<path style="fill:#444444;" d="M142.2,255.4c0-1.4,0-2.6-0.1-3.7h1.1l0.1,2.2h0c0.8-1.5,2.3-2.5,4.3-2.5c3,0,5,2.5,5,5.9
			c0,4.1-2.5,6.3-5.3,6.3c-1.7,0-3.1-0.7-3.9-2.1h0v6.7h-1.2V255.4z M143.4,258.7c0,0.3,0,0.6,0.1,0.9c0.5,1.8,2,2.9,3.8,2.9
			c2.7,0,4.2-2.1,4.2-5.2c0-2.6-1.4-4.9-4.1-4.9c-1.7,0-3.3,1.2-3.8,3.1c-0.1,0.3-0.2,0.7-0.2,1V258.7z"/>
		<path style="fill:#444444;" d="M163.4,260.5c0,1,0,1.9,0.1,2.8h-1.1l-0.1-2.1h0c-0.6,1.1-1.9,2.3-4,2.3c-1.5,0-4-0.7-4-5.1v-6.7
			h1.2v6.5c0,2.5,0.8,4.3,3.1,4.3c1.7,0,2.9-1.2,3.4-2.3c0.1-0.4,0.2-0.8,0.2-1.3v-7.2h1.2V260.5z"/>
		<path style="fill:#444444;" d="M165.7,261.8c0.6,0.4,1.6,0.8,2.6,0.8c1.8,0,2.7-1,2.7-2.2c0-1.3-0.8-2-2.4-2.6
			c-1.9-0.7-2.9-1.8-2.9-3.2c0-1.7,1.3-3.1,3.6-3.1c1.1,0,2,0.3,2.6,0.7l-0.4,0.9c-0.4-0.3-1.2-0.7-2.3-0.7c-1.5,0-2.2,0.9-2.2,2
			c0,1.2,0.8,1.7,2.4,2.4c1.9,0.7,3,1.7,3,3.5c0,2-1.5,3.3-3.9,3.3c-1.1,0-2.2-0.3-2.9-0.8L165.7,261.8z"/>
		<path style="fill:#444444;" d="M174.3,257.4c0,3.7,2,5.2,4.4,5.2c1.7,0,2.6-0.3,3.2-0.7l0.3,0.9c-0.4,0.2-1.6,0.7-3.6,0.7
			c-3.3,0-5.4-2.4-5.4-5.8c0-3.9,2.2-6.3,5.2-6.3c3.8,0,4.5,3.6,4.5,5.2c0,0.3,0,0.5,0,0.7H174.3z M181.7,256.5
			c0-1.6-0.7-4.1-3.5-4.1c-2.6,0-3.6,2.3-3.9,4.1H181.7z"/>
		<path style="fill:#444444;" d="M184.3,261.8c0.6,0.4,1.6,0.8,2.6,0.8c1.8,0,2.7-1,2.7-2.2c0-1.3-0.8-2-2.4-2.6
			c-1.9-0.7-2.9-1.8-2.9-3.2c0-1.7,1.3-3.1,3.6-3.1c1.1,0,2,0.3,2.6,0.7l-0.4,0.9c-0.4-0.3-1.2-0.7-2.3-0.7c-1.5,0-2.2,0.9-2.2,2
			c0,1.2,0.8,1.7,2.4,2.4c1.9,0.7,3,1.7,3,3.5c0,2-1.5,3.3-3.9,3.3c-1.1,0-2.2-0.3-2.9-0.8L184.3,261.8z"/>
		<path style="fill:#444444;" d="M197.4,249.4c-0.5,0-0.9-0.5-0.9-1c0-0.5,0.4-1,0.9-1c0.5,0,0.9,0.5,0.9,1
			C198.4,248.9,198,249.4,197.4,249.4L197.4,249.4z M196.9,263.3v-11.6h1.2v11.6H196.9z"/>
		<path style="fill:#444444;" d="M200.8,254.5c0-1.1,0-1.9-0.1-2.8h1.1l0.1,2.1h0c0.6-1.3,2.1-2.3,4-2.3c1.1,0,4.1,0.6,4.1,4.9v7
			h-1.2v-6.9c0-2.1-0.8-4-3.2-4c-1.6,0-3,1.2-3.5,2.7c-0.1,0.3-0.1,0.7-0.1,1v7.2h-1.2V254.5z"/>
		<path style="fill:#444444;" d="M216,263.3v-0.7l1.4-1.5c4.4-4.3,6.3-6.5,6.3-9.2c0-1.8-0.7-3.5-3.4-3.5c-1.5,0-2.7,0.8-3.3,1.4
			l-0.5-0.8c1-0.9,2.4-1.6,4-1.6c3.3,0,4.4,2.5,4.4,4.3c0,3.1-2.2,5.6-6.2,9.5l-1.1,1.2v0h7.7v1H216z"/>
		<path style="fill:#444444;" d="M231.3,263.5c-2.5,0-4.7-2.4-4.8-8c0-5.7,2.5-8.2,5.1-8.2c2.8,0,4.8,2.5,4.8,7.9
			C236.5,260.8,234.5,263.5,231.3,263.5L231.3,263.5z M231.5,262.6c2.6,0,3.8-3,3.8-7.2c0-4.1-1.1-7-3.8-7c-2.3,0-3.8,2.9-3.8,7
			C227.7,259.7,229.2,262.6,231.5,262.6L231.5,262.6z"/>
		<path style="fill:#444444;" d="M242,248.8L242,248.8l-2.6,1.5l-0.3-0.9l3-1.8h1.1v15.7H242V248.8z"/>
		<path style="fill:#444444;" d="M254.7,263.3v-4.6h-7.5v-0.8l7.7-10.3h0.9v10.1h2.4v1h-2.4v4.6H254.7z M254.7,257.7v-6.3
			c0-0.7,0-1.5,0.1-2.2l-0.1,0c-0.5,0.9-0.8,1.4-1.2,2l-4.9,6.5v0H254.7z"/>
		<path style="fill:#444444;" d="M259.9,263.5c-0.6,0-1-0.5-0.9-1.1c0-0.6,0.4-1.1,1-1.1c0.6,0,1,0.5,1,1.1
			C261,263,260.6,263.5,259.9,263.5L259.9,263.5z"/>
	</g>
	<g>
		<path style="fill:#B8252E;" d="M186.6,110.9c1.9,0.3,3.8,0.1,5.4-0.7l-5.1-7.1l1.7-1.2c0.3,0.1,0.6,0.2,0.9,0.2
			c1,0,1.8-0.8,1.8-1.8c0-1-0.8-1.8-1.8-1.8c-1,0-1.8,0.8-1.8,1.8c0,0.1,0,0.2,0,0.3l-1.7,1.2l-4.9-6.9c-1.2,1.3-2.1,3-2.4,4.9
			C177.8,105,181.3,110,186.6,110.9z"/>
		<path style="fill:#B8252E;" d="M188.6,125.9c0.1-0.1,13.3-5.5,36.3-6.4v-4.9h-51.1v-8.3h-31.3v8.3h-10.2v23h71.2v-8.4h6.3v8.4h1
			v-8.4h6.3v8.4h7.8V123c1.9-0.1,3.9-0.1,5.9-0.1v-2.6c-26.4,0-41.7,6.3-41.9,6.4L188.6,125.9z M155.5,123.7
			c-0.3,0.1-0.6,0.2-0.9,0.3l-10.9,1.7l4.5-7.2c1.1-1.7,3.7-3.5,7.8-4.4l-4.1,6.3c-0.1,0.1-0.2,0.3-0.3,0.6l-1.2,1.9
			c-0.2,0.3-0.1,0.5,0.2,0.5c1.2-0.2,1.5-0.2,1.9-0.7c0.1-0.1,0.8-0.9,1.2-1.4l3.8-0.6c1.1-0.2,1.9-0.3,1.9-0.3
			S158.5,122.3,155.5,123.7z M165.3,122c-1.8,0.6-6.9,1.3-6.9,1.3c2.3-2.6,3.7-3,4.1-3.2c2.1-0.9,6.9-1.5,6.9-1.5
			C169.5,118.5,168.5,120.9,165.3,122z M164.8,115.3c-1.8,0.4-2.7,0.5-3.6,2.6c-0.1,0.2-0.4,0.9-1.2,1.1l-0.4,0.1l-4.6,0.7
			c0.7-1.2,1.7-2.6,1.9-2.9c1-1.6,2.3-3.3,8.1-4.4c0,0,3.2-0.6,5.3-0.9C170.3,111.5,168.6,114.4,164.8,115.3z"/>
	</g>
	<g>
		<path style="fill:#B8252E;" d="M126.6,165.9c1.9,0.3,3.8,0.1,5.4-0.7l-5.1-7.1l1.7-1.2c0.3,0.1,0.6,0.2,0.9,0.2
			c1,0,1.8-0.8,1.8-1.8c0-1-0.8-1.8-1.8-1.8c-1,0-1.8,0.8-1.8,1.8c0,0.1,0,0.2,0,0.3l-1.7,1.2l-4.9-6.9c-1.2,1.3-2.1,3-2.4,4.9
			C117.8,160,121.3,165,126.6,165.9z"/>
		<path style="fill:#B8252E;" d="M128.6,180.9c0.1-0.1,13.3-5.5,36.3-6.4v-4.9h-51.1v-8.3H82.5v8.3H72.3v23h71.2v-8.4h6.3v8.4h1
			v-8.4h6.3v8.4h7.8V178c1.9-0.1,3.9-0.1,5.9-0.1v-2.6c-26.4,0-41.7,6.3-41.9,6.4L128.6,180.9z M95.5,178.7
			c-0.3,0.1-0.6,0.2-0.9,0.3l-10.9,1.7l4.5-7.2c1.1-1.7,3.7-3.5,7.8-4.4l-4.1,6.3c-0.1,0.1-0.2,0.3-0.3,0.6l-1.2,1.9
			c-0.2,0.3-0.1,0.5,0.2,0.5c1.2-0.2,1.5-0.2,1.9-0.7c0.1-0.1,0.8-0.9,1.2-1.4l3.8-0.6c1.1-0.2,1.9-0.3,1.9-0.3
			S98.5,177.3,95.5,178.7z M105.3,177c-1.8,0.6-6.9,1.3-6.9,1.3c2.3-2.6,3.7-3,4.1-3.2c2.1-0.9,6.9-1.5,6.9-1.5
			C109.5,173.5,108.5,175.9,105.3,177z M104.8,170.3c-1.8,0.4-2.7,0.5-3.6,2.6c-0.1,0.2-0.4,0.9-1.2,1.1l-0.4,0.1l-4.6,0.7
			c0.7-1.2,1.7-2.6,1.9-2.9c1-1.6,2.3-3.3,8.1-4.4c0,0,3.2-0.6,5.3-0.9C110.3,166.5,108.6,169.4,104.8,170.3z"/>
	</g>
	<g>
		<path style="fill:#B8252E;" d="M246.6,165.9c1.9,0.3,3.8,0.1,5.4-0.7l-5.1-7.1l1.7-1.2c0.3,0.1,0.6,0.2,0.9,0.2
			c1,0,1.8-0.8,1.8-1.8c0-1-0.8-1.8-1.8-1.8c-1,0-1.8,0.8-1.8,1.8c0,0.1,0,0.2,0,0.3l-1.7,1.2l-4.9-6.9c-1.2,1.3-2.1,3-2.4,4.9
			C237.8,160,241.3,165,246.6,165.9z"/>
		<path style="fill:#B8252E;" d="M248.6,180.9c0.1-0.1,13.3-5.5,36.3-6.4v-4.9h-51.1v-8.3h-31.3v8.3h-10.2v23h71.2v-8.4h6.3v8.4h1
			v-8.4h6.3v8.4h7.8V178c1.9-0.1,3.9-0.1,5.9-0.1v-2.6c-26.4,0-41.7,6.3-41.9,6.4L248.6,180.9z M215.5,178.7
			c-0.3,0.1-0.6,0.2-0.9,0.3l-10.9,1.7l4.5-7.2c1.1-1.7,3.7-3.5,7.8-4.4l-4.1,6.3c-0.1,0.1-0.2,0.3-0.3,0.6l-1.2,1.9
			c-0.2,0.3-0.1,0.5,0.2,0.5c1.2-0.2,1.5-0.2,1.9-0.7c0.1-0.1,0.8-0.9,1.2-1.4l3.8-0.6c1.1-0.2,1.9-0.3,1.9-0.3
			S218.5,177.3,215.5,178.7z M225.3,177c-1.8,0.6-6.9,1.3-6.9,1.3c2.3-2.6,3.7-3,4.1-3.2c2.1-0.9,6.9-1.5,6.9-1.5
			C229.5,173.5,228.5,175.9,225.3,177z M224.8,170.3c-1.8,0.4-2.7,0.5-3.6,2.6c-0.1,0.2-0.4,0.9-1.2,1.1l-0.4,0.1l-4.6,0.7
			c0.7-1.2,1.7-2.6,1.9-2.9c1-1.6,2.3-3.3,8.1-4.4c0,0,3.2-0.6,5.3-0.9C230.3,166.5,228.6,169.4,224.8,170.3z"/>
	</g>
</g>
</svg>
