<?xml version="1.0" encoding="utf-8"?>
<!-- Generator: Adobe Illustrator 18.0.0, SVG Export Plug-In . SVG Version: 6.00 Build 0)  -->
<!DOCTYPE svg PUBLIC "-//W3C//DTD SVG 1.1//EN" "http://www.w3.org/Graphics/SVG/1.1/DTD/svg11.dtd">
<svg version="1.1" id="Layer_1" xmlns="http://www.w3.org/2000/svg" xmlns:xlink="http://www.w3.org/1999/xlink" x="0px" y="0px"
	 width="682px" height="612px" viewBox="0 0 682 612" style="enable-background:new 0 0 682 612;" xml:space="preserve">
<style type="text/css">
	.st0{fill:#414042;}
	.st1{fill:#B9262E;}
</style>
<g>
	<g>
		<path class="st0" d="M243.1,427.7l6-5c8.5,10.7,19,16.9,32.9,16.9c14.2,0,26.1-9.5,26.1-23.4v-0.3c0-14.8-13.9-23-32.9-23h-5.7
			l-2-4.4l36.4-42h-55.5v-7.4h66.2v5.6l-35.8,40.9c20.1,1.2,37.5,10.6,37.5,29.9v0.3c0,18.4-16.2,30.8-34.4,30.8
			C264.7,446.7,251.7,438.8,243.1,427.7z"/>
		<path class="st0" d="M401.9,419.1h-57.3l-2.7-5.9l60.4-74.8h7.1v73.9h17.2v6.8h-17.2v25.8h-7.6V419.1z M401.9,412.3v-62.6
			l-50.5,62.6H401.9z"/>
	</g>
</g>
<g>
	<path class="st0" d="M87.7,482.8h20.6v4.1H92.7v12.7h14.4v4.1H92.7V521h-4.9V482.8z"/>
	<path class="st0" d="M123.1,482.8V521h-4.9v-38.2H123.1z"/>
	<path class="st0" d="M134.5,521v-38.2h5.4l12.2,19.3c2.8,4.5,5,8.5,6.9,12.4l0.1-0.1c-0.5-5.1-0.6-9.7-0.6-15.7v-16h4.6V521h-5
		l-12.1-19.4c-2.7-4.2-5.2-8.6-7.1-12.7l-0.2,0.1c0.3,4.8,0.4,9.4,0.4,15.8V521H134.5z"/>
	<path class="st0" d="M180.8,509l-4,12h-5.1l13-38.2h5.9l13,38.2h-5.3l-4.1-12H180.8z M193.3,505.1l-3.7-11c-0.9-2.5-1.4-4.8-2-7
		h-0.1c-0.6,2.3-1.2,4.6-1.9,6.9l-3.7,11H193.3z"/>
	<path class="st0" d="M212.1,521v-38.2h5.4l12.2,19.3c2.8,4.5,5,8.5,6.9,12.4l0.1-0.1c-0.5-5.1-0.6-9.7-0.6-15.7v-16h4.6V521h-5
		l-12.1-19.4c-2.7-4.2-5.2-8.6-7.1-12.7l-0.2,0.1c0.3,4.8,0.4,9.4,0.4,15.8V521H212.1z"/>
	<path class="st0" d="M278.9,519.7c-1.8,0.9-5.4,1.8-10.1,1.8c-10.8,0-18.9-6.8-18.9-19.3c0-12,8.1-20.1,19.9-20.1
		c4.8,0,7.8,1,9.1,1.7l-1.2,4c-1.9-0.9-4.5-1.6-7.7-1.6c-9,0-14.9,5.7-14.9,15.8c0,9.3,5.4,15.4,14.7,15.4c3,0,6.1-0.6,8-1.6
		L278.9,519.7z"/>
	<path class="st0" d="M292.9,482.8V521H288v-38.2H292.9z"/>
	<path class="st0" d="M310.5,509l-4,12h-5.1l13-38.2h5.9l13,38.2h-5.3l-4.1-12H310.5z M323,505.1l-3.7-11c-0.9-2.5-1.4-4.8-2-7h-0.1
		c-0.6,2.3-1.2,4.6-1.9,6.9l-3.7,11H323z"/>
	<path class="st0" d="M341.8,482.8h4.9v34.1h16.3v4.1h-21.2V482.8z"/>
	<path class="st0" d="M415.3,519.3c-2.2,0.8-6.6,2.1-11.7,2.1c-5.8,0-10.5-1.5-14.3-5c-3.3-3.2-5.3-8.3-5.3-14.2
		c0.1-11.4,7.9-19.7,20.7-19.7c4.4,0,7.9,1,9.5,1.8l-1.2,4c-2-0.9-4.6-1.6-8.4-1.6c-9.3,0-15.4,5.8-15.4,15.4
		c0,9.7,5.8,15.4,14.7,15.4c3.2,0,5.4-0.5,6.6-1v-11.4h-7.8v-4h12.6V519.3z"/>
	<path class="st0" d="M425.7,483.3c2.5-0.5,6.1-0.8,9.5-0.8c5.3,0,8.7,1,11,3.1c1.9,1.7,3,4.3,3,7.3c0,5-3.2,8.4-7.2,9.7v0.2
		c2.9,1,4.7,3.7,5.6,7.7c1.2,5.3,2.2,9,2.9,10.5h-5.1c-0.6-1.1-1.5-4.4-2.5-9.1c-1.1-5.3-3.2-7.3-7.6-7.4h-4.6V521h-4.9V483.3z
		 M430.6,500.7h5c5.3,0,8.6-2.9,8.6-7.3c0-4.9-3.6-7.1-8.8-7.1c-2.4,0-4.1,0.2-4.9,0.5V500.7z"/>
	<path class="st0" d="M465.5,509l-4,12h-5.1l13-38.2h5.9l13,38.2h-5.3l-4.1-12H465.5z M478,505.1l-3.7-11c-0.8-2.5-1.4-4.8-2-7h-0.1
		c-0.6,2.3-1.2,4.6-1.9,6.9l-3.7,11H478z"/>
	<path class="st0" d="M496.8,521v-38.2h5.4l12.2,19.3c2.8,4.5,5,8.5,6.9,12.4l0.1-0.1c-0.5-5.1-0.6-9.7-0.6-15.7v-16h4.6V521h-5
		l-12.1-19.4c-2.7-4.2-5.2-8.6-7.1-12.7l-0.2,0.1c0.3,4.8,0.4,9.4,0.4,15.8V521H496.8z"/>
	<path class="st0" d="M544.2,487h-11.6v-4.2h28.3v4.2h-11.7v34h-5V487z"/>
	<path class="st0" d="M566.9,515c2.2,1.4,5.4,2.5,8.8,2.5c5,0,8-2.7,8-6.5c0-3.6-2-5.6-7.2-7.6c-6.2-2.2-10.1-5.4-10.1-10.8
		c0-5.9,4.9-10.4,12.4-10.4c3.9,0,6.7,0.9,8.4,1.9l-1.4,4c-1.2-0.7-3.8-1.8-7.3-1.8c-5.2,0-7.2,3.1-7.2,5.7c0,3.6,2.3,5.3,7.6,7.4
		c6.5,2.5,9.7,5.6,9.7,11.2c0,5.9-4.4,11-13.4,11c-3.7,0-7.7-1.1-9.7-2.4L566.9,515z"/>
</g>
<g>
	<g>
		<path class="st0" d="M61.8,554h2l11.7,17.2L87.1,554h2v29.1H87v-25.3l-11.5,16.7h-0.2l-11.5-16.7v25.3h-2.1V554z"/>
		<path class="st0" d="M97.7,577L97.7,577c0-4.5,3.8-7,9.3-7c2.9,0,5,0.4,7,0.9V570c0-4.3-2.6-6.5-7-6.5c-2.6,0-4.7,0.7-6.6,1.7
			l-0.7-1.8c2.3-1.1,4.6-1.8,7.5-1.8c2.9,0,5.2,0.8,6.7,2.3c1.4,1.4,2.2,3.4,2.2,6v13.2h-2v-3.5c-1.5,2-4.1,4-8.1,4
			C101.9,583.6,97.7,581.4,97.7,577z M114,575.2v-2.4c-1.8-0.5-4.2-1-7.2-1c-4.5,0-7,2-7,4.9v0.1c0,3.1,2.9,4.9,6.1,4.9
			C110.3,581.7,114,579,114,575.2z"/>
		<path class="st0" d="M124,572.6L124,572.6c0-7,5.2-11.2,10.3-11.2c4.2,0,7,2.4,8.7,5.1v-13.7h2v30.3h-2v-4.7
			c-1.8,2.8-4.5,5.2-8.7,5.2C129.2,583.6,124,579.5,124,572.6z M143.1,572.5L143.1,572.5c0-5.5-4.2-9.2-8.6-9.2
			c-4.6,0-8.3,3.4-8.3,9.1v0.1c0,5.6,3.9,9.1,8.3,9.1C138.9,581.6,143.1,577.9,143.1,572.5z"/>
		<path class="st0" d="M153.4,572.5L153.4,572.5c0-6.2,4.3-11.1,10.1-11.1c5.9,0,9.7,4.8,9.7,11.1c0,0.4,0,0.5,0,0.8h-17.6
			c0.4,5.3,4.2,8.4,8.3,8.4c3.3,0,5.5-1.5,7.3-3.3l1.4,1.2c-2.2,2.3-4.7,4-8.8,4C158.2,583.6,153.4,579.2,153.4,572.5z M171,571.5
			c-0.3-4.3-2.7-8.2-7.6-8.2c-4.2,0-7.4,3.5-7.8,8.2H171z"/>
		<path class="st0" d="M196.9,577.7v-13.9h-3.1v-1.9h3.1v-6.8h2v6.8h7.4v1.9h-7.4v13.7c0,3,1.8,4.1,4.2,4.1c1,0,1.9-0.2,3.1-0.7v1.9
			c-1.1,0.5-2.1,0.7-3.4,0.7C199.5,583.5,196.9,581.7,196.9,577.7z"/>
		<path class="st0" d="M212.4,572.6L212.4,572.6c0-6,4.6-11.2,10.9-11.2c6.3,0,10.8,5.1,10.8,11v0.1c0,5.9-4.6,11.1-10.9,11.1
			C216.9,583.6,212.4,578.5,212.4,572.6z M231.9,572.6L231.9,572.6c0-5.2-3.8-9.3-8.7-9.3c-5,0-8.6,4.1-8.6,9.1v0.1
			c0,5.1,3.8,9.2,8.7,9.2C228.3,581.7,231.9,577.6,231.9,572.6z"/>
		<path class="st0" d="M257.5,554h2l11.7,17.2l11.7-17.2h2v29.1h-2.2v-25.3l-11.5,16.7h-0.2l-11.5-16.7v25.3h-2.1V554z"/>
		<path class="st0" d="M295.2,553.6h2.5v2.8h-2.5V553.6z M295.5,561.9h2v21.2h-2V561.9z"/>
		<path class="st0" d="M305.8,580.4l1.2-1.6c2.3,1.8,4.9,2.8,7.6,2.8c2.9,0,5.1-1.6,5.1-4v-0.1c0-2.5-2.7-3.4-5.6-4.2
			c-3.4-1-7.3-2-7.3-5.8v-0.1c0-3.4,2.9-5.9,7-5.9c2.5,0,5.4,0.9,7.5,2.3l-1.1,1.7c-2-1.3-4.3-2.1-6.5-2.1c-2.9,0-4.8,1.6-4.8,3.7
			v0.1c0,2.4,2.9,3.2,5.9,4.1c3.4,1,7,2.2,7,5.9v0.1c0,3.8-3.2,6.2-7.3,6.2C311.4,583.5,308,582.3,305.8,580.4z"/>
		<path class="st0" d="M328.1,580.4l1.2-1.6c2.3,1.8,4.9,2.8,7.6,2.8c2.9,0,5.1-1.6,5.1-4v-0.1c0-2.5-2.7-3.4-5.6-4.2
			c-3.4-1-7.3-2-7.3-5.8v-0.1c0-3.4,2.9-5.9,7-5.9c2.5,0,5.4,0.9,7.5,2.3l-1.1,1.7c-2-1.3-4.3-2.1-6.5-2.1c-2.9,0-4.8,1.6-4.8,3.7
			v0.1c0,2.4,2.9,3.2,5.9,4.1c3.4,1,7,2.2,7,5.9v0.1c0,3.8-3.2,6.2-7.3,6.2C333.7,583.5,330.3,582.3,328.1,580.4z"/>
		<path class="st0" d="M352.7,553.6h2.5v2.8h-2.5V553.6z M352.9,561.9h2v21.2h-2V561.9z"/>
		<path class="st0" d="M363.6,572.6L363.6,572.6c0-6,4.6-11.2,10.9-11.2c6.3,0,10.8,5.1,10.8,11v0.1c0,5.9-4.6,11.1-10.9,11.1
			C368.2,583.6,363.6,578.5,363.6,572.6z M383.2,572.6L383.2,572.6c0-5.2-3.8-9.3-8.7-9.3c-5,0-8.6,4.1-8.6,9.1v0.1
			c0,5.1,3.8,9.2,8.7,9.2C379.6,581.7,383.2,577.6,383.2,572.6z"/>
		<path class="st0" d="M393.7,561.9h2v3.9c1.4-2.5,3.8-4.4,7.6-4.4c5.4,0,8.5,3.7,8.5,8.7v13h-2v-12.6c0-4.4-2.5-7.2-6.7-7.2
			c-4.2,0-7.4,3.2-7.4,7.6v12.3h-2V561.9z"/>
		<path class="st0" d="M436.3,554h10.6c6.4,0,10.8,3.3,10.8,8.9v0.1c0,6.1-5.3,9.3-11.3,9.3h-7.9v10.8h-2.2V554z M446.4,570.3
			c5.4,0,9.1-2.8,9.1-7.1V563c0-4.6-3.6-7-8.8-7h-8.2v14.3H446.4z"/>
		<path class="st0" d="M463.5,577L463.5,577c0-4.5,3.8-7,9.3-7c3,0,5,0.4,7,0.9V570c0-4.3-2.6-6.5-7-6.5c-2.6,0-4.7,0.7-6.6,1.7
			l-0.7-1.8c2.3-1.1,4.6-1.8,7.5-1.8c2.9,0,5.2,0.8,6.7,2.3c1.4,1.4,2.2,3.4,2.2,6v13.2h-2v-3.5c-1.5,2-4.1,4-8.1,4
			C467.7,583.6,463.5,581.4,463.5,577z M479.8,575.2v-2.4c-1.8-0.5-4.2-1-7.2-1c-4.5,0-7,2-7,4.9v0.1c0,3.1,2.9,4.9,6.1,4.9
			C476.1,581.7,479.8,579,479.8,575.2z"/>
		<path class="st0" d="M491.2,561.9h2v6c1.7-3.8,5.2-6.5,9.4-6.4v2.2h-0.2c-4.9,0-9.2,3.7-9.2,10.6v8.7h-2V561.9z"/>
		<path class="st0" d="M511,577.7v-13.9h-3.1v-1.9h3.1v-6.8h2v6.8h7.4v1.9H513v13.7c0,3,1.8,4.1,4.2,4.1c1,0,1.9-0.2,3.1-0.7v1.9
			c-1.1,0.5-2.1,0.7-3.4,0.7C513.6,583.5,511,581.7,511,577.7z"/>
		<path class="st0" d="M528.6,561.9h2v3.9c1.4-2.5,3.8-4.4,7.6-4.4c5.4,0,8.5,3.7,8.5,8.7v13h-2v-12.6c0-4.4-2.5-7.2-6.7-7.2
			c-4.2,0-7.4,3.2-7.4,7.6v12.3h-2V561.9z"/>
		<path class="st0" d="M554.6,572.5L554.6,572.5c0-6.2,4.3-11.1,10.1-11.1c5.9,0,9.7,4.8,9.7,11.1c0,0.4,0,0.5,0,0.8h-17.6
			c0.4,5.3,4.2,8.4,8.3,8.4c3.3,0,5.5-1.5,7.3-3.3l1.4,1.2c-2.2,2.3-4.7,4-8.8,4C559.5,583.6,554.6,579.2,554.6,572.5z M572.2,571.5
			c-0.3-4.3-2.7-8.2-7.6-8.2c-4.2,0-7.4,3.5-7.8,8.2H572.2z"/>
		<path class="st0" d="M582.4,561.9h2v6c1.7-3.8,5.2-6.5,9.4-6.4v2.2h-0.2c-4.9,0-9.2,3.7-9.2,10.6v8.7h-2V561.9z"/>
		<path class="st0" d="M599.3,580.4l1.2-1.6c2.3,1.8,4.9,2.8,7.6,2.8c2.9,0,5.1-1.6,5.1-4v-0.1c0-2.5-2.7-3.4-5.6-4.2
			c-3.4-1-7.3-2-7.3-5.8v-0.1c0-3.4,2.9-5.9,7-5.9c2.5,0,5.4,0.9,7.5,2.3l-1.1,1.7c-2-1.3-4.3-2.1-6.5-2.1c-2.9,0-4.8,1.6-4.8,3.7
			v0.1c0,2.4,2.9,3.2,5.9,4.1c3.4,1,7,2.2,7,5.9v0.1c0,3.8-3.2,6.2-7.3,6.2C604.9,583.5,601.6,582.3,599.3,580.4z"/>
	</g>
</g>
<g>
	<path id="globe-4-icon_1_" class="st1" d="M375.1,62.7c0,0,0.1-0.5,0.2-0.4c0.1,0,0,0.1,0.1,0.1c0.1,0,0.1-0.1,0.2-0.1
		c0.2,0,0.3,0.2,0.4,0.2c0.1,0,0.2-0.1,0.3-0.1c0.1,0,0.2,0,0.2,0c0.1,0,0.2-0.1,0.2-0.1c0.2-0.1,0.1,0,0.3,0c0.1,0,0.1,0,0.2,0
		c0,0,0,0,0,0c0.1,0,0.1,0.1,0.1,0.1c0,0.2-0.2,0.3-0.2,0.6c0,0.1,0.2,0.2,0.1,0.4c-0.1,0.4-0.2,0.4-0.3,0.4c-0.1,0-0.2,0-0.2,0
		c-0.1-0.1-0.2-0.2-0.3-0.2c-0.1,0-0.1,0-0.2-0.1c-0.2-0.1-0.8-0.5-1-0.5c-0.1,0-0.1,0.1-0.2,0c0,0,0,0,0,0
		C375.2,62.8,375.1,62.8,375.1,62.7z M362.8,45.2L362.8,45.2C362.8,45.2,362.8,45.3,362.8,45.2c-0.1,0.1,0,0.1,0,0.2
		c0,0,0.1,0,0.1,0c0,0,0.1-0.1,0.1-0.2c0.1-0.1,0.1-0.1,0.1-0.1c0.1,0,0.1,0,0.2-0.1c0,0,0,0,0.1,0c0,0,0,0,0,0.1
		c0,0.1,0,0.3-0.1,0.4c-0.1,0.1-0.1,0.1-0.2,0.2c0,0-0.1,0.1,0,0.2c0,0.1,0.1,0.1,0.2,0.1c0,0,0,0,0,0c0,0,0,0,0,0
		c0,0.2,0,0.2,0.3,0c0,0,0,0,0,0c0,0,0,0,0,0c0,0.1,0.1,0.1,0.1,0.1c0.1,0,0.1,0.1,0.2,0.2c0,0,0,0,0,0c0,0,0,0,0,0
		c0.1,0.2,0,0.5-0.2,0.6c-0.2,0.2-0.4,0.2-0.6,0.2c0,0,0,0,0,0c0,0-0.1,0-0.1,0c0,0,0,0.1,0,0.1c0,0,0,0.1,0,0.1
		c0,0.1-0.2,0.1-0.2,0.2c0,0,0,0,0,0c0,0,0,0,0,0c0,0,0,0,0,0c0,0,0,0,0.1,0c0.1,0,0.1-0.1,0.2-0.1c0.2,0,0,0.4,0,0.5
		c-0.1,0.1-0.5,0.2-0.6,0.2c-0.1,0-0.1,0-0.2,0.1c0,0,0,0.2,0.1,0.3c0.2,0.1,0.3-0.1,0.5,0h0c0.2,0,0.3,0.1,0.4,0.3c0,0,0,0,0,0
		c0.1,0,0.1,0,0.2,0c0,0,0,0,0,0c0,0,0.1-0.1,0.1-0.1c0,0,0.1,0,0.1,0.1c0,0,0,0.1,0,0.1c-0.1,0.1-0.3,0.2-0.4,0.2
		c-0.1,0-0.2,0-0.3,0c-0.3,0-0.6,0.2-0.8,0.4c-0.1,0.1-0.1,0.1-0.2,0.2c0,0,0,0.1,0,0.1c0,0,0.1,0.1,0.1,0c0,0,0.1,0,0.1-0.1
		c0.1-0.1,0.4-0.2,0.5,0.1l0,0c0,0,0,0,0.1,0c0.2-0.1,0.3-0.4,0.5-0.4c0.2,0,0.3,0.2,0.5,0.1c0.2,0,0.4-0.2,0.6-0.2
		c0.1,0,0.3,0.1,0.3,0.1c0.1,0,0.1,0,0.4,0c0.1,0,0.2,0.1,0.4,0.1c0.2,0,0.3-0.1,0.5-0.1h0c0,0,0,0,0,0c0,0,0.5-0.1,0.5-0.3
		c0,0,0,0,0,0c0,0,0,0,0,0c-0.2-0.1-0.3-0.3-0.3-0.5c0,0,0,0,0,0c0,0,0,0,0,0c0,0,0,0,0,0c0.1,0,0.1,0,0.1,0
		c0.1-0.1,0.2-0.2,0.3-0.2c0.1,0,0.1-0.1,0.1-0.2c0,0,0.1-0.3-0.2-0.4c0,0,0,0,0,0c0,0-0.5-0.3-0.7-0.2c-0.1,0.1-0.1,0.1-0.3,0
		c0,0,0-0.1,0-0.1c0.2-0.2,0.2-0.2,0.2-0.2c0-0.1-0.1-0.2-0.1-0.2c-0.1-0.1-0.1-0.1,0-0.2c0,0,0,0,0,0c0-0.1-0.2-0.5-0.2-0.5
		c0,0,0,0,0,0c-0.1,0-0.2,0-0.3,0c0,0,0,0,0,0c0,0,0,0,0,0c0,0,0,0,0,0c0-0.1-0.1-0.2-0.1-0.3c0-0.1,0-0.2,0-0.3c0-0.1,0-0.2,0-0.3
		c-0.1-0.4-0.1-0.7,0-1.1c0.1-0.1,0.1-0.3,0.2-0.4c0.2-0.3-0.7-0.2-0.9-0.2c0,0,0,0,0,0c0,0,0,0,0,0c0-0.1,0.1-0.2,0.1-0.2
		c0.1-0.1,0.2-0.1,0.3-0.2c0.2-0.1,0-0.2,0-0.2c-0.2,0-0.4-0.1-0.6-0.1c-0.1,0-0.1,0-0.2,0c0,0-0.1,0.1-0.2,0.2
		c-0.1,0.2-0.3,0.3-0.4,0.4c0,0,0,0,0,0c0,0-0.1,0-0.1,0c0,0-0.1,0-0.1,0c0,0,0,0,0,0c-0.1,0-0.1,0.1-0.1,0.1c0,0.1,0,0.1,0,0.2
		c0,0,0.1,0.1,0.2,0l0,0c0,0,0,0,0,0.1c0,0.1,0,0.2-0.1,0.2c0,0,0,0,0,0c0,0,0,0,0,0c0-0.1-0.1-0.1-0.1-0.1c0,0,0,0,0,0
		c-0.1,0-0.2,0.3-0.2,0.4c0,0,0,0,0,0.1C362.9,44.8,362.9,45.1,362.8,45.2z M435.1,84.5c0,36.7-29.8,66.5-66.5,66.5
		c-36.7,0-66.5-29.8-66.5-66.5c0-36.7,29.8-66.5,66.5-66.5C405.3,18,435.1,47.8,435.1,84.5z M389.6,53.9c0-0.2,0.3-0.2,0.3-0.4
		c0-0.1,0-0.2-0.1-0.2c-0.1-0.1-0.1,0-0.3,0c-0.1,0-0.2,0.1-0.2,0.1c-0.1,0-0.1-0.1-0.2-0.1c0-0.1,0-0.1,0.1-0.2c0,0,0,0,0-0.1l0,0
		c0,0,0,0,0,0c-0.2,0-0.4-0.1-0.5-0.1c-0.3,0-0.5,0-0.8,0.1c-0.2,0.1-0.2,0.1-0.3,0.2c-0.1,0.4-0.2,0.5-0.2,0.6
		c-0.2,0.2-0.3,0.5-0.4,0.8c0,0.1-0.1,0.2-0.2,0.3c0,0,0,0,0,0c0,0-0.1,0.6-0.1,0.7c0,0.1,0.1,0.3,0,0.4c0,0.1-0.2,0.1-0.3,0.2
		c0,0,0,0,0,0c-0.1,0.2,0,0.5,0.1,0.8c0,0,0,0,0,0c0,0,0,0-0.1,0l0,0c-0.1-0.1-0.1-0.1-0.2,0c0,0,0,0.1,0,0.1l0,0l0.3,0.4
		c0.3,0.4,0.6,0.7,1,0.8h0c0.2,0.1,0.4-0.1,0.7,0c0.3,0,0.5,0,0.8,0c0.1,0,0.3,0,0.4-0.1c0.1,0,0.1-0.1,0.1-0.2c0,0,0,0,0,0
		c0-0.1,0-0.1,0.3-0.3c0.2-0.2,0.5-0.2,0.7-0.4c0.3-0.3,0.8,0,1.2-0.1c0.1,0,1.3,0.4,1.3,0.5l0,0c0.3,0.1,1.3,0.2,1.5,0.2
		c0.1,0,0.2,0.1,0.4,0.1c0,0,0,0,0,0c0.2-0.1,0.3-0.4,0.6-0.2c0.4,0.2,1.7,0,1.4-1c-0.2-0.6-0.9-0.9-1.1-0.9
		c-0.7-0.2-1.1-0.8-1.7-1.2c-0.3-0.2-0.6,0-0.8-0.1c-0.6-0.2-0.6-0.2-0.6-0.4c0,0,0,0,0,0c0.2-0.2,0.3-0.5,0.4-0.8c0,0,0,0,0,0
		c0-0.1,0.1-0.1,0-0.2c-0.1-0.1-0.4,0-0.4-0.2c0-0.2,0.4-0.4,0.5-0.5c0.1-0.1,0.2-0.2,0.2-0.2c0-0.1-0.1-0.2-0.1-0.2
		c-0.2,0-0.7,0.3-0.8,0.3l0,0c0,0,0,0-0.1,0c0,0,0,0,0,0l-1.2,0.7c0,0,0,0,0,0c-0.2,0.2-0.3,0.4-0.3,0.7c0,0.3,0.2,0.5,0.4,0.6
		c0.1,0.1,0.2,0.1,0.2,0.2l0,0c0,0-0.7,0.7-0.7,0.7c-0.2,0-0.2-0.1-0.2-0.1c0,0,0,0,0,0c-0.1-0.3-0.3-0.5-0.7-0.6
		C389.6,54.1,389.6,54,389.6,53.9z M425.4,84.5c0-5.9-1-11.8-2-15c-0.3-1-1.1-1.8-2-2.2c-1-0.4-2.1-0.3-3,0.2
		c-2.3,1.3-2.2,1.5-3,1.4c-0.4,0-2,1.1-2.6-0.2c-0.1-0.2-0.7-1.3-1.5,0.2c-0.2,0.4-1.4,0.1-1.8-0.1c-1.1-0.6-2.6-2.1-2.9-2.5
		c0,0,0,0,0,0l0,0c-0.4-0.5-1.5,0.2-0.7,1.4c2.8,4.2,3.3,4.2,4.1,4.6h0c0.4-0.3,0.3-0.4,0.8-0.4c0.3,0,0.6-0.2,0.7-0.5c0,0,0,0,0,0
		c0.2-0.3,0.4-0.5,0.8-0.6s0.7,0,1,0.2c0,0,0,0,0,0c0.5,0.4,1.1,0,1.6,0.3c1.3,0.6,0.8,1.9,0.5,3.3c0,0,0,0,0,0c0,0,0,0,0,0
		c-0.1,0-0.2,0.1-0.2,0.2c0,0.5,0.3,0.9,0.2,1.4c0,0,0,0,0,0c-0.2,0.1-0.3,0.2-0.4,0.3c-0.4,0.4-0.4,0.9-0.7,1.3
		c-0.3,0.4,0,1.4-0.7,1.4c-0.3,0-1.2,0.5-1.4,1.1c-0.2,0.7-0.6,1.4-1.1,1.9c-0.4,0.4-1,0.8-1.8,1.4c-0.4,0.3-1.9,1.9-3.2,2.2
		c-0.2,0-0.4,0-0.5-0.2c0,0,0,0,0,0c-0.9-1.3-1-2.9-1.7-4.3c-0.8-1.7-2.9-2.1-3.5-3.9c-0.5-1.6-0.7-2.2-1.4-2.6
		c-0.5-0.3-0.9-0.7-1.2-1.1c-0.5-0.8-1.3-1.9-1.9-2.5c-0.3-0.3-0.5-0.6-0.5-1c0-0.2-0.3-0.2-0.3,0c0,0.6,0.1,0.8-0.1,0.9
		c-0.1,0.1-0.3,0-0.4-0.1c-0.4-0.5-1.2-1.3-1.3-1.8c0,0,0,0,0,0c0,0.2,0,0.4,0.1,0.5c1,1.4,5.6,8.1,5.7,8.7c0.8,4.2,4.1,5.3,5.7,6.8
		c0.3,0.3,0.5,0.7,0.6,1.1c0.1,0.4,0.3,0.7,0.6,1c0.3,0.3,0.6,0.2,2.4,0c0.3,0,0.5-0.2,0.7-0.4c0.2-0.2,1.6-0.7,1.8-0.8
		c0.4-0.2-0.1-0.1,0.8-0.5c0.3-0.2,0.8-1.2,0.7,0c0,0.3,0.2,0.6,0.1,0.9c-0.2,1.8-0.3,2.1-0.4,2.4c-0.1,0.5-0.3,0.9-0.4,1.4
		c-0.5,2.2-1.4,4.5-2.9,6.3c0,0-0.1,0.1-0.1,0.1c-0.8,0.8-2.3,2.2-3.5,4.5c-0.8,1.5-1.8,2.8-2.6,4.3c-0.3,0.5-0.3,0.6-0.1,1.3
		c0.2,0.5,0.7,2.7,0.8,5.5c0.1,3.1-0.4,3.6-1.4,4.3c-1.6,1.1-2.7,1.9-3.4,2.5c-0.9,0.6-1.4,1.7-1.4,2.7c0,0.4-0.1,0.9-0.4,1.5
		c0,0,0,0,0,0c0.1,0.1-2,1.2-2.8,2l0,0c0,0,0,0,0,0.1c0.5,1.5-5.7,6-7,6c-0.9,0-3.2,0.4-4.3,0.8c-0.7,0.3-2.7-0.4-2.9-0.8
		c0-0.1,0-0.2,0-0.2c0.5-0.4-1.2-2.8-1.5-3c-0.3-0.2-0.7-1.3-0.9-1.6c-0.6-0.8,0.4-2-0.2-2.9c0,0-0.1-0.1-0.1-0.1l-1.9-2.7
		c-0.3-0.4-1.2-0.9-1.2-1.4v0c0-0.6,1-3.3,1.1-3.4c0.1-0.1,0.2-0.3,0.3-0.4c0-0.1,0.1-0.1,0.3-0.2c0.5-0.3,1.2-0.9,0.4-2.2
		c0-0.1,0,0.3-0.3-1.6c-0.2-1.2-1.7-3.9-2-4.2c0,0-1.8-0.9-2.7-2.6c0-0.1,0.1-0.2,0.2-0.3c0.8-0.6,0.6-1.4,0.9-3.1
		c0-0.1,0-0.2,0-0.2c0,0,0,0,0,0l0-0.1c0,0,0,0,0,0c0,0,0,0,0,0c0.1-0.3,0.2-0.8-0.3-1.4c-0.1-0.1-0.2-0.2-0.4-0.2c0,0,0,0,0,0
		c-0.2,0-0.5-0.2-0.5-0.4c0,0,0,0,0,0c0,0,0,0,0,0c-0.4-0.1-0.8-0.2-1.1-0.1c-0.8,0.2-2.6,0.6-2.8-0.5c-0.3-1.5-1.3-1.9-1.8-1.8
		c-2.2,0.2-4,2-6.2,1.9c-0.1,0-0.2-0.1-0.3-0.1c-1.9-0.7-4-0.7-6-1.1c-0.7-0.1-1.6-0.5-2.1-0.9l-2.8-2.7c-0.2-0.2-0.3-0.4-0.5-0.6
		c-0.9-1.3-1.2-4.3-1.4-4.8c0-0.1-0.1-0.2-0.1-0.2l-0.2-0.4c0,0,0,0,0,0c0,0,0,0,0,0c-0.6-0.8-0.8-1.9-0.5-3l1.1-3.6
		c0-0.1,0-0.1,0-0.2c0-0.1,0.1-0.2,0.1-0.4c0.3-1.8-0.1-2.5-0.3-2.8c-0.3-0.6-0.3-0.6,1.2-2.8c2.8-3.9,3.3-4.1,3.9-4.4v0
		c0,0,0,0,0,0c1.2,0.1,3.6-1.4,3.5-2.2c0-0.3,0-0.8,0.4-1.5c0.2-0.3,0.4-0.5,0.7-0.7l2.5-2.1c0.5-0.4,1.1-0.4,1.6-0.1h0
		c0.3-0.1,0.7-0.1,1.1,0c0.4,0.2,0.7,0.1,0.9,0c1.5-0.7,3.2-1,11-1.5c0.3,0,0.5,0.1,0.7,0.3c0,0,0,0,0,0c0.5,0.6,0.1,0.5,0.6,1.4
		c0.2,0.3,0,0.6-0.6,1.2c-0.2,0.2-0.2,0.6-0.1,0.6c0.2,0,0.7,0.1,1.1,0.4c0.6,0.3,1.4,0.6,2.2,0.8c0.7,0.2,1.2,0.6,1.7,1.1
		c0.3,0.3,4.2,2.7,4-0.5c0-0.2,0.2-0.6,0.6-0.9c1.3-1,2.2,0.3,2.5,0.4c0.6,0.1,0.6,0.1,1,0.1c0,0,0,0,0,0h0c0.3,0,0.5,0.4,1.6,0.3
		c1.9-0.1,3.8,0.2,5.7-0.2c0.2,0,0.5-0.1,0.7-0.2c2.1-1.7,0-3.9,0.3-5.8c0,0,0,0,0,0c0,0,0,0,0,0h0c-0.7,0.1-1.3,0.3-1.8,0.7
		c-0.2,0.2-0.4,0.3-0.7,0.3c-0.5,0.1-0.9-0.3-1.4-0.5c-0.2-0.1-0.5,0-0.6,0.3l0,0c-0.2,0.4-2.2,0.1-2.8-0.9
		c-0.2-0.3-0.5-0.5-0.8-0.7l0,0c0,0,0,0,0,0c0.6-0.6-0.3-1-0.4-1.4c0-0.2,0.1-0.4,0.3-0.5c0,0,0,0,0,0c0.5-0.2,0.7-0.5,0.6-0.4
		c-0.2,0.2-0.5,0.2-0.7,0.3c0,0,0,0,0,0c-0.1,0-0.3,0-0.4-0.1c-0.3-0.2-0.6-0.2-1-0.2c-0.4,0-0.8,0.1-0.9,0.5c0,0.1-0.1,0.1-0.1,0.2
		l0,0c-0.1,0-0.1,0-0.2,0c-0.1,0-0.2,0-0.3,0c-0.1,0.1-0.1,0.1-0.1,0.3c0,0.3,1,0.7,0.2,1l0,0c0,0-0.3,0.2-0.4,0.2
		c-0.3,0.2-0.7-0.2-1-0.2c-0.1,0-0.2,0-0.3,0c0,0,0,0,0,0c-0.1,0-0.1,0-0.1,0c0,0,0,0,0,0c0,0-0.3-0.3-0.4-0.4
		c-0.1-0.2-0.1-0.2-0.2-0.3c0-0.1-0.1-0.1-0.2-0.2c-0.1-0.1-0.2-0.3-0.3-0.4v0c0-0.1,0-0.3-0.1-0.6c-0.1-0.5-0.3-0.9-0.7-1.2
		c-0.1-0.1-0.2-0.1-0.3-0.1c-0.1,0-0.2,0-0.2-0.1c-0.3-0.2-0.5-0.3-0.5-0.3s0,0,0,0l-2.5-1.8c-0.1-0.1-0.3-0.2-0.5-0.1
		c-0.1,0-0.2-0.1-0.3-0.3c-0.2-0.2-0.5-0.4-0.7-0.3c0,0,0,0,0,0c-0.2,0.1-0.3,0.3-0.2,0.5c0.1,0.1,0.1,0.2,0.2,0.3l1.5,2.1
		c0.2,0.4,0.6,0.6,1.1,0.6c0.2,0,0.3,0.1,0.3,0.3c0,0.1,0.1,0.2,0.1,0.2c0.7,0.4,1.6,0.5,2.1,1.2c0,0,0,0,0,0c0,0,0,0,0,0v0
		c0,0.1,0,0.2-0.1,0.3c-0.1,0.1-0.2,0.1-0.3,0.1c0,0,0-0.1,0-0.2c0,0,0-0.1,0-0.1c-0.1-0.2-0.2-0.2-0.4-0.3c-0.3-0.1-0.6,0-0.7,0.3
		c0,0,0,0,0,0c0,0,0,0,0,0c-0.1,0.3,0.1,0.4,0.2,0.4c0.2,0.1,0.4,0.2,0.3,0.5c0,0.1-0.2,0.1-0.3,0.2c0,0,0.1-0.1-0.2,0.5
		c-0.1,0.2,0,0.2-0.3,0.4c-0.2,0.1-0.3,0-0.3-0.1c-0.1-0.2,0-0.3,0-0.5c0-0.1,0-0.1,0.2-0.2c0.3-0.1,0-0.6-0.2-0.9c0,0,0,0,0,0
		c-0.4-0.6-0.1-0.1-0.5-0.5c-0.2-0.2-0.9-0.6-1-0.8c-0.9-1.1-2.3-1.6-3-2.8c-0.1-0.2-0.4-0.4-0.6-0.5c-0.2-0.1-0.4-0.1-0.6-0.1
		c-0.2,0-1.2,0.6-2,1.1c-0.8,0.4-1.3-0.6-2.1-0.3c-0.8,0.3-0.3,1.4-1,1.8c-0.8,0.4-1.7,0.6-2.4,1.2c0,0,0,0.1-0.1,0.1
		c-0.2,0.5-0.6,0.7-0.6,0.8c0,0.1,0,0.1,0,0.3c0.1,0.3,0,0.6-0.2,0.8l0,0c-0.2,0.1,0,0.5-0.2,0.6c-0.3,0.1-0.5,0-0.8,0.1
		c-0.4,0.1-0.4,0.6-0.8,0.7c-0.5,0.2-1-0.2-1.5-0.1c-1.1,0.2-1.1,0.2-1.2,0.3c0,0.1-0.1,0.2-0.3,0.2c-0.6,0-0.4-0.7-0.6-1.1
		c-0.3-0.3-0.4-0.3-0.5-0.2c-0.2,0.1-0.5,0.2-0.6,0.2c-0.1-0.1-0.2-0.2-0.4-0.2c-0.1,0-0.2-0.1-0.2-0.2c-0.1-0.2,0.1-0.8,0.2-1
		c0-0.1,0-0.2,0-0.3c-0.1-0.1-0.2-0.2-0.3-0.2c0,0-0.1,0-0.1,0c-0.2-0.2,0.5-0.9,0.7-1.2c0-0.1,0.1-0.1,0.1-0.2
		c0.6-1.5,0.6-2,0.5-2.4c-0.1-0.2,0.1-0.4,0.3-0.4c0.1,0,0.3,0,0.4,0l0,0c0.2-0.3,0.6-0.4,1-0.2c0.4,0.2,1.3,0.5,2.8,0.6
		c0.4,0,0.7,0.1,1.1,0.2c0.3,0.1,0.6-0.2,0.7-0.3c0.3-0.4,0.2-0.8,0.3-1.2c0-0.2,0.2-0.4,0.3-0.5h0c0,0,0.1-0.1,0.1-0.2
		c0-0.1-0.1-0.7-0.2-0.7c0,0,0,0,0,0c-0.6-0.1-0.4-0.9-0.8-1.1c-0.3-0.2-0.3-0.4-1.2-0.5c-0.1,0,0.2-0.6,0.7-0.8c0,0,0.1,0,0.1,0
		c0.3,0.2,0.6,0.2,1,0.2c0.1,0,0.3-0.1,0.3-0.2c0.1-0.1,0.1-0.2,0.1-0.4c0,0,0,0,0,0c0-0.1,0.1-0.3,0.2-0.2c0.3,0.2,0.4,0.3,0.9,0.2
		c0.1,0,0.2-0.1,0.3-0.2c0-0.1,0.1-0.1,0.1-0.1c0.6-0.3,0.8-0.5,0.9-0.6c0.3-0.3,0.6-0.6,0.9-0.8c0.5-0.3,0.8-0.5,1.2-0.9
		c0.2-0.2,0.5-0.3,0.7-0.4c0.1,0,0.1-0.1,0.1-0.2c0,0,0,0,0,0c0.1-0.1,0.2-0.2,0.4-0.2c0.4,0,0.6,0,0.7,0c0,0,0,0,0,0
		c0.1-0.1,0.3-0.2,0.4-0.2c0.4,0,0.9,0.2,0.8-0.8c-0.1-0.9,0.2-1.8,0.8-2.5l0,0c0.3,0.1,0.2,0.4,0.3,0.7c0,0.2,0,0.4-0.2,0.5l0,0
		c-1.2,1.3,0.3,1.3,0.4,1.6c0,0,0,0,0,0c0,0.1,0,0.1,0.1,0.1c0,0,0.1,0,0.2,0c0.1,0,1.2-0.5,1.3-0.5c0.2,0.1,0.1,0.2,0.2,0.4
		c0,0,0,0,0,0c0.3,0.2,0.7,0.3,1,0.1c0.7-0.4,1.5-0.5,2.2-0.3c0.4,0.1,1.3-0.8,1.1-1.3l0,0c-0.1-0.3-0.1-0.6-0.1-1
		c0-0.2,0-0.3,0.2-0.5c0.1-0.1,0.3-0.1,0.4,0c0.2,0.1,0.3,0.1,0.5,0c0.2-0.1,0.4-0.3,0.4-0.5l0,0c0,0,0-0.1-0.1-0.1
		c-0.2-0.1-0.3-0.4-0.3-0.6c0-0.3,0.2-0.5,0.5-0.5c0.8-0.1,0.9,0.3,1.7-0.4c0,0,0.1-0.1,0-0.2c0-0.1-0.1-0.1-0.1-0.1h0
		c-0.6-0.1-1.3-0.1-1.9,0.1l-0.7,0.3c0,0,0,0,0,0l0,0c0,0,0,0,0,0c-0.1,0.1-0.3,0.1-0.4,0.1c-0.5,0-0.8-0.5-1-1.1
		c-0.2-0.6-0.2-1.3,0.2-1.9c0.2-0.3,0.3-0.6,0.5-0.9c0.1-0.1,0.1-0.2,0.1-0.4c-0.1-0.4-0.7-0.5-1.1-0.4c-0.7,0.2-0.2,1-0.5,1.4
		c-0.2,0.3-0.8,0.4-0.9,0.8c-0.1,0.9-0.2,1.4-0.2,1.7c0.1,0.7,0.1,1.3-0.2,2c0,0,0,0,0,0c-0.2,0.5,0.2,1.1-0.1,1.6
		c-0.3,0.6-1.1,0.1-1.2,0.9c-0.1,0.3-0.7-0.1-0.9-0.4c0-0.6-0.3-0.9-0.4-1.4c-0.1-0.4-0.5-0.7-0.8-0.8c-1-0.3-1.3,0.7-2.2,0.4
		c-0.7-0.2-1.3-0.9-1.3-1.7c0-0.8,0.4-1.5,1.1-1.8l0,0c2.4-1,2.9-1.9,3.1-2.5c0-0.1,0.1-0.2,0.3-0.3c0,0,0,0,0,0l0,0
		c0-0.1,0.1-0.3,0.2-0.3c0.3-0.2,0.4-0.5,0.6-0.8c0.2-0.3,0.5-0.7,0.5-0.7h0c0,0,1.3-1.2,2.6-1.7c0.6-0.2,1.1-0.2,1.2-0.2
		c0.2,0,0.4,0.1,0.7,0.1v0c0,0.1,0,0.2,0.1,0.3c0.2,0.2,0.7,0.2,1.4,0.5c0.8,0.4,1.7,0.3,2.5,0.4c0.3,0.1,0.6,0.4,0.5,0.7
		c0,0.3-0.3,0.6-0.7,0.6c-0.2,0-0.5,0.1-0.5,0.4c-0.1,0.2,0,0.5,0.2,0.6c0.3,0.2,0.6,0.4,1,0.6c0.4,0.1,1.1,0.3,0.8-0.1l0,0
		c-0.1-0.1-0.3-0.2-0.4-0.2c-0.6,0-0.4-0.5-0.1-0.4c0.3,0.2,1.3,0.3,0.6-0.4c-0.1-0.1-0.1-0.2,0-0.3c0.1-0.1,0.2-0.3,0.3-0.5
		c0.1-0.4,0.1-0.2,0.6-0.1c0.1,0,0.2,0,0.2,0c0.1-0.1,0.3-0.2,0.2-0.3c-0.1-0.1,0.1-0.3,0.2-0.2c0.1,0,0.3,0,0.4-0.1
		c0.1-0.1,0.1-0.2,0.1-0.3c-0.1-0.3,0.1-1,0.5-1.1c0.1,0,0.2,0,0.3,0l0,0c0.1-0.1,0.2-0.1,0.3-0.2c0.2-0.1,0.4-0.2,0.6-0.4
		c0.2-0.2,0.5-0.2,0.7-0.2c0,0,0,0,0,0c0.1-0.1,0.1-0.2,0-0.3c-0.2-0.2-0.7-0.4-0.6-0.6c0-0.1,0.4-0.1,0.4-0.4
		c0-0.2-0.1-0.4-0.3-0.5c-5.5-2.2-11.4-3.5-17.6-3.8c-1.1,0.7-2.3,1.5-3.3,2.3c-3.7,3.1-9.7,4.4-9.5,4c-0.6,0-0.7-0.1-0.7-0.1
		c-0.2,0-0.3,0.2-0.5,0c0,0,0,0,0,0c0-0.1,0-0.1-0.1-0.2c-0.2-0.1-0.6,0.2-1.5,0.7c0,0,0,0,0,0c0,0,0,0-0.1,0
		c-0.4,0.2-0.8,0.3-1.1,0.3c-0.2,0-0.4,0-0.6,0.1c0,0-0.1,0-0.1,0c-0.1-0.1,0.3-0.2,0.4-0.3c0.1,0,0.1-0.2-0.4,0.1
		c-0.1,0.1-0.2,0.1-0.3,0c-0.5-0.1-1,0.3-1.4,0.6c-0.1,0-0.1,0.1-0.2,0c-0.1-0.1-0.2,0-0.2,0.2c0,0.2-1.2,0.8-1.2,0.7
		c0-0.1-0.1-0.1-0.2-0.1c-0.2,0-0.4,0.2-0.5,0.4c-0.2,0.4-0.7,0.4-1,0.7c-0.3,0.2-0.7,0.5-0.7,0.5c-0.1,0.2-0.2,0.3-0.4,0.3
		c-0.2,0-0.2-0.3-0.2-0.4c0-0.1,0.3-0.4,0.3-0.4c0,0-0.1,0-0.1-0.1c-0.1-0.1,0.2-0.2,0.1-0.3c0-0.1-0.5-0.1-0.5-0.1c0,0,0-0.1,0-0.1
		c0.3-0.6,0.3-0.6,0.7-1c0,0,0,0,0,0c0-0.1,0-0.1,0-0.2c0.2-0.3,0.9-1.2,1.7-1.3c0.2,0,0.1-0.1,0.1-0.1c-0.2-0.1-0.5-0.1-0.3-0.3
		c0.3-0.3,0.7-0.7,1.2-1c0.2-0.1,0.5-0.3,0.7-0.4c0.2-0.2,0.9-0.5,1.6-0.5l0,0c0.6,0,2.2-1.2,2.3-1.2c0,0,0,0,0,0
		c-0.1,0,0-0.2,0-0.3c0,0,0-0.1,0-0.1c0.2-0.1,0.3-0.1,0.5-0.2c0,0,0,0,0-0.1c0-0.1-0.1-0.1-0.1-0.1c-0.3,0.1-0.5,0.2-0.6,0.2
		c0,0-0.1,0-0.1,0c0,0,0-0.1,0-0.1c0.4-0.3,0.9-0.3,1.4-0.5c0.2-0.1,0.2-0.5-0.2-0.4c-2.1,0.3-3.9,1-5.9,1.6l0,0
		c0,0.1-0.4,0.3-0.4,0.3c0,0,0,0.1,0,0.1c0,0,0,0,0,0c0,0,0,0,0,0c-0.1,0.1-0.2,0-0.3,0.1c-0.1,0.1,0.1,0.1,0.2,0.1
		c0,0.1,0,0.1,0,0.2l0,0c-0.1,0.1-0.4,0.2-0.4,0.1c0-0.1-0.1-0.1-0.1-0.1c-0.2,0.1-0.4,0.2-0.5,0.2c-0.4,0.1-1,0.3-1,0.3
		c0.1-0.1,0.3-0.3,0.3-0.3c0.1-0.2,0.3-0.3,0.4-0.4c0.1,0,0.1-0.2-0.4,0c-0.4,0.2-0.8,0.4-1.1,0.7c-0.3,0.3-0.6,0.5-0.8,0.7
		c0-0.1,0-0.1,0-0.1c0,0-0.3,0.2-0.3,0.2c-0.3-0.1,0.1-0.2,0.1-0.5c0,0,0.1-0.1,0.1-0.1l0,0c-0.3,0.1-0.6,0.3-0.8,0.6
		c-0.2,0.2-0.3,0.5-0.6,0.3c-0.1-0.1-0.2-0.1-0.4-0.1c-0.8,0.4-1.6,0.8-2.3,1.2c-0.1,0-0.2,0.1-0.2,0.2c-0.1,0-0.1,0.1-0.1,0.2
		c0,0.1-0.2,0.3-0.2,0.3c0,0,0,0.1,0,0.1c0.1,0.1,0.3,0,0.4,0c0.2-0.1,0.4,0,0.5,0.2c0.1,0.2,0.1,0.4-0.1,0.5
		c-0.1,0.1-0.2,0.2-0.3,0.3c-0.2,0.3-0.4,0.5-0.6,0.7c-0.2,0.1-0.3,0.2-0.5,0.4c-1.5,1.3-1.5,3.7-2.6,4.2c0,0,0,0,0,0
		c-0.8,0.4-1.1,0.1-2.1,0.4c-0.2,0.1-0.4,0-0.6,0c-0.2,0-0.3-0.2-0.3-0.3v0c-0.2-0.6-0.8-0.8-1.4-0.6c-0.1,0-0.2,0.1-0.3,0
		c0,0,0,0,0,0s0,0,0,0c-0.2,0.1-1.3,0.4-1.3,0.6c0,0,2.1-0.6,1.6,0.5l0,0c-0.1,0-0.1,0.1-0.2,0.1c0,0.1-0.1,0.2-0.3,0.2
		c-0.2,0-0.4,0-0.6-0.1c0,0,0,0,0,0c-0.1,0-0.2,0.3-0.1,0.3c0.1,0.1,0.3,0.1,0,0.3c-0.2,0.1-0.4,0.2-0.5,0.3
		c-0.1,0.2-0.2,0.4-0.3,0.6c-0.1,0.2,0.2,0.3-0.1,0.4c-0.3,0.2-1.2,0-1.5,0.1c0,0-0.6,0.1-0.9,0.2c-0.3,0.1-0.9,0.3-1.3,0.7
		c-0.6,0.7-0.5,0.8-1.2,0.7c0,0-0.1,0-0.1,0c-6.9,7.3-11.8,16.4-14.1,26.6c0,0,0,0,0,0c-0.1,0.6-0.3,1.4-0.6,2.9c0,0,0,0.1,0,0.1
		c0,0.2,0.1,0.2,0.3,0.2c0.5,0,0.9,0.4,1,0.8c0,0.1,0.1,0.2,0.2,0.3c0.1,0,0.2,0,0.4,0c0.1-0.1,0.5,0.3,0.5,0.8
		c0,0.2,0.1,0.5,0.2,0.8c0.1,0.3,0,0.6-0.2,0.8c0,0,0,0.1,0,0.1c0.2,0.9,1.3,4.9,1.5,5.1c0.1,0,0.2,0,0.3,0.1
		c2.2,2.5,4.7,6.5,4.6,7.8c-0.5,0.9-0.4,0.9,0,1.4c0.8,0.9,0.7,1,0.5,1.9l0,0c0.2-0.3,0.5-0.4,0.8-0.4c0.3,0,0.6,0.2,0.8,0.4
		c0.1,0.2,0.3,0.4,0.4,0.6c0.5,0.4,0.7,1,0.6,1.6c0,0,0.7,0,1.7,0.7c1.2,0.9,5.5,5.8,5.7,7.2c0.1,0.6-0.2,1.2-0.5,1.7
		c-0.4,0.6-1.5,1.8-1.7,2.5c-0.1,0.3-0.6,0.5-0.6,0.7c0,0.3,0.1,0.8,0.5,2c0.1,0.3,0.4,2.8,0.3,3.8c-0.1,0.6-0.1,0.7,0.1,1.3
		c0,0.2-0.5,0.8-0.8,0.5c-0.4-0.3-0.8-0.3-0.8-0.2c0,0,0,0,0,0c-0.6,1-2.7,1.2-2.3,2.2c0.1,0.3,0.3,0.6,0.4,0.9
		c0.1,0.4,0.2,0.8,0.2,1.2c0,0.2,0.6,1.4,1.1,1.9c10.4,10.8,24.9,17.6,41.1,17.6C400,141.4,425.4,115.9,425.4,84.5z M360.1,48.3
		c0.2-0.1,0.5-0.2,0.7-0.3c0,0,0,0,0,0c0.3-0.1,0.6,0,0.8-0.1c0.1-0.1,0.3-0.4,0.4-0.6c0-0.1-0.1-0.2,0.1-0.3c0.1-0.1,0-0.2,0.1-0.3
		c0.1-0.3,0.2-0.3,0.3-0.3c0.1,0,0.2,0,0.2-0.1c0.2-0.3-0.5-1-0.8-0.9c-0.4,0.1-0.7,0.7-0.9,0.7c-0.2,0-0.3,0-0.4,0.1
		c-0.1,0.1-0.1,0.2-0.2,0.3c-0.1,0.1-0.2,0.2-0.3,0.3c-0.1,0.1-0.1,0.2,0,0.2c0.1,0.1,0.1,0.1-0.1,0.4c-0.2,0.2-0.4,0.3-0.6,0.6
		c0,0.1,0,0.3,0,0.4C359.4,48.5,359.9,48.4,360.1,48.3z"/>
	<path class="st1" d="M465.3,151.4c-3,0-5.8,1.2-7.8,3.1c0,0-21.5,19.1-40.9,35.3c-19.3,16.2-23.7,14.3-39.9,14.3s-38.1,0-38.1,0
		c-5,0-9.1-4.1-9.1-9.1c0-5,4.1-9.1,9.1-9.1c0.1,0,0.3,0,0.4,0h49.2c6.4,0,11.5-5.2,11.5-11.5s-5.2-11.5-11.5-11.5
		c0,0-80.7-0.6-93.8,0c-13.1,0.6-34.3,1.2-51.1,19.3c-16.8,18.1-42.9,44.2-42.9,44.2l49.7,43.5l34.9-29.8c0,0,53.6,0,83.5,0
		c29.9,0,47.4-16.2,47.4-16.2l56.4-52c0.5-0.4,0.9-0.8,1.3-1.2l0,0c1.9-2.1,3.1-4.8,3.1-7.9C476.9,156.6,471.7,151.4,465.3,151.4z"
		/>
</g>
</svg>
