<?xml version="1.0" encoding="utf-8"?>
<!-- Generator: Adobe Illustrator 18.0.0, SVG Export Plug-In . SVG Version: 6.00 Build 0)  -->
<!DOCTYPE svg PUBLIC "-//W3C//DTD SVG 1.1//EN" "http://www.w3.org/Graphics/SVG/1.1/DTD/svg11.dtd">
<svg version="1.1" xmlns="http://www.w3.org/2000/svg" xmlns:xlink="http://www.w3.org/1999/xlink" x="0px" y="0px"
	 viewBox="0 0 362 362" enable-background="new 0 0 362 362" xml:space="preserve">
<g id="Border">
	<path fill="#CCCCCC" d="M181,4c47.3,0,91.7,18.4,125.1,51.8C339.6,89.3,358,133.7,358,181s-18.4,91.7-51.8,125.1
		C272.7,339.6,228.3,358,181,358s-91.7-18.4-125.1-51.8C22.4,272.7,4,228.3,4,181S22.4,89.3,55.8,55.8C89.3,22.4,133.7,4,181,4
		 M181,0C81,0,0,81,0,181s81,181,181,181s181-81,181-181S280.9,0,181,0L181,0z"/>
</g>
<g id="Contents" display="none">
	<text transform="matrix(1 0 0 1 66.157 235.2838)" display="inline"><tspan x="0" y="0" fill="#444444" font-family="'MyriadPro-Light'" font-size="24.1346" letter-spacing="-1">Don’t forget to expand this </tspan><tspan x="22.9" y="28" fill="#444444" font-family="'MyriadPro-Light'" font-size="24.1346" letter-spacing="-1">text before exporting.</tspan></text>
	<g display="inline">
		<path fill="#B8252E" d="M186.6,110.9c1.9,0.3,3.8,0.1,5.4-0.7l-5.1-7.1l1.7-1.2c0.3,0.1,0.6,0.2,0.9,0.2c1,0,1.8-0.8,1.8-1.8
			c0-1-0.8-1.8-1.8-1.8c-1,0-1.8,0.8-1.8,1.8c0,0.1,0,0.2,0,0.3l-1.7,1.2l-4.9-6.9c-1.2,1.3-2.1,3-2.4,4.9
			C177.8,105,181.3,110,186.6,110.9z"/>
		<path fill="#B8252E" d="M188.6,125.9c0.1-0.1,13.3-5.5,36.3-6.4v-4.9h-51.1v-8.3h-31.3v8.3h-10.2v23h71.2v-8.4h6.3v8.4h1v-8.4h6.3
			v8.4h7.8V123c1.9-0.1,3.9-0.1,5.9-0.1v-2.6c-26.4,0-41.7,6.3-41.9,6.4L188.6,125.9z M155.5,123.7c-0.3,0.1-0.6,0.2-0.9,0.3
			l-10.9,1.7l4.5-7.2c1.1-1.7,3.7-3.5,7.8-4.4l-4.1,6.3c-0.1,0.1-0.2,0.3-0.3,0.6l-1.2,1.9c-0.2,0.3-0.1,0.5,0.2,0.5
			c1.2-0.2,1.5-0.2,1.9-0.7c0.1-0.1,0.8-0.9,1.2-1.4l3.8-0.6c1.1-0.2,1.9-0.3,1.9-0.3S158.5,122.3,155.5,123.7z M165.3,122
			c-1.8,0.6-6.9,1.3-6.9,1.3c2.3-2.6,3.7-3,4.1-3.2c2.1-0.9,6.9-1.5,6.9-1.5C169.5,118.5,168.5,120.9,165.3,122z M164.8,115.3
			c-1.8,0.4-2.7,0.5-3.6,2.6c-0.1,0.2-0.4,0.9-1.2,1.1l-0.4,0.1l-4.6,0.7c0.7-1.2,1.7-2.6,1.9-2.9c1-1.6,2.3-3.3,8.1-4.4
			c0,0,3.2-0.6,5.3-0.9C170.3,111.5,168.6,114.4,164.8,115.3z"/>
	</g>
	<g display="inline">
		<path fill="#B8252E" d="M126.6,165.9c1.9,0.3,3.8,0.1,5.4-0.7l-5.1-7.1l1.7-1.2c0.3,0.1,0.6,0.2,0.9,0.2c1,0,1.8-0.8,1.8-1.8
			c0-1-0.8-1.8-1.8-1.8c-1,0-1.8,0.8-1.8,1.8c0,0.1,0,0.2,0,0.3l-1.7,1.2l-4.9-6.9c-1.2,1.3-2.1,3-2.4,4.9
			C117.8,160,121.3,165,126.6,165.9z"/>
		<path fill="#B8252E" d="M128.6,180.9c0.1-0.1,13.3-5.5,36.3-6.4v-4.9h-51.1v-8.3H82.5v8.3H72.3v23h71.2v-8.4h6.3v8.4h1v-8.4h6.3
			v8.4h7.8V178c1.9-0.1,3.9-0.1,5.9-0.1v-2.6c-26.4,0-41.7,6.3-41.9,6.4L128.6,180.9z M95.5,178.7c-0.3,0.1-0.6,0.2-0.9,0.3
			l-10.9,1.7l4.5-7.2c1.1-1.7,3.7-3.5,7.8-4.4l-4.1,6.3c-0.1,0.1-0.2,0.3-0.3,0.6l-1.2,1.9c-0.2,0.3-0.1,0.5,0.2,0.5
			c1.2-0.2,1.5-0.2,1.9-0.7c0.1-0.1,0.8-0.9,1.2-1.4l3.8-0.6c1.1-0.2,1.9-0.3,1.9-0.3S98.5,177.3,95.5,178.7z M105.3,177
			c-1.8,0.6-6.9,1.3-6.9,1.3c2.3-2.6,3.7-3,4.1-3.2c2.1-0.9,6.9-1.5,6.9-1.5C109.5,173.5,108.5,175.9,105.3,177z M104.8,170.3
			c-1.8,0.4-2.7,0.5-3.6,2.6c-0.1,0.2-0.4,0.9-1.2,1.1l-0.4,0.1l-4.6,0.7c0.7-1.2,1.7-2.6,1.9-2.9c1-1.6,2.3-3.3,8.1-4.4
			c0,0,3.2-0.6,5.3-0.9C110.3,166.5,108.6,169.4,104.8,170.3z"/>
	</g>
	<g display="inline">
		<path fill="#B8252E" d="M246.6,165.9c1.9,0.3,3.8,0.1,5.4-0.7l-5.1-7.1l1.7-1.2c0.3,0.1,0.6,0.2,0.9,0.2c1,0,1.8-0.8,1.8-1.8
			c0-1-0.8-1.8-1.8-1.8c-1,0-1.8,0.8-1.8,1.8c0,0.1,0,0.2,0,0.3l-1.7,1.2l-4.9-6.9c-1.2,1.3-2.1,3-2.4,4.9
			C237.8,160,241.3,165,246.6,165.9z"/>
		<path fill="#B8252E" d="M248.6,180.9c0.1-0.1,13.3-5.5,36.3-6.4v-4.9h-51.1v-8.3h-31.3v8.3h-10.2v23h71.2v-8.4h6.3v8.4h1v-8.4h6.3
			v8.4h7.8V178c1.9-0.1,3.9-0.1,5.9-0.1v-2.6c-26.4,0-41.7,6.3-41.9,6.4L248.6,180.9z M215.5,178.7c-0.3,0.1-0.6,0.2-0.9,0.3
			l-10.9,1.7l4.5-7.2c1.1-1.7,3.7-3.5,7.8-4.4l-4.1,6.3c-0.1,0.1-0.2,0.3-0.3,0.6l-1.2,1.9c-0.2,0.3-0.1,0.5,0.2,0.5
			c1.2-0.2,1.5-0.2,1.9-0.7c0.1-0.1,0.8-0.9,1.2-1.4l3.8-0.6c1.1-0.2,1.9-0.3,1.9-0.3S218.5,177.3,215.5,178.7z M225.3,177
			c-1.8,0.6-6.9,1.3-6.9,1.3c2.3-2.6,3.7-3,4.1-3.2c2.1-0.9,6.9-1.5,6.9-1.5C229.5,173.5,228.5,175.9,225.3,177z M224.8,170.3
			c-1.8,0.4-2.7,0.5-3.6,2.6c-0.1,0.2-0.4,0.9-1.2,1.1l-0.4,0.1l-4.6,0.7c0.7-1.2,1.7-2.6,1.9-2.9c1-1.6,2.3-3.3,8.1-4.4
			c0,0,3.2-0.6,5.3-0.9C230.3,166.5,228.6,169.4,224.8,170.3z"/>
	</g>
</g>
<g id="MIssions_Partners">
	<g>
		<path fill="#444444" d="M34.7,217.5c0.9-0.2,2.1-0.4,3.3-0.4c2,0,3.4,0.4,4.2,1.4c0.7,0.7,1,1.5,1,2.7c0,1.7-1.2,3.1-2.8,3.6v0.1
			c1.4,0.3,3.5,1.5,3.5,4.2c0,1.3-0.5,2.3-1.2,3.1c-1.1,1.1-2.8,1.5-5.2,1.5c-1.2,0-2.2-0.1-2.8-0.1V217.5z M35.9,224.4h2.4
			c2.4,0,3.8-1.4,3.8-3.2c0-2.3-1.7-3.1-4.2-3.1c-1.1,0-1.7,0.1-2.1,0.2v6.2H35.9z M35.9,232.6c0.5,0.1,1.1,0.1,2,0.1
			c2.5,0,4.8-0.9,4.8-3.7c0-2.6-2.2-3.7-4.8-3.7h-2.1v7.4H35.9z"/>
		<path fill="#444444" d="M46.1,227.7c0,3.7,2,5.2,4.4,5.2c1.7,0,2.6-0.3,3.2-0.7l0.3,0.9c-0.4,0.2-1.6,0.7-3.6,0.7
			c-3.3,0-5.4-2.4-5.4-5.9c0-3.9,2.2-6.4,5.2-6.4c3.8,0,4.5,3.6,4.5,5.2c0,0.3,0,0.5,0,0.7h-8.7V227.7z M53.6,226.7
			c0-1.6-0.7-4.1-3.5-4.1c-2.6,0-3.6,2.3-3.9,4.1H53.6z"/>
		<path fill="#444444" d="M64.7,233.1c-0.5,0.2-1.7,0.7-3.4,0.7c-3.3,0-5.6-2.4-5.6-6c0-3.7,2.5-6.3,6.1-6.3c1.4,0,2.6,0.4,3,0.7
			l-0.4,0.9c-0.6-0.3-1.4-0.7-2.7-0.7c-3.1,0-4.7,2.4-4.7,5.1c0,3,1.9,5,4.6,5c1.4,0,2.3-0.4,2.9-0.7L64.7,233.1z"/>
		<path fill="#444444" d="M73.6,230.8c0,0.9,0,1.9,0.2,2.8h-1.1l-0.2-1.7l0,0c-0.6,0.9-1.9,1.9-3.7,1.9c-2.3,0-3.4-1.6-3.4-3.2
			c0-2.7,2.3-4.3,7.2-4.2V226c0-1.1-0.2-3.4-3-3.4c-1,0-2.1,0.3-2.9,0.9l-0.4-0.8c1.1-0.7,2.4-1,3.4-1c3.4,0,4,2.5,4,4.6V230.8z
			 M72.5,227.3c-2.5-0.1-6,0.3-6,3.1c0,1.7,1.1,2.4,2.3,2.4c1.9,0,3-1.2,3.4-2.3c0.1-0.2,0.1-0.5,0.1-0.7v-2.5H72.5z"/>
		<path fill="#444444" d="M85.3,230.8c0,1,0,1.9,0.1,2.8h-1.1l-0.1-2.1l0,0c-0.6,1.1-1.9,2.3-4,2.3c-1.5,0-4-0.7-4-5.1v-6.8h1.2v6.6
			c0,2.5,0.8,4.3,3.1,4.3c1.7,0,2.9-1.2,3.4-2.3c0.1-0.4,0.2-0.8,0.2-1.3v-7.3h1.2L85.3,230.8L85.3,230.8z"/>
		<path fill="#444444" d="M87.7,232.1c0.6,0.4,1.6,0.8,2.6,0.8c1.8,0,2.7-1,2.7-2.2c0-1.3-0.8-2-2.4-2.6c-1.9-0.7-2.9-1.8-2.9-3.2
			c0-1.7,1.3-3.1,3.6-3.1c1.1,0,2,0.3,2.6,0.7l-0.4,0.9c-0.4-0.3-1.2-0.7-2.3-0.7c-1.5,0-2.2,0.9-2.2,2c0,1.2,0.8,1.7,2.4,2.4
			c1.9,0.7,3,1.7,3,3.5c0,2-1.5,3.3-3.9,3.3c-1.1,0-2.2-0.3-2.9-0.8L87.7,232.1z"/>
		<path fill="#444444" d="M96.3,227.7c0,3.7,2,5.2,4.4,5.2c1.7,0,2.6-0.3,3.2-0.7l0.3,0.9c-0.4,0.2-1.6,0.7-3.6,0.7
			c-3.3,0-5.4-2.4-5.4-5.9c0-3.9,2.2-6.4,5.2-6.4c3.8,0,4.5,3.6,4.5,5.2c0,0.3,0,0.5,0,0.7h-8.7V227.7z M103.8,226.7
			c0-1.6-0.7-4.1-3.5-4.1c-2.6,0-3.6,2.3-3.9,4.1H103.8z"/>
		<path fill="#444444" d="M115.5,233.8c-3,0-5.3-2.3-5.3-6.1c0-4,2.6-6.3,5.5-6.3c3.2,0,5.4,2.4,5.4,6.1
			C121,232,118.1,233.8,115.5,233.8L115.5,233.8z M115.6,232.9c2.4,0,4.3-2.2,4.3-5.1c0-2.1-1.2-5-4.2-5s-4.3,2.6-4.3,5.1
			C111.3,230.7,113.2,232.9,115.6,232.9L115.6,232.9z"/>
		<path fill="#444444" d="M123.1,233.6v-10.7h-1.7V222h1.7v-0.6c0-1.8,0.3-3.2,1.3-4.2c0.7-0.7,1.7-1,2.6-1c0.7,0,1.4,0.2,1.7,0.4
			l-0.4,0.9c-0.3-0.2-0.8-0.3-1.5-0.3c-2.2,0-2.6,2-2.6,4.2v0.7h3.1v0.9h-3.1v10.7h-1.1V233.6z"/>
		<path fill="#444444" d="M132,221.9l3,7.7c0.3,0.8,0.6,1.8,0.8,2.5l0,0c0.2-0.7,0.5-1.6,0.9-2.6l2.8-7.6h1.2l-3.5,8.7
			c-1.4,3.6-2.4,5.7-3.9,7.2c-0.9,0.8-1.8,1.1-2,1.2l-0.4-1c0.6-0.2,1.3-0.6,2-1.3c0.6-0.6,1.4-1.5,1.9-2.9c0.1-0.2,0.1-0.4,0.1-0.5
			s0-0.3-0.1-0.5l-4.3-10.8L132,221.9L132,221.9z"/>
		<path fill="#444444" d="M146.3,233.8c-3,0-5.3-2.3-5.3-6.1c0-4,2.6-6.3,5.5-6.3c3.2,0,5.4,2.4,5.4,6.1
			C151.9,232,148.9,233.8,146.3,233.8L146.3,233.8z M146.4,232.9c2.4,0,4.3-2.2,4.3-5.1c0-2.1-1.2-5-4.2-5c-3,0-4.3,2.6-4.3,5.1
			C142.1,230.7,143.9,232.9,146.4,232.9L146.4,232.9z"/>
		<path fill="#444444" d="M162.8,230.8c0,1,0,1.9,0.1,2.8h-1.1l-0.1-2.1l0,0c-0.6,1.1-1.9,2.3-4,2.3c-1.5,0-4-0.7-4-5.1v-6.8h1.2
			v6.6c0,2.5,0.8,4.3,3.1,4.3c1.7,0,2.9-1.2,3.4-2.3c0.1-0.4,0.2-0.8,0.2-1.3v-7.3h1.2L162.8,230.8L162.8,230.8z"/>
		<path fill="#444444" d="M164,236.6c0.4-1,1-3.6,1.3-5.1l1.5-0.2c-0.4,1.8-1.5,4.6-1.9,5.2L164,236.6z"/>
		<path fill="#444444" d="M172.6,221.9l2,6.7c0.4,1.4,0.7,2.5,1,3.6l0,0c0.3-1.1,0.7-2.3,1.2-3.6l2.3-6.7h1.1l2.2,6.6
			c0.5,1.4,0.8,2.6,1.1,3.7l0,0c0.2-1.1,0.6-2.2,1.1-3.6l2.1-6.7h1.2l-3.9,11.7h-1l-2.2-6.6c-0.5-1.4-0.9-2.6-1.2-3.9l0,0
			c-0.3,1.4-0.8,2.6-1.3,4l-2.3,6.5h-1l-3.6-11.7L172.6,221.9L172.6,221.9z"/>
		<path fill="#444444" d="M189.2,227.7c0,3.7,2,5.2,4.4,5.2c1.7,0,2.6-0.3,3.2-0.7l0.3,0.9c-0.4,0.2-1.6,0.7-3.6,0.7
			c-3.3,0-5.4-2.4-5.4-5.9c0-3.9,2.2-6.4,5.2-6.4c3.8,0,4.5,3.6,4.5,5.2c0,0.3,0,0.5,0,0.7h-8.7V227.7z M196.7,226.7
			c0-1.6-0.7-4.1-3.5-4.1c-2.6,0-3.6,2.3-3.9,4.1H196.7z"/>
		<path fill="#444444" d="M200.8,237.7c1,0,1.9-0.4,2.4-1c0.6-0.7,0.9-1.6,0.9-4.7v-10.1h1.2v10.9c0,2.1-0.2,3.5-1.2,4.6
			c-0.8,0.9-2.3,1.2-3,1.3L200.8,237.7z M204.7,219.6c-0.5,0-0.9-0.5-0.9-1c0-0.5,0.4-1,1-1c0.5,0,0.9,0.5,0.9,1
			C205.7,219.1,205.4,219.6,204.7,219.6L204.7,219.6z"/>
		<path fill="#444444" d="M212.5,233.8c-3,0-5.3-2.3-5.3-6.1c0-4,2.6-6.3,5.5-6.3c3.2,0,5.4,2.4,5.4,6.1
			C218.1,232,215.2,233.8,212.5,233.8L212.5,233.8z M212.6,232.9c2.4,0,4.3-2.2,4.3-5.1c0-2.1-1.2-5-4.2-5c-3,0-4.3,2.6-4.3,5.1
			C208.3,230.7,210.2,232.9,212.6,232.9L212.6,232.9z"/>
		<path fill="#444444" d="M220.5,219.6c-0.5,0-0.9-0.5-0.9-1c0-0.5,0.4-1,0.9-1s0.9,0.5,0.9,1C221.5,219.1,221.1,219.6,220.5,219.6
			L220.5,219.6z M220,233.6v-11.7h1.2v11.7H220z"/>
		<path fill="#444444" d="M224,224.7c0-1.1,0-1.9-0.1-2.8h1.1l0.1,2.1l0,0c0.6-1.3,2.1-2.3,4-2.3c1.1,0,4.1,0.6,4.1,4.9v7.1h-1.2v-7
			c0-2.1-0.8-4-3.2-4c-1.6,0-3,1.2-3.5,2.7c-0.1,0.3-0.1,0.7-0.1,1v7.3H224L224,224.7L224,224.7z"/>
		<path fill="#444444" d="M236.1,227.7c0,3.7,2,5.2,4.4,5.2c1.7,0,2.6-0.3,3.2-0.7l0.3,0.9c-0.4,0.2-1.6,0.7-3.6,0.7
			c-3.3,0-5.4-2.4-5.4-5.9c0-3.9,2.2-6.4,5.2-6.4c3.8,0,4.5,3.6,4.5,5.2c0,0.3,0,0.5,0,0.7h-8.7V227.7z M243.6,226.7
			c0-1.6-0.7-4.1-3.5-4.1c-2.6,0-3.6,2.3-3.9,4.1H243.6z"/>
		<path fill="#444444" d="M256,216.3v14.6c0,0.8,0,1.9,0.1,2.7h-1l-0.1-2.2l0,0c-0.6,1.3-2,2.5-4.1,2.5c-2.9,0-5-2.4-5-5.9
			c0-3.9,2.4-6.4,5.2-6.4c2,0,3.3,1,3.8,2.1l0,0v-7.5h1.1V216.3z M254.8,226.5c0-0.3,0-0.7-0.1-1.1c-0.4-1.5-1.8-2.8-3.6-2.8
			c-2.5,0-4.1,2.2-4.1,5.2c0,2.6,1.3,5,4.1,5c1.7,0,3.2-1.1,3.7-3c0.1-0.3,0.1-0.6,0.1-1v-2.3H254.8z"/>
		<path display="none" fill="#B8252E" d="M272.2,220.3h-6.1l-0.5,3.1c0.4,0,0.7-0.1,1.1-0.1c1.4,0,2.8,0.3,3.8,1
			c1.2,0.7,2.1,2.1,2.1,4c0,3-2.5,5.4-6.4,5.4c-1.8,0-3.3-0.5-4.2-0.9l0.6-2.2c0.7,0.4,2,0.8,3.5,0.8c1.7,0,3.4-1,3.4-2.9
			c0-1.8-1.3-3-4.5-3c-0.9,0-1.5,0-2.1,0.1l1-8h8.2V220.3z"/>
		<path fill="#444444" d="M288.6,231.9c0,3-0.6,4.4-1.6,5.4c-1.1,1-2.6,1.4-3.9,1.4s-2.8-0.3-3.7-1l0.4-0.9c0.8,0.5,2,1,3.5,1
			c2.4,0,4.2-1.3,4.2-4.7v-1.8l0,0c-0.6,1.2-2,2.2-4,2.2c-2.9,0-5-2.5-5-5.7c0-4,2.7-6.3,5.2-6.3c2.3,0,3.4,1.3,3.9,2.2l0,0l0.1-2
			h1.1c-0.1,0.9-0.1,1.8-0.1,3v7.2H288.6z M287.4,226.4c0-0.4,0-0.8-0.1-1.1c-0.5-1.4-1.7-2.6-3.6-2.6c-2.5,0-4.2,2-4.2,5.1
			c0,2.6,1.4,4.9,4.1,4.9c1.5,0,3-1,3.6-2.6c0.1-0.4,0.2-0.8,0.2-1.2V226.4z"/>
		<path fill="#444444" d="M291.4,216.3h1.2v17.3h-1.2V216.3z"/>
		<path fill="#444444" d="M299.8,233.8c-3,0-5.3-2.3-5.3-6.1c0-4,2.6-6.3,5.5-6.3c3.2,0,5.4,2.4,5.4,6.1
			C305.4,232,302.4,233.8,299.8,233.8L299.8,233.8z M299.9,232.9c2.4,0,4.3-2.2,4.3-5.1c0-2.1-1.2-5-4.2-5s-4.3,2.6-4.3,5.1
			C295.7,230.7,297.5,232.9,299.9,232.9L299.9,232.9z"/>
		<path fill="#444444" d="M307.3,216.3h1.2v7.8l0,0c0.8-1.5,2.2-2.4,4.2-2.4c2.9,0,4.9,2.5,4.9,6c0,4.1-2.6,6.3-5.2,6.3
			c-1.9,0-3.2-0.8-4.2-2.3l0,0l-0.1,2.1h-1c0.1-0.8,0.1-1.8,0.1-2.7v-14.6H307.3z M308.5,229.1c0,0.3,0,0.6,0.1,0.8
			c0.5,1.8,2,2.9,3.8,2.9c2.7,0,4.2-2.2,4.2-5.2c0-2.7-1.4-5-4.1-5c-1.7,0-3.3,1.2-3.9,3.1c-0.1,0.3-0.1,0.6-0.1,1V229.1z"/>
		<path fill="#444444" d="M326.9,230.8c0,0.9,0,1.9,0.2,2.8H326l-0.2-1.7l0,0c-0.6,0.9-1.9,1.9-3.7,1.9c-2.3,0-3.4-1.6-3.4-3.2
			c0-2.7,2.3-4.3,7.2-4.2V226c0-1.1-0.2-3.4-3-3.4c-1,0-2.1,0.3-2.9,0.9l-0.4-0.8c1.1-0.7,2.4-1,3.4-1c3.4,0,4,2.5,4,4.6V230.8z
			 M325.7,227.3c-2.5-0.1-6,0.3-6,3.1c0,1.7,1.1,2.4,2.3,2.4c1.9,0,3-1.2,3.4-2.3c0.1-0.2,0.1-0.5,0.1-0.7v-2.5H325.7z"/>
		<path fill="#444444" d="M329.6,216.3h1.2v17.3h-1.2V216.3z"/>
		<path fill="#444444" d="M73.3,253c0-1.1,0-1.9-0.1-2.8h1.1l0.1,2l0,0c0.7-1.3,1.9-2.3,3.8-2.3c1.6,0,2.8,1.1,3.3,2.5l0,0
			c0.3-0.7,0.7-1.2,1.2-1.6c0.7-0.6,1.5-0.9,2.8-0.9c1.1,0,3.8,0.6,3.8,5v6.9h-1.2V255c0-2.6-1-4.2-3-4.2c-1.4,0-2.6,1.1-3,2.3
			c-0.1,0.3-0.2,0.7-0.2,1.2v7.5h-1.2v-7.3c0-2.1-1-3.6-2.9-3.6c-1.5,0-2.8,1.3-3.2,2.6c-0.1,0.3-0.2,0.7-0.2,1.1v7.2h-1.2V253H73.3
			z"/>
		<path fill="#444444" d="M92.7,247.8c-0.5,0-0.9-0.5-0.9-1c0-0.5,0.4-1,0.9-1s0.9,0.5,0.9,1C93.7,247.3,93.3,247.8,92.7,247.8
			L92.7,247.8z M92.2,261.8v-11.7h1.2v11.7H92.2z"/>
		<path fill="#444444" d="M95.7,260.3c0.6,0.4,1.6,0.8,2.6,0.8c1.8,0,2.7-1,2.7-2.2c0-1.3-0.8-2-2.4-2.6c-1.9-0.7-2.9-1.8-2.9-3.2
			c0-1.7,1.3-3.1,3.6-3.1c1.1,0,2,0.3,2.6,0.7l-0.4,0.9c-0.4-0.3-1.2-0.7-2.3-0.7c-1.5,0-2.2,0.9-2.2,2c0,1.2,0.8,1.7,2.4,2.4
			c1.9,0.7,3,1.7,3,3.5c0,2-1.5,3.3-3.9,3.3c-1.1,0-2.2-0.3-2.9-0.8L95.7,260.3z"/>
		<path fill="#444444" d="M103.7,260.3c0.6,0.4,1.6,0.8,2.6,0.8c1.8,0,2.7-1,2.7-2.2c0-1.3-0.8-2-2.4-2.6c-1.9-0.7-2.9-1.8-2.9-3.2
			c0-1.7,1.3-3.1,3.6-3.1c1.1,0,2,0.3,2.6,0.7l-0.4,0.9c-0.4-0.3-1.2-0.7-2.3-0.7c-1.5,0-2.2,0.9-2.2,2c0,1.2,0.8,1.7,2.4,2.4
			c1.9,0.7,3,1.7,3,3.5c0,2-1.5,3.3-3.9,3.3c-1.1,0-2.2-0.3-2.9-0.8L103.7,260.3z"/>
		<path fill="#444444" d="M112.7,247.8c-0.5,0-0.9-0.5-0.9-1c0-0.5,0.4-1,0.9-1s0.9,0.5,0.9,1C113.7,247.3,113.3,247.8,112.7,247.8
			L112.7,247.8z M112.2,261.8v-11.7h1.2v11.7H112.2z"/>
		<path fill="#444444" d="M120.5,262c-3,0-5.3-2.3-5.3-6.1c0-4,2.6-6.3,5.5-6.3c3.2,0,5.4,2.4,5.4,6.1
			C126.1,260.2,123.2,262,120.5,262L120.5,262z M120.6,261.1c2.4,0,4.3-2.2,4.3-5.1c0-2.1-1.2-5-4.2-5c-3,0-4.3,2.6-4.3,5.1
			C116.3,258.9,118.2,261.1,120.6,261.1L120.6,261.1z"/>
		<path fill="#444444" d="M128,253c0-1.1,0-1.9-0.1-2.8h1.1l0.1,2.1l0,0c0.6-1.3,2.1-2.3,4-2.3c1.1,0,4.1,0.6,4.1,4.9v7.1h-1.2v-7
			c0-2.1-0.8-4-3.2-4c-1.6,0-3,1.2-3.5,2.7c-0.1,0.3-0.1,0.7-0.1,1v7.3H128L128,253L128,253z"/>
		<path fill="#444444" d="M139.5,260.3c0.6,0.4,1.6,0.8,2.6,0.8c1.8,0,2.7-1,2.7-2.2c0-1.3-0.8-2-2.4-2.6c-1.9-0.7-2.9-1.8-2.9-3.2
			c0-1.7,1.3-3.1,3.6-3.1c1.1,0,2,0.3,2.6,0.7l-0.4,0.9c-0.4-0.3-1.2-0.7-2.3-0.7c-1.5,0-2.2,0.9-2.2,2c0,1.2,0.8,1.7,2.4,2.4
			c1.9,0.7,3,1.7,3,3.5c0,2-1.5,3.3-3.9,3.3c-1.1,0-2.2-0.3-2.9-0.8L139.5,260.3z"/>
		<path fill="#444444" d="M152.1,253.9c0-1.4,0-2.6-0.1-3.7h1.1l0.1,2.2l0,0c0.8-1.5,2.3-2.5,4.3-2.5c3,0,5,2.5,5,6
			c0,4.1-2.5,6.4-5.3,6.4c-1.7,0-3.1-0.7-3.9-2.1l0,0v6.8h-1.2L152.1,253.9L152.1,253.9z M153.3,257.2c0,0.3,0,0.6,0.1,0.9
			c0.5,1.8,2,2.9,3.8,2.9c2.7,0,4.2-2.1,4.2-5.2c0-2.6-1.4-4.9-4.1-4.9c-1.7,0-3.3,1.2-3.8,3.1c-0.1,0.3-0.2,0.7-0.2,1V257.2z"/>
		<path fill="#444444" d="M171.8,259c0,0.9,0,1.9,0.2,2.8h-1.1l-0.2-1.7l0,0c-0.6,0.9-1.9,1.9-3.7,1.9c-2.3,0-3.4-1.6-3.4-3.2
			c0-2.7,2.3-4.3,7.2-4.2v-0.3c0-1.1-0.2-3.4-3-3.4c-1,0-2.1,0.3-2.9,0.9l-0.4-0.8c1.1-0.7,2.4-1,3.4-1c3.4,0,4,2.5,4,4.6L171.8,259
			L171.8,259z M170.6,255.6c-2.5-0.1-6,0.3-6,3.1c0,1.7,1.1,2.4,2.3,2.4c1.9,0,3-1.2,3.4-2.3c0.1-0.2,0.1-0.5,0.1-0.7v-2.5H170.6z"
			/>
		<path fill="#444444" d="M174.4,253.7c0-1.2,0-2.3-0.1-3.5h1.1v2.3h0.1c0.5-1.5,1.7-2.6,3.3-2.6c0.2,0,0.3,0,0.5,0v1.1
			c-0.2,0-0.3,0-0.6,0c-1.6,0-2.7,1.4-3,3.2c-0.1,0.3-0.1,0.7-0.1,1.1v6.5h-1.2V253.7z"/>
		<path fill="#444444" d="M182.8,247.5v2.6h3.3v0.9h-3.3v7.6c0,1.5,0.5,2.4,1.7,2.4c0.6,0,1-0.1,1.3-0.2l0.1,0.9
			c-0.4,0.1-0.9,0.3-1.6,0.3c-0.8,0-1.5-0.3-2-0.8c-0.5-0.6-0.7-1.6-0.7-2.8v-7.4h-2v-0.9h2V248L182.8,247.5z"/>
		<path fill="#444444" d="M187.6,253c0-1.1,0-1.9-0.1-2.8h1.1l0.1,2.1l0,0c0.6-1.3,2.1-2.3,4-2.3c1.1,0,4.1,0.6,4.1,4.9v7.1h-1.2v-7
			c0-2.1-0.8-4-3.2-4c-1.6,0-3,1.2-3.5,2.7c-0.1,0.3-0.1,0.7-0.1,1v7.3h-1.2L187.6,253L187.6,253z"/>
		<path fill="#444444" d="M199.7,255.9c0,3.7,2,5.2,4.4,5.2c1.7,0,2.6-0.3,3.2-0.7l0.3,0.9c-0.4,0.2-1.6,0.7-3.6,0.7
			c-3.3,0-5.4-2.4-5.4-5.9c0-3.9,2.2-6.4,5.2-6.4c3.8,0,4.5,3.6,4.5,5.2c0,0.3,0,0.5,0,0.7h-8.7V255.9z M207.2,255
			c0-1.6-0.7-4.1-3.5-4.1c-2.6,0-3.6,2.3-3.9,4.1H207.2z"/>
		<path fill="#444444" d="M210.2,253.7c0-1.2,0-2.3-0.1-3.5h1.1v2.3h0.1c0.5-1.5,1.7-2.6,3.3-2.6c0.2,0,0.3,0,0.5,0v1.1
			c-0.2,0-0.3,0-0.6,0c-1.6,0-2.7,1.4-3,3.2c-0.1,0.3-0.1,0.7-0.1,1.1v6.5h-1.2V253.7z"/>
		<path fill="#444444" d="M215.9,260.3c0.6,0.4,1.6,0.8,2.6,0.8c1.8,0,2.7-1,2.7-2.2c0-1.3-0.8-2-2.4-2.6c-1.9-0.7-2.9-1.8-2.9-3.2
			c0-1.7,1.3-3.1,3.6-3.1c1.1,0,2,0.3,2.6,0.7l-0.4,0.9c-0.4-0.3-1.2-0.7-2.3-0.7c-1.5,0-2.2,0.9-2.2,2c0,1.2,0.8,1.7,2.4,2.4
			c1.9,0.7,3,1.7,3,3.5c0,2-1.5,3.3-3.9,3.3c-1.1,0-2.2-0.3-2.9-0.8L215.9,260.3z"/>
		<path fill="#444444" d="M229.1,247.8c-0.5,0-0.9-0.5-0.9-1c0-0.5,0.4-1,0.9-1c0.5,0,0.9,0.5,0.9,1
			C230.1,247.3,229.7,247.8,229.1,247.8L229.1,247.8z M228.6,261.8v-11.7h1.2v11.7H228.6z"/>
		<path fill="#444444" d="M232.6,253c0-1.1,0-1.9-0.1-2.8h1.1l0.1,2.1l0,0c0.6-1.3,2.1-2.3,4-2.3c1.1,0,4.1,0.6,4.1,4.9v7.1h-1.2v-7
			c0-2.1-0.8-4-3.2-4c-1.6,0-3,1.2-3.5,2.7c-0.1,0.3-0.1,0.7-0.1,1v7.3h-1.2L232.6,253L232.6,253z"/>
		<path fill="#444444" d="M247.9,261.8v-0.7l1.4-1.5c4.4-4.3,6.4-6.6,6.4-9.3c0-1.8-0.7-3.5-3.4-3.5c-1.5,0-2.7,0.8-3.3,1.4
			l-0.5-0.8c1-0.9,2.4-1.6,4-1.6c3.3,0,4.4,2.5,4.4,4.3c0,3.1-2.2,5.6-6.3,9.6l-1.1,1.2l0,0h7.8v1h-9.4V261.8z"/>
		<path fill="#444444" d="M263.4,262c-2.5,0-4.7-2.4-4.8-8.1c0-5.7,2.5-8.3,5.1-8.3c2.8,0,4.8,2.5,4.8,8
			C268.5,259.3,266.5,262,263.4,262L263.4,262z M263.5,261.1c2.6,0,3.8-3,3.8-7.3c0-4.1-1.1-7.1-3.8-7.1c-2.3,0-3.8,2.9-3.8,7.1
			C259.6,258.2,261.2,261.1,263.5,261.1L263.5,261.1z"/>
		<path fill="#444444" d="M274.1,247.2L274.1,247.2l-2.6,1.5l-0.3-0.9l3-1.8h1.1v15.8h-1.1v-14.6H274.1z"/>
		<path display="none" fill="#444444" d="M280.7,260.1c0.6,0.4,1.9,1,3.4,1c3.2,0,4-2.2,4-3.6c0-2.6-2.3-3.7-4.6-3.7h-1v-1h1
			c1.7,0,3.9-1,3.9-3.2c0-1.4-0.8-2.8-3-2.8c-1.2,0-2.3,0.6-3,1.1l-0.5-0.8c0.7-0.6,2.2-1.2,3.6-1.2c3,0,4.1,1.9,4.1,3.6
			c0,1.6-1,3-2.9,3.7l0,0c2,0.4,3.5,1.9,3.5,4.2c0,2.3-1.7,4.7-5.3,4.7c-1.6,0-3-0.6-3.7-1.1L280.7,260.1z"/>
		<path fill="#444444" d="M292.2,262c-0.6,0-1-0.5-0.9-1.1c0-0.6,0.4-1.1,1-1.1c0.6,0,1,0.5,1,1.1C293.2,261.5,292.8,262,292.2,262
			L292.2,262z"/>
	</g>
	<g id="fWZtfu_1_">
		<g>
			<path fill="#B8252E" d="M65.7,85.4c1.7,0,3.6,0,5.3,0c1.7,0.3,3.5,0.7,5.2,1c1,0.2,1.6,0.5,2,1.6c0.2,0.6,1.2,1.4,1.4,1.3
				c1.4-0.5,2,0.5,2.9,1.1c1.2,0.8,2.5,1.5,3.8,2.2c0.6,0.3,1.1,0.7,1.7,1.2c-0.6,0.2-0.9,0.3-1.4,0.5c1.4,1.1,2.5,2.3,3.9,2.8
				c1.3,0.5,1.5,1.3,1.7,2.5s1.7,2.4,2.7,2.2c-0.2-0.5-0.4-1-0.6-1.5c0.4,0.3,0.7,0.7,1,1.1c0.3,0.6,0.6,1.2,0.8,1.7
				c-0.3,0.2-0.8,0.4-0.8,0.7c-0.5,3.1,1.6,5.1,2.9,7.5c0.1-0.4,0.1-0.7,0-1c-0.7-2.2-1.4-4.5-2-6.7c0.1,0.1,0.3,0.2,0.3,0.3
				c3.9,9.1,4,18.3,0,27.4c-0.1-1.8-0.5-2-2-1.2c-0.7,0.4-1.4,1.4-2.2,0.4c-1-1.1-1.7-0.7-2.9-0.4c-1.4,0.4-2.9,0.1-4.3,0.2
				l-0.1-0.1c-0.5-0.1-1-0.2-1.4-0.1c-0.6,0.1-1.2,0.5-1.7,0.7c-1.1,0.3-1.9,2-1.5,3.1c0.1,0.4,0.2,1,0,1.3c-1,1.4-2,2.7-3.1,4
				c-0.6,0.6-0.7,1-0.1,1.7c1.1,1.4,2.3,2.6,4.3,2.4c0,0.2,0.1,0.4,0.1,0.5c-1.3,1.3-2.5,2.7-4,4.2c4.8-1.3,8.5-4.2,12.2-7
				c-2.2,2.8-5.1,4.7-8.3,6c-3.3,1.3-6.7,2-10,3c-1.8,0-3.8,0-5.6,0c-0.1-0.1-0.3-0.2-0.4-0.2c-12.7-1.8-21.3-9-25.9-21.4
				c-1-2.5-1.3-5.3-1.8-7.9c0-1.9,0-3.9,0-5.8c0.1-0.2,0.2-0.5,0.3-0.7c1.6-12.7,8.1-21.5,19.4-26.5C59.9,86.6,62.8,86.2,65.7,85.4z
				 M57.8,93.9c-0.1,0.2-0.2,0.3-0.2,0.5c-0.6-0.4-1.2-0.8-1.7-1.3c-0.8-0.7-1.5-1.1-2.5-0.5C53,92.8,52.7,93,52.4,93
				c-1.9-0.6-1.5,0.4-0.7,1.9c-2.1-1-2.9-0.1-3.2,1.7c0.3,0.3,0.7,0.6,1,0.8C49,97.6,48.5,97.8,48,98c0.8,0.2,1.4,0.2,2-0.1
				c1.4-0.7,3.2,0.5,3.5,2c0.2,0.9,0.7,2,1.4,2.5c1.9,1.4,2.6,4,1.2,5.8c-1.4,1.7-1,3.8-1.1,5.7c-0.1,1.1,0.5,1.6,1.3,2.2
				c0.3,0.2,0.3,0.8,0.4,1.2c0.5,1.9,0.9,3.8,1.5,5.7c0.2,0.7,0.9,1.3,1.4,2c0.1-0.1,0.2-0.1,0.3-0.2c-0.4-1.2-0.7-2.5-1.1-3.7
				c1.3,1.2,2.5,2.4,2.9,3.8c0.7,2.3,2,3.7,4.1,4.6c1,0.4,1.8,0.8,3.2,0.7c1.5-0.1,3.7,0.7,4.7,1.9c1,1.1,2,1.7,3.2,2.4
				c0.5,0.2,1.2,0,1.7-0.1c0-0.2,0.1-0.3,0.1-0.5c-1.7-0.1-2.7-0.8-2.5-2.6c0-0.4-0.6-1.2-1.1-1.3c-1.3-0.2-1.4-1-1.4-2.1
				c0-0.5-0.2-1.4-0.6-1.5c-0.7-0.3-1.5-0.3-1.7,0.9c-0.2,1.1-1.1,1.2-1.9,0.9c-1.9-0.7-2.8-2.8-2.2-5.2c0.3-1.3,1.9-2,3.9-1.7
				c0.2,0,0.3,0.1,0.5,0.1c1.3-0.5,2.5-0.9,3.7-1.4c0.6,1.2,1.1,2.2,1.5,3.2c0.2,0,0.4-0.1,0.6-0.1c0-0.6,0.2-1.4,0-1.9
				c-1.1-1.8-0.2-3,0.9-4.2c0.4-0.5,0.5-1.3,0.7-2c0.2-0.9,0.2-1.9,0.7-2.5c0.5-0.7,1.6-1,1.4-2.3c0-0.2,0.5-0.6,0.7-0.6
				c1.7,0.4,1.4-1.9,2.6-2.2c-0.4-1.6,0.9-1.8,2-2.2c-0.7-0.5-1.3-0.9-1.6-1.2c-0.9,1-1.6,1.9-2.4,2.8c-0.2-0.2-0.4-0.4-0.6-0.5
				c0.4-0.5,0.8-1,1.2-1.5c0.7-0.9,0.8-1.7-0.3-2.4c-1.2-0.7-2.3-1.5-3.4-2.2c-0.3,1-0.8,0.3-1.4,0c-0.9-0.6-1.9-0.9-2.9-1.4
				c-0.1,0.1-0.2,0.3-0.3,0.4c1.2,2.1,1.2,4.4,0.7,7.1c-0.6-1.2-0.8-2.2-1.4-2.7c-0.7-0.6-1.7-0.6-2.6-0.9c-0.3-0.1-0.5-0.2-0.7-0.3
				c-1.1-0.5-1.3-1.4-0.6-2.2c0.8-0.9,1.8-1.6,3.1-2.6c0,0.1,0.1-0.3,0.2-0.4c0.3,0,0.6,0.2,0.9,0.3c1.1,0.3,2.1,0.5,3.2,0.8
				c0.2-0.7,0.5-1.5,0.4-2.2c-0.3-1.7-1.5-2.2-3.2-2c-0.8,0.1-1.6-0.3-2.4-0.7c-0.2-0.1,0-0.9,0.1-1.4c3,0.4,5.3,1.7,7.1,3.9
				c1.1,1.3,2.4,1.7,4.2,1.3c-1.3-1.4-2.7-2.5-2.1-4.6c0-0.2-0.2-0.5-0.4-0.6c-1.8-0.8-3.8-1.6-5.6-2.4c-0.7-0.3-1.3-0.8-1.9-1.2
				c0.1-0.2,0.2-0.3,0.2-0.5c0.5,0,1,0,1.5,0c-2-1-3.9-2.3-6.2-1.8c-1.2,0.2-2.3,0.6-3.4,0.4c-2.3-0.5-3.7,1.4-5.5,1.9
				c-1.6,0.4-3,2-4.2,3c2.6,0.3,5.1,2.4,8.2,1.7c-0.3,0.9-0.5,1.6-0.7,2.4c-2.1-1.1-4.2-2.2-6.4-3.3c-0.1,0.2-0.2,0.4-0.3,0.5
				c0.3,0.2,0.5,0.3,0.7,0.5C57.3,93.6,57.6,93.8,57.8,93.9z M75.8,125.6c1.3,1.4,4.8,1.4,5.7,0.3C79.5,125.7,77.6,125.7,75.8,125.6
				z"/>
		</g>
	</g>
	<g id="fWZtfu_2_">
		<g>
			<path fill="#B8252E" d="M113.9,135.7c1.7,0,3.6,0,5.3,0c1.7,0.3,3.5,0.7,5.2,1c1,0.2,1.6,0.5,2,1.6c0.2,0.6,1.2,1.4,1.4,1.3
				c1.4-0.5,2,0.5,2.9,1.1c1.2,0.8,2.5,1.5,3.8,2.2c0.6,0.3,1.1,0.7,1.7,1.2c-0.6,0.2-0.9,0.3-1.4,0.5c1.4,1.1,2.5,2.3,3.9,2.8
				c1.3,0.5,1.5,1.3,1.7,2.5s1.7,2.4,2.7,2.2c-0.2-0.5-0.4-1-0.6-1.5c0.4,0.3,0.7,0.7,1,1.1c0.3,0.6,0.6,1.2,0.8,1.7
				c-0.3,0.2-0.8,0.4-0.8,0.7c-0.5,3.1,1.6,5.1,2.9,7.5c0.1-0.4,0.1-0.7,0-1c-0.7-2.2-1.4-4.5-2-6.7c0.1,0.1,0.3,0.2,0.3,0.3
				c3.9,9.1,4,18.3,0,27.4c-0.1-1.8-0.5-2-2-1.2c-0.7,0.4-1.4,1.4-2.2,0.4c-1-1.1-1.7-0.7-2.9-0.4c-1.4,0.4-2.9,0.1-4.3,0.2
				l-0.1-0.1c-0.5-0.1-1-0.2-1.4-0.1c-0.6,0.1-1.2,0.5-1.7,0.7c-1.1,0.3-1.9,2-1.5,3.1c0.1,0.4,0.2,1,0,1.3c-1,1.4-2,2.7-3.1,4
				c-0.6,0.6-0.7,1-0.1,1.7c1.1,1.4,2.3,2.6,4.3,2.4c0,0.2,0.1,0.4,0.1,0.5c-1.3,1.3-2.5,2.7-4,4.2c4.8-1.3,8.5-4.2,12.2-7
				c-2.2,2.8-5.1,4.7-8.3,6c-3.3,1.3-6.7,2-10,3c-1.8,0-3.8,0-5.6,0c-0.1-0.1-0.3-0.2-0.4-0.2c-12.7-1.8-21.3-9-25.9-21.4
				c-1-2.5-1.3-5.3-1.8-7.9c0-1.9,0-3.9,0-5.8c0.1-0.2,0.2-0.5,0.3-0.7c1.6-12.7,8.1-21.5,19.4-26.5
				C108.1,136.8,111,136.4,113.9,135.7z M106,144.1c-0.1,0.2-0.2,0.3-0.2,0.5c-0.6-0.4-1.2-0.8-1.7-1.3c-0.8-0.7-1.5-1.1-2.5-0.5
				c-0.3,0.2-0.6,0.4-0.9,0.4c-1.9-0.6-1.5,0.4-0.7,1.9c-2.1-1-2.9-0.1-3.2,1.7c0.3,0.3,0.7,0.6,1,0.8c-0.6,0.2-1.1,0.4-1.5,0.6
				c0.8,0.2,1.4,0.2,2-0.1c1.4-0.7,3.2,0.5,3.5,2c0.2,0.9,0.7,2,1.4,2.5c1.9,1.4,2.6,4,1.2,5.8c-1.4,1.7-1,3.8-1.1,5.7
				c-0.1,1.1,0.5,1.6,1.3,2.2c0.3,0.2,0.3,0.8,0.4,1.2c0.5,1.9,0.9,3.8,1.5,5.7c0.2,0.7,0.9,1.3,1.4,2c0.1-0.1,0.2-0.1,0.3-0.2
				c-0.4-1.2-0.7-2.5-1.1-3.7c1.3,1.2,2.5,2.4,2.9,3.8c0.7,2.3,2,3.7,4.1,4.6c1,0.4,1.8,0.8,3.2,0.7c1.5-0.1,3.7,0.7,4.7,1.9
				c1,1.1,2,1.7,3.2,2.4c0.5,0.2,1.2,0,1.7-0.1c0-0.2,0.1-0.3,0.1-0.5c-1.7-0.1-2.7-0.8-2.5-2.6c0-0.4-0.6-1.2-1.1-1.3
				c-1.3-0.2-1.4-1-1.4-2.1c0-0.5-0.2-1.4-0.6-1.5c-0.7-0.3-1.5-0.3-1.7,0.9c-0.2,1.1-1.1,1.2-1.9,0.9c-1.9-0.7-2.8-2.8-2.2-5.2
				c0.3-1.3,1.9-2,3.9-1.7c0.2,0,0.3,0.1,0.5,0.1c1.3-0.5,2.5-0.9,3.7-1.4c0.6,1.2,1.1,2.2,1.5,3.2c0.2,0,0.4-0.1,0.6-0.1
				c0-0.6,0.2-1.4,0-1.9c-1.1-1.8-0.2-3,0.9-4.2c0.4-0.5,0.5-1.3,0.7-2c0.2-0.9,0.2-1.9,0.7-2.5c0.5-0.7,1.6-1,1.4-2.3
				c0-0.2,0.5-0.6,0.7-0.6c1.7,0.4,1.4-1.9,2.6-2.2c-0.4-1.6,0.9-1.8,2-2.2c-0.7-0.5-1.3-0.9-1.6-1.2c-0.9,1-1.6,1.9-2.4,2.8
				c-0.2-0.2-0.4-0.4-0.6-0.5c0.4-0.5,0.8-1,1.2-1.5c0.7-0.9,0.8-1.7-0.3-2.4c-1.2-0.7-2.3-1.5-3.4-2.2c-0.3,1-0.8,0.3-1.4,0
				c-0.9-0.6-1.9-0.9-2.9-1.4c-0.1,0.1-0.2,0.3-0.3,0.4c1.2,2.1,1.2,4.4,0.7,7.1c-0.6-1.2-0.8-2.2-1.4-2.7c-0.7-0.6-1.7-0.6-2.6-0.9
				c-0.3-0.1-0.5-0.2-0.7-0.3c-1.1-0.5-1.3-1.4-0.6-2.2c0.8-0.9,1.8-1.6,3.1-2.6c0,0.1,0.1-0.3,0.2-0.4c0.3,0,0.6,0.2,0.9,0.3
				c1.1,0.3,2.1,0.5,3.2,0.8c0.2-0.7,0.5-1.5,0.4-2.2c-0.3-1.7-1.5-2.2-3.2-2c-0.8,0.1-1.6-0.3-2.4-0.7c-0.2-0.1,0-0.9,0.1-1.4
				c3,0.4,5.3,1.7,7.1,3.9c1.1,1.3,2.4,1.7,4.2,1.3c-1.3-1.4-2.7-2.5-2.1-4.6c0-0.2-0.2-0.5-0.4-0.6c-1.8-0.8-3.8-1.6-5.6-2.4
				c-0.7-0.3-1.3-0.8-1.9-1.2c0.1-0.2,0.2-0.3,0.2-0.5c0.5,0,1,0,1.5,0c-2-1-3.9-2.3-6.2-1.8c-1.2,0.2-2.3,0.6-3.4,0.4
				c-2.3-0.5-3.7,1.4-5.5,1.9c-1.6,0.4-3,2-4.2,3c2.6,0.3,5.1,2.4,8.2,1.7c-0.3,0.9-0.5,1.6-0.7,2.4c-2.1-1.1-4.2-2.2-6.4-3.3
				c-0.1,0.2-0.2,0.4-0.3,0.5c0.3,0.2,0.5,0.3,0.7,0.5C105.5,143.8,105.8,144,106,144.1z M124.1,175.9c1.3,1.4,4.8,1.4,5.7,0.3
				C127.7,176,125.9,176,124.1,175.9z"/>
		</g>
	</g>
	<g id="fWZtfu_3_">
		<g>
			<path fill="#B8252E" d="M162.2,85.4c1.7,0,3.6,0,5.3,0c1.7,0.3,3.5,0.7,5.2,1c1,0.2,1.6,0.5,2,1.6c0.2,0.6,1.2,1.4,1.4,1.3
				c1.4-0.5,2,0.5,2.9,1.1c1.2,0.8,2.5,1.5,3.8,2.2c0.6,0.3,1.1,0.7,1.7,1.2c-0.6,0.2-0.9,0.3-1.4,0.5c1.4,1.1,2.5,2.3,3.9,2.8
				c1.3,0.5,1.5,1.3,1.7,2.5s1.7,2.4,2.7,2.2c-0.2-0.5-0.4-1-0.6-1.5c0.4,0.3,0.7,0.7,1,1.1c0.3,0.6,0.6,1.2,0.8,1.7
				c-0.3,0.2-0.8,0.4-0.8,0.7c-0.5,3.1,1.6,5.1,2.9,7.5c0.1-0.4,0.1-0.7,0-1c-0.7-2.2-1.4-4.5-2-6.7c0.1,0.1,0.3,0.2,0.3,0.3
				c3.9,9.1,4,18.3,0,27.4c-0.1-1.8-0.5-2-2-1.2c-0.7,0.4-1.4,1.4-2.2,0.4c-1-1.1-1.7-0.7-2.9-0.4c-1.4,0.4-2.9,0.1-4.3,0.2
				l-0.1-0.1c-0.5-0.1-1-0.2-1.4-0.1c-0.6,0.1-1.2,0.5-1.7,0.7c-1.1,0.3-1.9,2-1.5,3.1c0.1,0.4,0.2,1,0,1.3c-1,1.4-2,2.7-3.1,4
				c-0.6,0.6-0.7,1-0.1,1.7c1.1,1.4,2.3,2.6,4.3,2.4c0,0.2,0.1,0.4,0.1,0.5c-1.3,1.3-2.5,2.7-4,4.2c4.8-1.3,8.5-4.2,12.2-7
				c-2.2,2.8-5.1,4.7-8.3,6c-3.3,1.3-6.7,2-10,3c-1.8,0-3.8,0-5.6,0c-0.1-0.1-0.3-0.2-0.4-0.2c-12.7-1.8-21.3-9-25.9-21.4
				c-1-2.5-1.3-5.3-1.8-7.9c0-1.9,0-3.9,0-5.8c0.1-0.2,0.2-0.5,0.3-0.7c1.6-12.7,8.1-21.5,19.4-26.5
				C156.4,86.6,159.3,86.2,162.2,85.4z M154.3,93.9c-0.1,0.2-0.2,0.3-0.2,0.5c-0.6-0.4-1.2-0.8-1.7-1.3c-0.8-0.7-1.5-1.1-2.5-0.5
				c-0.3,0.2-0.6,0.4-0.9,0.4c-1.9-0.6-1.5,0.4-0.7,1.9c-2.1-1-2.9-0.1-3.2,1.7c0.3,0.3,0.7,0.6,1,0.8c-0.6,0.2-1.1,0.4-1.5,0.6
				c0.8,0.2,1.4,0.2,2-0.1c1.4-0.7,3.2,0.5,3.5,2c0.2,0.9,0.7,2,1.4,2.5c1.9,1.4,2.6,4,1.2,5.8c-1.4,1.7-1,3.8-1.1,5.7
				c-0.1,1.1,0.5,1.6,1.3,2.2c0.3,0.2,0.3,0.8,0.4,1.2c0.5,1.9,0.9,3.8,1.5,5.7c0.2,0.7,0.9,1.3,1.4,2c0.1-0.1,0.2-0.1,0.3-0.2
				c-0.4-1.2-0.7-2.5-1.1-3.7c1.3,1.2,2.5,2.4,2.9,3.8c0.7,2.3,2,3.7,4.1,4.6c1,0.4,1.8,0.8,3.2,0.7c1.5-0.1,3.7,0.7,4.7,1.9
				c1,1.1,2,1.7,3.2,2.4c0.5,0.2,1.2,0,1.7-0.1c0-0.2,0.1-0.3,0.1-0.5c-1.7-0.1-2.7-0.8-2.5-2.6c0-0.4-0.6-1.2-1.1-1.3
				c-1.3-0.2-1.4-1-1.4-2.1c0-0.5-0.2-1.4-0.6-1.5c-0.7-0.3-1.5-0.3-1.7,0.9c-0.2,1.1-1.1,1.2-1.9,0.9c-1.9-0.7-2.8-2.8-2.2-5.2
				c0.3-1.3,1.9-2,3.9-1.7c0.2,0,0.3,0.1,0.5,0.1c1.3-0.5,2.5-0.9,3.7-1.4c0.6,1.2,1.1,2.2,1.5,3.2c0.2,0,0.4-0.1,0.6-0.1
				c0-0.6,0.2-1.4,0-1.9c-1.1-1.8-0.2-3,0.9-4.2c0.4-0.5,0.5-1.3,0.7-2c0.2-0.9,0.2-1.9,0.7-2.5c0.5-0.7,1.6-1,1.4-2.3
				c0-0.2,0.5-0.6,0.7-0.6c1.7,0.4,1.4-1.9,2.6-2.2c-0.4-1.6,0.9-1.8,2-2.2c-0.7-0.5-1.3-0.9-1.6-1.2c-0.9,1-1.6,1.9-2.4,2.8
				c-0.2-0.2-0.4-0.4-0.6-0.5c0.4-0.5,0.8-1,1.2-1.5c0.7-0.9,0.8-1.7-0.3-2.4c-1.2-0.7-2.3-1.5-3.4-2.2c-0.3,1-0.8,0.3-1.4,0
				c-0.9-0.6-1.9-0.9-2.9-1.4c-0.1,0.1-0.2,0.3-0.3,0.4c1.2,2.1,1.2,4.4,0.7,7.1c-0.6-1.2-0.8-2.2-1.4-2.7c-0.7-0.6-1.7-0.6-2.6-0.9
				c-0.3-0.1-0.5-0.2-0.7-0.3c-1.1-0.5-1.3-1.4-0.6-2.2c0.8-0.9,1.8-1.6,3.1-2.6c0,0.1,0.1-0.3,0.2-0.4c0.3,0,0.6,0.2,0.9,0.3
				c1.1,0.3,2.1,0.5,3.2,0.8c0.2-0.7,0.5-1.5,0.4-2.2c-0.3-1.7-1.5-2.2-3.2-2c-0.8,0.1-1.6-0.3-2.4-0.7c-0.2-0.1,0-0.9,0.1-1.4
				c3,0.4,5.3,1.7,7.1,3.9c1.1,1.3,2.4,1.7,4.2,1.3c-1.3-1.4-2.7-2.5-2.1-4.6c0-0.2-0.2-0.5-0.4-0.6c-1.8-0.8-3.8-1.6-5.6-2.4
				c-0.7-0.3-1.3-0.8-1.9-1.2c0.1-0.2,0.2-0.3,0.2-0.5c0.5,0,1,0,1.5,0c-2-1-3.9-2.3-6.2-1.8c-1.2,0.2-2.3,0.6-3.4,0.4
				c-2.3-0.5-3.7,1.4-5.5,1.9c-1.6,0.4-3,2-4.2,3c2.6,0.3,5.1,2.4,8.2,1.7c-0.3,0.9-0.5,1.6-0.7,2.4c-2.1-1.1-4.2-2.2-6.4-3.3
				c-0.1,0.2-0.2,0.4-0.3,0.5c0.3,0.2,0.5,0.3,0.7,0.5C153.8,93.6,154.1,93.8,154.3,93.9z M172.3,125.6c1.3,1.4,4.8,1.4,5.7,0.3
				C176,125.7,174.2,125.7,172.3,125.6z"/>
		</g>
	</g>
	<g id="fWZtfu_4_">
		<g>
			<path fill="#B8252E" d="M210.4,135.7c1.7,0,3.6,0,5.3,0c1.7,0.3,3.5,0.7,5.2,1c1,0.2,1.6,0.5,2,1.6c0.2,0.6,1.2,1.4,1.4,1.3
				c1.4-0.5,2,0.5,2.9,1.1c1.2,0.8,2.5,1.5,3.8,2.2c0.6,0.3,1.1,0.7,1.7,1.2c-0.6,0.2-0.9,0.3-1.4,0.5c1.4,1.1,2.5,2.3,3.9,2.8
				c1.3,0.5,1.5,1.3,1.7,2.5s1.7,2.4,2.7,2.2c-0.2-0.5-0.4-1-0.6-1.5c0.4,0.3,0.7,0.7,1,1.1c0.3,0.6,0.6,1.2,0.8,1.7
				c-0.3,0.2-0.8,0.4-0.8,0.7c-0.5,3.1,1.6,5.1,2.9,7.5c0.1-0.4,0.1-0.7,0-1c-0.7-2.2-1.4-4.5-2-6.7c0.1,0.1,0.3,0.2,0.3,0.3
				c3.9,9.1,4,18.3,0,27.4c-0.1-1.8-0.5-2-2-1.2c-0.7,0.4-1.4,1.4-2.2,0.4c-1-1.1-1.7-0.7-2.9-0.4c-1.4,0.4-2.9,0.1-4.3,0.2
				l-0.1-0.1c-0.5-0.1-1-0.2-1.4-0.1c-0.6,0.1-1.2,0.5-1.7,0.7c-1.1,0.3-1.9,2-1.5,3.1c0.1,0.4,0.2,1,0,1.3c-1,1.4-2,2.7-3.1,4
				c-0.6,0.6-0.7,1-0.1,1.7c1.1,1.4,2.3,2.6,4.3,2.4c0,0.2,0.1,0.4,0.1,0.5c-1.3,1.3-2.5,2.7-4,4.2c4.8-1.3,8.5-4.2,12.2-7
				c-2.2,2.8-5.1,4.7-8.3,6c-3.3,1.3-6.7,2-10,3c-1.8,0-3.8,0-5.6,0c-0.1-0.1-0.3-0.2-0.4-0.2c-12.7-1.8-21.3-9-25.9-21.4
				c-1-2.5-1.3-5.3-1.8-7.9c0-1.9,0-3.9,0-5.8c0.1-0.2,0.2-0.5,0.3-0.7c1.6-12.7,8.1-21.5,19.4-26.5
				C204.7,136.8,207.5,136.4,210.4,135.7z M202.5,144.1c-0.1,0.2-0.2,0.3-0.2,0.5c-0.6-0.4-1.2-0.8-1.7-1.3
				c-0.8-0.7-1.5-1.1-2.5-0.5c-0.3,0.2-0.6,0.4-0.9,0.4c-1.9-0.6-1.5,0.4-0.7,1.9c-2.1-1-2.9-0.1-3.2,1.7c0.3,0.3,0.7,0.6,1,0.8
				c-0.6,0.2-1.1,0.4-1.5,0.6c0.8,0.2,1.4,0.2,2-0.1c1.4-0.7,3.2,0.5,3.5,2c0.2,0.9,0.7,2,1.4,2.5c1.9,1.4,2.6,4,1.2,5.8
				c-1.4,1.7-1,3.8-1.1,5.7c-0.1,1.1,0.5,1.6,1.3,2.2c0.3,0.2,0.3,0.8,0.4,1.2c0.5,1.9,0.9,3.8,1.5,5.7c0.2,0.7,0.9,1.3,1.4,2
				c0.1-0.1,0.2-0.1,0.3-0.2c-0.4-1.2-0.7-2.5-1.1-3.7c1.3,1.2,2.5,2.4,2.9,3.8c0.7,2.3,2,3.7,4.1,4.6c1,0.4,1.8,0.8,3.2,0.7
				c1.5-0.1,3.7,0.7,4.7,1.9c1,1.1,2,1.7,3.2,2.4c0.5,0.2,1.2,0,1.7-0.1c0-0.2,0.1-0.3,0.1-0.5c-1.7-0.1-2.7-0.8-2.5-2.6
				c0-0.4-0.6-1.2-1.1-1.3c-1.3-0.2-1.4-1-1.4-2.1c0-0.5-0.2-1.4-0.6-1.5c-0.7-0.3-1.5-0.3-1.7,0.9c-0.2,1.1-1.1,1.2-1.9,0.9
				c-1.9-0.7-2.8-2.8-2.2-5.2c0.3-1.3,1.9-2,3.9-1.7c0.2,0,0.3,0.1,0.5,0.1c1.3-0.5,2.5-0.9,3.7-1.4c0.6,1.2,1.1,2.2,1.5,3.2
				c0.2,0,0.4-0.1,0.6-0.1c0-0.6,0.2-1.4,0-1.9c-1.1-1.8-0.2-3,0.9-4.2c0.4-0.5,0.5-1.3,0.7-2c0.2-0.9,0.2-1.9,0.7-2.5
				c0.5-0.7,1.6-1,1.4-2.3c0-0.2,0.5-0.6,0.7-0.6c1.7,0.4,1.4-1.9,2.6-2.2c-0.4-1.6,0.9-1.8,2-2.2c-0.7-0.5-1.3-0.9-1.6-1.2
				c-0.9,1-1.6,1.9-2.4,2.8c-0.2-0.2-0.4-0.4-0.6-0.5c0.4-0.5,0.8-1,1.2-1.5c0.7-0.9,0.8-1.7-0.3-2.4c-1.2-0.7-2.3-1.5-3.4-2.2
				c-0.3,1-0.8,0.3-1.4,0c-0.9-0.6-1.9-0.9-2.9-1.4c-0.1,0.1-0.2,0.3-0.3,0.4c1.2,2.1,1.2,4.4,0.7,7.1c-0.6-1.2-0.8-2.2-1.4-2.7
				c-0.7-0.6-1.7-0.6-2.6-0.9c-0.3-0.1-0.5-0.2-0.7-0.3c-1.1-0.5-1.3-1.4-0.6-2.2c0.8-0.9,1.8-1.6,3.1-2.6c0,0.1,0.1-0.3,0.2-0.4
				c0.3,0,0.6,0.2,0.9,0.3c1.1,0.3,2.1,0.5,3.2,0.8c0.2-0.7,0.5-1.5,0.4-2.2c-0.3-1.7-1.5-2.2-3.2-2c-0.8,0.1-1.6-0.3-2.4-0.7
				c-0.2-0.1,0-0.9,0.1-1.4c3,0.4,5.3,1.7,7.1,3.9c1.1,1.3,2.4,1.7,4.2,1.3c-1.3-1.4-2.7-2.5-2.1-4.6c0-0.2-0.2-0.5-0.4-0.6
				c-1.8-0.8-3.8-1.6-5.6-2.4c-0.7-0.3-1.3-0.8-1.9-1.2c0.1-0.2,0.2-0.3,0.2-0.5c0.5,0,1,0,1.5,0c-2-1-3.9-2.3-6.2-1.8
				c-1.2,0.2-2.3,0.6-3.4,0.4c-2.3-0.5-3.7,1.4-5.5,1.9c-1.6,0.4-3,2-4.2,3c2.6,0.3,5.1,2.4,8.2,1.7c-0.3,0.9-0.5,1.6-0.7,2.4
				c-2.1-1.1-4.2-2.2-6.4-3.3c-0.1,0.2-0.2,0.4-0.3,0.5c0.3,0.2,0.5,0.3,0.7,0.5C202,143.8,202.3,144,202.5,144.1z M220.6,175.9
				c1.3,1.4,4.8,1.4,5.7,0.3C224.2,176,222.4,176,220.6,175.9z"/>
		</g>
	</g>
	<g id="fWZtfu_5_">
		<g>
			<path fill="#B8252E" d="M258.7,85.4c1.7,0,3.6,0,5.3,0c1.7,0.3,3.5,0.7,5.2,1c1,0.2,1.6,0.5,2,1.6c0.2,0.6,1.2,1.4,1.4,1.3
				c1.4-0.5,2,0.5,2.9,1.1c1.2,0.8,2.5,1.5,3.8,2.2c0.6,0.3,1.1,0.7,1.7,1.2c-0.6,0.2-0.9,0.3-1.4,0.5c1.4,1.1,2.5,2.3,3.9,2.8
				c1.3,0.5,1.5,1.3,1.7,2.5c0.2,1.2,1.7,2.4,2.7,2.2c-0.2-0.5-0.4-1-0.6-1.5c0.4,0.3,0.7,0.7,1,1.1c0.3,0.6,0.6,1.2,0.8,1.7
				c-0.3,0.2-0.8,0.4-0.8,0.7c-0.5,3.1,1.6,5.1,2.9,7.5c0.1-0.4,0.1-0.7,0-1c-0.7-2.2-1.4-4.5-2-6.7c0.1,0.1,0.3,0.2,0.3,0.3
				c3.9,9.1,4,18.3,0,27.4c-0.1-1.8-0.5-2-2-1.2c-0.7,0.4-1.4,1.4-2.2,0.4c-1-1.1-1.7-0.7-2.9-0.4c-1.4,0.4-2.9,0.1-4.3,0.2
				l-0.1-0.1c-0.5-0.1-1-0.2-1.4-0.1c-0.6,0.1-1.2,0.5-1.7,0.7c-1.1,0.3-1.9,2-1.5,3.1c0.1,0.4,0.2,1,0,1.3c-1,1.4-2,2.7-3.1,4
				c-0.6,0.6-0.7,1-0.1,1.7c1.1,1.4,2.3,2.6,4.3,2.4c0,0.2,0.1,0.4,0.1,0.5c-1.3,1.3-2.5,2.7-4,4.2c4.8-1.3,8.5-4.2,12.2-7
				c-2.2,2.8-5.1,4.7-8.3,6c-3.3,1.3-6.7,2-10,3c-1.8,0-3.8,0-5.6,0c-0.1-0.1-0.3-0.2-0.4-0.2c-12.7-1.8-21.3-9-25.9-21.4
				c-1-2.5-1.3-5.3-1.8-7.9c0-1.9,0-3.9,0-5.8c0.1-0.2,0.2-0.5,0.3-0.7c1.6-12.7,8.1-21.5,19.4-26.5
				C252.9,86.6,255.8,86.2,258.7,85.4z M250.8,93.9c-0.1,0.2-0.2,0.3-0.2,0.5c-0.6-0.4-1.2-0.8-1.7-1.3c-0.8-0.7-1.5-1.1-2.5-0.5
				c-0.3,0.2-0.6,0.4-0.9,0.4c-1.9-0.6-1.5,0.4-0.7,1.9c-2.1-1-2.9-0.1-3.2,1.7c0.3,0.3,0.7,0.6,1,0.8c-0.6,0.2-1.1,0.4-1.5,0.6
				c0.8,0.2,1.4,0.2,2-0.1c1.4-0.7,3.2,0.5,3.5,2c0.2,0.9,0.7,2,1.4,2.5c1.9,1.4,2.6,4,1.2,5.8c-1.4,1.7-1,3.8-1.1,5.7
				c-0.1,1.1,0.5,1.6,1.3,2.2c0.3,0.2,0.3,0.8,0.4,1.2c0.5,1.9,0.9,3.8,1.5,5.7c0.2,0.7,0.9,1.3,1.4,2c0.1-0.1,0.2-0.1,0.3-0.2
				c-0.4-1.2-0.7-2.5-1.1-3.7c1.3,1.2,2.5,2.4,2.9,3.8c0.7,2.3,2,3.7,4.1,4.6c1,0.4,1.8,0.8,3.2,0.7c1.5-0.1,3.7,0.7,4.7,1.9
				c1,1.1,2,1.7,3.2,2.4c0.5,0.2,1.2,0,1.7-0.1c0-0.2,0.1-0.3,0.1-0.5c-1.7-0.1-2.7-0.8-2.5-2.6c0-0.4-0.6-1.2-1.1-1.3
				c-1.3-0.2-1.4-1-1.4-2.1c0-0.5-0.2-1.4-0.6-1.5c-0.7-0.3-1.5-0.3-1.7,0.9c-0.2,1.1-1.1,1.2-1.9,0.9c-1.9-0.7-2.8-2.8-2.2-5.2
				c0.3-1.3,1.9-2,3.9-1.7c0.2,0,0.3,0.1,0.5,0.1c1.3-0.5,2.5-0.9,3.7-1.4c0.6,1.2,1.1,2.2,1.5,3.2c0.2,0,0.4-0.1,0.6-0.1
				c0-0.6,0.2-1.4,0-1.9c-1.1-1.8-0.2-3,0.9-4.2c0.4-0.5,0.5-1.3,0.7-2c0.2-0.9,0.2-1.9,0.7-2.5c0.5-0.7,1.6-1,1.4-2.3
				c0-0.2,0.5-0.6,0.7-0.6c1.7,0.4,1.4-1.9,2.6-2.2c-0.4-1.6,0.9-1.8,2-2.2c-0.7-0.5-1.3-0.9-1.6-1.2c-0.9,1-1.6,1.9-2.4,2.8
				c-0.2-0.2-0.4-0.4-0.6-0.5c0.4-0.5,0.8-1,1.2-1.5c0.7-0.9,0.8-1.7-0.3-2.4c-1.2-0.7-2.3-1.5-3.4-2.2c-0.3,1-0.8,0.3-1.4,0
				c-0.9-0.6-1.9-0.9-2.9-1.4c-0.1,0.1-0.2,0.3-0.3,0.4c1.2,2.1,1.2,4.4,0.7,7.1c-0.6-1.2-0.8-2.2-1.4-2.7c-0.7-0.6-1.7-0.6-2.6-0.9
				c-0.3-0.1-0.5-0.2-0.7-0.3c-1.1-0.5-1.3-1.4-0.6-2.2c0.8-0.9,1.8-1.6,3.1-2.6c0,0.1,0.1-0.3,0.2-0.4c0.3,0,0.6,0.2,0.9,0.3
				c1.1,0.3,2.1,0.5,3.2,0.8c0.2-0.7,0.5-1.5,0.4-2.2c-0.3-1.7-1.5-2.2-3.2-2c-0.8,0.1-1.6-0.3-2.4-0.7c-0.2-0.1,0-0.9,0.1-1.4
				c3,0.4,5.3,1.7,7.1,3.9c1.1,1.3,2.4,1.7,4.2,1.3c-1.3-1.4-2.7-2.5-2.1-4.6c0-0.2-0.2-0.5-0.4-0.6c-1.8-0.8-3.8-1.6-5.6-2.4
				c-0.7-0.3-1.3-0.8-1.9-1.2c0.1-0.2,0.2-0.3,0.2-0.5c0.5,0,1,0,1.5,0c-2-1-3.9-2.3-6.2-1.8c-1.2,0.2-2.3,0.6-3.4,0.4
				c-2.3-0.5-3.7,1.4-5.5,1.9c-1.6,0.4-3,2-4.2,3c2.6,0.3,5.1,2.4,8.2,1.7c-0.3,0.9-0.5,1.6-0.7,2.4c-2.1-1.1-4.2-2.2-6.4-3.3
				c-0.1,0.2-0.2,0.4-0.3,0.5c0.3,0.2,0.5,0.3,0.7,0.5C250.3,93.6,250.6,93.8,250.8,93.9z M268.8,125.6c1.3,1.4,4.8,1.4,5.7,0.3
				C272.5,125.7,270.7,125.7,268.8,125.6z"/>
		</g>
	</g>
	<g>
		<path fill="#444444" d="M286.2,262v-4.7h-7.6v-0.8l7.8-10.4h1v10.2h2.4v1h-2.4v4.7H286.2z M286.2,256.3v-6.4c0-0.8,0-1.5,0.1-2.2
			l-0.1,0c-0.5,0.9-0.9,1.4-1.2,2l-4.9,6.6v0H286.2z"/>
	</g>
	<g>
		<path fill="#B8252E" d="M271,219.6c-0.4,0-1,0-1.6,0.1c-3.4,0.6-5.2,3-5.5,5.6h0.1c0.8-1,2.1-1.8,3.8-1.8c2.8,0,4.8,2,4.8,5.1
			c0,2.9-2,5.6-5.3,5.6c-3.4,0-5.6-2.6-5.6-6.8c0-3.1,1.1-5.6,2.7-7.2c1.3-1.3,3.1-2.1,5.1-2.3c0.6-0.1,1.2-0.1,1.6-0.1V219.6z
			 M270.4,228.7c0-2.3-1.3-3.6-3.3-3.6c-1.3,0-2.5,0.8-3.1,2c-0.1,0.2-0.2,0.6-0.2,1c0,2.6,1.2,4.5,3.5,4.5
			C269.2,232.6,270.4,231,270.4,228.7z"/>
	</g>
	<g id="fWZtfu_6_">
		<g>
			<path fill="#B8252E" d="M307.5,135.7c1.7,0,3.6,0,5.3,0c1.7,0.3,3.5,0.7,5.2,1c1,0.2,1.6,0.5,2,1.6c0.2,0.6,1.2,1.4,1.4,1.3
				c1.4-0.5,2,0.5,2.9,1.1c1.2,0.8,2.5,1.5,3.8,2.2c0.6,0.3,1.1,0.7,1.7,1.2c-0.6,0.2-0.9,0.3-1.4,0.5c1.4,1.1,2.5,2.3,3.9,2.8
				c1.3,0.5,1.5,1.3,1.7,2.5c0.2,1.2,1.7,2.4,2.7,2.2c-0.2-0.5-0.4-1-0.6-1.5c0.4,0.3,0.7,0.7,1,1.1c0.3,0.6,0.6,1.2,0.8,1.7
				c-0.3,0.2-0.8,0.4-0.8,0.7c-0.5,3.1,1.6,5.1,2.9,7.5c0.1-0.4,0.1-0.7,0-1c-0.7-2.2-1.4-4.5-2-6.7c0.1,0.1,0.3,0.2,0.3,0.3
				c3.9,9.1,4,18.3,0,27.4c-0.1-1.8-0.5-2-2-1.2c-0.7,0.4-1.4,1.4-2.2,0.4c-1-1.1-1.7-0.7-2.9-0.4c-1.4,0.4-2.9,0.1-4.3,0.2
				l-0.1-0.1c-0.5-0.1-1-0.2-1.4-0.1c-0.6,0.1-1.2,0.5-1.7,0.7c-1.1,0.3-1.9,2-1.5,3.1c0.1,0.4,0.2,1,0,1.3c-1,1.4-2,2.7-3.1,4
				c-0.6,0.6-0.7,1-0.1,1.7c1.1,1.4,2.3,2.6,4.3,2.4c0,0.2,0.1,0.4,0.1,0.5c-1.3,1.3-2.5,2.7-4,4.2c4.8-1.3,8.5-4.2,12.2-7
				c-2.2,2.8-5.1,4.7-8.3,6c-3.3,1.3-6.7,2-10,3c-1.8,0-3.8,0-5.6,0c-0.1-0.1-0.3-0.2-0.4-0.2c-12.7-1.8-21.3-9-25.9-21.4
				c-1-2.5-1.3-5.3-1.8-7.9c0-1.9,0-3.9,0-5.8c0.1-0.2,0.2-0.5,0.3-0.7c1.6-12.7,8.1-21.5,19.4-26.5
				C301.7,136.8,304.6,136.4,307.5,135.7z M299.6,144.1c-0.1,0.2-0.2,0.3-0.2,0.5c-0.6-0.4-1.2-0.8-1.7-1.3
				c-0.8-0.7-1.5-1.1-2.5-0.5c-0.3,0.2-0.6,0.4-0.9,0.4c-1.9-0.6-1.5,0.4-0.7,1.9c-2.1-1-2.9-0.1-3.2,1.7c0.3,0.3,0.7,0.6,1,0.8
				c-0.6,0.2-1.1,0.4-1.5,0.6c0.8,0.2,1.4,0.2,2-0.1c1.4-0.7,3.2,0.5,3.5,2c0.2,0.9,0.7,2,1.4,2.5c1.9,1.4,2.6,4,1.2,5.8
				c-1.4,1.7-1,3.8-1.1,5.7c-0.1,1.1,0.5,1.6,1.3,2.2c0.3,0.2,0.3,0.8,0.4,1.2c0.5,1.9,0.9,3.8,1.5,5.7c0.2,0.7,0.9,1.3,1.4,2
				c0.1-0.1,0.2-0.1,0.3-0.2c-0.4-1.2-0.7-2.5-1.1-3.7c1.3,1.2,2.5,2.4,2.9,3.8c0.7,2.3,2,3.7,4.1,4.6c1,0.4,1.8,0.8,3.2,0.7
				c1.5-0.1,3.7,0.7,4.7,1.9c1,1.1,2,1.7,3.2,2.4c0.5,0.2,1.2,0,1.7-0.1c0-0.2,0.1-0.3,0.1-0.5c-1.7-0.1-2.7-0.8-2.5-2.6
				c0-0.4-0.6-1.2-1.1-1.3c-1.3-0.2-1.4-1-1.4-2.1c0-0.5-0.2-1.4-0.6-1.5c-0.7-0.3-1.5-0.3-1.7,0.9c-0.2,1.1-1.1,1.2-1.9,0.9
				c-1.9-0.7-2.8-2.8-2.2-5.2c0.3-1.3,1.9-2,3.9-1.7c0.2,0,0.3,0.1,0.5,0.1c1.3-0.5,2.5-0.9,3.7-1.4c0.6,1.2,1.1,2.2,1.5,3.2
				c0.2,0,0.4-0.1,0.6-0.1c0-0.6,0.2-1.4,0-1.9c-1.1-1.8-0.2-3,0.9-4.2c0.4-0.5,0.5-1.3,0.7-2c0.2-0.9,0.2-1.9,0.7-2.5
				c0.5-0.7,1.6-1,1.4-2.3c0-0.2,0.5-0.6,0.7-0.6c1.7,0.4,1.4-1.9,2.6-2.2c-0.4-1.6,0.9-1.8,2-2.2c-0.7-0.5-1.3-0.9-1.6-1.2
				c-0.9,1-1.6,1.9-2.4,2.8c-0.2-0.2-0.4-0.4-0.6-0.5c0.4-0.5,0.8-1,1.2-1.5c0.7-0.9,0.8-1.7-0.3-2.4c-1.2-0.7-2.3-1.5-3.4-2.2
				c-0.3,1-0.8,0.3-1.4,0c-0.9-0.6-1.9-0.9-2.9-1.4c-0.1,0.1-0.2,0.3-0.3,0.4c1.2,2.1,1.2,4.4,0.7,7.1c-0.6-1.2-0.8-2.2-1.4-2.7
				c-0.7-0.6-1.7-0.6-2.6-0.9c-0.3-0.1-0.5-0.2-0.7-0.3c-1.1-0.5-1.3-1.4-0.6-2.2c0.8-0.9,1.8-1.6,3.1-2.6c0,0.1,0.1-0.3,0.2-0.4
				c0.3,0,0.6,0.2,0.9,0.3c1.1,0.3,2.1,0.5,3.2,0.8c0.2-0.7,0.5-1.5,0.4-2.2c-0.3-1.7-1.5-2.2-3.2-2c-0.8,0.1-1.6-0.3-2.4-0.7
				c-0.2-0.1,0-0.9,0.1-1.4c3,0.4,5.3,1.7,7.1,3.9c1.1,1.3,2.4,1.7,4.2,1.3c-1.3-1.4-2.7-2.5-2.1-4.6c0-0.2-0.2-0.5-0.4-0.6
				c-1.8-0.8-3.8-1.6-5.6-2.4c-0.7-0.3-1.3-0.8-1.9-1.2c0.1-0.2,0.2-0.3,0.2-0.5c0.5,0,1,0,1.5,0c-2-1-3.9-2.3-6.2-1.8
				c-1.2,0.2-2.3,0.6-3.4,0.4c-2.3-0.5-3.7,1.4-5.5,1.9c-1.6,0.4-3,2-4.2,3c2.6,0.3,5.1,2.4,8.2,1.7c-0.3,0.9-0.5,1.6-0.7,2.4
				c-2.1-1.1-4.2-2.2-6.4-3.3c-0.1,0.2-0.2,0.4-0.3,0.5c0.3,0.2,0.5,0.3,0.7,0.5C299.1,143.8,299.4,144,299.6,144.1z M317.6,175.9
				c1.3,1.4,4.8,1.4,5.7,0.3C321.3,176,319.5,176,317.6,175.9z"/>
		</g>
	</g>
</g>
</svg>
